<?xml version="1.0" encoding="UTF-8"?>
<svg xmlns="http://www.w3.org/2000/svg" xmlns:xlink="http://www.w3.org/1999/xlink" width="600" height="330">
<rect width="600" height="330" fill="#0038a8"/>
<rect width="600" height="220" fill="#fff"/>
<rect width="600" height="110" fill="#d52b1e"/>
<g>
<g fill="none" stroke="#000">
<circle stroke-width="1.07585" cx="300" cy="165" r="42.2"/>
<circle stroke-width="0.47815" cx="300" cy="165" r="34.67"/>
<circle stroke-width="0.43816" cx="300" cy="165" r="26.56"/>
</g>
<g fill="#000">
<path d="m277.53,181.28-4.8927,2.9054-1.4963-2.5198c-0.27744-0.46724-0.44945-0.84813-0.51601-1.1427-0.0666-0.29453-0.0363-0.58185,0.0908-0.86197,0.12709-0.28011,0.34638-0.51266,0.65787-0.69763,0.27145-0.16118,0.53998-0.24239,0.80558-0.24363,0.26562-0.001,0.51973,0.0631,0.76232,0.19286,0.15451,0.0828,0.32407,0.22138,0.50868,0.41571-0.0469-0.21589-0.0648-0.38284-0.0536-0.50084,0.007-0.0794,0.0448-0.21092,0.1133-0.39456,0.0685-0.18363,0.12781-0.31439,0.17786-0.39227l0.98439-1.5732,1.0147,1.7088-1.0156,1.6955c-0.13279,0.2173-0.20433,0.38317-0.21461,0.49762-0.0109,0.15394,0.0246,0.29989,0.10651,0.43783l0.0793,0.1335,1.9858-1.1792zm-3.812,0.20962-0.37853-0.63744c-0.041-0.069-0.14247-0.18926-0.30456-0.36086-0.0795-0.0882-0.17921-0.13961-0.29919-0.15414-0.11997-0.0145-0.23336,0.01-0.34016,0.0734-0.15797,0.0938-0.2495,0.21587-0.2746,0.3662s0.0443,0.36344,0.20811,0.63933l0.39438,0.66415z"/>
<path d="m269.11,177.71-1.4871-4.4713,1.1528-0.38341,0.93096,2.7992,0.85817-0.28541-0.86358-2.5966,1.1013-0.36626,0.86358,2.5966,1.0644-0.35401-0.9579-2.8802,1.2228-0.40668,1.514,4.5524z"/>
<path d="m267.16,171.06-0.3323-2.9038c-0.0724-0.63243,0.0238-1.1233,0.28857-1.4727,0.26476-0.34935,0.67479-0.5558,1.2301-0.61935,0.57074-0.0653,1.0364,0.0553,1.3971,0.36169,0.36064,0.30644,0.58127,0.81187,0.66188,1.5163l0.10944,0.95637,2.0978-0.24007,0.2008,1.7546zm2.2094-2.0304-0.049-0.42806c-0.0385-0.33678-0.1241-0.56661-0.25667-0.68948-0.13256-0.12287-0.29011-0.17386-0.47265-0.15298-0.17739,0.0203-0.32102,0.0967-0.43089,0.22903-0.10986,0.13238-0.14612,0.36183-0.10876,0.68833l0.0569,0.49746z"/>
<path d="m266.98,160.38,0.18811-1.7443,3.3729,0.36373c0.33446,0.0361,0.64465,0.12223,0.93056,0.25847,0.28592,0.13625,0.52815,0.32764,0.72669,0.57418s0.32966,0.49688,0.39335,0.75099c0.0894,0.3532,0.10849,0.76778,0.0572,1.2437-0.0297,0.27528-0.0814,0.57357-0.15507,0.89486-0.0737,0.32129-0.17957,0.58511-0.31764,0.79144-0.13807,0.20634-0.32237,0.38882-0.55289,0.54745-0.23053,0.15863-0.46131,0.25932-0.69235,0.30207-0.37184,0.0692-0.69669,0.0888-0.97455,0.0589l-3.3729-0.36374,0.18811-1.7443,3.4539,0.37248c0.30873,0.0333,0.55915-0.0262,0.75126-0.1786,0.19211-0.15236,0.30454-0.38033,0.33727-0.68392,0.0325-0.301-0.0276-0.54628-0.18026-0.73582-0.15263-0.18954-0.38589-0.30123-0.69977-0.33508z"/>
<path d="m267.74,156.21,1.0861-3.1072c0.18101-0.51785,0.44822-0.87058,0.80162-1.0582,0.3534-0.18759,0.71941-0.21522,1.098-0.0829,0.31756,0.111,0.55534,0.30514,0.71335,0.5824,0.10535,0.18485,0.15759,0.41967,0.15673,0.70444,0.22773-0.3535,0.48638-0.58175,0.77594-0.68476,0.28956-0.103,0.60534-0.0947,0.94732,0.0248,0.27847,0.0973,0.50623,0.2496,0.68326,0.45675,0.17704,0.20718,0.29101,0.44575,0.34192,0.71573,0.0319,0.16742,0.0171,0.39799-0.0444,0.6917-0.0818,0.39082-0.14402,0.6473-0.18672,0.76943l-1.0016,2.8653zm2.6922-0.93805,0.25231-0.72183c0.0905-0.25893,0.1089-0.45466,0.0552-0.58721-0.0537-0.13253-0.16486-0.22826-0.33341-0.28718-0.15633-0.0546-0.29619-0.0466-0.41956,0.024s-0.22903,0.23176-0.31698,0.48335l-0.25615,0.73282zm2.1105,0.73772,0.29586-0.84641c0.0999-0.2858,0.11965-0.50504,0.0593-0.65773-0.0604-0.15268-0.17608-0.25891-0.34708-0.31868-0.15877-0.0555-0.30668-0.0421-0.44373,0.0402s-0.25637,0.2688-0.35798,0.55948l-0.29458,0.84275z"/>
<path d="m270.43,149.37,0.90849-1.5054,3.6722,2.2161,1.4179-2.3495,1.1997,0.72398-2.3264,3.855z"/>
<path d="m273.87,144.16,1.1282-1.3537,4.3712,3.643-1.1282,1.3537z"/>
<path d="m281.52,141.22,1.4723-0.65101c0.20313,0.39522,0.31475,0.77525,0.33485,1.1401,0.0201,0.36486-0.0469,0.71073-0.20101,1.0376-0.15411,0.32689-0.42448,0.65645-0.81111,0.98868-0.46907,0.40307-0.91088,0.66415-1.3254,0.78324-0.41455,0.1191-0.87733,0.0997-1.3884-0.0583-0.51102-0.15794-0.99673-0.50481-1.4571-1.0406-0.61387-0.71439-0.89577-1.4266-0.84571-2.1366,0.0501-0.71001,0.42249-1.3635,1.1172-1.9605,0.54365-0.46714,1.0654-0.72446,1.5654-0.77195,0.49996-0.0475,1.0211,0.0915,1.5635,0.41697l-0.95243,1.2739c-0.1542-0.0961-0.28002-0.15514-0.37744-0.1772-0.16227-0.038-0.32099-0.038-0.47616-0.00025-0.15516,0.0378-0.29947,0.11405-0.43293,0.22872-0.30224,0.25972-0.42927,0.5804-0.38109,0.96205,0.0335,0.28513,0.21632,0.62101,0.54856,1.0076,0.41149,0.47888,0.76617,0.74473,1.064,0.79755,0.29785,0.0528,0.57828-0.0338,0.84127-0.25975,0.25514-0.21924,0.38641-0.45657,0.39382-0.71199,0.007-0.25542-0.0767-0.54483-0.25221-0.86823z"/>
<path d="m287.58,139.04-1.7674,0.94226,0.19872,0.95853-1.5858,0.84547-0.78977-6.0274,1.692-0.90208,4.5643,4.0151-1.6235,0.86556zm-0.90425-0.91228-1.5172-1.5092,0.41089,2.099z"/>
<path d="m292.05,132.3,2.5741-0.44458c0.50743-0.0876,0.92922-0.0896,1.2654-0.006,0.33614,0.0838,0.62845,0.23678,0.87693,0.45908,0.24847,0.22232,0.44811,0.49639,0.59892,0.82222,0.15081,0.32584,0.25924,0.68,0.32531,1.0625,0.10349,0.59923,0.11554,1.0757,0.0362,1.4295-0.0794,0.35377-0.22095,0.66314-0.42465,0.92809-0.20371,0.26496-0.43815,0.45841-0.70331,0.58036-0.36233,0.16762-0.69776,0.27807-1.0063,0.33136l-2.5741,0.44458zm1.952,0.97061,0.52914,3.0637,0.42456-0.0733c0.36208-0.0625,0.61269-0.14717,0.75181-0.25392s0.23474-0.26769,0.28687-0.48283c0.0521-0.21514,0.0394-0.54711-0.0381-0.99589-0.10262-0.59413-0.26976-0.98411-0.50142-1.1699-0.23167-0.18582-0.5719-0.23998-1.0207-0.16247z"/>
<path d="m299.36,131.32,4.7078,0.2013-0.0519,1.2138-2.9472-0.12602-0.0386,0.90356,2.734,0.11691-0.0496,1.1595-2.734-0.11691-0.0479,1.1207,3.0326,0.12967-0.055,1.2875-4.7932-0.20495z"/>
<path d="m306.21,131.86,1.7079,0.41801-1.0197,4.1661,2.6655,0.6524-0.33312,1.361-4.3734-1.0704z"/>
<path d="m315.34,134.89,2.516,1.4873c0.54797,0.32393,0.88136,0.69687,1.0002,1.1188,0.1188,0.42194,0.036,0.87348-0.24843,1.3546-0.29234,0.49452-0.6695,0.7931-1.1315,0.89575-0.46199,0.10265-0.99815-0.0264-1.6085-0.38723l-0.82865-0.48985-1.0745,1.8177-1.5203-0.89873zm0.2858,2.9871,0.37089,0.21925c0.2918,0.1725,0.52669,0.24297,0.70467,0.21141,0.17798-0.0316,0.31371-0.12642,0.40721-0.28458,0.0909-0.1537,0.11665-0.3143,0.0774-0.4818-0.0393-0.16749-0.20035-0.33486-0.48325-0.5021l-0.43103-0.2548z"/>
<path d="m320.56,144.51-1.4666-1.364-0.8415,0.50015-1.316-1.2239,5.4413-2.7102,1.4041,1.3058-2.3091,5.6233-1.3472-1.253zm0.56794-1.1521,0.93263-1.9261-1.8507,1.0723z"/>
<path d="m321.81,147.14,4.692-3.2194,1.658,2.4164c0.30744,0.44807,0.504,0.81689,0.5897,1.1064,0.0857,0.28955,0.0743,0.57824-0.0342,0.86607-0.10849,0.28783-0.31209,0.53423-0.6108,0.73919-0.26032,0.17861-0.52295,0.27722-0.78791,0.29583-0.26497,0.0186-0.52274-0.0289-0.77331-0.14255-0.1596-0.0725-0.33786-0.19969-0.5348-0.38152,0.061,0.21236,0.0897,0.37777,0.0863,0.49625-0.002,0.0797-0.0309,0.2134-0.0872,0.40113-0.0564,0.18773-0.10695,0.32208-0.1518,0.40308l-0.87931,1.6342-1.1244-1.6387,0.90241-1.7584c0.11829-0.22552,0.17882-0.39572,0.18159-0.5106,0.00081-0.15433-0.0442-0.29763-0.13493-0.42992l-0.0878-0.12802-1.9043,1.3066zm3.7901-0.45867,0.41944,0.61131c0.0454,0.0661,0.15455,0.17952,0.32753,0.34014,0.0851,0.0828,0.18796,0.12758,0.30863,0.13423,0.12067,0.007,0.23221-0.0252,0.33464-0.0954,0.15148-0.10394,0.23483-0.23174,0.25004-0.38339,0.0152-0.15165-0.068-0.35976-0.24951-0.62434l-0.437-0.63691z"/>
<path d="m327.36,155.2-0.74229-1.8602-0.97457,0.0922-0.66605-1.6692,6.0777-0.12252,0.71065,1.7809-4.4924,4.0953-0.68188-1.7088zm1.0062-0.7985,1.6668-1.3421-2.1315,0.1777z"/>
<path d="m329.85,160.62,1.1708-0.17519,0.40208,2.6871-2.3992,0.359c-0.42757-0.46194-0.73428-0.88112-0.92012-1.2576-0.18585-0.37645-0.31936-0.83594-0.40054-1.3785-0.0999-0.66794-0.0675-1.2294,0.0973-1.6845,0.16477-0.45507,0.45504-0.8321,0.8708-1.1311,0.41575-0.299,0.91538-0.49216,1.4989-0.57947,0.6142-0.0919,1.1674-0.0452,1.6596,0.14023,0.49216,0.18539,0.89253,0.50487,1.2011,0.95844,0.23876,0.35413,0.40638,0.85365,0.50289,1.4986,0.093,0.62188,0.10634,1.0954,0.0399,1.4207-0.0665,0.32522-0.20284,0.60727-0.40911,0.84615-0.20629,0.23888-0.48347,0.43668-0.83156,0.59343l-0.55043-1.6327c0.20207-0.10089,0.34706-0.24229,0.43497-0.4242,0.0879-0.18192,0.1127-0.40083,0.0744-0.65675-0.0571-0.38132-0.23497-0.6654-0.53373-0.85225-0.29877-0.18686-0.73477-0.2374-1.308-0.15162-0.60908,0.0911-1.027,0.27076-1.2538,0.53886-0.22676,0.26811-0.30951,0.60689-0.24824,1.0164,0.0291,0.1945,0.085,0.37583,0.16774,0.54399,0.0827,0.16815,0.20894,0.35597,0.37866,0.56344l0.52975-0.0793z"/>
<path d="m333.57,168.88-0.15576,1.7475-3.379-0.30119c-0.33507-0.0299-0.6468-0.11026-0.93519-0.24118-0.28839-0.13093-0.53412-0.3178-0.7372-0.56061-0.20307-0.24283-0.3388-0.49069-0.40719-0.74358-0.096-0.35149-0.1227-0.76564-0.0802-1.2425,0.0246-0.27579,0.0707-0.57499,0.13846-0.89759,0.0677-0.3226,0.16869-0.58833,0.30292-0.79719,0.13422-0.20886,0.31511-0.39472,0.54265-0.55759,0.22755-0.16288,0.45643-0.26782,0.68664-0.31485,0.37049-0.0761,0.69492-0.10173,0.97328-0.0769l3.379,0.30119-0.15576,1.7475-3.4602-0.30842c-0.30929-0.0276-0.55857,0.0366-0.74782,0.19248-0.18926,0.15589-0.29744,0.38591-0.32455,0.69005-0.0269,0.30156,0.0378,0.54568,0.19387,0.73236,0.15612,0.18667,0.39141,0.29402,0.70586,0.32206z"/>
<path d="m327.28,174.9,0.62561-1.9026-0.80624-0.5552,0.56134-1.7072,4.7375,3.8091-0.59893,1.8215-6.0736,0.2543,0.57468-1.7478zm1.284,0.034,2.1396,0.0416-1.748-1.2326z"/>
<path d="m330.6,179.56-1.0037,1.6746-2.2386-0.002,1.0574,1.9732-0.9977,1.6647-1.6992-3.5978-2.0442-1.2252,0.90591-1.5115,2.0442,1.2252z"/>
</g>
<g fill="#009b3a" stroke="#000" stroke-width="0.1">
<path d="m305.58,145.3s16.052,6.9159,13.249,21.207-11.74,14.195-15.244,15.775c-3.5043,1.5793-5.9218,3.8396-7.3046,3.5235-1.3827-0.31613-3.2104-1.3832-3.2104-1.3832s-0.14627,2.3471,2.6684,2.7742,6.5145-3.7042,8.2916-4.1636c1.7771-0.45933,12.688-1.6436,15.343-16.185,3.0983-15.522-13.693-21.092-13.792-21.548z"/>
<path d="m313.68,148.34a2.2037,0.52177,75.104,0,1,-1.0572,0.0811,2.2037,0.52177,75.104,1,1,1.0572,-0.0811z"/>
<path d="m313.13,148.49a2.2707,0.50636,63.335,1,1,-0.95726,0.34968,2.2707,0.50636,63.335,0,1,0.95726,-0.34968z"/>
<path d="m311.52,149.55a2.1502,0.53476,17.053,0,1,-0.10032,1.0864,2.1502,0.53476,17.053,0,1,0.10032,-1.0864z"/>
<path d="m311.76,148.96a2.2609,0.50857,34.225,1,1,-0.46166,0.91557,2.2609,0.50857,34.225,1,1,0.46166,-0.91557z"/>
<path d="m312.44,148.68a2.299,0.50014,46.194,1,1,-0.6989,0.71633,2.299,0.50014,46.194,0,1,0.6989,-0.71633z"/>
<path d="m313.56,150.7c0.009,0.01-0.61928,0.34913-0.76157,0.39979-0.14231,0.0506-0.3352-0.18953-0.74445,0.0205-0.40924,0.21003-0.69016,0.59314-0.7795,0.81798-0.0893,0.22483,0.11595,0.31904,0.61058,0.0786,0.49463-0.24042,0.62481-0.62134,0.8633-0.77059,0.23847-0.14922,0.6385-0.36885,0.86618-0.44991,0.0986-0.21524,0.41874-0.67667,0.58423-0.94149,0.16549-0.2648,0.81483-0.70186,1.0512-1.2107,0.20634-0.42091,0.12886-0.77938-0.14731-0.6296-0.27617,0.14979-0.63323,0.57288-0.79951,0.87657-0.16629,0.30371-0.0235,0.69038-0.2082,0.97494-0.14547,0.2062-0.49727,0.83331-0.53495,0.83386z"/>
<path d="m318.53,152.34a3.3048,0.7416,88.415,1,1,-1.491,-0.357,3.3048,0.7416,88.415,1,1,1.491,0.357z"/>
<path d="m317.7,152.31a3.4427,0.71192,77.49,1,1,-1.4415,0.0724,3.4427,0.71192,77.49,1,1,1.4415,-0.0724z"/>
<path d="m315.13,153.11a3.2071,0.7642,34.91,1,1,-0.4987,1.511,3.2071,0.7642,34.91,1,1,0.4987,-1.511z"/>
<path d="m315.65,152.38a3.4298,0.71459,50.904,0,1,-0.94257,1.1046,3.4298,0.71459,50.904,1,1,0.94257,-1.1046z"/>
<path d="m316.69,152.28a3.5036,0.69953,61.837,1,1,-1.2051,0.71311,3.5036,0.69953,61.837,1,1,1.2051,-0.71311z"/>
<path d="m317.57,155.67c0.01,0.0178-0.97325,0.22286-1.1871,0.23175-0.21385,0.009-0.40144-0.42144-1.0378-0.30379-0.63631,0.11765-1.1522,0.54061-1.3504,0.82262-0.19818,0.28203,0.0549,0.50882,0.81953,0.38586,0.76463-0.12297,1.0711-0.61026,1.4508-0.71727,0.37968-0.107,1.0064-0.24252,1.3486-0.25671,0.20777-0.26415,0.80398-0.78171,1.1209-1.0869,0.31688-0.30518,1.3609-0.64054,1.8567-1.2634,0.42514-0.51046,0.43655-1.0585,0.005-0.9676-0.43208,0.0909-1.0667,0.53707-1.3975,0.89759-0.33087,0.36054-0.26112,0.97825-0.6112,1.3031-0.26974,0.23022-0.96462,0.97091-1.017,0.95483z"/>
<path d="m321.14,159a0.73839,3.3192,8.7402,1,1,-1.3929,-0.63898,0.73839,3.3192,8.7402,1,1,1.3929,0.63898z"/>
<path d="m320.35,158.8a3.4648,0.70737,87.95,1,1,-1.422,-0.20538,3.4648,0.70737,87.95,1,1,1.422,0.20538z"/>
<path d="m317.69,159.1a3.2231,0.76041,46.026,1,1,-0.76003,1.3966,3.2231,0.76041,46.026,1,1,0.76003,-1.3966z"/>
<path d="m318.33,158.48a3.4552,0.70935,61.791,1,1,-1.1206,0.90994,3.4552,0.70935,61.791,1,1,1.1206,-0.90994z"/>
<path d="m319.35,158.58a3.5309,0.69413,72.543,1,1,-1.3065,0.47282,3.5309,0.69413,72.543,1,1,1.3065,-0.47282z"/>
<path d="m319.61,162.09c0.006,0.0195-0.99148,0.0332-1.2021,0.00066-0.21062-0.0323-0.31635-0.49335-0.95952-0.49937-0.64317-0.006-1.2237,0.3126-1.4683,0.55307-0.24457,0.24047-0.0381,0.51308,0.73143,0.5385,0.76954,0.0255,1.157-0.39697,1.5474-0.42973,0.39042-0.0327,1.0274-0.0462,1.3644,0.005,0.25074-0.22097,0.92685-0.61761,1.2916-0.85817,0.36477-0.24055,1.4457-0.37122,2.0427-0.8912,0.50763-0.42249,0.61765-0.9616,0.17894-0.95479-0.43872,0.007-1.1395,0.32554-1.5279,0.61807-0.38843,0.29252-0.43169,0.916-0.83247,1.1696-0.30518,0.17556-1.118,0.77363-1.1663,0.74768"/>
<path d="m321.34,166.42a0.73814,3.3203,31.311,0,1,-1.0129,-1.1684,0.73814,3.3203,31.311,0,1,1.0129,1.1684"/>
<path d="m320.69,165.91a0.70283,3.4872,20.618,0,1,-1.2076,-0.77836,0.70283,3.4872,20.618,0,1,1.2076,0.77836"/>
<path d="m318.17,165.09a3.2755,0.74824,69.934,0,1,-1.2303,0.98083,3.2755,0.74824,69.934,0,1,1.2303,-0.98083"/>
<path d="m318.99,164.78a3.5112,0.69802,85.137,0,1,-1.3677,0.38052,3.5112,0.69802,85.137,1,1,1.3677,-0.38052"/>
<path d="m319.88,165.3a0.68491,3.5784,5.5508,1,1,-1.3664,-0.10172,0.68491,3.5784,5.5508,1,1,1.3664,0.10172"/>
<path d="m318.75,168.66c-0.002,0.0206-0.91045-0.37916-1.0886-0.4962-0.17812-0.11705-0.0948-0.58827-0.67475-0.85977-0.57992-0.2715-1.2292-0.21605-1.544-0.0942-0.31478,0.12187-0.23372,0.46002,0.45307,0.80175,0.68677,0.34174,1.2015,0.11022,1.5677,0.24126,0.36615,0.13105,0.94806,0.38192,1.2331,0.5692,0.31278-0.10125,1.0789-0.18952,1.5025-0.26178,0.42362-0.0722,1.4529,0.25346,2.1953,0.0181,0.62359-0.18191,0.93252-0.63634,0.53272-0.8114-0.39982-0.17507-1.158-0.16922-1.6232-0.0586-0.46522,0.11067-0.74646,0.67093-1.2077,0.74038-0.34444,0.0366-1.3125,0.25518-1.3461,0.21116"/>
<path d="m319.34,173.95a0.86442,3.782,48.457,1,1,-0.73094,-1.6561,0.86442,3.782,48.457,1,1,0.73094,1.6561"/>
<path d="m318.79,173.16a0.82109,3.9816,37.466,1,1,-1.0735,-1.296,0.82109,3.9816,37.466,1,1,1.0735,1.296"/>
<path d="m316.29,171.34a3.8093,0.85822,86.522,1,1,-1.6766,0.63757,3.8093,0.85822,86.522,1,1,1.6766,-0.63757"/>
<path d="m317.29,171.29a0.80649,4.0537,11.633,0,1,-1.6306,-0.0747,0.80649,4.0537,11.633,1,1,1.6306,0.0747"/>
<path d="m318.1,172.18a0.79539,4.1102,22.119,1,1,-1.4706,-0.60655,0.79539,4.1102,22.119,1,1,1.4706,0.60655"/>
<path d="m315.75,175.49c-0.009,0.022-0.87758-0.74786-1.0352-0.94149-0.15759-0.19362,0.089-0.68363-0.46017-1.1931-0.54912-0.50946-1.282-0.68314-1.6686-0.66249-0.38655,0.0207-0.40846,0.42323,0.23521,1.0489,0.64368,0.62564,1.2864,0.5563,1.6464,0.8334,0.35997,0.2771,0.91807,0.76453,1.1702,1.0743,0.37758,0.001,1.2499,0.18108,1.7399,0.25458,0.49005,0.0735,1.516,0.80535,2.4105,0.81412,0.74621,0.0248,1.2356-0.36504,0.85306-0.7029-0.38257-0.33788-1.219-0.60568-1.7675-0.6518-0.54847-0.0462-1.0422,0.47055-1.5728,0.38034-0.39119-0.0842-1.5286-0.19313-1.5511-0.25388"/>
<path d="m314.17,180.54a0.96734,4.1698,79.752,1,1,0.19909,-1.9977,0.96734,4.1698,79.752,1,1,-0.19909,1.9977"/>
<path d="m314.09,179.47a0.92321,4.3692,68.504,0,1,-0.32819,-1.8534,0.92321,4.3692,68.504,0,1,0.32819,1.8534"/>
<path d="m312.66,176.29a0.96428,4.1831,26.238,0,1,-1.9665,-0.36332,0.96428,4.1831,26.238,1,1,1.9665,0.36332"/>
<path d="m313.66,176.83a0.90974,4.4339,41.823,0,1,-1.533,-1.0142,0.90974,4.4339,41.823,0,1,1.533,1.0142"/>
<path d="m313.95,178.15a0.89742,4.4948,52.671,1,1,-1.0881,-1.4274,0.89742,4.4948,52.671,0,1,1.0881,1.4274"/>
<path d="m309.87,179.93c-0.0207,0.0157-0.43852-1.2188-0.48489-1.4941-0.0464-0.27531,0.45926-0.59874,0.20755-1.4008-0.25172-0.8021-0.86427-1.3912-1.2486-1.5951-0.38437-0.20393-0.6254,0.16627-0.34588,1.1336,0.27952,0.96728,0.9377,1.273,1.1338,1.7448,0.19607,0.47173,0.4685,1.2581,0.54266,1.6986,0.36367,0.2197,1.1074,0.89507,1.5403,1.2484,0.43283,0.35332,1.0233,1.6427,1.8819,2.1684,0.70667,0.45515,1.392,0.36743,1.2073-0.17513-0.18469-0.54259-0.84572-1.281-1.3499-1.6421-0.50418-0.36109-1.2629-0.15524-1.7257-0.54789-0.33158-0.3063-1.3698-1.0677-1.3584-1.1386"/>
<path d="m307.4,184.24a1.2121,4.2194,89.068,0,1,0.007,-2.4245,1.2121,4.2194,89.068,0,1,-0.007,2.4245"/>
<path d="m306.84,180.45a1.1714,4.3658,37.587,0,1,-1.7986,-1.5041,1.1714,4.3658,37.587,1,1,1.7986,1.5041"/>
<path d="m307.43,182.38a1.1973,4.2713,66.472,0,1,-0.8567,-2.2386,1.1973,4.2713,66.472,0,1,0.8567,2.2386"/>
<path d="m308.58,145.66a2.6209,0.53282,41.126,0,1,-0.99489,0.54201,2.6209,0.53282,41.126,1,1,0.99489,-0.54201"/>
<path d="m307.29,146.75a2.6543,0.52611,8.1634,0,1,0.202,1.0896,2.6543,0.52611,8.1634,1,1,-0.202,-1.0896"/>
<path d="m307.81,146.06a2.776,0.50303,26.817,1,1,-0.52645,0.86106,2.776,0.50303,26.817,0,1,0.52645,-0.86106"/>
<path d="m288.79,180.13s3.5359,0.75834,6.6097,1.8755c3.0739,1.1172,7.7443,4.9517,8.9996,5.1689,1.4081,0.0641,3.3608-0.41654,4.1019-2.4496-2.1685,0.57838-3.4689,1.457-5.539,0.31964-0.73141-0.27703-3.1265-2.4578-5.752-3.625s-7.9208-2.4978-7.9208-2.4978l-0.49937,1.2083"/>
<path d="m292.56,148.16c-0.0127-0.0303,4.0701-2.1474,4.0701-2.1474l-4.4882,1.1477-0.52144,0.78964,0.93955,0.21005"/>
<path d="m296.42,149.15c-1.5758-0.28645-3.9992-0.81633-5.5421-0.9399,1.0665-1.1813,2.536-3.1789,3.4417-4.4051-0.59804,1.1695-1.5368,2.7117-1.9073,3.8312,1.0862,0.5863,2.7936,1.0454,4.0078,1.5138"/>
<path d="m291.83,148.41c-0.0177-0.0279,3.6168-2.8004,3.6168-2.8004l-4.2006,1.8792-0.37387,0.86847,0.95766,0.0527"/>
<path d="m295.69,149.11c-1.5867-0.30167-4.0287-0.85794-5.5794-0.99119,1.0478-1.2168,2.4844-3.2756,3.3699-4.5394-0.57788,1.2063-1.4906,2.7965-1.8411,3.952,1.1012,0.60975,2.8232,1.0903,4.0506,1.5786"/>
<path d="m291.23,148.64c-0.01-0.0311,4.2591-1.7838,4.2591-1.7838l-4.5864,0.75479-0.59212,0.73968,0.91942,0.28937"/>
<path d="m295.21,149.15c-1.6049-0.13379-4.0856-0.43321-5.635-0.39973,0.89323-1.351,2.0721-3.6004,2.7993-4.9815-0.42971,1.2892-1.1454,3.0051-1.3563,4.2178,1.1608,0.49985,2.9206,0.80072,4.192,1.1634"/>
<path d="m290.79,148.66c-0.0233-0.0237,2.8854-3.5159,2.8854-3.5159l-3.6561,2.7338-0.16967,0.93251,0.9404-0.1504"/>
<path d="m295.19,149.38c-1.7196-0.0327-4.3869-0.18429-6.0307-0.0383,0.81363-1.5376,1.8405-4.0759,2.4746-5.6347-0.32708,1.4374-0.91528,3.3608-1.0174,4.6992,1.2844,0.46358,3.1854,0.66769,4.5735,0.97377"/>
<path d="m290.21,149.49c-0.0223-0.0308,3.5039-3.3619,3.5039-3.3619l-4.2398,2.3458-0.29039,1.0048,1.0262,0.0113"/>
<path d="m294.42,149.49c-1.848,0.007-4.6936-0.0933-6.4968,0.10867,1.1962-1.7142,2.8298-4.536,3.8367-6.269-0.65065,1.5916-1.6836,3.725-2.0711,5.2021,1.2892,0.47854,3.2974,0.65581,4.7312,0.95826"/>
<path d="m289.03,149.74c-0.0176-0.0333,4.476-3.7911,4.476-3.7911l-5.0591,2.6902-0.52142,1.1141,1.1046-0.0132"/>
<path d="m293.75,149.6c-1.83,0.26391-4.6638,0.56204-6.4216,1.0097,0.93966-1.8374,2.154-4.8155,2.9034-6.6449-0.41668,1.6421-1.1346,3.8655-1.3069,5.3593,1.346,0.28713,3.3611,0.18057,4.8251,0.27594"/>
<path d="m288.43,150.49c-0.0259-0.0268,3.4487-4.7769,3.4487-4.7769l-4.3038,3.8915-0.23064,1.1922,1.0858-0.3068"/>
<path d="m292.74,150.17c-1.8426,0.17159-4.6899,0.32693-6.4707,0.68564,1.0418-1.7872,2.4221-4.6995,3.2735-6.4883-0.50848,1.6185-1.3505,3.8022-1.6066,5.2848,1.3282,0.35426,3.347,0.34906,4.8038,0.51778"/>
<path d="m287.81,150.99c-0.0179-0.0338,4.3902-3.7991,4.3902-3.7991l-4.981,2.6844-0.50347,1.1213,1.0943-0.007"/>
<path d="m292.2,150.36c-1.837,0.38744-4.6873,0.87846-6.4421,1.442,0.85827-1.8764,1.9372-4.8962,2.6036-6.7515-0.33926,1.6475-0.95401,3.8889-1.0536,5.3732,1.3752,0.18936,3.4073-0.0559,4.8922-0.0637"/>
<path d="m287.08,151.19c-0.03-0.0213,2.8045-5.2073,2.8045-5.2073l-3.7959,4.5028-0.0628,1.1897,1.0542-0.48522"/>
<path d="m292.2,150.66c-1.9709,0.51269-5.0424,1.1852-6.9015,1.891,0.71391-2.1333,1.5308-5.5533,2.0364-7.6546-0.17164,1.855-0.57348,4.3854-0.5018,6.0476,1.534,0.1517,3.7366-0.21064,5.367-0.28402"/>
<path d="m286.53,152.39c-0.0298-0.0303,3.5334-5.2185,3.5334-5.2185l-4.5179,4.2179-0.1906,1.3165,1.1751-0.31589"/>
<path d="m291.42,151.25c-1.9374,0.61271-4.9624,1.4426-6.7795,2.2401,0.61082-2.1464,1.264-5.5698,1.669-7.6734-0.0842,1.8422-0.36592,4.3642-0.21696,6.0029,1.5335,0.0673,3.7084-0.40931,5.3275-0.56959"/>
<path d="m285.82,153.16c-0.0343-0.0242,2.6855-5.7607,2.6855-5.7607l-3.8184,4.9613,0.0173,1.3246,1.1156-0.52521"/>
<path d="m290.68,152.04c-1.9847,0.45234-5.0722,1.0322-6.9539,1.6786,0.80306-2.0896,1.7642-5.4488,2.3585-7.5126-0.25108,1.8295-0.76055,4.3205-0.76099,5.9662,1.5208,0.19251,3.7297-0.10474,5.3564-0.13211"/>
<path d="m285.18,153.71c-0.0238-0.0354,4.3881-4.5082,4.3881-4.5082l-5.173,3.338-0.42128,1.2662,1.2062-0.0961"/>
<path d="m289.8,152.82c-1.966,0.26388-5.0168,0.54834-6.8942,1.02,0.91275-2.0472,2.058-5.3709,2.7652-7.4125-0.3577,1.8371-1.0084,4.3219-1.1101,5.9967,1.4734,0.34649,3.6488,0.26266,5.239,0.39584"/>
<path d="m284.31,153.26c-0.0323-0.0271,2.9857-5.6409,2.9857-5.6409l-4.0499,4.7466-0.0631,1.3441,1.1273-0.44976"/>
<path d="m290.04,152.15c-2.1381,0.87557-5.4778,2.0958-7.4812,3.1751,0.65695-2.5384,1.3495-6.5596,1.7791-9.0308-0.077,2.141-0.36647,5.0863-0.18727,6.9715,1.6973-0.0533,4.0995-0.7916,5.8893-1.1159"/>
<path d="m283.9,154.97c-0.0346-0.0302,3.5737-6.4733,3.5737-6.4733l-4.7176,5.4774-0.13032,1.5296,1.2742-0.53369"/>
<path d="m289.22,152.95c-2.0951,0.9847-5.3742,2.3775-7.3258,3.5553,0.5427-2.5381,1.0549-6.539,1.3737-8.998,0.0186,2.1135-0.13932,5.0315,0.1235,6.8784,1.6918-0.14952,4.0566-1.014,5.8286-1.4358"/>
<path d="m283.17,155.95c-0.0392-0.0225,2.6078-6.9665,2.6078-6.9665l-3.9029,6.222,0.099,1.5082,1.1961-0.76364"/>
<path d="m288.3,153.53c-2.0902,1.0013-5.3626,2.4201-7.3079,3.6131,0.5268-2.5408,1.0138-6.543,1.317-9.0029,0.0321,2.1119-0.10721,5.0291,0.1676,6.8726,1.6919-0.16336,4.0527-1.0468,5.8233-1.4828"/>
<path d="m282.58,156.78c-0.0319-0.0338,4.0345-6.1433,4.0345-6.1433l-5.0869,5.0282-0.24792,1.5233,1.3003-0.40818"/>
<path d="m288.11,153.21c-1.8636,1.4877-4.8118,3.6746-6.4923,5.3092-0.003-2.5647-0.34635-6.5176-0.55367-8.9482,0.46762,2.0126,0.93175,4.8392,1.5844,6.5336,1.642-0.58507,3.7979-2.0286,5.4615-2.8945"/>
<path d="m282.78,157.07c-0.0447-0.006,0.46739-7.3613,0.46739-7.3613l-1.9438,7.1568,0.54238,1.3482,0.934-1.1436"/>
<path d="m287.58,153.89c-1.869,1.4782-4.8251,3.6499-6.5118,5.2759,0.008-2.5657-0.3191-6.522-0.51623-8.9546,0.45907,2.0159,0.91126,4.8461,1.5566,6.5446,1.6438-0.57637,3.8048-2.0088,5.4714-2.866"/>
<path d="m282.31,158.32c-0.0416-0.0175,1.8801-7.1926,1.8801-7.1926l-3.2533,6.6145,0.2567,1.4768,1.1165-0.89863"/>
<path d="m287.37,154.06c-1.7662,1.74-4.5782,4.3217-6.1396,6.1914-0.27684-2.6316-1.0544-6.6488-1.5284-9.1194,0.6982,2.0118,1.4798,4.8594,2.3351,6.5234,1.6338-0.78834,3.7067-2.5165,5.3328-3.5955"/>
<path d="m282.32,159.24c-0.0462-0.007,0.35192-7.6498,0.35192-7.6498l-1.8789,7.4327,0.58349,1.4029,0.94347-1.1858"/>
<path d="m286.81,155.33c-1.8902,1.5628-4.8841,3.862-6.5822,5.5756-0.0591-2.665-0.50061-6.7694-0.76796-9.2932,0.52674,2.0871,1.0678,5.0201,1.7784,6.7748,1.6814-0.62281,3.8742-2.1423,5.5718-3.0572"/>
<path d="m281.76,160.11c-0.0403-0.0248,2.6632-7.1952,2.6632-7.1952l-3.9937,6.3751,0.10446,1.5793,1.226-0.75915"/>
<path d="m286.78,155.36c-1.6729,1.7696-4.3365,4.3957-5.8152,6.2962-0.2642-2.6676-1.004-6.7388-1.4549-9.2426,0.66316,2.038,1.406,4.9231,2.2178,6.6079,1.5481-0.80419,3.5117-2.5626,5.0523-3.6616"/>
<path d="m281.86,160.48c-0.0468-0.00066-0.31503-7.607-0.31503-7.607l-1.2318,7.5764,0.70623,1.3169,0.84065-1.2864"/>
<path d="m285.96,155.93c-1.6186,1.7855-4.2014,4.4366-5.6223,6.3515-0.34233-2.6683-1.2009-6.7377-1.7249-9.2404,0.72226,2.0346,1.549,4.9167,2.4093,6.5966,1.5223-0.81796,3.4317-2.5947,4.9379-3.7076"/>
<path d="m281.43,161.24c-0.0429-0.0127,0.84948-7.7276,0.84948-7.7276l-2.2658,7.3094,0.45158,1.5011,0.96479-1.0828"/>
<path d="m285.61,156.23c-1.4798,1.9335-3.8561,4.822-5.1287,6.865-0.54421-2.6206-1.71-6.5845-2.4229-9.0227,0.87524,1.9534,1.919,4.7394,2.9052,6.3264,1.4572-0.96185,3.2278-2.915,4.6464-4.1687"/>
<path d="m281.4,161.96c-0.0443-0.002-0.49032-7.737-0.49032-7.737l-0.97414,7.6757,0.70154,1.3522,0.76292-1.2909"/>
<path d="m285.46,156.67c-1.3891,2.0246-3.6307,5.0578-4.806,7.1817-0.67929-2.6103-2.051-6.5406-2.8906-8.9584,0.97816,1.921,2.1678,4.6717,3.2389,6.218,1.4155-1.045,3.0957-3.1045,4.4578-4.4413"/>
<path d="m281.88,162.68c-0.0433-0.0142,0.78724-7.7718,0.78724-7.7718l-2.2149,7.3052,0.46702,1.529,0.96068-1.0624"/>
<path d="m285.18,157.39c-1.1974,2.206-3.1506,5.5334-4.1267,7.8084-0.90975-2.5008-2.6261-6.2176-3.6778-8.5047,1.1445,1.7739,2.5738,4.3433,3.7769,5.7318,1.3118-1.2357,2.7952-3.517,4.0276-5.0355"/>
<path d="m281.61,163.32c-0.0435,0.0121-2.172-7.3702-2.172-7.3702l0.73403,7.7686,0.97861,1.0955,0.45931-1.4939"/>
<path d="m285.13,158.25c-1.2476,2.1993-3.2806,5.5166-4.3014,7.7848-0.91524-2.4932-2.6498-6.1988-3.7125-8.479,1.1622,1.7686,2.6107,4.3302,3.836,5.7144,1.3575-1.232,2.8996-3.5064,4.1778-5.0202"/>
<path d="m281.71,164.71c-0.0459,0.00002-0.79743-7.7496-0.79743-7.7496l-0.71779,7.7504,0.77557,1.3281,0.73965-1.329"/>
<path d="m285.26,158.93c-1.2828,2.1698-3.3689,5.4389-4.4262,7.6828-0.87461-2.5145-2.5487-6.2606-3.5741-8.5656,1.1332,1.7957,2.5398,4.3912,3.7424,5.8042,1.3771-1.1999,2.9555-3.4378,4.2579-4.9214"/>
<path d="m281.64,165.33c-0.0457,0.005-1.438-7.6104-1.438-7.6104l-0.0703,7.7943,0.88248,1.2271,0.62581-1.411"/>
<path d="m284.71,160.03c-1.3837,2.078-3.6216,5.1981-4.7836,7.3658-0.7531-2.5716-2.2454-6.4286-3.1591-8.8014,1.0454,1.8718,2.3257,4.5611,3.4586,6.0554,1.4316-1.1029,3.1136-3.2284,4.4842-4.6198"/>
<path d="m280.97,166.18c-0.0447-0.0122,0.64352-7.779,0.64352-7.779l-2.1198,7.3762,0.51212,1.5034,0.96413-1.1006"/>
<path d="m284.79,160.22c-1.1829,2.2504-3.1184,5.6512-4.0726,7.9608-0.98749-2.4525-2.8292-6.0817-3.9579-8.315,1.2132,1.7179,2.7357,4.2162,4.0008,5.5474,1.321-1.2885,2.7961-3.6264,4.0297-5.1932"/>
<path d="m280.71,166.83c-0.0445,0.0139-2.3872-7.25-2.3872-7.25l0.91887,7.7096,1.0284,1.0491,0.44002-1.5087"/>
<path d="m284.47,160.8c-0.82599,2.4697-2.2198,6.234-2.8118,8.7118-1.3408-2.1938-3.6994-5.3571-5.1462-7.3047,1.4525,1.4228,3.3268,3.5446,4.7723,4.5761,1.1066-1.5547,2.207-4.1742,3.1857-5.9832"/>
<path d="m282.83,167.42c-0.0441,0.0157-2.5849-7.1499-2.5849-7.1499l1.1296,7.6676,1.0567,1.0074,0.39853-1.5251"/>
<path d="m284.45,161.56c-0.80817,2.4781-2.1748,6.2568-2.7489,8.7406-1.3566-2.1795-3.7381-5.3178-5.199-7.2501,1.4628,1.4074,3.3524,3.5094,4.8054,4.5256,1.0954-1.5662,2.1769-4.197,3.1425-6.0161"/>
<path d="m282.85,168.64c-0.0421,0.0224-3.3258-6.6866-3.3258-6.6866l1.9368,7.4247,1.1558,0.83503,0.23325-1.5732"/>
<path d="m284.2,162.18c-0.5167,2.5726-1.4378,6.5146-1.7217,9.0594-1.5966-1.9663-4.3201-4.7362-5.9916-6.4424,1.613,1.1856,3.7295,2.9986,5.2878,3.7978,0.90653-1.7097,1.6769-4.4729,2.4255-6.4148"/>
<path d="m283.07,169.69c-0.0454,0.009-1.7934-7.4979-1.7934-7.4979l0.29571,7.7844,0.9389,1.1646,0.55876-1.451"/>
<path d="m284.21,162.98c-0.27334,2.6303-0.82051,6.6781-0.86543,9.2492-1.7668-1.7422-4.7264-4.1325-6.5433-5.6057,1.7105,0.96289,3.9788,2.4825,5.5991,3.0682,0.74032-1.8239,1.2476-4.678,1.8097-6.7117"/>
<path d="m283.16,170.24c-0.0354,0.0346-4.7406-5.413-4.7406-5.413l3.5722,6.556,1.3053,0.44601-0.1369-1.589"/>
<path d="m284.31,163.9c-0.2837,2.6285-0.84683,6.6728-0.90187,9.2435-1.76-1.7521-4.7104-4.1591-6.5216-5.6425,1.7068,0.97255,3.9692,2.505,5.5873,3.0998,0.74754-1.8195,1.266-4.6705,1.8362-6.7008"/>
<path d="m283.69,171.49c-0.041,0.0242-3.6411-6.525-3.6411-6.525l2.2874,7.3243,1.195,0.78156,0.15873-1.5808"/>
<path d="m284.52,164.98c-0.17301,2.6443-0.56557,6.7207-0.5128,9.2934-1.8299-1.6444-4.8751-3.8712-6.7449-5.244,1.7442,0.8685,4.0662,2.2628,5.7059,2.7592,0.66981-1.8639,1.0678-4.7448,1.5518-6.8086"/>
<path d="m284.15,172.69c-0.0369,0.0323-4.4987-5.7041-4.4987-5.7041l3.2806,6.7699,1.2848,0.52845-0.0667-1.5943"/>
<path d="m284.57,166.2c-0.15709,2.646-0.52509,6.7261-0.45686,9.2986-1.8395-1.6286-4.8978-3.829-6.7755-5.1857,1.7491,0.8534,4.0793,2.2276,5.7218,2.7098,0.65851-1.8699,1.0392-4.7545,1.5106-6.8227"/>
<path d="m284.56,173.66c-0.0427,0.0197-3.1543-6.877-3.1543-6.877l1.7456,7.5287,1.1347,0.90411,0.274-1.5558"/>
<path d="m284.69,166.99c0.0903,2.655,0.10463,6.7657,0.41156,9.317-1.9764-1.3734-5.215-3.1518-7.2041-4.2492,1.8146,0.6139,4.2541,1.668,5.9284,1.9268,0.4794-1.9499,0.58873-4.8724,0.86412-6.9945"/>
<path d="m285.11,173.39c-0.0266,0.0435-5.7616-3.9448-5.7616-3.9448l4.8844,5.3824,1.3575,0.0701-0.4804-1.5077"/>
<path d="m284.87,167.27c0.22922,2.6428,0.45861,6.7394,0.89939,9.2707-2.0509-1.2942-5.3868-2.9444-7.4359-3.9631,1.8492,0.54333,4.347,1.5018,6.0371,1.6964,0.37805-1.9616,0.3347-4.8786,0.49945-7.0041"/>
<path d="m285.73,174.86c-0.0353,0.0336-4.8006-5.5183-4.8006-5.5183l3.636,6.6258,1.314,0.47899-0.14944-1.5865"/>
<path d="m285.29,168.28c0.34006,2.6317,0.74172,6.7188,1.2879,9.2262-2.0982-1.1719-5.4919-2.6228-7.5767-3.5191,1.8655,0.43245,4.3949,1.2414,6.0871,1.3344,0.29381-1.9864,0.12737-4.9038,0.20173-7.0415"/>
<path d="m286.69,175.79c-0.0271,0.0431-5.7175-4.0403-5.7175-4.0403l4.8227,5.4618,1.3574,0.0933-0.4626-1.5148"/>
<path d="m285.47,169.4c0.51244,2.6008,1.1827,6.6519,1.8915,9.1088-2.1618-0.97386-5.6288-2.1041-7.7589-2.8035,1.8815,0.25605,4.4475,0.82589,6.1344,0.75872,0.15996-2.0152-0.19901-4.9183-0.26704-7.0641"/>
<path d="m287.32,176.59c-0.0357,0.0328-4.729-5.6059-4.729-5.6059l3.5489,6.6901,1.3083,0.50387-0.12812-1.588"/>
<path d="m285.78,170.12c0.75054,2.5293,1.7931,6.4861,2.7243,8.8454-2.2284-0.68355-5.7618-1.3487-7.9333-1.7623,1.8841,0.004,4.4741,0.22995,6.1355-0.0628-0.0309-2.0343-0.65805-4.8861-0.92656-7.0203"/>
<path d="m287.57,176.6c-0.01,0.0517-6.6064-1.4152-6.6064-1.4152l6.2826,3.1233,1.2691-0.47761-0.94521-1.2305"/>
<path d="m286.21,170.91c0.74065,2.533,1.7677,6.4948,2.6898,8.8588-2.2262-0.696-5.7576-1.381-7.9279-1.8067,1.8844,0.0147,4.4742,0.25521,6.137-0.0281-0.0228-2.034-0.63878-4.8887-0.89888-7.024"/>
<path d="m288.65,177.3c-0.0197,0.0468-6.3209-3.0528-6.3209-3.0528l5.6692,4.5959,1.3583-0.12728-0.70667-1.4158"/>
<path d="m285.88,171.35c1.2554,2.3082,3.0909,5.9481,4.4875,8.0501-2.3158-0.17673-5.9011-0.0474-8.1055,0.0273,1.8392-0.41187,4.4133-0.76254,5.9739-1.4156-0.45081-1.9829-1.6525-4.6337-2.3559-6.6618"/>
<path d="m289.65,177.99c-0.0123,0.0508-6.5681-1.814-6.5681-1.814l6.1642,3.4904,1.2962-0.39585-0.89236-1.2805"/>
<path d="m286.56,172.33c1.2689,2.2992,3.1258,5.9263,4.5345,8.0181-2.3151-0.15736-5.8968,0.002-8.099,0.0956,1.8352-0.42766,4.4051-0.80025,5.9604-1.4669-0.4629-1.9805-1.6803-4.6231-2.3958-6.6467"/>
<path d="m290.48,178.53c-0.0234,0.0441-6.1205-3.6614-6.1205-3.6614l5.3476,5.1176,1.3751,0.0136-0.60219-1.4699"/>
<path d="m287.07,172.91c1.4696,2.146,3.6456,5.55,5.2323,7.4692-2.2891,0.14354-5.7916,0.77074-7.9455,1.1516,1.761-0.66908,4.2489-1.3786,5.7118-2.2514-0.64696-1.9306-2.0993-4.4284-2.9986-6.3694"/>
<path d="m290.93,179.07c-0.002,0.0538-6.6066-0.15568-6.6066-0.15568l6.5361,1.9315,1.1622-0.72207-1.0918-1.0538"/>
<path d="m294.76,147.06c0.00065-0.0206,4.7533-0.79299,4.7533-0.79299l-4.7291,0.11031-0.82503,0.42379,0.80086,0.25889"/>
<path d="m297.37,148.07c-1.3791-0.41674-3.4631-1.1148-4.8787-1.4225,1.5043-0.59791,3.7307-1.6585,5.1008-2.309-1.0541,0.65981-2.5868,1.5076-3.4038,2.1691,0.78925,0.5361,2.2218,1.0828,3.1818,1.5624"/>
<path d="m294.55,147.22c-0.005-0.0199,4.5986-1.2633,4.5986-1.2633l-4.7642,0.6073-0.7185,0.49317,0.88409,0.16283"/>
<path d="m297.59,148.41c-1.6114-0.15181-4.0828-0.46088-5.6728-0.47676,1.198-1.0608,2.8775-2.8356,3.9121-3.9252-0.71132,1.024-1.805,2.3829-2.2765,3.3514,1.0804,0.43367,2.8148,0.724,4.0372,1.0505"/>
<path d="m292.84,147.55c0.004-0.0209,4.7795-0.53969,4.7795-0.53969l-4.657-0.14908-0.87096,0.38293,0.74852,0.30584"/>
<path d="m296.38,148.59c-1.4653-0.28018-3.6918-0.76832-5.174-0.94216,1.4082-0.69122,3.4606-1.8807,4.7239-2.6105-0.94322,0.71246-2.3349,1.6427-3.0389,2.3371,0.89228,0.44221,2.4349,0.84107,3.489,1.2156"/>
<path d="m292.43,147.5c-0.0121-0.018,4.207-1.8106,4.207-1.8106l-4.6079,1.2163-0.55216,0.56093,0.95306,0.0333"/>
<path d="m296.24,149.12c-1.2194-0.5036-3.0876-1.3567-4.294-1.7117,0.93412-0.86906,2.2505-2.3921,3.0614-3.3263-0.56395,0.93353-1.4259,2.1406-1.8066,3.0664,0.80976,0.68926,2.1192,1.3658,3.0392,1.9717"/>
<path d="m292.67,147.81c-0.009-0.0282,3.2732-1.4184,3.2732-1.4184l-3.5645,0.48835-0.43827,0.63528,0.72961,0.29475"/>
<path d="m289.93,178.46c0.003,0.0524-6.7834,0.0512-6.7834,0.0512l6.8687,1.6793,1.1269-0.73842-1.2122-0.99207"/>
<path d="m291.15,178.9c-0.008,0.0497-6.8895-1.6024-6.8895-1.6024l6.6159,3.2432,1.2964-0.41713-1.0228-1.2237"/>
<path d="m292.28,179.36c-0.00001,0.052-6.8397-0.34479-6.8397-0.34479l6.8394,2.0617,1.1727-0.66479-1.1723-1.0521"/>
<path d="m287.94,174.53c1.7794,1.9611,4.4452,5.086,6.3123,6.8152-2.2976,0.34709-5.7574,1.2758-7.8858,1.8423,1.6915-0.81215,4.1133-1.7294,5.4752-2.7134-0.91749-1.8253-2.7273-4.1313-3.9017-5.944"/>
<path d="m293.22,179.71c-0.0125,0.0479-6.8369-2.2373-6.8369-2.2373l6.4245,3.8199,1.3459-0.28376-0.9335-1.2989"/>
<path d="m288.57,174.98c1.9393,1.7687,4.8642,4.6079,6.8646,6.1309-2.2015,0.63398-5.474,2.0002-7.4877,2.8357,1.5623-1.0308,3.8248-2.2579,5.0481-3.4224-1.0855-1.737-3.0907-3.8515-4.425-5.5442"/>
<path d="m293.78,180.13c0.0106,0.0527-6.4875,1.2757-6.4875,1.2757l6.8362,0.46588,0.96514-0.95299-1.3138-0.78855"/>
<path d="m292.43,179.72c0.007,0.0521-6.7667,0.51919-6.7667,0.51919l6.9817,1.1997,1.0693-0.81376-1.2844-0.90516"/>
<path d="m293.68,180.08c-0.005,0.0501-6.9968-1.1217-6.9968-1.1217l6.8468,2.776,1.2626-0.50524-1.1127-1.1491z"/>
<path d="m294.84,180.46c0.004,0.0518-6.8526,0.12836-6.8526,0.12836l6.9812,1.5829,1.1205-0.74354-1.2491-0.96772z"/>
<path d="m290.14,175.94c1.9233,1.8319,4.8186,4.7625,6.812,6.3572-2.2671,0.5045-5.6507,1.669-7.7325,2.3804,1.6273-0.92621,3.9756-2.0076,5.261-3.0824-1.0528-1.756-3.0324-3.9295-4.3406-5.6552z"/>
<path d="m295.81,180.74c-0.009,0.0487-6.9919-1.7581-6.9919-1.7581l6.6991,3.364,1.3221-0.37572-1.0293-1.2302z"/>
<path d="m290.81,176.34c2.0685,1.6291,5.201,4.2571,7.3119,5.637-2.1497,0.78383-5.3134,2.3714-7.2605,3.3431,1.4819-1.1352,3.648-2.5144,4.7815-3.7595-1.2138-1.6564-3.374-3.6256-4.8329-5.2206z"/>
<path d="m296.4,181.12c0.0145,0.0519-6.3794,1.7192-6.3794,1.7192l6.8581-0.007,0.89174-1.0165-1.3705-0.6953z"/>
</g>
<path d="m305.21,171.52-5.2112-3.6015-5.2113,3.6015,1.9542-5.7624-4.5599-3.6016,5.8626,0,1.9542-5.7624,1.9542,5.7624,5.8626,0-4.5598,3.6016,1.9542,5.7624z" fill="#fedf00" stroke="#000" stroke-width="0.298846"/>
</g>
</svg>