<svg xmlns="http://www.w3.org/2000/svg" width="1000" height="500"><path fill="#fff" d="M0 0h1000v500H0V0z"/><path d="M730.6 363.3c16.417-6.737 32.778-13.571 49.199-20.294-.867 2.486-2.004 5.33-4.92 6.584-15.138 6.19-30.246 12.43-45.38 18.616-.997.427-1.987.891-3.075 1.117.998-1.702 1.939-3.426 2.9-5.139.205-.478.781-.669 1.276-.884zm-51.122-23.422c3.536 2.295 6.749 4.917 9.002 7.742 4.172 5.448 5.248 12.51 2.659 18.637-.225.503-.7.878-1.104 1.28.801-3.39 1.038-6.983-.217-10.315-1.722-4.84-5.62-8.904-10.822-11.283.088-2.117.354-4.252.482-6.06zm-135.44-2.947c2.2-1.578 5.256-1.73 8.008-1.727 2.765.163 5.69.267 8.128 1.519 1.153 1.137.057 2.482-1.125 3.196-4.794 2.934-10.074 5.479-13.964 9.331-1.055.995-.507 2.545.826 3.128 2.017.856 4.352.898 6.569.85 5.264-.244 10.319-1.932 14.724-4.338 1.227-.663 2.327-1.488 3.595-2.102a55.39 55.39 0 0 1-9.133 7.58c-2.839 1.806-6.037 3.374-9.587 3.845-2.794.201-5.8.087-8.213-1.252-2.688-1.349-3.947-4.368-2.954-6.861.602-1.401 1.714-2.587 2.884-3.68 3.018-2.71 6.708-4.784 10.389-6.785-2.495-.1-5.023-.215-7.501.042-1.62.138-2.708 1.168-3.857 2.004-.348-1.626-.356-3.554 1.21-4.75zm-98.787-4.081c2.188-.909 5.207-.777 6.933.804 1.443 1.45 1.599 3.443 1.493 5.256-1.158 1.308-2.491 2.51-3.46 3.936-2.03.319-4.16.038-6.144.544-.998.492-2.303.79-2.781 1.782-.626 1.28-.336 2.701-.07 4.026 1.03 4.625 2.937 9.17 2.839 13.935-.11 1.67-.241 3.405-1.174 4.916-.217-2.649-1.317-5.152-2.115-7.7-1.505-4.644-2.7-9.408-2.875-14.234-.197-1.858 1.063-3.457 2.335-4.857 1.878-2.226 5.244-2.878 8.233-3.36-.777-.607-1.656-1.307-2.805-1.172-1.608.197-2.696 1.338-3.58 2.389-.159-2.32.59-5.059 3.17-6.265zm143.26-.898c.143-.125.331-.174.564-.142-.85.825-1.317 1.865-1.971 2.801-1.861 2.982-4.013 6.148-3.518 9.657.053 1.647 1.146 3.776 3.416 3.762 1.108-.468 1.394-1.668 1.95-2.531-.069 2.569-.515 5.69-3.361 7.16-2.364-.323-4.14-2.102-4.233-4.11-.483-6.07 2.515-12.058 7.153-16.597zm-424.04-34.205c1.354-2.046 2.626-4.276 4.994-5.628-2.875 4.92-5.865 9.906-7.12 15.34-.418 2.076-.627 4.476.956 6.261 1.231 1.12 3.207 1.325 4.892.978 2.556-.479 3.747-2.746 4.802-4.546.81 1.342-.029 2.791-.401 4.13-1.06 2.833-2.323 5.9-5.248 7.742-2.245 1.456-5.464.874-7.624-.409-2.846-1.886-2.912-5.308-2.413-8.079 1.125-5.606 4.033-10.81 7.162-15.79zm208.42-21.948c.834-1.346 2.47-2.94 4.479-2.268 2.413.617 5.284 2.24 4.9 4.674-.647.828-1.477 1.54-2.209 2.312-.781-1.255-1.657-2.86-3.489-3.127-2.384.662-3.812 2.69-4.564 4.622-1.583 4.22-1.935 8.675-2.377 13.06a44.16 44.16 0 0 1-1.742.753c.016-4.036-1.019-8.321-4.213-11.449-.724-1.037-2.331-.516-3.42-1.016-2.028-.617-2.764-2.493-3.255-4.098-.245-1.085-.683-2.389.172-3.356 1.796-.437 3.202.898 4.483 1.74 3.296 2.656 5.574 6.075 7.44 9.556.785-3.887 1.615-7.874 3.795-11.404zm342.94-10.652c2.495-.728 5.12.228 7.162 1.449 3.407 2.136 6.065 5.038 8.118 8.155 1.097 1.806 2.348 3.786 1.906 5.888-.261 1.414-.392 2.933-1.39 4.14-1.105 1.158-3.178 1.04-4.569.35-1.587-.763-3.1-1.633-4.76-2.278-2.246 5.173-6.978 9.247-12.108 12.479-3.472 2.254-7.28 4.105-11.137 5.835-2.38 1.09-5.014 1.672-7.566 2.379-2.548.614-5.141 1.421-7.833 1.196 1.698-.083 3.04-1.016 4.47-1.682 7.46-3.678 14.77-7.635 21.408-12.326 3.525-2.586 7.129-5.28 9.505-8.727a69.155 69.155 0 0 0-4.622-.7c-1.248-3.076-1.26-6.838 1.431-9.383-1.341-.873-1.497-2.458-1.722-3.776-.191-1.147.263-2.603 1.706-2.999m6.692 7.618c.507 2.278.658 4.601.7 6.917 2.102.257 4.192.964 6.335.76 1.092-.136 1.051-1.353.446-1.932-1.992-2.326-4.757-4.077-7.48-5.745m-7.122 3.717c1.076 1.689 3.514 2.118 5.506 2.66.409-1.09.936-2.23.736-3.385-.72-1.193-1.698-2.753-3.506-2.746-1.562.68-2.18 2.164-2.736 3.47zm-137.99-14.545c1.24-1.36 3.338-2.022 5.317-2.074 1.374-.01 2.041 1.242 2.356 2.195.597 2.25.704 4.698-.589 6.796.67.413 1.346.832 2.033 1.241a42.818 42.818 0 0 0-.34 4.338c-1.366-.62-2.417-1.609-3.587-2.441-3.64 5.322-8.961 9.937-15.59 12.545-3.506 1.498-7.518 2.153-11.42 1.74 7.39-2.24 14.568-5.47 19.93-10.43a30.882 30.882 0 0 0 4.773-5.589c-1.039-.94-2.282-1.744-3.092-2.843-.646-1.758-1.12-3.859.21-5.478m2.028 1.734c.536 1.286 1.562 2.347 2.63 3.345.45-1.113 1.038-2.323.38-3.467-1.01-.166-2.024-.072-3.01.122zM164.9 277.603c14.83-7.895 29.723-15.717 44.582-23.571-.426 2.742-1.534 5.915-4.65 7.288-13.756 7.23-27.544 14.417-41.278 21.671a7.04 7.04 0 0 1-1.116.392c.875-1.91 1.542-3.89 2.462-5.78zm310.49-41.705a28.162 28.162 0 0 1 3.873-3.936c-1.063 2.046-.43 4.279.065 6.37.56 2.288 1.317 4.535 2.164 6.761.593 1.678 2.863 2.268 4.68 2.597 1.087.295 2.42-.392 2-1.446-1.003-2.718-2.283-5.357-3.748-7.916.52-1.716 1.109-3.415 1.608-5.135.687 0 1.382.007 2.082.014.601 3.18 2.388 6.064 4.033 8.921.004 3.09-.213 6.311-1.506 9.24-.863 2.078-3.75 2.723-6.081 2.556-3.097-.506-5.15-2.77-6.966-4.76-.904 2.61-3.46 4.635-6.487 5.454-2.56.797-5.513-.361-6.887-2.275-1.506-2.122-1.792-4.684-1.722-7.111.135-3.471.928-7.517 4.601-9.601l1.031.003c-.163.062-.499.183-.662.246a11.042 11.042 0 0 0-.389 11.383c.577 1.127 2.037 1.938 3.513 1.675 1.84-.378 3.297-1.488 4.553-2.632.044-3.471.028-6.945.245-10.41zm-292.61-7.25c3.33-.61 6.36 1.154 8.728 2.926 3.17 2.625 5.812 5.752 7.485 9.244.507 1.054.732 2.205.544 3.339-.242 1.505-.38 3.155-1.51 4.407-1.325 1.037-3.415.811-4.822.014a35.44 35.44 0 0 0-4.38-2.084c-2.283 5.121-6.945 9.171-12.03 12.403-3.991 2.559-8.343 4.709-12.842 6.557a99.389 99.389 0 0 1-9.866 2.635c-1.333.308-2.72.277-4.086.246.802-.16 1.657-.211 2.389-.562 7.32-3.505 14.462-7.309 21.117-11.67 4.495-3.07 8.957-6.318 12.147-10.44-1.55-.299-3.109-.58-4.692-.708-1.247-3.082-1.284-6.834 1.346-9.42-1.268-.94-1.452-2.487-1.681-3.811-.241-1.284.532-2.806 2.152-3.076m6.217 7.673c.589 2.299.646 4.66.756 7 2.217.212 4.45 1.103 6.683.638 1.035-.492.307-1.619-.233-2.194-2.04-2.126-4.626-3.821-7.206-5.444m-5.444.988c-.728.916-1.575 1.97-1.46 3.124 1.288 1.373 3.464 1.945 5.431 2.247.192-.659.422-1.304.573-1.966.54-1.345-.687-2.552-1.669-3.488-.732-.752-2.241-.777-2.875.083zm246.96-11.314c2.172 1.536 3.493 3.745 4.961 5.76 3.759 5.606 6.961 11.465 10.062 17.35 6.802 12.63 11.276 26.115 13.739 39.828.695 4.251 1.407 8.527 1.264 12.832.413 8.547 1.611 17.285 5.82 25.152 3.096 5.345 8.363 10.087 12.487 13.554 1.965 1.151 2.797.88 3.315.41.32-.291.194-4.04.849-5.801.932-2.892 3.067-5.354 5.337-7.597 2.54-2.358 5.415-4.521 8.81-5.946 6.798-2.923 13.845-5.41 20.962-7.712 5.358-1.685 10.806-3.18 16.377-4.265-23.91.143-47.821.309-71.732.541a2050.24 2050.24 0 0 1 3.64-14.76c2.536-2.822 5.726-5.142 8.876-7.448 13.71-9.59 29.538-16.688 45.568-23.044-1.878-2.493-4.487-4.816-4.9-7.877-.97-4.3 1.137-8.55 3.787-12.13 1.57-2.031 3.04-4.25 5.456-5.648 2.426-1.425 5.708-1.52 8.36-.506 8.889 3.383 18.057 9.34 24.835 14.688.68.583 1.55 1.085 1.976 1.845-1.595 4.379-3.28 8.74-4.826 13.138-7.068 1.338-14.172 2.617-21.06 4.542.7 3.7 1.947 7.735.073 11.32-.654-.075-1.541-.173-1.652-.852-.266-3.11-2.033-5.94-3.849-8.589-8.79 2.934-17.559 5.968-25.845 9.827-6.679 3.145-13.452 6.556-18.4 11.588 36.76.01 73.526.01 110.29 0-2.356 4.39-4.876 8.72-7.277 13.092-24.07 4.972-48.095 10.287-71.445 17.354-9.8 3.044-19.592 6.394-28.283 11.359-.9.582-1.42 1.657-.765 2.53 1.35 1.759 3.812 2.483 5.878 3.486 4.49 2.108 9.469 3.255 14.36 4.486 3.505.877 7.01 1.751 10.51 2.639-.29 5.26-.338 10.534-.715 15.787-2.867 0-5.792-.43-8.675-.645-5.648-.569-11.383-.95-16.831-2.42-7.42-1.99-14.103-5.77-19.338-10.631-5.747-5.243-9.902-11.605-12.88-18.273-4.066-9.24-6.332-20.56-7.117-30.375-.36-.042-.446 1.912-.794 1.881-1.018 4.327-2.216 8.168-3.921 12.343-.324.992-1.183 1.748-1.94 2.517-5.472 5.388-11.308 10.51-17.41 15.381-6.246 4.934-12.757 9.657-19.792 13.77-7.4 4.302-15.403 8.172-24.254 9.798-4.757.835-10.164.995-14.332-1.446-4.655-2.698-6.925-7.385-8.152-11.879-4.24 2.729-8.515 5.42-12.884 8.003-3.942 2.243-7.869 4.615-12.385 5.967-11.289 3.554-23.035 5.884-34.72 8.287-8.381 1.609-16.766 3.221-25.204 4.597 7.817-3.761 15.755-7.354 23.538-11.168 21.117-10.242 41.92-21.005 61.776-32.933 2.708-10.995 7.08-22.056 15.55-30.88l.43-.1c-.675 1.217-.998 2.552-1.693 3.762-5.105 7.58-8.733 15.957-10.017 24.635 9.039-5.572 17.86-11.414 26.164-17.767 5.128-3.898 9.947-8.086 14.348-12.58 1.21-1.272 2.855-2.364 3.313-4.035.2-1.088.087-1.759-.642-4.013-5.133-12.027-12.418-27.033-17.256-37.608 1.656-5.343 3.19-10.714 4.863-16.054 2.23 1.245 3.681 3.2 5.268 4.968 3.24 4.033 6.286 8.18 9.023 12.475 1.53 2.362 1.82 5.104 2.38 7.712-2.196-1.675-3.726-3.946-6.164-5.378.107.381.254.753.446 1.116 3.857 6.453 6.495 13.405 8.205 20.485 1.055 4.206 1.513 8.52 1.219 12.82-.221 4.66-.97 9.434-3.493 13.64-2.241 3.734-5.256 7.08-8.405 10.29-10.675 10.62-23.187 19.774-35.894 28.588.016.514.703.652 1.112.933 4.549 2.407 10.238 2.164 15.317 1.415 3.829-.752 7.772-1.325 11.276-2.913 9.2-4.08 17.22-9.77 24.962-15.568 10.152-7.832 19.714-16.206 28.835-24.895-3.047-9.167-6.212-18.304-9.435-27.427-1.751-4.764-3.379-9.57-5.473-14.233-3.472-6.15-6.81-12.375-9.837-18.689 1.223-4.823 2.76-9.594 4.065-14.407m92.521 24.81c-1.112.374-2.045 1.414-1.578 2.458.171.79 1.19 1.064 1.725 1.65 2.23 2.195 4.34 4.48 6.279 6.869 4.838-1.491 9.75-2.784 14.634-4.154-3.636-2.944-7.673-5.745-12.524-7.077-2.761-.794-5.85-.697-8.536.253zm107.04-6.339c14.9-7.822 29.72-15.752 44.64-23.543-.422 2.43-1.244 5.094-3.6 6.696-14.446 7.638-28.974 15.173-43.416 22.825.618-2.04 1.591-3.984 2.376-5.978zm-75.175-29.486c1.379-.676 3.4-.627 4.332.607 1.284 1.644 1.627 3.793.932 5.68-1.313 3.74-4.213 6.92-7.374 9.687-3.845 3.183-8.446 6.117-13.886 6.834.912-.957 2.245-1.487 3.42-2.174 3.37-1.924 6.613-4.046 9.443-6.525 1.485-1.457 3.092-3.03 3.358-5.024.103-1.672-1.685-3.1-3.509-3.378-2.659.399-4.315 2.348-6.27 3.717-.466-1.21.781-2.06 1.517-2.947 2.344-2.413 4.704-5.003 8.037-6.477zm-194.07-8.1c4.557-2.381 9.023-4.899 13.636-7.2-.454 2.457-1.394 5.304-4.212 6.528-10.078 5.229-20.045 10.613-30.16 15.787 1.128-1.959 2.24-3.939 3.484-5.846 5.702-3.148 11.51-6.172 17.252-9.268zm438.9-15.314c6.643 3.79 12.12 9.199 15.084 15.534 2.92 6.14 2.896 13.11.544 19.382-.319.724-1.002 1.269-1.574 1.851 1.022-4.257 1.374-8.727-.05-12.95-2.011-6.692-7.766-12.25-14.764-15.613.347-2.728.425-5.475.76-8.203zm-160.06 2.75c1.141-1.183 2.254-2.386 3.506-3.485-1.19 2.357-.283 4.92.282 7.309.642 2.188 1.26 4.396 2.233 6.497 1.215 1.35 3.346 2.036 5.309 1.984a1.1 1.1 0 0 0 1.03-1.557c-.96-2.635-2.208-5.194-3.628-7.673.274-1.82 1.072-3.572 1.632-5.347.68.052 1.37.1 2.066.16.454 3.228 2.446 6.088 4.008 8.987-.065 2.334-.258 4.68-.79 6.976-.4 1.599-1.1 3.45-3.006 4.171-1.623.534-3.525.832-5.165.187-2.41-.905-4.12-2.687-5.6-4.469-.936 2.52-3.317 4.518-6.237 5.402-2.401.936-5.321-.045-6.843-1.758-1.746-2.021-2.053-4.625-2.082-7.056.098-2.333.315-4.736 1.5-6.879.77-1.439 1.96-2.853 3.788-3.39-2.437 3.415-2.707 7.794-.908 11.462.52 1.04 1.587 2.046 3.01 2.08 2.164-.093 3.845-1.414 5.277-2.666-.033-2.978.122-5.95.126-8.928.104-.672-.138-1.48.492-2.007zm-360.93-24.175c5.436 2.986 9.763 7.528 11.832 12.753 1.681 4.224 1.563 8.87.066 13.117-.2.69-.814 1.207-1.362 1.713 1.104-4.008.985-8.353-.994-12.156-2.017-3.928-5.714-7.167-10.094-9.26.237-2.053.356-4.113.552-6.166zm175.43-4.459c1.231-1.293 2.332-2.78 3.968-3.723-1.08 1.39-.626 3.106-.368 4.639.605 2.86 1.505 5.676 2.568 8.44.336 1.154 1.738 1.646 2.896 2.09 1.047.333 2.307.642 3.37.198.67-.5.356-1.352.119-1.97-1.023-2.42-2.07-4.847-3.51-7.114l1.653-5.278c.72.049 1.44.09 2.172.129.331 3.249 2.437 6.085 3.955 9-.053 2.487-.266 4.994-.9 7.428-.36 1.435-1.141 2.95-2.74 3.672-1.837.617-4.025.905-5.82.048-2.083-1.012-3.747-2.555-5.052-4.24-1.047 2.583-3.562 4.629-6.618 5.471-2.102.67-4.6-.045-6.037-1.456-1.828-1.609-2.319-3.939-2.494-6.085-.144-2.76.118-5.607 1.39-8.176a7.362 7.362 0 0 1 3.751-3.53c-1.69 2.844-2.556 6.151-1.611 9.293.417 1.647 1.112 3.748 3.276 4.264 2.335.253 4.192-1.251 5.697-2.555.282-3.51.106-7.039.335-10.544zm180.86-4.445c7.866-2.884 15.73-5.797 23.776-8.294-.245 1.55-.908 3.319-2.687 4.057-11.423 4.133-22.892 8.197-34.074 12.787-2.22 1.04-4.503 2.108-6.233 3.71 1.235 1.155 3.084 1.588 4.752 2.108-.02 1.12-.016 2.24-.016 3.363-2.364-.485-4.732-1.217-6.565-2.614.107-1.591.074-3.193.332-4.774.265-1.436 1.995-2.112 3.247-2.892 5.543-2.926 11.543-5.156 17.469-7.451zm-353.94-13.959.324.274c-.712.767-.348 1.779-.234 2.66a29.433 29.433 0 0 0 1.714 5.589c.253.811 1.247 1.2 2.094 1.47.74.132 1.939.44 2.245-.399-.507-1.965-1.726-3.72-2.478-5.606.355-1.089.523-2.257 1.132-3.266.41.007.827.02 1.244.045.409 2.115 1.705 3.977 2.638 5.929-.053 2.007-.127 4.091-1.019 5.978-.556 1.276-2.327 1.615-3.75 1.598-2.082-.25-3.448-1.74-4.68-3.037-.793 1.893-2.822 3.374-5.186 3.634-1.988.086-3.672-1.273-4.196-2.823-.691-2.049-.614-4.25-.053-6.314.438-1.442 1.292-3.003 3.051-3.557-1.386 1.986-1.73 4.43-.953 6.646.303.916.863 2.063 2.14 2.195 1.414.02 2.466-.894 3.476-1.605.262-2.268-.053-4.557.278-6.82.512-.975 1.534-1.696 2.213-2.59zm65.18-3.907c.866.197 1.492.797 2.208 1.224 4.336 3.026 7.947 6.962 9.669 11.536 1.611 4.14 1.513 8.685.078 12.85-.197.72-.736 1.303-1.211 1.907-.037-.077-.11-.233-.151-.309 1.047-3.849.891-7.992-.937-11.654-1.976-4.012-5.677-7.333-10.143-9.424.115-2.046.303-4.091.487-6.13zm39.333-3.572c1.1-2.27 3.984-4.178 6.99-3.74 1.501.273 2.553 1.393 3.088 2.555 1.051 2.392 1.207 5 .838 7.517 1.845 1.872 3.85 3.769 4.622 6.196 1.431 3.193.151 6.602-1.067 9.684-1.559 4.078-4.52 7.78-5.072 12.115-.192 1.072.294 2.24 1.587 2.611 2.078-.52 2.4-2.614 2.826-4.14.65-.132 1.669-.19 1.894.506.355 1.928-.642 3.783-1.448 5.541-.728 1.335-1.738 2.913-3.608 3.21-1.493.233-2.634-.876-3.23-1.892-1.703-2.927-1.167-6.398.257-9.32 2.216-4.657 5.145-9.345 4.875-14.511.008-2.195-1.08-4.29-2.818-5.888-2.597 5.946-6.798 11.307-11.636 16.106-2.503 2.635-6.098 4.244-9.53 5.85-3.071 1.348-6.188 2.676-9.46 3.65 6.298-3.841 12.34-8.04 17.567-12.919 4.31-4.101 8.278-8.727 9.878-14.136l-.107-.305c-2.331-1.276-5.133-2.403-6.348-4.656-.515-1.283-.45-2.726-.098-4.033m2.336.652c-.601.33-.188.96.303 1.175a79.341 79.341 0 0 0 4.503 2.036c-.037-1.304.241-2.923-1.105-3.852-1.165-.826-2.76-.111-3.701.641zm249-2.902c.785-1.162 2-2.594 3.8-2.393 1.91.365 3.779 1.235 4.953 2.594.597.85 1.092 2.146.032 2.895-.556.461-.953 1.241-1.64 1.474-.96-1.065-1.705-2.965-3.648-2.91-2.434.76-3.78 2.85-4.508 4.837-1.509 4.099-1.816 8.42-2.29 12.663-.483.424-1.133.66-1.714.96 0-4.302-1.178-8.91-4.813-12.09-1.75-.183-3.833-.36-4.814-1.799-1.195-1.834-2.054-4.098-1.227-6.164 1.853-.309 3.354.87 4.613 1.848 3.33 2.59 5.481 6.019 7.424 9.427.821-3.87 1.648-7.83 3.832-11.342zm-473.61 1.397c1.014-1.519 2.135-3.082 3.894-4.057-2.806 5.132-6.07 10.23-7.113 15.891-.327 1.852-.34 3.974 1.06 5.53 1.308 1.398 3.689 1.422 5.541.933 2.074-.703 3.04-2.59 4.009-4.16.433.01.523.443.732.703-1.092 3.638-2.148 7.583-5.383 10.34-3.006 2.694-8.937 1.307-10.413-2.038-1.072-2.407-.716-5.07-.086-7.524 1.546-5.527 4.475-10.697 7.76-15.617zm282.09-5.766c5.39 3.124 9.812 7.632 11.873 12.93 1.023 2.78 1.399 5.745 1.002 8.644-.294 2.111-.691 4.303-2.086 6.12-.196-.555-.065-1.124.057-1.675a15.7 15.7 0 0 0-2.425-12.375c-2.115-3.076-5.244-5.655-8.925-7.358.07-2.1.311-4.192.503-6.286zm75.229-2.822c2.127.936 3.517 2.645 4.888 4.247 3.341 4.147 6.18 8.804 8.728 13.33.249.597.261 1.338.438 3.328-1.538-1.419-3.338-2.788-5.624-3.204-.405.76-.401 1.577-.057 2.354 2.969 7.722 6.327 15.336 9.202 23.085 1.833 5.052 3.44 10.242 3.502 15.561.126 4.937-.868 9.868-2.585 14.576-1.726 4.424-4.373 8.81-8.786 11.73-3.632 2.5-8.479 3.537-13.1 3.17-5.64-.358-10.982-2.664-14.896-6.09-2.09-1.688-3.787-3.682-5.378-5.714l.61-.121-.668.07c-3.533-5.05-6.155-10.559-7.668-16.29.135-.743-1.534-.68-1.366.058-2.156 8.36-5.596 16.605-11.29 23.727-3.325 4.092-7.627 7.743-12.965 9.903-5.816 2.326-12.667 2.479-18.79.988-6.152-1.505-11.027-5.624-13.67-10.478-3.828-6.955-4.413-14.83-3.991-22.392.822-6.11 2.621-12.084 4.38-18.037.593-1.83 1.121-3.8.356-5.659-.245-.107-.732-.322-.974-.43-.822.455-1.668.902-2.31 1.54-4.508 4.216-7.068 9.604-9.113 14.948-1.546 4.303-2.753 8.696-3.562 13.145-1.076 7.032-2.724 14.147-6.54 20.519-2.07 3.387-5.179 6.907-9.862 7.683-4.339.493-8.977-.662-12.156-3.255-3.893-3.086-5.599-7.573-6.626-11.886-1.636-7.743-1.128-15.68-.102-23.453.687-4.792 1.669-9.55 2.892-14.261.4-.032.806-.056 1.218-.077-1.62 7.944-2.736 16.01-2.454 24.084.254 4.601.892 9.289 3.096 13.547 1.498 2.916 4.037 5.631 7.567 6.886 3.334 1.152 7.448 1.36 10.57-.357 3.226-1.796 4.74-5.003 5.938-7.975 2.36-6.577 3.403-13.418 5.256-20.1 1.942-6.782 4.736-13.38 8.163-19.726 1.964-3.7 4.127-7.336 6.904-10.652 2.467-2.95 4.732-6.189 8.234-8.356.261.01.777.035 1.038.045.642 2.223-.114 4.525-.229 6.775-.217 3.717-1.812 7.209-2.728 10.811-1.137 4.12-2.11 8.273-3.084 12.423-1.505 5.943-2.577 12.212-.683 18.19 1.432 4.688 5.248 8.825 10.401 10.96 3.35 1.495 7.109 2.254 10.88 2.368 5.3.455 10.843-.086 15.583-2.25 5.714-2.524 9.76-7.101 12.381-11.99 2.565-4.885 4.03-10.177 4.454-15.506.057-10.586-.81-21.376-5.08-31.414-.543-1.387-1.255-2.826-.944-4.313.675-4.081 2.282-8.01 4.167-11.792.12-.434.732-.465 1.1-.687 2.017 5.107 3.976 10.25 5.2 15.544 1.541 6.883 2.429 13.855 3.341 20.811.724 4.965.936 10.007 2.405 14.875 1.219 4.04 3.116 7.992 6.098 11.338 3.624 4.268 9.064 7.437 15.113 8.647 5.178 1.02 10.708-.29 15.064-2.742 2.29-1.325 4.667-3.558 3.906-6.085-7.252-16.172-13.215-32.731-19.14-49.274-.394-1.366-1.142-2.674-1.265-4.078.77-4.375 2.577-8.57 4.614-12.624zM318.02 143.95c2.479-4.744 4.953-9.49 7.485-14.213 4.896 9.548 8.88 19.43 11.865 29.53.351 2.043-.36 4.095-.274 6.148-1.71-2.573-3.673-5.017-5.465-7.548.462 4.632 1.301 9.24 1.808 13.873a2657.502 2657.502 0 0 1 9.014 82.189c2.95-1.81 5.199-4.407 6.463-7.296 1.648-3.252 3.427-6.487 5.836-9.393.904-1.043 2.098-2.382 3.85-2.06.99.05 1.46.951 1.558 1.682.437 2.577-1.861 4.8-1.469 7.355.106 2.097 2.041 3.897 4.34 4.531 3.975 1.217 8.294.673 12.372.184 1.84-.343 4.139-.638 5.034-2.257a89.448 89.448 0 0 0-3.227-7.697c1.722-3.72 3.69-7.362 5.485-11.061.462-.874.773-1.838 1.534-2.573 1.305 4.23 1.632 8.62 2.16 12.954.543 7.007-.782 14.282-4.905 20.447-2.22 3.155-5.537 6.022-9.865 6.934-3.771.767-7.914.416-11.334-1.179-3.96-1.91-6.675-5.266-8.086-8.883-2.143 4.175-4.961 8.12-8.548 11.515.417 5.416.883 10.828 1.202 16.248.237 6.044-1.59 11.966-3.705 17.687-1.027 2.458-2.037 4.93-3.305 7.31a142.124 142.124 0 0 1-44.05 39.78c-11.702 6.812-24.647 12.096-38.238 15.567-7.105 1.748-14.368 3.173-21.76 3.63-7.627.09-15.37-.745-22.5-3.117-6.69-2.212-12.535-6.24-16.286-11.449-13.178 1.155-26.434 1.79-39.686 1.817 11.82-3.592 23.522-7.472 35.027-11.744-3.072-12.7-.532-25.797 3.309-38.168 2.352-7.5 5.131-14.947 8.538-22.145 2.582-5.76 3.599-8.407 8.53-15.202-5.166 7.73-5.919 10.911-8.228 16.39-3.108 8.436-5.343 17.145-6.002 25.97-.65 9.702.172 19.888 5.505 28.668 14.18-5.62 27.984-11.938 41.22-19.025 11.223-6.095 22.066-12.746 31.92-20.37 4.67-3.661 9.21-7.482 13.046-11.796 1.133-1.13.581-2.742.213-4.029-.855-2.16-1.824-4.285-2.81-6.4-6.707 2.302-13.853 3.88-21.129 3.852-3.967.097-8.049-.545-11.469-2.316-2.932-1.533-5.108-4.05-5.991-6.873-1.223-3.703-.692-7.61.04-11.345 1.162-5.405 3.51-10.81 7.972-14.902 3.133-2.857 7.28-5.055 11.878-5.63 5.199.02 10.094 2.17 13.804 5.155 4.724 3.797 7.947 8.72 10.426 13.772 4.626-2.285 9.072-4.99 12.516-8.502 3.378-2.978 6.855-6.019 11.17-8.02 1.076-.523 2.933-1.102 3.648.122.781 1.816.037 3.814-.486 5.62-1.391 2.635.29 5.631 2.368 7.645 2.891 2.767 7.644 3.034 11.673 2.414-4.221-36.771-8.512-73.538-12.736-110.31-.086-1.234-.716-2.36-1.256-3.488m-57.482 112.91c-2.07.756-4.658 1.876-4.965 3.988.486 1.605 2.711 2.101 4.384 2.444a50.39 50.39 0 0 0 16.344-.028c-.098-.163-.302-.485-.405-.648-2.801-2.69-6.372-5.007-10.618-5.686-1.558-.198-3.214-.576-4.74-.07m35.22 15.02c.556 7.493-.683 15.07-3.468 22.187-1.076 2.472-1.972 5.09-4 7.15-9.976 11.303-22.827 20.537-36.37 28.643-12.065 7.125-24.805 13.446-38.122 18.727 2.274.94 4.662 1.695 7.145 2.143 6.65 1.251 13.518.579 20.18-.236 20.86-2.65 40.5-10.367 57.416-20.915 11.215-6.994 21.432-15.138 30.348-24.205 2.982-3.204 6.65-6.335 7.379-10.551-.712-7.153-1.653-14.29-2.438-21.438-4.638 1.577-10.38 1.948-14.59-.687-5.108-3.27-7.05-8.848-7.856-14-4.406 5.017-9.588 9.566-15.624 13.182zm255.36-138.11c1.158-1.63 2.262-3.429 4.237-4.455-2.871 4.875-5.8 9.833-7.092 15.215-.503 2.326-.675 5.159 1.579 6.903 1.309.54 2.818.863 4.245.437 2.61-.496 3.829-2.798 4.847-4.663.282.749.47 1.525.168 2.295-.929 3.238-2.164 6.63-4.958 9.08-3.145 2.858-9.489 1.214-10.687-2.447-1.05-3.322-.09-6.803 1.064-10.014 1.677-4.3 4-8.402 6.597-12.351zm-331.42 9.13c2.79-4.584 5.469-9.213 8.188-13.824 4.418 9.78 7.915 19.864 10.34 30.134.16 1.868-.441 3.73-.637 5.589-1.996-2.289-3.195-5.045-5.227-7.33 1.108 7.715 1.505 15.492 2.229 23.238a6144.642 6144.642 0 0 1 2.323 30.058c6.057-.86 11.5-3.894 15.158-8.034 5.5-6.2 7.943-14 8.634-21.636-.045-9.809-.663-19.788-4.299-29.177-.642-1.92-1.824-3.78-1.8-5.815.434-3.782 1.927-7.41 3.506-10.943.4-.825.662-1.875 1.84-2.122 1.796 4.706 3.652 9.407 4.847 14.254 1.853 7.594 2.748 15.325 3.779 23.023.687 4.66.892 9.397 2.282 13.963 1.804 6.141 5.46 12.125 11.481 16.03 4.528 2.912 10.311 4.906 16.07 4.132 4.062-.62 8.172-1.99 11.015-4.618 1.285-1.165 2.168-2.87 1.62-4.466-5.816-12.694-10.565-25.714-15.366-38.702-1.64-4.518-3.252-9.046-4.86-13.57-.457-1.149.14-2.331.36-3.465 1.011-3.46 2.32-6.89 4.128-10.107 1.967.801 3.243 2.386 4.527 3.818 3.874 4.73 6.962 9.882 9.8 15.1a47.145 47.145 0 0 0-.372 2.008c-1.44-1.516-3.288-2.875-5.603-3.26-.368.742-.352 1.554-.033 2.306 2.577 6.605 5.325 13.162 7.947 19.753 2.229 5.877 4.908 14.421 4.756 18.072-.468 5.128-1.317 11.926-3.146 16.705-2.012 4.248-5.516 9.32-10.29 11.654-4.094 2.088-9.15 2.41-13.763 1.64-6.073-1.03-11.284-4.358-15.015-8.457-5.243-5.776-8.462-12.718-10.368-19.777-.286.007-.858.028-1.145.038-1.783 7.102-4.495 14.095-8.683 20.45-3.755 5.683-8.945 11.054-16.103 13.765 1.251 17.583 2.56 35.162 3.456 52.762.13 8.68-.282 17.354-.79 26.022-.008 1.18-.588 2.271-1.022 3.374a270.078 270.078 0 0 1-4.466 11.22c-.25.62-.573 1.228-1.035 1.762-.204-16.57-1.86-33.1-3.182-49.624a19563.028 19563.028 0 0 1-3.562-43.657c-5.73-.108-11.632-1.53-15.861-4.941-4.929-3.845-7.444-9.39-8.647-14.861-1.063-4.847-1.288-9.816-.842-14.722.981-6.408 2.916-12.673 4.76-18.935.254-1.12.438-2.296.14-3.423-.115-.409-.225-.894-.785-1.009-.86-.093-1.498.451-2.078.891-3.215 2.636-5.317 6.044-7.154 9.456-3.48 7.049-5.53 14.563-6.646 22.132-.925 4.99-2.274 9.958-4.483 14.663-1.754 3.495-3.942 7.094-7.746 9.285-3.248 1.897-7.542 1.664-11.096.576-4.5-1.415-7.702-4.834-9.403-8.537-2.957-6.366-3.15-13.335-2.97-20.086.422-7.912 1.747-15.783 3.788-23.508.384-.07.773-.135 1.157-.198-1.652 8.863-2.998 17.85-2.216 26.834.38 3.894 1.198 7.826 3.161 11.39 1.67 3.045 4.598 5.78 8.475 6.775 3.297.86 7.203.79 10.008-1.088 3.051-2.07 4.495-5.305 5.611-8.377 2.626-7.784 3.612-15.894 6.332-23.657 2.638-7.611 6.225-14.993 10.663-21.976 2.573-3.62 5.354-7.16 8.585-10.385.957-.846 1.918-2.05 3.44-2.063.834.454.536 1.449.556 2.16-.426 3.502-.466 7.084-1.702 10.471-2.258 6.952-3.779 14.057-5.435 21.123-1.15 5.503-1.456 11.38 1.026 16.657 1.828 4.025 5.632 7.292 10.221 9.109 2.495.998 5.19 1.609 7.919 1.941-1.506-19.632-3.215-39.253-4.774-58.885-.356-3.054-.118-6.206-1.521-9.098zm607.58.076c2.458-4.944 4.732-9.948 7.219-14.882 3.812 10.648 7.534 21.328 10.642 32.138.466 1.862 1.076 3.71 1.305 5.607-.323 1.5-.863 2.975-.908 4.517a821.716 821.716 0 0 0-4.103-6.636c1.734 27.659 3.828 55.304 6.168 82.935.724 8.886 1.783 17.756 2.168 26.66.703 16.494.024 33.345-5.886 49.2-2.22 5.732-5.047 11.318-8.638 16.533-4.826 6.74-11.992 12.056-19.874 16.14-14.037 7.16-30.103 10.884-46.144 13.183-.908.28-1.276-.614-1.792-1.02 14.311-5.842 28.07-12.708 40.913-20.64 6.422-4.078 12.708-8.374 18.111-13.423 6.193-5.911 10.863-13.03 12.986-20.755 2.328-7.766 1.526-15.849 1.015-23.755-1.342-18.224-3.002-36.43-4.418-54.652-2.18-28.078-4.376-56.16-6.56-84.238-.462-1.973-1.914-3.665-2.585-5.585-.18-.472.237-.895.38-1.328zm-36.25 4.82c8.364-7.445 16.475-15.093 24.512-22.798.356 6.924-3.845 13.29-8.536 18.699-2.511 3.145-6.053 5.499-9.24 8.113a144.059 144.059 0 0 0-4.47 3.6c.422 1.85 1.064 3.674 1.301 5.554-.123 1.744-.454 3.478-.7 5.215-1.803-2.4-3.091-5.076-5.153-7.323.908 7.853 1.35 15.742 1.967 23.616a7293.117 7293.117 0 0 1 4.48 69.374c-.083.596.535.974.932 1.397 5.95 5.61 11.878 11.241 17.448 17.128 4.376 4.938 8.519 10.041 12.033 15.461 4.6 7.094 8.245 14.778 9.32 22.877.586 5.094.295 10.35-1.66 15.228-3.445-13.366-9.785-25.519-17.175-33.948-6.217-7.18-13.017-14.216-19.88-20.957.478 8.245.956 16.494 1.328 24.743.364 10.641-.098 21.286-.63 31.917.004 2.015-1.067 3.856-1.62 5.78-1.599 4.32-2.887 8.745-4.936 12.933-.327-9.82-.72-19.649-1.42-29.458-1.255-17.569-2.576-35.13-3.762-52.7-.176-1.383-.086-2.794-.397-4.154-4.515-4.476-9.39-8.685-14.107-13.006-8.307-7.357-16.7-14.646-25.412-21.657 1.653 18.353 3.362 36.701 4.908 55.061.663 8.336 1.538 16.671 1.632 25.031.119 7.271.033 14.545-.16 21.813.025 4.588.099 9.327-1.82 13.69-2.838 5.402-7.93 9.912-14.07 12.696-4.793 2.157-10.212 3.305-15.635 3.343-3.66.07-7.301-.756-10.536-2.174-5.665-2.708-9.706-7.327-12.307-12.3-1.784-3.421-3.064-7.038-3.755-10.737-.4-1.62-.826-3.492-2.532-4.504-1.358-.777-2.981-.156-4.294.364-3.195 1.443-6.27 3.183-8.581 5.579-7.526 7.676-11.105 17.475-13.346 27.118-1.097 4.16-2.835 8.297-5.886 11.733-2.213 2.448-5.372 4.792-9.113 4.854-2.93.049-5.755-1.009-8.368-2.104-5.784-2.587-9.795-7.33-12.184-12.392-.638-1.353-1.418-2.479-2.67-7.272-1.35-5.169-1.817-13.02-1.294-21.008.254-.774-.69-1.054-1.21-1.484-2.061-1.498-2.904-3.877-2.876-6.117-.057-8.22 1.35-16.584 5.432-24.105 3.309-6.203 8.266-11.619 13.092-17.014.454-.582 1.256-1.047 1.477-1.726-3.007-2.91-6.18-5.697-9.387-8.447-1.828-1.792-4.053-3.249-5.853-5.059-6.765-6.217-13.415-12.52-20.062-18.828.634 9.227 1.117 18.46 1.66 27.693.414 8.55 1.113 17.097.97 25.658.029 7.632-.376 15.256-.744 22.877-.02 1.9-.925 3.669-1.497 5.479-1.612 4.462-3.068 8.976-5.023 13.346-.364-3.613-.143-7.25-.413-10.866-.74-18.04-2.405-36.04-3.587-54.06-1.006-13.785-1.894-27.582-2.965-41.361-4.43-4.66-9.105-9.171-13.485-13.876-5.13-5.486-10.254-11.01-14.548-16.997-6.164-9.404-13.084-18.533-21.628-26.522-.487-.389-.336-.968-.332-1.463.295-5.17.528-10.34.83-15.51 6.082 3.357 11.882 7.077 17.457 11.02 4.32 3.158 8.43 6.546 11.927 10.378 1.804 1.81 3.469 4.119 2.864 6.59-2.054-.69-4.176-1.24-6.12-2.135a8.447 8.447 0 0 0-2.506-.707c-.127 1.446 1.034 2.587 1.906 3.724 6.335 7.867 12.945 15.568 19.726 23.162.87.974 1.832 1.903 2.503 2.999-.43-8.904-1.231-17.798-1.8-26.698-.961-13.744-1.947-27.485-2.908-41.23-.176-2.053-.057-4.171-1.03-6.102-.471-.77.224-1.474.609-2.14a457.665 457.665 0 0 0 6.785-11.536c.106-.27.618-.967.773-.298 4.184 9.22 7.44 18.741 9.845 28.404.74 2.313-.172 4.67-.446 6.983-1.562-2.618-3.333-5.138-5.067-7.676 2.22 24.136 3.509 48.33 5.174 72.494 1.124 1.602 2.85 2.87 4.225 4.334 13.272 12.975 27.052 25.564 40.823 38.154 10.233-9.632 20.569-19.188 30.94-28.713.45-.354.757-.787.598-1.325-3.12-30.044-6.246-60.092-9.37-90.136-.397-3.037-.29-6.164-1.636-9.05 2.556-4.656 5.358-9.219 7.898-13.886 1.39 2.451 2.347 5.07 3.443 7.628 2.577 6.376 4.806 12.857 6.569 19.427.368 1.48.973 2.975.732 4.507-.184 1.384-.41 2.764-.585 4.15-1.71-2.447-3.35-4.93-5.072-7.37 2.445 24.197 4.926 54.666 7.146 77.12 10.753-9.685 21.42-19.442 32.222-29.085 1.186-1.144 2.535-2.167 3.628-3.38-5.256-5.988-10.16-12.191-15.052-18.394-1.702-2.043-3.023-4.282-4.647-6.366-3.419-4.494-6.912-9.04-11.608-12.663-.409-5.84-.63-11.692-.924-17.541 11.027 8.169 22.23 16.178 32.946 24.646a8.69 8.69 0 0 1 2.417 2.805c-.965-9.137-1.849-18.276-2.76-27.416-.111-.84-.079-1.713-.492-2.497-.274-.804-1.03-1.664-.417-2.486 2.536-4.42 4.928-8.9 7.436-13.335 4.389 8.807 7.808 17.954 10.516 27.232.278 1.304.949 2.583.744 3.928-.2 1.484-.319 2.975-.519 4.46-1.55-2.185-3.1-4.37-4.634-6.557a14.66 14.66 0 0 1-.74-1.047c1.398 10.454 2.323 20.949 3.415 31.428 8.078-7.268 16.373-14.358 24.729-21.4 3.722-2.986 7.583-5.85 11.149-8.974-.336-4.057-.528-8.12-.904-12.174-.07-1.286-1.464-2.583-.487-3.814 2.638-4.25 5.137-8.568 7.6-12.898 2.883 5.618 4.83 11.554 6.916 17.41m-48.116 50.928c.127 1.64.29 3.28.467 4.917 2.625 2.75 5.292 5.475 8.065 8.12 10.573 10.118 21.51 19.954 32.238 29.951-1.66-24.725-3.525-49.447-5.174-74.176a1225.856 1225.856 0 0 0-35.596 31.188m-22.835-22.427c3.39 4.494 6.92 8.922 10.683 13.197-.302-3.963-.756-7.923-1.165-11.879-.205.35-.426.7-.598 1.058-2.556-1.581-5.677-2.823-8.92-2.375m-21.735 63.958c-2.192 2.187-4.634 4.205-6.695 6.48.486 7.01 1.541 14.004 2.192 21.012.319 11.584-1.951 23.879-10.352 33.359.241-1.508.127-3.034.147-4.553-.012-5.197.246-10.395.217-15.596-.028-4.983.078-4.64-.151-14.948-.096-4.303-.723-7.717-1.133-10.745-2.933 2.628-5.726 5.368-8.65 8.003-5.756 5.45-11.874 10.61-17.772 15.946 5.992 5.471 9.751 12.673 10.72 20.083.978 7.88-1.337 16.262-7.44 22.389-5.382 5.37-13.103 8.762-21.124 10.322-3.763.707-7.784 1.193-11.518.125.466 3.308 1.05 6.605 1.832 9.871 1.341 5.506 3.088 11.064 6.552 15.915 1.853 2.48 4.393 4.882 7.886 5.61 3.734.77 7.534-.818 10.16-2.996 2.34-1.778 3.423-4.358 4.41-6.813 2.964-7.229 3.966-14.996 7.889-21.948 2.753-5.516 6.25-10.87 11.297-15.12 2.618-2.31 5.628-4.28 8.781-6.034 2.172-1.103 4.802-2.022 7.358-1.376 2.434.607 4.074 2.427 5.199 4.26 2.56 4.13 3.227 8.853 5.3 13.146 1.518 3.547 3.53 7.15 7.105 9.542 3.611 2.417 8.372 3.159 12.876 2.996 7.86-.285 20.789-5.716 21.444-7.25.68-1.592-1.116-13.646-1.816-20.461-3.423-33.295-6.696-66.6-10.041-99.897-.115-.916-1.084-1.536-1.563-2.313-11.236 10.176-22.128 20.62-33.109 30.99m-51.224 47.77c-2.352 2.302-4.572 4.705-6.785 7.104-4.209 4.813-8.421 9.681-11.538 15.076-.785 1.37-1.501 3.08-.597 4.536 1.067 1.49 3.35 1.712 5.223 1.716 8.27-.281 15.984-3.419 22.7-7.337 2.245-.94 4.355-3.02 3.509-5.277-1.113-3.034-3.219-5.71-5.28-8.336-2.14-2.58-4.393-5.1-6.794-7.51l-.438.028z"/></svg>