<?xml version="1.0" encoding="UTF-8" standalone="no"?>
<svg xmlns="http://www.w3.org/2000/svg" width="744" height="496">
<rect fill="#3a7dce" width="744" height="496"/>
<path fill="#fff" d="M 183.295 238.539 C 179.242 230.431 179.242 230.431 179.242 222.324 C 177.215 222.324 176.835 222.705 175.663 222.386 C 174.491 222.07 174.048 229.862 170.247 228.341 C 169.614 227.581 172.971 221.945 169.329 219.602 C 168.157 218.839 169.614 214.216 169.107 212.189 C 169.107 212.189 164.484 214.595 161 206.109 C 159.289 203.891 156.946 208.135 156.946 208.135 C 156.946 208.135 157.959 210.732 156.123 211.366 C 153.526 209.465 151.625 210.462 148.332 207.85 C 145.038 205.237 149.029 202.245 142.758 200.028 C 146.812 189.894 146.812 191.92 156.946 187.867 C 150.865 183.813 150.865 183.813 146.812 177.732 C 140.731 175.705 138.704 173.679 132.623 169.625 C 124.516 159.49 120.462 139.222 120.462 125.034 C 125.593 120.283 132.623 141.249 142.758 147.329 C 142.758 147.329 156.946 153.41 156.946 153.41 C 165.053 157.464 167.08 161.517 173.161 165.571 C 173.161 165.571 191.403 171.652 191.403 171.652 C 199.51 177.732 203.564 185.84 209.645 187.867 C 216.232 187.867 217.501 184.073 219.613 183.837 C 231.529 183.226 237.61 181.691 239.985 178.112 C 242.391 175.262 248.155 179.759 264.37 173.679 C 264.37 173.679 262.344 165.571 262.344 165.571 C 262.344 165.571 266.651 162.024 272.478 163.544 C 272.32 159.839 271.939 149.958 277.679 145.5 C 274.193 141.843 276.532 139.222 276.532 139.222 C 276.532 139.222 279.763 136.118 280.142 134.471 C 278.433 125.54 281.625 125.402 282.341 122.774 C 283.056 120.147 279.584 121.047 280.563 117.425 C 281.54 113.802 287.412 112.942 288.198 109.958 C 288.987 106.974 286.524 105.477 286.666 104.765 C 287.933 101.915 286.857 95.2005 286.666 92.6035 C 297.561 89.6898 301.108 80.8223 304.908 84.496 C 306.935 72.3347 308.962 68.2809 321.123 68.2809 C 322.834 64.544 316.688 61.3768 319.096 60.1734 C 323.15 59.6667 326.253 59.9201 331.006 66.0642 C 332.506 68.0112 332.778 63.2138 334.298 62.707 C 335.818 62.2003 339.456 62.1924 339.997 59.7934 C 340.569 57.323 341.392 54.0928 343.419 50.0391 C 345.129 46.7454 346.459 51.3059 347.979 57.7665 C 356.531 58.0831 375.849 59.9835 383.956 62.2003 C 390.037 63.7839 394.091 60.6167 399.918 59.9833 C 404.225 64.2904 408.279 61.0602 410.559 70.2444 C 413.778 75.2001 419.046 70.6879 420.187 72.1446 C 426.965 90.83 450.274 78.2252 452.047 78.542 C 455.023 78.542 458.659 86.8966 461.002 86.689 C 464.81 86.0477 463.732 83.4509 467.058 84.496 C 466.17 91.5266 473.583 99.6343 473.583 104.891 C 473.583 104.891 475.387 105.778 477.059 104.218 C 478.729 102.659 480.265 98.6525 481.753 98.7473 C 485.3 99.2541 486.737 99.7095 490.825 100.424 C 501.815 104.179 507.413 105.026 511.682 106.95 C 513.668 110.584 515.592 112.445 519.617 111.766 C 522.943 114 520.517 116.926 522.481 117.116 C 526.535 115.089 527.865 112.872 531.918 114.899 C 535.972 116.926 540.026 120.98 542.053 125.034 C 542.053 127.06 540.026 135.168 542.053 147.329 C 543.066 151.383 543.557 154.597 547.912 161.549 C 546.755 168.691 553.391 180.709 553.391 183.75 C 553.391 187.803 550.16 189.894 548.133 193.947 C 556.241 200.028 548.133 210.162 544.08 216.243 C 574.483 222.324 560.295 234.485 584.617 228.404 C 578.536 242.592 580.689 241.453 586.77 255.641 C 574.608 263.749 586.518 266.218 578.411 276.352 C 577.904 276.986 583.223 285.157 590.698 285.157 C 588.671 301.372 582.59 295.291 584.617 319.614 C 568.655 319.298 575.115 337.793 564.348 335.829 C 564.981 347.42 570.492 348.434 568.402 360.151 C 560.295 362.178 560.295 362.178 556.241 368.259 C 556.241 368.259 550.16 366.232 550.16 366.232 C 548.133 376.366 544.08 378.393 550.16 388.528 C 550.16 388.528 542.306 388.781 540.026 388.528 C 539.835 392.012 543.51 392.962 544.08 396.635 C 543.763 398.092 532.551 404.489 523.811 404.743 C 521.531 409.747 529.891 415.068 529.385 417.601 C 519.883 419.437 515.703 431.092 515.703 431.092 C 515.703 431.092 520.58 433.056 519.757 435.146 C 517.161 433.245 515.703 433.119 511.65 433.119 C 509.623 433.626 504.683 432.995 499.946 440.989 C 494.747 442.704 492.293 442.084 488.349 447.299 C 486.603 442.331 484.092 447.346 481.021 449.273 C 477.953 451.203 473.82 456 473.265 455.796 C 473.392 454.401 475.166 449.334 475.166 449.334 C 475.166 449.334 465.031 451.361 465.031 451.361 C 465.031 451.361 464.579 451.405 463.783 451.486 C 462.986 451.565 463.199 445.57 461.278 445.787 C 459.358 446.006 453.863 453.327 451.99 453.556 C 450.12 453.785 449.528 451.227 447.916 451.45 C 446.305 451.673 443.163 459.172 442.022 459.371 C 440.881 459.57 436.355 454.813 432.476 455.477 C 412.523 462.509 409.355 441.607 406.252 453.388 C 402.072 451.17 402.796 452.457 398.548 453.57 C 395.838 454.269 395.591 449.987 393.181 450.053 C 388.359 450.189 388.612 454.75 385.983 453.388 C 383.831 443.886 370.844 445.596 369.578 441.543 C 368.548 437.315 375.204 437.335 377.357 434.471 C 379.003 430.338 375.638 428.769 382.317 424.782 C 391.022 418.894 386.018 416.673 387.544 412.248 C 390.274 405.859 390.29 404.299 388.01 398.662 C 388.01 398.662 381.232 380.42 379.902 380.42 C 375.849 379.281 375.849 387.133 369.894 389.288 C 357.733 393.341 336.262 379.026 332.524 379.026 C 329.105 379.09 313.265 382.777 313.863 374.879 C 311.495 382.558 302.786 376.683 302.249 376.683 C 294.141 376.683 297.244 382.954 291.796 382.7 C 289.325 381.877 264.37 380.42 264.37 380.42 C 264.37 380.42 264.37 384.474 264.37 384.474 C 264.37 384.474 248.155 376.366 248.155 376.366 C 248.155 376.366 233.967 372.313 233.967 372.313 C 221.806 368.259 227.887 358.124 207.618 364.205 C 207.618 364.205 207.618 352.044 207.618 352.044 C 207.618 352.044 197.484 352.044 197.484 352.044 C 201.537 327.721 197.484 339.883 195.457 317.587 C 195.457 317.587 187.349 319.614 187.349 319.614 C 179.242 308.656 198.623 310.746 181.269 303.399 C 181.269 303.399 181.585 291.3 177.215 295.291 C 176.328 295.798 179.242 301.372 179.242 301.372 C 163.027 299.345 158.973 295.291 158.973 279.076 C 158.973 279.076 172.338 280.977 171.134 279.076 C 169.234 276.036 166.764 256.274 167.207 254.944 C 167.017 252.283 179.622 245.57 177.183 239.171 C 178.735 238.601 183.295 238.539 183.295 238.539"/>
<g style="fill:none;stroke:#fff;stroke-width:2.5;stroke-linejoin:round">
	<path d="M 595.512 297.571 C 594.92 298.903 595.025 300.233 595.637 301.183 C 596.736 299.535 595.808 298.775 595.512 297.571 z"/>
	<path d="M 119.512 148.153 C 119.512 148.153 116.408 147.773 117.105 150.497 C 118.119 148.406 119.449 148.28 119.512 148.153 z"/>
	<path d="M 120.209 141.819 C 118.499 141.883 116.408 141.566 117.105 144.289 C 118.119 142.199 120.146 141.946 120.209 141.819 z"/>
	<path d="M 131.888 178.113 C 131.888 178.113 134.549 177.923 133.852 180.647 C 132.838 178.556 131.952 178.24 131.888 178.113 z"/>
</g>
</svg>