<?xml version="1.0" encoding="utf-8"?>
<!DOCTYPE svg PUBLIC "-//W3C//DTD SVG 1.1//EN" "http://www.w3.org/Graphics/SVG/1.1/DTD/svg11.dtd">
<svg xmlns="http://www.w3.org/2000/svg" xmlns:xlink="http://www.w3.org/1999/xlink" width="900" height="450" viewBox="0 0 1098 549">
<title>Flag of Belarus</title>
<rect fill="#C8313E" width="1098" height="549"/>
<rect y="366" fill="#4AA657" width="1098" height="183"/>
<rect fill="#FFF" width="122" height="549"/>
<g id="h">
<g id="q" fill="#C8313E" fill-rule="evenodd" transform="scale(5.304347826,9)">
<path d="M4,0h3v1h1v1h1v1h1v1h1v1h-1v1h-1v1h-1v1h-1v1h-1v1h-1v-1h-1v-1h-1v-1h-1v-1h-1v-1h-1v-1h1v-1h1v-1h1v-1h1zM5,2h1v1h1v1h1v1h-1v1h-1v1h-1v-1h-1v-1h-1v-1h1v-1h1zM5,4h1v1h-1zM0,1h1v1h-1zM0,7h1v1h-1zM11,0h0.6v2h-.6zM11,7h.6v2h-.6zM2,9h1v1h1v1h1v1h-1v1h-1v1h-1v-1h-1v-1h-1v-1h1v-1h1zM2,11h1v1h-1zM8,9h1v1h1v1h1v1h-1v1h-1v1h-1v-1h-1v-1h-1v-1h1v-1h1zM8,11h1v1h-1zM0,15h1v1h-1zM11,14h.6v2h-.6z"/>
<path d="M0,18h1v-1h1v-1h1v-1h1v-1h1v-1h1v1h1v1h1v1h1v1h1v1h1v1h.6v4h-.6v1h-1v1h-1v1h-1v1h-1v1h-1v2.6h-2v-0.6h-1v-1h-1v-1h-1v-1h-1 v-3h1v1h1v1h1v1h1v-1h1v-1h1v-1h1v-1h1v-1h1v-1h-1v-1h-1v-1h-3v1h2v1h-1v1h-1v1h-1v-1h-1v-1h-1v-1h-1zM0,22h1v1h-1zM11,25h.6v1h-.6zM9,27h1v1h1v1h.6v1.6h-.6v-.6h-1v-1h-1zM7,30h1v.6h-1z"/>
</g>
<use xlink:href="#q" transform="translate(122,0) scale(-1,1)"/>
</g>
<use xlink:href="#h" transform="translate(0,549) scale(1,-1)"/>
</svg>
