<?xml version="1.0" encoding="UTF-8"?>
<svg xmlns="http://www.w3.org/2000/svg" xmlns:xlink="http://www.w3.org/1999/xlink" width="750" height="500">
<defs>
<radialGradient id="white_skin">
<stop stop-color="#ffef5d" offset="0"/>
<stop stop-color="#ea5700" offset="1"/>
</radialGradient>
<radialGradient id="black_skin">
<stop stop-color="#952d1a" offset="0"/>
<stop stop-color="#570a00" offset="1"/>
</radialGradient>
</defs>
<rect width="750" height="500" fill="#ce1126"/>
<rect width="750" height="428.57" y="35.714" fill="#003f87"/>
<circle cx="375" cy="250" r="196.429" fill="#fff"/>
<g id="leaves">
<circle cx="375" cy="249" r="162.812" fill="none" stroke="#552300" stroke-width="4.103"/>
<g fill="#007f00">
<path d="m356.19,76.241c14.725-15.798,28.039,2.4507,27.684,11.002-0.3554,8.551-15.207,27.416-28.646,12.234,13.922,3.5647,18.083-12.003,25.125-12.157-7.0412,0.1553-9.9194-15.259-24.163-11.078z"/>
<path d="m202.92,200.12c-7.7422-20.102,14.644-23.856,22.208-19.751,7.5668,4.1055,18.021,25.681-1.648,30.908,9.3905-10.806-2.8239-21.409,0.15681-27.741-2.9807,6.3319-18.179,2.0599-20.717,16.585z"/>
<path d="m533.28,180.24c20.168,7.9048,7.8468,26.827-0.31445,29.594-8.1602,2.7672-31.256-4.1438-21.861-22.074,1.6914,14.171,17.821,12.387,20.515,18.846-2.696-6.4591,10.741-14.701,1.6598-26.366z"/>
<path d="m269.58,393.14c-21.576-2.1447-14.921-23.685-7.8322-28.556,7.091-4.8715,31.211-4.4746,27.099,15.318-5.5216-13.174-20.548-7.0918-24.915-12.576,4.3657,5.484-6.2951,17.05,5.6483,25.814z"/>
<path d="m487.64,377.55c0.30792,21.517-22.013,17.408-27.698,10.973-5.6837-6.4355-8.0314-30.262,12.251-28.463-12.559,6.9449-4.7606,21.069-9.7539,25.998,4.9946-4.9288,17.788,4.2661,25.201-8.5071z"/>
<path d="m218.64,159.24c-1.9676-21.431,20.606-19.029,26.768-13.044,6.1629,5.985,10.342,29.564-10.021,29.31,11.99-7.8783,3.1238-21.369,7.7226-26.663-4.5986,5.2951-18.063-2.9011-24.47,10.398z"/>
<path d="m241.76,360.29c-21.382-3.5869-13.276-24.631-5.8711-29.018,7.4053-4.3845,31.444-2.3722,25.994,17.1-4.6126-13.517-20.019-8.4531-24.003-14.218,3.9841,5.7662-7.4394,16.593,3.8795,26.135z"/>
<path d="m410.72,77.127c19.418-9.5784,25.333,12.174,21.94,20.043-3.3906,7.8684-24.026,20.269-31.157,1.3374,11.738,8.2404,21.201-4.8453,27.839-2.5074-6.6376-2.3379-3.812-17.762-18.622-18.873z"/>
<path d="m452.04,404.49c-9.6263,19.283-27.594,5.5118-29.689-2.7897-2.0948-8.3027,6.78-30.564,23.996-19.769-14.369,0.4845-13.93,16.586-20.64,18.708,6.7098-2.1223,13.861,11.854,26.333,3.8502z"/>
<path d="m546.33,218.38c16.316,14.177-1.7046,27.883-10.325,27.764-8.6232-0.11792-28.03-14.337-13.104-28.086-3.2108,13.909,12.583,17.614,12.931,24.595-0.34923-6.9808,15.097-10.257,10.498-24.273z"/>
<path d="m272.4,105.04c4.8689-20.971,25.559-11.699,29.535-4.1028,3.9742,7.5954,0.52937,31.289-18.735,24.743,13.866-3.7717,9.6858-19.334,15.718-22.939-6.033,3.6047-16.249-8.3527-26.517,2.2992z"/>
<path d="m208.27,284.73c-19-10.373-4.3648-27.596,4.0818-29.318,8.4457-1.7219,30.477,8.033,18.871,24.64,0.12873-14.266-16.099-14.523-17.948-21.267,1.8494,6.7447-12.528,13.235-5.0055,25.945z"/>
<path d="m482.8,118.48c21.462-3.0857,20.24,19.412,14.544,25.837-5.6962,6.4248-29.2,11.816-30.023-8.3775,8.5614,11.464,21.665,1.9624,27.238,6.2392-5.5702-4.2766,1.9632-18.055-11.759-23.698z"/>
<path d="m360.73,425.12c-19.798,8.7796-24.808-13.195-21.094-20.92,3.7135-7.7222,24.846-19.272,31.186-0.066-11.388-8.7111-21.384,3.9768-27.919,1.3715,6.5354,2.6044,3.0754,17.899,17.827,19.614z"/>
<path d="m538.37,305.08c8.9398,19.606-13.18,24.682-20.979,21.034-7.7997-3.6483-19.538-24.565-0.21646-30.949-8.7227,11.342,4.1096,21.201,1.5145,27.699,2.5954-6.4987,18.024-3.1351,19.681-17.783z"/>
<path d="m199.66,241.93c-12.438-17.629,8.355-26.675,16.7-24.519,8.3453,2.155,23.778,20.558,5.978,30.377,6.4598-12.748-7.988-20.083-6.6474-26.945-1.3413,6.8604-17.129,6.3866-16.031,21.087z"/>
<path d="m316.63,412.08c-20.35,7.4333-23.854-14.831-19.622-22.286,4.2319-7.4571,26.1-17.562,31.12,2.0239-10.77-9.455-21.604,2.5349-27.949-0.50364,6.3434,3.0365,1.8485,18.064,16.451,20.765z"/>
<path d="m310.76,84.939c12.058-17.887,28.08-1.9258,29.076,6.5749,0.99594,8.5009-10.703,29.437-26.369,16.525,14.312,1.3628,15.973-14.659,22.903-15.902-6.9308,1.2424-12.2-13.535-25.61-7.1978z"/>
<path d="m519.27,347.62c1.3017,21.482-21.187,18.39-27.16,12.218-5.9754-6.171-9.4198-29.868,10.927-28.989-12.229,7.5055-3.7863,21.262-8.5468,26.412,4.7613-5.1492,17.965,3.4549,24.78-9.641z"/>
<path d="m513.74,145.08c21.257,4.2586,12.48,25.038,4.9383,29.187-7.5416,4.1491-31.503,1.3792-25.433-17.913,4.1754,13.655,19.738,9.0811,23.535,14.969-3.7956-5.8864,7.969-16.347-3.0401-26.243z"/>
<path d="m244.54,129.94c0.20546-21.52,22.423-16.885,27.95-10.317,5.5281,6.5692,7.3058,30.445-12.929,28.166,12.723-6.6462,5.2638-20.95,10.374-25.761-5.1098,4.811-17.679-4.6825-25.395,7.9121z"/>
<path d="m217.66,323.91c-19.346-9.7227-5.311-27.431,3.0719-29.438,8.3832-2.0056,30.735,6.9965,19.708,23.987-0.36375-14.264-16.59-13.969-18.669-20.648,2.0802,6.6789-12.066,13.651-4.1108,26.099z"/>
<path d="m450,94.806c20.287-7.5997,23.976,14.632,19.809,22.124-4.1688,7.4921-25.952,17.778-31.136-1.7668,10.848,9.3657,21.584-2.7129,27.952,0.27353-6.3698-2.9872-2.0005-18.051-16.625-20.631z"/>
<path d="m406.94,422.71c-15.777,14.795-27.803-4.2965-26.862-12.805,0.94167-8.5102,17.054-26.357,29.418-10.32-13.645-4.4746-18.865,10.787-25.902,10.475,7.037,0.30977,8.8493,15.882,23.345,12.65z"/>
<path d="m545.18,258.13c14.802,15.728-4.5106,27.572-13.077,26.598-8.567-0.97341-26.442-17.053-10.202-29.248-4.5982,13.52,10.741,18.778,10.382,25.758,0.3591-6.981,16.059-8.7056,12.897-23.108z"/>
</g>
<g fill="#005800">
<path d="M355.23,99.477c13.92,3.563,17.41-11.815,24.45-11.969-4.11,4.909-14.83,17.422-24.45,11.969z"/>
<path d="m356.19,76.241c14.725-15.798,28.039,2.4507,27.684,11.002-11.95-20.833-15.69-17.62-27.68-11.002z"/>
<path d="m223.48,211.27c9.3905-10.806-2.9519-20.727,0.0279-27.06,2.6138,5.8324,9.1602,20.92-0.0279,27.06z"/>
<path d="m202.92,200.12c-7.7422-20.102,14.644-23.856,22.208-19.751-24.115,1.3999-22.87,6.1503-22.208,19.751z"/>
<path d="m511.11,187.76c1.6914,14.171,17.4,11.833,20.094,18.291-6.0994-2.0263-21.734-7.4196-20.094-18.291z"/>
<path d="m533.28,180.24c20.168,7.9048,7.8468,26.827-0.31445,29.594,15.24-18.601,10.869-20.896,0.31445-29.594z"/>
<path d="m288.85,379.91c-5.5212-13.175-19.992-6.6743-24.358-12.158,6.424,0.29832,22.948,1.2555,24.358,12.158z"/>
<path d="m269.58,393.14c-21.576-2.1447-14.921-23.685-7.8322-28.556-9.5509,22.019-4.7128,23.044,7.8322,28.556z"/>
<path d="m472.19,360.06c-12.559,6.9449-4.4041,20.473-9.3974,25.402-0.43343-6.3686-1.3565-22.769,9.3974-25.402z"/>
<path d="m487.64,377.55c0.30792,21.517-22.013,17.408-27.698,10.973,23.133,6.9103,23.61,2.0234,27.698-10.973z"/>
<path d="m235.39,175.5c11.99-7.8777,2.8118-20.747,7.412-26.041,0.92366,6.3177,3.1083,22.6-7.412,26.041z"/>
<path d="m218.64,159.24c-1.9676-21.431,20.606-19.029,26.768-13.044-23.597-5.1329-23.694-0.2253-26.768,13.044z"/>
<path d="m261.88,348.37c-4.6118-13.515-19.492-7.9979-23.476-13.762,6.3881,0.72693,22.81,2.7896,23.476,13.762z"/>
<path d="m241.76,360.29c-21.382-3.5869-13.276-24.631-5.8711-29.018-11.026,21.332-6.2714,22.678,5.8711,29.018z"/>
<path d="m401.51,98.508c11.738,8.2404,20.506-4.906,27.143-2.5684-5.5987,3.14-20.103,11.055-27.143,2.5684z"/>
<path d="m410.72,77.127c19.418-9.5784,25.333,12.174,21.94,20.043-3.7188-23.688-8.364-22.003-21.94-20.043z"/>
<path d="m446.35,381.93c-14.369,0.4845-13.339,16.217-20.048,18.338,2.544-5.8613,9.2688-20.871,20.048-18.338z"/>
<path d="m452.04,404.49c-9.6263,19.283-27.594,5.5118-29.689-2.7897,17.401,16.631,20.072,12.501,29.689,2.7897z"/>
<path d="m522.9,218.06c-3.2108,13.909,12.375,16.952,12.723,23.933-5.0562-3.9438-17.952-14.243-12.723-23.933z"/>
<path d="m546.33,218.38c16.316,14.177-1.7046,27.883-10.325,27.764,20.656-12.427,17.317-16.049,10.325-27.764z"/>
<path d="m283.2,125.68c13.866-3.7717,9.1965-18.839,15.23-22.445-1.1105,6.2874-4.1537,22.434-15.23,22.445z"/>
<path d="m272.4,105.04c4.8689-20.971,25.559-11.699,29.535-4.1028-20.806-12.184-22.441-7.5529-29.535,4.1028z"/>
<path d="m231.22,280.05c0.12854-14.267-15.753-13.92-17.6-20.664,5.7918,2.7734,20.614,10.085,17.6,20.664z"/>
<path d="m208.27,284.73c-19-10.373-4.3648-27.596,4.0818-29.318-17.488,16.54-13.445,19.366-4.0818,29.318z"/>
<path d="m467.32,135.94c8.5614,11.464,21.025,1.689,26.596,5.9648-6.3073,1.2503-22.577,4.2785-26.596-5.9648z"/>
<path d="m482.8,118.48c21.462-3.0857,20.24,19.412,14.544,25.837,3.9152-23.657-1.0279-23.493-14.544-25.837z"/>
<path d="m370.82,404.14c-11.388-8.7111-20.692,4.0668-27.226,1.4586,5.7249-2.9075,20.544-10.226,27.226-1.4586z"/>
<path d="m360.73,425.12c-19.798,8.7796-24.808-13.195-21.094-20.92,2.7366,23.82,7.4485,22.324,21.094,20.92z"/>
<path d="m517.17,295.17c-8.7224,11.344,4.1973,20.516,1.6022,27.014-2.959-5.6678-10.404-20.339-1.6022-27.014z"/>
<path d="m538.37,305.08c8.9398,19.606-13.18,24.682-20.979,21.034,23.99-2.8304,22.459-7.4984,20.979-21.034z"/>
<path d="m222.34,247.79c6.4598-12.748-7.9446-19.392-6.6042-26.253,3.9612,5.0267,14.011,18.08,6.6042,26.253z"/>
<path d="m199.66,241.93c-12.438-17.629,8.355-26.675,16.7-24.519-23.048,7.1806-20.675,11.487-16.7,24.519z"/>
<path d="m328.12,391.82c-10.77-9.455-20.921,2.6694-27.263-0.36673,5.9091-2.5197,21.192-8.8282,27.263,0.36673z"/>
<path d="m316.63,412.08c-20.35,7.4333-23.854-14.831-19.622-22.286,1.1087,23.948,5.9109,22.773,19.622,22.286z"/>
<path d="m313.47,108.04c14.312,1.3629,15.338-14.369,22.268-15.613-3.2857,5.4866-11.91,19.508-22.268,15.613z"/>
<path d="m310.76,84.939c12.058-17.887,28.08-1.9258,29.076,6.5749-15.089-18.723-18.276-14.97-29.076-6.5749z"/>
<path d="m503.03,330.85c-12.229,7.5055-3.4571,20.65-8.2188,25.801-0.72619-6.3423-2.4047-22.684,8.2188-25.801z"/>
<path d="m519.27,347.62c1.3017,21.482-21.187,18.39-27.16,12.218,23.427,5.8525,23.677,0.95221,27.16-12.218z"/>
<path d="m493.24,156.35c4.1763,13.654,19.227,8.6096,23.023,14.497-6.3616-0.92834-22.709-3.5075-23.023-14.497z"/>
<path d="m513.74,145.08c21.257,4.2586,12.48,25.038,4.9383,29.187,11.708-20.971,6.9971-22.467-4.9383-29.187z"/>
<path d="m259.57,147.78c12.723-6.6462,4.8939-20.363,10.002-25.173,0.28139,6.3765,0.81212,22.795-10.002,25.173z"/>
<path d="m244.54,129.94c0.20546-21.52,22.423-16.885,27.95-10.317-22.959-7.4535-23.552-2.5797-27.95,10.317z"/>
<path d="m240.44,318.46c-0.36376-14.264-16.222-13.379-18.303-20.056,5.8837,2.5758,20.949,9.3825,18.303,20.056z"/>
<path d="m217.66,323.91c-19.346-9.7227-5.311-27.431,3.0719-29.438-16.91,17.121-12.771,19.808-3.0719,29.438z"/>
<path d="m438.67,115.16c10.848,9.3657,20.896-2.8423,27.266,0.14355-5.8878,2.5682-21.119,9.002-27.266-0.14355z"/>
<path d="m450,94.806c20.287-7.5997,23.976,14.632,19.809,22.124-1.3118-23.94-6.1016-22.724-19.809-22.124z"/>
<path d="m409.5,399.59c-13.645-4.4746-18.182,10.643-25.216,10.331,4.4355-4.6275,15.994-16.407,25.216-10.331z"/>
<path d="m406.94,422.71c-15.777,14.795-27.803-4.2965-26.862-12.805,10.497,21.576,14.446,18.617,26.862,12.805z"/>
<path d="m521.9,255.48c-4.5972,13.52,10.602,18.098,10.242,25.078-4.6329-4.4262-16.424-15.956-10.242-25.078z"/>
<path d="m545.18,258.13c14.802,15.728-4.5106,27.572-13.077,26.598,21.809-10.312,18.852-14.247,13.077-26.598z"/>
</g>
</g>
<g id="coa">
<g id="tree" stroke-width="0.5087">
<g fill="#730000" stroke="#000">
<path d="m405.26,125.34s0.61-1.426,1.73-0.61c1.018,0.812,1.321,4.375,1.321,4.375l-1.628,0.812c0.001,0.001,0.917-1.319-1.423-4.577z"/>
<path d="m396.01,157.29s0.813-1.118-0.305-3.563l1.628-0.508s0.609,1.932-0.204,4.072l-1.119-0.001"/>
<path d="m424.19,151.69-3.865,2.342,1.934,0.916,4.679-2.748-2.748-0.51"/>
<path d="m372.4,166.85c-1.019,0.815-1.12,2.24-1.73,3.052-0.506,0.814-2.034,1.932-2.135,3.154-0.203,1.22-0.304,2.034,0.204,3.664,0.607,1.626,3.152,8.851,2.135,14.347-1.12,5.493-0.71,7.833-0.303,8.649,0.404,0.814,1.627,3.051,2.339,3.051,1.628-0.203,0.916-0.711,1.525-1.729,1.526-2.646,0-23.098-0.712-28.796-0.507-4.375-2.545-8.345-2.745-8.75-0.203-0.511-0.609-1.832-0.916-2.647-1.525-3.664-3.357-6.815-3.357-14.451,0,0-4.986,1.122-9.257-8.547-2.238-4.883-5.495-4.375-9.359-6.001l1.729-1.122s3.256,1.629,4.884,1.629,1.12-3.256,1.12-3.256l1.628-1.63v7.126c0,3.256,4.476,7.732,7.121,9.055,1.628,0.812,3.765-2.545,3.257-5.799-0.509-3.256,0-7.631,0-7.631l2.238,1.321s-0.814,1.424-0.61,2.238c0.303,0.816,1.422-0.813,2.236-1.629,0,0,0.203,0.205,1.018,0.205,0,0-1.628,2.745-2.44,4.172-0.812,1.324-0.812,6.514-0.812,8.447,0,1.934,0.712,6.409,0.712,7.833,0,1.021,1.931,5.19,3.46,7.736,0.507,1.016,1.728,3.661,1.728,3.661,1.221,1.933,1.321,3.256,2.035,4.886,0.406,0.812,1.12,3.153,1.628,7.225,0.204,1.016,0.406,4.883,0.714,7.425,0.304,2.442,2.34,0.511,4.779-1.219,2.442-1.832,2.442-6.207,2.442-6.207s1.934-1.628,1.628-0.712c-0.204,1.018,1.019,2.035,1.019,2.035-1.525,3.458-0.609,3.052,0.916,2.95,1.525-0.206,6.814-4.172,6.814-4.172,0.713-0.205,3.867-0.205,3.358,0-0.61,0.306-1.425,1.832-1.425,1.832l3.46-0.408c-1.221,0.916-5.801,3.561-6.815,4.172-1.12,0.714-6.611,3.361-8.952,4.274-2.34,1.016-6.919,3.256-7.122,5.596-0.103,2.342,0.304,8.649,0,10.683-0.204,2.035-1.019,11.093-1.019,11.093h-10.886s2.137-7.937-0.103-10.073c-2.136-2.238-7.122-8.752-10.377-10.992-3.257-2.135,2.135-0.505,2.135-0.505v-2.24l4.984,6.006s8.647-7.632,0-18.011c-2.746-3.256-5.494-8.241-7.629-8.752-2.238-0.61-3.358-1.119-7.123,0-3.866,1.118-13.124,1.118-16.99-4.988l3.257-0.508,2.744-1.119s-1.118,3.867,6.613,3.867c7.631,0,8.749,0,8.139-7.123l2.238-1.119,1.629,1.63s-1.12,3.866-0.509,5.493c0.509,1.627,3.257,2.748,5.393,4.375,0.916,0.713,1.628,0.815,2.238,0.815,0.915-0.102,1.118-0.102,2.339-1.324,1.832-2.035,1.424-1.933,3.256-3.559,0,0,0.916-1.426,1.12-1.63l1.12,2.952h-0.006z"/>
<path d="m374.03,161.46c0.405-0.404,1.221-1.934,1.933-3.256,1.221-2.035,2.646-3.256,4.272-5.801,1.525-2.34,2.137-5.798,1.525-8.239l1.424,0.814,0.104,3.866s1.934-1.63,2.748-2.035l0.812,0.405s-6.104,6.31-11.802,16.485l-1.018-2.237,0.002-0.002z"/>
<path d="m320.52,140.3c0.814,1.421,1.629,4.172,4.07,6.307l1.628-0.508s-3.764-4.375-3.764-6.307l-1.934,0.508"/>
<path d="m330.08,137.85s0.508,5.19-0.812,7.123l1.627-0.811s1.119-3.561,0.813-5.496l-1.628-0.812v-0.004z"/>
<path d="m383.7,121.47s-0.307,7.325,1.119,11.803l1.932-0.608s-0.304-1.327,1.322-1.937c1.629-0.508,5.494-2.135,7.426-3.765l-0.608-1.626s-2.95,2.34-4.375,2.949c-1.322,0.51-2.136,1.119-3.256,0.816-1.12-0.306-2.44-2.138-1.628-6.311l-1.932-1.321"/>
<path d="m405.26,155.66s-0.507,5.189-0.202,7.429l1.729,0.408s-0.404-6.207,0.712-6.716l-2.239-1.121"/>
<path d="m413,159.53s-1.933,3.358-4.17,3.664l3.561-0.714s1.019-0.508,2.544-2.135l-1.935-0.815"/>
</g>
<g fill="#289400" stroke="#030">
<path d="m381.87,144.16,1.321,0.811,1.424,0.206s1.525,1.424,3.256,2.745c1.321,1.122,1.321-0.202,1.321-0.202l0.812,3.256h1.12s-0.306,2.136-0.306,3.256l1.934-1.629,2.238,1.934s1.628-1.424,2.441-1.424c0.812,0,1.118-0.812,1.118-0.812h0.104c-5.393-2.546-7.731-5.19-6.104-7.938,2.646-4.578,7.02-1.629,8.443-1.016l19.737,10.581s1.322-0.814,0.406-1.63c-1.019-0.811-1.425-2.848-1.12-3.661,0.306-0.814,2.544,2.542,3.662,2.847,1.12,0.306,3.661,0.714,3.661,0.714l-0.102-1.018s3.256,2.237,3.256,3.358c0,0,2.341-1.221,1.525-1.934-0.813-0.71,3.562,1.731,3.866,3.055l0.915-1.021c-0.103,0,0.306-3.256,1.424-4.782,1.019-1.524,2.137-1.933,2.137-1.933s1.019-1.731,2.034-1.731c0,0-1.019-0.71-1.425-1.524-0.508-0.816-1.729-1.222-1.729-1.222s1.525-1.118,1.934-1.628c0.406-0.608,0.814-0.714,0.814-0.714s-2.342-1.932-3.97-2.235c0,0-0.102-2.648-2.136-2.85h0.916s-1.526-2.849-2.951-2.95c0,0,0.916-1.017,1.73-1.119,0,0-1.73-2.238-4.068-1.424l1.525-0.608s-1.119-1.22-4.576-0.61c0,0,0.303-1.424-1.221-2.545,0,0-1.322,0.1-1.322,1.118,0,0-1.221-1.118-2.746-1.118-1.526,0,0.508,1.629,0.508,1.629s-2.034-1.324-3.256-0.916c0,0,0.508-2.34-0.814-3.563,0,0-1.523,0.815-1.933,1.832l-0.406-1.017s-2.036,2.442-2.441,1.73c-0.305-0.406-0.609-2.135-0.609-2.135l-1.219,1.832,0.202-2.546s-1.424,0.815-2.543,3.458c0,0-1.425,1.324-1.425,2.542,0,0-1.119-1.32-2.137,0-0.916,1.424,0,1.122,0,1.122s-0.407,0.505-1.424,0.71l0.204,0.812s-1.321-0.71-2.339-0.404l0.507,1.219s-2.645,0.205-2.745-1.93c0,0-2.238-1.121-2.544,0.101l-1.628,1.018s-0.509-1.018-1.425-1.22c-1.019-0.306-0.204,1.32-0.204,1.32s-0.304-1.219-1.525-1.832c-1.219-0.505-0.203,1.122-0.203,1.122s-1.628-1.324-0.812-2.34c0,0-1.526,1.424-0.814,2.748l-1.018,0.711s-0.509-0.508-0.408-0.916c0.104-0.408-1.729,1.219-1.729,1.219s-1.119-2.643,0-2.643c0.102,0-1.933-0.102-2.237,2.24,0,0-1.322,0.101-2.544,0.505-1.322,0.408,0.916,1.324,0.916,1.324s-1.934-0.408-3.053,0.204l0.713,0.916s-0.713-0.713-2.442-0.104c-1.832,0.508,0.406,0.814,0.406,0.814s-1.832-0.406-2.747,0c-0.916,0.408,0.305,1.119,0.305,1.119s-3.357-1.017-3.866-0.71c-0.507,0.304,1.12,1.934,1.12,1.934s-2.035,0.508-2.44,2.035l1.831,0.71s-0.812,0.406-1.222,1.222c-0.403,0.814,1.222,0.405,1.222,0.405s-2.237,1.63-2.237,2.849c0,0,1.627,0.508,2.848-0.711s0.406-0.814,0.406-0.814l0.102,0.814s2.341-1.016,2.341-1.626c0-0.508-0.406,0.812-0.406,0.812l2.341-1.22,1.524,1.018v-0.002h0.001z"/>
<path d="m379.93,112.42-0.509-2.238l5.188,0.608,0.915-2.135s2.441,1.118,3.256,1.929c0,0,4.781-1.219,6.207-0.71l-0.61,2.24s4.373,0.303,5.799,0.812c1.322,0.508-0.609,1.63-0.609,1.63s4.984,0.608,7.122,1.932c2.238,1.321,2.238,2.442,1.12,2.745l2.744,4.375s-4.373,0.508-5.187,1.626c-0.814,1.119-1.628-1.118-1.628-1.118l-0.814,3.052s-2.746-1.426-3.865-2.442c0,0-1.321,1.629-0.508,2.442l-4.986-3.256s-2.137-0.304-2.137,1.63c0,0-2.439-2.748-3.051-3.563l-2.748,0.815s-0.812-1.118-1.83-1.426c-1.12-0.201-0.306,1.426-0.306,1.426l-1.628-1.934-1.627-1.929s-1.425,1.929-2.544,1.929c-1.02,0-1.02-1.321-0.814-2.237,0.305-0.814-3.256-1.016-3.561,0,0,0-1.019-4.07,2.746-5.188,3.866-1.018,3.866-1.018,3.866-1.018l-0.001,0.003z"/>
<path d="m360.2,126.36-1.729,1.629-1.019-0.508-2.034,2.237-0.407-1.223-1.119,1.832-1.729-0.609-0.814,1.322-1.525-0.306s-1.322,1.222-2.137,1.526c-0.813,0.206,0-1.829,0-1.829s-1.221,2.034-2.137,2.034c-0.812,0-0.507-0.916-0.507-0.916s-0.508,1.319-1.525,1.525c-0.916,0.102-0.51-1.017-0.51-1.017l-1.629,1.219v-1.017l-0.712-0.304s0.406-1.832,1.12-2.238c0.712-0.408-0.712-1.626-0.712-1.626l0.712-0.815s-2.036-0.508-2.036-0.101c0,0,1.019-2.745,2.441-3.258l0.103-3.051s1.425-1.219,2.747-1.324c1.423-0.203-0.406-2.34-0.406-2.34l3.255-1.929,0.406-2.34,4.984,0.403,1.018-2.135,3.969,1.016,3.356-1.73,2.441,2.849,3.662,0.307s-0.102,2.542-0.102,3.256c0,0,4.373,1.321,4.883,1.73,0,0-0.814,2.645-0.814,3.153,0,0,3.054-0.814,3.97-0.61,0,0,0.306,2.85,0.405,3.561,0,0,5.188,1.63,5.494,2.546,0,0-1.12,0.71-1.729,1.626,0,0,0.608,3.156,0.608,4.172l-0.406,0.61s-1.526-1.424-2.747-1.627l-1.019,2.237-1.83-1.22-1.119,0.102s-0.916-1.119-1.629-1.119l-0.103-1.018-1.424,0.916s-2.237-1.12-2.237-1.832c0-0.609,0.102-1.63,0.102-1.63l-2.34,1.63s-0.508-1.219-0.405-1.73c0.103-0.508-0.915,1.222-0.915,1.222s-1.222-2.138-1.12-2.546l-0.306,1.732s-2.441-0.812-2.745-2.442v-0.002z"/>
<path d="m327.64,136.33s4.274,2.14,4.274,3.156c0,0,1.12-2.24,0.508-3.054l1.629,1.122s0.506-2.034-0.103-2.647c-0.509-0.508,3.66-2.235,4.576,0.51,0,0,2.545-2.645-2.339-4.885,0,0-0.405-1.626,2.544-1.219,0,0-0.203-1.018-0.916-1.424h2.849s-1.729-1.426-4.273-1.832c-2.44-0.408-0.916-0.711-1.018-1.224-0.204-0.508,0-2.34,0-2.34s-1.424-0.508-2.544,0.102l0.406-0.51s-2.646-0.71-3.661-0.101c0,0-1.526-0.61-1.322-2.24,0,0-1.526-0.1-2.236,1.526,0,0-1.425,1.629-3.357,1.629-0.406,0-1.832-0.815-1.832-0.815l-1.222,2.85-1.932-0.102,0.609,1.118s-2.95-0.811-3.866,0c0,0,1.12,1.732,0.813,2.951,0,0-2.341,0.408-2.849,0.815-0.61,0.403,0.813,0.71,0.813,0.71s-2.645,0.814-3.257,1.63l1.02,0.811-1.222,1.631,1.019,0.201s-1.729,0.51-2.644,0.815c-0.916,0.303,1.627,0.508,1.627,0.508l-1.219,1.118,1.933,0.303s-1.525,4.072-1.628,6.006c0,0,2.341-2.85,2.949-3.052l-1.83,3.052s3.46-1.118,3.766-1.631c0.304-0.608,0.609-1.117,0.609-1.117l0.103,1.73s1.322-1.832,1.525-2.545c0.103-0.71,2.136,0.713,2.136,0.713v-1.02s1.832,0.609,2.441,0.714c0.712,0.101,0.813-0.306,0.813-0.306l1.729-0.203-0.306,1.421s1.22-0.812,1.525-1.627c0.204-0.815,0.813,0,0.813,0l0.812-3.256h1.729l0.006,0.008z"/>
<path d="m313.7,150.78,1.628,3.358c-1.322,0.1-3.256,1.626-3.256,1.626,0.304,5.597-1.118,5.291-1.118,5.291,0.403,1.018-0.259,2.905-0.259,2.905l8.092-4.837,0.102-0.508,9.564-4.48,0.303,0.508,2.748-1.524,1.933,5.085-1.933,1.119c0.103,1.73,2.137,4.784,2.137,4.784l2.544-0.608,2.747-1.021s0.103,1.526,0.103,1.021c0-0.411,2.949-1.424,2.949-1.424l1.322,1.322c1.02-0.101,2.848-2.546,2.848-2.546l2.137,0.816s0.712-1.22,0.712-2.136c0-0.814,2.645-0.814,2.645-0.814l1.832,1.321,2.34-1.931s0.712,1.424,1.628,1.626c1.019,0.102,3.561,2.034,3.561,1.63,0-0.406,1.12-2.646,1.12-2.646l4.271,1.73c-0.608-1.933-2.032-4.273-2.032-4.273s2.032-1.626,1.627-2.034-1.627,0-1.627,0l1.219-2.442h-1.627l0.507-0.608-2.645-1.118,1.423-2.85c-0.61-0.714-7.629-2.138-7.629-2.138l1.628-1.526s-0.814-1.219-1.628-1.219-5.087,0.102-5.291-0.303c-0.103-0.408-1.832-1.937-1.832-1.937l-2.646,1.937-1.322-0.408-2.34,0.916s0,1.321-0.307,0.405c-0.303-0.816-2.44-2.951-2.44-2.951-0.406,0.71-3.153,3.967-3.153,3.967s-0.406,1.732-1.322,0.508c-1.019-1.219-3.154-2.542-3.46-1.524-0.305,1.121-2.236,2.135-2.646,1.832-0.405-0.308-2.645-0.102-2.849,0.508-0.102,0.71-2.544,2.542-2.544,2.542-1.526-0.71-3.969-0.302-3.969-0.302s-0.712,1.118-0.812,2.034l-4.984,1.319h0.004v-0.002z"/>
<path d="m359.69,191.99v-2.138l2.44,1.629,1.425-1.629,1.832,1.83,1.119-1.83v2.952l2.747-2.44,1.626,0.71v-2.34s1.935-3.258,1.12-3.866l1.628-0.508s-2.748-2.748-3.562-3.258c-0.812-0.608-1.932-0.608-1.932-0.608s-2.137-2.14-3.561-2.748c-1.322-0.508-2.138,0.608-2.138,0.608s-0.813-1.626-2.237-1.933c-1.32-0.303-1.32,1.119-1.32,1.119s-1.02-1.018-2.341-1.526c-1.322-0.608-0.407,1.22-0.407,1.22l-4.681-1.422,0.609,1.422-4.373-1.115,0.506,1.627-3.051-0.512-0.203,1.326-4.375,0.812,0.814,1.424-2.747-1.119v1.934l-3.052,1.118,1.119,1.02s-4.068,1.933-4.884,2.543c-0.812,0.508,1.629,1.626,1.629,1.626l-4.375-0.61,1.629,1.426-3.866,3.562,2.746,1.934-1.628,2.44,4.069,0.812,1.628,2.748,3.357-0.61v3.051l4.884-3.865s3.562,3.154,3.866,2.238c0.203-0.814,0.203-3.562,0.203-3.562h1.729v-2.745l1.322,1.118,2.238-3.258,2.949,4.072,2.237-5.188,3.256,0.508,0.006,0.001z"/>
<path d="m379.63,179.68-0.508-4.68-1.423,1.424,0.607-4.375-2.235-0.408,0.812-4.272-1.627-0.816,0.404-2.034,1.629-1.219,2.95-2.85,6.814,0.105,0.813-2.24l4.885,0.815c0.812,0.916,3.355-1.832,3.355-1.832h1.019l1.12,2.134s3.561-0.508,5.188,0.61l-1.934,2.646,3.561,0.304,2.44,0.512,2.544-0.816,3.257-0.206,0.813,1.324h3.053l-1.019,1.219,3.968,1.832-0.812,0.815s2.237,0.814,3.865,0.814h0.813s0.813,1.931-0.307,2.745c0,0,1.12,2.748,3.562,3.258,2.441,0.508,2.441,0.508,2.746,1.117,0.307,0.51,0,3.258-2.746,3.258v2.748s-2.137,1.933-2.441,2.745l-1.629-1.119s-1.422,1.63-1.422,2.748c0,0-3.562-4.682-4.885-4.887-1.424-0.303-1.12,2.647-1.12,2.647l-3.864-3.256-0.509,2.237-3.256-2.745-1.934,1.319-3.46-3.559-3.357,0.408,1.321-1.731h-4.069l-0.812-3.559-0.61,2.949-2.44-1.626-3.154,3.458s-0.406-0.409-0.916-2.036c-0.507-1.628-1.933,1.932-1.933,1.932l-1.12-2.542-1.322,2.542s-1.12-1.932-2.238-2.542c-1.018-0.508-2.135,3.051-2.439,4.681l0.002,0.004z"/>
<path d="m380.24,190.36,0.203-1.626,5.798-2.24,4.885-1.832,2.439-1.118,1.12,1.932,1.424-2.745,2.238,2.847,1.221-1.526,1.932,1.424h1.628l0.305,2.14s4.07,0.303,4.374-0.508c0.305-0.815,0.812,2.745,0.812,2.745l3.865,0.508,0.814,4.375s1.931,4.072,1.322,5.699c-0.51,1.73-2.138-2.136-2.138-2.136s-0.304,3.052-0.609,3.866c-0.203,0.812-5.188-0.814-5.188-0.814l-2.136,4.07s-2.237-3.256-3.255-3.256c-1.12,0-1.12,3.256-1.12,3.256s-3.256-3.867-4.681-5.496c-1.322-1.626-1.628,1.629-1.628,1.629s-2.136-3.562-2.136-4.578c0-1.119-1.934-2.24-1.934-2.24s-3.358,3.867-5.801,4.886c0,0,0.306-2.442-0.507-3.256-0.813-0.815-3.257,1.626-3.257,1.626s-1.729-3.764,0-7.631l0.01-0.001z"/>
</g>
<g fill="none" stroke="#004b00">
<path d="m407.1,129.71,0.509,2.035s1.83-0.408,3.053-0.305c0,0-0.305,1.627-0.712,2.34,0,0,2.441-0.406,3.561,0.304l-0.509,1.219,2.849,1.222-2.645,2.136s4.271,1.524,5.087,2.748c0,0-2.746,1.932-3.154,1.832-0.406-0.206-0.102,0.811,0.61,1.727l-2.341-0.101s0.916,2.138,0.813,2.95c-0.102,0.814-3.866,0.609-3.866,0.609"/>
<path d="m425,142.94s0.712-4.07-0.404-5.088c0,0,2.644,2.24,4.373,2.34,1.832,0.105-0.103-3.357-0.103-3.357s2.544,1.322,3.765,1.627c1.221,0.205-0.916-2.543-0.916-2.543s0.712-1.324,2.746-0.102"/>
<path d="m387.16,119.64s0.1-0.916-0.308-1.424c-2.44-3.358,2.545,2.545,3.561,2.748"/>
<path d="m395.09,120.96s1.628,1.219,2.442,1.219c0.813,0-0.508-3.256-0.916-3.661-0.406-0.408,2.95,1.321,4.172,1.526,1.221,0.303,1.423-2.035,1.423-2.035s3.765,0.609,4.579,1.119"/>
<path d="m380.64,118.42s-0.305-2.136-0.405-3.052"/>
<path d="m355.01,128.6c-0.204-0.408,1.02-2.24,0.509-3.054,0,0,0.712,0.612,1.424,0.714,0.61,0.101,0.404-2.342,0.404-2.342l0.814,0.304s2.137-1.018,1.729-1.832c-0.408-0.812,1.424,1.219,1.424,1.219s1.222-1.219,1.222-1.727c0-0.513,1.422,1.219,1.422,1.219s1.525-0.306,1.525-1.219c0-0.916,1.934,0.303,1.934,0.303s0.812-1.118,0.712-1.832" stroke-width="0.5087"/>
<path d="m347.58,130.53s0.914-2.135-0.103-3.559"/>
<path d="m322.86,137.24c0.103-1.016,0.609-3.764,0.103-4.172-0.508-0.403,1.019,0.408,2.238,0.713"/>
<path d="m334.86,133.38c-1.221-1.223-1.934-1.832-3.864-1.832"/>
<path d="m314.21,140.19c0.306-0.71,0.813-2.441,0.508-3.458"/>
<path d="m340.76,190.66,1.322-2.748,1.628,3.866,1.118-2.442,0.406,0.815,2.441-2.645,2.646,3.968"/>
<path d="m392.75,174.28,1.729-3.458,2.342,1.222,1.12-3.358,2.439,1.526,1.424-3.153,2.747,0.711,0.202-2.238s1.933,1.118,2.442,1.932c0.608,0.816,0-2.745,0-2.745l2.237,1.016s1.628-1.629-0.609-2.545"/>
<path d="m399.57,169.91,2.441,3.562,2.033-2.34,1.832,3.967,2.34-1.424,3.356,1.933,1.525-1.219,3.662,2.645,1.526-3.153,3.256,1.017,2.135-3.661"/>
<path d="m335.78,161.67s1.425-2.4453,0.91601-3.5637c-0.61133-1.1188,2.9492,1.934,2.9492,1.934s0.81249-2.443,0.30469-3.5605c-0.61055-1.1188,4.0703,3.2558,4.0703,3.2558s0.81446-3.764,0-4.5801c-0.81445-0.81406,4.4766,1.1215,4.4766,1.1215s2.1367-0.60897,1.3222-1.7305c-0.81445-1.1184,3.5586,1.6269,3.5586,1.6269s1.0184-2.7445,0-3.7656c-1.1184-1.1172,3.2566,1.3238,3.2566,1.3238l-1.6277-2.9508,3.5605,0.20273-0.30469-3.2562"/>
<path d="m389.8,194.73,2.3398-1.1187,2.0351,2.0348,2.2383-3.5605,2.7461,2.6445,0.40625-2.6445,2.9492,1.223,0.61133-1.6312,3.2551,1.7324,0.3039-2.443,1.6277,0.50977,0.30664-1.6293"/>
</g>
</g>
<g id="shield">
<path fill="#9dd7ff" d="m336.59,310.53c-2.646-4.477-4.681-9.055-6.207-13.531l44.052-38.77,44.055,38.666c-1.526,4.475-3.562,9.26-6.409,13.84l-0.352,0.563c-0.812-0.303-3.312-1.276-3.312-1.276s-1.425,1.324-2.541,1.424c-1.526,0.205-2.849-1.32-2.849-1.32s-1.934,1.627-3.866,1.32c-1.934-0.201-2.748-1.424-2.748-1.424s-2.034,1.629-3.459,1.324c-1.322-0.309-2.238-1.225-2.238-1.225s-1.22,1.529-2.95,1.225c-1.627-0.309-3.153-1.225-3.153-1.225s-2.541,1.117-4.171,1.322c-1.626,0.308-3.052-1.424-3.052-1.424s-2.136,1.424-2.949,1.424c-0.814,0-3.866-1.424-3.866-1.424s-3.154,1.018-4.272,1.018c-1.019,0-4.171-1.321-4.171-1.321s-2.95,0.812-4.271,0.812c-1.426,0-3.459-0.812-3.459-0.812s-2.438,1.119-3.764,0.812c-1.424-0.303-2.544-0.812-2.544-0.812s-2.645,1.119-4.375,0.812c-1.628-0.303-3.561-1.42-3.561-1.42s-0.305,0.812-3.458,1.42h-0.104"/>
<path fill="#fff" stroke="#000" stroke-width="0.7123" d="m374.44,213.66v44.566l-44.053,38.974c-4.272-12.414-4.577-23.504-4.577-28.285v-55.254h48.63"/>
<path fill="#ffd83c" stroke="#000" stroke-width="0.7123" d="m374.44,213.66v44.566l43.951,38.974c4.271-12.414,4.577-23.504,4.577-28.285v-55.254h-48.528"/>
<g id="boat" stroke="#000" stroke-width="0.5087">
<path fill="#730000" d="m346.02,301.27c3.312,1.795,2.19,1.229,9.055,3.66,5.597,1.937,12.106,2.849,21.567,2.849,8.278,0,12.938-0.656,15.56-1.38,2.719-0.78,3.363-1.877,3.363-1.877l-6.814,6.92s-27.394,1.479-32.354-1.729c-1.931-1.019-6.104-4.375-10.376-8.444v0.001z"/>
<g fill="none">
<path d="m386.21,288.35s8.75,4.984,0,14.549"/>
<path d="m346.84,301.78,12.615-12.01-1.424,16.078"/>
<path d="m364.64,307.27v-26.86"/>
<path d="m386.21,307.27v-28.489"/>
<path d="m375.32,307.78v-30.625"/>
</g>
<g fill="#ff0018">
<path d="m364.64,281.84-5.698,1.832,5.698,0.61v-2.442"/>
<path d="m375.32,277.66-6.001,2.24,6.001,0.203v-2.443"/>
<path d="m386.21,279.29-6.002,2.24,6.002,0.303v-2.546,0.003z"/>
<path d="m389.77,292.22c-0.305-1.222,3.562-1.118,3.562-1.118s1.12,4.068,0,6.611l-3.255-0.609s0.305-2.746-0.307-4.884z"/>
</g>
<g fill="#fff">
<path d="m348.77,300.15,0,0,10.683-10.379-0.509,6.207s-5.493,3.559-5.493,6.104l-4.681-1.932"/>
<path d="m354.46,302.29s1.12-3.256,4.171-4.883l-0.305,6.512-3.864-1.629h-0.002z"/>
<path d="m369.83,284.28s4.373-0.61,7.63,0c0,0-0.509,4.375,0,5.188,0,0-6.003-1.425-8.443,0.812-0.001,0-0.815-4.069,0.813-6z"/>
<path d="m360.57,285.4s4.375-0.61,7.629,0c0,0-0.812,4.886-0.305,5.699,0,0-4.885-2.748-7.324-0.512,0,0-1.629-3.355,0-5.187z"/>
<path d="m360.26,291.09s4.374-0.508,7.631,0c0,0-0.509,4.375,0,5.191,0,0-5.698-1.324-8.141,0.812,0.001,0.001-1.119-4.069,0.51-6.003z"/>
<path d="m369.01,290.28s6.308-0.811,9.562-0.303c0,0-1.322,3.561,0.307,6.002,0,0-6.817-1.832-9.361,0.303-0.001,0-2.135-4.069-0.508-6.002z"/>
<path d="m359.76,297.1l8.442,0.609s-0.812,6.207-0.305,7.021c0,0-6.815-1.629-8.141,0.608,0,0-2.238-5.696,0-8.241h0.003v0.003z"/>
<path d="m369.32,297.1s7.322-0.51,10.682,0c0,0-1.936,4.683,0.204,8.75,0,0-9.565-2.744-10.889-0.51,0,0-2.235-5.697,0-8.24h0.003z"/>
<path d="m380.51,284.28s4.373-0.61,7.63,0c0,0-0.507,4.375,0,5.188,0,0-6.002-1.425-8.442,0.812-0.002,0-0.816-4.069,0.812-6z"/>
<path d="m380.51,290.28s4.373-0.508,7.63,0c0,0-0.507,4.375,0,5.189,0,0-6.002-1.322-8.442,0.815-0.002,0.001-0.816-4.071,0.812-6.004z"/>
<path d="m381.02,296.59s4.373-0.607,7.73,0c0,0-1.119,6.817-0.609,7.631,0,0-4.982-2.34-7.324-0.303,0,0-1.423-5.392,0.203-7.328z"/>
<path d="m390.07,297.1s1.422,5.187,3.254,5.799l-2.44,2.951s-2.95-2.137-3.256-4.576c0,0,1.932-2.241,2.442-4.174z"/>
</g>
</g>
<g id="waves" stroke="#000" stroke-width="0.6104">
<path fill="#006ac8" stroke="none" d="m411.88,311.14c-7.019,11.703-18.516,22.689-37.438,29.506-19.229-6.916-30.928-18.414-37.847-30.016l0.103-0.102c3.153-0.613,3.459-1.424,3.459-1.424s1.933,1.119,3.561,1.424c1.729,0.303,4.374-0.814,4.374-0.814s1.119,0.51,2.543,0.814c1.322,0.303,3.765-0.814,3.765-0.814s2.034,0.814,3.458,0.814c1.322,0,4.273-0.814,4.273-0.814s3.153,1.32,4.17,1.32c1.12,0,4.272-1.018,4.272-1.018s3.053,1.426,3.866,1.426c0.812,0,2.95-1.426,2.95-1.426s1.423,1.729,3.051,1.426c1.628-0.203,4.171-1.321,4.171-1.321s1.525,0.916,3.154,1.22c1.729,0.307,2.95-1.22,2.95-1.22s0.916,0.916,2.238,1.22c1.424,0.307,3.458-1.322,3.458-1.322s0.813,1.222,2.748,1.424c1.933,0.306,3.866-1.32,3.866-1.32s1.32,1.525,2.848,1.32c1.12-0.102,2.542-1.424,2.542-1.424s2.544,0.812,3.459,1.121"/>
<path fill="none" stroke-width="0.5087" d="m410.15,313.79c-1.525,0.104-1.729-0.916-1.729-0.916s-2.032,1.731-3.967,1.425c-2.034-0.303-2.95-1.627-2.95-1.627s-2.137,1.73-3.562,1.424c-1.423-0.203-2.439-1.222-2.439-1.222s-1.322,1.528-3.053,1.222c-1.729-0.203-3.257-1.222-3.257-1.222s-2.746,1.122-4.477,1.425c-1.729,0.307-3.153-1.627-3.153-1.627s-3.968,1.324-4.781,1.324c-0.916,0-3.766-1.324-3.766-1.324s-1.932,1.223-3.051,1.223c-1.22,0-4.476-1.426-4.476-1.426s-3.054,0.816-4.478,0.816c-1.425,0-3.561-0.816-3.561-0.816s-2.645,1.119-4.069,0.816c-1.424-0.307-2.544-0.816-2.544-0.816s-2.849,1.119-4.578,0.816c-1.729-0.307-3.765-1.424-3.765-1.424s-0.304,0.709-3.661,1.424h-0.103"/>
<path fill="#5ac800" d="m346.97,317.94s-0.28444,0.66512-2.9375,1.25c-0.0568-0.004-0.71875,0.15625-0.71875,0.15625,0.24453-0.0444,0.44305-0.0788,0.65625-0.125-0.0936,0.0356-0.303,0.11225-0.75,0.25,3,4.334,7.4939,8.268,12.177,11.423,4.6833,3.1547,10.065,6.9209,19.229,9.6085,9.6351-3.7615,12.206-5.1929,18.503-9.4102,6.297-4.5987,9.5783-7.4642,13.09-12.184-2.75,1.562-2.3552,1.58-3.7812,1.375-1.424-0.303-2.4688-1.3438-2.4688-1.3438s-1.3002,1.5488-3.0312,1.3438c-1.729-0.303-3.25-1.3438-3.25-1.3438s-2.26,1.5375-4.5,1.4375c-1.73-0.104-3.1562-1.625-3.1562-1.625s-3.9692,1.3125-4.7812,1.3125c-0.916,0-3.75-1.3125-3.75-1.3125s-1.9445,1.2188-3.0625,1.2188c-1.22,0-4.4688-1.4375-4.4688-1.4375s-3.0448,0.8125-4.4688,0.8125c-1.425,0-3.5625-0.8125-3.5625-0.8125s-2.5375,1.1175-4.0625,0.8125c-1.425-0.303-2.5625-0.8125-2.5625-0.8125s-2.8345,1.1175-4.5625,0.8125c-1.73-0.303-3.7812-1.4062-3.7812-1.4062z"/>
<path fill="#ffd800" d="m374.63,340.51c9.953-4.143,11.751-5.27,17.771-8.951-1.05,0.029-4.104-0.957-2.999-1.272,0,0-1.224,1.103-2.444,1.103-1.12,0-4.375-1.42-4.375-1.42s-3.051,0.811-4.476,0.811-3.561-0.811-3.561-0.811-2.646,1.116-4.07,0.811c-1.425-0.303-2.544-0.811-2.544-0.811s-2.949,1.116-4.577,0.811c-1.729-0.303-3.765-1.424-3.765-1.424s-2.504,1.328-4.076,1.481c4.809,3.522,9.872,6.961,19.116,9.672z"/>
</g>
<g id="weapons" stroke="#000" stroke-width="0.5087">
<path fill="#b34b00" stroke-width="0.509" d="m367.88,259.34c1.977-1.61,3.112-3.159,2.452-4.362-0.743-1.033-1.905,0.646-3.214,0.252,0,0-1.976-1.222-2.515-2.098-1.153-1.281-2.636-2.434-3.49-3.535-0.905-1.021-4.31-5.522-9.492-10.704-1.49-0.972-1.149-4.65-2.217-5.792-0.091-0.796-10.358-10.96-14.022-14.637-1.481-1.09-2.262-1.797-4.865,0.563-2.055,1.854-2.794,3.767-0.098,6.077l13.356,12.144c1.951,1.896,4.676,2.241,5.819,3.223l13.576,13.883c1.709,1.477,2.529,2.524,1.563,3.787-1.073,2.077,0.075,2.357,0.319,2.42,0.156,0.086,1.115,0.084,1.755-0.41l1.073-0.811z"/>
<path fill="none" stroke-width="0.5" d="m334.02,222.92,13.958,13.792"/>
<path fill="#fff" stroke-width="0.5713" d="m352.92,229.22c0.216-0.415,0.688-1.473,1.187-2.627,0.196-0.456,3.951-6.444,5.823-6.62,0,0,11.677,8.495,11.686,8.607,0.039,0.458-5.065,8.093-5.509,7.513-0.002-0.001-13.68-5.743-13.187-6.873z"/>
<path fill="#ccb8c8" stroke="none" d="m360.36,231.22c-1.599-1.242-4.242-2.453-6.375-3.875l-0.958,2c0.771,0.863,10.487,5.381,12.083,6.25,0,0-1.851-2.122-4.75-4.375z"/>
<path fill="none" stroke-width="0.4" d="m353.98,227.09c1.25,0.875,3.625,2.375,5.125,3.25,2.875,2,4.695,4.203,6.75,5.375"/>
<path fill="#782121" d="m330.32,263.48,26.587-32.904c0.498-0.456,2.963-0.481,3.297,2.068l-25.179,34.315c0.001,0-2.868-0.284-4.705-3.479z"/>
<path fill="#730000" d="m419.44,263.84c-0.916,0.715-2.473,0.9-2.473,0.9-1.729-2.035-3.156-4.172-5.597-6.816l-26.555-32.663,2.747-2.645,23.907,27.981c0.712,0.711,4.886,5.088,8.854,10.274,0.002,0.002,0.348,2.032-0.883,2.969z"/>
<path fill="#fff" d="m393.87,229.43-4.274-5.088s-3.255,0.406-3.864,2.138c0,0-2.341,3.867-8.547,4.274,0,0,1.729,7.223,8.953,11.089,0,0,2.646-7.429,5.188-8.752-0.001,0.001,2.644-1.934,2.544-3.661z"/>
<path fill="#730000" d="m383.19,252.02c-0.609-0.205-1.221,0-2.137,0.509-0.812,0.51-1.83,0.304-1.729-0.714,0.102-0.916,0-0.812,1.119-1.524,1.629-0.916,3.765-1.019,5.087-0.51l-2.34,2.239"/>
<path fill="#730000" d="m412.18,223.12c-0.204-0.71-0.405-1.421,0.305-2.337,0.713-0.814,0.713-2.24-1.019-1.528-1.729,0.714-2.339,2.646-0.914,5.597l1.626-1.732h0.002z"/>
<path fill="#fff" d="m382.58,252.63,30.114-29.915,7.425,7.937s-1.524-0.612-2.136-0.206c-0.508,0.408,0.61,1.934,0.61,1.934s-1.424-0.508-2.034-0.102c-0.712,0.405,0,2.136,0,2.136s-1.221-0.916-1.832-0.51c-0.508,0.408,0,2.339,0,2.339s-1.628-0.507-2.033-0.102c-0.408,0.408,0,2.138,0,2.138s-1.629-0.814-2.442,0c-0.812,0.812,0.406,1.934,0.406,1.934s-2.034-0.815-2.848,0.405c-0.813,1.222,0.102,2.34,0.102,2.34s-1.627-0.812-2.033-0.408c-0.407,0.408,0,2.34,0,2.34s-1.424-0.814-2.34,0.206c-0.916,1.119,0.102,2.035,0.102,2.035s-1.321-0.816-2.036-0.411c-0.712,0.411,0.204,2.34,0.204,2.34s-1.321-0.916-2.237,0c-0.916,1.021,0,2.035,0,2.035s-1.12-1.018-2.238,0c-1.019,1.121,0,2.239,0,2.239s-1.626-0.813-2.236,0c-0.712,0.812,0.202,1.935,0.202,1.935s-1.219-0.713-2.033-0.309c-0.812,0.408,0,2.24,0,2.24s-1.22-1.324-1.729-0.609c-0.61,0.711,0.102,2.441,0.102,2.441s-1.12-1.324-1.729-0.609c-0.713,0.609,0.405,2.137,0.405,2.137s-2.034-0.916-1.525-0.916z"/><!--c0.102,0-6.207-7.022-6.207-7.022-->
<g fill="#7e4b7e" stroke="none">
<path d="m410.96,225.16-2.34,2.34,0.508,8.039s0.509-2.34,1.221-0.714c0,0,0.204-1.932,0.712-1.626-0.409-0.206-0.102-8.039-0.101-8.039"/>
<path d="m406.59,229.53-1.729,1.626,0.609,8.039s0.51-3.051,1.22-0.609c0,0-0.102-2.034-0.102-2.748,0.002,0.509,0.002-6.308,0.002-6.308"/>
<path d="m388.38,247.55-1.628,1.727,0.408,4.886s0.508-3.153,1.22-0.714c0,0-0.204-2.031-0.204-2.746,0,0.509,0.204-3.155,0.204-3.155"/>
</g>
<g fill="none" stroke="#7e4b7e" stroke-width="0.9156">
<path d="m386.34,227.4c1.12,1.119,4.274,5.187,4.274,5.187"/>
<path d="m387.77,229.64c-0.202,0.612-0.607,2.34-1.523,3.256"/>
<path d="m388.27,230.04c-0.102,0.406-0.102,1.73-1.523,3.054"/>
<path d="m388.78,230.66c-0.204,0.71-0.305,1.22-0.812,1.731"/>
<path d="m389.09,231.27c0,0.508-0.303,0.61-0.405,0.916"/>
<path d="m385.33,229.33c-0.406,0.405-3.358,2.338-4.985,2.95"/>
<path d="m384.51,230.45c-0.406,0.408-2.238,1.832-3.256,2.24"/>
<path d="m384.21,231.67c-0.609,0.41-1.628,1.424-2.441,1.73"/>
<path d="m383.6,232.89c-0.406,0.508-1.018,0.916-1.525,1.222"/>
<path d="m365.94,234.01c0.332-0.613,0.911-1.816,1.667-2.917,0.959-1.397,1.372-1.633,1.875-2.125" stroke-linecap="square"/>
</g>
</g>
</g>
<g id="supporters">
<path fill="#289400" stroke="#060" stroke-width="0.5087" d="m267.72,316.03c1.526,0.711,0-4.987,0.507-7.123,0.61-2.238,4.984,5.494,7.123,6.514,2.238,1.118,15.87-5.395,15.87-5.395l3.256-6.104,1.73,4.985s3.763-4.375,4.883-6.002c1.119-1.627,0,3.257-1.12,4.884-1.12,1.629,3.256,2.239,2.746,5.495-0.508,3.257,4.375-2.239,4.375-2.239l12.615,1.119s2.135-7.632,5.493-12.007l1.018,4.887,5.188-5.29c5.799,15.263,18.009,31.849,43.035,40.903,23.501-8.547,35.608-23.709,41.913-38.159l7.021,7.228s5.494-1.631,6.511-2.238c1.118-0.51,12.92,4.172,12.92,4.172s2.136,0.814,3.256,1.63c1.118,0.812,0.304-3.563,0.304-3.563s6.003,1.118,5.493,4.375c0,0,1.322-3.051,2.442-3.56s3.763,2.748,4.375,3.866c0.508,1.02,13.43,2.646,15.26,3.765,0,0,1.425,1.63,1.425,2.748,0,0,2.748-0.306,4.885-0.306,0,0-1.628,0.811-1.628,2.543,0,1.629-0.814,2.953-2.442,3.764-1.628,0.816,0,1.424,2.137,1.63,2.238,0.304,0,3.052-4.375,4.683,0,0-1.018,2.439,0.814,3.252,0,0-3.766,0.308-4.375-0.812,0,0-1.32,2.543-1.32,3.867,0,0-4.069-1.324-5.188-1.933,0,0-1.629,1.625-0.51,2.439,0,0-7.425-0.811-8.851-3.559,0,0-2.646,0.813-2.137,1.729,0,0-5.188-3.56-6.815-3.56l-1.119,1.828s-3.561-2.135-4.681-2.135c-1.02,0-0.204,1.627-0.204,1.627l-4.983-3.053-1.933,3.053s-4.07-1.935-5.188-2.746c-1.019-0.813-1.32,1.627-2.136,1.931,0,0-1.628-2.235-3.866-1.931,0,0-0.813,2.746-0.508,3.561,0,0-6.308-1.322-7.426-1.63-1.12-0.304-0.508,1.323,0,2.444,0,0-4.681-1.323-5.698-2.139l-0.305,2.139s-3.864-0.307-4.679-1.121l-2.442,3.356h-3.561l-0.812,2.95s-6.815-1.93-7.427-0.811c-0.508,1.117,0.306,2.744,0.306,2.744l-6.002-0.812-0.507,2.441s-6.919-2.138-8.547-1.121c0,0-2.137,2.24-3.562,2.748-1.319,0.61,0-0.814,0-0.814l-2.135-2.949s-2.441,1.322-3.866,0.814c-1.321-0.613-5.697,2.135-7.123,1.32,0,0,0-1.935-1.117-2.442-1.019-0.509-2.95-0.509-3.766,0.815,0,0-0.812-1.121-2.237-3.257-1.322-2.239-3.257,0.203-3.257,0.203l-0.305-2.646-3.765-0.307c-2.238-0.305-2.746-2.24-2.746-2.24s-5.799,0.611-6.613,0.308l1.423-1.324s-7.935,1.632-9.562,1.021c-1.73-0.508,1.832-2.748,1.832-2.748s-7.327-1.828-8.751-2.135c-1.321-0.305-9.258,1.318-10.378,1.318-1.119,0-1.628-1.832-1.628-1.832s-1.935,1.631-3.562,2.141c0,0-1.322-3.256-0.507-3.563,0,0-5.188,1.424-5.494,2.748,0,0-1.322-2.136-1.12-3.052,0,0-2.441,3.867-3.561,4.679-1.12,0.815-0.204-1.933-0.204-1.933s-3.05,3.865-4.17,4.172v-2.748s-8.751,4.681-11.191,4.072c0,0,0-1.936,0.813-2.442l-5.494-0.306c-1.32-0.203-2.949-0.812-4.373-1.119-1.322-0.205,1.933-1.627,4.171-1.018,0,0-6.104-2.238-7.937-1.121,0,0-0.814-2.236,2.44-3.052,0,0-4.172-4.069-6.614-3.765,0,0,2.748-1.627,4.986-0.815,0,0-2.544-6.917-4.172-7.731,0,0,5.8-1.018,7.427-0.201l0.002-0.002z"/>
<g id="axe">
<path fill="#730000" stroke="#000" stroke-width="0.5087" d="m259.27,196.67,74.064-38.361c0.355-1.982-0.771-3.54-1.932-5.088-21.18,10.387-40.456,22.992-63.992,30.628-1.322,0.51-13.022,5.393-19.025,12.619-1.903,1.908-2.043,4.724-2.043,4.724s0.146,3.231,0.825,4.104c0,0,0.176,0.887,1.282,1.596-0.012,0,0.684,0.341,1.166,0.169,0.538,0.101,1.413,0.094,2.635-2.045,1.222-2.037,5.189-6.716,7.02-8.346z"/>
<path d="m318.89,158.72,9.562-4.58s3.257,2.442,2.951,5.19c0,0,0.712,6.307,8.547,10.682,0,0-6.615,8.241-18.211,8.955,0,0,1.33-10.876-1.11-14.032,0,0-0.406,0.389-0.23-0.15,0.347-1.058-0.235-4.688-1.72-5.487-0.181-0.099,0.118-0.396,0.211-0.578z" stroke="#000" stroke-width="0.50870001" fill="#FFF"/>
<g fill="none" stroke="#7e4b7e" stroke-width="0.8139">
<path d="m330.08,160.04c-2.034,0.814-8.647,4.272-8.647,4.272"/>
<path d="m326.93,162.07c-0.103,1.017-0.713,3.459,0,5.189"/>
<path d="m326.01,162.38c0,0.508-0.813,2.34,0.103,4.783"/>
<path d="m325,162.89c-0.204,1.021-0.406,1.63,0,2.751"/>
<path d="m324.18,163.5c-0.203,0.609,0,0.916,0,1.321"/>
<path d="m330.18,163.19c0.304,0.812,3.052,5.086,4.68,6.816"/>
<path d="m330.59,165.12c0.307,0.814,1.832,3.765,2.951,4.886"/>
<path d="m330.39,166.85c0.406,1.018,1.221,2.85,2.034,3.866"/>
<path d="m330.39,168.89c0.204,0.815,0.61,1.832,1.221,2.546"/>
</g>
</g>
<g id="paddle" stroke="#000" stroke-width="0.5087">
<path fill="#b34b00" d="m398.22,154.46,27.207,13.322c5.451,2.65,7.411,0.202,10.487,1.539l53.694,27.351c4.606,2.012,7.185,2.656,6.523,5.039-0.112,3.786,1.79,3.843,2.31,3.883,0.376,0.101,2.191-0.165,2.949-1.172,0.568-0.656,0.589-0.724,0.589-0.724,0.608-0.608,0.498-0.663,0.687-0.934,2.258-3.249,3.509-6.065,1.146-7.905-2.702-1.266-3.013,1.607-5.858,1.304,0,0-5.087-1.933-6.919-3.256-3.374-1.837-8.084-4.015-9.155-5.211-3.428-0.642-29.233-15.157-43.852-22.442-1.568-1.313-2.422-6.166-5.503-7.79-0.904-1.312-20.694-10.347-31.043-15.52-3.814-1.425-5.949-2.401-8.697,2.28-2.398,4.59-1.815,7.094,5.435,10.236z"/>
<path fill="none" d="m400.52,148.76,30.458,15.208"/>
</g>
<g id="white_man" fill="#ffa54b" stroke="#000" stroke-width="0.5087">
<path fill="url(#white_skin)" d="m309.73,165.12c-0.203,0.61-0.712,0.203-0.712,0.408-0.405,2.135-0.305,3.253-0.813,4.475-0.712,1.424-3.256,2.748-3.154,2.645-2.034,0.609-4.475,3.054-8.442,0.814-0.204-0.101-0.406-0.306-0.61-0.508,0,0,1.117,4.169-2.95,6.204-1.424,0.713-15.77,8.244-15.77,8.244s-1.526,2.748-0.509,6.512c0.103,0.61,0.305,1.118-0.305,1.526-0.916,0.71-2.646,2.748-3.662,6.004,0,0-3.053-1.324-3.053-3.256,0-1.934,1.221-2.951,1.526-4.378,0.304-1.321,1.117-4.679,0.712-5.698-0.406-1.119-2.238-1.526-2.95-1.933-0.61-0.408-1.425,0.406-1.322,1.322,0.103,1.018,0.813,0.812,1.628,1.018,0,0-0.916,1.932-0.813,3.356l-9.258,4.783s1.22,1.626,1.627,2.34c0.405,0.712,1.321,10.175,4.069,14.653,2.747,4.477,3.663,3.256,4.273,3.866,0.508,0.508,1.321,1.321,2.034,1.934,0.712,0.508,3.865,0.811,4.477-0.916,0.712-1.631,1.22-2.647,3.154-4.174,1.933-1.524,5.899-5.391,5.899-7.123,0,0,2.34,6.716,2.034,12.313,0,0,8.546,1.731,16.177,1.932,7.632,0.105,11.497-1.524,11.497-1.524s1.018-6.409,0.608-7.631c0,0,1.221,4.172,2.137,5.596,1.019,1.727,2.136,5.288,4.374,5.493,2.137,0.101,3.969-2.135,4.171-3.051v-6.716h8.647c0-0.101,3.866,1.424,5.086,1.22,1.221-0.102,1.933-1.22,0.813-1.628l-0.405-0.303c1.117,0,2.543,0.71,2.543,0.71h4.271c0.103-0.101,0-0.408-0.103-0.508-0.305-1.222-2.544-2.24-4.17-2.95-1.629-0.609-3.459-1.324-4.681-1.424-1.932-0.206-3.256-0.101-6.206,0.408-0.813,0.101-3.865,0.405-5.799,1.321-0.509,0.306-1.019,0.406-0.813-0.916,0.306-1.426,0.204-7.835-1.32-10.583-1.12-1.932-1.018-3.562-0.814-5.188,0.104-1.63,0.204-7.225,0-8.854-0.306-1.627-2.544-3.867-6.611-4.375-3.866-0.511-7.123-3.664-7.325-6.207-0.305-2.542,0.408-7.223,0.814-9.257"/>
<g fill="none">
<path fill="url(#white_skin)" d="m292.44,153.63c-0.712,3.253-0.712,6.104-0.609,9.257,0.102,2.135,1.118,4.577,2.034,6.715,0.609,1.426,1.425,3.052,2.746,3.867,3.562,2.34,6.919-0.203,8.852-1.017,0.916-0.308,2.341-1.626,2.747-2.442,0.508-1.219,0.303-2.135,0.812-4.475-0.103,0.1,0.813-0.408,0.712-0.408,0.916-1.526,0.712-2.034,1.221-3.054,0.509-1.018-0.609-2.136-1.832-1.931,0.609-1.933,1.019-4.072,0.405-5.904-0.202-0.608,0.51-2.235-0.608-1.832-4.579,1.832-9.97,1.426-14.854,1.426-0.406,0-0.712-0.815-1.321-0.71-0.103,0-0.204,0.303-0.307,0.505"/>
<path fill="#000" d="m292.03,155.35c-0.508-0.406-0.61-1.319,0-3.256,0.712-1.929,0-2.034,1.119-3.153,1.12-1.12,0.814-1.629,1.526-1.932,0.712-0.206,2.849-0.206,3.562-0.508,0.609-0.308,1.525-0.714,2.947-0.916,1.526-0.308,4.579-0.206,6.003,0.608,1.526,0.812,2.544,2.85,3.46,3.561,1.02,0.71,1.63,3.661,1.426,7.938-0.307,4.272-1.12,3.458-1.12,3.458s-1.222-2.034-2.238-0.308c0,0,0-1.626,0.204-2.848,0.102-1.219-0.61-3.458,0.102-4.985,0,0-5.8,1.832-8.751,1.729-3.051-0.202-7.322-0.916-7.526-1.626l-0.714,2.238"/>
<path fill="#fff" stroke="#fff" d="m294.98,151.8c-0.305-0.61-1.832-2.85-0.609-3.561,1.12-0.612,0.406,2.745,1.935,3.458,0,0-0.509,1.526-1.321,0.102l-0.005,0.001z"/>
<path d="m298.34,160.14c-0.508,1.732-0.712,2.138-0.916,3.156"/>
<path d="m308.01,164.92c0.204,0.61,0.404,0.303,0.914,0.405"/>
<path d="m309.33,161.36c0.509-0.609,1.221-0.303,0.813,1.223"/>
<path d="m292.44,157.7c0.916,0.303,1.832,0.608,2.748,1.02,1.526,0.61,0.61,2.845,0.204,4.271-0.204,0.714-1.019,1.933-0.609,2.546,0.508,0.811,1.119,0.303,2.035,0.403,0-0.303,0.609-0.508,0.813-0.508,0.712-0.1,1.12,0.508,1.627,0.308,0.61-0.308,0.51-1.224,0.306-1.731"/>
<path d="m299.46,159.53c0.102-0.403,1.018-0.811,1.526-0.915,2.136-0.405,3.661-0.712,5.393,0.511"/>
<path d="m300.68,170.21c-1.729,0.408-3.561,0.71-5.188-0.206"/>
<path d="m295.49,169.2c0.813-0.408,1.12-0.816,2.137-0.308,0-0.101,1.12-0.405,1.12-0.405,0.812,0,1.322,0.304,2.136,0.812"/>
<path d="m295.39,169.6c0.916-0.306,3.358-0.306,5.394,0.102"/>
<path fill="#fff" stroke-width="0.3052" d="m292.34,160.14c0.713-0.1,1.526-0.916,3.154,0.306,1.12,0.712-1.832,1.426-1.322,1.324-1.32,0.202-1.729-0.508-1.828-1.122,0-0.202-0.204-0.508,0-0.508h-0.004z"/>
<path fill="#fff" stroke-width="0.3052" d="m300.68,160.95c0.712-1.426,1.832-1.119,2.849-0.816,1.019,0.306,0.713,0.105,1.629,0.613-1.12,0.203-0.814,0.303-1.629,0.71-0.916,0.408-1.729,0.61-2.341,0.206-0.204-0.206-0.712-0.508-0.712-0.916-0.001,0.101,0.102,0.203,0.204,0.203z"/>
<path fill="#000" stroke-width="0.3052" d="m293.76,161.36c0.406,0,0.712-0.406,0.712-0.814,0-0.508-0.306-0.916-0.712-0.916-0.507,0-0.812,0.408-0.812,0.916,0,0.408,0.303,0.814,0.812,0.814z"/>
<path fill="#000" stroke-width="0.3052" d="m302.41,161.56c0.405,0,0.712-0.403,0.712-0.916,0-0.508-0.407-0.811-0.813-0.811-0.405,0-0.712,0.303-0.712,0.811-0.001,0.514,0.407,0.916,0.813,0.916z"/>
</g>
<g id="body" stroke="#000" stroke-width="0.5087">
<g fill="none">
<path d="m345.85,213.66c-0.608-0.714-1.018-1.02-1.83-1.324-0.609-0.303-1.424-0.71-2.036-1.016-0.712-0.408-1.729-0.508-2.34-0.916"/>
<path d="m340.05,213.05c-0.306-0.203-0.508-0.304-0.812-0.51-0.306-0.101-0.712-0.101-1.02-0.203-0.102,0-0.102-0.204-0.203-0.204-0.915-0.102-1.831-0.51-2.44-1.321"/>
<path d="m272.8,201.45c0.914,0.71,3.152,2.24,3.356,5.19,0.204,1.525,1.019,3.051,1.019,3.051"/>
<path d="m264.05,201.86c0.51,1.727,0.61,7.425,6.003,13.43"/>
<path d="m265.07,193.92c-0.408,1.119-0.916,2.137,0.202,2.951"/>
<path d="m279.72,207.56c1.12-2.545,4.578-2.342,4.578-4.782"/>
<path d="m284.81,207.25c-0.306-2.849-0.916-4.475-0.405-8.647,0.203-1.223,0.405-5.9,0-8.141,0,0,1.629,7.833-3.662,9.363"/>
<path d="m315.13,212.34c0-3.97,0.916-6.209,0.916-6.209,1.221-5.593-1.119-7.731-0.203-9.155,0.812-1.221,2.035-3.766,0.407-8.854,0,0,2.847,10.484-4.478,10.484-7.425,0-7.121-2.748-7.121-2.748"/>
<path d="m284.4,190.46c0,2.135,0,8.447,9.055,8.447,2.746,0,5.698-1.933,7.324-3.256"/>
<path d="m303.02,192.9c-0.306-1.934-0.306-4.375-0.306-6.92"/>
<path d="m289.08,182.53c2.441-0.308,4.376-0.61,8.955-0.61"/>
<path d="m298.34,175.6c0.509,2.24-0.304,5.8,3.866,6.309"/>
<path d="m306.58,174.79c-0.61,1.629-0.61,3.256-0.814,4.375"/>
<path d="m305.97,181.92c1.73,0,4.985-1.121,9.054-0.306"/>
<path d="m316.45,204.4c0.813,1.63,1.018,3.765,3.561,6.207"/>
<path d="m288.27,199.21c0.204,1.324-1.729,5.698-0.306,9.262,1.322,3.559,1.12,7.631-1.12,11.089"/>
<path d="m293.46,200.54c-0.813,1.626-2.238,3.256-2.544,4.68"/>
<path d="m297.52,203.59c0,1.018-2.744,8.749-4.68,10.886,0,0,3.561,1.424,3.051,6.614"/>
<path d="m303.22,200.03c0,1.324-0.204,1.63,0.916,2.44"/>
<path d="m306.58,202.47c1.32,1.628,5.492,6.514,4.576,9.259"/>
<path d="m303.83,205.22c0.306,1.018,0.306,6.309-0.61,8.955"/>
<path d="m301.09,213.97c-1.12,0-2.746,0.814-3.052,2.747"/>
<path d="m306.78,213.66c1.118-0.306,3.355,1.626,3.355,7.123"/>
<path d="m325.81,210.51c-2.136,0.61-3.052,1.732-2.44,1.119-1.12,0.916-2.138,1.526-2.138,1.526"/>
</g>
<path fill="#000" stroke-width="0.3052" d="m289.79,197.99c0.608,0,1.118-0.408,1.118-0.916,0-0.411-0.507-0.816-1.118-0.816-0.509,0-1.02,0.405-1.02,0.816,0,0.505,0.508,0.916,1.02,0.916z"/>
<path fill="#000" stroke-width="0.3052" d="m312.89,198.3c0.51,0,1.02-0.405,1.02-0.916,0-0.505-0.508-0.811-1.02-0.811-0.607,0-1.118,0.306-1.118,0.811-0.001,0.511,0.51,0.916,1.118,0.916z"/>
<path fill="#fff" d="m280.54,239.81c1.22-7.937,4.985-14.551,5.086-15.162,0,0,3.865,0.816,10.58,1.424,6.612,0.71,8.444,0.408,11.496,0.202,2.949-0.303,6.815-0.811,6.815-0.811s1.221,2.44,1.322,4.883c0.305,5.188,2.236,27.677,2.439,33.679,0,0,0.814,3.562,0.814,12.312,0,9.567,2.645,28.999,2.645,39.381l-2.645,0.51s-14.446,1.119-14.446-0.814c0-2.135-0.813-27.066,1.322-42.126,0,0-0.508-2.95-1.322-5.496-0.813-2.442-4.375-10.073-4.375-11.698,0,0-5.695,16.072-6.001,18.824-0.304,2.543-1.12,38.357-1.628,41.312,0,0-8.241,6.308-9.36,6.92-1.118,0.509-9.054-3.36-9.258-4.375-0.306-1.118,0.814-13.229,4.578-33.176,1.425-7.123,0.61-8.44,0.61-10.375,0-1.934,0.103-27.474,1.322-35.412l0.006-0.002z"/>
<g fill="none">
<path d="m294.27,274.92c-0.609,2.24-1.628,4.375-3.559,5.803"/>
<path d="m287.96,227.09c-0.304,1.322-2.238,7.325-7.122,10.887"/>
<path d="m295.08,228.21c-1.12,3.562-5.493,22.693-6.309,45.383"/>
<path d="m288.47,280.72c-0.204,2.135-1.322,18.012-1.628,20.756"/>
<path d="m286.03,304.53c-0.509,1.117-2.746,10.375-2.746,18.619"/>
<path d="m315.53,287.23c-0.204,1.933-1.019,15.668,3.561,27.98"/>
<path d="m300.58,229.23c-0.305,2.237-0.813,16.688-0.813,17.806,0,1.117,1.628,2.747,2.441,3.054,0,0-1.628,0.509-1.933,6.003"/>
<path d="m296.2,243.17c-0.308,1.727-1.934,8.547-3.054,11.295"/>
<path d="m306.27,229.03s4.884,1.018,5.188,0c0,0,1.628,29.512,3.866,45.891"/>
<path d="m304.14,232.79c0,1.934-0.609,16.485-0.609,16.485"/>
<path d="m305.97,251.41s1.931,2.745,1.425,4.066"/>
<path d="m289.59,227.4c1.629,0.508,3.053,0.812,3.053,0.812"/>
<path d="m297.83,229.84c-0.307,0.814-0.61,4.58-0.61,4.58"/>
<path d="m305.97,273.29c0.61,0.814,1.425,1.936,0.814,4.377"/>
</g>
<path fill="#9b5f00" d="m284.91,224.45s0-3.256,1.22-4.886c0,0,3.457,0.714,8.342,1.222,4.984,0.508,8.951,0.916,12.615,0.508,3.663-0.406,7.428-1.322,7.428-1.322s1.017,4.784,0.506,5.496c0,0-3.968,0.814-8.341,1.016-4.477,0.303-11.902-0.408-14.445-0.812-3.359-0.408-6.31-1.02-7.325-1.222z"/>
<path fill="#fff" d="m288.06,224.85,0.608-4.883,1.019,0.1-0.203,5.088-1.424-0.305"/>
<path fill="#fff" d="m310.14,220.78,0.103,5.496,1.221-0.206-0.102-5.597-1.222,0.307"/>
<path fill="#fff" d="m294.47,220.78-0.406,5.291h0.713l0.712-5.291h-1.019"/>
<g>
<path d="m276.77,320.81c-0.305,1.322-0.812,3.154-1.018,5.496,0,0.508-0.507,3.256,1.018,3.356,1.12,0.103,1.425-2.849,1.425-2.849s-1.019,3.256,0.305,3.664c1.832,0.403,2.034-3.562,2.034-3.562-0.204,1.119-1.425,3.969,0.306,4.271,1.831,0.307,2.339-3.867,2.339-3.867s-1.525,4.174,0.305,4.275c1.729,0.1,1.729-4.072,1.729-4.072s-0.916,4.988,1.526,4.58c1.321-0.203,1.628-1.934,1.933-2.951,0.406-1.524,1.322-3.457,0.204-6.612-0.812-2.341-0.507-2.951-0.507-2.951s-2.85,2.138-5.087,3.562c-1.019,0.609-6.514-2.34-6.514-2.34z"/>
<path d="m306.48,316.43c-0.508-0.307-0.406,1.832-0.609,2.846-0.103,1.021,0.204,3.257,3.663,3.055,3.355-0.307,6.715-1.018,8.851-0.509,2.137,0.61,5.289,0.711,7.021,0.711,1.729,0,2.849-0.202,3.661-0.509,0.713-0.303,2.238,0.408,2.95,0.408,0.713,0,1.831-1.119,1.73-1.832-0.103-1.324-1.322-1.324-3.054-1.424-1.628-0.203-3.865-0.511-4.983-0.916-1.12-0.408-3.154-1.527-5.698-2.035,0,0-4.883,0.205-5.898,0.205-1.019,0-7.022,0.303-7.634,0z"/>
</g>
</g>
<g fill="none">
<path fill="#ffb366" d="m255.71,189.85c-0.507,0.306-1.12-2.035,0.406-2.951,0,0,0.406-1.931,2.035-2.136,0,0,1.321-1.832,3.257-1.626,0,0,2.235-1.525,3.051-1.324,0.812,0.102,2.849,2.136,2.95,2.85,0.204,0.711,0,1.933-0.511,2.442-0.609,0.608-1.018-0.102-1.119-0.916,0,0,0.407,1.524-0.813,2.135-1.219,0.714-1.119,0.206-1.219-0.61,0,0-0.308,1.63-1.12,1.832-0.814,0.305-1.322-0.408-1.935-0.408,0,0,1.019,0.816,0.307,1.426-0.713,0.508-1.526,0.303-2.036-0.102-0.509-0.508-1.12-1.832-3.257-0.61l0.004-0.002z"/>
<path d="m265.68,186.09c-0.51-1.629-2.137-3.054-4.069-2.848"/>
<path d="m263.85,187.61c-0.306-0.408-0.408-0.816-0.712-1.22-0.916-1.528-2.849-1.424-4.477-1.832"/>
<path d="m261.1,189.14c-0.609-0.406-0.813-1.222-1.425-1.524-1.018-0.408-2.034-0.916-3.255-0.714"/>
</g>
</g>
<g id="black_man" stroke="#000" stroke-width="0.5087">
<path fill="url(#black_skin)" d="m439.14,165.12c0.712-0.306,0.51,0.61,0.61,0.916,0.306,1.321,0.306,2.748,0.813,3.967,0.608,1.119,0.812,1.526,1.83,2.035,1.627,0.916,6.407,3.562,9.767,1.424,0.204-0.101,0.508-0.306,0.712-0.508,0,0-1.221,4.172,2.95,6.207,1.321,0.71,15.668,8.241,15.668,8.241s1.525,2.748,0.609,6.512c-0.204,0.61-0.405,1.118,0.204,1.526,1.019,0.71,2.644,2.748,3.766,6.004,0,0,2.947-1.324,2.947-3.256,0-1.934-1.219-2.951-1.525-4.375-0.202-1.324-1.017-4.682-0.608-5.698,0.405-1.118,2.135-1.526,2.847-1.936,0.714-0.408,1.526,0.406,1.322,1.322-0.102,1.018-0.812,0.816-1.628,1.018,0,0,1.02,1.932,0.814,3.356l9.358,4.783s-1.221,1.629-1.628,2.34c-0.509,0.715-1.425,10.175-4.171,14.653-2.748,4.477-3.663,3.256-4.171,3.866-0.61,0.508-1.424,1.324-2.137,1.934-0.608,0.508-3.764,0.814-4.476-0.916-0.712-1.628-1.221-2.647-3.153-4.174-1.934-1.524-5.9-5.391-5.9-7.123,0,0-2.341,6.719-2.035,12.313,0,0-8.443,1.731-16.176,1.936-7.631,0.102-11.497-1.528-11.497-1.528s-1.018-6.409-0.61-7.631c0,0-1.22,4.172-2.033,5.596-1.118,1.727-2.236,5.291-4.375,5.493-2.236,0.104-3.968-2.135-4.271-3.051v-6.716h-8.646c0-0.101-3.766,1.424-5.087,1.223-1.221-0.105-1.832-1.223-0.813-1.631l0.407-0.303c-1.119,0-2.544,0.71-2.544,0.71h-4.272c0-0.101,0.103-0.408,0.103-0.508,0.307-1.219,2.545-2.24,4.272-2.95,1.628-0.609,3.356-1.324,4.578-1.424,1.933-0.203,3.256-0.101,6.206,0.408,0.812,0.101,3.967,0.408,5.798,1.322,0.508,0.304,1.118,0.405,0.813-0.915-0.305-1.426-1.221-5.598,0.307-8.346,1.018-1.933,0.916-3.559,0.813-5.189-0.204-1.729-1.118-5.598-1.118-7.325,0-5.699,4.375-8.039,8.24-9.262,4.272-1.319,7.121-2.748,6.92-5.288-0.104-2.646,0.608-7.021,0.202-9.058"/>
<g fill="none">
<path fill="url(#black_skin)" d="m456.34,153.63c0.916,3.356,1.12,4.169,1.12,5.291,0,1.219-0.509,1.424-0.104,2.748,0.713,2.441-0.712,5.088-2.441,7.937-0.813,1.32-1.424,3.052-2.746,3.866-3.356,2.135-7.427-0.408-9.563-1.327-1.117-0.505-1.729-1.319-2.033-2.135-0.407-1.219-0.509-2.34-0.813-3.967,0-0.306,0.103-1.219-0.609-0.916-1.22-1.424-1.018-2.034-1.524-3.051-0.509-1.021,0.916-2.139,2.034-1.934-0.61-1.933-0.916-4.072-0.306-5.904,0.204-0.608-0.508-2.235,0.51-1.832,4.577,1.832,9.969,1.426,14.854,1.426,0.404,0,0.71-0.812,1.32-0.71,0.098-0.001,0.2,0.305,0.301,0.508"/>
<path fill="#000" d="m456.75,155.35c0.508-0.406,0.204-2.34-0.306-4.375-0.203-1.017-1.018-1.424-2.136-2.542-1.12-1.122-1.525-1.122-2.236-1.424-0.609-0.206-2.034-0.206-2.746-0.508-0.61-0.308-2.238-0.105-3.766,0.101-2.036,0.304-3.153,0.202-4.679,1.018-1.526,0.814-2.746,1.73-3.256,3.256-0.406,1.118-1.12,2.542-0.814,6.817,0.204,4.272,1.019,3.458,1.019,3.458s1.12-1.628,1.832-0.61c0,0-0.103-2.24-0.305-3.561-0.103-1.222,0-2.748,0.509-4.58,0,0,4.679,1.732,9.054,1.732,3.053,0,7.021-0.306,7.123-1.017l0.71,2.235h-0.003z"/>
<path d="m450.44,160.14c0.61,1.732,0.104,1.222,0.408,2.34"/>
<path d="m440.57,164.51c0,0.812-0.61,0.61-1.019,0.61"/>
<path d="m456.85,158.82c-0.916-0.713-2.645-0.204-3.46,0.102-1.525,0.71-0.712,2.24-0.204,3.664,0.204,0.71,1.02,1.727,0.511,2.441-0.407,0.812-0.713,0.408-1.629,0.51,0.104-0.308-0.812,0-1.117,0-0.61-0.102-0.916,0.403-1.426,0.202-0.608-0.304-0.508-1.22-0.306-1.729"/>
<path d="m449.32,159.53c0-0.403-1.321-0.811-2.745-0.915-2.238-0.102-2.442,0.104-4.172,1.322"/>
<path d="m453.9,168.89c-0.405-0.608-1.018-0.916-2.137-0.405,0-0.204-1.524-0.406-1.524-0.406-0.812,0-1.321,0.303-2.136,0.71"/>
<path d="m453.69,169.4c-0.916-0.609-3.256-0.201-5.596-0.201"/>
<path d="m448.3,170.01c1.73,0.512,3.46,0.816,5.188,0"/>
<path fill="#fff" stroke-width="0.3052" d="m456.44,160.14c-0.712-0.1-1.018-0.916-3.153,0.306-1.119,0.61,1.832,1.426,1.425,1.324,1.22,0.202,1.628-0.508,1.729-1.122-0.001-0.203,0.203-0.508-0.001-0.508z"/>
<path fill="#fff" stroke-width="0.3052" d="m448.1,160.95c0-0.816-1.829-1.119-2.847-0.816-1.019,0.306-0.61,0.105-1.526,0.613,1.02,0.203,0.712,0.303,1.526,0.71,0.914,0.408,1.12,0.814,2.339,0.206,0.306-0.105,0.712-0.508,0.813-0.916-0.101,0.101-0.202,0.203-0.305,0.203z"/>
<path fill="#000" stroke-width="0.3052" d="m455.12,161.36c-0.508,0-0.813-0.406-0.813-0.814,0-0.508,0.307-0.916,0.813-0.916,0.405,0,0.712,0.408,0.712,0.916,0,0.408-0.307,0.814-0.712,0.814z"/>
<path fill="#000" stroke-width="0.3052" d="m446.37,161.56c-0.406,0-0.712-0.403-0.712-0.916,0-0.508,0.403-0.811,0.812-0.811s0.712,0.303,0.712,0.811c0,0.514-0.303,0.916-0.812,0.916z"/>
</g>
<use xlink:href="#body" fill="#730000" transform="matrix(-1,0,0,1,748.81578,0)"/>
<g fill="none">
<path fill="#730000" d="m491.64,193.51c0.508,0.206,1.934-2.033,0.508-3.051,0,0-0.508-1.932-2.136-2.034,0,0-1.322-1.933-3.257-1.63,0,0-2.136-1.524-2.948-1.421-0.916,0.202-2.951,2.237-3.053,2.95-0.102,0.609,0,1.832,0.508,2.441,0.61,0.51,1.02-0.104,1.119-1.02,0,0-0.405,1.529,0.813,2.24,1.221,0.71,1.119,0.1,1.221-0.71,0,0,0.306,1.626,1.12,1.932,0.812,0.303,1.321-0.408,1.934-0.408,0,0-1.018,0.815-0.305,1.324,0.713,0.61,1.525,0.303,2.035-0.104,0.61-0.404,0.306-1.727,2.441-0.509z"/>
<path d="m482.49,189.75c0.506-1.73,2.235-3.153,4.067-2.849"/>
<path d="m484.42,191.28c0.203-0.411,0.305-0.816,0.61-1.224,0.915-1.524,2.948-1.524,4.576-1.832"/>
<path d="m487.06,192.7c0.61-0.408,0.814-1.118,1.426-1.421,1.018-0.512,2.136-0.916,3.256-0.714"/>
<path fill="#730000" stroke="none" d="m482.31,186.77c-0.896,0.716-1.837,1.798-1.906,2.281-0.103,0.61-0.008,1.827,0.5,2.438,0.551,0.461,0.949-0.017,1.095-0.781-0.059,0.463-0.071,1.465,0.844,2,1.22,0.71,1.118,0.095,1.219-0.719,0,0,0.312,1.635,1.125,1.938,0.813,0.306,1.325-0.406,1.938-0.406,0,0-1.026,0.804-0.312,1.312,0.712,0.61,1.522,0.309,2.031-0.094,0.61-0.408,0.3-1.722,2.438-0.5,0.267,0.106,0.804-0.452,1.031-1.156l-7.688-5.531-2.315-0.782z"/>
<path d="m480.68,188.19c-1.502,2.582,0.5,4.132,1.164,2.619-0.193,2.386,1.606,2.292,2.285,1.538,0.658,2.512,1.83,1.395,2.909,1.164-1.223,2.29,1.479,1.609,2.12,1.081,0.924-1.362,1.356-0.277,2.036-0.416l1.164-1.247"/>
<path d="m484.38,187.23c-1.686,0.896-2.512,2.137-2.535,3.699"/>
<path d="m486.71,188.73c-1.687,0.896-2.512,2.137-2.535,3.699"/>
<path d="m489.58,190.68c-1.687,0.897-1.765,1.722-2.493,2.826"/>
</g>
</g>
<g fill="#5ac800">
<path d="m290.1,323.66-0.204-4.68,1.934,1.629,0.508-3.562c0.813-0.206,2.137,1.426,2.137,1.426l-0.204-3.564,2.95,3.257s-0.203-2.748,0.812-4.377c0,0,2.237,1.935,2.237,4.172,0,1.938,1.934-2.748,1.934-2.748,0.509,1.63,1.628,5.19,1.628,5.19l1.321-1.934,1.12,4.07,2.442-3.562,1.931,4.174,4.375-0.307,0.509,2.439,1.933-2.135,2.544,1.627s2.137-0.609,3.256-0.609,2.442,1.426,2.442,1.426,0.813-1.426,1.628-1.938c0.812-0.506,1.935,0.816,2.236,1.63l1.629-2.95s2.137,2.137,2.441,2.95c0,0,0.304-2.44,0.813-3.257,0.51-0.813,1.321,0.307,1.933,1.324l1.322-4.375s1.425,0.303,2.441,1.934c1.117,1.626,1.117-2.441,1.117-2.441s2.441,3.256,3.052,5.493c0,0-16.846,5.784-28.726,4.203-13.983-1.862-25.501-4.507-25.501-4.507"/>
<path d="m405.57,323.15s0.813-2.239,1.935-3.36c0,0,2.136,2.546,2.136,3.36,0,0,0.608-0.305,1.729-1.121l1.628,1.627,1.935-1.32,1.832,1.626,3.356-1.424,1.322,1.424,5.188-0.606,1.933,0.812,1.832-2.341,1.73,1.832,2.746-2.748s1.322,1.118,1.628,1.935c0,0,2.238-1.117,2.747-1.935,0,0,2.136-0.813,2.44,0.509,0,0,1.322-1.018,1.222-2.135-0.102-1.118,1.525-0.307,2.034,1.117,0,0,0.609-2.235,2.236-2.44,0,0,1.118,1.319,0.813,3.767,0,0,2.441-1.938,3.561-2.141,0,0,0.508,2.748-0.305,5.193,0,0,2.543-4.174,3.053-2.748,0.204,0.812,0.814,3.561,0.204,5.492l2.238-1.424,0.812,2.748,2.44-0.509s-14.442,2.212-28.05,0.914c-13.607-1.298-26.376-6.104-26.375-6.104"/>
<path d="m395.51,333.25c0.661-0.408-4.546,10.708-17.17,11.299-17.563,0.823-32.577-7.94-32.577-7.94s1.832-3.051,2.949-3.867c0,0,2.441,1.936,3.256,4.375,0,0,0.306-1.627,1.12-3.051,0,0,3.052,1.422,3.561,3.358,0,0,1.12-1.935,1.934-2.442,0.812-0.612,1.628,2.135,1.628,3.766,0,0,1.932-2.038,3.052-2.139,0,0,2.137,1.017,2.747,4.58,0,0,2.035-1.933,2.746-1.631,0,0,2.442,1.631,1.83,3.867-0.304,1.223,2.442-1.421,5.801-2.236l2.949,2.236s2.746-3.66,3.561-4.885c0,0,2.238,0.816,2.238,2.141,0,0,1.019-3.869,1.832-4.275,0.812-0.508,1.931,1.22,1.931,2.342,0,0,0.307-2.952,1.935-3.562,0,0,1.628,1.118,1.628,2.24-0.003-0.002,1.726-3.36,3.049-4.176z"/>
</g>
<g stroke-width="0.5087" stroke="#060" fill="none">
<path d="m290.1,323.66-0.204-4.68,1.934,1.629,0.508-3.562c0.813-0.203,2.137,1.426,2.137,1.426l-0.204-3.561,2.95,3.256s-0.203-2.748,0.812-4.375c0,0,2.237,1.934,2.237,4.172,0,1.936,1.934-2.748,1.934-2.748,0.509,1.631,1.628,5.191,1.628,5.191l1.321-1.936,1.119,4.069,2.441-3.56,1.933,4.172,4.375-0.307,0.509,2.443,1.933-2.137,2.544,1.629s2.135-0.609,3.255-0.609,2.442,1.422,2.442,1.422,0.812-1.422,1.628-1.931c0.812-0.509,1.933,0.812,2.235,1.626l1.629-2.949s2.137,2.137,2.441,2.949c0,0,0.305-2.439,0.814-3.256,0.51-0.812,1.321,0.307,1.933,1.324l1.322-4.375s1.424,0.303,2.44,1.933c1.12,1.626,1.12-2.444,1.12-2.444s2.44,3.258,3.054,5.495"/>
<path d="m405.57,323.15s0.812-2.235,1.933-3.356c0,0,2.136,2.545,2.136,3.356,0,0,0.61-0.305,1.73-1.117l1.628,1.626,1.933-1.32,1.832,1.627,3.358-1.424,1.319,1.424,5.188-0.608,1.935,0.812,1.83-2.337,1.73,1.828,2.746-2.744s1.322,1.115,1.628,1.932c0,0,2.238-1.119,2.747-1.932,0,0,2.135-0.814,2.439,0.505,0,0,1.322-1.017,1.221-2.135-0.103-1.118,1.525-0.304,2.034,1.122,0,0,0.609-2.24,2.238-2.445,0,0,1.118,1.323,0.812,3.766,0,0,2.441-1.932,3.561-2.137,0,0,0.509,2.745-0.304,5.189,0,0,2.544-4.172,3.052-2.747,0.204,0.812,0.814,3.562,0.204,5.493l2.238-1.424,0.813,2.748,2.44-0.51"/>
<path d="m345.68,336.63s1.832-3.051,2.949-3.866c0,0,2.442,1.934,3.256,4.375,0,0,0.308-1.627,1.12-3.051,0,0,3.053,1.42,3.561,3.357,0,0,1.12-1.934,1.934-2.441,0.813-0.613,1.628,2.135,1.628,3.764,0,0,1.933-2.037,3.053-2.138,0,0,2.136,1.017,2.746,4.58,0,0,2.036-1.933,2.746-1.63,0,0,2.442,1.63,1.831,3.867-0.305,1.221,2.442-1.422,5.8-2.237l2.949,2.237s2.746-3.662,3.561-4.885c0,0,2.238,0.814,2.238,2.139,0,0,1.019-3.869,1.832-4.273,0.812-0.508,1.931,1.219,1.931,2.34,0,0,0.307-2.951,1.936-3.562,0,0,1.628,1.118,1.628,2.239,0,0,1.729-3.356,3.052-4.174"/>
</g>
</g>
<g id="motto">
<g fill="#fff">
<path d="m374.44,376.98c22.892,0.205,36.424-8.141,43.851-13.127,17.396-11.699,21.059-12.107,23.908-11.906,3.257,0.309,8.035,1.427,8.24,4.277,0.306,4.375-6.815,6.307-10.886,6.307-4.17,0-15.058-2.748-15.058-2.748l-2.85,1.936c1.934,0.916,24.215,8.342,28.488,1.323,4.372-7.122,8.749-18.622,8.749-18.622s-4.883-8.751-15.771-8.751c-10.987,0-21.671,6.922-28.791,12.106-7.123,5.19-16.074,12.312-39.883,12.312-23.807,0-32.86-7.122-39.981-12.312-7.121-5.188-17.805-12.106-28.689-12.106-10.987,0-15.872,8.751-15.872,8.751s4.374,11.5,8.749,18.622c4.272,7.019,26.555-0.407,28.485-1.323l-2.746-1.936s-10.987,2.748-15.058,2.748c-4.171,0-11.293-1.932-10.987-6.307,0.204-2.85,4.984-3.97,8.241-4.277,2.848-0.201,6.511,0.207,23.907,11.906,7.431,4.986,20.962,13.025,43.954,13.127"/>
<path d="m337.61,350.01s0-1.938-0.308-4.783c-0.406-3.664-2.542-4.58-4.271-4.071-1.118,0.403-3.356,3.155-3.356,3.155v0.103c-1.018-0.715-2.034-1.323-3.154-1.935,0.814-0.916,5.494-3.764,6.613-3.764,1.019,0,15.058,5.697,19.532,9.562,1.12,1.021,1.935,7.328,1.322,9.361-7.528-1.933-12.411-4.781-16.381-7.529v-0.102"/>
<path d="m330.89,364.26s-3.053,3.051-3.153,8.648c-0.104,6.613,4.68,6.92,7.833,6.816,3.765-0.104,6.815-2.238,6.715-9.259,0,0-6.207-2.647-11.396-6.207"/>
<path d="m411.17,350.01s0.103-1.938,0.408-4.783c0.403-3.664,2.44-4.58,4.17-4.071,1.119,0.403,3.356,3.155,3.356,3.155v0.103c1.017-0.715,2.032-1.323,3.152-1.935-0.812-0.916-5.491-3.764-6.51-3.764-1.118,0-15.157,5.697-19.634,9.562-1.02,1.021-1.832,7.328-1.322,9.361,7.631-1.933,12.411-4.781,16.38-7.529v-0.102"/>
<path d="m417.88,364.26s3.053,3.051,3.154,8.648c0.204,6.613-4.682,6.92-7.833,6.816-3.766-0.104-6.715-2.238-6.715-9.259,0,0,6.207-2.647,11.396-6.207"/>
</g>
<g fill="#69f">
<path d="m324.28,359.78s-10.887,2.748-14.956,2.748c-4.17,0-11.293-1.93-10.987-6.308,0.204-2.85,4.985-3.967,8.241-4.272,2.441-0.207,5.595,0.101,17.702,7.832"/>
<path d="m424.5,359.78s10.885,2.748,15.058,2.748c4.07,0,11.191-1.93,10.885-6.308-0.202-2.85-4.983-3.967-8.239-4.272-2.444-0.207-5.598,0.101-17.704,7.832"/>
<path d="m337.61,350.11c-1.119-0.814-2.238-1.631-3.258-2.441-1.525-1.121-3.052-2.139-4.681-3.256,0,0,2.238-2.85,3.357-3.156,1.729-0.609,3.865,0.303,4.271,3.967,0.306,2.85,0.306,4.887,0.306,4.887"/>
<path d="m330.18,378.81c1.936,1.121,4.07,1.02,5.394,0.916,3.765-0.102,6.816-2.238,6.715-9.258,0,0,4.678,2.34,12.309,4.172,0,0,1.222,1.525,1.424,4.576,0.308,2.547-1.424,5.291-3.457,5.09,0,0-10.683-1.934-17.192-3.051-3.766-0.711-5.189-2.443-5.189-2.443"/>
<path d="m411.17,350.11c1.118-0.814,2.238-1.631,3.355-2.441,1.426-1.121,2.95-2.139,4.579-3.256,0,0-2.237-2.85-3.356-3.156-1.729-0.609-3.765,0.303-4.17,3.967-0.307,2.847-0.408,4.886-0.408,4.886"/>
<path d="m418.59,378.81c-1.933,1.121-4.07,1.02-5.393,0.916-3.765-0.102-6.715-2.238-6.715-9.258,0,0-4.681,2.34-12.209,4.172,0,0-1.322,1.525-1.526,4.576-0.204,2.547,1.526,5.291,3.459,5.09,0,0,10.783-1.934,17.193-3.051,3.765-0.711,5.188-2.443,5.188-2.443"/>
</g>
<g fill="none" stroke="#000" stroke-width="0.7122">
<path d="m374.44,376.98c22.893,0.203,36.424-8.143,43.851-13.127,17.396-11.701,21.059-12.106,23.907-11.904,3.257,0.305,8.039,1.425,8.24,4.273,0.307,4.375-6.815,6.307-10.887,6.307-4.17,0-15.057-2.743-15.057-2.743l-2.848,1.934c1.934,0.916,24.212,8.343,28.485,1.32,4.375-7.122,8.748-18.619,8.748-18.619s-4.883-8.754-15.77-8.754c-10.986,0-21.669,6.922-28.792,12.11-7.121,5.189-16.072,12.312-39.881,12.312-23.807,0-32.859-7.123-39.981-12.312-7.121-5.188-17.806-12.11-28.69-12.11-10.986,0-15.87,8.754-15.87,8.754s4.373,11.497,8.749,18.619c4.273,7.021,26.555-0.404,28.486-1.32l-2.745-1.934s-10.989,2.743-15.056,2.743c-4.173,0-11.294-1.928-10.989-6.307,0.204-2.85,4.984-3.967,8.241-4.273,2.847-0.202,6.509,0.205,23.907,11.904,7.429,4.988,20.96,13.027,43.952,13.127z"/>
<path d="m324.28,359.78s-10.888,2.748-14.954,2.748c-4.172,0-11.293-1.933-10.989-6.308,0.204-2.85,4.985-3.97,8.241-4.272,2.439-0.207,5.595,0.101,17.702,7.832z"/>
<path d="m424.49,359.78s10.887,2.748,15.058,2.748c4.069,0,11.191-1.933,10.886-6.308-0.204-2.85-4.983-3.97-8.238-4.272-2.442-0.207-5.598,0.102-17.702,7.832h-0.004z"/>
<path d="m337.61,350.11c-1.12-0.814-2.238-1.631-3.258-2.441-1.523-1.121-3.051-2.139-4.679-3.256,0,0,2.238-2.85,3.356-3.156,1.729-0.609,3.865,0.303,4.271,3.971,0.31,2.843,0.31,4.882,0.31,4.882z"/>
<path d="m337.61,350.01s0-1.936-0.308-4.783c-0.404-3.664-2.542-4.58-4.271-4.071-1.12,0.407-3.358,3.155-3.358,3.155v0.103c-1.018-0.712-2.036-1.323-3.154-1.935,0.814-0.916,5.494-3.764,6.614-3.764,1.02,0,15.057,5.697,19.533,9.565,1.12,1.019,1.933,7.325,1.322,9.362-7.529-1.937-12.413-4.785-16.383-7.53"/>
<path d="m330.89,364.26s-3.051,3.051-3.152,8.648c-0.103,6.609,4.679,6.918,7.833,6.816,3.765-0.104,6.814-2.238,6.717-9.263,0,0-6.207-2.646-11.396-6.207l-0.002,0.006z"/>
<path d="m333.44,365.78s-2.439,2.543-2.847,6.715c-0.204,3.257,1.932,5.086,4.679,4.883,3.866-0.201,5.394-5.492,3.562-8.443l-5.394-3.155"/>
<path d="m330.18,378.81c1.934,1.119,4.068,1.018,5.392,0.916,3.765-0.104,6.814-2.24,6.717-9.26,0,0,4.679,2.34,12.31,4.172,0,0,1.222,1.525,1.423,4.58,0.307,2.543-1.423,5.291-3.456,5.086,0,0-10.685-1.934-17.194-3.051-3.768-0.715-5.192-2.443-5.192-2.443z"/>
<path d="m411.17,350.11c1.12-0.814,2.238-1.631,3.357-2.441,1.425-1.121,2.95-2.139,4.578-3.256,0,0-2.237-2.85-3.357-3.156-1.729-0.609-3.765,0.303-4.17,3.971-0.306,2.846-0.406,4.883-0.406,4.883h-0.002v-0.001z"/>
<path d="m411.17,350.01s0.103-1.936,0.408-4.783c0.405-3.664,2.44-4.58,4.17-4.071,1.12,0.407,3.356,3.155,3.356,3.155v0.103c1.019-0.712,2.035-1.323,3.154-1.935-0.814-0.916-5.493-3.764-6.512-3.764-1.119,0-15.157,5.697-19.634,9.565-1.02,1.019-1.832,7.325-1.322,9.362,7.631-1.937,12.411-4.785,16.38-7.53"/>
<path d="m417.88,364.26s3.053,3.051,3.154,8.648c0.204,6.609-4.682,6.918-7.835,6.816-3.764-0.104-6.713-2.238-6.713-9.263,0,0,6.205-2.646,11.394-6.207v0.006z"/>
<path d="m415.34,365.78s2.442,2.543,2.849,6.715c0.307,3.257-1.935,5.086-4.681,4.883-3.865-0.201-5.289-5.492-3.561-8.443l5.393-3.155"/>
<path d="m418.59,378.81c-1.933,1.119-4.07,1.018-5.393,0.916-3.764-0.104-6.713-2.24-6.713-9.26,0,0-4.682,2.34-12.208,4.172,0,0-1.322,1.525-1.526,4.58-0.203,2.543,1.526,5.291,3.459,5.086,0,0,10.785-1.934,17.192-3.051,3.766-0.715,5.189-2.443,5.189-2.443z"/>
</g>
<g fill="none" stroke="#fff" stroke-width="0.7123">
<path d="m353.79,376.47s3.357,2.445-0.712,5.496"/>
<path d="m343.72,374.84,10.275,4.478"/>
<path d="m345.44,377.18,7.526,3.254"/>
<path d="m348.09,375.25,5.697,2.547"/>
<path d="m395.09,376.47s-3.46,2.445,0.61,5.496"/>
<path d="m405.06,374.84-10.276,4.478"/>
<path d="m403.43,377.18-7.527,3.254"/>
<path d="m400.69,375.25-5.596,2.547"/>
</g>
<g fill="#000" stroke="#000" stroke-width="0.7">
<path d="m313.56,345.17c0.146,0.236,0.239,0.48301,0.285,0.736,0.039,0.25801,0.029,0.54701-0.03,0.865-0.145,0.756-0.55,1.322-1.206,1.712-0.66,0.38801-1.417,0.495-2.254,0.33501-0.389-0.072-0.771-0.20601-1.132-0.40201-0.362-0.18999-0.675-0.395-0.924-0.619-0.112,0.13201-0.23,0.259-0.348,0.392-0.163-0.03-0.326-0.062-0.488-0.093,0.157-0.985,0.312-1.971,0.475-2.954,0.161,0.03,0.327,0.062,0.495,0.096,0.031,0.382,0.093,0.728,0.174,1.048,0.076,0.32101,0.208,0.623,0.384,0.924,0.167,0.276,0.378,0.516,0.639,0.709,0.255,0.194,0.572,0.33,0.946,0.399,0.282,0.056,0.534,0.065,0.763,0.031,0.221-0.034,0.415-0.101,0.565-0.211,0.153-0.109,0.284-0.248,0.384-0.416,0.096-0.164,0.165-0.36,0.211-0.601,0.064-0.344,0.023-0.68-0.112-1.014-0.135-0.336-0.393-0.613-0.748-0.839-0.241-0.153-0.528-0.331-0.846-0.524-0.319-0.195-0.593-0.361-0.821-0.527-0.445-0.311-0.777-0.661-0.976-1.073-0.204-0.403-0.257-0.88799-0.148-1.457,0.062-0.325,0.188-0.612,0.377-0.871,0.188-0.26199,0.428-0.46899,0.719-0.646,0.277-0.172,0.588-0.27499,0.935-0.338,0.345-0.054,0.694-0.049,1.043,0.018,0.398,0.074,0.751,0.205,1.043,0.386,0.29,0.183,0.557,0.372,0.785,0.587,0.109-0.119,0.221-0.24,0.329-0.361,0.165,0.031,0.325,0.062,0.491,0.095-0.165,0.95-0.328,1.903-0.493,2.854-0.165-0.033-0.33-0.063-0.498-0.096-0.026-0.343-0.067-0.674-0.119-0.994-0.06-0.318-0.158-0.617-0.288-0.893-0.13-0.271-0.312-0.497-0.536-0.684-0.222-0.189-0.523-0.314-0.894-0.386-0.385-0.073-0.741-0.017-1.062,0.183-0.318,0.199-0.515,0.465-0.582,0.82-0.069,0.368-0.038,0.692,0.092,0.971,0.126,0.281,0.344,0.526,0.649,0.748,0.271,0.201,0.545,0.373,0.814,0.533,0.267,0.159,0.52,0.319,0.769,0.489,0.224,0.149,0.444,0.312,0.644,0.492,0.194,0.175,0.364,0.369,0.494,0.576"/>
<path d="m326.04,346.92c-0.105-0.053-0.268-0.11199-0.484-0.182-0.217-0.07-0.406-0.10399-0.579-0.088-0.17,0.014-0.348,0.139-0.537,0.369-0.191,0.232-0.392,0.53699-0.596,0.91-0.611,1.107-1.224,2.215-1.834,3.324-0.234,0.422-0.526,0.74-0.878,0.955-0.351,0.21699-0.729,0.34-1.129,0.38099-0.396,0.041-0.772,0.008-1.14-0.078-0.368-0.098-0.695-0.22299-0.985-0.38299-0.463-0.256-0.849-0.541-1.146-0.863-0.297-0.328-0.52-0.656-0.647-0.998-0.131-0.342-0.186-0.678-0.161-1.012,0.021-0.332,0.113-0.639,0.271-0.924,0.831-1.508,1.663-3.015,2.494-4.521,0.067-0.125,0.103-0.246,0.113-0.354,0.002-0.102-0.045-0.229-0.129-0.371-0.066-0.102-0.156-0.207-0.28-0.317-0.129-0.104-0.229-0.188-0.32-0.246,0.069-0.127,0.141-0.256,0.21-0.382,1.078,0.595,2.151,1.188,3.228,1.779-0.069,0.127-0.142,0.257-0.211,0.382-0.105-0.054-0.24-0.103-0.409-0.161-0.171-0.062-0.302-0.098-0.388-0.109-0.147-0.023-0.271,0-0.365,0.082-0.1,0.079-0.181,0.172-0.245,0.291-0.777,1.408-1.556,2.816-2.332,4.225-0.112,0.205-0.208,0.433-0.281,0.68-0.083,0.249-0.107,0.51-0.081,0.777,0.029,0.279,0.139,0.539,0.313,0.799,0.176,0.26,0.478,0.508,0.902,0.742,0.396,0.22,0.771,0.345,1.111,0.371,0.337,0.021,0.642-0.021,0.912-0.14,0.252-0.112,0.475-0.256,0.649-0.435,0.178-0.178,0.327-0.375,0.445-0.588,0.578-1.049,1.153-2.092,1.73-3.137,0.221-0.4,0.374-0.742,0.453-1.029,0.083-0.286,0.086-0.491,0.019-0.637-0.072-0.162-0.213-0.328-0.401-0.496-0.195-0.172-0.349-0.299-0.462-0.367,0.07-0.127,0.142-0.256,0.211-0.381,1.056,0.582,2.111,1.164,3.169,1.748-0.069,0.13-0.139,0.257-0.21,0.384"/>
<path d="m330.53,354.69c0.135,0.278,0.214,0.58299,0.219,0.90599,0.006,0.326-0.087,0.662-0.287,1.01-0.201,0.35-0.452,0.611-0.76,0.783-0.304,0.174-0.629,0.264-0.975,0.289-0.337,0.031-0.677-0.006-1.029-0.094-0.356-0.094-0.696-0.23-1.021-0.41601-1.211-0.697-2.423-1.396-3.631-2.092,0.073-0.12699,0.146-0.254,0.219-0.379,0.09,0.045,0.222,0.1,0.404,0.17001,0.181,0.073,0.314,0.11299,0.402,0.125,0.142,0.018,0.257-0.011,0.356-0.066,0.093-0.055,0.176-0.146,0.253-0.279,1.044-1.812,2.088-3.627,3.132-5.439,0.069-0.12301,0.11-0.239,0.125-0.354,0.009-0.11501-0.031-0.236-0.119-0.367-0.077-0.115-0.174-0.227-0.292-0.332-0.12-0.104-0.216-0.188-0.305-0.246,0.071-0.125,0.146-0.252,0.218-0.377,1.178,0.67799,2.358,1.357,3.54,2.039,0.274,0.15801,0.521,0.33401,0.743,0.53101,0.216,0.199,0.401,0.43,0.551,0.693,0.14,0.24799,0.223,0.52099,0.231,0.80999,0.009,0.29201-0.065,0.59501-0.241,0.899-0.152,0.264-0.339,0.471-0.556,0.621-0.215,0.15601-0.457,0.254-0.721,0.303-0.251,0.051-0.505,0.055-0.773,0.029-0.273-0.02-0.548-0.08-0.828-0.172-0.01,0.017-0.02,0.032-0.028,0.049,0.207,0.156,0.422,0.348,0.647,0.586,0.224,0.245,0.403,0.499,0.526,0.77zm-0.652-1.894c0.226-0.078,0.412-0.188,0.568-0.34001,0.152-0.15199,0.305-0.34899,0.45-0.601,0.237-0.41499,0.309-0.808,0.217-1.18-0.09-0.375-0.39-0.69901-0.886-0.985-0.114-0.064-0.261-0.14801-0.437-0.24401-0.181-0.099-0.329-0.178-0.442-0.236-0.562,0.973-1.119,1.941-1.679,2.912,0.227,0.131,0.451,0.26,0.681,0.392,0.298,0.172,0.571,0.28,0.824,0.327,0.256,0.044,0.489,0.035,0.704-0.045zm-0.637,2.847c0.257-0.445,0.312-0.898,0.179-1.363-0.136-0.467-0.491-0.857-1.061-1.186-0.23-0.13301-0.427-0.245-0.584-0.33001-0.16-0.086-0.281-0.148-0.363-0.19099-0.514,0.894-1.023,1.779-1.536,2.668-0.128,0.223-0.136,0.446-0.019,0.664,0.117,0.21899,0.34,0.422,0.671,0.611,0.533,0.309,1.035,0.39599,1.498,0.25,0.464-0.15201,0.866-0.51701,1.215-1.123z"/>
<path d="m348.94,360.14c-0.111-0.041-0.275-0.086-0.499-0.13199-0.222-0.048-0.416-0.062-0.585-0.03-0.167,0.031-0.331,0.174-0.498,0.422-0.167,0.25-0.334,0.574-0.502,0.965-0.498,1.164-0.996,2.326-1.494,3.49-0.19,0.443-0.45,0.789-0.777,1.039-0.327,0.248-0.692,0.408-1.086,0.49-0.392,0.08-0.769,0.084-1.142,0.033-0.376-0.059-0.716-0.151-1.02-0.281-0.485-0.207-0.897-0.454-1.226-0.746-0.328-0.297-0.581-0.6-0.744-0.928-0.163-0.326-0.252-0.654-0.26-0.99-0.013-0.333,0.046-0.648,0.174-0.948,0.678-1.581,1.355-3.163,2.033-4.745,0.056-0.13,0.079-0.254,0.08-0.361-0.009-0.102-0.066-0.225-0.165-0.356-0.076-0.094-0.176-0.188-0.313-0.289-0.137-0.09-0.244-0.165-0.341-0.213,0.058-0.133,0.114-0.269,0.171-0.399,1.129,0.483,2.259,0.967,3.389,1.451-0.058,0.133-0.114,0.268-0.173,0.399-0.109-0.042-0.249-0.078-0.423-0.12-0.176-0.044-0.31-0.064-0.396-0.07-0.15-0.01-0.27,0.026-0.356,0.117-0.09,0.09-0.161,0.189-0.215,0.314-0.633,1.479-1.267,2.957-1.898,4.437-0.093,0.214-0.165,0.449-0.216,0.701-0.057,0.258-0.055,0.521-0.001,0.784,0.058,0.273,0.191,0.521,0.392,0.763,0.201,0.24,0.524,0.458,0.971,0.647,0.418,0.181,0.804,0.267,1.146,0.259,0.335-0.013,0.636-0.082,0.891-0.229,0.239-0.139,0.449-0.301,0.606-0.496,0.157-0.192,0.288-0.404,0.385-0.629,0.471-1.1,0.939-2.195,1.409-3.293,0.181-0.42,0.299-0.775,0.351-1.068,0.051-0.295,0.036-0.498-0.046-0.635-0.091-0.156-0.244-0.307-0.449-0.455-0.215-0.152-0.377-0.264-0.495-0.319,0.057-0.134,0.114-0.269,0.171-0.399,1.107,0.475,2.218,0.949,3.325,1.424-0.06,0.129-0.118,0.263-0.174,0.396"/>
<path d="m358.51,371.38c-1.251-0.361-2.504-0.725-3.755-1.086,0.041-0.14101,0.082-0.28101,0.122-0.42001,0.139,0.033,0.315,0.07,0.537,0.109,0.217,0.034,0.376,0.045,0.469,0.028,0.146-0.045,0.262-0.099,0.349-0.18299,0.08-0.078,0.147-0.188,0.189-0.33601,0.588-2.033,1.176-4.065,1.765-6.102-0.033-0.01-0.062-0.018-0.092-0.025-1.642,2.113-3.323,4.195-4.968,6.31-0.098-0.028-0.195-0.058-0.298-0.086-0.2-2.699-0.453-5.396-0.653-8.093-0.024-0.008-0.053-0.017-0.077-0.022-0.482,1.668-0.966,3.336-1.447,5.008-0.141,0.482-0.215,0.854-0.225,1.132-0.015,0.27101,0.032,0.477,0.124,0.625,0.063,0.11,0.225,0.23701,0.479,0.395,0.253,0.156,0.422,0.244,0.504,0.273-0.04,0.139-0.081,0.278-0.122,0.42001-1.142-0.33001-2.286-0.66001-3.432-0.99,0.041-0.14301,0.082-0.283,0.122-0.42201,0.185,0.033,0.385,0.062,0.595,0.074,0.209,0.017,0.378-0.002,0.514-0.062,0.169-0.073,0.312-0.207,0.436-0.42599,0.116-0.21301,0.252-0.58601,0.406-1.121,0.413-1.43,0.827-2.863,1.24-4.293,0.072-0.24801,0.101-0.457,0.087-0.63301-0.014-0.18099-0.062-0.32399-0.146-0.461-0.096-0.145-0.226-0.26299-0.388-0.36699-0.165-0.10801-0.337-0.188-0.51-0.24401,0.04-0.139,0.081-0.279,0.121-0.418,0.966,0.279,1.929,0.557,2.894,0.836,0.19,2.336,0.432,4.669,0.62,7.007,1.188-1.563,2.41-3.103,3.6-4.667,0.133-0.173,0.261-0.35401,0.374-0.55501,0.112-0.19099,0.182-0.324,0.208-0.39699,0.923,0.26699,1.85,0.534,2.771,0.802-0.04,0.139-0.081,0.279-0.121,0.418-0.114-0.027-0.258-0.047-0.439-0.068s-0.322-0.029-0.409-0.023c-0.15,0.01-0.264,0.061-0.344,0.159-0.078,0.101-0.138,0.20799-0.175,0.33899-0.583,2.018-1.166,4.032-1.748,6.049-0.039,0.135-0.049,0.26-0.03,0.368,0.021,0.109,0.089,0.21601,0.203,0.328,0.062,0.062,0.179,0.133,0.354,0.218,0.176,0.09,0.312,0.147,0.42,0.186-0.042,0.134-0.083,0.275-0.124,0.416"/>
<path d="m367.6,368.62c0.23,0.205,0.423,0.455,0.553,0.75201,0.129,0.29899,0.179,0.64499,0.128,1.041-0.05,0.4-0.187,0.73801-0.397,1.018-0.216,0.275-0.479,0.484-0.786,0.645-0.302,0.158-0.632,0.256-0.988,0.312-0.364,0.051-0.729,0.057-1.102,0.01-1.386-0.174-2.771-0.349-4.156-0.522,0.018-0.146,0.035-0.291,0.054-0.435,0.101,0.007,0.243,0.007,0.439,0,0.193-0.002,0.336-0.017,0.422-0.041,0.136-0.039,0.233-0.106,0.301-0.198,0.063-0.086,0.107-0.201,0.127-0.355,0.262-2.075,0.521-4.15,0.783-6.227,0.019-0.14199,0.005-0.26699-0.021-0.375-0.037-0.10899-0.12-0.20499-0.252-0.293-0.118-0.076-0.248-0.14199-0.396-0.19099-0.153-0.051-0.272-0.092-0.376-0.10901,0.018-0.14499,0.035-0.289,0.054-0.43399,1.35,0.16999,2.701,0.341,4.054,0.51099,0.312,0.04,0.606,0.106,0.893,0.20401,0.275,0.1,0.533,0.23799,0.772,0.42599,0.223,0.173,0.409,0.39301,0.529,0.65601,0.121,0.266,0.164,0.572,0.12,0.922-0.038,0.303-0.129,0.56599-0.267,0.788-0.141,0.228-0.324,0.411-0.548,0.56-0.211,0.143-0.448,0.244-0.701,0.326-0.263,0.088-0.538,0.137-0.83,0.162-0.003,0.018-0.006,0.037-0.009,0.055,0.25,0.064,0.521,0.157,0.823,0.289,0.296,0.136,0.56,0.302,0.777,0.503zm-1.334-1.494c0.177-0.158,0.31-0.334,0.396-0.533,0.081-0.198,0.144-0.438,0.18-0.729,0.061-0.475-0.025-0.861-0.256-1.172-0.229-0.311-0.627-0.492-1.198-0.564-0.128-0.016-0.298-0.037-0.493-0.058-0.207-0.021-0.372-0.036-0.507-0.048-0.14,1.113-0.278,2.225-0.419,3.336,0.262,0.032,0.521,0.064,0.78,0.098,0.339,0.043,0.637,0.037,0.891-0.018,0.248-0.056,0.457-0.158,0.626-0.312zm0.514,2.873c0.063-0.513-0.06-0.951-0.36-1.328-0.308-0.377-0.786-0.6-1.437-0.682-0.267-0.033-0.487-0.061-0.668-0.078-0.183-0.019-0.317-0.029-0.412-0.037-0.129,1.021-0.256,2.037-0.384,3.056-0.032,0.254,0.05,0.46399,0.241,0.62,0.192,0.15599,0.479,0.25699,0.855,0.30399,0.613,0.078,1.106-0.035,1.476-0.351,0.372-0.321,0.602-0.814,0.689-1.504z"/>
<path d="m378.69,372.75h-2.387c-0.519-0.82499-1.005-1.518-1.423-2.119-0.427-0.598-0.896-1.199-1.392-1.838h-0.905v2.769c0,0.142,0.026,0.271,0.068,0.374,0.045,0.111,0.145,0.195,0.295,0.25401,0.073,0.029,0.205,0.053,0.392,0.08,0.188,0.023,0.346,0.037,0.475,0.043v0.438h-3.74v-0.438c0.098-0.006,0.242-0.023,0.437-0.043,0.188-0.021,0.318-0.051,0.393-0.08,0.124-0.057,0.219-0.12901,0.272-0.23401,0.06-0.10399,0.082-0.23199,0.082-0.394v-6.313c0-0.139-0.019-0.27-0.061-0.38299-0.045-0.10801-0.14-0.19401-0.295-0.25-0.104-0.037-0.236-0.076-0.405-0.104-0.168-0.028-0.305-0.052-0.423-0.056v-0.437h4.085c0.373,0,0.723,0.034,1.055,0.11,0.329,0.082,0.623,0.199,0.89,0.371,0.255,0.166,0.466,0.371,0.617,0.639,0.152,0.264,0.231,0.584,0.231,0.959,0,0.34-0.053,0.633-0.155,0.893-0.104,0.26-0.26,0.47899-0.463,0.67-0.184,0.183-0.413,0.324-0.673,0.457-0.261,0.129-0.55,0.238-0.865,0.332,0.43,0.574,0.803,1.047,1.091,1.438,0.282,0.39,0.647,0.85801,1.059,1.421,0.182,0.249,0.353,0.42599,0.5,0.54199,0.145,0.121,0.295,0.21401,0.437,0.29101,0.105,0.058,0.244,0.093,0.405,0.12099,0.163,0.03,0.3,0.045,0.405,0.051-0.002,0.143-0.002,0.289-0.002,0.436zm-3.28-6.506c0-0.528-0.16-0.942-0.46-1.26-0.303-0.311-0.742-0.463-1.303-0.463h-1.062v3.742h0.818c0.573,0,1.058-0.173,1.434-0.542,0.375-0.36799,0.573-0.85399,0.573-1.477z"/>
<path d="m388.88,372.1c-1.223,0.094-2.443,0.18599-3.669,0.279-0.012-0.14601-0.022-0.293-0.033-0.438,0.323-0.043,0.588-0.104,0.802-0.18401,0.205-0.08,0.307-0.15999,0.3-0.251-0.003-0.037-0.015-0.079-0.023-0.13499-0.013-0.057-0.024-0.096-0.048-0.13901-0.288-0.63299-0.592-1.261-0.882-1.895-1.034,0.078-2.063,0.156-3.098,0.234-0.095,0.297-0.172,0.549-0.223,0.771-0.057,0.22199-0.111,0.421-0.153,0.604-0.041,0.182-0.07,0.323-0.08,0.438-0.01,0.11299-0.018,0.203-0.011,0.271,0.012,0.16399,0.151,0.276,0.42,0.35099,0.269,0.073,0.565,0.099,0.897,0.093,0.011,0.145,0.022,0.29,0.033,0.438-1.106,0.084-2.216,0.168-3.323,0.252-0.011-0.146-0.021-0.293-0.033-0.438,0.107-0.014,0.239-0.047,0.398-0.102,0.159-0.053,0.287-0.111,0.387-0.187,0.159-0.125,0.276-0.248,0.359-0.381,0.085-0.124,0.159-0.293,0.229-0.517,0.351-1.127,0.767-2.387,1.188-3.793,0.421-1.403,0.824-2.651,1.153-3.746,0.165-0.012,0.33-0.024,0.498-0.036,1.152,2.437,2.354,4.848,3.511,7.282,0.073,0.156,0.156,0.277,0.24,0.373,0.089,0.094,0.202,0.181,0.352,0.261,0.099,0.052,0.226,0.09,0.384,0.114,0.158,0.031,0.285,0.041,0.392,0.037,0.012,0.151,0.023,0.298,0.033,0.444zm-3.818-3.292c-0.523-1.091-1.07-2.175-1.596-3.271-0.344,1.162-0.715,2.314-1.062,3.473,0.887-0.068,1.77-0.134,2.658-0.202z"/>
<path d="m401.43,361.92c-0.147,0.039-0.301,0.08-0.446,0.121-0.172-0.293-0.439-0.573-0.801-0.862-0.361-0.285-0.674-0.41-0.928-0.382-0.131,0.021-0.281,0.045-0.45,0.084-0.175,0.043-0.368,0.09-0.588,0.148-0.478,0.12901-0.953,0.26-1.432,0.389,0.307,1.129,0.612,2.259,0.918,3.384,0.324-0.089,0.654-0.179,0.979-0.26701,0.295-0.08,0.525-0.17,0.671-0.28099,0.141-0.10401,0.263-0.23701,0.341-0.39301,0.056-0.11299,0.096-0.27,0.111-0.47299,0.017-0.198,0.01-0.40601-0.027-0.62301,0.152-0.042,0.305-0.083,0.451-0.12299,0.301,1.109,0.601,2.213,0.898,3.316-0.146,0.039-0.299,0.08-0.45,0.12301-0.058-0.16801-0.157-0.35701-0.283-0.56201-0.136-0.2-0.256-0.34-0.363-0.416-0.157-0.118-0.338-0.18-0.529-0.185-0.202-0.006-0.428,0.033-0.687,0.104-0.325,0.089-0.655,0.179-0.979,0.267,0.264,0.969,0.524,1.934,0.787,2.902,0.035,0.129,0.094,0.241,0.178,0.329,0.077,0.089,0.189,0.142,0.341,0.173,0.068,0.016,0.21,0.01,0.418-0.009,0.209-0.012,0.37-0.039,0.474-0.062,0.037,0.14,0.077,0.283,0.114,0.423-1.233,0.334-2.467,0.67-3.701,1.004-0.037-0.14-0.077-0.283-0.114-0.423,0.12-0.038,0.278-0.098,0.472-0.172,0.191-0.075,0.319-0.127,0.373-0.174,0.106-0.084,0.178-0.188,0.201-0.299,0.023-0.117,0.021-0.244-0.018-0.389-0.55-2.025-1.1-4.053-1.649-6.08-0.034-0.129-0.098-0.238-0.16-0.333-0.072-0.085-0.189-0.138-0.346-0.167-0.121-0.021-0.278-0.023-0.468-0.018-0.201,0.006-0.354,0.024-0.462,0.049-0.037-0.141-0.076-0.283-0.114-0.42399,2.233-0.60501,4.469-1.211,6.696-1.815,0.189,0.706,0.382,1.413,0.572,2.116"/>
<path d="m411.29,361.17c0.324,0.80601,0.641,1.615,0.964,2.42-2.08,1.005-4.154,2.006-6.229,3.008-0.063-0.13099-0.128-0.26599-0.191-0.39499,0.088-0.049,0.209-0.125,0.375-0.229,0.156-0.099,0.265-0.181,0.315-0.241,0.091-0.104,0.144-0.212,0.148-0.333,0.004-0.114-0.027-0.241-0.099-0.386-0.906-1.877-1.812-3.754-2.719-5.631-0.062-0.129-0.138-0.225-0.223-0.303-0.089-0.074-0.212-0.11-0.372-0.104-0.104-0.01-0.247,0.006-0.425,0.039-0.178,0.031-0.316,0.068-0.419,0.111-0.062-0.12901-0.128-0.265-0.189-0.395,1.123-0.542,2.24-1.082,3.362-1.624,0.063,0.12999,0.128,0.26499,0.19,0.396-0.106,0.057-0.231,0.137-0.377,0.248-0.154,0.115-0.264,0.20299-0.32,0.268-0.112,0.107-0.16,0.225-0.15,0.352-0.001,0.13099,0.034,0.25599,0.094,0.37699,0.851,1.76,1.7,3.521,2.551,5.283,0.116,0.24,0.217,0.424,0.31,0.54501,0.093,0.127,0.199,0.207,0.324,0.23399,0.113,0.029,0.263,0.01,0.444-0.061,0.182-0.059,0.424-0.162,0.73-0.312,0.139-0.065,0.277-0.14201,0.428-0.21901,0.148-0.077,0.281-0.16599,0.404-0.24799,0.121-0.089,0.224-0.181,0.318-0.272,0.09-0.092,0.149-0.174,0.172-0.262,0.067-0.246,0.132-0.585,0.166-1.035,0.031-0.44099,0.046-0.78699,0.019-1.041,0.134-0.061,0.267-0.126,0.399-0.19001"/>
<path d="m415.95,352.52c0.537,0.154,1.054,0.40801,1.527,0.78501,0.479,0.38799,0.896,0.867,1.247,1.461,0.354,0.598,0.571,1.195,0.67,1.795,0.098,0.6,0.062,1.173-0.07,1.723-0.129,0.537-0.369,1.021-0.697,1.469-0.328,0.447-0.742,0.812-1.245,1.107-0.529,0.312-1.073,0.51-1.642,0.572s-1.112,0.029-1.639-0.137c-0.526-0.155-1.026-0.412-1.498-0.799-0.473-0.386-0.874-0.849-1.203-1.404-0.361-0.612-0.582-1.215-0.678-1.811-0.093-0.591-0.062-1.16,0.062-1.714,0.132-0.543,0.378-1.034,0.711-1.485,0.332-0.451,0.742-0.812,1.231-1.101,0.508-0.301,1.042-0.491,1.593-0.562,0.561-0.075,1.103-0.047,1.631,0.101zm2.347,5.807c0.003-0.44201-0.051-0.895-0.206-1.354-0.148-0.459-0.37-0.937-0.666-1.438-0.306-0.516-0.635-0.959-0.989-1.334-0.354-0.369-0.729-0.643-1.104-0.832-0.374-0.188-0.764-0.269-1.158-0.265-0.391,0.001-0.787,0.124-1.169,0.349-0.426,0.252-0.737,0.562-0.918,0.939-0.182,0.375-0.282,0.781-0.277,1.213,0.008,0.418,0.084,0.857,0.245,1.326,0.16,0.471,0.374,0.934,0.646,1.395,0.299,0.506,0.621,0.937,0.949,1.295,0.332,0.355,0.701,0.629,1.083,0.832,0.382,0.201,0.763,0.287,1.163,0.293,0.396,0,0.801-0.113,1.209-0.354,0.38-0.225,0.679-0.525,0.879-0.88,0.198-0.36,0.31-0.757,0.313-1.185z"/>
<path d="m429.27,352.37c-0.647,0.45899-1.301,0.922-1.948,1.381-0.896-0.37301-1.697-0.65601-2.383-0.904-0.696-0.246-1.43-0.46001-2.195-0.69501-0.249,0.17601-0.494,0.35-0.743,0.525,0.532,0.749,1.066,1.504,1.602,2.259,0.081,0.11301,0.181,0.19901,0.271,0.265,0.104,0.064,0.231,0.071,0.386,0.035,0.079-0.017,0.198-0.074,0.368-0.16201,0.17-0.088,0.301-0.168,0.411-0.24,0.083,0.11901,0.17,0.24,0.253,0.35701-1.017,0.723-2.034,1.442-3.051,2.163-0.084-0.116-0.17-0.239-0.254-0.356,0.079-0.062,0.186-0.157,0.332-0.287,0.138-0.125,0.229-0.223,0.274-0.295,0.067-0.112,0.103-0.229,0.083-0.346-0.012-0.117-0.063-0.236-0.156-0.367-1.219-1.717-2.437-3.437-3.652-5.152-0.081-0.113-0.172-0.206-0.271-0.273-0.099-0.066-0.226-0.082-0.381-0.037-0.111,0.033-0.24,0.078-0.393,0.146-0.16,0.074-0.281,0.141-0.378,0.203-0.084-0.11701-0.17-0.24-0.254-0.35701,1.11-0.78699,2.219-1.572,3.33-2.361,0.305-0.21499,0.613-0.389,0.924-0.51699,0.315-0.126,0.629-0.20401,0.941-0.216,0.308-0.016,0.596,0.037,0.87,0.16199,0.283,0.12701,0.529,0.346,0.745,0.65,0.198,0.278,0.329,0.547,0.389,0.81901,0.068,0.27099,0.071,0.538,0.016,0.81299-0.045,0.25401-0.149,0.498-0.287,0.76-0.14,0.257-0.307,0.513-0.516,0.771,0.686,0.221,1.262,0.389,1.724,0.54101,0.453,0.15599,1.025,0.326,1.685,0.547,0.291,0.10299,0.535,0.14599,0.724,0.15599,0.185,0.014,0.364,0.004,0.522-0.018,0.12-0.014,0.25-0.066,0.401-0.135,0.151-0.067,0.271-0.139,0.358-0.19401,0.083,0.11901,0.17,0.24001,0.253,0.35901zm-6.435-3.41c-0.306-0.432-0.68-0.678-1.105-0.76199-0.43-0.076-0.874,0.049-1.333,0.375-0.288,0.20299-0.575,0.40699-0.867,0.61399,0.723,1.021,1.442,2.035,2.166,3.056,0.224-0.158,0.446-0.315,0.67-0.475,0.468-0.331,0.761-0.755,0.852-1.271,0.094-0.52-0.024-1.032-0.383-1.537z"/>
<path d="m436.56,346.87c0.243,0.822,0.487,1.648,0.735,2.469-2.299,0.85299-4.593,1.703-6.891,2.556-0.051-0.135-0.103-0.274-0.152-0.41,0.116-0.049,0.27-0.122,0.449-0.224,0.185-0.098,0.305-0.164,0.354-0.217,0.101-0.105,0.162-0.21499,0.178-0.321,0.015-0.113-0.002-0.233-0.057-0.379-0.729-1.964-1.454-3.923-2.184-5.888-0.047-0.125-0.114-0.23-0.189-0.315-0.08-0.079-0.201-0.119-0.359-0.136-0.122-0.012-0.279,0-0.467,0.025-0.199,0.021-0.345,0.053-0.455,0.088-0.051-0.135-0.104-0.274-0.152-0.41,2.142-0.795,4.281-1.588,6.422-2.383,0.243,0.656,0.488,1.318,0.731,1.975-0.147,0.056-0.296,0.109-0.438,0.164-0.184-0.27-0.475-0.51-0.849-0.745-0.387-0.239-0.698-0.322-0.945-0.267-0.124,0.029-0.272,0.067-0.441,0.125-0.175,0.06-0.364,0.123-0.581,0.203-0.435,0.161-0.868,0.322-1.302,0.483,0.4,1.082,0.805,2.169,1.205,3.251,0.312-0.115,0.621-0.23,0.938-0.348,0.296-0.109,0.509-0.217,0.63-0.33,0.112-0.104,0.204-0.234,0.258-0.408,0.048-0.145,0.062-0.319,0.056-0.533-0.011-0.208-0.033-0.393-0.077-0.57,0.144-0.053,0.291-0.106,0.438-0.162,0.397,1.071,0.793,2.14,1.19,3.211-0.147,0.056-0.296,0.109-0.438,0.162-0.089-0.178-0.202-0.363-0.343-0.545-0.144-0.175-0.269-0.3-0.383-0.365-0.179-0.104-0.347-0.149-0.518-0.139-0.177,0.008-0.386,0.062-0.638,0.156-0.314,0.117-0.627,0.232-0.938,0.348,0.305,0.822,0.606,1.639,0.912,2.461,0.092,0.244,0.182,0.428,0.271,0.562,0.088,0.133,0.194,0.207,0.321,0.245,0.126,0.039,0.286,0.029,0.466-0.014,0.184-0.051,0.439-0.129,0.761-0.248,0.129-0.049,0.296-0.109,0.509-0.188,0.212-0.078,0.389-0.147,0.523-0.224,0.14-0.073,0.289-0.157,0.432-0.256,0.142-0.104,0.236-0.195,0.271-0.289,0.112-0.252,0.201-0.604,0.255-1.051s0.086-0.768,0.07-0.961c0.141-0.054,0.278-0.105,0.422-0.158"/>
<path d="m443.96,340.81c0.438,0.35299,0.814,0.78699,1.099,1.321,0.289,0.543,0.484,1.147,0.574,1.832,0.092,0.688,0.06,1.324-0.087,1.914-0.145,0.58999-0.399,1.104-0.737,1.559-0.324,0.44101-0.739,0.793-1.217,1.076-0.479,0.28301-1.001,0.45501-1.575,0.53101-0.615,0.082-1.192,0.049-1.734-0.11701-0.547-0.164-1.04-0.40599-1.459-0.76599-0.418-0.351-0.782-0.78101-1.061-1.32-0.289-0.539-0.479-1.123-0.562-1.764-0.093-0.70499-0.061-1.347,0.085-1.932,0.146-0.57999,0.402-1.094,0.734-1.553,0.334-0.448,0.749-0.80499,1.23-1.09,0.482-0.28501,1.007-0.45501,1.569-0.53,0.579-0.076,1.146-0.043,1.686,0.106,0.54,0.15199,1.028,0.391,1.455,0.733zm-0.113,6.262c0.18-0.405,0.303-0.843,0.345-1.327,0.038-0.47899,0.021-1.006-0.056-1.584-0.078-0.59401-0.208-1.131-0.389-1.613-0.18-0.47899-0.413-0.879-0.683-1.198-0.276-0.31899-0.599-0.548-0.963-0.697-0.364-0.15099-0.773-0.19399-1.212-0.13699-0.495,0.065-0.903,0.22799-1.218,0.50599-0.313,0.272-0.566,0.606-0.731,1.008-0.15,0.386-0.258,0.82-0.288,1.313-0.041,0.496-0.026,1.007,0.043,1.537,0.077,0.582,0.204,1.104,0.371,1.562,0.161,0.458,0.398,0.853,0.672,1.188,0.267,0.338,0.583,0.563,0.95,0.727,0.365,0.156,0.786,0.209,1.255,0.146,0.438-0.058,0.826-0.217,1.148-0.463,0.324-0.254,0.584-0.574,0.756-0.968z"/>
</g>
</g>
<path d="m422.97,213.66v55.25c0,10.988-1.525,54.744-48.53,71.738-47.104-16.994-48.63-60.746-48.63-71.738v-55.25h97.16" stroke="#000" stroke-width="1.01740003" fill="none"/>
</g>
</svg>