<?xml version="1.0" encoding="UTF-8"?>
<svg xmlns="http://www.w3.org/2000/svg" width="1200" height="600">
<clipPath id="c">
<path d="M0,0V150H700V300H600zM600,0H300V350H0V300z"/>
</clipPath>
<rect width="1200" height="600" fill="#00247d"/>
<path d="M0,0 600,300M600,0 0,300" stroke="#fff" stroke-width="60"/>
<path d="M0,0 600,300M600,0 0,300" stroke="#cf142b" stroke-width="40" clip-path="url(#c)"/>
<path d="M300,0V350M0,150H700" stroke="#fff" stroke-width="100"/>
<path d="M300,0V350M0,150H700" stroke="#cf142b" stroke-width="60"/>
<path d="M0,300H600V0H1200V600H0z" fill="#cf142b"/>
<g>
<path fill="#fff" d="m767.32,145.154v253.639c3.0024,36.3156,78.6864,59.178,131.454,97.7484,69.2124-46.422,136.34-55.812,139.039-107.858l0.8424-243.529h-271.33z"/>
<g fill="none">
<path fill="#2f8f22" stroke="#000" stroke-width="0.45648" d="m767.292,395.158,2.8344,14.4852,9.4464,11.3376,68.34,44.0856,50.0724,31.1796,97.626-53.2224,33.6972-25.8252,6.6144-33.696-4.0956-7.872,0.9456,8.1876-2.5212,6.6132-2.832-1.8912-1.8888-12.2808-0.3168,9.1308-4.7232,5.3568-0.9444-6.6168,1.26-4.722-1.89-5.3532-0.63,10.7064-2.5188,4.7256-2.2056-3.1512,0.9456-4.7256-0.3144-4.4064-1.5756-2.2068-0.3168,4.7256-0.9432,1.5732,0.3156,2.8332-1.89,1.8912-1.26-3.7776,0.6312-3.4668-0.6312-3.1464-1.26-3.4668,0.3168,5.67-3.15,6.9276-2.52,1.5744-1.5744-1.89,0.3168-6.6132-2.2056-3.7776,0.6288,8.1876-3.1476,7.2444-1.8888-2.2068-0.948-2.2032v-3.4668l3.4668-8.8164-3.4668,3.15-2.832,7.5564-1.26,2.2032-1.5744-3.7776,2.2056-8.5032-1.2612-1.572-2.8332,10.3908-2.5212,1.5744-1.8888-0.6312-1.2588,0.6312-152.425,8.5032-4.0944-5.9844-0.9432,5.9844-2.5212,2.2032-2.5176-11.0232-1.89,11.6544-2.5212-5.6688,1.2612-12.9144-1.2612-0.9432-1.8876,6.9276v9.7632l-0.9456,6.6132-1.89-1.26-2.5188-5.9832-0.3144-9.7644,0.9432-6.9276-2.5188,8.1876v10.0788l-0.3144,5.0364-3.1512-6.9276-1.5744-5.67-3.1488-6.612,1.89,8.5032v4.41l-5.3544-4.7256-2.8332-13.2252-0.63,9.7632,1.26,4.722-1.5744,1.8912-3.1488-5.67-1.8888-7.5564-2.2044-7.2444v11.6508l1.5744,6.3-1.26,1.5756-2.5188-1.26-0.9456-6.9312-0.6312-10.0752-2.5176,6.9276-0.6312,7.2408-0.9444,5.67-1.5744,3.7812-4.4088,0.3228z"/>
<path stroke="#4dcf4a" stroke-width="0.91284" d="m876.022,472.104c-0.8184-14.8848,12.6432-29.772-23.5932-44.6604"/>
<path stroke="#38bb26" stroke-width="1.14108" d="m910.572,463.678c0-19.662-11.2356-28.0872-33.7068-25.2792"/>
<path stroke="#51c757" stroke-width="0.91284" d="m922.368,472.104c-11.8752-14.298-27.7368-12.642-46.3464,0"/>
<path stroke="#51c757" stroke-width="0.91284" d="m951.86,453.566c-4.5108-8.406-20.9736-2.8692-38.7612,4.2168"/>
<path stroke="#7acb73" stroke-width="0.82164" d="m1011.69,426.602c-4.494-12.9204-12.3576-20.2248-23.5944-21.9096"/>
<path stroke="#4cb135" stroke-width="1.14108" d="m1026.86,406.376c-2.9808-6.6744-6.1008-13.0752-13.482-10.9548"/>
<path stroke="#60c85a" stroke-width="1.278" d="m845.686,459.466c3.9252-13.476-0.3324-18.7692-7.5828-21.0672"/>
<path stroke="#71ce5b" stroke-width="1.1868" d="m781.645,409.747c7.5-3.2556,13.4892-9.5316,24.4356-5.8956"/>
<path stroke="#71ce5b" stroke-width="1.1868" d="m772.375,401.323c6.1248,0.1284,10.4016,2.5188,11.796,8.4252"/>
</g>
<g stroke="#000" stroke-width="0.45648">
<path fill="#000" d="m905.36,150.642c-3.54226,3.25938-7.17643,6.25083-12.2809,4.95671-3.49269,1.43202-0.1051,9.6721-5.79256,7.97449-5.51847-4.36808-4.05772,5.21006-7.59441,7.21367-3.23212,1.03309-9.23263,2.62193-4.48171,6.4602,2.90371,2.83623,5.69451,7.76316,0.94071,10.2349-2.75484,5.18425-3.34176-4.77529-7.4259,1.07401-1.32405,5.91639,8.79055,4.62676,4.08827,9.21187-0.78856,2.74357-3.59803-6.76192-6.44736,0.79472-2.21447,3.12776-2.29966,7.74438,1.95225,9.14175,3.62127,2.07886,11.2149-1.08347,6.69187,5.02064,0.00071,3.60178-5.94797,9.58271-3.68958,2.80003,4.0639-4.71862-1.8354-6.02381-4.50767-2.80487-5.48606,3.74093-3.207,12.0658,2.15222,14.4675,1.58725,3.3247,3.19831,4.20255-0.81863,8.20386,0.54947,4.0071-0.28217,7.45192-5.56777,7.20054-2.95045,2.79703-4.93387,7.46347-10.5468,6.75851-5.38845,2.17173-6.74333-1.37286-7.75895-5.64889-1.74428-4.24891-8.86625-6.67841-11.4651-1.98322-3.11881-1.26246-7.17118-7.18853-10.3691-1.35643-2.84405,3.89495-7.34196-2.27757-10.3462,2.78933-3.49352,3.83808,2.17437,7.42167,2.99352,10.3485,4.67277,3.76705,2.15916,5.99326,1.16127,10.8641-1.69545,4.41349,6.18471,7.14548,3.74513,10.6827-3.50124,2.73566-9.13569,5.89127-7.78267,11.1306-4.96442,1.74934-4.29305,7.44363-2.75561,11.3861,2.50006,5.62804,13.0832,4.98976,12.577-1.90098,2.80156-0.3991,6.09545,5.68243,8.1378,8.63606-1.9793,2.07989-8.40314-0.42696-11.9477,1.37249-4.64835-0.47891-8.63578,4.57286-13.2739,5.25391-3.36265,1.9929-7.8415,4.58416-6.7234,9.42037,0.8343,4.06606,2.37229,8.11037,1.7734,12.29-2.22903,3.69492-4.13929,7.61192-3.95762,12.0699-1.96561,6.51342,2.42679,14.3677-3.14518,19.6989-1.57378,4.81798,2.70258,4.79602,4.60869,1.72367,2.58216,1.13252,4.21461-3.2789,3.97188-5.18394,2.26039,4.12424,3.04019-1.12915,5.08565,2.74261,4.13911-1.37458-0.94111-13.3054,1.65159-8.31367,1.97682,2.89796,3.02284,9.05703,5.87021,9.48817,3.1671-1.25364,1.55632-12.9016,3.84451-3.84111,2.47079,8.07865,3.75238,16.6026,7.83058,24.029,2.3965,6.98672,8.71819,13.5099,16.7166,12.1469,2.26668,2.14863-3.51443,6.58908-4.62453,9.62413-3.57381,2.7051-7.98711-0.78552-11.767-0.93801-3.78981,1.47298-8.14276,2.27747-10.8382,5.53593-1.72713,3.79253-3.04612,7.09939-3.4332,10.8552-0.88863,5.31036,0.13036,11.4231,5.4288,14.0472,1.32615-4.06475,0.32208-7.52903,5.988-7.1808,3.96282,2.27349-0.43644,8.10318,3.08723,11.6783,1.78178,3.71091,6.91704,8.34229,5.22056,1.031-2.01613-5.74223,3.3569-5.79493,6.61661-8.16246,4.29542-4.53022,4.97256-0.12594,4.39461,4.3024,2.40725,3.14858,7.21565-2.9313,8.38176-5.643,1.66418-3.14588,0.0985-9.92787,3.0556-8.5594,3.80813-0.98073,6.27449-4.46801,9.26253-6.94112,2.69313-5.24053,7.73558-0.0687,11.7046,0.68887,4.94459,2.13323,11.5753,1.37682,13.8037,7.37185-3.80873-1.882-8.25871,1.64004-6.864,6.3864,1.9254,4.86856,7.80907,3.45041,11.3493,2.75596,3.56187,1.46818,7.57486-3.00643,11.4073,0.29753,3.75006-0.8166,7.88442-0.30457,11.4062-2.17749,3.4679-2.8491,2.0463-9.28119-3.0312-8.2992,2.32392-3.43251,7.59164-4.39502,11.094-6.786,4.02682-0.36578,7.52934-4.83217,11.0583-4.16909,5.02567,3.47708,7.52356,9.09418,11.8431,13.1088,4.23568,0.49022,0.3119,6.3769,0.76513,9.97366-1.13344,4.34512,1.29721,10.359,4.92686,4.42063,2.18556-3.95092,8.19703-2.82151,8.52258-8.00637,1.67796-4.37996,2.81142,6.40087,7.104,5.8248,0.28878,3.34521-0.97692,11.5345,4.0692,6.1476,4.42932-4.06469,5.16729-10.2904,3.5904-15.8052,0.71023-4.51311,7.2393,2.71525,6.05479,5.95468,1.00747,4.16725,6.17809-3.60099,6.90937-5.97298,0.56765-6.08552,0.74611-13.2759-3.86336-17.9397-3.49944-1.73665-4.94891-7.1766-9.95409-6.97476-3.44514,1.89486-7.37505,5.50514-8.84411-0.82243-4.5437-4.03599,3.08055-4.31882,5.6258-6.17201,5.12321-3.23731,7.92808-8.79362,8.96725-14.5657,1.86359-5.29724,3.46296-10.6852,4.68515-16.1675,4.00765-1.44117,7.76437-4.3775,9.99505-6.80623,4.55375-8.55582,0.19862,6.4166-1.41842,9.93834,3.47934,1.53958,8.02677-1.24501,9.51677-4.9319,2.2413-2.48392,2.7348-12.2521,3.9023-4.42962,0.5192,2.70794-4.3038,10.7481-0.3951,9.32604,4.04-1.29321,7.2811-5.17916,9.1374-8.91988,1.6184-5.0203,3.2276-11.1261,1.1868-15.964,3.2478-2.22444-0.2354-11.5228-3.7512-6.4668-4.5133-0.851-3.2152-7.41982-4.0384-10.661,3.6967-5.2321,0.613-15.3666-6.5792-15.1198-3.63519-2.08391-6.535-3.01516-10.2622-4.42079-4.84246,1.51061-8.30162-3.06667-13.1193-2.27392-7.27824,0.36128,0.6124-7.96674,3.43543-5.09674,3.30081,4.25235,10.2938,6.27454,13.6909,1.07153-0.16107-3.9225-0.15243-9.32357-3.65476-12.394-0.69406-4.38556-1.86451-8.53282-4.88218-11.951-3.70561-5.44536,3.10924-6.71299,5.35331-10.1034,0.99678-4.38737-1.66522-9.19954-4.29157-12.7821,2.82357-2.82577,5.6705-8.06344,2.6352-11.652,1.12886-3.42185-6.57321-4.017-9.06677-3.68003-4.99081-0.33128-9.18147,4.22055-14.1507,4.56182-4.25118,3.46864-9.40421,5.39471-14.8732,4.01385-3.86818-0.96115-6.90044-5.20991-8.97502-7.73471-5.04291,2.76035-0.91474-5.44702-5.01013-7.84979-2.83276-3.88498-8.69936-3.05119-6.57192,2.6488-3.70572,4.52734-0.47388-6.08652-2.79033-8.26063-3.01597-7.27229-1.7811-2.05451,2.29253-0.0649,4.52782,3.1003,11.1217,1.2253,12.2539-4.33848-2.22247-3.30433,0.26012-9.82401-4.75208-9.3564-3.6689,0.56032-3.85351,9.49795-5.90822,2.19016-0.55728-4.03175-2.83103-7.38551-4.8648-10.8465,2.73143,4.79514,8.02254,9.97456,13.8913,7.01852,3.14999-2.05918,4.26721-7.17898,2.3745-10.2464,0.17684-10.6094-5.94865,5.63578-8.76097-2.75775-6.501-1.92597,12.4594-8.92611,4.68272-11.2458-2.64508,3.68241-8.39049,1.94873-8.9959-1.91707,3.27961-1.83593,6.40279-8.91899,4.23398-11.2631-4.73233-2.68508-6.56446-6.73855-5.5068-12.1777-2.7735-2.96986-9.86367,2.25059-10.2761-4.42963-0.23117-6.20499-5.88188,0.81895-8.98114-1.4233-2.33726-1.38202-4.71261-2.75526-6.92316-4.47896z"/>
<g fill="#d40000">
<path d="m904.106,194.538c-0.3108,6.8796-6.2196,5.4348-7.908,3.5532-1.6236-6.2904,7.8012-8.0148,7.908-3.5532z"/>
<path d="m907.309,194.143c0.6156,5.4336,6.8472,6.1884,8.0268,3.912,2.0592-5.1888-5.6772-8.4852-8.0268-3.912z"/>
<path stroke-linejoin="round" d="m903.481,188.9v1.1904l-0.6552,0.12-0.2376-0.2976-0.1776-1.8468-0.3576-0.1776v-0.834l0.8328-0.0588v-0.7752h-1.0116l-0.3588,0.7752-0.18,1.0716,0.42,0.894-0.42,0.7152-0.7728,0.4164-1.0728,1.014-0.7164,0.3564-1.668,0.1788-1.3692-0.6564-1.3728-1.3104s-0.5952-0.9528-0.6552-1.1916c-0.0588-0.2376-0.4176-1.0716-0.4176-1.0716l-0.3588-0.894-0.6552-0.7152-1.0128-0.12-0.2976,1.2516-0.3564,0.4764-0.8352,0.1188-0.8916-0.774-0.5964-1.0128-0.6564-1.3116-0.5364-0.894-0.774-1.1304-0.3588-0.6552-0.3564-1.5504-0.8952-1.1316-0.5952-0.9528-0.9516-0.774-1.014-0.7752h-1.1916l-0.7752-0.5952-1.1292-1.0728-0.8352-1.1316-0.534-0.6552,0.1188-0.5964,0.4164-0.5376,0.894-0.5352,0.8928-0.06,1.014-0.2376,1.0128-0.5364,0.1788-0.7152,0.1788-1.1916,1.0716-1.9068,0.4764-1.3704,0.06-1.0716,1.5492-0.2388,1.4904,0.1788,1.0716,0.2988,1.1316,0.3564,1.3104-0.6552,1.0728-1.3716,0.3564-2.382,0.4764-2.2044,0.5376-1.2504h2.742l0.9504,0.6552,0.7752-0.3564,0.714-0.3576,1.7292,0.1776h0.8928s0.7152-1.1316,1.014-1.3104c0.2964-0.1788,1.7268-2.0856,1.7268-2.0856l1.8468-0.4764,0.9528,0.12,1.3116,1.4904,1.0716,0.6552,0.954,0.06,2.2644,1.4892s0.7152,0.5952,0.954,0.4752c0.2376-0.1188,2.2656-1.0128,2.2656-1.0128l1.7844-0.1188,1.908-0.6552,0.6552,1.488s0.954,2.2644,1.2516,2.5032c0.2988,0.2376,1.4892,2.5008,1.4892,2.5008s0.5964-0.2976,0.8952-0.3576c0.2964-0.0588,1.6668,0.2988,1.6668,0.2988l3.9324,0.1788,0.5364-0.5964,0.4152,0.7152-0.534,2.7408,0.2376,2.0856,0.7152,2.8008,0.8928,1.3104,1.1928,0.0588,1.5492,1.3116,0.06,1.3104-1.1916,0.4176-1.0728-0.3576-1.3728,0.774-2.1432,1.2504-1.7892,1.788-1.5468,2.2032-1.014,2.2044-1.0116,0.7152-0.8952-0.3576-0.894,0.0588-0.4164,1.0728-0.894,1.0716-0.7752,2.7408-1.668,1.8468-1.728,0.834-1.2504,0.954h-0.8328l-1.4304-1.3716-0.6552-0.5952-0.1776-2.1444-1.3728-1.074h-1.014l1.4904,1.1928,0.06,1.608-0.8328,0.714-0.4188-0.1188-0.4152-0.834h-0.4788l-0.06,1.608-1.7868,2.0856-1.7868-1.4892-0.06-1.9068-0.8916-0.1752z"/>
<path d="m874.307,173.86,2.6616,0.0852,1.3752,2.0628,1.2024,1.2876,1.2012,0.9456,1.032,0.1704,1.9752,2.9208v0.3444l1.5444,1.374,0.4308,1.8024,0.1716,0.6012-0.0864,0.7728-0.8592,0.516-1.0308-0.1728-0.6012-0.4296-1.8876,1.632-1.2036,1.632-0.7728,0.1728-2.0628,2.232-1.0296,0.3444-1.632,1.2024-2.5764-0.0864-1.6308-1.9752-0.342-0.774-0.0864-1.5456,1.4604-1.0308,0.6864,0.7728-0.342,0.7728,0.084,0.9456,0.8604,0.3432,0.858-0.0864,3.0924-2.6628,0.7728-0.4296,1.8036-1.8024,1.1172-0.6012-0.0852-1.116-1.2888-1.9752-0.4284-1.374-0.3432-1.2888-0.342-0.9456-1.2036-1.3728-0.6876-0.774-0.258-0.7728-1.2012-0.9456-0.3432-0.1728v-0.5988h-0.005z"/>
<path fill="#a00" d="m926.009,183.908h1.3752l1.4604-0.6876,1.1172-0.9444h1.0296l0.6876,0.6864,1.1172-0.0852,0.6864-0.8592,0.258-1.0308,0.9444-1.2876,0.258-1.2888,0.8592-1.8036,0.258-1.2888-2.1468-0.0852-2.4912,2.148-1.89,0.0852-1.5456,1.632-1.2012,0.1704-1.2888,1.89-0.4284,1.1172,0.1716,1.1172,0.7692,0.5148z"/>
<path stroke-linejoin="round" d="m899.472,201.173-1.6332,1.632-0.4284,1.4592,0.6864,1.4592,1.5468,0.258,1.1172-0.6,1.0296,1.2012,0.1716,2.0616,2.0616,2.232,0.9444,0.258,0.774-0.8592,0.858-0.8592,0.0864-0.858,1.3752-0.6012,0.3432-2.5764,0.774,0.9432,1.2864-0.7728,1.6332-0.1704v-2.148l-0.6012-1.4592-1.29-0.9456-1.974-0.8592-2.1468-0.7728-1.0308,0.0864-1.8924,1.1184-2.0604,0.6852-1.6308,0.0876z"/>
<path stroke-linejoin="round" d="m912.4,200.641,3.1008-0.1416c2.1276-1.38,3.048-6.9996,4.512-10.7136,2.2716-2.9448,5.0604-3.8256,8.46-2.256l1.974,0.564,2.5368,1.9728h1.8312l1.2708,0.282,1.974,0.1416,3.5256-2.82-0.1404,2.9604-2.3976,2.1144-4.9344,1.8336-3.8076-2.2548-0.1404,0.564,8.178,9.0216h0.7044l1.41,1.41,0.7044-0.564,0.1416-2.3964,2.8212-2.5368,0.2808,3.6648,0.9864,1.8324v3.5244l-2.6784,3.384-4.2288,0.564-4.9344-3.1008-0.1404-1.41-4.5132-5.2164v2.256l2.6796,5.4984,0.4224,2.1144,0.9876,0.9876,0.7056,1.6932v2.1144l1.2672,2.9604,2.256,0.2808,0.5664-1.4088v-1.974l2.3964-2.3976,1.5516-0.1404,0.564,0.846-0.7056,0.7044-0.282,1.5516v0.9864l1.974,2.6784,0.5652,1.692-2.9616,4.5108-1.9752,0.5652-3.5232-0.5652-2.1156-1.4088h-1.128l-3.2436-4.9356-0.4212-2.3964-4.3716-6.9084-0.1428,1.41,1.6944,2.1156,0.8448,3.2424,0.8448,5.7804,2.538,4.9344,0.1404,9.1644,0.8472,0.9864h1.1256l1.4112-1.1268,1.1268-1.5504-0.282-5.358h1.5516l2.6784,1.5516,1.974,3.2424,0.7044,1.41v2.9604l-0.9852,0.1404-1.9752,2.1156-3.2436,1.4088h-5.6376l-1.2684-1.1268h-1.128l-0.8448-0.846h-1.5516l-4.3728-6.2028-0.1392-10.2924,0.564-2.2548v-3.102h-0.7044v3.102l-0.7068,1.9752-0.1404,2.8188,0.1404,7.7544,4.6524,7.4724,3.384,1.692,0.9876,1.128h-1.551l0.1416,1.128-1.2708-0.282-0.2808,0.564-0.7044-0.282-1.2708-0.8472-1.692,0.2832-1.1256,0.564h-2.9604l-1.2708-2.538-0.9852-1.974-3.384-3.102h-2.538l-0.564-1.8324,0.4236-3.2424,0.7068-2.9604v-7.896l-0.5664,9.024-1.5492,5.0748-0.5652,0.4236-0.1416,5.7792,0.9876,2.6796,3.9468,4.3704-2.6784,0.282-1.974-0.8448-2.1156,0.4212-3.2412-0.7044-3.6672-1.2684-2.3964-2.3964-1.128-2.6796-0.4236-2.6772-0.564-2.82,0.564-2.2548,0.282-2.256-1.1268,2.5368v6.0624l-1.5516-0.4224v-1.692l-1.2684-1.692-0.2808-2.256-0.4236-3.3828-0.1428-5.4984,0.1428-3.384,0.7044-3.8064-0.564-0.1416-0.4248,4.7952-0.2808,9.4452-0.9864,0.2832-2.2548,3.1008h-5.078l-1.974-1.6908,3.8076-4.0896-0.4224-3.2424-0.4248-3.8052-0.4224-6.486-4.3716,4.6524-4.9332,3.5256h-4.23l-2.3964-2.9616-0.4248-3.3828,0.2832-2.3976,2.5368-3.384,1.8312-0.2808,0.7068-0.7056,0.4224,0.564-0.9852,2.82-0.9876,2.1144,0.8448,1.974,2.3988,0.282,3.1008-4.7928,2.3964-5.64,1.8324-2.82v-1.5504l-1.6896,1.2684-1.9752,0.4236-5.7792,0.1416-3.3828-2.1156-0.5652-1.692,0.1404-1.5504,0.1428-2.1144,3.6648-2.3976,0.1404,5.0748,2.3988-1.974v-0.982l3.1008-4.0896,7.4724-6.6252h4.512l2.6772,1.974,1.1268,0.282,3.2436,3.102,0.1404,3.9468,3.8076,3.102-2.256,2.6784,0.138,1.4112,2.118,1.5504,1.9728-0.564,0.846,5.2164,2.3964,1.41,1.2684,0.1404,4.7952-5.64,2.1156-0.2808,1.2684-2.82-0.5664-2.256-0.5616-1.2768z"/>
<path d="m858.209,249.643v0.8268l1.6572,2.2476-0.1188,2.3664-8.4,4.2588-3.6648,0.2376-1.8948,1.7736-4.8504,1.5384-2.1276-0.474,0.354-1.182,0.2364-2.0112-0.2364-1.1832-1.5372-0.828v-1.8948l1.8924-0.5904-0.5928-0.8268-1.0644-0.12,0.2376-2.4828,0.4728-0.9456,0.1188-0.5928-0.1188-1.1832-0.4728-1.0644-1.302-0.3564-3.7848,1.5396-0.5916-0.5928-1.7748,1.8924-0.9468,0.1188-0.1176-1.5384-1.8924-2.4852v-0.474l-3.5484-0.5904-2.4852,3.1944h-1.7748l-1.2996-0.9456h-1.0668l-1.1808,0.708-0.7116-0.2352-1.0644,1.8936h-0.5904l-0.7116-1.5396-0.9456-1.5372-0.354-0.948,0.474-1.8912,1.5372-0.9468,1.89-0.948,1.4232-0.2352,1.6548,0.9468,0.7104,1.536,2.13-2.01,2.1276-2.3664,1.7736-0.7092,2.2488,0.354,2.4852,3.3132,2.364,0.2352,2.8404-2.0112,1.0644-0.5916,2.604,0.3552,2.6028,1.4196,2.7204,4.0212,0.474,3.9036,0.5904,1.0656,4.7316-0.3564,4.968-0.9456,2.838-0.1128z"/>
<path stroke="none" d="m861.049,244.319-1.302,5.7972,1.5372,1.656-0.1188,1.8924,0.8268,0.828,1.5384-0.828,1.5372-1.0644,1.5372-0.5928,1.7748-0.9456,0.2352-1.0656,1.8924-0.9456,2.0124-0.5928,2.6016-0.7092,2.604-0.3552-1.8924-1.302-5.442-3.5472-2.2488-0.2376-0.828,0.7092-3.192,0.1188-1.7736,0.4728-1.2996,0.7116z"/>
<path d="m887.192,238.523-3.7848-0.1188h-2.4864l-2.01-0.8268-1.656-1.656-0.2364-1.5384-1.182-1.8924-1.1832-1.1832h-1.7748l-2.4828,1.656-1.0656,2.1288-0.2352,3.4308,1.4184,2.9568,4.7316,3.5496,2.7216,0.5904,1.8948-0.8256,4.2564-1.8936,2.7216-1.7736,0.9492-1.5384-0.5964-1.0656z"/>
<path d="m878.083,233.08,2.1276-2.2464,0.1188-5.088-0.5916-0.4728,0.5916-2.0112,0.2364-1.656h-0.828l-4.614,4.3764-3.1944,0.4728-1.6536,0.948-0.12,1.182,1.302,0.828,2.3664-0.2364,1.2996,0.1188,2.9592,3.7848z"/>
<path d="m879.976,246.448,4.1388-0.3552,3.3132,0.2376,1.656,0.474,3.3132,1.7736,1.8936,0.948,3.6672-0.2376-1.4196-1.7736-1.4208-1.7748-0.948-1.7748-0.2352-1.7736-0.8256,0.2364-0.948-0.2364-1.182-1.5372-0.7092-2.2488-0.4752-2.9568-0.9444-0.12-0.7116,1.4196,0.7116,0.7092,0.708,1.4196-1.1832,1.5372-0.1176,1.1844-1.5372,1.1832-2.13,0.9468-2.0112,0.8268-2.2476,0.828-0.3552,1.0644,0,0z"/>
<path d="m910.26,241.006,0.1188,5.0868,1.7748,1.5384h1.6548l1.302-0.7092,0.3552-1.0644-1.1832-0.7092-0.474-1.4196-2.484-2.7216h-1.065v-0.001z"/>
<path d="m929.543,245.028,5.0856,3.4308,1.5384,0.474,1.4196-0.474,2.3652-1.8924,1.182-2.6028,0.12-1.8912-1.182-0.1188-1.8924,1.302-2.7216,0.2364-2.1288,0.354h-1.6572l-1.6572,0.3552-0.4716,0.8268z"/>
<path d="m944.21,241.126-0.9444,1.5384-0.9468,2.3652-2.13,2.2488,0.1188,1.6548h-0.948l0.1212,1.302,1.6536,1.2996,4.6152,0.7092,3.6684-4.7304v-1.302l-2.0124-2.3664-1.4208-0.354-1.7748-2.3652z"/>
<path d="m965.74,254.375,2.3676,1.1832v0.828l-0.9468,1.302-0.5904,2.4828-0.2376,1.5384-2.8392,0.1188-2.9568-1.0644-1.6572-1.0644h-1.5372l-0.828-0.7092-1.4184-0.9468-1.776-1.1844-1.8912-2.4828-1.3008-1.656v-1.1832l1.7748-2.2476,1.7748-0.5904h7.926l3.666-1.302,2.9568-2.484,3.5496-0.7092,0.828-0.9468,2.3664-0.474,5.9148-3.0756,3.312,0.5904,3.3132-0.1176,2.838,0.8268,1.0656,0.9468-0.5916,0.3552-1.5372-0.1188-1.7748,0.9468-0.2376,3.1944,1.4196,2.6016-0.354,0.7104-1.7748-0.1188-1.182-0.5928-0.5928-1.0644v-1.0644l-1.1808-1.656-0.9468-0.354h-2.1276l-0.7104,4.494h-1.0668l-2.0088-1.7736-2.9592-0.3564-2.0112,1.7748,0.7092,2.3664,2.9592,2.8392h1.5372l1.4196,1.6548-0.12,1.3008-2.1276-0.474-2.13-0.4716-1.7736-0.8304-1.4208,0.2376-1.656-0.948-1.656-0.708-1.0644-0.474-0.714,0.9504z"/>
<path d="m973.724,307.228-1.8816,1.7052-1.2552,2.4192-0.4476,2.508-0.8064,3.1368-0.3588,2.4192,0.3588,5.2872,0.18,2.8668,1.7016,2.6904,0.8952,0.2676,1.0752,2.1492,1.5228-4.2108,0.7188,0.5376,0.4476,3.1356,2.5092,2.1504s-2.3304-1.164-2.868-1.164-0.6264,0.6252-0.6264,0.6252l0.6264,1.344,1.4328,1.434,2.5104,0.984,4.6596,0.09-1.0752,1.0752h-3.2256l-0.8088,0.6264,1.1664,1.7028,1.4328,2.2392,2.6004,1.2552,2.6856-0.7164h0.8964l-0.4476,1.0752,1.344,0.984,1.164,1.0752,1.0764,1.1652,0.8952,0.1788v1.344l-1.6128,4.0332-0.36,1.8804-0.894,1.524-0.5376,2.328-1.6128,2.778-0.1788,0.9864h0.8064l1.164-1.5252,1.704-0.7164,2.0616-2.688s1.164,0.36,1.434-0.18c0.2676-0.5376,1.5228-4.3008,1.5228-4.3008l1.254-0.2688,0.6276-3.942,1.0752,3.6744,0.8976,4.6596-0.36,3.9432-2.3304,4.2996-0.6252,0.72,0.3576,1.4316h1.7028l1.9716-2.0628,3.4044-4.5696,1.3464-4.5696,0.7164-8.8716,1.5228,4.1232,1.434,4.0308,0.7188,3.1356-1.0764,4.122-1.344,4.8408,1.7928-1.2564,3.7644-4.212,2.9556-4.3884,0.8076-3.2256,0.7176-6.1836-0.4488-4.8384,0.1776-1.7928,0.6276-0.9852-0.09-3.2256-0.6264-1.344-2.1492,2.8668-0.8964,0.18-2.5104-1.7028-0.6252-0.18-1.434-2.0616-0.984-3.3156,0.088-3.7632h-0.5364s0.2688-3.1368,0.5364-3.9432c0.27-0.8064,0.6276-2.328,0.6276-2.328l-0.4488-3.3168-1.7016-3.1368-2.0616-1.7904-3.3144-0.9852-3.8556-1.0764-2.2392-1.7904-4.212-0.4476-2.1504,0.2688-4.032-1.8816-2.5992-0.9864-3.3144-0.0876-3.1368-0.36-1.6164,0.0936z"/>
<path d="m829.548,307.424-8.2644-0.1644-1.3224-0.6612-1.9824,1.6512h-3.8016l-4.1328,2.3148-2.8092,2.148-1.4868-0.1644-5.7864,5.2896,0.8268,4.296,0.66,1.158,0.3312,4.1328,0.1644,5.9484-1.3212,0.9936-1.9836,4.9596-1.158,4.296-0.9912,8.43,0.8268,6.2796-1.158,3.306-2.3136,3.6372-0.4956,1.818,1.9824-1.3236-0.3288-0.6612,0.9912,1.4868,2.4768-4.4628,0.9936,1.6536,0.99,0.1644v-5.6196l-1.1556-8.76,2.8092,9.0924,0.6624,3.3048,0.4956-0.1668,0.33-7.4376,1.8168,4.1328,0.1668,3.6348,0.8256,0.6624,0.498-0.9924v-5.454l-2.9772-8.76-1.4868-8.1012,3.9672,10.5792,2.3148,2.148,2.148,5.7864,1.8204,3.3048,0.3288,2.148,1.3224-0.8256,0.498-0.8256-1.158-0.8268,0.8256-0.66-0.1668-2.9748-0.99-6.9396h-0.9912l-3.4716-7.2732,3.1404,4.464h1.3224l0.1656-1.1592-1.4868-2.9748-0.33-3.4716,2.9748,4.2984,0.99-0.4956-1.6524-4.7952-0.3288-5.454,0.9912,2.3136-0.1656,2.6448,2.1492,2.646,2.148,1.1556,1.6524-1.9812-1.158-0.828-0.4944-2.3124-1.6548-1.9836v-2.646l2.3172,4.1328,2.1468,1.488,2.1492,0.4956,2.1492-1.4868,3.6348-4.1328-0.4932-0.4968-3.804,0.1668-2.9748-1.9836-2.6436-2.478v-2.1492l0.4956,0.3288,1.1556,2.316,2.1492,2.1492,2.4792,0.3288,3.1416,0.1668,3.4692-3.1404,1.8204-5.9508,0.4956-3.306-0.6612-4.1316-2.1504-4.794-1.3224-2.1492-1.1568-0.4968z"/>
<path d="m951.204,398.996-8.7624,9.0876-1.1568-0.3288-3.1404,2.6448-0.1644,2.8104,2.9748,2.316,1.158,2.148,0.8268-0.1668,2.9736,3.636,2.8116,3.9684,1.158,0.6624,0.8244,1.8168-1.4856,2.148,0.4956,1.3248,2.3136-0.3324,2.646,0.1668,1.6512,0.9912,0.6624,2.976v1.1544l1.818-0.99,1.488-2.1492,0.1656-5.2884-0.3288-1.4868,0.4932-3.9684,0.4956,5.2884,1.158,1.6536,0.8256-0.6624,0.9912,3.4728,2.1492,2.1492,1.158,1.9812,0.1668-1.32-0.1668-2.6448,1.158-2.976,1.3224-3.4704,1.3224-0.828,1.1556,0.4992,1.656,1.65-0.1668,0.6624,1.488-0.1668-0.3324-3.966-2.1468-2.976-3.3072-2.1456-1.6524-1.6524-1.4868-2.6448,2.3136,1.3212,2.4792,2.3148,2.3136,1.158,1.6536,0.3288,2.8116,5.4552,1.818,2.6448,0.33-3.636,1.3224-4.134,1.3236-1.8168,1.6524-0.1668,2.1492,0.6624-0.4968-2.4804-1.6524-3.1404-3.306-2.9736-3.4716-2.6448-2.9736-1.3248-2.6472,2.316-0.8256,0.3288-1.488,1.3248-1.1556-0.4956-3.8028-3.6396-0.9912-0.6588-1.6524-3.9684-2.4804-1.158-3.8016,0.3324-4.632-0.9936z"/>
<path d="m851.863,396.848,0,0,1.158,1.9812,0.9924,3.1404,1.6512,1.8204-0.1644,0.99,2.3136,1.9824,2.3136,3.636,3.8028,3.1392-2.8104,2.4816-6.612,4.9596-2.1492,0.6624-2.8092-1.6572,0.33,3.9684,1.1568,1.8204-2.9748-0.6624-3.4728,0.3288-2.148,1.8204-0.4968,1.8168-0.8256-1.3212-1.158-1.8204-0.33-0.3288-0.66,0.4956,0.4956,0.3288,0.1644,3.306-0.8256,0.6624-0.1668,0.9912-3.8004,2.478-0.9912-2.478-1.3248-2.8104-2.3136-1.158-2.478,0.3324-2.8104,1.6524,0.8256-2.3148,1.6536-2.6448,3.1392-2.6436,3.1404-1.9824,2.4792-0.9912,0.6624-0.3324-0.828-0.8256-4.626,1.3212-3.3072,2.1492-3.4716,2.4804-2.6436,3.7992-1.3224,0.9912v-2.808l-1.4892-3.8016-0.4956-2.4816-1.488-1.8168h-1.8168l-2.4792,0.4956,1.8192-3.1392,3.6348-1.9824,1.6536-2.8104,2.9748-2.4816,2.4792-0.4956,3.6372,0.4956,1.8156,0.9948,3.474,0.1632,2.1468-0.1632,2.646-1.3248,2.1492-3.9684,2.9736-4.2948,3.474-1.8192,4.1328-0.3264z"/>
</g>
<path fill="#000" d="m892.877,173.292v2.0844l-0.7752,1.2504h-1.3704l-0.8328,0.894-0.2388,0.7152,1.5492,1.4292,1.4292,1.0128,0.5952,0.7164,0.3588,0.1776,5.958-0.06,0.714,0.7152,1.3116-0.9528,1.6104-2.4432,5.064,0.06,2.6796,1.9656,0.1788,1.6092,0.5964,0.2388,1.428-1.2504,1.1916-0.0588,0.5952,0.774h1.074l3.5148-3.1584,0.5964-0.834,1.3104-0.06-0.1776-1.0128-1.4292-0.3576-1.2504-1.2504-0.3588-2.0856-1.1316-0.1776-1.9656,1.0128-3.396,1.668-1.1328,0.834-1.0128,0.0588s-0.4164-0.3564-0.6552-0.3564h-1.3104l-1.074,0.894h-0.834l-0.2976-0.2988-4.5876-0.3576-3.8124-0.9528-1.968-1.3104-1.2504-1.0128-0.3588-0.3564-0.5352,0.2364z"/>
<g fill="#fff">
<path d="m895.739,178.772h2.6208l0.6552,0.5364v0.714l-1.2504,0.5364-2.2056,0.1188-1.5492-0.2376-1.074-0.954-0.2364-1.9056,1.428-1.6092h1.3716l0.12,0.5364,0.12,2.2644z"/>
<path d="m913.254,178.654-0.4164,0.3564v0.7152l0.534,0.3576,2.6232,0.12,2.8596-2.2632,0.06-0.8952-1.7256-1.4892h-1.4904l-0.2388,0.4164,0.3588,0.7752,0.4752,0.7152-0.4752,0.9528-2.5644,0.2388z"/>
</g>
<g fill="#48489c">
<path fill="#5656a6" d="m819.408,249.526,1.5384,2.7192-0.1176,4.8504-0.5928,0.5928-2.2464-1.8936-1.1844-1.6548-1.1832-2.0112v-1.7736l1.1832-0.9468,1.5372-0.354,1.0656,0.4716z"/>
<path fill="#5656a6" d="m824.141,257.33,3.4296-7.0968v-1.8924l-1.302-1.8948h-1.7748l-1.8912,1.7748v6.27l1.5384,2.8392z"/>
<path fill="#5656a6" d="m830.054,257.33,1.8936-0.8268,4.614-4.3776,0.7092-1.3008-0.3564-1.0644-1.2996-0.9468-0.8268-0.2364-1.8936,0.828-1.0644,1.0644-2.13,3.7848,0.354,3.0756,0,0z"/>
<path fill="#5656a6" d="m838.219,260.406-1.6572,1.1844-1.8936-0.1188-3.4284-2.3664,0.1176-0.474,2.1288-0.3552,1.8924-0.828,1.8924,0.1176,1.0668,0.9468,0.3528,1.0656-0.4716,0.828,0,0z"/>
<path d="m970,256.975h2.7216l1.5372,0.828h3.0756v1.1844l-1.7748,1.2996-3.4308,0.9468-1.5384,0.7092-1.182-0.1188-0.828-1.0644v-1.656l0.7092-1.4196,0.7104-0.7092z"/>
<path d="m988.808,253.31,0,0s1.8936-1.0668,2.2464-1.8924c0.3564-0.828,1.1832-2.604,1.1832-2.604l0.7116-3.0756-0.9456-2.6016-1.7748-0.4728-1.5372,0.1176-0.828,0.8268-0.2352,2.2488,0.8268,1.8924,0.7104,1.0644-0.1188,2.0112-0.2388,2.4852z"/>
<path d="m981.71,254.255,0,0,1.8936-0.9456,1.1808-2.2476,0.1212-2.4852-0.9468-1.8936-1.302-1.4172h-1.7748l-0.474,3.3108,1.3008,1.302v4.3764h0.001z"/>
<path d="m979.463,256.385,0.7092-0.828,0.3576-1.7748-0.7104-2.6016-1.0668-1.1832-1.2996-1.1832-1.4208-0.9456h-2.0124l-1.2996,1.0644,0.3528,2.13,2.3688,1.7736,1.8924,0.3552,2.1288,3.1932z"/>
<path d="m988.106,250.757v2.1336l-2.1324,0.306-0.1524-2.8956,2.2848,0.456z"/>
<path fill="#4f4d9f" d="m971.699,428.416-1.818,2.4804v4.1316l0.8256,1.9848-0.8256,7.7676,4.1328-5.784,1.4856-2.9772-0.1644-3.9648-1.158-1.8204-1.3224-1.1568-1.1556-0.6612z"/>
<path fill="#4f4d9f" d="m985.418,419.824-1.3224,0.3288-1.488,3.1392-0.3288,4.1316,0.8256,2.148v2.9772l0.3312,1.8168,1.4856-2.1456,2.1492-3.6384,0.3288-2.6448v-3.6348l-0.9912-1.6536-0.99-0.8244z"/>
<path fill="#4f4d9f" d="m949.384,441.308,2.1492-1.4868,1.6536-1.158,2.1504-2.808-0.3324-2.148-1.3236-0.9912-1.6524-0.6624-1.4868,0.1668-1.6536,2.3124,0.1668,4.6296,0.3288,2.1456,0,0z"/>
<path fill="#4748a5" d="m848.724,426.766,1.6524,0.6588v4.464l-2.8092,3.1404-3.1392,2.3148,0.1632-2.976-0.8256-0.9876v-3.144l0.6624-0.8256v-1.4856l2.8092-1.4904,1.4868,0.3312z"/>
<path fill="#4748a5" d="m827.234,429.409,2.3136-0.1656,2.4792,1.4856,0.9912,2.8116-1.4868,1.3236-0.8256,1.3212-0.4956,2.1492,0.33,3.4728,0.1656,3.1404-2.8092-3.474-2.3136-3.6348-0.1668-3.6348,0.8256-3.1404,0.9924-1.6548z"/>
<path fill="#4748a5" d="m819.3,425.278-0.6612,2.3124-0.8256,0.4956-0.9912,1.3236v4.9572l-1.6536-0.9876-1.818-2.316-0.9912-2.4804,0.3312-6.2796,0.8256-2.6448,1.9836-0.6624,1.9836,0.6624,1.6512,3.8016,0.1656,1.818z"/>
<path fill="#4748a5" d="m819.468,409.246-0.9924,2.4768-2.6448,1.9824c-0.4044-2.64,0.9552-4.026,3.6372-4.4592z"/>
</g>
</g>
<g stroke="#000" stroke-width="0.45648">
<g>
<path fill="#dfda4d" d="m825.559,261.236,3.1932,2.9568,2.3676,1.5372,1.8924,0.7092,2.3664,1.302h4.9692l4.494-0.474,2.2476-0.828,4.3764-0.1188,3.5496-1.656,2.6016-1.7736,2.6016-0.1176,1.4232-1.4208h1.8912l3.7836-2.8392,5.3256-2.364,5.5596-2.0112,6.0348-1.1832,2.4828,0.1176,0.9456,0.7092,1.1844,2.0112,0.4716,0.9468-0.5904,2.0112-2.2464,1.302-0.474-1.4208,1.4184-1.1832-0.354-0.7092-2.2488-0.3552h-1.5384l-1.4172,1.4196-0.2376,3.1944,1.8924,1.6548,2.0112,1.302,1.7748,0.1188,2.13-1.2996,2.8392-2.4852,1.6548-2.8392-0.474-4.14-0.9456-2.604-2.8392-2.1288-3.5484-1.4208-6.1512,0.12-3.6672,0.9456-1.4208,0.474-3.9024,2.6016-1.7748,0.1188-3.9036,2.6016-1.5396,0.5904-1.7748,0.7092-2.7204,1.1844-5.2068,2.364-3.5472,2.13-1.7748,0.2376-4.1388,2.6016-5.916,0.474-1.0644-0.5928-2.7216-0.354-1.7748-0.7116-1.7736-0.9456-2.4828-2.9568-0.7116-0.474h-2.2476l-0.7092,0.948,0.3552,2.0136z"/>
<path fill="#d9d24d" d="m894.408,251.299,0.7104,5.9148-1.3008,3.666,2.7216,0.1188h3.192l2.8392-0.5928,2.7216-0.2364,2.4852,0.1188,2.0112,0.2364,2.4828-0.9456,0.1188-1.8924-0.5916-1.656,1.182-3.6684-0.474-0.828-18.0984-0.2352z"/>
<path fill="#d9d34a" d="m922.444,257.804-0.7092,0.474-1.0644-0.474-0.5928-1.6548,1.1832-1.0656,2.6016,0.1188,2.3664,2.1288v3.0756l-3.1944,1.5396-3.3108,0.828-3.6684-1.0656-2.2476-3.0756-0.5916-2.1288,0.474-3.6684,0.5916-2.3664,3.1944-2.3664,3.4296-1.0644,4.0212-0.5928,4.6164,1.1832,9.3432,3.5496,6.27,2.8392,6.9792,3.6684,4.1412,1.8924,5.442,2.6016,3.3132,1.1832,3.7848-0.474,1.656,0.1188,3.312-1.0644,2.2476-0.2376,4.968-5.7972,2.0112-1.1832-0.2352,2.6016-3.3132,3.6684-2.838,3.1944-1.182,0.1188-1.5384,1.2996-2.9568-0.1188-6.8616,0.3564-3.312-1.0644-5.2056-1.0656-6.1512-2.7204-4.8516-2.4852-2.3664-0.3528-3.6684-1.8936-2.2464-0.2364-1.3008-0.9468-4.0236-1.182-3.3132-1.1844-3.192-0.3552-2.4852-0.354-1.182,0.7092-1.1832,1.656-0.5904,2.2476,0.828,2.7216,1.4196,0.2376,1.302-0.5904,0.4716-0.9468-0.5916-0.2364z"/>
<path fill="#ddd457" d="m852.564,388.192-1.5108,1.5072-2.3736-1.5072,1.0776-2.8044,3.8832-0.648,2.1576,3.2352-0.864,3.234-3.0204,3.018-3.6672,1.08-3.666,0.4296-4.3128-0.2136-5.8248-1.2972-4.5276-5.3904-3.4512-6.9012-2.586-5.8224-3.0204-11.862-1.5108-4.9608-0.6468-4.5288-3.234-6.2544,1.2924-1.0776,11.2152-9.9204h0.648l2.3736-2.1576,4.0956-7.764,0.432-0.4308,1.2936-4.7436-0.216-8.1948-1.0776-3.882-2.5872-4.314s-0.8628-1.5096,0-1.2936c0.8616,0.216-2.3724-3.6672-2.3724-3.6672l-3.884-4.1v-0.86l-2.802-2.8044-1.9416-1.0776h-1.5096l-0.648-0.864-2.8044-0.8616-1.2924,1.2936-0.8628,2.8044v1.0788l1.9392,0.8616,0.6468-0.4308-0.6468-1.08,0.216-1.2936,1.512-1.0776,1.7244,1.2912-0.216,3.2352-1.2936,1.5108-3.234,0.2172-2.5884-1.2948-1.0776-2.1576-0.8616-3.2328,0.8616-1.9416,1.2948-1.0776,2.1564,0.4308,3.45-0.864,1.0776-0.4308,2.8044,0.4308,1.9416,1.9416,2.1552,1.2936,5.3928,6.0396,1.5084,1.5084,2.8044,4.0992,3.4512,7.764,0.8616,5.3904-0.4296,5.3928-2.8044,7.764-3.2352,4.9596-4.5276,5.6076-7.764,6.4716-1.0776,0.2148-1.7256,2.1576,3.0204,6.4692,4.7436,19.842,3.882,8.1948,5.6076,5.8224,4.3128,2.3736,5.6088,0.648,4.9596-1.296,2.1576-1.938-0.864-1.2948z"/>
<path fill="#dbd45d" d="m861.622,392.72-0.6468,1.0764,0.8628,1.7268,2.1576,0.4308,1.5084-1.9416v-2.1588l-1.2948-2.37-1.7244-0.4344-1.9404,0.2172-2.8044,1.9416-1.5108,1.7256-0.8628,4.0968,2.1576,6.6876,3.4512,4.5276,8.6256,5.6076,9.2748,3.45,5.8212,0.8616,4.3152,4.3152,2.1564,5.1744-1.9404,3.2376-2.5884,0.2148v-1.2936l1.0776-0.2172,1.2948-1.2936-0.6468-1.2936-2.5872-1.5108-2.1564,1.7256-0.2172,3.8832,1.9392,1.9416,2.8044,0.6444,2.1576-0.8628,2.1552-2.3736,0.2184-2.8032-0.8628-4.098-3.6684-5.1732-3.8796-1.9416-9.7056-3.4524-6.2544-2.37-4.53-3.2388-4.0968-4.3116-2.3724-6.252,1.0776-4.098,2.3736-1.7268,1.2936,0.4308-0.432,1.2984z"/>
<path fill="#e5dc5e" d="m939.906,392.934,1.7256,1.0788,0.2172,1.7244-1.9416,0.8628-2.5872-0.4308v-2.586l1.5084-3.2352,4.3152-0.2172,1.9404,2.3736,1.2948,4.5276-1.2948,4.746-4.9608,4.0968-6.9012,4.746-7.548,3.234-11.214,5.3904-3.2352,2.37-2.8044,5.1768,1.7268,3.0216,2.1564,0.4308v-1.0788l-0.648-0.8628,0.4308-2.3736,1.2948-1.2924,2.586,1.5108,0.6492,3.234-2.3736,2.3736-2.5884,0.4308-4.0968-1.9416-1.2948-2.1552-0.2148-3.0228,1.7256-2.8032,3.45-3.4488,5.3928-3.0228,7.764-3.234,11.4288-5.6052,7.9788-8.628v-3.4488l-1.7256-2.1564-2.1564,0.2148z"/>
<path fill="#d7d643" d="m949.826,386.681v1.938h1.5096l1.5108-0.2148,0.6468-2.586-1.2936-1.7244-1.7256-0.2184-2.1576,0.4308-2.3712,1.7256-0.216,3.4524,1.0764,2.37,2.1576,3.234,3.882,1.9416,3.8808,1.0788,5.8248-0.4308,6.6852-3.234,6.2544-4.5288,2.5872-6.2556,3.234-11.43,4.0968-14.448,2.5884-5.3904,2.1564-1.9428-0.6468-0.8616h-1.9404l-4.9608-3.666-5.1744-3.2352-6.6864-7.9788-3.45-6.6864-1.0788-9.4884,1.9416-9.2748,4.0968-6.9012,6.6852-5.6076,6.0396-4.3128,6.0384-0.2136,0.8604,2.3712-0.8604,1.9416-1.2948-1.0788-1.9404-0.216-0.8616,3.2352,2.154,1.0776,3.882-0.4308,1.08-2.5872-0.4308-3.666-2.8044-2.5884-4.962,0.4308-3.666,0.4308-4.53,2.5884-4.7424,4.9596-3.234,4.7448-4.0992,6.6852-1.2936,6.0384,0.216,10.5684,5.3928,11.4288,4.7436,6.0396,9.2724,6.2532,1.5108,1.0788-2.8032,6.2544-4.098,13.1556-2.5872,10.5672-2.1564,4.5288-6.9012,6.0384-7.7652,3.018-6.684-0.2136-3.2352-2.3736-0.864-2.1564-0.216-3.234,1.7268-0.4308z"/>
</g>
<g fill="#5db7d2">
<path fill="#44b3cc" d="m890.873,284.615-0.33,3.3048,0.9912,7.2732,3.636,19.9992h1.8192l0.1644-3.1392-6.2808-27.438z"/>
<path fill="#50aece" d="m900.127,313.706-6.6108-28.926,4.9572,29.4216,1.6536-0.4956z"/>
<path fill="#50afce" d="m901.285,313.375,2.3136-0.8256-8.5956-27.7692,6.282,28.5948,0,0z"/>
<path fill="#50abce" d="m897.484,283.127,10.0824,28.926-1.9836,0.66-8.0988-29.586z"/>
<path fill="#50b0ce" d="m909.054,311.39-9.7524-29.2548,12.3972,28.926-2.6448,0.3288,0,0z"/>
<path fill="#50b3ce" d="m912.69,309.904-11.5704-27.9348,14.3796,28.266-2.8092-0.3312,0,0z"/>
<path fill="#64b4d1" d="m822.091,258.767-1.56,0.2388-1.9176,1.56-0.84,2.0388,0.1212,3.7176,1.3188,2.2776,2.2788,2.4,1.0788,1.7988-0.6,3.2364-3.2364,2.0388-3.4776,2.5188-1.32,2.0388-0.48,2.2776,0.1212,2.3988,0.4788,0.5988,2.6388-0.1212,1.5588-0.4776,2.3976-0.24,2.2776,0.36,3.4776,2.3988,4.9176,4.4376,2.1564,2.5188-1.5576-3.7188-0.8388-4.4376-0.6-4.4364,0.7212-2.6376,1.1988-1.68,1.3188,0.7212,1.0788-0.6,1.44,0.72,1.2-0.72,1.9176,0.6,2.3964-1.2,3.5988-2.7576h2.5176l0.7212,0.5988,1.4376-0.5988,0.84,1.2,2.9988-2.28,2.3976-1.1988,2.3976,0.9588,3.1188,0.72,1.2-1.0788,2.5176-0.1212,3.4764-0.4788,1.68,1.1988,1.6764,4.0764,1.2,1.3212,1.8,0.3576,0.9588,0.48,1.6776,4.1976,1.2,3.3576,0.6,4.0764-0.2412,1.0788,1.0788-0.1188,1.68,1.6764,1.4388,0.7212,1.1988,1.3188,0.3576,2.1576,0.9612-0.1188,0.84-1.0788,1.6788,0.36,1.4388,1.5576,1.4376,0.1212-2.52-16.6692-2.3976-1.3188-0.12-3.8364,5.6364-2.04,0.12-1.4376-0.8388-2.4-1.0788-2.1576-2.1588,0.2388,1.6776-5.3952,4.1976,4.3164-1.9188,0.2412,1.6764,6.594,7.1976-1.1988,1.3188,1.8-0.48,1.5576,0.6012,1.0788,0.3576,1.92,2.16,2.7564,5.6364,12.2304,5.3952,11.0328,2.3988-2.5176,2.5188-0.5988,2.7588-1.92,1.6776-0.6,1.1988-1.5576,3.1188-0.1212,4.6752,4.1976,0.7212-1.0788,4.4352-0.2412,1.4388,2.8776,0.2412,1.2,1.7988-0.72,4.9164,1.0776,2.9976,2.4,2.2764,0.9576,0.6012,1.2012,1.3188-1.56,0.96,0.1212,1.56,0.36,4.9152-0.36,2.52-5.0376s2.2764-4.6752,3.3588-5.8752c1.0776-1.1988,5.5152-5.9952,5.5152-5.9952l5.3952-3.5988,4.0764-2.2776,3.8376-0.48,3.5988-0.12-0.12-3.2376-1.4388-3.1176-3.5988-4.6752-0.72-3.7176v-2.28l3.1188-2.0388,3.7176-2.9976,0.1212-3.1188-1.0788-3.8376-2.16-3.2364-0.72-0.6-1.2-0.2388-1.6776,1.0776-3.3576,4.6764-3.7176,3.7188-4.5564,2.7588-5.2764,0.5988-8.3928-1.3188-5.8752-1.8-7.3164-2.7576-7.6752-3.5976-4.1964-0.8412-6.3564-3.1164-2.3976-0.1212-0.1212,1.08,1.9176,1.9176-0.4776,3.3588-1.6788,1.7976-3.1176,0.1212s0.36,0.2412-1.4388,0.72c-1.8,0.48-3.3576,0-3.3576,0l-2.9976-1.7988-2.8788-0.48h-5.7552l-6.3552,0.6012-7.1964,0.5988-3.5964,3.1188-3.1188,0.48-3.3576-0.84-3.4764-4.0764,0.12-2.2776,2.5176-3.1188-1.3188-0.12-7.9152,2.8788-4.9176,2.7564-2.6364,1.68-1.9188-0.1212-2.52,2.2788-3.1176,0.24-1.8,1.9176-0.5988-0.2388-5.0352,1.3188-4.5576,0.8388s-5.7564,0.84-6.3552,0.84c-0.6012,0-6.1152-0.72-6.1152-0.72l-4.0788-2.0388-1.9176-2.1576-1.8-1.2-2.3976-2.5164,0.1212-1.92-0.7188-0.4776z"/>
<path d="m893.774,318.595-0.1704,3.7428,2.7228-0.678-0.3408-3.5736-2.2116,0.5088,0,0z"/>
<path d="m897.348,317.575v3.0624h1.1916v-3.2328l-1.1916,0.1704z"/>
<path d="m900.071,316.895v3.4032l1.7004-0.5112-0.1704-3.0624-1.53,0.1704z"/>
<path d="m903.643,316.213,0.1716,2.5524h1.5288l0.1716-3.0624-1.872,0.51z"/>
<path d="m907.046,315.533v2.724h2.3808l-0.3396-3.0648-2.0412,0.3408z"/>
<path d="m910.788,314.683v2.5524l2.0424-0.5112-0.51-2.7228-1.5324,0.6816z"/>
</g>
<g fill="#ccc">
<path fill="#fffcfc" d="m973.633,345.67v2.6904l0.6276,0.3588,0.18,0.8952,2.7756,0.4488-0.27-0.8964-1.7928-1.7028-0.4476-1.2552-1.0728-0.5388z"/>
<path d="m916.933,309.892-0.4596-0.9156,1.5264-1.6764,2.8932-0.6072,2.286-1.83,2.8956-1.8288,3.048-0.762,3.9636,3.3516-1.3716,1.0704-1.374-0.1536-2.5896,1.6752-1.98,1.2204-1.6764-0.3048-1.5252-0.4572-0.9132,0.762h-1.374l-1.068,0.6096-2.2812-0.1536z"/>
<path d="m935.527,305.623,1.5228-0.6072h2.286l1.2204,3.3516v1.068l1.98-0.6096h3.6588l2.5896,1.2192,2.286,2.286,2.4384,1.3728h1.98v-1.068h1.9812l0.4584,0.6108,2.1324,0.3036,1.5252-0.456,0.4572,1.3716-0.3048,1.8276-0.4584,1.374,0.6096,5.7888,2.7444,9.9072,5.1816,8.3832-1.98-0.9156-4.4208-0.6096-1.3728,0.6096-1.8276-0.1524-2.1336,1.9812-1.068,0.1512-0.9132,0.7632-1.6764-2.286-6.4008-8.5344-1.6764-1.8288-3.6576-7.9236-5.0292-10.8228-0.306-4.4208-1.218-1.2192-0.6096-0.1524v-0.7632h0.001z"/>
<path d="m933.697,364.607,2.592,1.2192-0.1524-1.2192,1.8288,1.2192s1.6752,0.306,2.5896,0.1524c0.9132-0.1524,2.8956-2.1324,2.8956-2.1324l0.6096-4.1148,3.9636-6.8592,2.8932-1.6764,0.918-0.1524,2.7408-3.0492,5.1816-2.742,2.4384-0.9156,3.9636,0.762,2.8956,1.3728,0.6096,2.4384,0.4584,6.5532,1.8276,1.374,1.5252-0.7644,1.3716-1.6752,3.3516-1.2216,2.4396,0.3036-0.1536,3.0504-1.0656,5.6388-1.6764,5.9436-2.7432,9.4476-2.5896,6.708-6.402,4.878-5.0292,3.198h-8.0784l-2.4372-2.2848,3.048-0.7644,1.0668-1.8252,0.3048-3.2016-2.742-1.9812-2.7432,0.1524-3.6576,2.1348-1.374,1.8252-0.762,2.136h-1.3704l-3.0504-0.1536-2.286,1.5252-1.6752,2.1312-0.4584,3.2016,0.7644,2.2872,1.6752,1.0668,3.048-0.1536,0.7632-0.6072h0.6096l-2.7444,3.0444-3.504,3.66-4.5732,3.048-3.048,0.9132-5.0292,1.83-3.6576,1.6764-4.116,0.1524-4.2672,3.8088-2.8956,2.2884-1.9812,2.742-0.9144,4.7256v3.5028l2.2836,3.048-0.3036,0.9168-1.3716-0.156-0.7632-0.6072h-3.3516l-0.9156-1.3728-1.6764,0.306-2.4372,0.7608-1.068,1.0692-1.8288-0.9168,1.068-2.742,0.1524-2.5896-0.762-3.5076-2.286-4.5732-1.98-2.1312-3.5076-2.1348-6.7056-1.9824-7.314-2.7384-5.334-2.5944-1.9812-3.048-0.7632-3.8088,1.2204,1.2192-1.068-4.2672,1.524,1.9788,1.0692,0.1524,3.048,3.8124,2.4384,0.4584,0.6096,0.3024h0.7608l0.1524-0.3024,2.286,1.2192,2.592,0.7608h3.6564l-3.1992-0.7608-3.9636-1.8288-4.1148-2.2884-2.286-3.0444-0.306-1.3728-1.2192-0.1524,0.1536-0.9168,0.9144-1.0668,1.2192,0.1536,0.306,0.9132,1.2192-0.4584,1.98,1.5264,3.354,0.3024,2.4372,0.306-2.1312-1.2192-3.354-1.8288-3.3528-3.0492-1.068-0.1524-3.354-5.1792-1.8276-5.0304-1.524-5.3328v-6.2508l1.98-5.0268,2.8956-4.5732,1.6764-1.5252,1.3716,0.4572,3.5052-2.5896,2.4384-0.762,3.2016,0.15,2.4384,0.7632,3.5052,1.068,1.6752,2.1324,1.6764,0.1536,0.456,1.2192-0.9132,0.3048,1.2192,1.6764-0.4572,1.0668,1.068,1.3716-0.1524,1.98-1.98,2.2872,1.3704,2.2848-0.1536,0.7644,1.6764,1.8288,1.5252,2.2836,2.5908,0.4584,6.096,0.1536,4.4184-0.4584,2.592-0.1536-1.068-1.2192,1.8288-0.4584,2.286-0.4584,4.1148-3.1968s3.2016-5.4888,3.8112-6.2508c0.6096-0.7608,1.8276-3.3528,1.8276-3.3528l5.1816-5.334,1.98-0.762,4.5732-2.2848h4.7256l1.2216,1.3728,1.98,0.3048,1.8288,2.2848,0.9132,6.2496-2.8956,1.98h-2.436l-1.6764-1.0668-0.4584,0.9144-1.9812-0.456z"/>
<path d="m859.741,387.068s0.3588-0.7164,0.7188-0.7164c0.3588,0,1.1652-0.0876,1.1652-0.0876l0.0888-4.662s-0.6264-0.3564-0.7176-0.7164c-0.0888-0.3564-0.0888-2.0604-0.0888-2.0604l-0.6264-0.6276-0.09-18.8184-1.7928-4.8384-1.5228-2.598-1.254-0.9864-1.9728-0.1776-2.2404,1.434-1.344,0.7164-2.868-0.6252-1.074-0.7188-1.7052-0.0876-1.5228-2.778-3.1356-0.9864-1.4328-0.4476-4.3008-0.3588-1.254-0.09-1.6152,1.0764-1.8816,2.2404-1.3428,2.5968-0.1788,4.2132,0.9852,1.344v1.9704l0.4488,0.8064v1.7028l-1.434-1.7028-1.434-3.4944-0.7164-2.1504-0.6276,0.8964,0.1788,2.868,0.0888,2.328,0.8076,2.1528,0.8064,3.0444,1.344,3.8532,1.0752,4.1244,0.9864,3.9408,1.8816,3.5844,1.6128,2.2404,3.6744,3.6732,2.3292,1.6128,3.5844,1.2564,4.032-0.0876,1.2528-0.9-1.6128-1.5216s-0.2676-0.984-0.2676-1.344,0.5364-2.1516,0.5364-2.1516l1.7028-1.7928,4.9284-0.8952,1.7028,1.2552,2.2404,2.5092,1.8816,0.9816z"/>
<path d="m913.682,313.831v2.5524l1.53-0.3408-0.3384-2.2116h-1.1916z"/>
<path d="m916.234,313.151v2.0412h1.0224v-2.2116l-1.0224,0.1704z"/>
<path d="m918.448,312.98,0.1692,1.8708,1.7016-0.3384-0.1704-2.2128-1.7004,0.6804,0,0z"/>
<path d="m921.848,311.62v2.5536h1.0224l0.3396-2.5536h-1.362z"/>
<path d="m924.743,311.11v2.2128l1.3608,0.1704-0.3408-2.382h-1.02v-0.001z"/>
<path d="m927.466,310.429v2.5512l1.3608,0.1704v-2.2116l-1.3608-0.51z"/>
<path d="m930.187,309.577-0.5112,2.892h1.5324l-0.1716-2.2116-0.8496-0.6804z"/>
<path d="m932.228,309.577v2.3832l2.2128-1.0224-0.342-2.5536-1.8708,1.1928z"/>
</g>
<path fill="#76401b" stroke="none" d="m890.046,266.598-1.488,4.4628,5.1252-0.8268-3.6372-3.636,0,0z"/>
<g fill="#784421">
<path d="m932.194,351.556-4.7916,1.3248-3.306,2.6448-4.2984,4.4616-3.4716,6.282-3.966,4.794-7.2744,2.9736-6.612,0.1668-5.124-1.4856-1.818-2.8128-0.4956-3.6348-0.6612-4.464-1.488-2.8092-2.3136-2.8116-2.6448-1.818,2.8116-11.9016,0.8256-2.6448v-3.4716l0.4956-4.626,2.4792-4.1328,2.4792-2.3136,4.2972-1.9836,7.602-1.9824,7.6044-2.4792,7.9344-1.818,8.9256-2.1492,3.8016-0.33-0.33,4.9584,0.9924,1.8192-0.1668,12.8916-0.8256,11.406-0.6612,5.946z"/>
<path d="m934.014,351.391,4.6272,0.9924,3.636,2.1492,1.4868,2.148,1.9836-1.6524,0.8256-2.8116,3.4716-1.9812,5.2908-4.6284-4.4652-6.7776-2.3148-3.306-3.1404-3.6348-3.8016-6.942-4.2972-9.4224h-2.3148l-0.33,18.6768,0.1668,6.7764-0.8244,10.4136z"/>
<path fill="#a05a2c" d="m886.904,279.325,0.1668,3.4716,14.2152-4.4628v-1.3224l-14.382,2.3136z"/>
</g>
<g fill="none">
<path d="m846.526,359.353,0.6396,3.21,2.1408,3.852,4.0632,3.528-3.4224-2.46,2.5668,3.4236-4.3836-2.7804,4.2768,2.7804-4.4928-6.4188-1.3884-5.1348,0,0z"/>
<path d="m841.285,373.577-1.6044,1.7112-2.7816-0.4272,0.1068,3.5304,3.8496,5.67-3.8496-5.3472,0.108-3.6348,2.6748,0.21,1.4964-1.7124,0,0z"/>
<path d="M836.686,383.419,835.83,380.958v-2.7792l0.8556,5.2404z"/>
</g>
<g fill="#666">
<path d="m887.275,369.728-1.2828,1.2816-2.1384,0.5364s-2.1384-0.2136-2.5668-0.5364c-0.4272-0.3192-2.7816-1.71-2.7816-1.71l2.7816,1.4964h4.9188l1.0692-1.068z"/>
<path d="m890.698,374.756,0.534,3.102,2.1384,3.7404,1.3896,1.8204-4.062-8.6628,0,0z"/>
<path fill="#808080" d="m898.078,383.525-2.034-0.6384-1.818-1.7148-2.5668-4.596,2.6736,3.4224,3.7452,3.5268,0,0z"/>
<path stroke-width="0.13692" d="m880.217,371.011,0.3216,9.0912,0.8556,3.5304,1.2804,2.5668,1.7136,2.6748,0.4272-1.0692,1.818,1.2828,0.5364-0.5364-1.8204-1.8168-1.818-2.4612-1.0716-2.5668-1.1748-4.3848-0.4272-4.7052h1.4952l-0.4272-0.8556-1.7088-0.75z"/>
<path fill="#808080" stroke-width="0.13692" d="m920.644,385.344,3.4224-0.3204,3.21-2.6748,0.534-1.8204,1.4964-1.0704-0.2136,3.1032,0.7476,1.6056,2.0316,0.642,1.2828,1.1748,2.2476,0.2148,3.2076-2.0304,2.3532-2.4612,2.0328-1.8192,1.4964-0.642,0.5352-2.994h0.9624l0.2136-1.392-0.4272-2.6712-0.9624-2.568-1.2828-1.7112-2.1396-1.9248-0.9612,0.4284,2.352,2.2452,1.9248,2.46,0.1068,3.8496-0.534,1.4976-2.8884,3.3168-3.7428,4.0632-1.818,0.8556-3.8496-0.5328-1.392-1.8192-0.3204-1.2828-0.4284-1.2828v-1.4976l0.5352-1.0692-3.9564,4.4904-1.6044,0.1056-4.1712,3.5316z"/>
<path fill="#808080" stroke-width="0.22824" d="m972.088,357.323,0.8556-0.7488,0.9624,1.392,0.216,3.8484,0.1056,0.108v2.5668l-1.4952,2.7816-3.21,3.4224-3.7428,1.602-3.4236,0.4272-2.3532-0.5316-0.8556-1.392-0.534-1.3896v-3.2076l0.642-1.284,0.2136,0.6408-0.1068,3.5304,1.1748,1.3908,2.46,0.7464,2.2452-0.7464,2.6748-0.75,2.2452-1.2828,0.108-0.7488-0.8556-0.1068,0.2136-0.3204h1.2828l1.6044-3.21,0.534-2.6748v-2.1384l-0.6396-0.6408-0.3228-0.534v-0.75h0.001z"/>
<path d="m887.381,406.842-5.3484,2.5668-4.9188,1.4964-2.6748-0.4272,5.2392,1.9248,2.034-1.6032,3.2076-1.6056,2.4612-2.352,0,0z"/>
<path fill="#999" stroke-width="0.18252" d="m891.553,417.643,2.8872,0.8556,1.3896,0.5364,2.9952,0.4272-2.2464,1.3884,2.886,0.6408s-2.778,0.3228-3.2064,0.3228-1.926,0.9612-1.926,0.9612-0.3204,1.7148,0.642,1.6056c0.9648-0.108,2.352-0.3228,2.8872-0.3228s2.2464,0.3228,2.2464,0.3228l1.0704,0.8556-0.642,0.9648-4.4928,0.1056,0.6432,0.5364h3.636l-3.528,2.352,4.2756-0.1092,3.4224,1.392v0.8556l-3.3144,0.75-0.7488-1.2864-4.278,1.1772-0.8556,1.0704-1.6044-1.0704,1.2828-2.7792-0.1068-2.8884-0.642-2.2476-1.4964-3.3132-1.176-3.1032z"/>
</g>
<g fill="#e2d67e">
<path fill="#e4cb5e" stroke-width="0.22824" d="m868.889,274.852-3.4452,0.4164-2.436,0.2976-1.6044,0.9516-1.3068-0.774-0.7728,0.4752-2.9112-1.5444-3.3876,1.8432-1.6044,1.4244h-1.008l-0.774-1.0092-1.5444,1.0716-0.8916-0.8928-0.9504-0.534-6.4164,4.6344-2.3172-0.7728-1.0104,0.8916-0.4176,0.3564-0.2352,1.0092-0.9528-2.4972-0.8304,0.594-1.4256-0.4752-1.0104,1.4268-0.2376,3.7428,0.594,4.6932,1.5468,5.1696,1.4244,2.1384,1.188,0.2376,0.3576-1.4856,0.654,2.7924,0.9504,0.9492,0.2976,5.0508,3.8616,8.6748,0.3564,4.4556,0.1776,7.7232-1.4256,1.7256-1.8408,2.7924,0.0588,0.8292-1.9008,3.6252,0.1176,5.526,0.4176,0.4752,0.12,5.2872,1.4844,0.1188,1.188,1.3068,2.6148-0.2364v-1.6044l0.3564,1.8408,2.0784,2.7348,1.7832,1.4244,1.2456,0.06,0.654-0.9504-0.06-5.9412,0.4164,6.5352,1.3068-0.06,1.6656-1.4844,2.1984-0.2976,0.7128,0.06s0.594,0.3564,0.8916,0.8904c0.2964,0.534,1.3668,1.0116,1.3668,1.0116l0.7728,1.6044,0.9504,0.3564,0.4752-1.0116-0.6528-12.6552-0.654-10.3368-0.7128-13.1292-0.714-16.7568-0.1188-5.346-0.8316-0.7128,0.06-1.7232,2.0208-0.594,1.1868-0.3564-0.5352-1.6032-0.5928-5.3472v-2.0196l0.714-0.594,1.4256-0.0588,1.0104,1.188,1.9608,8.1384,1.0104,0.3564,3.564-0.06,8.0808,12.7752,2.8512,4.278,3.9216,7.3068,5.1108,7.308,1.6044,2.1384,1.0692,0.1212,0.3564-7.7844,2.2596-1.9608-1.902-13.4268-1.5444-0.2964-2.1384-1.9608-1.188,0.1776-1.188,1.9608-1.4844-1.6632-0.18-1.902-1.3668-0.8892h-1.008l-1.3092-1.782-0.7116-0.18-0.8316,0.7728-0.1788-6.0588-1.3068-2.8512-0.2376-1.7232-2.436-3.4464-2.5536-0.594s-1.128-2.556-1.128-2.9124-0.4776-1.6044-0.4776-1.6044l-1.7904-1.8456z"/>
<path fill="#dcc56a" d="m871.027,356.128-1.722-2.1972-0.594-2.3172-0.2376-4.9908-0.534-4.7544-0.9516-7.3668-1.5444-9.09-1.2468-7.3668-0.4764-4.3368-1.0092-5.1108-0.4164-3.5052-0.4164-2.9112-0.3564-4.158,1.188,3.7428,1.962,8.7336,2.196,6.06,0.8916,4.0992v2.3172l1.5456,3.3252,1.0104,4.2204,2.0784,8.9112,2.1984,7.3092,1.128,5.286,0.1776,2.0208-2.3172,0.774-1.128,0.5328-1.4256,0.7728z"/>
<path fill="#e2cc75" d="m882.613,354.348,1.2492-6.0012,1.4856-4.5744,0.6528-3.09,0.4752-2.4948-0.12-3.7428-1.0092-2.1984-4.6332-9.3276-2.7936-5.6436-1.1292-2.9124-2.0784-3.6252-2.7924-5.8224-2.496-4.3356-2.0784-3.5652-1.9608-2.616-0.5928,0.5364,1.7808,6.654,1.4844,5.7024,1.4268,6.2976,2.376,8.2584,1.3668,5.7048,1.3668,3.5052,1.3068,4.9308,3.624,11.7648,0.714,3.0888,1.7832,3.5664,0.5916-0.06,0,0z"/>
<path fill="#ddd690" d="m863.999,357.562-1.8732,1.8708,0.1704,0.6816h2.2116l0.6828-1.5324-1.1916-1.02z"/>
<path fill="#ddd690" d="m861.785,355.008,0.3408,2.0424,1.5312-0.1704,0.8496-1.53-0.1692-1.1916-1.5312,0.3408-1.0212,0.5088z"/>
<path fill="#ddd690" d="m865.528,354.158,0.5112,1.3608h2.8932v-1.02l-1.1904-0.5112-2.214,0.1704z"/>
<path fill="#ddd690" d="m865.19,351.607,0.168,1.53h2.0436l1.02-1.3632-1.1904-1.02-2.0412,0.8532z"/>
<path fill="#ddd690" d="m861.104,352.116-0.3408,1.0224,1.0224,0.51,2.214-0.51v-0.852l-2.8956-0.1704z"/>
<path fill="#ddd690" d="m861.104,349.564v1.1916l2.2128,0.1704,0.6816-1.0212-0.852-0.6804-2.0424,0.3396z"/>
<path fill="#ddd690" d="m865.528,348.544-0.3372,1.02,2.04,0.5112,1.02-0.8508-1.5288-1.0224-1.194,0.342,0,0z"/>
<path fill="#ddd690" d="m861.276,345.821-0.3408,1.5312,1.3608,0.1704,1.1916-0.8508,0.1704-1.1892-1.362-0.1728-1.02,0.5112,0,0z"/>
<path fill="#ddd690" d="m865.019,345.14v1.53l2.2128,0.5088v-2.2116l-1.0212-0.3384-1.1916,0.5112z"/>
<path fill="#ddd690" d="m862.976,342.587h-2.0412l-0.1728,2.3808,2.3832-1.02-0.1692-1.3608z"/>
<path fill="#ddd690" d="m864.677,341.906-0.8496,1.7016h2.382l1.0212-2.2104-1.362-0.3408-1.1916,0.8496z"/>
<path fill="#ddd690" d="m864.167,339.014,0.1728,1.362,2.2128-0.3408-0.8532-1.7004-1.5324,0.6792,0,0z"/>
<path fill="#ddd690" d="m861.955,339.526-1.53-0.3408,0.1716,1.8732,2.2116-0.3396-0.8532-1.1928,0,0z"/>
<path fill="#ddd690" d="m860.425,336.462-0.1704,1.7028h2.7228l-0.5112-1.7028h-2.0412z"/>
<path fill="#ddd690" d="m863.658,335.611v2.0424h2.5524l-0.5124-2.0424h-2.04z"/>
<path fill="#ddd690" d="m862.296,334.08-1.7004,2.04-0.6816-1.7004,1.1904-2.0424,1.1916,1.7028,0,0z"/>
<path fill="#ddd690" d="m863.827,332.548-0.3396,1.7028h2.2104v-1.7028l-0.8484-0.51-1.0224,0.51z"/>
<path fill="#ddd690" d="m861.104,330.508h-1.1904l-0.1704,1.362h2.0412l-0.6804-1.362z"/>
<path d="m863.488,329.996-0.3408,1.5312h1.7028v-1.5312h-1.362z"/>
<path d="m862.976,326.933-0.3396,1.53h2.3808l0.1728-1.3596-2.214-0.1704z"/>
<path d="m860.255,327.614-0.3408,2.2116,2.0412-0.8484v-1.1916l-1.7004-0.1716z"/>
<path d="m860.084,324.552-0.6804,1.3608,1.0212,0.5112,0.852-1.1916-0.3408-1.02-0.852,0.3396,0,0z"/>
<path d="m862.894,323.405-0.5376,1.128,0.882,1.5204,1.2264-0.2952,0.0516-1.7172-1.3764-0.6876-0.246,0.0516,0,0z"/>
<path d="m860,321.684-0.444,1.2276,0.8844,0.7848s0.7344-0.2928,0.7344-0.5412c0-0.2436,0.246-1.0296,0.246-1.0296l-0.9804-0.5892-0.4404,0.1476z"/>
<path d="m862.356,321.047-0.2952,1.3752,0.6876,0.4416,1.2264,0.0984s0.0492-0.9336,0.0492-1.2768c0-0.342-0.8844-0.7356-0.8844-0.7356l-0.7836,0.0972z"/>
<path d="m859.754,319.181-0.0996,1.374,1.032,0.246s0.54-0.5376,0.54-0.7344c0-0.1956-0.492-1.08-0.492-1.08l-0.9804,0.1944z"/>
<path d="m862.061,318.788-0.1968,1.1292s0.3936,0.5388,0.8844,0.5388c0.4896,0,0.6864-0.4896,0.6864-0.6852,0-0.198-0.1968-1.032-0.1968-1.032l-1.1772,0.0492z"/>
<path d="m859.655,317.267-0.342,1.1304,0.9804,0.4404,0.7368-0.9816-0.786-0.5376-0.5892-0.0516z"/>
<path d="m861.962,316.58-0.1464,1.0296s0.6852,0.4908,0.9324,0.3432c0.246-0.1464,0.5388-0.7836,0.5388-0.7836l-0.8844-0.5892h-0.4404z"/>
<path d="m858.968,314.371-0.2448,1.2756s0.7344,0.6876,0.9312,0.5904c0.198-0.0996,1.2276-0.3936,1.2276-0.3936l-0.54-1.2756s-0.6372-0.1476-0.8328-0.1476c-0.1968,0-0.5904,0-0.5412-0.0492z"/>
<path d="m861.521,313.733-0.2928,1.2264,1.6668,0.2952s0.246-1.3752-0.096-1.3752c-0.3468,0.001-1.1808-0.0972-1.278-0.1464z"/>
<path d="m859.116,312.065-0.294,0.7368,0.8328,0.6372,0.6876-0.3912-0.4428-0.9336-0.7836-0.0492z"/>
<path d="m861.618,311.574-0.636,0.9828,1.0296,0.4392,0.882-0.6852-1.2756-0.7368z"/>
<path d="m859.165,309.415-0.4416,0.7368,0.4908,0.7836,0.786-0.6384-0.8352-0.882z"/>
<path d="m860.932,308.924-0.3924,0.54,0.5892,0.7836,0.9804-0.5388,0.0984-0.4416-0.4416-0.54-0.834,0.1968z"/>
<path d="m858.919,307.402-0.4416,1.0296,0.9804,0.54,0.5424-0.6852-0.3456-0.786-0.7356-0.0984z"/>
<path d="m860.784,306.42-0.54,0.6888,0.7368,0.7356,0.9312-0.5412-0.636-0.7848-0.492-0.0984z"/>
<path d="m858.919,305.683h-0.3924v0.834l1.128-0.0984-0.1968-0.834-0.5388,0.0984z"/>
<path d="m860.441,304.702-0.0492,0.9324,1.0296-0.1476-0.0492-0.8328-0.9312,0.048z"/>
<path d="m858.674,303.967-0.342,0.4896,0.5868,0.786,0.5904-0.5412s0.1956-0.7344,0-0.7344h-0.8352z"/>
<path d="m858.772,302.347-0.4392,0.3924,0.5376,0.5388,0.6864-0.342-0.7848-0.5892,0,0z"/>
<path d="m858.919,301.121-0.54,0.7836h0.9336l-0.3936-0.7836z"/>
<path d="m860.146,301.561,0.0984,0.786h0.786l-0.8844-0.786z"/>
<path d="m860.195,302.838s-0.1944,1.0296,0,1.0296c0.1968,0,0.7368-0.1476,0.7368-0.1476l-0.7368-0.882z"/>
<path fill="#d3c55f" d="m886.307,326.544-1.0776,1.4724,0.0972,1.5228,1.4244,1.3248,1.3248-1.866-1.7688-2.454z"/>
<path fill="#d3c75f" d="m888.222,324.432-1.3248,1.9164,1.2756,2.0124,1.3248-0.8328s0.1968-1.6716-0.0492-1.9668c-0.246-0.2928-1.2756-1.1784-1.2264-1.1292z"/>
<path d="m885.767,321.733s-0.588,0.8832-0.588,1.0812c0,0.1956,0.3444,1.6176,0.3444,1.6176l0.834,1.0812s0.93-0.2952,1.0284-0.5904c0.0984-0.2916,0.4428-1.4232,0.4428-1.4232l-1.128-1.4736-0.9336-0.2928z"/>
<path fill="#d3c95f" d="m883.706,323.844-0.246,0.4896s-0.1452,1.1796,0.1476,1.3752c0.294,0.1968,1.1772,1.1304,1.1772,1.1304s0.7836-0.4908,0.7836-0.7368-0.588-1.7688-0.588-1.7688l-0.6852-0.6852-0.5892,0.1956z"/>
<path d="m881.693,320.458-0.3912,0.9312,0.4896,1.2768,0.9336,0.9324s1.0296-0.1944,1.0296-0.3936v-1.374l-0.6396-1.0788-1.0788-0.4896-0.3432,0.1956z"/>
<path d="m883.902,319.574-0.2448,0.7356s0.0984,1.032,0.294,1.128c0.1968,0.0984,0.9816,0.492,0.9816,0.492l0.6852-1.1292-0.6852-1.4232-1.0308,0.1968z"/>
<path d="m882.824,317.22-0.492,1.0788,0.2952,0.7836,0.6876,0.3444s0.7836-0.3924,0.7836-0.5892v-1.0296l-0.882-0.5412-0.3924-0.0468z"/>
<path d="m880.565,318.004-0.6372,0.834,0.246,1.032,1.0788,0.3432,0.7356-0.8844-0.5904-1.1772-0.8328-0.1476z"/>
<path d="m879.728,315.794-0.5376,0.4908v0.6384l0.834,0.6396,0.7836-0.3936-0.1956-0.8844-0.3912-0.5892-0.4932,0.0984z"/>
<path d="m881.89,315.157-0.3444,0.7848,0.4908,1.0308,0.7872-0.4416-0.15-0.8844-0.7836-0.4896,0,0z"/>
<path d="m880.417,313.048-0.1944,1.7664,1.2252-0.1968,0.2952-0.9312-0.4404-0.6888-0.8856,0.0504,0,0z"/>
<path d="m879.14,313.439c-0.1956,0.048-0.882,0.0984-0.882,0.0984l0.1968,1.7652,0.7836-0.096,0.2952-0.6384-0.0984-0.7848-0.2952-0.3444z"/>
<path d="m877.669,311.672-0.588,0.7368,0.588,0.9804,0.54-0.0984,0.342-0.7344-0.882-0.8844,0,0z"/>
<path d="m879.581,311.179-0.4896,0.5412,0.3936,0.5892,0.4908,0.0492,0.4896-0.5904-0.4404-0.5376-0.444-0.0516,0,0z"/>
<path d="m876.442,309.906-0.3444,0.9312,0.9336,0.246,0.2436-0.5892-0.2928-0.5412-0.54-0.0468,0,0z"/>
<path d="m878.062,309.415-0.0972,1.0788,1.0296-0.0984-0.0984-0.882-0.834-0.0984,0,0z"/>
<path d="m875.264,308.188,0.0492,0.9312h1.0296s0.3444-1.0788-0.0984-1.0296c-0.4416,0.0492-0.882,0.1452-0.9804,0.0984z"/>
<path d="m877.228,307.745v0.9324l1.0788-0.1476-0.2448-0.8328-0.834,0.048z"/>
<path d="m875.803,306.764h-1.0788l0.1476,0.9324,0.9804-0.0984-0.0492-0.834z"/>
<path d="m876.491,306.125-0.1476,0.8844,1.1304-0.0492v-0.8352h-0.9828z"/>
<path d="m875.412,304.702-0.0492,1.0308s1.2264,0.1956,1.2264,0c0-0.1968-0.246-0.8832-0.246-0.8832l-0.9312-0.1476z"/>
<path d="m874.724,304.8h-0.9816l0.0996,1.128h1.1772l0.1464-0.7836-0.4416-0.3444z"/>
<path d="m872.418,301.463-0.492,0.4908,1.5228,2.4048h0.9312l-0.882-1.2264s0.1464-0.588-0.0984-0.6852c-0.2436-0.0984-0.4404-0.0984-0.4404-0.0984l-0.5412-0.8856z"/>
<path d="m872.612,300.53-0.342,0.4416,1.8168,1.2264v1.0296l0.834,0.786,0.6852,0.1944-0.2436-0.8328-0.3432-0.9312-0.6888-0.5412-0.4884-0.882s-0.246-0.0492-0.4428-0.0984c-0.1944-0.0492-0.3912-0.3444-0.3912-0.3444l-0.396-0.048z"/>
</g>
<g fill="none">
<path fill="#000" d="m851.578,283.375-0.1728,7.9956,0.5112,2.5524v4.4256l0.1704,6.8064v4.5936l-3.9144-4.7664,4.0836,5.106,0.6804,4.9332,1.0224,1.8732-0.6804,2.5524,0.1704,4.2528v12.0804l-3.9144-9.528,0.3408,19.7376,0.3408-11.3988,1.362-2.0436,2.2116,5.6172,0.3396,2.5524-0.5112-9.5304"/>
<path d="m835.582,282.694-0.6804,5.106,1.362,3.5712,0.1716,4.9356-0.1716-5.4444-1.362-2.7228,0.6804-5.4456z"/>
<path d="m840.517,285.757v6.4656l1.1904,1.5312-0.3384,6.8064,1.02,2.0412v11.2296"/>
<path d="m847.492,278.101-1.3608,2.5512,0.5112,4.5948,0.3396,3.2328-0.51,5.1024"/>
<path d="m878.462,290.52-0.1728,7.8276,0.8508,4.2528,0.6816,4.5936"/>
<path d="m885.776,301.921,1.5312,17.016"/>
<path d="m842.047,327.275,0.3408,9.8688,0.6804,4.2552,0.1704,4.5924"/>
</g>
<g fill="#d38d5f">
<path d="m893.264,345.481v-1.7028l7.4868-1.7028-1.1916,0.852,0.1704,5.1048"/>
<path d="m913.682,341.226v-2.2128l7.4868-1.3608-1.7028,0.3408,0.3408,5.274"/>
<path d="m897.518,357.731v-1.7028l6.2964-1.1892-0.1716,6.2952"/>
<path d="m912.491,355.35v-2.724l6.8052-1.1904,0.3408,5.9532"/>
<path d="m890.372,333.059v4.254l-1.5312,0.3408v-2.0424l1.5312-2.5524z"/>
<path d="m893.946,332.377,0.1692,4.2552h-1.1916l-0.3396-3.744,1.362-0.5112z"/>
<path d="m896.665,331.528-1.1892,0.6792v3.4032l1.7028-0.3408-0.5136-3.7416z"/>
<path d="m899.9,330.337-1.1916,1.0212v3.0624l1.8708-0.1704-0.6792-3.9132z"/>
<path d="m903.643,329.485-1.7028,0.6804v3.4032l1.8744-0.3396-0.1716-3.744z"/>
<path d="m907.217,328.464-1.5312,0.1716v4.254l1.8732-0.3408-0.342-4.0848z"/>
<path d="m911.81,327.614-1.7004,0.6792,0.1704,2.892,1.7004-0.5088-0.1704-3.0624z"/>
<path d="m916.064,326.424-1.7004,0.8508v2.892h1.53l0.1704-3.7428z"/>
<path d="m919.468,325.402-1.362,0.6804v3.2328h1.7028l-0.3408-3.9132z"/>
<path d="m923.21,325.063-1.362,0.8496v2.5512h1.8744l-0.5124-3.4008z"/>
<path d="m927.295,323.7-1.5324,0.6816,0.1716,2.5512,1.5312-0.3396-0.1704-2.8932,0,0z"/>
<path d="m931.718,322.679-1.7016,0.8508v2.7228l2.0436-0.1704-0.342-3.4032z"/>
</g>
<g stroke-width="0.91284">
<path fill="#fffcfc" d="m891.564,368.79,26.3712-5.9544"/>
<path fill="#c87137" d="m885.096,352.285,2.7252,0.3408,44.9184-10.2096"/>
<path fill="#c87137" stroke-width="0.86724" d="m887.65,340.717,6.9756-1.0236,38.7948-10.2084"/>
<path fill="none" stroke-width="1.1868" d="m935.122,327.955,6.6348-1.1916"/>
<path fill="#fffcfc" stroke-width="1.32372" d="m935.122,341.906,14.6328-3.912"/>
</g>
</g>
<path fill="none" stroke="#000" stroke-width="8.2159" d="m767.32,145.154v253.639c3.0024,36.3156,78.6864,59.178,131.454,97.7484,69.2124-46.422,136.34-55.812,139.039-107.858l0.8424-243.529h-271.33z"/>
</g>
</svg>