<?xml version="1.0" encoding="UTF-8"?>
<svg xmlns="http://www.w3.org/2000/svg" xmlns:xlink="http://www.w3.org/1999/xlink" width="600" height="300">
<clipPath id="cp">
<path d="M0,0V75H350V150H300zM300,0H150V200H0V150z"/>
</clipPath>
<rect width="600" height="300" fill="#00247d"/>
<path d="M0,0L300,150M300,0L0,150" stroke="#fff" stroke-width="30"/>
<path d="M0,0L300,150M300,0L0,150" stroke="#cf142b" stroke-width="20" clip-path="url(#cp)"/>
<path d="M150,0V200M0,75H350" stroke="#fff" stroke-width="50"/>
<path d="M150,0V200M0,75H350" stroke="#cf142b" stroke-width="30"/>
<path d="M300,0V150H0V300H600V0z" fill="#00247d"/>
<g transform="translate(450,150)">
<g id="s1" transform="translate(0,-102)" fill="#fff">
<g id="c">
<path id="t" d="M0,-22.5V0H12" transform="rotate(18,0,-22.5)"/>
<use xlink:href="#t" transform="scale(-1,1)"/>
</g>
<use xlink:href="#c" transform="rotate(72)"/>
<use xlink:href="#c" transform="rotate(144)"/>
<use xlink:href="#c" transform="rotate(216)"/>
<use xlink:href="#c" transform="rotate(288)"/>
</g>
<g id="s7">
<use xlink:href="#s1" transform="rotate(24)"/>
<use xlink:href="#s1" transform="rotate(48)"/>
<use xlink:href="#s1" transform="rotate(72)"/>
<use xlink:href="#s1" transform="rotate(96)"/>
<use xlink:href="#s1" transform="rotate(120)"/>
<use xlink:href="#s1" transform="rotate(144)"/>
<use xlink:href="#s1" transform="rotate(168)"/>
</g>
<use xlink:href="#s7" transform="rotate(168)"/>
</g>
</svg>