<?xml version="1.0" encoding="UTF-8" standalone="no"?>
<svg
   xmlns:dc="http://purl.org/dc/elements/1.1/"
   xmlns:cc="http://creativecommons.org/ns#"
   xmlns:rdf="http://www.w3.org/1999/02/22-rdf-syntax-ns#"
   xmlns:svg="http://www.w3.org/2000/svg"
   xmlns="http://www.w3.org/2000/svg"
   xmlns:sodipodi="http://sodipodi.sourceforge.net/DTD/sodipodi-0.dtd"
   xmlns:inkscape="http://www.inkscape.org/namespaces/inkscape"
   width="599.99976"
   height="400.00012"
   viewBox="0 0 599.99976 400.00012"
   id="svg2"
   sodipodi:version="0.32"
   inkscape:version="0.47 r22583"
   sodipodi:docname="ZZ.svg"
   version="1.0">
  <metadata
     id="metadata11">
    <rdf:RDF>
      <cc:Work
         rdf:about="">
        <dc:format>image/svg+xml</dc:format>
        <dc:type
           rdf:resource="http://purl.org/dc/dcmitype/StillImage" />
      </cc:Work>
    </rdf:RDF>
  </metadata>
  <defs
     id="defs9">
    <inkscape:perspective
       sodipodi:type="inkscape:persp3d"
       inkscape:vp_x="0 : 200 : 1"
       inkscape:vp_y="0 : 1000 : 0"
       inkscape:vp_z="600 : 200 : 1"
       inkscape:persp3d-origin="300 : 133.33333 : 1"
       id="perspective69" />
    <marker
       orient="auto"
       markerHeight="3"
       markerWidth="4"
       markerUnits="strokeWidth"
       refY="5"
       refX="10"
       viewBox="0 0 10 10"
       id="ArrowStart">
      <path
         id="path2398"
         d="M 10,0 0,5 10,10 10,0 z" />
    </marker>
    <marker
       orient="auto"
       markerHeight="3"
       markerWidth="4"
       markerUnits="strokeWidth"
       refY="5"
       refX="0"
       viewBox="0 0 10 10"
       id="ArrowEnd">
      <path
         id="path2395"
         d="M 0,0 10,5 0,10 0,0 z" />
    </marker>
    <inkscape:perspective
       id="perspective2883"
       inkscape:persp3d-origin="0.5 : 0.33333333 : 1"
       inkscape:vp_z="1 : 0.5 : 1"
       inkscape:vp_y="0 : 1000 : 0"
       inkscape:vp_x="0 : 0.5 : 1"
       sodipodi:type="inkscape:persp3d" />
  </defs>
  <sodipodi:namedview
     inkscape:cy="185.26947"
     inkscape:cx="310.33812"
     inkscape:zoom="0.86445519"
     inkscape:window-height="1004"
     inkscape:window-width="1280"
     inkscape:pageshadow="2"
     inkscape:pageopacity="0.0"
     borderopacity="1.0"
     bordercolor="#666666"
     pagecolor="#ffffff"
     id="base"
     inkscape:window-x="-8"
     inkscape:window-y="-8"
     inkscape:current-layer="g2191"
     showgrid="false"
     inkscape:window-maximized="1" />
  <g
     id="g2191"
     transform="matrix(0.925905,0,0,0.92703,-0.37945624,-0.37250012)">
    <path
       id="path4"
       d="m 0.409822,0.401821 0,143.999999 647.999998,0 0,-143.999999 -647.999998,0 z"
       style="fill:#002488;fill-opacity:1;stroke:none" />
    <path
       style="fill:#008000;fill-opacity:1;stroke:none"
       id="path2271"
       d="m 410.90537,328.28114 c 0,1 3.4,3.2 7.6,5 7,3 15.4,6 77.4,28.2 26.6,9.6 37,12.4 37,9.8 0,-1 -24,-9.8 -53.4,-19.4 -29.6,-9.8 -57,-19.4 -61,-21.6 -4.2,-2 -7.6,-2.8 -7.6,-2 z" />
    <path
       style="fill:#008000;fill-opacity:1;stroke:none"
       id="path2275"
       d="m 439.1059,345.62422 c 1.2,2 74.6,32 87,35.6 4.6,1.4 6.6,-2.4 2,-4 -1.4,-0.4 -15.2,-5.4 -30.6,-11 -23.6,-8.6 -35.4,-13 -56.8,-21.6 -1.8,-0.6 -2.4,-0.2 -1.6,1 z" />
    <path
       id="path6"
       d="m 0.4241841,143.88746 0,288 647.9999959,0 0,-288 -647.9999959,0 z"
       style="fill:#000000;fill-opacity:1;stroke:none" />
    <path
       style="fill:#008000;fill-opacity:1;stroke:none"
       id="path2245"
       d="m 214.98484,225.88363 c 2.25388,5.50273 10.24956,9.26426 20.98002,10.19013 7.26188,0.51476 3.93081,-2.61318 -6.21787,-6.30699 -4.76687,-1.52217 -10.31934,-4.39444 -12.67687,-6.10386 -4.15123,-3.2136 -4.15123,-3.2136 -2.08528,2.22072 z" />
    <g
       transform="matrix(2,0,0,2,0.309822,0.401821)"
       style="fill:#fcdd09;fill-opacity:1;stroke:none"
       id="g1319">
      <path
         style="fill:#fcdd09;fill-opacity:1;stroke:none"
         d="m 56.9933,8.0607 c -3.956043,6.515935 -4.428022,11.728022 -1.728022,20.728022 1.3,4.2 2.728022,10.471978 3.328022,13.871978 0.8,4.8 0.716206,5.256314 0.828563,6.3 1,0 3.272535,0.0038 4.323361,-0.0025 0.151098,-1.661816 0.273262,-3.57994 0.628022,-6.217589 0.413635,-3.075384 1.640426,-9.507501 2.959892,-13.975014 C 69.969879,19.838025 69.7933,14.3607 65.6933,8.1607 c -1.5,-2.3 -3.5,-4.2 -4.4,-4.2 -0.9,0 -2.935989,1.7560433 -4.3,4.1 z"
         id="path1350"
         sodipodi:nodetypes="cccccsscsc" />
      <path
         style="fill:#fcdd09;fill-opacity:1;stroke:none"
         d="m 76.421322,26.496689 c -5.6,2.4 -8.96813,9.043957 -10.807968,18.2 -0.339777,1.719275 -0.422633,2.326191 -0.593015,4.263948 1.212116,0.0049 1.688526,0.01318 2.870083,0.0061 0.258652,-1.303577 0.444911,-1.991761 1.014965,-3.842032 2.259892,-7.156044 8.915935,-10.028022 8.615935,-3.328022 -0.1,1.85 -0.880773,2.882968 -1.749872,3.874729 1.074316,-0.267859 3.355915,-1.332697 5.205915,-2.382697 10.3,-6.2 6.243957,-21.392032 -4.556043,-16.792032 z"
         id="path1354"
         sodipodi:nodetypes="ccccccccc" />
      <path
         style="fill:#fcdd09;fill-opacity:1;stroke:none"
         d="m 53.53834,51.296157 c 4.519513,0.02005 12.330516,0.05604 16.08217,0.03599 0.0044,-0.96374 0.0184,-0.471911 0.02761,-1.250692 -2.761959,-0.02301 -13.338372,0.01497 -16.088372,0.01497 0.0063,0.503849 -0.0063,0.747806 -0.02141,1.19973 z"
         id="path1356"
         sodipodi:nodetypes="ccccc" />
      <path
         style="fill:#fcdd09;fill-opacity:1;stroke:none"
         d="m 54.867502,56.58829 c -1.62921,1.756009 -4.174202,3.068824 -4.174202,3.068824 0,0 2.251345,0.253137 4.350896,0.1 2.099552,-0.153137 3.264517,-0.41514 4.505378,-1.017928 -0.336926,2.501892 -0.356274,4.917928 -0.356274,4.917928 0.305378,3.21972 0.650896,4.043726 1.349103,5.610757 0.947311,1.307171 1.498207,1.314342 2.194622,-0.06594 0.752689,-1.545519 1.248172,-3.13505 1.405379,-5.55986 -0.05466,-1.817342 -0.156275,-2.650099 -0.586703,-4.871661 1.452739,0.628635 2.370297,0.791565 4.537599,0.986702 2.217785,0.199682 4.256275,0.101793 4.256275,0.101793 0,0 -2.995763,-1.503431 -4.314342,-3.347311 -1.301582,-1.82011 -1.024005,-1.510658 -1.97042,-3.855428 -1.15,-0.05443 -6.980674,-8.47e-4 -8.830674,-8.47e-4 -1.013248,2.137648 -1.115119,2.584048 -2.366637,3.932969 z"
         id="path1358"
         sodipodi:nodetypes="cczcccccczczccs" />
      <path
         style="fill:#fcdd09;fill-opacity:1;stroke:none"
         d="m 46.634851,26.493404 c 5.6,2.4 8.96813,9.043957 10.807968,18.2 0.339777,1.719275 0.422633,2.326191 0.593015,4.263948 -1.212116,0.0049 -1.688526,0.01318 -2.870083,0.0061 -0.258652,-1.303577 -0.444911,-1.991761 -1.014965,-3.842032 -2.259892,-7.156044 -8.915935,-10.028022 -8.615935,-3.328022 0.1,1.85 0.880773,2.882968 1.749872,3.874729 -1.074316,-0.267859 -3.355915,-1.332697 -5.205915,-2.382697 -10.3,-6.2 -6.243957,-21.392032 4.556043,-16.792032 z"
         id="path1317"
         sodipodi:nodetypes="ccccccccc" />
    </g>
    <g
       style="fill:#fcdd09;fill-opacity:1;stroke:none"
       transform="matrix(2,0,0,2,200.0324,0.402181)"
       id="g1326">
      <path
         style="fill:#fcdd09;fill-opacity:1;stroke:none"
         d="m 56.9933,8.0607 c -3.956043,6.515935 -4.428022,11.728022 -1.728022,20.728022 1.3,4.2 2.728022,10.471978 3.328022,13.871978 0.8,4.8 0.716206,5.256314 0.828563,6.3 1,0 3.272535,0.0038 4.323361,-0.0025 0.151098,-1.661816 0.273262,-3.57994 0.628022,-6.217589 0.413635,-3.075384 1.640426,-9.507501 2.959892,-13.975014 C 69.969879,19.838025 69.7933,14.3607 65.6933,8.1607 c -1.5,-2.3 -3.5,-4.2 -4.4,-4.2 -0.9,0 -2.935989,1.7560433 -4.3,4.1 z"
         id="path1328"
         sodipodi:nodetypes="cccccsscsc" />
      <path
         style="fill:#fcdd09;fill-opacity:1;stroke:none"
         d="m 76.421322,26.496689 c -5.6,2.4 -8.96813,9.043957 -10.807968,18.2 -0.339777,1.719275 -0.422633,2.326191 -0.593015,4.263948 1.212116,0.0049 1.688526,0.01318 2.870083,0.0061 0.258652,-1.303577 0.444911,-1.991761 1.014965,-3.842032 2.259892,-7.156044 8.915935,-10.028022 8.615935,-3.328022 -0.1,1.85 -0.880773,2.882968 -1.749872,3.874729 1.074316,-0.267859 3.355915,-1.332697 5.205915,-2.382697 10.3,-6.2 6.243957,-21.392032 -4.556043,-16.792032 z"
         id="path1330"
         sodipodi:nodetypes="ccccccccc" />
      <path
         style="fill:#fcdd09;fill-opacity:1;stroke:none"
         d="m 53.53834,51.296157 c 4.519513,0.02005 12.330516,0.05604 16.08217,0.03599 0.0044,-0.96374 0.0184,-0.471911 0.02761,-1.250692 -2.761959,-0.02301 -13.338372,0.01497 -16.088372,0.01497 0.0063,0.503849 -0.0063,0.747806 -0.02141,1.19973 z"
         id="path1332"
         sodipodi:nodetypes="ccccc" />
      <path
         style="fill:#fcdd09;fill-opacity:1;stroke:none"
         d="m 54.867502,56.58829 c -1.62921,1.756009 -4.174202,3.068824 -4.174202,3.068824 0,0 2.251345,0.253137 4.350896,0.1 2.099552,-0.153137 3.264517,-0.41514 4.505378,-1.017928 -0.336926,2.501892 -0.356274,4.917928 -0.356274,4.917928 0.305378,3.21972 0.650896,4.043726 1.349103,5.610757 0.947311,1.307171 1.498207,1.314342 2.194622,-0.06594 0.752689,-1.545519 1.248172,-3.13505 1.405379,-5.55986 -0.05466,-1.817342 -0.156275,-2.650099 -0.586703,-4.871661 1.452739,0.628635 2.370297,0.791565 4.537599,0.986702 2.217785,0.199682 4.256275,0.101793 4.256275,0.101793 0,0 -2.995763,-1.503431 -4.314342,-3.347311 -1.301582,-1.82011 -1.024005,-1.510658 -1.97042,-3.855428 -1.15,-0.05443 -6.980674,-8.47e-4 -8.830674,-8.47e-4 -1.013248,2.137648 -1.115119,2.584048 -2.366637,3.932969 z"
         id="path1334"
         sodipodi:nodetypes="cczcccccczczccs" />
      <path
         style="fill:#fcdd09;fill-opacity:1;stroke:none"
         d="m 46.634851,26.493404 c 5.6,2.4 8.96813,9.043957 10.807968,18.2 0.339777,1.719275 0.422633,2.326191 0.593015,4.263948 -1.212116,0.0049 -1.688526,0.01318 -2.870083,0.0061 -0.258652,-1.303577 -0.444911,-1.991761 -1.014965,-3.842032 -2.259892,-7.156044 -8.915935,-10.028022 -8.615935,-3.328022 0.1,1.85 0.880773,2.882968 1.749872,3.874729 -1.074316,-0.267859 -3.355915,-1.332697 -5.205915,-2.382697 -10.3,-6.2 -6.243957,-21.392032 4.556043,-16.792032 z"
         id="path1336"
         sodipodi:nodetypes="ccccccccc" />
    </g>
    <g
       style="fill:#fcdd09;fill-opacity:1;stroke:none"
       transform="matrix(2,0,0,2,406.445,-0.299747)"
       id="g1338">
      <path
         style="fill:#fcdd09;fill-opacity:1;stroke:none"
         d="m 56.9933,8.0607 c -3.956043,6.515935 -4.428022,11.728022 -1.728022,20.728022 1.3,4.2 2.728022,10.471978 3.328022,13.871978 0.8,4.8 0.716206,5.256314 0.828563,6.3 1,0 3.272535,0.0038 4.323361,-0.0025 0.151098,-1.661816 0.273262,-3.57994 0.628022,-6.217589 0.413635,-3.075384 1.640426,-9.507501 2.959892,-13.975014 C 69.969879,19.838025 69.7933,14.3607 65.6933,8.1607 c -1.5,-2.3 -3.5,-4.2 -4.4,-4.2 -0.9,0 -2.935989,1.7560433 -4.3,4.1 z"
         id="path1340"
         sodipodi:nodetypes="cccccsscsc" />
      <path
         style="fill:#fcdd09;fill-opacity:1;stroke:none"
         d="m 76.421322,26.496689 c -5.6,2.4 -8.96813,9.043957 -10.807968,18.2 -0.339777,1.719275 -0.422633,2.326191 -0.593015,4.263948 1.212116,0.0049 1.688526,0.01318 2.870083,0.0061 0.258652,-1.303577 0.444911,-1.991761 1.014965,-3.842032 2.259892,-7.156044 8.915935,-10.028022 8.615935,-3.328022 -0.1,1.85 -0.880773,2.882968 -1.749872,3.874729 1.074316,-0.267859 3.355915,-1.332697 5.205915,-2.382697 10.3,-6.2 6.243957,-21.392032 -4.556043,-16.792032 z"
         id="path1342"
         sodipodi:nodetypes="ccccccccc" />
      <path
         style="fill:#fcdd09;fill-opacity:1;stroke:none"
         d="m 53.53834,51.296157 c 4.519513,0.02005 12.330516,0.05604 16.08217,0.03599 0.0044,-0.96374 0.0184,-0.471911 0.02761,-1.250692 -2.761959,-0.02301 -13.338372,0.01497 -16.088372,0.01497 0.0063,0.503849 -0.0063,0.747806 -0.02141,1.19973 z"
         id="path1344"
         sodipodi:nodetypes="ccccc" />
      <path
         style="fill:#fcdd09;fill-opacity:1;stroke:none"
         d="m 54.867502,56.58829 c -1.62921,1.756009 -4.174202,3.068824 -4.174202,3.068824 0,0 2.251345,0.253137 4.350896,0.1 2.099552,-0.153137 3.264517,-0.41514 4.505378,-1.017928 -0.336926,2.501892 -0.356274,4.917928 -0.356274,4.917928 0.305378,3.21972 0.650896,4.043726 1.349103,5.610757 0.947311,1.307171 1.498207,1.314342 2.194622,-0.06594 0.752689,-1.545519 1.248172,-3.13505 1.405379,-5.55986 -0.05466,-1.817342 -0.156275,-2.650099 -0.586703,-4.871661 1.452739,0.628635 2.370297,0.791565 4.537599,0.986702 2.217785,0.199682 4.256275,0.101793 4.256275,0.101793 0,0 -2.995763,-1.503431 -4.314342,-3.347311 -1.301582,-1.82011 -1.024005,-1.510658 -1.97042,-3.855428 -1.15,-0.05443 -6.980674,-8.47e-4 -8.830674,-8.47e-4 -1.013248,2.137648 -1.115119,2.584048 -2.366637,3.932969 z"
         id="path1346"
         sodipodi:nodetypes="cczcccccczczccs" />
      <path
         style="fill:#fcdd09;fill-opacity:1;stroke:none"
         d="m 46.634851,26.493404 c 5.6,2.4 8.96813,9.043957 10.807968,18.2 0.339777,1.719275 0.422633,2.326191 0.593015,4.263948 -1.212116,0.0049 -1.688526,0.01318 -2.870083,0.0061 -0.258652,-1.303577 -0.444911,-1.991761 -1.014965,-3.842032 -2.259892,-7.156044 -8.915935,-10.028022 -8.615935,-3.328022 0.1,1.85 0.880773,2.882968 1.749872,3.874729 -1.074316,-0.267859 -3.355915,-1.332697 -5.205915,-2.382697 -10.3,-6.2 -6.243957,-21.392032 4.556043,-16.792032 z"
         id="path1348"
         sodipodi:nodetypes="ccccccccc" />
    </g>
    <path
       style="fill:#008000;fill-opacity:1;stroke:none"
       id="path2217"
       d="m 113.90644,184.71039 c 5.8,8.6 12.4,14.8 25.2,23.40001 9.4,6.4 17.6,11.4 18,11 0.8,-1 -46,-44.40001 -49.2,-45.60001 -1.2,-0.4 1.4,4.6 6,11.2 z" />
    <path
       style="fill:#008000;fill-opacity:1;stroke:none"
       id="path1415"
       d="m 234.31719,230.50253 c 4.34238,2.0245 9.88702,3.6199 12.68322,3.71406 3.30463,0.11123 2.42739,-0.70091 -3.74025,-3.09989 -4.82788,-1.88431 -10.60181,-5.05262 -13.16478,-7.0172 -4.5946,-3.75469 -4.5946,-3.75469 -4.11311,-0.45151 0.27515,1.88751 3.7383,4.82154 8.33492,6.85454 z" />
    <path
       style="fill:#008000;fill-opacity:1;stroke:none"
       id="path2221"
       d="m 207.3059,191.48167 c 2.8,11.19999 14.4,31.79999 18.4,32.59999 3.6,0.6 3.6,0.4 0.6,-3 -5,-5.8 -15.8,-26.99999 -15.8,-30.99999 0,-2.2 -1,-3.8 -2.2,-3.8 -1.4,0 -1.8,2 -1,5.2 z" />
    <path
       style="fill:#008000;fill-opacity:1;stroke:none"
       id="path2495"
       d="m 87.091389,177.43814 c -0.06946,0.39392 3.684708,3.28982 8.388952,6.55633 4.704249,3.26651 10.184919,7.88843 12.004199,10.24007 3.11714,4.20518 20.77518,14.62984 22.43175,13.29726 1.62184,-1.13562 -21.12344,-19.5653 -30.740305,-24.91654 -11.447564,-6.48639 -11.841488,-6.55586 -12.084596,-5.17712 z" />
    <path
       style="fill:#008000;fill-opacity:1;stroke:none"
       id="path2223"
       d="m 93.534628,192.82475 c 0,0.4 4.2,2.6 9.400002,5 5.2,2.4 11.4,6.00001 13.6,8.00001 3.8,3.6 23,10.8 24.4,9.2 1.4,-1.4 -24.2,-15.60001 -34.6,-19.20001 -12.400002,-4.4 -12.800002,-4.4 -12.800002,-3 z" />
    <path
       style="fill:#008000;fill-opacity:1;stroke:none"
       id="path2225"
       d="m 182.73463,199.88167 c 7.6,13.99999 15.4,23.19999 18.59999,22.19999 1.6,-0.6 -1.99999,-6.4 -9.79999,-15.8 -7,-8.19999 -13,-15.39999 -13.6,-15.99999 -0.6,-0.6 1.6,3.8 4.8,9.6 z" />
    <path
       style="fill:#008000;fill-opacity:1;stroke:none"
       id="path2227"
       d="m 192.56335,194.42475 c 0,2.2 7.80001,17.40001 12.39999,23.80001 2.6,3.6 5.6,5.6 9,5.6 5,0 5,0 -2.6,-8.6 -4.4,-4.6 -10.19998,-11.6 -13.19999,-15.40001 -3,-3.8 -5.6,-6.2 -5.6,-5.4 z" />
    <path
       style="fill:#008000;fill-opacity:1;stroke:none"
       id="path2229"
       d="m 174.17511,200.8822 c 0,3 14.62014,23 16.88523,23 1.02959,0 -1.44142,-4.8 -5.76569,-10.6 -9.67812,-13.2 -11.11954,-14.6 -11.11954,-12.4 z" />
    <path
       style="fill:#008000;fill-opacity:1;stroke:none"
       id="path2249"
       d="m 160.36362,255.99524 c -13.2,5.2 -16,7 -16,9.8 0,1.2 1.4,1 3.6,-0.8 1.8,-1.8 8.4,-4.2 14.4,-5.6 6,-1.4 13.2,-3.8 16,-5.2 l 5,-2.6 -6,0 c -3.2,0.2 -11,2.2 -17,4.4 z" />
    <path
       style="fill:#008000;fill-opacity:1;stroke:none"
       id="path2474"
       d="m 122.88263,222.02078 c 9.86193,8.96784 42.84513,25.90858 59.55784,30.8931 4.52848,1.33146 11.87605,1.63686 16.02798,0.7642 l 7.74003,-1.54012 -7.63915,-4.03034 c -12.32172,-6.36986 -32.55689,-19.86274 -39.82085,-26.3708 -7.91346,-7.12302 -7.65642,-4.66254 0.39453,5.17728 3.14521,3.9633 12.44263,10.7954 20.59446,15.0648 8.22024,4.45732 13.96272,8.53944 13.02303,8.88148 -2.4432,0.88924 -25.00203,-11.97072 -42.16109,-24.0292 -18.64599,-13.21996 -19.41501,-13.57856 -12.47511,-5.03702 3.40155,4.08282 9.69127,9.66848 14.2543,12.26436 4.4435,2.85226 7.48576,5.36316 6.54606,5.70518 -1.87938,0.68406 -13.56888,-5.7031 -28.83059,-15.47246 -4.25556,-2.92066 -10.04917,-6.5585 -12.56147,-8.19812 -2.76864,-1.75916 -0.2902,0.95696 5.35003,5.92766 z" />
    <path
       style="fill:#008000;fill-opacity:1;stroke:none"
       id="path2237"
       d="m 124.33489,219.22396 -8,2.6 6,1 c 3.2,0.8 7.4,0.4 9.4,-0.6 1.8,-1 5.4,-1.8 8,-2 4.4,0 4.4,-0.2 0.6,-1.8 -5,-2.2 -6.2,-2.2 -16,0.8 z" />
    <path
       style="fill:#008000;fill-opacity:1;stroke:none"
       id="path2241"
       d="m 134.19235,224.65242 c -3.4,2.6 -3.2,2.8 4.2,1.6 4.4,-0.6 10.8,-1.8 14,-2.6 5.2,-1.4 4.8,-1.6 -4.2,-1.8 -6,-0.2 -11.6,1 -14,2.8 z" />
    <path
       style="fill:#008000;fill-opacity:1;stroke:none"
       id="path2231"
       d="m 84.505904,203.62422 c 32.999996,6 99.199996,28.2 95.199996,32 -1,1 -19.6,-3.6 -22.2,-5.4 -1,-1 -10.8,-0.6 -21.6,0.8 -20.2,2.2 -23.6,4 -23.2,12.2 0.2,4 0.2,4 1.2,0 1.8,-7.4 4.8,-9 16.2,-9 12.4,0 46.4,5 61.4,9 20,5.6 20.6,5.6 14,2 -8.6,-4.8 -21.6,-13.6 -24,-16.2 -4.4,-5 -84.199996,-27 -95.799996,-26.6 -5.4,0.4 -5.6,0.4 -1.2,1.2 z" />
    <path
       style="fill:#008000;fill-opacity:1;stroke:none"
       id="path2235"
       d="m 99.677714,214.28114 c -2.4,1.8 -5,6 -5.6,9.4 -1.2,5.8 -1.2,5.8 2,2 8.399996,-10.6 8.999996,-11 19.399996,-11.2 8.4,-0.2 9.6,-0.6 5.6,-1.8 -8.4,-2.6 -16.8,-2 -21.399996,1.6 z" />
    <path
       style="fill:#008000;fill-opacity:1;stroke:none"
       id="path2243"
       d="m 201.6208,226.6237 c 1.6,2.8 17.2,10.6 18.4,9.4 0.6,-0.6 -1.2,-2.2 -3.6,-3.6 -2.6,-1.4 -6,-3.6 -7.4,-5.2 -3.2,-3 -9.2,-3.6 -7.4,-0.6 z" />
    <path
       style="fill:#008000;fill-opacity:1;stroke:none"
       id="path1533"
       d="m 202.8241,245.62538 c 1.6,2.8 17.2,10.6 18.4,9.4 0.6,-0.6 -1.2,-2.2 -3.6,-3.6 -2.6,-1.4 -6,-3.6 -7.4,-5.2 -3.2,-3 -9.2,-3.6 -7.4,-0.6 z" />
    <path
       style="fill:#008000;fill-opacity:1;stroke:none"
       id="path3304"
       d="m 180.46458,221.81205 c 0.28776,-0.27784 4.78783,1.21517 10.1265,3.28857 5.33868,2.0734 12.23507,4.03252 15.20203,4.22573 5.22935,0.2327 23.74605,9.04249 23.5676,11.16098 -0.0345,1.97963 -28.03242,-6.57136 -37.84645,-11.55165 -11.77898,-5.86337 -12.05685,-6.15104 -11.04968,-7.12363 z" />
    <path
       style="fill:#008000;fill-opacity:1;stroke:none"
       id="path3302"
       d="m 213.59146,236.42872 c -3.73105,1.44194 -7.48321,4.0499 -8.64903,5.9156 -1.37779,2.20492 -0.21179,2.22601 4.60037,-0.19123 3.77343,-1.88716 9.2217,-3.43524 12.21084,-3.68993 5.59675,-0.27612 5.59675,-0.27612 2.03497,-2.50179 -2.03532,-1.27181 -6.36011,-1.1442 -10.19715,0.46735 z" />
    <path
       style="fill:#008000;fill-opacity:1;stroke:none"
       id="path3300"
       d="m 190.55897,250.78195 c -11.3989,10.22276 -13.91965,17.35061 -10.26844,27.94061 l 3.15677,9.06835 -0.87905,-9.17755 c -1.35906,-12.59652 2.03654,-18.32627 15.83677,-28.27782 6.48639,-4.63106 11.64129,-8.82952 11.51769,-9.20994 -0.67982,-2.09232 -13.56682,4.19781 -19.36374,9.65635 z" />
    <path
       style="fill:#008000;fill-opacity:1;stroke:none"
       id="path2215"
       d="m 119.99234,169.02448 c 6.2,11.8 31.4,39 45.4,49.4 3.8,2.8 10.6,5.6 14.8,6.2 l 7.8,1.2 -5.8,-6.4 c -9.4,-10.2 -23.8,-29.8 -28.4,-38.4 -5,-9.4 -5.6,-7 -1.4,5 1.6,4.8 8,14.4 14.2,21.2 6.2,7 10.2,12.8 9.2,12.8 -2.6,0 -19.4,-19.8 -31.4,-37 -13,-18.8 -13.6,-19.4 -10,-9 1.8,5 5.8,12.4 9.2,16.4 3.2,4.2 5.2,7.6 4.2,7.6 -2,0 -10.8,-10 -21.8,-24.4 -3,-4.2 -7.2,-9.6 -9,-12 -2,-2.6 -0.6,0.8 3,7.4 z" />
    <path
       style="fill:#008000;fill-opacity:1;stroke:none"
       id="path2239"
       d="m 184.5059,225.02422 c 0,1.4 3,5 6.6,7.8 10.6,8 38.8,21.4 42.4,20 2.2,-0.8 -1.2,-3 -10.8,-6.6 -16.8,-6.6 -32.2,-15.4 -32.2,-18.4 0,-1.6 6.6,-1.8 23,-0.8 24.6,1.4 32,-1.4 9.6,-3.4 -23.6,-2.4 -38.6,-1.8 -38.6,1.4 z" />
    <path
       style="fill:#008000;fill-opacity:1;stroke:none"
       id="path2247"
       d="m 131.7059,246.42422 c -8.6,2 -13.2,5 -13.2,8.6 0,1.4 0.8,1.2 1.8,-0.4 1.6,-2.6 18,-7.4 19.6,-5.8 0.4,0.4 -0.2,3.4 -1.4,6.4 -1.2,3 -1.6,6 -1,6.6 0.6,0.8 1.6,-0.8 2.2,-3 2.4,-8.6 9.8,-11.2 27.6,-9.6 9,0.8 19,1.8 22.2,2 3.4,0.2 8,1.4 10.4,2.8 5.2,2.8 25.4,3 23.6,0.2 -0.6,-1 -4.4,-2.4 -8.6,-3 -4,-0.6 -12.4,-2.6 -18.6,-4.2 -12.4,-3.2 -52,-3.6 -64.6,-0.6 z" />
    <path
       style="fill:#008000;fill-opacity:1;stroke:none"
       id="path3298"
       d="m 204.7397,269.51022 c -15.07353,-2.68867 -22.24227,-0.28674 -28.3394,9.11033 l -5.20246,8.0706 6.69082,-6.34296 c 9.0895,-8.82614 15.69512,-9.67795 32.03333,-4.93003 7.64279,2.26019 14.12486,3.73749 14.34853,3.40587 1.23019,-1.82388 -11.66049,-8.10632 -19.53082,-9.31381 z" />
    <path
       style="fill:#008000;fill-opacity:1;stroke:none"
       id="path2253"
       d="m 185.22133,263.93832 c -27.8,7.6 -31,10.4 -27,23 1.6,4.8 1.6,4.6 1.8,-1.6 0.2,-3.4 2,-8.2 4,-10.2 3.6,-3.6 19.8,-8.2 39.6,-11.4 4.8,-0.6 8,-2 7.4,-3 -1.6,-2.6 -8,-1.8 -25.8,3.2 z" />
    <path
       style="fill:#008000;fill-opacity:1;stroke:none"
       id="path2257"
       d="m 208.84872,273.70986 c -14,6.2 -18.6,12.2 -18.4,23.4 l 0.2,9.6 2,-9 c 2.6,-12.4 7.6,-16.8 23.8,-22 7.6,-2.4 13.8,-4.8 13.8,-5.2 0,-2.2 -14.2,-0.2 -21.4,3.2 z" />
    <path
       style="fill:#008000;fill-opacity:1;stroke:none"
       id="path2263"
       d="m 206.19154,290.8806 c -2.4,3.2 -4.2,7.4 -4.2,9.6 0,2.6 1,2 3.8,-2.6 2.2,-3.6 6,-7.8 8.4,-9.6 4.6,-3.2 4.6,-3.2 0.4,-3.2 -2.4,0 -6,2.4 -8.4,5.8 z" />
    <path
       sodipodi:nodetypes="cscccsc"
       style="fill:#008000;fill-opacity:1;stroke:none"
       id="path2267"
       d="m 422.42426,323.47354 c 6.49459,2.81433 40.18922,11.31183 64.02979,18.29352 23.84057,6.98168 51.71485,15.01937 57.88471,15.88532 8.81893,-19.22187 -7.2304,16.73142 1.92897,-5.05893 -11.90676,-3.03081 -58.83888,-14.07327 -77.6732,-19.48543 -16.23649,-4.54622 -39.26999,-11.6378 -45.16924,-12.93672 -5.89925,-1.29892 -5.98022,1.13738 -1.00103,3.30224 z" />
    <path
       sodipodi:nodetypes="cscccsc"
       style="fill:#008000;fill-opacity:1;stroke:none"
       id="path2162"
       d="m 426.54419,318.48361 c 6.58886,2.58597 40.55951,9.90236 64.62923,16.04777 24.06969,6.1454 52.2075,13.2054 58.40382,13.8555 8.14274,-19.51793 -6.64207,16.97357 1.75125,-5.12317 -12.00529,-2.61343 -59.2942,-12.01125 -78.30592,-16.76281 -16.38526,-3.9768 -39.65221,-10.2602 -45.5932,-11.35245 -5.94099,-1.09225 -5.93689,1.34539 -0.88518,3.33516 z" />
    <path
       sodipodi:nodetypes="cscccsc"
       style="fill:#008000;fill-opacity:1;stroke:none"
       id="path2183"
       d="m 417.21567,327.09956 c 6.33839,3.15038 39.54212,13.39967 62.98463,21.61951 23.4425,8.21982 50.85792,17.70533 56.97401,18.893 9.81283,-18.73398 -8.09616,16.33007 2.19109,-4.95105 -11.73183,-3.6498 -58.02171,-17.13336 -76.54696,-23.52382 -15.97631,-5.38975 -38.60711,-13.67709 -44.43029,-15.28296 -5.82319,-1.60589 -6.03154,0.82284 -1.17248,3.24532 z" />
    <path
       sodipodi:nodetypes="cscccsc"
       style="fill:#008000;fill-opacity:1;stroke:none"
       id="path2185"
       d="m 413.17114,331.19503 c 6.16483,3.47779 38.78665,15.45078 61.76684,24.88624 22.98018,9.43543 49.86159,20.34276 55.90714,21.84889 10.77984,-18.19474 -8.93971,15.88398 2.44721,-4.82959 -11.52474,-4.2588 -57.04551,-20.1465 -75.21092,-27.49774 -15.67234,-6.21849 -37.83839,-15.67888 -43.56955,-17.58732 -5.73116,-1.90844 -6.06634,0.50605 -1.34072,3.17952 z" />
    <path
       sodipodi:nodetypes="cscccsc"
       style="fill:#008000;fill-opacity:1;stroke:none"
       id="path2187"
       d="m 409.36208,336.35412 c 6.03969,3.69082 38.2238,16.795 60.8607,27.02672 22.63689,10.23168 49.12125,22.0705 55.11057,23.7867 11.40826,-17.80743 -9.48862,15.56231 2.61426,-4.74123 -11.36909,-4.65842 -56.30766,-22.12509 -74.20544,-30.10582 -15.44578,-6.76167 -37.26816,-16.98988 -42.92923,-19.09717 -5.66107,-2.10729 -6.0803,0.29403 -1.45086,3.1308 z" />
    <path
       sodipodi:nodetypes="cscccsc"
       style="fill:#008000;fill-opacity:1;stroke:none"
       id="path2189"
       d="m 405.06288,341.05545 c 5.83826,4.00186 37.29244,18.77245 59.36283,30.17487 22.07038,11.40239 47.89885,24.61108 53.79014,26.63839 12.3246,-17.18598 -10.29008,15.04438 2.85882,-4.59793 -11.10971,-5.24705 -55.07256,-25.04167 -72.52813,-33.94817 -15.07073,-7.56076 -36.32791,-18.91705 -41.87093,-21.31774 -5.54303,-2.40067 -6.08736,-0.0246 -1.61273,3.05058 z" />
    <g
       style="fill:#ffd700;fill-opacity:1;stroke:none"
       transform="matrix(1.261212,0,0,1.261212,-84.14037,151.1654)"
       id="g2400">
      <path
         style="fill:#fcdd09;fill-opacity:1;stroke:none"
         d="m 332.662,184.272 5.136,3.668 c 7.363,5.129 11.412,12.258 11.011,19.615 l -0.272,6.076 2.417,-5.978 c 2.644,-6.256 2.28,-15.729 -0.843,-22.745 l -1.822,-4.091 5.786,2.519 c 8.268,3.487 13.712,9.617 14.849,16.899 l 0.997,6 1.121,-6.352 c 1.285,-6.67 -1.039,-15.857 -5.554,-22.07 l -2.633,-3.625 6.184,1.261 c 8.812,1.692 15.411,6.557 18.038,13.444 l 2.223,5.662 -0.225,-6.447 c -0.129,-6.791 -4.314,-15.295 -10.021,-20.434 l -3.329,-2.998 6.311,-0.051 c 8.971,-0.177 16.438,3.209 20.439,9.401 l 3.35,5.074 -1.559,-6.258 c -1.538,-6.613 -7.399,-14.062 -14.05,-17.902 l -3.88,-2.241 6.163,-1.361 c 8.738,-2.041 16.746,-0.279 21.946,4.944 l 4.332,4.267 -2.827,-5.797 c -2.879,-6.15 -10.161,-12.219 -17.465,-14.592 l -4.261,-1.382 5.745,-2.614 c 8.122,-3.812 16.321,-3.754 22.494,0.272 l 5.126,3.275 -3.97,-5.084 c -4.096,-5.418 -12.48,-9.838 -20.118,-10.64 l -4.454,-0.467 5.076,-3.752 c 7.152,-5.416 15.184,-7.067 22.059,-4.41 l 5.695,2.136 -4.94,-4.146 c -5.133,-4.447 -14.253,-7.029 -21.891,-6.225 l -4.454,0.467 4.184,-4.725 c 5.87,-6.785 13.384,-10.068 20.661,-8.898 l 6.014,0.904 -5.695,-3.027 c -5.945,-3.283 -15.402,-3.912 -22.706,-1.539 l -4.261,1.383 3.11,-5.49 c 4.331,-7.858 10.998,-12.631 18.359,-13.002 l 6.071,-0.364 -6.2,-1.777 c -6.498,-1.975 -15.879,-0.623 -22.53,3.215 l -3.88,2.24 1.902,-6.018 c 2.603,-8.586 8.131,-14.64 15.255,-16.533 l 5.863,-1.619 -6.434,-0.449 c -6.767,-0.582 -15.662,2.689 -21.369,7.828 l -3.329,2.998 0.609,-6.281 c 0.76,-8.942 4.909,-16.012 11.484,-19.346 l 5.398,-2.801 -6.387,0.897 c -6.74,0.838 -14.76,5.888 -19.274,12.101 l -2.633,3.625 -0.71,-6.271 c -1.115,-8.902 1.472,-16.684 7.21,-21.309 l 4.697,-3.863 -6.061,2.205 c -6.418,2.221 -13.212,8.828 -16.336,15.844 l -1.822,4.094 -1.999,-5.987 C 356.841,27.149 357.755,19 362.406,13.283 l 3.792,-4.75498 -5.47,3.41598 c -5.816,3.507 -11.089,11.382 -12.686,18.894 l -0.931,4.383 -3.2,-5.439 c -4.64,-7.682 -5.44,-15.84 -2.08,-22.40102 l 2.72,-5.43896 -4.64,4.47796 c -4.96,4.64102 -8.48,13.44202 -8.48,21.12102 l 0,4.479 -4.261,-4.655 C 321.036,20.819 318.557,13.002 320.479,5.88702 L 322.007,0 318.4,5.34802 C 314.513,10.916 312.9,20.256 314.497,27.77 l 0.93,4.381 -5.135,-3.668 C 302.929,23.354 298.88,16.225 299.281,8.86499 L 299.552,2.789 297.135,8.77002 C 294.492,15.026 294.856,24.496 297.978,31.512 l 1.822,4.094 -5.786,-2.52 C 285.746,29.6 280.302,23.469 279.165,16.188 l -0.997,-6 -1.12,6.351 c -1.285,6.668 1.038,15.858 5.554,22.071 l 2.632,3.623 -6.183,-1.262 C 270.239,39.28 263.64,34.416 261.013,27.528 l -2.223,-5.661 0.225,6.446 c 0.129,6.791 4.314,15.295 10.021,20.433 l 3.329,2.998 -6.311,0.051 c -8.971,0.178 -16.438,-3.209 -20.439,-9.398 l -3.351,-5.076 1.56,6.257 c 1.538,6.616 7.399,14.065 14.05,17.905 l 3.879,2.24 -6.162,1.361 c -8.738,2.039 -16.746,0.28 -21.946,-4.943 l -4.333,-4.268 2.827,5.797 c 2.88,6.151 10.162,12.217 17.466,14.59 l 4.261,1.385 -5.745,2.613 c -8.123,3.813 -16.322,3.754 -22.495,-0.273 l -5.126,-3.274 3.97,5.082 c 4.096,5.418 12.48,9.838 20.118,10.641 l 4.455,0.469 -5.076,3.75 c -7.153,5.418 -15.185,7.066 -22.06,4.41 l -5.695,-2.135 4.94,4.145 c 5.133,4.449 14.253,7.029 21.891,6.226 l 4.455,-0.467 -4.185,4.723 c -5.87,6.787 -13.384,10.068 -20.661,8.9 l -6.014,-0.906 5.695,3.029 c 5.946,3.284 15.403,3.912 22.707,1.539 l 4.261,-1.384 -3.111,5.492 c -4.331,7.857 -10.998,12.631 -18.359,13 l -6.071,0.363 6.2,1.779 c 6.498,1.975 15.879,0.623 22.53,-3.216 l 3.88,-2.241 -1.901,6.018 c -2.603,8.588 -8.131,14.643 -15.255,16.535 l -5.863,1.619 6.434,0.45 c 6.767,0.58 15.662,-2.692 21.369,-7.831 l 3.329,-2.998 -0.609,6.284 c -0.76,8.939 -4.909,16.011 -11.484,19.343 l -5.398,2.803 6.387,-0.896 c 6.74,-0.838 14.76,-5.891 19.274,-12.104 l 2.633,-3.623 0.711,6.272 c 1.115,8.902 -1.473,16.681 -7.211,21.308 l -4.698,3.863 6.061,-2.205 c 6.418,-2.22 13.213,-8.83 16.337,-15.845 l 1.821,-4.092 1.999,5.984 c 2.942,8.479 2.028,16.625 -2.623,22.344 l -3.792,4.756 5.47,-3.418 c 5.816,-3.506 11.089,-11.383 12.686,-18.895 l 0.931,-4.381 3.2,5.44 c 4.64,7.68 5.44,15.84 2.08,22.4 l -2.72,5.44 4.64,-4.481 c 4.96,-4.638 8.48,-13.439 8.48,-21.119 l 0,-4.48 4.261,4.656 c 6.134,6.547 8.613,14.363 6.692,21.478 l -1.53,5.887 3.607,-5.348 c 3.887,-5.57 5.5,-14.908 3.904,-22.421 l -0.931,-4.381"
         id="path2404" />
    </g>
  </g>
</svg>