<?xml version="1.0" encoding="UTF-8"?>

<svg xmlns="http://www.w3.org/2000/svg" viewBox="0 0 960 600" xmlns:xlink="http://www.w3.org/1999/xlink" width="960" height="600">

<defs>

<radialGradient id="rgbase">
<stop stop-color="#f9f0aa" offset="0.2165"/>

<stop stop-color="#b07e09" offset="1"/>

</radialGradient>
<radialGradient id="rg1" xlink:href="#rgbase" gradientUnits="userSpaceOnUse" cx="447.41758" cy="308.26917" r="16.53415"/>
<radialGradient id="rg2" xlink:href="#rgbase" gradientUnits="userSpaceOnUse" cx="451.55806" cy="312.99521" r="10.9114"/>
<radialGradient id="rg3" xlink:href="#rgbase" gradientUnits="userSpaceOnUse" cx="454.11008" cy="308.64279" r="9.7796"/>
<radialGradient id="rg4" xlink:href="#rgbase" gradientUnits="userSpaceOnUse" cx="458.39039" cy="307.05652" r="17.35437"/>
<radialGradient id="rg5" xlink:href="#rgbase" gradientUnits="userSpaceOnUse" cx="445.97552" cy="252.36294" r="13.01791"/>
<radialGradient id="rg6" gradientUnits="userSpaceOnUse" cx="477.85817" cy="215.26555" r="0.34463">
<stop stop-color="#a50a0a" offset="0.2592"/>

<stop stop-color="#4c0505" offset="1"/>

</radialGradient>

<radialGradient id="rg7">

<stop stop-color="#fff" offset="0"/>

<stop stop-color="#fff" stop-opacity="0" offset="1"/>

</radialGradient>

<linearGradient id="lg1" gradientUnits="userSpaceOnUse" x1="473.90569" y1="259.17123" x2="472.35656" y2="231.96319">
<stop stop-color="#b07e09" stop-opacity="0" offset="0.2165"/>
<stop stop-color="#b07e09" offset="1"/>
</linearGradient>
<linearGradient id="lg2" gradientUnits="userSpaceOnUse" x1="483.12617" y1="296.65618" x2="485.49465" y2="326.58339">
<stop stop-color="#b07e09" stop-opacity="0" offset="0.2165"/>
<stop stop-color="#b07e09" offset="1"/>
</linearGradient>
<linearGradient id="lg3" gradientUnits="userSpaceOnUse" x1="451.54058" y1="249.52251" x2="455.36642" y2="240.57625">
<stop stop-color="#f9f0aa" offset="0.2165"/>
<stop stop-color="#b07e09" offset="1"/>
</linearGradient>
<linearGradient id="lg4" gradientUnits="userSpaceOnUse" x1="473.31357" y1="237.24661" x2="475.92895" y2="270.44556">
<stop stop-color="#f9f0aa" offset="0.2165"/>
<stop stop-color="#b07e09" offset="1"/>
</linearGradient>
</defs>

<rect width="960" height="600" fill="#4997d0"/>

<rect width="320" height="600" x="320" fill="#fff"/>

<g>

<g stroke="#24420e">

<g fill="none" stroke-width="0.437">
<path d="m452.12,377.48c2.67-0.40662,4.2078-1.1381,6.035-1.7864"/>

<path d="m460.37,371.64c1.3468,1.4287,2.4172,2.9497,2.9932,4.6354"/>

<path d="m455.25,371.2c1.4045,1.3127,2.3761,2.7115,3.138,4.1523"/>

<path d="m408.81,238.77c-1.0444,1.6022-3.0921,2.7264-4.7798,3.4277"/>

<path d="m403.69,242c0.035-1.3682-0.23597-3.0257,0.0496-4.3935"/>

<path d="m401.76,242.63c0.11383,0.36926,0.43502,1.401,0.67602,2.0278"/>

<path d="m404.46,245.58c-0.37821,0.0817-1.5209,0.25695-2.0278,0.33845"/>

<path d="m398.48,245.04c-0.0127,2.5201,0.28557,5.5528,0.53116,7.8214"/>

<path d="m397.22,251.9c0.47195,0.75686,0.94717,1.5041,1.545,1.8828"/>

<path d="m394.18,260.25c0.48878,0.93952,0.94259,2.1224,1.3038,3.9589"/>

<path d="m399.2,259.58c-0.41449,0.20451-1.2148,0.93057-1.9313,1.5448"/>

<path d="m398.86,265.52c-0.97864,0.87201-2.1978,1.5043-3.428,2.1244"/>

<path d="m391.62,308.05c1.1534,1.8935,2.4205,3.5595,3.9589,4.6836"/>

<path d="m396.16,314.42c-1.2944-0.16606-2.1607-0.54537-2.9451-0.96575"/>

<path d="m397.61,321.86,1.6892,0.96575"/>

<path d="m398.86,326.3c1.2548,0.81629,2.5101,2.2826,3.7653,3.8625"/>

<path d="m401.18,333.01c1.3853,0.29278,2.493,0.64106,3.2348,1.0621"/>

<path d="m403.35,336.49,2.1244,0.0725"/>

<path d="m406.68,331.18c-0.10248,1.534-0.25346,2.972-0.48266,4.2486"/>

<path d="m407.21,337.02,0.43437-1.6418"/>

<path d="m412.33,341.37-0.14573,3.2357"/>

<path d="m451.39,372.51-1.1587,1.593"/>

<path d="m447.82,370.19-0.6758-1.8343"/>
</g>

<g stroke-width="0.1639">
<path fill="#406325" d="m486.11,384.93c-0.79663-1.2555-2.1076-2.0278-3.2774-2.6556-7.7262-4.0566-15.406-5.8439-24.116-7.244-2.0126-0.33757-4.0264-2.2216-6.0868-3.187-4.9633-2.3654-10.489-3.2842-15.311-5.6975-0.32796-0.14595-1.5452-0.86939-2.1076-1.5448-1.9193-2.2221-5.3848-2.899-7.5387-4.9747-8.3347-7.8713-17.184-15.116-21.772-25.547-5.5729-12.7-12.504-25.786-11.567-40.226,0.60851-9.1267-0.75031-18.35,1.4976-27.043,3.325-12.894,7.5864-25.641,15.406-36.314l-1.3112,0.82044c-7.8669,10.674-12.127,23.422-15.452,36.315-2.2479,8.6922-0.89037,17.916-1.4989,27.043-0.93647,14.439,5.9951,27.526,11.567,40.274,4.5882,10.383,13.485,17.626,21.774,25.547,2.1539,2.027,5.6195,2.7034,7.5387,4.9729,0.56218,0.62774,1.8255,1.4014,2.1067,1.5452,4.8237,2.4146,10.349,3.332,15.313,5.6505,2.0602,1.0136,4.0736,2.8481,6.087,3.1878,8.7098,1.3992,16.388,3.2348,24.115,7.2422,1.217,0.6273,2.4819,1.401,3.2783,2.6565l1.3575-0.82154"/>
<g fill="#67923d">
<path d="m406.34,331.62c-2.7941-6.3005-1.3649-21.608-0.19817-23.53,6.6331,13.006,4.4252,23.741,0.19817,23.53z"/>
<path d="m452.2,377.01c-7.0923,0.36358-20.61,9.2946-21.864,11.396,15.085,0.11624,24.02-7.3152,21.864-11.396z"/>
<path d="m459.66,372.72c-6.8452-5.4495-14.189-23.661-14.032-26.501,15.11,10.834,18.936,24.281,14.032,26.501z"/>
<path d="m454.61,372.78c-6.9503-4.2351-15.786-20.115-15.938-22.754,15.202,8.1944,20.198,20.129,15.938,22.754z"/>
<path d="m439.05,366c0.9841-7.8223-5.6658-24.241-7.5855-25.979-2.9503,16.467,2.9971,27.573,7.5855,25.979z"/>
<path d="m411.74,341.72c-2.3045-5.6455-0.61288-19.321,0.46998-20.998,5.5198,11.696,3.2645,21.218-0.46998,20.998z"/>
<path d="m398.03,264.89c3.5892-6.6479,18.381-15.712,20.99-15.931-6.7705,14.569-18.037,19.829-20.99,15.931z"/>
<path d="m398.74,259.33c2.1485-7.2816,14.874-19.265,17.36-20.034-3.7269,15.676-13.678,23.179-17.36,20.034z"/>
<path d="m426.55,358.48c-4.9917-6.176-8.0115-23.865-7.2903-26.361,11.271,12.515,12.029,25.234,7.2903,26.361z"/>
<path d="m397.9,322.02c-6.9088,1.0885-21.36-4.6362-22.921-6.3372,14.533-3.1503,24.288,2.0722,22.921,6.3372z"/>
<path d="m395.68,312.34c0.82307-5.5775,8.6653-15.809,10.361-16.66-1.11,11.958-7.4489,18.6-10.361,16.66z"/>
<path d="m447.01,370.88c-8.4752,0.4348-24.63,11.107-26.128,13.618,18.028,0.14334,28.705-8.7407,26.128-13.618z"/>
</g>
<g fill="#406325">
<path d="m406.41,331.47c4.2268,0.20997,6.4054-10.396-0.26853-23.379,1.2109,12.319,1.2078,22.309,0.26853,23.379z"/>
<path d="m417.59,351.46c-4.4741-5.4704-19.381-11.328-21.712-11.141,8.8846,12.081,19.88,15.097,21.712,11.141z"/>
<path d="m393.17,298.48c-1.1475-8.0434-12.334-22.713-14.743-23.969,1.5168,17.175,10.548,26.697,14.743,23.969z"/>
<path d="m401.56,332.77c-4.9928-3.6812-18.971-5.3442-20.94-4.723,10.137,8.3046,20.212,8.4582,20.94,4.723z"/>
<path d="m392.2,307.94c-2.8852-5.6898-14.812-13.482-16.892-13.701,5.5172,12.387,14.558,16.939,16.892,13.701z"/>
<path d="m394.93,260.4c0.90544-7.573-5.5329-23.446-7.3449-25.158-2.8662,15.925,2.918,26.664,7.3449,25.158z"/>
<path d="m399.4,245.48c2.6582-6.4958,0.756-22.429-0.52176-24.417-6.4032,13.509-3.8276,24.648,0.52176,24.417z"/>
<path d="m404.42,237.83c3.1363-4.7713,4.1621-17.685,3.4848-19.47-7.2359,9.7147-6.9582,18.944-3.4848,19.47z"/>
<path d="m410.37,231.69c4.4018-3.4769,9.2242-15.501,9.0837-17.433-9.7398,6.9542-12.221,15.841-9.0837,17.433z"/>
<path d="m394.32,274.89c0.10772,0.86786-0.97776-8.1807-10.054-18.314,0.40902,14.818,6.2503,20.421,10.054,18.314z"/>
<path d="m426.88,360.67c-6.1755-4.5593-23.385-6.7285-25.767-5.9267,12.562,10.355,24.878,10.551,25.767,5.9267z"/>
<path d="m438.95,365.91c-4.5421,1.593-10.443-9.4167-7.5398-25.883,2.8105,13.955,6.181,25.063,7.5398,25.883z"/>
<path d="m452.25,377.06c2.1159,4.0815-6.7004,11.436-21.787,11.315,11.952-4.8908,21.239-9.8613,21.787-11.315z"/>
<path d="m459.64,372.59c4.8646-2.2494,1.1006-15.536-14.009-26.369,8.5947,13.214,14.455,24.609,14.009,26.369z"/>
<path d="m454.57,372.67c4.2779-2.6663-0.68957-14.444-15.891-22.639,9.404,11.183,16.095,20.967,15.891,22.639z"/>
<path d="m411.78,341.68c3.7347,0.22155,5.9566-9.2618,0.47698-20.924,0.71841,10.974,0.41841,19.978-0.47698,20.924z"/>
<path d="m398.02,264.94c2.9514,3.8975,14.055-1.3092,20.837-15.923-10.165,9.3385-19.225,16.064-20.837,15.923z"/>
<path d="m398.86,259.33c3.6818,3.1446,13.542-4.3017,17.269-19.977-8.0961,11.245-15.644,19.736-17.269,19.977z"/>
<path d="m426.58,358.42c4.7402-1.1248,3.9539-13.784-7.2536-26.272,5.0127,13.416,8.0159,24.756,7.2536,26.272z"/>
<path d="m397.71,321.96c1.4071-4.2401-8.2971-9.3693-22.803-6.259,12.261,2.1948,22.043,5.0424,22.803,6.259z"/>
<path d="m395.77,312.35c2.9031,1.8871,9.1781-4.6592,10.286-16.617-4.674,9.1814-9.1663,16.265-10.286,16.617z"/>
<path d="m446.97,371.03c2.5758,4.8764-7.9595,13.667-26.035,13.522,14.283-5.8438,25.38-11.783,26.035-13.522z"/>
<path d="m399.36,326.3c-2.6584-6.2616-14.798-15.462-16.982-15.841,4.9458,13.638,14.248,19.146,16.982,15.841z"/>
</g>
<g fill="#67923d">
<path d="m392.42,273.92c4.0745-4.6657,17.469-9.134,19.599-8.8646-8.0424,10.409-17.941,12.515-19.599,8.8646z"/>
<path d="m417.49,351.51c-1.8072,3.9185-12.696,0.91615-21.646-11.152,10.885,6.8299,20.244,11.511,21.646,11.152z"/>
<path d="m393.1,298.46c-4.1951,2.7268-13.128-6.7377-14.685-23.884,6.6226,13.203,13.037,23.384,14.685,23.884z"/>
<path d="m401.52,332.8c-0.76888,3.731-10.688,3.5903-20.864-4.7173,10.729,3.4063,19.739,5.3328,20.864,4.7173z"/>
<path d="m392.07,307.85c-2.3335,3.2394-11.289-1.2692-16.807-13.657,8.1922,7.9668,15.492,13.744,16.807,13.657z"/>
<path d="m394.83,260.3c-4.4269,1.5557-10.16-9.0789-7.294-25.005,2.6667,13.488,5.9354,24.175,7.294,25.005z"/>
<path d="m399.3,245.44c-4.3039,0.22724-6.8712-10.815-0.4678-24.322-0.82219,12.797-0.50691,23.234,0.4678,24.322z"/>
<path d="m404.34,237.77c-3.4732-0.52504-3.7166-9.6555,3.5206-19.369-2.7393,9.9762-4.1512,18.366-3.5206,19.369z"/>
<path d="m410.32,231.69c-3.1365-1.6426-0.70137-10.431,9.0376-17.337-5.5251,8.6441-9.3179,16.178-9.0376,17.337z"/>
<path d="m394.25,274.9c-3.804,2.1063-9.5773-3.5031-9.9867-18.322,5.1018,11.684,8.6028,17.807,9.9867,18.322z"/>
<path d="m426.82,360.7c-0.88599,4.6251-13.144,4.4011-25.678-5.895,13.168,4.2742,24.246,6.6944,25.678,5.895z"/>
<path d="m418.65,351.22c-4.0227-4.343-7.1579-17.347-6.7467-19.242,9.0116,8.7431,10.215,18.165,6.7467,19.242z"/>
<path d="m401.77,326.23c-3.5704-5.7862-3.8759-20.907-2.9193-22.956,8.263,11.809,7.2531,22.585,2.9193,22.956z"/>
<path d="m399.14,326.32c-2.7356,3.3047-11.93-2.1585-16.872-15.833,8.1324,9.1108,15.474,15.812,16.872,15.833z"/>
</g>
<g fill="#406325">
<path d="m392.37,274c1.6173,3.6231,11.45,1.5297,19.493-8.8798-11.97,6.7926-16.711,9.7409-19.493,8.8798z"/>
<path d="m401.71,326.07c4.3325-0.37079,5.3311-11.037-2.9328-22.846,2.6634,11.854,3.7909,21.678,2.9328,22.846z"/>
<path d="m418.67,351.18c3.4697-1.0706,2.2496-10.451-6.713-19.178,4.4027,9.7272,7.2055,18.011,6.713,19.178z"/>
<path d="m394.23,291.77c2.0582-8.3856-1.7025-22.601-4.3-25.559-4.7164,15.427-0.24471,26.599,4.3,25.559z"/>
</g>
<path fill="#67923d" d="m393.93,293.77c-5.8954,1.3394-8.645-12.034-4.0797-27.078,1.0708,13.546,2.8334,26.147,4.0797,27.078z"/>
<path fill="#67923d" d="m392.73,293.72c-0.55781-7.5274,6.9344-23.087,8.915-24.707,2.0147,15.803-4.4625,26.308-8.915,24.707z"/>
<path fill="#406325" d="m392.84,293.61c4.4134,1.6359,10.851-8.7614,8.8348-24.564-3.5106,13.267-7.4452,23.764-8.8348,24.564z"/>
<path fill="#67923d" d="m394.13,303.26c0.005-7.6093,8.4702-22.23,10.562-23.619,0.83443,16.162-6.3315,25.829-10.562,23.619z"/>
<path fill="#406325" d="m394.21,303.41c4.2309,2.2096,11.306-7.3639,10.471-23.525-4.4092,12.857-9.0481,22.899-10.471,23.525z"/>
</g>
<g fill="#ba1f3e" stroke="#511124" stroke-width="0.2185">
<circle stroke-width="0.1857" cx="396.835" cy="251.27" r="1.085"/>
<circle stroke-width="0.1857" cx="405.205" cy="245.07" r="1.085"/>
<circle stroke-width="0.1857" cx="401.564" cy="241.71" r="1.086"/>
<circle cx="392.503" cy="313.12" r="1.277"/>
<circle cx="395.033" cy="297.13" r="1.277"/>
<circle cx="408.213" cy="334.46" r="1.277"/>
<circle cx="402.393" cy="336.43" r="1.277"/>
<circle cx="446.703" cy="367.63" r="1.277"/>
<circle cx="449.613" cy="374.71" r="1.277"/>
</g>
</g>

<g stroke="#24420e">

<g fill="none" stroke-width="0.437">
<path d="m561.15,258.97c0.62271,0.6214,1.174,0.80799,2.2946,1.8946"/>

<path d="m556.82,241.92c-0.035-1.3682-0.63254-3.605-0.91833-4.9729"/>

<path d="m559.35,239.93c0.0551,1.952-0.21849,3.8094-1.0617,5.5041"/>

<path d="m554.13,244.9c1.7526,1.5758,3.5053,3.0766,5.2576,3.8918"/>

<path d="m563.21,250.02c0.10488,1.9802-0.14202,3.9602-0.6828,5.9404"/>

<path d="m562.85,257.47,1.314-2.2623"/>

<path d="m562.3,267.43c1.3997,0.29126,2.8096,1.9457,3.5053,3.4822"/>

<path d="m566.28,269.62,1.6387-2.185"/>

<path d="m569.63,298.16c-0.74769,1.304-1.5815,2.4353-2.4576,3.4826"/>

<path d="m563.21,301.57c0.78942,1.456,1.5563,2.9458,2.5946,4.0288"/>

<path d="m568.26,311.47c-1.307,1.7726-2.7661,3.1651-4.4383,4.0286"/>

<path d="m563.96,320c-1.0925,0.7514-2.4264,2.9527-3.6871,4.7116"/>

<path d="m568.71,304.53-2.1244,0.86896"/>

<path d="m565.19,297.91,1.2555,1.1108"/>

<path d="m557.15,336.41c-0.83945-0.10793-1.456,0.009-2.1244,0.0725"/>

<path d="m553.03,334.55,0.61462,1.6387"/>

<path d="m545.93,341.31c-0.26197,1.8662-0.0725,3.7328,0.20408,5.5989"/>

<path d="m550.44,337.89,1.0243,2.2536"/>

<path d="m555.29,339.94-2.5265,0.40968"/>

<path d="m521.91,365.62-0.91702,1.7377"/>

<path d="m532.89,363.43c-1.4923,0.18681-2.7782-0.0435-4.0968-0.20408"/>

<path d="m523.33,369.17c-1.0835-0.42344-2.0335-0.7136-2.9361-0.95591"/>

<path d="m505.65,370.87c-0.90588,0.77282-1.9892,2.4353-3.0727,4.0968"/>

<path d="m502.03,370.4c-2.4334,1.2528-3.1815,3.71-4.4383,5.8041"/>

<path d="m500.39,379.07c-1.5528-0.46081-3.4118-1.2277-5.3258-2.0484"/>

<path d="m511.83,376.34c-2.3211-1.2052-4.7479-1.087-7.1352-1.4685"/>

<path d="m515.45,374.53c-3.6279-0.70749-7.01-0.60982-10.276-0.137"/>

<path d="m512.95,371.79-1.399-0.58032"/>

<path d="m506.02,376.71-2.3226-1.2957"/>

<path d="m561.64,326.22c-1.2555,0.81629-2.5105,2.2826-3.766,3.8626"/>

<path d="m559.7,250.46-2.153-0.72431"/>

</g>
<g stroke-width="0.1639">
<path fill="#406325" d="m474.39,384.85c0.79664-1.2555,2.1076-2.0278,3.2774-2.6556,7.7258-4.0566,15.406-5.8439,24.117-7.244,2.0126-0.33758,4.0264-2.2217,6.0866-3.187,4.9629-2.3654,10.489-3.2842,15.311-5.6975,0.32818-0.14596,1.5452-0.86939,2.1076-1.5448,1.9195-2.2221,5.385-2.899,7.5389-4.9747,8.3345-7.8713,17.184-15.116,21.772-25.546,5.5729-12.7,12.503-25.787,11.567-40.225-0.60851-9.1267,0.75031-18.35-1.4978-27.043-3.3255-12.893-7.5883-25.643-15.408-36.314l1.3114,0.82045c7.8667,10.674,12.127,23.423,15.452,36.314,2.2477,8.6922,0.89015,17.916,1.4987,27.043,0.93668,14.439-5.9951,27.526-11.566,40.275-4.5884,10.383-13.486,17.626-21.774,25.546-2.1541,2.027-5.6195,2.7034-7.5389,4.9729-0.56197,0.62774-1.8255,1.4014-2.1065,1.5452-4.8239,2.4146-10.349,3.332-15.313,5.6505-2.06,1.0136-4.0738,2.8481-6.087,3.1878-8.7094,1.3992-16.388,3.2348-24.113,7.2422-1.2174,0.6273-2.4823,1.401-3.2787,2.6565l-1.3579-0.82154"/>

<g fill="#406325">
<path d="m553.65,334.6c2.741-7.4159-0.009-24.838-1.4893-26.951-6.6486,15.372-3.3412,27.502,1.4893,26.951z"/>

<path d="m546.54,341.64c2.3045-5.6455,0.61287-19.321-0.46977-20.998-5.52,11.696-3.265,21.218,0.46977,20.998z"/>

<path d="m563.35,267.49c-3.2932-6.1004-16.867-14.418-19.261-14.618,6.2129,13.368,16.552,18.195,19.261,14.618z"/>

<path d="m561.76,259.47c-1.7906-6.0678-12.395-16.053-14.466-16.694,3.105,13.063,11.398,19.315,14.466,16.694z"/>

<path d="m566.5,274.43c-3.537-4.0507-15.164-7.9285-17.013-7.6952,6.9807,9.0363,15.572,10.864,17.013,7.6952z"/>

<path d="m563.7,320.76c6.1323,0.96619,18.959-4.1151,20.345-5.6254-12.9-2.7965-21.559,1.8395-20.345,5.6254z"/>

<path d="m563.55,315.12c-0.0435-5.6378-6.3949-16.856-7.9563-17.933-0.5552,11.996,4.8038,19.453,7.9563,17.933z"/>

<path d="m563.96,301.44c-0.005-7.6093-8.4697-22.23-10.562-23.619-0.83421,16.161,6.3318,25.828,10.562,23.619z"/>

<path d="m511.07,376.71c4.4772,5.5034,19.653,11.133,22.088,10.904-8.8047-12.233-20.07-15.05-22.088-10.904z"/>

</g>
<g fill="#67923d">
<path d="m553.56,334.43c-4.8235,0.55082-8.0898-11.437-1.3946-26.785-0.49074,14.192,0.2386,25.629,1.3946,26.785z"/>

<path d="m500.19,378.09c7.0926,0.36314,20.61,9.2946,21.865,11.396-15.086,0.11689-24.021-7.3146-21.865-11.396z"/>

<path d="m500.19,370.15c2.0984-7.9674,15.006-21.21,17.514-22.151-3.6025,17.134-13.74,25.535-17.514,22.151z"/>

<path d="m521.46,365.92c-0.98454-7.8223,5.6651-24.24,7.585-25.979,2.9506,16.466-2.9967,27.574-7.585,25.979z"/>

<path d="m542.92,351.38c4.4741-5.4704,19.381-11.328,21.712-11.141-8.8849,12.081-19.88,15.097-21.712,11.141z"/>

<path d="m568.71,298.12c0.9026-6.3318,9.7097-17.881,11.606-18.87-1.1936,13.521-8.3041,21.018-11.606,18.87z"/>

<path d="m557.02,336.18c5.817-4.2901,22.105-6.228,24.399-5.5037-11.813,9.676-23.552,9.8548-24.399,5.5037z"/>

<path d="m567.29,311.66c3.0329-5.9791,15.566-14.169,17.754-14.399-5.7991,13.019-15.301,17.802-17.754,14.399z"/>

<path d="m565.81,266.1c-0.0983-7.6255,7.9838-22.728,9.9655-24.24,1.1659,16.139-5.7222,26.206-9.9649,24.24z"/>

<path d="m558.88,240.18c-2.3224-5.2808-1.101-18.414-0.0931-20.074,5.5504,10.963,3.6722,20.17,0.0931,20.074z"/>

<path d="m554.65,238c-5.2745-4.6832-10.645-19.756-10.411-22.103,11.751,9.2631,14.386,20.361,10.411,22.103z"/>

<path d="m566.28,272.54c-0.31659,0.81521,2.9447-7.6949,14.219-15.308-4.0118,14.271-11.044,18.279-14.219,15.308z"/>

<path d="m532.18,362.44c7.0056-5.1726,26.532-7.634,29.232-6.7237-14.253,11.748-28.225,11.97-29.232,6.7237z"/>

<path d="m546.51,341.6c-3.7345,0.22156-5.9566-9.2618-0.47675-20.924-0.71885,10.974-0.41842,19.978,0.47675,20.924z"/>

<path d="m563.36,267.53c-2.7082,3.5763-12.897-1.2015-19.121-14.611,9.3275,8.5696,17.642,14.742,19.121,14.611z"/>

<path d="m561.66,259.47c-3.0683,2.6202-11.285-3.5835-14.391-16.646,6.746,9.3701,13.036,16.446,14.391,16.646z"/>

<path d="m566.55,274.5c-1.4045,3.145-9.9393,1.328-16.92-7.7078,10.389,5.8959,14.505,8.4546,16.92,7.7078z"/>

<path d="m563.86,320.71c-1.2491-3.764,7.3648-8.3166,20.241-5.5559-10.884,1.9485-19.567,4.4765-20.241,5.5559z"/>

<path d="m563.46,315.11c-3.1365,1.4672-8.4452-5.8845-7.8885-17.881,3.3598,9.74,6.8284,17.376,7.8885,17.881z"/>

<path d="m563.88,301.59c-4.2307,2.2092-11.305-7.3641-10.471-23.525,4.4092,12.857,9.0479,22.898,10.471,23.525z"/>

<path d="m511.19,376.66c2.0178-4.1459,13.15-1.3776,21.976,10.888-10.995-6.7493-20.482-11.305-21.976-10.888z"/>

</g>
<g fill="#406325">
<path d="m521.55,365.83c4.5423,1.593,10.443-9.4167,7.5402-25.883-2.8103,13.955-6.1816,25.064-7.5402,25.883z"/>

<path d="m531.83,360.59c4.3386-6.6505,5.5498-24.554,4.579-26.967-9.9432,13.594-9.4086,26.324-4.579,26.967z"/>

<path d="m500.14,378.13c-2.1163,4.081,6.7004,11.436,21.787,11.315-11.951-4.8897-21.238-9.8604-21.787-11.315z"/>

<path d="m500.3,370.08c3.7852,3.3384,13.808-4.948,17.409-22.083-8.1269,12.423-15.723,21.799-17.409,22.083z"/>

<path d="m543.01,351.43c1.8072,3.9185,12.696,0.91615,21.646-11.152-10.885,6.8301-20.244,11.512-21.646,11.152z"/>

<path d="m568.76,298.1c3.3025,2.1469,10.335-5.3035,11.561-18.803-5.2139,10.395-10.263,18.409-11.561,18.803z"/>

<path d="m557.07,336.21c0.89539,4.3476,12.454,4.1833,24.312-5.496-12.502,3.9692-23.001,6.214-24.312,5.496z"/>

<path d="m567.43,311.57c2.4526,3.405,11.865-1.3337,17.664-14.352-8.6094,8.3729-16.281,14.445-17.664,14.352z"/>

<path d="m565.92,266.01c4.2377,2.0156,11.064-7.9523,9.8985-24.093-4.0786,13.13-8.4597,23.412-9.8985,24.093z"/>

<path d="m558.96,240.14c3.5416,0.0933,5.4145-9.0334-0.13393-19.995,0.94936,10.498,0.91309,19.08,0.13393,19.995z"/>

<path d="m554.73,237.9c3.9722-1.7421,1.3306-12.711-10.422-21.972,6.4718,11.02,10.853,20.573,10.422,21.972z"/>

<path d="m566.34,272.57c3.175,2.9709,10.143-1.0606,14.155-15.33-7.7985,10.084-12.688,15.169-14.155,15.33z"/>

<path d="m532.25,362.48c1.0051,5.2474,14.913,4.9935,29.132-6.6879-14.94,4.849-27.508,7.5951-29.132,6.6879z"/>

<path d="m539.14,354.75c3.272-4.9336,4.2744-18.274,3.5639-20.077-7.4878,10.079-7.1605,19.572-3.5639,20.077z"/>

<path d="m558.74,326.14c3.5702-5.7857,3.8761-20.908,2.9191-22.957-8.2635,11.81-7.254,22.586-2.9191,22.957z"/>

</g>
<g fill="#67923d">
<path d="m531.79,360.54c-4.8298-0.638-5.3313-13.312,4.5517-26.873-3.6261,13.856-5.4632,25.442-4.5517,26.873z"/>

<path d="m566.95,292.21c-0.94346-7.7646,3.976-20.143,6.6318-22.522,2.5732,14.385-2.6602,23.949-6.6318,22.522z"/>

<path d="m539.11,354.7c-3.5966-0.49883-3.9012-9.9535,3.5407-20.007-2.7803,10.308-4.2141,18.935-3.5407,20.007z"/>

<path d="m562.47,250.46c-2.167-5.8812,0.0291-20.041,1.2358-21.774,5.2887,12.257,2.6381,22.116-1.2358,21.774z"/>

<path d="m504.39,370.61c2.4738-8.0911,16.191-21.081,18.807-21.915-4.3352,17.421-15.065,25.529-18.807,21.915z"/>

<path d="m558.92,329.02c2.6582-6.2616,14.798-15.462,16.981-15.841-4.9452,13.638-14.248,19.146-16.981,15.841z"/>

<path d="m558.8,325.99c-4.3328-0.37078-5.3313-11.037,2.9326-22.846-2.6637,11.854-3.7907,21.678-2.9326,22.846z"/>

</g>
<path fill="#406325" d="m567,294.04c5.158,1.8423,9.0778-9.8897,6.5983-23.914-2.4286,12.067-5.3769,23.211-6.5983,23.914z"/>

<path fill="#406325" d="m567.77,293.64c0.55738-7.5274-6.9346-23.086-8.9152-24.707-2.0147,15.803,4.463,26.309,8.9152,24.707z"/>

<path fill="#406325" d="m562.55,250.42c3.8344,0.33692,6.4733-9.4346,1.1869-21.69,0.33015,11.446-0.28251,20.75-1.1869,21.69z"/>

<path fill="#406325" d="m504.5,370.53c3.7874,3.6209,14.369-4.4169,18.704-21.838-8.839,12.353-16.968,21.612-18.704,21.838z"/>

<path fill="#406325" d="m559.14,329.04c2.7351,3.3047,11.93-2.1581,16.872-15.833-8.133,9.111-15.474,15.812-16.872,15.833z"/>

<path fill="#67923d" d="m567.66,293.53c-4.4134,1.6359-10.851-8.761-8.8346-24.563,3.5099,13.267,7.445,23.763,8.8346,24.563z"/>

</g>
<g fill="#ba1f3e" stroke="#511124" stroke-width="0.2185">
<circle cx="564.625" cy="254.9" r="1.085"/>
<circle cx="568.415" cy="266.82" r="1.085"/>
<circle cx="569.757" cy="304.3" r="1.277"/>
<circle cx="564.647" cy="297.29" r="1.277"/>
<circle cx="549.907" cy="337.17" r="1.277"/>
<circle cx="556.197" cy="339.9" r="1.277"/>
<circle cx="513.797" cy="372.26" r="1.277"/>
<circle cx="506.797" cy="377.29" r="1.277"/>
<circle cx="557.054" cy="249.25" r="1.084"/>
</g>
</g>

<g id="gun" fill="#8c959d" stroke="#485654" stroke-width="0.1092">

<path d="m434.25,336.27c-0.13416,1.066,0.84186,2.339,2.1284,2.0698,0.38608-0.0784,0.62359-0.58076,0.1311-0.48987-0.42497,0.10794-0.87857-0.0699-1.2017-0.37384-0.59693-0.56372-0.65527-1.3516-0.39613-1.9186-0.23073,0.24755-0.44966,0.48352-0.66051,0.71141l-0.001,0.001z"/>

<path stroke="none" d="m437.24,338.34c-1.0156,1.165-2.568,1.6758-3.4266,0.83421-0.57311-0.56503-0.77784-1.2056-0.46845-1.9118-0.44289,0.48134-0.82241,0.89692-1.1211,1.2308,0.0468,0.0896,0.71492,1.3088,1.708,1.7582,1.2231,0.5506,2.9724-0.27946,4.0179-1.5644,0.73873-0.90894,1.5612-2.4277,0.96706-3.6087-0.36467-0.7289-1.2384-1.4246-1.9673-1.6997-0.35047,0.37515-0.69482,0.74769-1.0261,1.101,0.50888-0.23947,1.1475-0.13437,1.6949,0.31289,1.2732,1.0348,0.5364,2.4987-0.378,3.546l-0.00022,0.002z"/>

<path fill="#485654" stroke="none" d="m437.24,338.34c-0.32446,0.38324-0.71469,0.71775-1.162,0.95591-0.4442,0.2351-0.95679,0.39045-1.4726,0.31835-0.25521-0.0358-0.50669-0.13394-0.71186-0.2965-0.20386-0.16562-0.37035-0.35942-0.50953-0.57945-0.13656-0.2198-0.23007-0.47369-0.24734-0.73742-0.019-0.26328,0.0387-0.52875,0.14115-0.76779l0.12236,0.0798-1.1097,1.2389,0.0129-0.099c0.27574,0.47916,0.62314,0.93756,1.0418,1.2998,0.21041,0.17917,0.44158,0.33539,0.69394,0.43656,0.2493,0.10072,0.52351,0.14093,0.79663,0.1335,0.54886-0.0157,1.0879-0.20604,1.5729-0.47632,0.48681-0.27137,0.92576-0.62905,1.2981-1.0424,0.37144-0.41645,0.68979-0.88687,0.93516-1.3883,0.23968-0.50014,0.41011-1.0486,0.37384-1.5948-0.0188-0.2718-0.09-0.53465-0.22418-0.77456-0.13087-0.23685-0.30567-0.45753-0.49991-0.65505-0.39154-0.39307-0.85912-0.72584-1.3711-0.93319l0.0929-0.0218-1.0359,1.0925-0.0843-0.11602c0.23576-0.10707,0.4997-0.14509,0.75359-0.11734,0.25433,0.0291,0.49795,0.11646,0.7147,0.24494,0.42781,0.25695,0.79838,0.64914,0.92554,1.1445,0.12913,0.49424,0.002,1.0079-0.20823,1.448-0.21237,0.44594-0.51062,0.84207-0.8377,1.2052l-0.001,0.002zm0.00022-0.002c0.3142-0.37516,0.59496-0.7809,0.79336-1.2251,0.1962-0.44005,0.30196-0.94237,0.16714-1.404-0.13175-0.45993-0.49314-0.82613-0.90019-1.0625-0.40793-0.23816-0.92445-0.30545-1.3455-0.10072l-0.0843-0.11646,1.0171-1.1091,0.0389-0.0417,0.0542,0.021c0.54929,0.2091,1.033,0.5493,1.4456,0.95985,0.20495,0.20735,0.38958,0.43524,0.53597,0.69678,0.14639,0.25695,0.23095,0.55651,0.25148,0.85169,0.042,0.5978-0.13852,1.177-0.38433,1.6988-0.2528,0.52351-0.57748,1.007-0.96116,1.4429-0.38979,0.43196-0.84907,0.79925-1.3588,1.0804-0.50888,0.27858-1.0759,0.47829-1.6704,0.49293-0.29584,0.006-0.59627-0.0389-0.87572-0.15273-0.27683-0.11362-0.52308-0.28251-0.74354-0.47326-0.44027-0.38783-0.79292-0.85104-1.0735-1.363l-0.0293-0.0537,0.0415-0.0457,1.1322-1.2218,0.12258,0.0797c-0.099,0.22068-0.15448,0.45993-0.14115,0.69984,0.012,0.23947,0.0924,0.4737,0.21675,0.68192,0.12476,0.20692,0.28841,0.40247,0.47282,0.55695,0.18659,0.15447,0.41623,0.25258,0.65723,0.29365,0.48681,0.0824,0.99197-0.0524,1.4357-0.27312,0.44638-0.22461,0.84645-0.54077,1.1851-0.91177z"/>

<path fill="#6c301e" stroke="#351710" stroke-width="0.2185" stroke-linejoin="round" d="m515.24,249.25-40.137,39.515c-3.0526,3.0316-37.963,36.379-41.105,39.384-1.1025,1.323-4.2327,4.8584-4.5611,5.3531-2.129,2.3104-4.4389,5.3297-7.1968,8.0297-0.49118,0.61878-1.1421,0.39394-1.7344,0.73742-1.8133,1.0503-3.6965,2.8695-5.0527,4.3699l-12.208,13.506c-0.78636,0.85344-0.99568,1.38-0.4643,1.871l6.6232,8.849c1.2288,1.2142,2.6444,1.838,3.1955,0.81936,3.1463-5.4466,10.962-13.759,13.915-20.334,1.7641-3.929,3.9779-11.058,5.5581-12.782,1.9383-2.1572,7.1697-7.7301,11.806-12.705,0.31332-0.33539,0.62314-0.66881,0.92882-0.99721,0.32119-0.34434,0.63691-0.68454,0.94761-1.019,23.506-23.951,50.715-53.046,70.526-73.558-0.77784-0.775-0.28622-0.31158-1.0416-1.04z"/>

<path d="m431.89,328.11c-1.2251,0.043-2.0215-0.70705-2.8481-1.4001,1.1687,0.34609,2.3449,0.79707,3.452,0.33845l-0.60392,1.0617z"/>

<path fill="#b2b6ba" stroke-width="0.2185" d="m557.05,220.1-31.804,26.219c-0.30589,0.37407-0.62358,0.26657-0.9286,0l-2.895-2.4172c0.004-0.0363,0.0138-0.0723,0.0138-0.10925,0-0.16256-0.0317-0.31878-0.0819-0.4643l1.4202-1.4475c0.17633-0.22068,0.11952-0.3096-0.12301-0.54623-0.1831-0.19053-0.34391-0.36489-0.58753-0.60086-0.22789-0.17567-0.41558-0.0354-0.64194,0.17763l-1.434,1.4748c-0.73392,0.0297-1.3311,0.63014-1.352,1.3656-19.238,18.731-35.794,35.435-54.938,53.872l-22.573,21.549c-0.80581,1.0429-4.2901,2.9075-6.5959,4.411-0.81673,0.53269-1.5233,1.0164-1.8163,1.5432l-1.8437,5.4351c-0.58207,1.1941-2.4308,4.0028-2.5127,4.1927,2.3683,2.3864,2.2479,2.2127,3.8647,3.7282,1.8179-2.0233,6.6894-7.1118,11.116-11.853,0.3568-0.38236,0.37887-0.42169,0.83312-0.96968-0.34653-0.48855-0.92751-1.2048-1.3929-1.6527-0.39613-0.37843-0.82547-0.76735-1.2013-1.0925-0.24493-0.21216-0.46758-0.39133-0.62817-0.54624-0.163-0.15622,0.24034-0.44376,0.42344-0.64194,26.464-25.579,54.962-53.695,78.276-76.595,0.12454,0.0367,0.25957,0.0546,0.39613,0.0546,0.22702,0,0.44005-0.0553,0.62817-0.15032l2.7858,3.2092c0.65417,0.6522,1.2081,0.63953,1.7346,0.39613l31.859-28.542z"/>

<path fill="#485654" stroke="none" d="m430.95,330.39c0.20145,0.0286,0.40509,0.0478,0.60633,0.0312,0.20079-0.0166,0.397-0.0699,0.57354-0.16256l-0.0164,0.0197c0.22832-0.79641,0.47151-1.5876,0.71404-2.3792,0.24733-0.78986,0.49795-1.5791,0.75948-2.365l0.006,0.0269c-0.19489-0.22308-0.43589-0.42126-0.73108-0.4962,0.29956,0.0573,0.55913,0.24406,0.77063,0.45971l0.0111,0.0112-0.005,0.0153c-0.22789,0.79663-0.4667,1.5887-0.70857,2.3807-0.24712,0.79029-0.49293,1.5802-0.75447,2.3663l-0.005,0.0138-0.012,0.006c-0.18725,0.0922-0.39548,0.13831-0.60086,0.14093-0.20626,0.003-0.40946-0.0284-0.60873-0.0686z"/>

<circle fill="none" stroke-width="0.1639" cx="438.17876" cy="328.1347" r="0.61921"/>
<circle fill="none" stroke-width="0.1639" cx="434.43594" cy="331.87751" r="0.61921"/>
<path fill="#485654" stroke="none" d="m440.97,322.38c-0.319-0.24078-0.61528-0.50538-0.90631-0.77544-0.28842-0.27268-0.57137-0.55126-0.83181-0.85387,0.319,0.24034,0.61484,0.50494,0.90588,0.775,0.28863,0.27312,0.57136,0.55148,0.83224,0.85431z"/>

<path d="m502.17,259.06,3.487,3.4098,0.64521-0.58578-3.487-3.4094-0.64522,0.58534z"/>

</g>

<use xlink:href="#gun" transform="matrix(-0.99877061,-0.04957067,-0.04957067,0.99877061,973.59129,23.686411)"/>

<g stroke="#24420e" stroke-width="0.1639">

<path fill="#67923d" d="m433.91,365.36c-7.8658-3.3213-26.89-0.67034-29.219,0.9321,16.285,8.0113,29.54,4.5738,29.219-0.9321z"/>

<path fill="#67923d" d="m522.93,368.68c7.8658-3.3209,26.89-0.6699,29.219,0.93254-16.285,7.9823-29.54,4.5733-29.219-0.93254z"/>

<path fill="#406325" d="m433.76,365.48c0.32054,5.5058-12.789,8.8853-29.075,0.90304,15.295,0.93209,27.793,0.37843,29.075-0.90304z"/>

<path fill="#406325" d="m523.08,368.77c-0.32053,5.5058,12.789,8.8853,29.075,0.90304-15.295,0.93253-27.793,0.40793-29.075-0.90304z"/>

</g>

<g id="sword">

<path fill="#b2b6ba" stroke="#485654" stroke-width="0.2185" d="m508.49,359.99c-20.733-30.119-51.995-54.611-76.102-67.991,3.5569-0.16649,11.46,3.8809,14.67,5.9485,23.94,15.427,44.3,35.803,65.664,59.822-1.2579,1.2456-2.0818,1.9802-3.4461,3.0517l-0.7857-0.83006z"/>

<path fill="#8c959d" d="m510.55,359.75-1.4506,1.3938c-23.01-29.619-55.093-57.945-76.668-69.13,30.08,13.855,55.391,41.77,78.033,67.65l0.085,0.0856z"/>

<path fill="#485654" d="m510.56,359.75-1.4475,1.3968-0.004,0.003-0.003-0.004c-5.3258-6.8234-10.975-13.389-16.864-19.73-5.8849-6.3453-12.012-12.466-18.368-18.337-6.3591-5.8677-12.943-11.495-19.81-16.76-3.4345-2.6296-6.9411-5.1665-10.542-7.5628-3.601-2.3932-7.2966-4.6522-11.133-6.6442l0.0957-0.19577c7.8922,3.6436,15.339,8.1949,22.375,13.281,7.0388,5.0907,13.677,10.715,20.029,16.631,6.3521,5.9199,12.422,12.135,18.328,18.497,5.902,6.3667,11.629,12.892,17.343,19.425zc-5.7401-6.5109-11.494-13.012-17.42-19.353-5.9164-6.3497-11.991-12.556-18.349-18.463-6.3573-5.9039-12.999-11.515-20.037-16.591-7.0358-5.0702-14.478-9.6039-22.36-13.229l0.0957-0.19555c3.8448,1.9999,7.5413,4.2696,11.144,6.6702,3.6014,2.4041,7.1078,4.948,10.542,7.585,6.8644,5.278,13.444,10.918,19.798,16.798,6.3512,5.8832,12.472,12.013,18.35,18.369,5.8675,6.3641,11.489,12.957,16.789,19.8l-0.006-0.00044,1.4536-1.3901z"/>

<g fill="#fab81c" stroke="#6c301e" stroke-width="0.1092">
<path stroke-width="0.2185" d="m517.5,355.07c-1.9737,0.51128-3.7256,1.2533-5.2585,2.2256-0.22701,1.3973-1.9525,2.9578-3.5864,3.3115-0.29737-0.37799-0.36707-0.48855-0.5919-0.77106-0.0376-0.0496-0.10204-0.073-0.1689-0.038-0.14202,0.0756-0.33211,0.18047-0.57355,0.33932-0.60938-0.10204-1.3365,0.19796-1.6597,0.97602-0.37843,0.96924,0.38542,2.2481,1.2244,3.084,0.92402,0.72933,1.3866,1.0691,2.4572,0.91964,1.0835-0.22396,1.6813-1.2129,1.9258-1.5277,3.7196,4.503,6.517,6.9326,11.229,10.64,2.0984,0.017,3.225-1.3059,2.5203-2.8028-0.23248-0.50188-0.84121-0.83509-1.3324-0.65155,0.0406-0.15142,0.0238-0.30546,0-0.45098,2.4624-2.2643,3.5134-5.0881,0.91461-9.8733-2.2238-4.0293-4.712-5.397-7.0875-5.3804l-0.0129-0.00066zm6.2459,4.5307c0.4383,0.74091,0.69176,1.3796,1.0245,2.053,1.4829,2.9993,0.19556,6.6027-2.334,7.7065-0.12301-0.005-0.085-0.0214-0.21303,0.0218,0.41274-0.68739-0.82744-2.1537-1.4613-1.6387,0.29955-0.75883-0.66925-2.0189-1.4615-1.6938,0.4147-0.70574-0.53291-1.9059-1.4202-1.5159,0.4584-0.76648-0.32381-1.8653-1.2424-1.666,0.27662-0.81717-0.4182-1.753-1.3523-1.5978,0.0789-0.723-0.1571-1.1202-0.50691-1.4493,1.1126-0.84666,2.3475-2.1509,3.4378-2.738,2.7218-1.1788,4.4031,1.0724,5.5272,2.5173h0.001v0.00044h0.00065z"/>

<path d="m524.89,362.77c-0.51543-0.25345-0.75577-0.76036-0.58687-1.1049,0.16846-0.34217,0.70158-0.43241,1.217-0.17764,0.51587,0.25345,0.80144,0.74376,0.63276,1.0879-0.17195,0.34304-0.74725,0.44989-1.2636,0.19556l0.00065-0.00088z"/>

<path d="m524.59,361.75c-0.51543-0.25345-0.75577-0.76014-0.58688-1.1045,0.16846-0.3426,0.70159-0.43262,1.2175-0.17785,0.51542,0.25345,0.80143,0.74419,0.63254,1.0881-0.17196,0.34304-0.74725,0.44945-1.2636,0.19512l0.00044-0.00088z"/>

<path d="m523.97,360.62c-0.51543-0.25346-0.75621-0.76037-0.58732-1.1049,0.16846-0.34216,0.70159-0.43262,1.2174-0.17764,0.51587,0.25346,0.80188,0.74376,0.63255,1.0879-0.17196,0.34303-0.74726,0.44988-1.2636,0.19555l0.00088-0.00087z"/>

<path d="m523.19,359.6c-0.51586-0.25346-0.75577-0.76037-0.58731-1.1049,0.1689-0.34216,0.70159-0.4324,1.2174-0.17764,0.51587,0.25302,0.80144,0.74376,0.63254,1.0879-0.17151,0.3426-0.74725,0.44944-1.2631,0.19555l0.00043-0.00087z"/>

<path d="m522.16,358.61c-0.51543-0.25346-0.75577-0.76015-0.58688-1.1049,0.0229-0.0465,0.007-0.13656,0.0551-0.11384,0.20998,0.10794,0.64391,0.18682,0.59628-0.13699-0.0645-0.11362-0.14596-0.22702-0.0695-0.14203,0.14858,0.004,0.4643,0.1335,0.63626,0.22156,0.51543,0.25345,0.80144,0.74375,0.63254,1.0879-0.17195,0.34304-0.74725,0.44988-1.2636,0.19556v-0.007z"/>

</g>
<g fill="#fab81c">
<path d="m511.27,363.6c0.68192-1.7735,2.0468-3.414,3.5077-3.8057"/>

<path d="m511.5,363.85c1.2629,0.26241,3.3089-1.243,3.806-2.5878"/>

<path d="m512.69,365.3c1.6558,0.38149,3.2912-1.2175,3.9338-2.4085"/>

<path d="m514.18,366.88c1.9566,0.064,3.1636-1.3263,3.7387-2.3901"/>

<path d="m515.69,368.41c1.661,0.0111,3.1717-1.3597,3.6458-2.424"/>

<path d="m517.15,369.81c1.808-0.073,3.084-0.89539,3.6196-2.0748"/>

<path d="m518.79,371.23c1.661,0.0959,3.0026-0.89583,3.443-1.8622"/>

<path d="m520.57,372.68c1.6614,0.0959,2.6954-0.92991,3.1363-1.8965"/>

</g>
<g fill="#6c301e">
<path d="m511.27,363.6c0.13961-0.42344,0.32555-0.83312,0.54405-1.224,0.21893-0.39089,0.47763-0.76014,0.76451-1.1054,0.29453-0.33845,0.6179-0.65505,0.98585-0.91506,0.36663-0.25913,0.77587-0.46649,1.2133-0.56197-0.42366,0.13962-0.81302,0.36183-1.1633,0.62992-0.35046,0.26875-0.66925,0.57858-0.95198,0.9179-0.57748,0.67274-1.0284,1.4456-1.3925,2.2586z"/>

<path d="m511.5,363.85c0.4053,0.0572,0.80864-0.0448,1.1796-0.1925,0.37209-0.15185,0.72387-0.35374,1.0481-0.59277,0.32861-0.23292,0.63035-0.50451,0.90172-0.80188,0.2705-0.29824,0.51172-0.62817,0.67646-1.0007-0.12301,0.39001-0.35112,0.74179-0.61287,1.0562-0.26373,0.31441-0.5718,0.58972-0.90129,0.83421-0.33539,0.23598-0.69438,0.44376-1.0826,0.58251-0.38411,0.1359-0.80952,0.21784-1.2091,0.11493z"/>

<path d="m512.69,365.3c0.40465,0.0712,0.81848,0.035,1.2035-0.0863,0.38586-0.12039,0.74769-0.31114,1.0763-0.54798,0.33321-0.23052,0.63408-0.50604,0.91156-0.80406,0.27749-0.29803,0.52701-0.62228,0.74245-0.97078-0.17589,0.37123-0.4123,0.71361-0.67974,1.0267-0.26853,0.3142-0.57573,0.59496-0.91156,0.83727-0.34063,0.23423-0.71316,0.43262-1.1154,0.53903-0.40181,0.10859-0.83247,0.12214-1.2271,0.006z"/>

<path d="m514.18,366.88c0.39089-0.0125,0.77806-0.0653,1.1458-0.18266,0.36751-0.1169,0.71776-0.28645,1.0333-0.50691,0.32097-0.21413,0.60632-0.47763,0.86546-0.76473,0.25979-0.2871,0.48768-0.60436,0.69481-0.93582-0.3332,0.70705-0.84841,1.3378-1.4982,1.7906-0.32861,0.21937-0.68956,0.39482-1.0711,0.49664-0.38214,0.10422-0.78068,0.1359-1.17,0.10291z"/>

<path d="m515.69,368.41c0.76691-0.0417,1.4932-0.33233,2.1128-0.76517,0.3142-0.21216,0.60086-0.46299,0.86109-0.73873,0.26023-0.27618,0.49205-0.58076,0.67121-0.92008-0.1383,0.35899-0.35723,0.68454-0.60894,0.97645-0.25214,0.29279-0.5458,0.54886-0.86153,0.77238-0.3214,0.21456-0.66706,0.39766-1.0352,0.51762-0.36795,0.12039-0.75621,0.18244-1.1394,0.15753z"/>

<path d="m517.15,369.81c0.36489-0.0384,0.72628-0.0935,1.078-0.18681,0.35069-0.0935,0.69482-0.21631,1.0127-0.38827,0.32228-0.1643,0.6179-0.37777,0.87835-0.62904,0.25979-0.25127,0.47828-0.54668,0.65111-0.87005-0.13197,0.34304-0.33757,0.65898-0.59147,0.92991-0.25476,0.27006-0.56065,0.48987-0.88774,0.66619-0.6616,0.33933-1.4084,0.49293-2.141,0.47807z"/>

<path d="m518.79,371.23c0.34522-0.004,0.68739-0.0398,1.0195-0.12039,0.33124-0.0815,0.65373-0.19752,0.95285-0.35965,0.30306-0.15447,0.58251-0.3533,0.83378-0.58294s0.47064-0.49598,0.63625-0.79969c-0.1241,0.32381-0.33233,0.61331-0.57791,0.86065-0.24625,0.24843-0.53466,0.45228-0.8423,0.61878-0.31157,0.15841-0.64259,0.27901-0.98585,0.34434-0.34216,0.0653-0.69328,0.0802-1.0363,0.0389z"/>

<path d="m520.57,372.68c0.326-0.005,0.65002-0.0363,0.96051-0.11952,0.31026-0.0815,0.60981-0.2032,0.88031-0.37471,0.27487-0.16344,0.5198-0.37516,0.73698-0.61157,0.21762-0.23685,0.4016-0.50538,0.55826-0.79073-0.23008,0.612-0.67646,1.1445-1.2384,1.4954-0.28426,0.16934-0.59452,0.29694-0.91833,0.36314-0.3225,0.0677-0.65527,0.0771-0.9793,0.038z"/>

</g>
</g>

<use xlink:href="#sword" transform="matrix(-0.99823174,-0.05944245,-0.05944245,0.99823174,979.09134,28.304721)"/>

<g stroke="#24420e" stroke-width="0.1639">

<path fill="#406325" d="m409.24,240.02c7.2105-2.3667,18.73-15.453,19.478-17.917-15.593,4.154-22.757,14.343-19.478,17.917z"/>

<path fill="#406325" d="m554.98,244.72c-1.7023-7.0449-13.279-19.011-15.568-19.911,2.7633,15.161,11.916,22.759,15.568,19.911z"/>

<path fill="#67923d" d="m409.24,240.02c-3.3248-3.5739,3.7915-13.666,19.339-17.82-10.957,8.4033-19.199,16.178-19.339,17.82z"/>

<path fill="#67923d" d="m554.98,244.72c-3.6558,2.8916-12.72-4.6537-15.486-19.77,7.1631,11.072,13.934,19.511,15.486,19.77z"/>

</g>

<g stroke="#999270" stroke-width="0.1639">

<path fill="url(#rg1)" d="m452.21,318.1s-6.1583,0.66182-7.8844-7.8335c-1.8458-9.0861,5.3064-10.052,5.3064-10.052s8.1033-0.78046,13.15-0.90894l2.24,17.953-12.812,0.84165z"/>

<path fill="url(#rg2)" d="m453.02,315.36s-3.9845,0.76167-4.8069-5.5533c-0.58272-4.4732,2.185-5.1073,2.185-5.1073l9.236,1.5636,0.0503,8.2414-6.6643,0.85562z"/>

<path fill="url(#rg3)" d="m450.4,304.7s5.9055-0.43022,8.9889-0.82963l1.2806,5.7108-7.1011,0.44464c-0.00022,0-0.48746-5.1552-3.1684-5.3258z"/>

<path fill="url(#rg4)" d="m449.16,300.36s7.5754-1.8574,8.5165,6.4886c0.24581,2.1814-0.94106,7.1673-4.6555,8.5145l13.874-1.4565-1.2563-15.007-4.6738,0.39045s-9.9225,0.34107-11.805,1.0702z"/>

<path fill="#f9f0aa" d="m452.2,318.1c0.0472,0,51.903-3.4913,57.217-3.2739,15.743-8.6382-0.076-42.559-13.342-61.532,1.5146-4.2757-29.858-13.892-44.047-13.024-1.782,0.10903-3.5051,0.22724-5.1541,0.35397-7.6956,0.81629-7.7754,10.694-4.6367,16.923,3.0449,6.0429,30.315,55.126,11.14,60.317l-1.1766,0.23576z"/>

<path fill="url(#lg1)" d="m507.79,273.34c-3.5202-7.304-7.7338-14.349-11.718-20.046,1.5142-4.2757-29.859-13.892-44.047-13.024-1.782,0.10903-3.5051,0.22724-5.1541,0.35397-7.6956,0.81629-7.7754,10.694-4.6367,16.923,0.95591,1.8976,4.3011,8.0393,7.8464,15.733"/>

<path fill="url(#lg2)" d="m455.04,284.95c5.5546,14.65,8.6644,30.117-1.6413,32.907l-1.1766,0.23598c0.0472,0,51.903-3.4913,57.216-3.2735,8.5377-4.6843,7.7926-16.804,3.2073-29.943"/>

<path fill="url(#rg5)" d="m447.4,243.49c-3.705,0-4.6563,3.5621-4.6052,5.8172,0.13371,5.9085,4.6052,6.1921,4.6052,6.1921l5.9645-0.33233,2.8577-12.163-8.8222,0.48615z"/>

<path fill="url(#lg3)" d="m447.4,243.53,8.8222-0.48615,0.90762,9.0857-7.696,0.33757c0,0.00022,2.4913-7.2746-2.0338-8.9371z"/>

<path fill="url(#lg4)" d="m496.12,253.29c6.6855-1.0741,6.5946-10.069,2.0257-13.673-15.498-0.56939-35.895-0.14311-50.63,0.95941,1.6761-0.0483,6.3372,0.37625,6.8557,6.5111,0.24187,2.8625-1.1654,5.4912-3.0609,6.9859-1.8533,1.4615-3.906,1.4615-3.906,1.4615,0.24799,0.0955,2.1622,0.007,3.5984-0.0867,0.73895-0.0485,2.5518-0.26438,3.0554-0.33058,21.012-2.7616,41.987-1.8229,41.987-1.8229l0.0797,0.003c-0.002-0.003-0.003-0.005-0.005-0.008z"/>

<g fill="#b07e09" stroke="none">

<path d="m458.47,267.42c-0.14307-0.33143-0.32344-0.74904-0.72915-0.80525-0.24955,0.0146-0.64602-0.0516-0.56795-0.39173,0.23471-0.11275,0.53358-0.0411,0.79388-0.0653,0.5617,0.01,1.1134-0.1139,1.6713-0.14811,0.33714,0.0924,0.26114,0.53754-0.1051,0.46371-0.40765,0.0923-0.17515,0.56277-0.075,0.80926,0.44356,1.0343,0.87222,2.0753,1.3282,3.1041,0.12646,0.30356,0.38018,0.57176,0.72219,0.60554,0.36132,0.0353,0.75556,0.0449,1.0901-0.1161,0.31087-0.19947,0.24167-0.62374,0.20014-0.93675-0.1251-0.36343,0.53948-0.28153,0.4942,0.0441,0.12951,0.42948,0.27963,0.85338,0.4476,1.2683-0.0221,0.20027-0.27563,0.14416-0.42122,0.1692-0.99242,0.0761-1.9867,0.13132-2.9778,0.22273-0.31888-0.0172-0.79628,0.28094-0.9909-0.0956-0.11854-0.38638,0.51127-0.1693,0.59555-0.46271-0.003-0.32725-0.19548-0.6154-0.30674-0.91676-0.38977-0.91578-0.7797-1.8351-1.1694-2.7487z"/>

<path d="m463.3,267.08c-0.1404-0.31992-0.302-0.71957-0.68686-0.79561-0.24688-0.0227-0.65282-0.0174-0.61569-0.37437,0.15627-0.16169,0.45617-0.0582,0.67049-0.0921,0.59111,0.0192,1.1738-0.0896,1.7598-0.1438,0.2904-0.0276,0.3982,0.51827,0.0255,0.44396-0.35822,0.0116-0.3836,0.40448-0.23349,0.65107,0.47033,1.1419,0.95892,2.2765,1.4375,3.415,0.10488,0.24466,0.24008,0.54794,0.54004,0.58586,0.2521,0.0492,0.64789-0.0288,0.70423,0.31605-0.0398,0.26696-0.43337,0.11891-0.62879,0.16072-0.52229-0.0363-1.0425,0.0314-1.5563,0.11861-0.22635,0.0642-0.5502,0.0273-0.55928-0.26976,0.0528-0.27221,0.58365-0.0683,0.60981-0.40128-0.0398-0.3261-0.21556-0.61575-0.3303-0.92008-0.37873-0.89791-0.75873-1.7974-1.1367-2.6943z"/>

<path d="m467.76,267.79c0.0905,0.22743,0.40406,0.0636,0.58583,0.0752,0.26329-0.0255,0.54341-0.21507,0.51879-0.50891-0.0427-0.4512-0.26334-0.90844-0.63162-1.1828-0.34103-0.23966-0.7793-0.21343-1.172-0.1626-0.0226,0.15488,0.0979,0.30397,0.14476,0.45347,0.18473,0.44188,0.36966,0.8837,0.55426,1.3256zm0.6684,1.5962c0.16337,0.34893,0.27899,0.74478,0.56455,1.0172,0.24365,0.17131,0.5689,0.093,0.84351,0.0652,0.30167-0.0202,0.47917-0.33066,0.3856-0.60827-0.14179-0.6355-0.55438-1.3008-1.2378-1.4371-0.30016-0.0516-0.61793-0.0654-0.91565-0.001-0.0232,0.14403,0.0918,0.28859,0.13557,0.42942,0.0747,0.17817,0.1496,0.35716,0.22424,0.53482zm-2.0348-2.3717c-0.15771-0.34702-0.30945-0.76722-0.68808-0.92519-0.24435-0.0813-0.64253,0.0301-0.69582-0.32286,0.065-0.30322,0.56261-0.0904,0.80178-0.15976,0.86327-0.0225,1.7427-0.26404,2.5932-0.004,0.73402,0.18212,1.3916,0.80958,1.4496,1.5869,0.0243,0.3773-0.26107,0.6843-0.58138,0.83788-0.0394-0.13577,0.3671,0.0609,0.50625,0.082,0.58325,0.18645,1.1192,0.57568,1.3783,1.1433,0.20099,0.39775,0.35617,0.931,0.0394,1.3146-0.36178,0.39514-0.93916,0.41299-1.4376,0.43714-0.75022,0.0198-1.5053,0.0256-2.2443,0.17278-0.26712,0.0465-0.45804-0.48213-0.0897-0.44892,0.37045-0.0136,0.40329-0.41383,0.2441-0.66837-0.42527-1.0153-0.85054-2.0307-1.2758-3.0459z"/>

<path d="m473.81,265.11c0.32718-0.0544,0.35831,0.3161,0.45793,0.53166,0.0983,0.28394,0.27637,0.54219,0.34849,0.83144-0.27729,0.27636-0.5018-0.14465-0.62456-0.3594-0.1439-0.24731-0.3827-0.47568-0.69009-0.45095-0.40636-0.002-0.81669,0.0145-1.2186,0.0722-0.14455,0.15755,0.0652,0.39285,0.11247,0.57653,0.1894,0.44547,0.36011,0.9006,0.56164,1.3398,0.27062-0.0225,0.61991,0.0146,0.81331-0.20808,0.0751-0.22898-0.26998-0.74689,0.20987-0.64006,0.29748,0.1698,0.26318,0.6021,0.41591,0.88216,0.12636,0.38776,0.38401,0.72392,0.49191,1.1148-0.26291,0.28875-0.52448-0.12967-0.61934-0.3631-0.18831-0.34686-0.62469-0.30588-0.95946-0.2961-0.24094-0.0507-0.0753,0.17151-0.041,0.28277,0.21575,0.49335,0.38321,1.0111,0.65934,1.4753,0.20678,0.34329,0.65054,0.29169,0.99357,0.28011,0.3281-0.0177,0.73213-0.0248,0.92609-0.33842,0.21559-0.25167-0.27414-0.75134,0.13115-0.83062,0.34698-0.0306,0.33749,0.37589,0.42927,0.60648,0.0734,0.28174,0.18493,0.55171,0.28456,0.82364-0.0264,0.19879-0.27783,0.14023-0.42383,0.16319-1.0195,0.065-2.0406,0.10828-3.0588,0.19006-0.30025,0.001-0.80525,0.23909-0.90167-0.19822,0.0262-0.2876,0.64599-0.13478,0.55396-0.54392-0.0732-0.34705-0.24884-0.66262-0.37267-0.99381-0.37616-0.89638-0.73147-1.8019-1.1229-2.6916-0.14057-0.2963-0.36799-0.61968-0.73047-0.62841-0.23799,0.0464-0.60085-0.12899-0.46164-0.40696,0.34613-0.067,0.71114-0.0198,1.0641-0.0569,0.92382-0.0545,1.8476-0.10915,2.7714-0.16357z"/>

<path d="m476.12,266.43c-0.15374-0.34845-0.30185-0.76874-0.67875-0.92975-0.25693-0.0765-0.72611,0.0133-0.69679-0.39387,0.24605-0.18988,0.65923-0.0315,0.96836-0.0898,0.80068-0.0109,1.6199-0.23795,2.4073,0.00027,0.82463,0.22961,1.5151,0.97195,1.5727,1.8413,0.0267,0.41568-0.30657,0.75244-0.6847,0.86344-0.29656,0.0153,0.22879,0.10055,0.30962,0.19647,0.63275,0.30389,1.0688,0.87693,1.406,1.4737,0.0757,0.22539,0.51881,0.69649,0.58657,0.24657-0.0269-0.49,0.6373-0.075,0.48723,0.26344,0.002,0.35658-0.35128,0.58745-0.68118,0.58286-0.46451,0.0366-0.90432-0.23136-1.138-0.62365-0.42141-0.55349-0.70862-1.2243-1.2649-1.6634-0.23114-0.16553-0.55903-0.26894-0.82981-0.15171-0.0582,0.1395,0.0681,0.28041,0.10427,0.41651,0.17986,0.40844,0.30537,0.84509,0.547,1.2225,0.2006,0.30876,0.59311,0.35831,0.9303,0.35601,0.3598,0.0889,0.25929,0.57544-0.12356,0.43251-0.58509-0.001-1.1749-0.0442-1.7528,0.0764-0.26879,0.12586-0.86512,0.0102-0.64932-0.37044,0.283-0.0161,0.6752-0.17232,0.47996-0.52437-0.33128-0.87221-0.69856-1.7309-1.0447-2.5975-0.0849-0.20914-0.17-0.41822-0.25479-0.62739zm1.404,0.89347c0.13446,0.32598,0.59518,0.14488,0.86133,0.11358,0.35755-0.0786,0.34757-0.50799,0.23351-0.77734-0.16266-0.46877-0.37331-1.0295-0.89017-1.1951-0.26165-0.035-0.84451-0.20185-0.88465,0.15199,0.18883,0.53496,0.42263,1.0546,0.62982,1.5834,0.0167,0.0411,0.0334,0.0825,0.0502,0.12348z"/>

<path d="m484.74,269.04c0.10917,0.25915,0.21273,0.60969,0.53838,0.65626,0.25495,0.0587,0.66431-0.0241,0.71644,0.32963-0.0491,0.26525-0.43911,0.10496-0.63631,0.14317-0.53793-0.0503-1.0754,0.0123-1.608,0.0839-0.23088,0.0709-0.5509-0.0297-0.51807-0.31944,0.12458-0.20956,0.64721-0.0374,0.61945-0.40227-0.0857-0.39995-0.27577-0.76838-0.41598-1.1514-0.38316-0.96139-0.76234-1.9244-1.148-2.8848-0.0945-0.30484-0.44335-0.29727-0.7022-0.2799-0.27334,0.002-0.68302,0.0613-0.68325,0.41585-0.0873,0.2297,0.21725,0.61574-0.0444,0.7351-0.3013,0.0636-0.36166-0.27486-0.42591-0.48749-0.0983-0.32057-0.26015-0.61799-0.38487-0.92568,0.0357-0.21414,0.3206-0.17639,0.49259-0.19361,1.3772-0.0572,2.7542-0.12015,4.1314-0.17371,0.30284-0.047,0.50224,0.19156,0.51743,0.47691,0.10822,0.33686,0.26985,0.65337,0.41381,0.97461-0.11306,0.33043-0.50781,0.0472-0.55333-0.19565-0.19914-0.34881-0.50948-0.69255-0.9391-0.71063-0.25705,0.0125-0.64239-0.0856-0.8153,0.14506,0.007,0.23983,0.14513,0.45279,0.21975,0.67783,0.4084,1.0285,0.81753,2.0591,1.2255,3.0862z"/>

<path d="m488.47,268.13c-0.1915,0.001-0.0974,0.242-0.11817,0.36667,0.0118,0.28256-0.017,0.56914,0.0297,0.84837,0.13231,0.3102,0.52709,0.2343,0.78488,0.31822,0.22981,0.13123,0.17292,0.50149-0.13592,0.38771-0.42261-0.0259-0.85122-0.0688-1.2678,0.0331-0.24848,0.1327-0.71306-0.12286-0.49305-0.39157,0.2016-0.0347,0.44875-0.10136,0.49484-0.33467,0.0718-0.41378,0.0335-0.83739,0.0472-1.2559,0.007-1.238,0.015-2.476,0.0225-3.714,0.11955-0.27851,0.51386-0.0443,0.60235,0.16635,1.1921,1.516,2.3695,3.0443,3.5933,4.5348,0.19176,0.23288,0.46186,0.40029,0.76809,0.4178,0.25954,0.002,0.40172,0.53161,0.0275,0.42657-0.51126-0.0289-1.0269-0.0629-1.5353,0.0229-0.22818,0.006-0.49228,0.11148-0.69618-0.022-0.24312-0.17858-0.0701-0.43576,0.19588-0.40343,0.35203-0.10003-0.005-0.47695-0.11676-0.65245-0.1898-0.25561-0.37883-0.5135-0.58929-0.75233-0.17041-0.0841-0.37343-0.0217-0.55849-0.0313-0.35132,0.012-0.70591,0.022-1.0552,0.0352zm1.1732-0.51153c0.18229,0.0111-0.0571-0.15544-0.0868-0.23536-0.42445-0.55445-0.84889-1.1089-1.2733-1.6633,0.0839-0.0129,0.0172,0.17549,0.0386,0.25552-0.002,0.5612,0.004,1.1226-0.002,1.6837,0.44105-0.0106,0.88396-0.0264,1.3238-0.0405z"/>

<path d="m492.7,265.77c-0.14936-0.39834-0.34992-0.88654-0.81752-0.98102-0.24305,0.0438-0.70218-0.17699-0.45279-0.43884,0.55052-0.008,1.1029,0.0301,1.6534-0.0168,0.69784-0.0604,1.416-0.0428,2.0797,0.20455,1.4601,0.49242,2.672,1.7777,2.9142,3.3212,0.10741,0.60447-0.0788,1.3034-0.62503,1.6411-0.73524,0.46702-1.6421,0.38035-2.4704,0.33336-0.46991-0.0221-0.93798,0.0398-1.4038,0.086-0.30403-0.0415-0.3372-0.51217,0.0233-0.45643,0.37223-0.0121,0.36467-0.42242,0.22829-0.66787-0.37645-1.008-0.75316-2.0193-1.1294-3.0252zm1.97,2.4936c0.14884,0.34026,0.23924,0.75541,0.56296,0.97636,0.30214,0.14269,0.6575,0.11564,0.98151,0.0803,0.43944-0.0594,0.71224-0.49285,0.71647-0.91173,0.0269-0.75326-0.28171-1.4733-0.63171-2.1243-0.37441-0.7006-1.0557-1.2335-1.8441-1.3722-0.32451-0.0534-0.66476-0.10312-0.99053-0.0491-0.0707,0.123,0.059,0.27181,0.0864,0.40147,0.373,0.99972,0.74599,1.9994,1.119,2.9991z"/>

<path d="m473.56,280.68c0.11606,0.34963,0.43958,0.60007,0.80483,0.63405,0.25677,0.0452,0.69924-0.0156,0.7128,0.35386-0.13761,0.2344-0.52951,0.0712-0.76858,0.1225-0.51864-0.009-1.0376,0.008-1.5504,0.0922-0.27697,0.0118-0.56691,0.12559-0.8373,0.0485-0.24472-0.11624-0.19392-0.47039,0.10657-0.42647,0.24725-0.0579,0.60421-0.13495,0.622-0.44863-0.023-0.28469-0.18161-0.53458-0.27762-0.79946-0.38512-0.91649-0.76056-1.8372-1.1519-2.751-0.0861-0.32419-0.44627-0.33313-0.71537-0.28394-0.24766,0.0472-0.61627,0.1239-0.67679-0.21966,0.0302-0.29194,0.49713-0.23832,0.70232-0.38999,0.31181-0.12117,0.61996-0.25633,0.93884-0.35646,0.2159-0.0466,0.32497,0.1506,0.37916,0.32165,0.57039,1.3671,1.1415,2.7383,1.7114,4.1028z"/>

<path d="m474.31,276.17c0.68157-0.0264,1.3667,0.0766,2.0461,0.002,0.30072-0.0289,0.0947-0.49726,0.38365-0.47016,0.37142,0.0171,0.31167,0.47765,0.33508,0.73916,0.0422,0.33127-0.23741,0.62475-0.56978,0.58312-0.53305,0.0289-1.0648-0.0493-1.598-0.0213,0.12116,0.41264,0.28802,0.80975,0.44482,1.2092,0.0275-0.13437,0.46005-0.15534,0.63873-0.1809,1.0643-0.0467,2.1676,0.56093,2.6138,1.5434,0.21451,0.47701,0.32727,1.1006-0.0285,1.5406-0.38664,0.45626-1.0303,0.54904-1.5958,0.55416-0.48924-0.006-1.0641-0.11235-1.353-0.5493-0.16678-0.21528-0.13828-0.68045,0.22108-0.64108,0.30463,0.004,0.65887,0.26426,0.60927,0.59572,0.16287,0.22213,0.52468,0.14404,0.77532,0.13986,0.29921-0.0105,0.58436-0.24171,0.56922-0.55843,0.007-0.48591-0.18499-0.96182-0.45431-1.3595-0.29162-0.42264-0.78266-0.70723-1.3024-0.69596-0.29377-0.0494-0.5476,0.1472-0.82727,0.14669-0.28405-0.0376-0.33434-0.36628-0.43468-0.58118-0.2377-0.59776-0.46117-1.2018-0.64986-1.817-0.0191-0.10564,0.0752-0.19163,0.17659-0.17909z"/>

<path d="m481.16,277.19c-0.16047-0.39514-0.37046-0.88248-0.8414-0.96765-0.24185,0.0565-0.70339-0.16996-0.46203-0.42988,0.55717-0.022,1.1176-0.001,1.6734-0.0676,0.70408-0.0848,1.4324-0.0708,2.1052,0.17584,1.486,0.49365,2.7091,1.8179,2.9341,3.3872,0.0887,0.58373-0.11406,1.2385-0.63224,1.5634-0.71804,0.46579-1.6078,0.39631-2.4238,0.37712-0.4528-0.005-0.90098,0.0699-1.3477,0.12798-0.30094-0.0344-0.35294-0.50358,0.008-0.4612,0.3732-0.0274,0.34313-0.44024,0.20295-0.68191-0.4054-1.0075-0.81109-2.0171-1.2163-3.0233zm2.0307,2.4609c0.15813,0.33874,0.25946,0.75312,0.58863,0.9696,0.30223,0.13593,0.65449,0.098,0.97409,0.0527,0.43943-0.0753,0.68696-0.52453,0.67805-0.94167,0.003-0.76061-0.32573-1.4787-0.69458-2.1277-0.38903-0.6907-1.0775-1.2137-1.869-1.3328-0.32242-0.044-0.66071-0.0842-0.98153-0.0206-0.0653,0.12618,0.068,0.27222,0.0991,0.40236,0.40169,0.99938,0.8037,1.9988,1.2052,2.9981z"/>

<path d="m489.63,275.39c0.31178-0.0532,0.35285,0.29338,0.437,0.50448,0.10128,0.28312,0.24535,0.54906,0.3459,0.83193-0.1893,0.31085-0.50732-0.0573-0.58803-0.28325-0.14484-0.24762-0.35587-0.519-0.67346-0.51186-0.4115-0.0205-0.82498,0.002-1.2352,0.0343-0.22517,0.10065,0.0154,0.38945,0.0539,0.56683,0.18315,0.45139,0.34635,0.91271,0.54261,1.3576,0.26528-0.009,0.57328,0.0123,0.79839-0.15157,0.17488-0.21253-0.26822-0.73665,0.21199-0.68033,0.32664,0.11904,0.27678,0.56859,0.41544,0.83786,0.12466,0.39688,0.35587,0.74837,0.4908,1.1405-0.17513,0.33071-0.54337-0.0556-0.59294-0.30249-0.14146-0.32034-0.52112-0.36204-0.82832-0.35078-0.20477-0.0355-0.37006,0.0103-0.22596,0.21599,0.21474,0.51544,0.37925,1.0551,0.65528,1.5422,0.20328,0.34681,0.64962,0.30164,0.9943,0.29753,0.33009-0.0121,0.73597-0.008,0.93997-0.31739,0.20676-0.24272-0.19639-0.65729,0.0819-0.81092,0.33772-0.0958,0.41613,0.27773,0.46617,0.5222,0.0755,0.30705,0.18428,0.60483,0.28994,0.90134-0.0315,0.19742-0.28035,0.13291-0.42657,0.15311-1.0295,0.0442-2.0601,0.0672-3.0888,0.12727-0.28711-0.0192-0.69076,0.20649-0.86993-0.11391-0.18386-0.39605,0.50285-0.17964,0.5304-0.52494,0.0206-0.30461-0.15923-0.57313-0.25097-0.8547-0.38399-0.9655-0.75106-1.938-1.1469-2.8986-0.13617-0.31314-0.36116-0.66186-0.74051-0.67914-0.23682,0.0409-0.60259-0.13649-0.45593-0.41257,0.35614-0.0589,0.72799-0.005,1.0901-0.0347,0.92646-0.0354,1.8533-0.0702,2.7795-0.10605z"/>

<path d="m462.35,289.67c0.14889,0.48692,0.66813,0.68606,1.1115,0.81754,0.76953,0.26088,1.5999,0.5188,2.1474,1.158,0.30658,0.3717,0.51888,0.85427,0.49645,1.3425-0.0396,0.49631-0.46485,0.86901-0.92484,0.99075-0.5659,0.18399-1.1912,0.1355-1.735-0.0972-0.26579-0.1147-0.16456,0.46707-0.49617,0.27047-0.23849-0.18227-0.16339-0.5597-0.29566-0.81493-0.10452-0.33044-0.24388-0.64843-0.38522-0.96389,0.0122-0.3258,0.47952-0.15603,0.49529,0.0975,0.32751,0.59399,0.92384,1.12,1.6332,1.1256,0.35806,0.011,0.80671-0.17966,0.83786-0.58366,0.007-0.53472-0.41913-0.95354-0.86493-1.1829-0.63918-0.33173-1.3753-0.43717-1.9939-0.81201-0.55467-0.33412-0.94649-0.95389-0.9475-1.6079,0.0124-0.43668,0.36971-0.77784,0.7672-0.90267,0.50247-0.17158,1.0552-0.20067,1.5676-0.0533,0.23849,0.12524,0.34031-0.27354,0.59498-0.0757,0.11428,0.19555,0.0847,0.46072,0.19379,0.67176,0.0806,0.28622,0.27144,0.5368,0.33396,0.82495-0.15855,0.24419-0.46565,0.0144-0.51716-0.20276-0.22085-0.36611-0.51648-0.77262-0.98273-0.80483-0.34605-0.0265-0.7856-0.0294-1.0066,0.28776-0.0965,0.1537-0.0917,0.34996-0.0294,0.51496z"/>

<path d="m469.04,288.02c0.32657-0.0589,0.33649,0.314,0.41808,0.52848,0.0813,0.27158,0.20932,0.52697,0.28887,0.79855-0.13999,0.28678-0.49293,0.0246-0.53577-0.21096-0.13686-0.26048-0.33786-0.57167-0.67348-0.55212-0.4093-0.007-0.81908,0.0304-1.2254,0.0755-0.22745,0.10072-0.007,0.39086,0.0247,0.5716,0.15781,0.4505,0.29564,0.90987,0.46654,1.3546,0.2675-0.0184,0.57594-0.01,0.79916-0.17995,0.1955-0.20067-0.19249-0.60425,0.13885-0.69572,0.37391-0.0471,0.34474,0.44123,0.43459,0.68421,0.0967,0.44975,0.33494,0.84931,0.46752,1.2862-0.14491,0.31671-0.5323,0.01-0.55108-0.24764-0.11183-0.32857-0.48297-0.39833-0.78805-0.36789-0.17891-0.0113-0.42194-0.0128-0.2756,0.21065,0.181,0.50461,0.3186,1.0269,0.54996,1.5117,0.12108,0.28359,0.45097,0.34613,0.72676,0.32248,0.39263-0.0271,0.84683,0.0151,1.1533-0.28135,0.24544-0.23384,0.0408-0.58484,0.095-0.85328,0.24945-0.19893,0.52577,0.068,0.49972,0.34236,0.0692,0.34542,0.16129,0.68631,0.26731,1.0211-0.0418,0.20112-0.29151,0.14397-0.4453,0.16981-1.0176,0.0778-2.0371,0.13304-3.0531,0.22801-0.28026-0.0136-0.68355,0.23497-0.85527-0.0871-0.15839-0.38323,0.45714-0.20653,0.53743-0.50154,0.081-0.295-0.0978-0.57443-0.17249-0.85371-0.33603-0.9796-0.65391-1.9657-1.0027-2.9407-0.11595-0.30747-0.32641-0.66035-0.69818-0.66291-0.23795,0.0555-0.59246-0.13222-0.42986-0.40217,0.3458-0.072,0.71148-0.0279,1.0643-0.0703,0.92469-0.066,1.8496-0.13171,2.7742-0.19787z"/>

<path d="m473.22,292.16c0.091,0.30434,0.2697,0.63825,0.61206,0.6999,0.24923,0.0888,0.66447-0.0731,0.73162,0.28619-0.0121,0.32758-0.49229,0.14975-0.71215,0.20375-0.50985-0.0271-1.0209,0.008-1.5222,0.10462-0.21782,0.0315-0.54463,0.10754-0.60795-0.18878-0.0545-0.33567,0.4631-0.14679,0.57268-0.39914,0.0804-0.25911-0.0661-0.51646-0.13591-0.76453-0.33739-1.0049-0.66303-2.0138-1.0085-3.0159-0.11428-0.29175-0.27006-0.67408-0.62939-0.70776-0.23232-0.0105-0.6288-0.0315-0.55781-0.36759,0.1746-0.16557,0.48564-0.0523,0.71242-0.0825,0.73096,0.0161,1.4495-0.19235,2.1804-0.144,0.75108,0.0285,1.4823,0.50765,1.7354,1.2278,0.1648,0.40531,0.21971,0.91647-0.0793,1.2755-0.38705,0.45469-1.0216,0.5475-1.5803,0.62208-0.21194-0.0276-0.04,0.19166-0.0267,0.30158,0.10509,0.31628,0.21129,0.63246,0.31569,0.94881zm-0.57141-1.7202c0.2055,0.0293,0.46107-0.0251,0.67612-0.0833,0.31359-0.0633,0.47812-0.39914,0.39601-0.69578-0.0877-0.42243-0.22807-0.86517-0.54377-1.1743-0.30389-0.25301-0.74642-0.26101-1.112-0.16344-0.13967,0.12196,0.002,0.31915,0.0355,0.46985,0.18281,0.54879,0.36475,1.0991,0.5481,1.647z"/>

<path d="m478.8,291.87c0.0897,0.25498,0.17001,0.61087,0.49187,0.65157,0.24649,0.0547,0.66053-0.036,0.69072,0.32033-0.0607,0.26474-0.44121,0.11529-0.64317,0.1555-0.53863-0.0414-1.0748,0.0309-1.6059,0.11158-0.22567,0.0776-0.54836-0.0218-0.49373-0.31187,0.13752-0.21281,0.64999-0.0496,0.64426-0.4153-0.0549-0.39043-0.21769-0.75577-0.3292-1.1326-0.31766-0.96675-0.63085-1.935-0.95132-2.9008-0.0762-0.30964-0.42906-0.29003-0.67893-0.26934-0.25453,0.019-0.62035,0.0473-0.69252,0.35027-0.0828,0.25442,0.0399,0.53291-0.0153,0.7784-0.23703,0.16264-0.46687-0.089-0.45654-0.33006-0.0829-0.34413-0.20809-0.6764-0.34461-1.0016-0.009-0.23925,0.30469-0.21863,0.47906-0.23639,1.3809-0.0816,2.7616-0.17001,4.1427-0.24727,0.30058-0.0552,0.49009,0.18787,0.48207,0.47102,0.0834,0.33503,0.22364,0.65237,0.3452,0.97347-0.0677,0.28279-0.4853,0.13043-0.50147-0.11884-0.17371-0.35344-0.44476-0.73357-0.87382-0.76235-0.28084-0.005-0.62542-0.0571-0.85908,0.1244-0.0529,0.20577,0.0778,0.40251,0.12516,0.59989,0.3483,1.0632,0.69586,2.1274,1.0446,3.19z"/>

<path d="m480.9,288.58c-0.10511-0.30537-0.21974-0.69305-0.57144-0.78928-0.23567-0.0608-0.64922,0.009-0.62597-0.35547,0.0961-0.2119,0.41704-0.0804,0.60887-0.11995,0.59887,0.0268,1.1927-0.0588,1.7867-0.11794,0.26641-0.12052,0.47853,0.42109,0.15225,0.42081-0.25499-0.002-0.54577,0.18766-0.44215,0.47338,0.13157,0.53152,0.32425,1.0457,0.48566,1.5688,0.24059,0.73278,0.46742,1.4703,0.71758,2.1998,0.0665,0.22873,0.24776,0.43142,0.49851,0.44095,0.24128,0.001,0.66349,0.0343,0.58769,0.37901-0.1803,0.1561-0.47927,0.0579-0.70826,0.0802-0.53844-0.0442-1.0723,0.0478-1.6044,0.11402-0.23234,0.0989-0.53601-0.13911-0.39232-0.37822,0.20623-0.0973,0.64726-0.043,0.61705-0.38405-0.0778-0.41061-0.23705-0.80053-0.35686-1.2003-0.25102-0.77713-0.50179-1.555-0.75297-2.3317z"/>

<path d="m486.66,286.98c0.31717-0.0569,0.33321,0.30467,0.40399,0.51705,0.0781,0.27686,0.20196,0.53879,0.27922,0.81529-0.14497,0.28325-0.49455,0.0177-0.53358-0.21905-0.13249-0.26332-0.32917-0.57588-0.66559-0.56223-0.41104-0.014-0.82341,0.0142-1.2324,0.0527-0.23041,0.0941-0.0151,0.38839,0.0135,0.56872,0.14972,0.4516,0.28011,0.91144,0.44239,1.3577,0.26893-0.0116,0.57851,0.002,0.80688-0.163,0.20002-0.19577-0.18048-0.60674,0.15397-0.68977,0.3753-0.0418,0.33671,0.44565,0.4235,0.6897,0.0859,0.45005,0.32007,0.85096,0.44274,1.2887-0.11466,0.28936-0.52699,0.0423-0.52805-0.21334-0.095-0.31925-0.42841-0.45271-0.73858-0.42294-0.1459,0.017-0.50285-0.0743-0.35829,0.1705,0.17515,0.51627,0.30659,1.0495,0.53275,1.5467,0.11732,0.28608,0.44757,0.35292,0.72429,0.33446,0.39424-0.0213,0.85017,0.0326,1.164-0.2582,0.2504-0.22688,0.0537-0.58104,0.11246-0.84692,0.2531-0.19218,0.52629,0.0749,0.4951,0.35,0.0621,0.345,0.1479,0.68566,0.24775,1.0205-0.0412,0.19413-0.28099,0.13883-0.42978,0.15928-1.0307,0.0587-2.063,0.0955-3.0926,0.1711-0.27507-0.0176-0.64413,0.20276-0.83815-0.0655-0.21721-0.38819,0.37975-0.2524,0.50742-0.48641,0.13455-0.26611-0.0422-0.5471-0.10792-0.80986-0.32143-0.99485-0.6289-1.9944-0.95988-2.986-0.11127-0.3225-0.31496-0.70295-0.7037-0.71373-0.23837,0.0517-0.59267-0.14098-0.42458-0.40838,0.34344-0.0639,0.70388-0.0156,1.0537-0.0492,0.93604-0.0492,1.8754-0.0989,2.8094-0.14777z"/>

<path d="m488.66,287.94c-0.0657-0.35753-0.33894-0.67675-0.73368-0.62169-0.37451,0.0966-0.49968-0.57125-0.0338-0.43032,0.50848,0.003,1.0301-0.0779,1.5292,0.0357,0.24359,0.26365,0.43909,0.576,0.66317,0.85939,0.72332,0.96789,1.4466,1.9358,2.17,2.9037-0.15869,0.0356-0.0357-0.18539-0.0528-0.30101,0.11819-1.1806,0.23638-2.3613,0.35457-3.5419,0.27347-0.22599,0.73028-0.13101,1.0778-0.20207,0.28161-0.0423,0.92456-0.13543,0.745,0.34872-0.33791,0.0556-0.77046,0.22133-0.53651,0.64662,0.35919,1.1968,0.73766,2.388,1.1146,3.5793,0.0684,0.41823,0.48925,0.54588,0.85784,0.52738,0.31687,0.0176,0.33222,0.56251-0.0483,0.43054-0.59356-0.0131-1.1911-0.049-1.7788,0.0635-0.26548,0.0904-0.82078,0.0613-0.64053-0.35521,0.2974-0.0534,0.79403-0.14241,0.58654-0.57225-0.31695-1.0602-0.65767-2.1134-0.98417-3.1707,0.0684,0.095-0.0116,0.25498-0.004,0.37763-0.0959,0.98935-0.22807,1.9758-0.29215,2.9677-0.0395,0.26019,0.0492,0.57372-0.0735,0.79806-0.23587,0.11618-0.38592-0.11309-0.50374-0.27632-0.95195-1.2325-1.9039-2.465-2.8558-3.6975,0.0969-0.0356,0.0852,0.20949,0.13956,0.29186,0.3062,0.95953,0.58871,1.9272,0.91128,2.8811,0.10061,0.3878,0.4941,0.50099,0.84781,0.50431,0.37869,0.19377,0.0985,0.54795-0.23164,0.40323-0.50034-0.0717-0.99765,0.0282-1.4927,0.0846-0.31467-0.009-0.33014-0.51374,0.0285-0.44736,0.46931,0.004,0.32648-0.52269,0.21748-0.80097-0.3411-1.0914-0.68219-2.1828-1.0233-3.2742,0.0141-0.004,0.0283-0.008,0.0424-0.0118z"/>

<path d="m497.4,288.79c0.0593,0.22476,0.36397,0.0736,0.52636,0.0972,0.28524-0.0165,0.61957-0.17486,0.63537-0.4985,0.0105-0.43614-0.15685-0.90446-0.49909-1.188-0.33014-0.25253-0.7692-0.22938-1.1607-0.19218-0.0424,0.14588,0.0624,0.3026,0.0924,0.45097,0.13509,0.44347,0.27115,0.88718,0.40563,1.3305zm0.48727,1.5984c0.1243,0.34789,0.19268,0.74271,0.45051,1.0221,0.23769,0.17962,0.56719,0.10432,0.84205,0.087,0.25743-0.0181,0.48711-0.22901,0.46145-0.49857-0.0314-0.59699-0.31608-1.2607-0.90721-1.4938-0.34005-0.12467-0.71258-0.12688-1.0689-0.0911-0.11162,0.0967,0.0379,0.28888,0.0537,0.42193,0.0561,0.18406,0.11246,0.36888,0.16841,0.55248zm-1.7731-2.4024c-0.11732-0.34452-0.22409-0.76964-0.58576-0.93399-0.23304-0.0884-0.64285,0.0181-0.66332-0.33802,0.0833-0.28874,0.54417-0.0786,0.77388-0.13791,0.88678,0.011,1.7946-0.22455,2.6611,0.0631,0.69317,0.18493,1.2838,0.81885,1.2791,1.5575-0.003,0.40874-0.3333,0.71678-0.6865,0.86554-0.0233-0.13426,0.361,0.07,0.49973,0.0951,0.52848,0.18831,1.0182,0.55649,1.225,1.0936,0.17741,0.4142,0.27983,0.9529-0.0379,1.328-0.36163,0.40228-0.94951,0.43124-1.454,0.44425-0.79021,0.003-1.5851-0.0181-2.3676,0.11407-0.28387,0.0354-0.39564-0.50222-0.0385-0.44706,0.35957-0.001,0.45947-0.37887,0.32266-0.65627-0.30878-1.0152-0.62145-2.0365-0.9278-3.0479z"/>

<path d="m501.12,287.81c-0.11404-0.34551-0.21756-0.77042-0.57837-0.93689-0.23778-0.0893-0.68709,0.0123-0.6651-0.37022,0.1937-0.25554,0.6567-0.0412,0.95446-0.10429,0.67824,0.005,1.3575-0.13005,2.0341-0.0445,0.79087,0.0929,1.5491,0.64555,1.7414,1.4413,0.14245,0.42071,0.0486,0.95351-0.35953,1.1906-0.0865,0.0956-0.51977,0.19808-0.44425,0.19026,0.60412,0.23923,1.1193,0.69009,1.4122,1.2729,0.15965,0.26189,0.2415,0.58058,0.46616,0.7966,0.2655,0.19822,0.29658-0.1638,0.34165-0.32636,0.3514-0.17469,0.5287,0.31622,0.386,0.58035-0.14669,0.42164-0.67828,0.50437-1.06,0.40458-0.34269-0.0777-0.60222-0.34-0.75643-0.6456-0.34142-0.53715-0.55388-1.1701-1.0298-1.6109-0.2241-0.19542-0.56642-0.30903-0.85076-0.19697-0.0741,0.13476,0.0394,0.28906,0.0626,0.42985,0.12706,0.39123,0.20766,0.80039,0.38614,1.1723,0.15783,0.32729,0.5426,0.40775,0.87264,0.40953,0.3218-0.008,0.34475,0.55927-0.032,0.42881-0.61-0.003-1.224-0.0761-1.8297,0.0331-0.22134-0.005-0.5324,0.13592-0.67395-0.10107-0.21466-0.41912,0.41715-0.22783,0.55717-0.46773,0.0897-0.27847-0.0644-0.55997-0.12956-0.83138-0.26816-0.90409-0.53726-1.8139-0.80484-2.7144zm1.3126,0.91741c0.0983,0.32687,0.55572,0.14918,0.80494,0.14415,0.29054-0.0294,0.45975-0.32567,0.39805-0.59836-0.075-0.44854-0.19181-0.94321-0.54745-1.2556-0.30615-0.22447-0.72127-0.2232-1.0797-0.16157-0.1535,0.12803-0.0127,0.3413,0.0189,0.50327,0.13493,0.45593,0.27113,0.91278,0.40527,1.3681z"/>

<path d="m509.32,286.19c0.31224-0.0488,0.32571,0.29784,0.38442,0.50986,0.0709,0.28206,0.18743,0.55093,0.25681,0.83269-0.13482,0.25829-0.48808,0.0312-0.51432-0.2046-0.12875-0.2599-0.29229-0.58898-0.62453-0.60507-0.42769-0.0352-0.85882-0.0179-1.2866,0.005-0.23408,0.0833-0.0305,0.38309-0.008,0.5622,0.13486,0.45258,0.24983,0.91319,0.39766,1.3605,0.25857,0.00033,0.53808,0.008,0.77834-0.10389,0.28143-0.15885-0.11061-0.58931,0.1868-0.70182,0.37332-0.0818,0.36884,0.39384,0.426,0.63885,0.068,0.46738,0.29585,0.8879,0.40974,1.3417-0.12441,0.28166-0.53048,0.028-0.52429-0.22846-0.0805-0.2955-0.37283-0.45338-0.66666-0.44026-0.14063,0.0268-0.55645-0.12009-0.43577,0.13659,0.16066,0.52292,0.27429,1.0625,0.48729,1.5675,0.11003,0.29024,0.44075,0.36352,0.71812,0.3554,0.3983-0.007,0.85477,0.0615,1.1832-0.2172,0.26034-0.21419,0.0738-0.57422,0.14373-0.83477,0.25814-0.18142,0.52699,0.087,0.4865,0.3627,0.0504,0.34399,0.12514,0.68435,0.21332,1.0195-0.053,0.19462-0.29552,0.12713-0.44878,0.14399-1.0382,0.0236-2.077,0.0258-3.1147,0.0658-0.26829-0.0246-0.60747,0.15841-0.81792-0.0558-0.26364-0.37823,0.29767-0.30441,0.47311-0.46745,0.1894-0.22034,0.0327-0.51217-0.0246-0.75657-0.29628-1.0238-0.57846-2.0518-0.88432-3.0728-0.10036-0.30857-0.27116-0.6801-0.6367-0.72204-0.23665,0.0117-0.6103-0.0938-0.48481-0.40469,0.30107-0.10493,0.65561-0.003,0.97706-0.0349,0.98244-0.0168,1.9704-0.0371,2.9494-0.0525z"/>

<path d="m476.5,299.32c-0.0934-0.36829-0.21694-0.84959-0.6443-0.94876-0.23667,0.006-0.64397-0.0622-0.49975-0.39344,0.30684-0.12338,0.67358-0.0278,1.003-0.0757,0.81944-0.0426,1.6529-0.24547,2.465-0.0271,1.1924,0.27335,2.2307,1.1874,2.5821,2.3689,0.22609,0.73058,0.26116,1.602-0.23082,2.237-0.51874,0.66626-1.4103,0.85237-2.2124,0.86219-0.6166-0.006-1.2373-0.0111-1.8449,0.1133-0.23578,0.14216-0.62923-0.0921-0.42203-0.35446,0.25782-0.0745,0.66966-0.1498,0.59153-0.51787-0.0949-0.51357-0.24249-1.0168-0.3601-1.5259-0.14236-0.57881-0.28538-1.1622-0.42733-1.7381zm1.6413,2.4389c0.0991,0.32378,0.13668,0.70991,0.40472,0.94539,0.27474,0.16116,0.61568,0.0966,0.91779,0.0711,0.46892-0.0634,0.81472-0.47881,0.8889-0.93115,0.14121-0.75838-0.0791-1.5356-0.37855-2.2291-0.2592-0.60261-0.79874-1.0799-1.4469-1.2138-0.37709-0.0769-0.77868-0.11418-1.1574-0.0394-0.0844,0.11562,0.0226,0.27276,0.0359,0.40346,0.24516,0.99783,0.49037,1.9957,0.7355,2.9935z"/>

<path d="m485.2,297.33c0.31751-0.0599,0.3103,0.30394,0.36154,0.51419,0.0564,0.27571,0.15977,0.53983,0.21483,0.81525-0.12851,0.26041-0.48747,0.0612-0.50141-0.18582-0.11291-0.2546-0.26765-0.58408-0.59289-0.58558-0.42598-0.0187-0.85316,0.0187-1.2768,0.0589-0.2345,0.0864-0.049,0.38539-0.0319,0.56853,0.1139,0.45184,0.20726,0.91087,0.3345,1.3581,0.27365-0.0154,0.58483-0.006,0.81844-0.17075,0.21328-0.18819-0.13012-0.61637,0.20804-0.69169,0.37629-0.0458,0.30263,0.44717,0.36776,0.68698,0.0505,0.44535,0.25212,0.85205,0.34087,1.2876-0.1201,0.28437-0.53015,0.0584-0.51079-0.2098-0.0687-0.3233-0.40261-0.45182-0.70361-0.41733-0.14571,0.0204-0.49528-0.0733-0.37278,0.17365,0.13438,0.51618,0.22207,1.0468,0.41064,1.5469,0.0962,0.29139,0.4297,0.34951,0.69682,0.32934,0.41639-0.0214,0.90481,0.0215,1.2204-0.30646,0.24471-0.22532,0.0177-0.60203,0.17019-0.83264,0.29085-0.16695,0.48367,0.14183,0.44323,0.40792,0.0325,0.33023,0.0931,0.65735,0.16165,0.9806-0.0589,0.19934-0.30534,0.14109-0.46594,0.16517-1.0253,0.0667-2.0522,0.11211-3.0763,0.19516-0.2567-0.009-0.55177,0.15352-0.7803,0.0117-0.2579-0.27125,0.0945-0.40864,0.32475-0.43973,0.28961-0.0955,0.26016-0.44281,0.18662-0.67677-0.26272-1.0796-0.51185-2.1627-0.78379-3.24-0.0831-0.30026-0.23842-0.67663-0.5989-0.70188-0.2364,0.0282-0.60358-0.0817-0.46308-0.38846,0.29574-0.11893,0.6518-0.0314,0.97047-0.0755,0.97561-0.0585,1.9542-0.11668,2.9278-0.17758z"/>

<path d="m491.69,301.43c0.0446,0.30912,0.28477,0.57044,0.59589,0.62091,0.23667,0.0983,0.60539-0.0382,0.73338,0.24268,0.0925,0.35055-0.38792,0.23525-0.59032,0.2514-0.57299-0.01-1.148-0.0211-1.7165,0.066-0.28534,0.0184-0.57319,0.0958-0.85811,0.0647-0.27732-0.11669-0.15-0.50142,0.14665-0.44363,0.26817-0.0588,0.63011-0.12887,0.70639-0.44099,0.0331-0.26867-0.079-0.52694-0.12588-0.78863-0.2154-0.92095-0.42177-1.8442-0.64295-2.7637-0.0304-0.32556-0.38717-0.33441-0.63464-0.29444-0.2285,0.009-0.58736,0.16253-0.66028-0.16279-0.0359-0.33806,0.46553-0.2687,0.67085-0.4065,0.36855-0.12678,0.732-0.27248,1.1066-0.37935,0.21164-0.0481,0.30106,0.1503,0.31907,0.32049,0.31649,1.3713,0.63402,2.7426,0.94986,4.1138z"/>

<path d="m495.38,298.11c-0.0726-0.36321-0.27901-0.7858-0.68883-0.83918-0.29181-0.0554-0.67132,0.0288-0.77688,0.34277-0.11265,0.37317,0.0381,0.80935,0.36877,1.0224,0.27207,0.19826,0.59182,0.31183,0.89418,0.4538,0.0592-0.11868,0.24697-0.34967,0.23698-0.55858,0.0137-0.14055-0.007-0.28821-0.0342-0.4212zm0.83637,2.8932c-0.10281-0.48732-0.5702-0.7696-0.99649-0.94842-0.1846-0.0322-0.44459-0.27742-0.55824-0.17656-0.30832,0.268-0.45707,0.71405-0.32031,1.1068,0.11379,0.48284,0.47947,0.96037,1.0057,1.0009,0.3479,0.0459,0.75979-0.11009,0.86327-0.47412,0.0535-0.16421,0.0442-0.34228,0.006-0.50864zm0.88943-0.20863c0.13592,0.47897-0.0601,1.0199-0.47068,1.3005-0.58142,0.40047-1.3554,0.42767-2.016,0.23143-0.58667-0.17203-1.0812-0.66342-1.185-1.2762-0.12189-0.48865,0.0785-1.0449,0.51326-1.3111,0.10093-0.10012,0.48787-0.14045,0.17512-0.21569-0.49885-0.24496-0.98962-0.64525-1.0924-1.2224-0.12081-0.48733,0.10613-1.0354,0.55173-1.2747,0.85828-0.46833,2.0876-0.192,2.5834,0.67512,0.21739,0.36862,0.25955,0.86121-0.001,1.2206-0.1401,0.19397-0.32105,0.38958-0.56398,0.44303,0.48542,0.099,0.92759,0.39815,1.2228,0.79362,0.13902,0.18823,0.2327,0.40754,0.28275,0.63563z"/>

<path d="m500.37,301.35c0.24295,0.009,0.50439-0.13521,0.54094-0.39284,0.0851-0.19635-0.0838-0.61545,0.25474-0.59164,0.30868,0.0197,0.27738,0.37878,0.30899,0.60186,0.0259,0.39781-0.002,0.87237-0.34408,1.1374-0.24853,0.15789-0.55805,0.0922-0.83593,0.0963-0.56166-0.0186-1.123-0.13696-1.685-0.0727-0.23517,0.024-0.49487,0.28626-0.71675,0.0978-0.19209-0.22319-0.077-0.51875-0.005-0.76428,0.19446-0.61516,0.62428-1.1173,1.0997-1.5381,0.33451-0.31284,0.71044-0.65162,0.76033-1.1362,0.0412-0.41146-0.0782-0.836-0.29245-1.1863-0.28303-0.45124-0.94979-0.60823-1.3988-0.32122-0.23138,0.14903-0.41348,0.49488-0.22791,0.74502,0.21074,0.16246,0.59983,0.0174,0.70201,0.35421,0.13004,0.23361-0.005,0.59858-0.30108,0.59523-0.44024,0.068-0.83814-0.27723-0.95201-0.68516-0.18088-0.51011,0.0211-1.1303,0.49487-1.4058,0.49942-0.31245,1.1347-0.30455,1.6897-0.16948,0.56589,0.13998,1.0426,0.57886,1.2146,1.1377,0.15369,0.43258,0.16049,0.93304-0.0813,1.336-0.37581,0.71765-1.149,1.0743-1.6571,1.6769-0.14278,0.15646-0.24423,0.37142-0.18553,0.5856,0.0763-0.20325,0.39739-0.13277,0.58205-0.16726,0.3472-0.0144,0.68867,0.0763,1.0351,0.067z"/>

<path d="m504.31,300.93c0.038,0.30996,0.27363,0.57568,0.58352,0.63192,0.22828,0.10146,0.56734-0.0157,0.71536,0.22534,0.14451,0.345-0.33305,0.28338-0.53603,0.27056-0.59094-0.0206-1.184-0.0507-1.7725,0.0266-0.28688,0.0121-0.57763,0.0817-0.86298,0.0444-0.28059-0.1282-0.1302-0.49628,0.1579-0.43846,0.26995-0.0519,0.6339-0.11286,0.7198-0.42222,0.0384-0.26561-0.0671-0.52405-0.10789-0.7845-0.19476-0.9229-0.38014-1.848-0.58094-2.7695-0.0191-0.28415-0.3155-0.34607-0.54674-0.31214-0.23597-0.0262-0.56287,0.16536-0.71312-0.0926-0.1734-0.35216,0.34436-0.34537,0.5521-0.43795,0.40776-0.1253,0.80848-0.27728,1.2211-0.38452,0.21179-0.0436,0.29799,0.15464,0.31202,0.32504,0.28623,1.3726,0.57163,2.7456,0.85839,4.118z"/>

</g>

</g>

<g>

<g fill="#448127" stroke="#34541f" stroke-width="0.2185">
<path fill="url(#rg6)" stroke="#4c0505" d="m475.8,219.41-3.7712,4.4831c-1.1995,5.2399,1.782,9.187,7.6495,12.614,4.7523,2.9497,13.549,3.6886,16.327,1.311l-13.714-13.071-6.4917-5.3367z"/>

<path d="m503.58,354.27c-0.67209-0.80996-1.352-1.6173-2.0351-2.424-8.5576,11.298-19.248,21.429-32.617,28.575,15.077-4.2692,24.945-15.257,34.652-26.151z"/>

<path d="m488.14,389.98c5.3164-10.772,11.731-21.544,18.203-32.317-0.70661-0.87988-1.4224-1.7595-2.1441-2.6357-7.3517,12.186-15.979,26.679-16.059,34.952z"/>

<path d="m529.87,275.48c-0.98453-4.2467-2.2704-8.8375-4.3089-13.055-2.6573-5.4313-6.6232-10.831-11.832-16.804-9.3826-10.173-18.771-19.997-31.926-27.251,0.0242-0.0465,0.0452-0.0913,0.0686-0.13743l0.0774,0.0459h0.16387l-0.16125-0.20036h0.47064l-0.25481-0.255h0.43698l-0.35199-0.4005h0.46124l-0.32861-0.32775h0.49248l-0.27312-0.36423,0.39767,0.0304-0.3721-0.38695,0.54798-0.10881-0.4442-0.27946,0.48047-0.0918-0.40334-0.27552,0.58557-0.18747-0.51587-0.30568,0.65243-0.28797-0.63167-0.45644,0.66794-0.22854-0.72584-0.29541,0.61244-0.32162-0.72125-0.13023,0.48899-0.56612-0.70202,0.0371,0.31965-0.59693-0.66706,0.0555c-0.0149-0.019-0.0286-0.0389-0.0444-0.0577l0.36576-0.44945-0.67514,0.12018,0.29693-0.61092-0.64958,0.32469,0.18528-0.70705-0.62774,0.43218,0.0953-0.71906-0.57901,0.4962,0.0601-0.68739-0.50996,0.53335,0.0457-0.72453-0.50275,0.61026-0.0503-0.71273-0.4029,0.56-0.20495-0.67624-0.33452,0.67624-0.17064-0.7171-0.3166,0.7171-0.15447-0.7171-0.27312,0.7171-0.20648-0.67624-0.21456,0.67624-0.15928-0.59431-0.24079,0.71535-0.22352-0.67449-0.24078,0.76976-0.29191-0.68782-0.12629,0.82241-0.35155-0.67231-0.0406,0.79357-0.38281-0.60239-0.0247,0.78746-0.40836-0.56809,0.0323,0.69088-0.43393-0.36488,0.2126,0.74375-0.52482-0.30589,0.19708,0.65177-0.43197-0.24209,0.15404,0.63123-0.39307-0.12585,0.2056,0.4702c-0.0103,0.0212-0.0192,0.043-0.0291,0.0642l-0.30392-0.0566,0.17414,0.36598,0.001,0.00066c-0.38411,1.0385-0.41405,2.2785-0.35112,3.5147,0.0116,0.23051,0.59365,0.46409,0.68542,0.60698,0.27617,0.42912,0.2257,0.66073,0.2257,0.66073-1.5913,2.5804-3.0146,4.5731-3.1749,7.5311,1.2786-1.6184,2.6036-3.5997,4.4608-3.5997-0.92008,1.5373-1.3562,6.1718-0.32315,6.8771l0.77107-1.352c0.0282,1.0748,0.1796,1.7914,0.38914,2.3215,0.32227-0.6498,0.6415-1.271,0.96268-1.7412,0.0734,1.5056,0.26678,2.7141,0.70334,3.3115,0.42934-0.74026,1.0088-1.191,1.6182-1.5705-0.21129,0.86-0.52024,1.6721-0.38914,2.7039,0.6439-1.1014,1.2887-1.7526,1.9324-2.5127-0.37297,1.5867-0.0336,2.771,0.41688,4.5222,0.40029-2.0757,0.55738-2.2959,1.5159-3.1699,0.10619,1.9033-0.25739,3.6323,0.1429,4.6941,0.87397-1.6752,1.46-1.4357,1.9826-2.5192-0.10204,1.5795-0.41908,3.291-0.014,4.7009,0.33627-1.4128,1.2435-2.169,1.9442-2.6707,0.0572,2.1987,0.56502,1.8369-0.80144,3.7017,0.57901,0.26504,2.5413-0.3769,3.6052-0.8329-0.51455,1.1781-0.36314,2.1024-0.87835,2.9359,1.08-0.54253,2.0001-1.4204,2.9014-2.3215-0.41776,1.352-1.5251,2.7041-0.96968,4.0559,0.25171-1.2633,1.2734-2.3036,2.2422-2.493-0.15033,0.70814-0.25215,2.1742-1.2725,2.8824,2.4428,0.25193,3.4068-1.3975,4.6367-2.7039-0.15885,1.358-0.11384,2.4434,1.5522,4.3553-0.3367-2.4308,0.24144-1.9306,1.3429-3.3924,0.53182,2.1482,1.1425,4.4302,3.3821,6.0143-0.9286-2.2669-1.1001-3.435-0.57355-4.8615,0.28841,1.4722,1.6844,3.2488,2.0189,4.6441,0.20779-1.5476,0.44158-3.0454,0.96269-4.0559,0.65155,1.7569,1.1974,3.5711,1.352,5.5989,0.48812-1.0108,0.88425-2.0353,1.1611-3.0862,19.736,20.623,24.137,46.84,2.5127,74.541,7.7703-5.2493,9.7757-13.569,14.093-20.662-4.2141,9.2876-6.0923,19.737-13.513,27.421,7.1876-6.2024,8.7118-11.885,13.034-17.862-4.6067,12.501-10.982,26.2-19.821,38.742,1.5705,1.7071,3.1413,3.4409,4.7182,5.1892,1.3715-2.2839,2.7423-4.5646,4.0966-6.8489,9.3688-15.436,24.658-37.5,16.913-71.147z"/>

</g>
<path fill="#eac102" stroke="#a08307" stroke-width="0.2185" d="m473.16,215.29c-0.99699,0.22614-1.392,0.64238-2.1111,1.4429,0.91746,0.20014,1.6925,0.24603,2.5212,0.26416,0.25695-0.0225,0.34348-0.34784,0.28645-0.58491l-0.1276-0.95504c-0.0227-0.2174-0.6013-0.20014-0.87354-0.0863l0.30458-0.0808z"/>

<path fill="#a08307" d="m471.04,216.73c0.34544-0.12301,0.69831-0.21412,1.0532-0.29781,0.35549-0.0795,0.71273-0.15141,1.0776-0.19118-0.34566,0.12323-0.69853,0.21434-1.0531,0.29781-0.35593,0.0793-0.71317,0.1512-1.0776,0.19118z"/>

<ellipse fill="#000" stroke="#000" stroke-width="0.0978" cx="477.680" cy="215.416" rx="0.775" ry="0.811"/>
<ellipse fill="url(#rg7)" cx="477.860" cy="215.261" rx="0.337" ry="0.353"/>
<g fill="#34541f">
<path d="m488.18,389.69c0.46649-1.4941,0.9782-2.9744,1.5282-4.4402,0.55695-1.4628,1.1543-2.9112,1.7825-4.3461,1.2594-2.8686,2.663-5.6715,4.1352-8.4348,1.4886-2.7554,3.0474-5.4726,4.6631-8.1534,0.80864-1.3405,1.6276-2.6744,2.4537-4.0037l2.5101-3.9674-2.4192,4.0234c-0.8069,1.3409-1.6092,2.6838-2.4004,4.0336-1.5845,2.6984-3.1439,5.4112-4.6153,8.1708-1.4864,2.7517-2.8844,5.5506-4.1741,8.3996-0.64565,1.4242-1.2594,2.8632-1.8362,4.3166-0.58273,1.451-1.1276,2.9182-1.6276,4.4016z"/>

<path d="m469.34,380.23c1.6549-0.73392,3.2842-1.5249,4.8812-2.3748,1.6002-0.84273,3.1699-1.7436,4.7022-2.7047,3.0653-1.9177,5.9902-4.0605,8.733-6.4165,2.755-2.3416,5.3276-4.8938,7.7616-7.5693,1.2188-1.3365,2.4004-2.7074,3.5549-4.1014,1.1591-1.389,2.2892-2.8042,3.3991-4.2342-1.0818,1.4521-2.1841,2.8892-3.3163,4.3019-1.1377,1.4091-2.3071,2.7935-3.5125,4.1464-2.4128,2.703-4.993,5.2614-7.745,7.6231-2.762,2.3488-5.6942,4.5006-8.7863,6.3927-1.5465,0.94521-3.128,1.8325-4.7416,2.6569-1.6162,0.8187-3.2617,1.578-4.9303,2.28z"/>

<path d="m506.62,350.89c0.7691-1.0741,1.4855-2.1863,2.2016-3.2962,0.71557-1.1104,1.4156-2.2315,2.0984-3.362,1.3678-2.2605,2.6897-4.549,3.9591-6.866,1.2854-2.3086,2.5208-4.6456,3.7507-6.9846l3.6773-7.0268-1.7453,3.5612-1.7825,3.5429c-1.1991,2.356-2.4367,4.6937-3.709,7.0128-1.2876,2.3104-2.608,4.6032-4.0078,6.8485-1.4054,2.2396-2.8529,4.4573-4.4424,6.5701z"/>

<path d="m512.51,325.78c1.7073-2.0313,3.2774-4.177,4.6917-6.42,1.4237-2.2365,2.694-4.5696,3.8103-6.9735,2.235-4.8099,3.8411-9.8941,4.9751-15.071,0.14377-0.64674,0.28251-1.2948,0.41361-1.9439,0.10881-0.64631,0.20516-1.3064,0.29365-1.9619,0.17589-1.3132,0.31027-2.6316,0.40029-3.9534,0.18004-2.6431,0.17829-5.2998-0.0299-7.9416-0.20604-2.6425-0.62271-5.2675-1.2397-7.8455-0.60676-2.5811-1.4185-5.1136-2.403-7.578,1.0173,2.4511,1.8644,4.9751,2.5072,7.5525,0.63319,2.5798,1.0608,5.2107,1.2802,7.8588,0.22111,2.6484,0.23553,5.3131,0.0666,7.9654-0.0837,1.3263-0.21304,2.6495-0.38281,3.9674-0.0859,0.66007-0.17785,1.3142-0.28688,1.9763-0.12891,0.65155-0.26285,1.302-0.40618,1.9509-1.16,5.1834-2.7939,10.274-5.0566,15.084-1.1314,2.4043-2.4128,4.7378-3.8527,6.9696-1.4464,2.2289-3.0462,4.3555-4.7809,6.3636z"/>

<path d="m510.87,320.07c1.8434-1.7624,3.4714-3.7408,4.898-5.8493,1.4364-2.1034,2.682-4.3328,3.795-6.6232,1.1143-2.2907,2.0984-4.6426,3.0272-7.015,0.4643-1.1866,0.91527-2.3788,1.3612-3.5728l0.33233-0.89605c0.10619-0.29584,0.20189-0.59933,0.29409-0.90369,0.1866-0.60851,0.35549-1.2238,0.57792-1.8297l-0.005,0.0168c0.50647-2.5236,0.7785-5.0946,0.8104-7.67,0.0323-2.5752-0.17064-5.1528-0.57136-7.6976-0.39985-2.5461-0.99568-5.0603-1.7314-7.5315-0.72541-2.4749-1.5926-4.9087-2.5538-7.3038,0.99393,2.3816,1.8952,4.8038,2.656,7.2724,0.7514,2.4714,1.3588,4.9882,1.7722,7.5396,0.41405,2.5507,0.63123,5.1364,0.61026,7.7233-0.0205,2.5861-0.27771,5.1718-0.78003,7.7102l-0.002,0.008-0.003,0.009c-0.2198,0.59081-0.39263,1.2054-0.58207,1.8148-0.0948,0.30502-0.19074,0.60982-0.30174,0.91331l-0.33801,0.89539c-0.45097,1.1928-0.90763,2.3831-1.3789,3.5693-0.94193,2.3707-1.9387,4.7214-3.0666,7.0124-1.1266,2.2896-2.3833,4.5202-3.8374,6.6193-1.4589,2.0934-3.1164,4.0522-4.9841,5.789z"/>

<path d="m505.05,349.23c1.2017-1.6588,2.3886-3.3274,3.5733-4.9985l1.7774-2.5064c0.58972-0.83771,1.2076-1.6544,1.7331-2.5315,1.068-1.7445,1.9896-3.5748,2.8979-5.4095,0.90086-1.8393,1.8196-3.67,2.7089-5.5139,1.7816-3.6867,3.5053-7.405,4.9673-11.228,1.4681-3.8197,2.6228-7.7566,3.4511-11.763,0.84667-4.0033,1.4158-8.062,1.8854-12.129,0.42585-4.0649,0.47108-8.1798,0.0376-12.248-0.4289-4.0688-1.3617-8.0802-2.7253-11.939-1.3503-3.8647-3.1153-7.5772-5.0975-11.16,2.0134,3.565,3.8121,7.2632,5.1982,11.124,1.38,3.8608,2.3261,7.88,2.7692,11.959,0.44638,4.0791,0.41426,8.2025-0.001,12.284-0.45797,4.0716-1.0149,8.1374-1.8528,12.153-0.84208,4.0144-2.0126,7.9611-3.4946,11.784-1.477,3.8267-3.2134,7.5427-5.0066,11.226-0.89626,1.8428-1.8196,3.6705-2.7268,5.5067-0.91418,1.833-1.8406,3.6644-2.92,5.4095-0.53597,0.87748-1.1624,1.6912-1.7587,2.5221l-1.7986,2.4904c-1.2,1.6612-2.4008,3.3205-3.6172,4.9686z"/>

<path d="m507.81,352.25c2.3617-3.8352,4.7108-7.6786,6.954-11.583,2.2498-3.9006,4.4831-7.8142,6.4653-11.856,1.9857-4.0378,3.7011-8.2136,4.9972-12.523,0.65002-2.153,1.2008-4.3362,1.6525-6.5396,0.22921-1.1023,0.42716-2.2068,0.59322-3.3192,0.17108-1.1126,0.32905-2.2262,0.47195-3.3423,0.58163-4.4617,0.92816-8.957,0.92226-13.457-0.005-4.4977-0.36576-9.0013-1.1982-13.424-0.82963-4.4206-2.141-8.756-3.9768-12.865-1.8218-4.114-4.1706-7.9958-6.9573-11.533,2.8149,3.5158,5.1965,7.3818,7.055,11.49,1.8533,4.1105,3.1776,8.4531,4.022,12.882,0.84623,4.4296,1.2196,8.943,1.2376,13.45,0.0184,4.5097-0.31529,9.0155-0.88797,13.486-0.14639,1.1167-0.3072,2.2328-0.48178,3.3458-0.16846,1.1139-0.37166,2.226-0.60392,3.3281-0.4584,2.2077-1.0169,4.3942-1.6741,6.5505-1.311,4.3161-3.0419,8.4962-5.0411,12.534-1.9964,4.0417-4.2384,7.9528-6.5033,11.846-2.2756,3.8892-4.6546,7.7142-7.0465,11.53z"/>

<path d="m480,220.77c0.47435-0.012,0.94871,0.0402,1.4176,0.11275,0.46932,0.0736,0.9345,0.17392,1.3946,0.29409,0.91877,0.24559,1.815,0.57224,2.6864,0.95373,1.7429,0.76757,3.3718,1.774,4.9008,2.9029,1.5188,1.1449,2.9398,2.4161,4.2558,3.7854,0.65702,0.68563,1.2917,1.392,1.9038,2.117,0.60654,0.72956,1.1976,1.4718,1.7584,2.2363-0.59977-0.73415-1.2065-1.4617-1.8393-2.1664-0.62729-0.70923-1.2738-1.4008-1.9431-2.0696-1.3352-1.3394-2.7469-2.6042-4.2661-3.7282-1.5085-1.1362-3.1253-2.1314-4.8388-2.9252-0.8565-0.39701-1.7396-0.73851-2.6464-1.0038-0.90544-0.26548-1.8362-0.47217-2.7838-0.5091z"/>

</g>
<g fill="#448127">
<path d="m496.38,231.57s3.0589,1.7982,4.7254,4.4385c0,0-4.7173-0.8825-8.0699-4.6513"/>

<path fill="#34541f" d="m496.38,231.57c0.47872,0.26111,0.93253,0.56612,1.3794,0.88032,0.44136,0.32184,0.86939,0.66269,1.2804,1.0245,0.41208,0.36074,0.79663,0.75271,1.1609,1.1628,0.36183,0.4123,0.7029,0.84623,0.9959,1.3132l0.13634,0.21719-0.24755-0.0535c-0.78418-0.16955-1.5345-0.42016-2.2728-0.71185-0.73611-0.29409-1.4539-0.63582-2.1371-1.0376-1.3693-0.7951-2.6232-1.7997-3.6397-3.008,1.0804,1.1493,2.3482,2.1072,3.7203,2.8658,0.68825,0.37603,1.3979,0.71251,2.1286,0.99699,0.72934,0.28186,1.482,0.52504,2.2404,0.68279l-0.111,0.16366c-0.28907-0.45382-0.61157-0.88775-0.96465-1.2966-0.35091-0.41099-0.73415-0.79379-1.1255-1.1681-0.39285-0.37319-0.8045-0.72737-1.2308-1.0636-0.42257-0.34217-0.86131-0.66357-1.3132-0.96794z"/>

<path d="m489.58,230.69s7.2265,4.6109,8.2733,4.9782c0,0-1.6083-3.4784-5.0488-4.9721"/>

<path fill="#34541f" d="m489.58,230.69,4.1403,2.4878c0.68716,0.41886,1.3759,0.83487,2.0689,1.2428,0.34676,0.20364,0.69438,0.40553,1.0444,0.60174,0.34719,0.19402,0.70202,0.40508,1.0538,0.5482l-0.12848,0.14115c-0.25695-0.52964-0.57791-1.0414-0.92401-1.526-0.35047-0.48331-0.72759-0.9487-1.1423-1.3796-0.41361-0.43218-0.86589-0.82656-1.3462-1.1842-0.48025-0.35877-0.99895-0.66553-1.5421-0.92554,0.56022,0.22133,1.0938,0.51215,1.5957,0.84951,0.50275,0.33713,0.96683,0.73064,1.3997,1.1543,0.43197,0.42519,0.83247,0.88316,1.189,1.3739,0.35746,0.49139,0.68433,0.99983,0.95832,1.5509l0.1241,0.24952-0.25258-0.10815c-0.76801-0.32927-1.4368-0.75774-2.1351-1.1676-0.69066-0.41514-1.3763-0.83792-2.0602-1.2638-1.3588-0.86436-2.7124-1.7375-4.0432-2.6449z"/>

<path d="m492.46,228.36s3.7596,1.5992,4.6111,4.3791c0,0-6.7528-2.8409-7.9617-4.3491"/>

<path fill="#34541f" d="m492.46,228.36c0.50778,0.19927,0.99218,0.45534,1.4646,0.73065,0.46779,0.2836,0.91789,0.59824,1.34,0.95089,0.42257,0.35155,0.80669,0.75206,1.1399,1.1941,0.32993,0.44311,0.60764,0.93559,0.76954,1.4718l0.0673,0.22243-0.21238-0.0913c-0.69984-0.30087-1.3925-0.61332-2.0822-0.93429-0.68914-0.32162-1.3754-0.65002-2.0495-1.0031-0.6745-0.35177-1.344-0.71447-1.9942-1.1113-0.32359-0.20058-0.64281-0.40902-0.95023-0.63407-0.30502-0.22636-0.60894-0.46496-0.84361-0.76561,0.25171,0.28558,0.56438,0.5056,0.87573,0.71951,0.31485,0.21084,0.64085,0.40487,0.97077,0.59081,0.65898,0.37471,1.3337,0.7219,2.0152,1.0544,1.3643,0.66204,2.7443,1.2976,4.142,1.8847l-0.14508,0.13109c-0.15688-0.50669-0.4088-0.98388-0.72475-1.4158-0.31419-0.43437-0.69197-0.8211-1.0909-1.1836-0.40072-0.36139-0.83334-0.68913-1.2861-0.98759-0.44922-0.30458-0.91986-0.57836-1.406-0.82373z"/>

<path d="m486.76,231.25s6.6462,4.7577,8.6126,4.7577c0,0-1.9477-3.258-5.3876-4.7516"/>

<path fill="#34541f" d="m486.76,231.25c0.68826,0.45622,1.3794,0.90785,2.0761,1.3499,0.69459,0.44529,1.3955,0.8801,2.1061,1.2981,0.70661,0.42344,1.4224,0.83268,2.1565,1.2013,0.36729,0.18354,0.73938,0.35724,1.1191,0.50538,0.37668,0.14574,0.77063,0.28863,1.1547,0.29978l-0.0891,0.15666c-0.31376-0.50582-0.68236-0.99022-1.0704-1.4497-0.39198-0.45774-0.80472-0.8991-1.2476-1.3094-0.44158-0.41143-0.91528-0.78811-1.4106-1.1346-0.49532-0.34719-1.0221-0.64915-1.5699-0.9109,1.1296,0.4501,2.1657,1.1285,3.0812,1.9337,0.45884,0.40246,0.89343,0.83399,1.2913,1.2974,0.39897,0.46386,0.77281,0.94433,1.104,1.467l0.10247,0.16147-0.19118-0.005c-0.44617-0.0107-0.84361-0.15797-1.2345-0.30371-0.38826-0.15557-0.76342-0.33495-1.1329-0.52373-0.73829-0.37909-1.4532-0.79663-2.1587-1.2282-0.70136-0.43874-1.3916-0.89386-2.0744-1.3588-0.68039-0.46976-1.3544-0.94761-2.0123-1.4469z"/>

<path d="m486.76,232.74s3.4605,2.9195,5.427,2.9195c0,0-1.9477-3.2578-5.3876-4.7514"/>

<path fill="#34541f" d="m486.76,232.74c0.41754,0.31179,0.84077,0.61463,1.2716,0.90479,0.42868,0.29365,0.86655,0.57333,1.3153,0.83159,0.44507,0.26394,0.90194,0.50865,1.3759,0.70792,0.23663,0.0994,0.47806,0.18638,0.72343,0.25214,0.24362,0.0688,0.49336,0.11712,0.74092,0.11952l-0.0892,0.15666c-0.31376-0.50581-0.68236-0.99022-1.0704-1.4495-0.3922-0.45775-0.80472-0.89911-1.2476-1.3094-0.44179-0.41143-0.91527-0.78811-1.4106-1.1346-0.49533-0.34719-1.0223-0.64893-1.5699-0.91091,1.1296,0.4501,2.1655,1.1285,3.0812,1.9337,0.45884,0.40247,0.89342,0.83378,1.2913,1.2974,0.39897,0.46387,0.77282,0.94434,1.1041,1.467l0.0996,0.15732-0.18834-0.00044c-0.55083-0.00087-1.0634-0.18004-1.5456-0.38848-0.48353-0.21172-0.94325-0.4667-1.3896-0.74048-0.44223-0.28076-0.86983-0.58141-1.2876-0.89495-0.4147-0.31769-0.82045-0.64653-1.2046-0.99918z"/>

<path d="m485.03,226.18s7.2073,5.1165,8.0592,7.8964c0,0-6.5225-2.9945-7.7314-4.5025"/>

<path fill="#34541f" d="m485.03,226.18c0.78614,0.53378,1.5482,1.1019,2.304,1.6785,0.75031,0.58382,1.4879,1.1842,2.2053,1.8098,0.71754,0.62512,1.4075,1.2839,2.0536,1.9872,0.32185,0.35287,0.63123,0.71863,0.912,1.1091,0.27618,0.39176,0.54034,0.8045,0.68738,1.2799l0.0719,0.23292-0.22024-0.10335c-0.67974-0.31857-1.3525-0.64784-2.0224-0.98519-0.66925-0.3378-1.3352-0.68193-1.9892-1.0496-0.65439-0.3662-1.3038-0.74245-1.9339-1.1506-0.31354-0.20604-0.62293-0.4193-0.92074-0.64784-0.29584-0.22942-0.5895-0.47086-0.82023-0.76735,0.24756,0.28164,0.55083,0.50494,0.85344,0.72212,0.30546,0.21456,0.62184,0.41361,0.94237,0.60545,0.63953,0.3863,1.2946,0.74703,1.9566,1.0944,1.3252,0.69175,2.665,1.3601,4.0236,1.9826l-0.14814,0.12957c-0.14006-0.43284-0.38411-0.83859-0.65286-1.221-0.27094-0.3828-0.57311-0.74572-0.8884-1.0968-0.63167-0.70268-1.3208-1.354-2.0193-1.9938-0.70071-0.63822-1.4235-1.2533-2.1594-1.8522-0.73152-0.60414-1.4794-1.1888-2.2354-1.7639z"/>

</g>
</g>

<g stroke="#24420e" stroke-width="0.1639">

<path fill="#406325" d="m445.02,370.33c-4.8888,3.644-18.553,5.4292-20.448,4.8005,9.9428-8.2718,19.725-8.471,20.448-4.8005z"/>

<path fill="#406325" d="m514.78,374.77c5.2537,4.768,21.104,8.0531,23.475,7.4607-10.542-10.77-22.102-11.863-23.475-7.4607z"/>

<path fill="#67923d" d="m444.98,370.3c-0.72081-3.6709-10.458-3.4489-20.378,4.775,10.446-3.4422,19.238-5.4047,20.378-4.775z"/>

<path fill="#67923d" d="m514.89,374.71c1.3715-4.4018,12.794-3.338,23.364,7.4616-11.884-5.021-21.947-8.0983-23.364-7.4616z"/>

</g>

</g>

</svg>