<?xml version="1.0" encoding="UTF-8"?>
<svg xmlns="http://www.w3.org/2000/svg" xmlns:xlink="http://www.w3.org/1999/xlink" width="600" height="300">
<rect width="600" height="300" fill="#cf142b"/>
<g fill="#f9dd16" stroke="#000">
<g id="leg">
<path d="m225.97,126.346c0.21928,0.22495,2.85721,1.81856,2.90302,1.73032,0.0458-0.0882,6.90326-1.6699,6.85745-1.58166-0.0458,0.0882-3.84213,4.60069-3.66565,4.69232,0.17575,0.0912,3.96724,4.6307,4.05547,4.67651,0.0875,0.0454-7.17964-0.5974-7.17964-0.5974l-4.80717,3.87562-1.07661-5.03062s-6.04712-2.13322-6.13536-2.17903c-0.0875-0.0454,5.17517-1.78479,5.17517-1.78479l1.57109-4.10314s2.03524,0.38637,2.30223,0.30187z"/>
<path fill="#fff" stroke-width="1.3" d="m314.466,136.204c0.0143-4.2402-8.33477-23.4242-9.70952-26.3738-2.55732-3.20086-5.26333-8.26942-6.42643-12.6471-0.75315-4.41919-3.1169-7.885-6.44862-9.06018-3.84521-2.04136-7.60029-1.24092-11.2149-0.926754-1.77203,0.376495-3.28829,1.33387-4.14444,2.74414-1.95169,2.79175-3.01274,2.57877-4.3629,3.78215-11.1133,1.73189-21.6227,7.46664-29.6185,11.3753-4.23379,2.93924-7.82773,4.64606-9.49271,5.00559-4.51403,0.0162-7.79717-2.12269-9.36536-3.26008-5.11218-4.6485-10.224-9.29773-15.3362-13.9462-4.43134-3.30704-5.52716,1.46707-4.67626,2.19624,1.4795,3.17934-1.72355,5.11481,10.4376,16.5706,1.53564,3.15432,3.07091,6.30936,4.60656,9.46368,0,0-0.25556,2.58796-0.0415,2.69911,2.22043,5.28933,5.74758,3.97112,7.41218,2.48751,1.20421-1.09735,2.40914-2.19432,3.61334-3.29167,0,0,7.16057-2.26629,7.27172-2.48037,7.67869,1.14298,27.4646-2.6266,30.7273-4.17481,2.94023-1.64679,3.12784-0.25197,5.67512-2.32682,2.12928-1.40947,0.95823-0.28756,4.89257-3.8827,1.21101-1.04147,2.16907,0.64501,2.39494,1.82464,0.21916,11.169,1.58732,18.3058,2.60556,29.4424l16.733,8.574z"/>
<path stroke="none" d="m217.839,102.282c0.15285,0.13536-2.76441,9.63096-2.76441,9.63096s-2.68843-2.68127-2.66552-2.72539l1.88252-9.97681,3.54741,3.07124z"/>
<g fill="none">
<path stroke-width="1.13" d="m217.922,101.929c-0.13297,0.64166-0.69814,3.5041-0.96119,4.28665-0.22022,0.86631-0.41687,1.74026-0.56311,2.60733-0.26994,0.94793-0.38728,1.56832-0.68751,2.54275-0.0958,0.8354-0.27142,1.61928-0.48426,2.45545m-1.8509-16.2463c0.0594,0.122642,0.27477,0.98465,0.30676,1.54025-0.1018,0.581626-0.26368,2.66729-0.48655,3.37246-0.17742,0.78385-0.33126,1.57536-0.4362,2.36287-0.22262,0.8568-0.30992,1.41933-0.56096,2.29901-0.0572,0.76091-0.19444,1.47102-0.3656,2.22691"/>
<path d="m262.227,96.6353c3.57801,3.98146,4.68771,10.4534,4.0395,14.0771"/>
<path d="m248.384,120.222c0.0218-0.0419,0.0432-0.0832,0.0646-0.1244-0.2024,0.38983-0.0456,0.16733-0.42859-0.69723-0.4065-0.44795-0.6919-2.62535-0.0671-3.82884,0.23933-0.61307,0.6405-1.53785,0.9424-2.11935,0.086-0.16562,0.32905-0.32958,0.41541-0.49593"/>
<path d="m222.796,106.779c-0.0214,0.0412-0.0428,0.0825-0.0646,0.1244,0.0864-0.16634-0.17235,0.33198-0.25834,0.4976-0.33532,0.64586-0.78677,1.23419-1.09432,1.80357-0.3233,0.62272-0.82308,1.15382-1.14639,1.77654-0.41527,0.58232-0.77949,1.35458-1.20964,1.95672-0.40309,0.71627-0.8508,1.22665-1.2447,1.98534-0.34082,0.59986-0.61402,0.87672-0.96587,1.5544l0.96587-1.5544c-0.34082,0.59986-0.61402,0.87672-0.96587,1.5544"/>
<path d="m209.803,94.6581c0.0624,0.116856,0.30369,0.92896,0.35446,1.4484-0.08,0.539678-0.16719,2.48142-0.3619,3.13234-0.147,0.725273-0.2708,1.45892-0.34682,2.19074-0.18921,0.79243-0.25548,1.31445-0.4716,2.12688-0.0301,0.70883-0.14037,1.36687-0.28223,2.06634"/>
<path d="m225.393,117.556c-0.83981-0.88318-1.3335-0.56011-1.87269-0.6004-0.59792,0.10643-1.68477,0.60636-2.78746,1.71509-0.40252,0.43927-0.74094,0.76215-1.27411,1.23552-0.2393,0.3725-0.43683,0.51419-0.70127,0.74234"/>
<path d="m288.476,87.7608c-0.0214,0.04122-0.0432,0.08317-0.0646,0.124399,0.20277-0.390556,0.0558-0.169365,0.2396,0.75704,0.24213,0.638985,0.27145,1.08301,0.53867,1.70197"/>
<path d="m275.419,91.2181c-0.0432,0.08317-0.15199,9.11783,0.22209,10.2826,0.11147,0.74561,0.31299,1.37086,0.41715,2.26142,0.001,0.53691,0.12676,0.98677,0.1651,1.50893,0.30577,0.57654,0.37057,1.1556,0.68353,1.61925,0.15285,0.63763,0.66383,0.66327,0.93797,1.25828,0.38262,0.41259,1.01087,1.1391,1.38788,1.46522"/>
<path d="m269.142,115.953c-0.27775-0.0946-0.99155-0.65988-1.6011-0.96257-0.68734-0.38808-2.38236-2.41127-2.4631-3.83509"/>
<path d="m275.902,103.13c-0.0218,0.0419-0.94205,0.94789-2.44846,2.47875-1.92686,1.7836-7.16897,4.85218-7.79965,5.09953-0.60374,0.27329-1.35767,0.93136-1.95392,1.02397-0.68539,0.27313-1.36787,0.37974-2.01645,0.53424-0.79093,0.16692-1.46159,0.31088-2.07589,0.34453-1.84229,0.80188-11.5536,0.48958-12.0546,0.38099-0.51932-0.004-1.22584-0.0424-1.69314-0.0885-0.46167,0.11106-1.00879,0.0648-1.63333,0.10051-0.75428-0.0611-1.18768,0.084-1.82269,0.16104-0.50044,0.26355-1.33271,0.53663-1.8961,0.91258-0.77163,0.31191-1.24027,0.73706-1.77242,0.9768-0.55443,0.45773-8.11029,4.86664-8.47595,5.06336-0.79297,0.34949-3.64045,1.1951-4.35315-0.80657-0.18337-0.78753-0.54606-1.59929-0.56823-2.20213-0.22885-0.72115-0.0987-1.49188-0.0614-2.16488,0.66136-3.41026,1.75632-4.75347,2.05822-5.33497,0.10777-0.20757,0.21554-0.41514,0.32331-0.62272"/>
<path d="m297.882,96.4385c-0.0214,0.04122-0.0432,0.08317-0.0646,0.124399,0.17461-0.336312,0.0932-0.160048-0.38312,0.433734-0.48673,0.392791-1.08594,1.01459-1.52767,1.41973-0.44521,0.4419-0.87315,1.06631-1.2741,1.23552-0.40166,0.526034-0.90864,0.692534-1.45832,0.981944-0.74267,0.27736-1.25406,0.51779-1.8961,0.91259-0.82016,0.43546-1.33095,0.85157-2.09096,1.28613-0.46836,0.59791-0.94493,0.96935-1.34274,1.67367-0.39411,0.65299-0.78753,1.21268-1.1589,1.92798-0.3019,0.58149-0.60343,1.16226-0.90533,1.74375l0.90533-1.74375c-0.3019,0.58149-0.60343,1.16226-0.90533,1.74375"/>
<path d="m291.569,144.224c0.0432-0.0832,0.0864-0.16634,0.12955-0.24952-0.2392,0.46071-0.15535,0.33989,0.0694-0.43778,0.002-0.93269,0.22348-2.06104,0.23273-2.88354,0.1401-0.87118,0.28237-1.81193,0.29143-2.69421-0.0528-1.03194-0.0511-1.95661-0.20544-2.95218-0.0119-0.91613-0.11919-1.86616-0.14635-2.76357-0.0167-0.88923-0.0831-1.65092-0.27589-2.51405-0.0179-0.6465-0.0579-1.53317-0.21499-2.3254,0.0842-0.62381-0.0933-1.19803-0.226-1.69757-0.24158-0.96191-0.3351-1.52282-0.58891-2.51955-0.15261-0.53374-0.30331-1.21616-0.53351-2.01607-0.0832-0.75757-0.48886-1.7413-0.65387-2.39442-0.22522-0.48054-0.45223-1.13096-0.53939-1.70234-0.23581-0.52736-0.5719-1.17106-0.66341-1.76765-0.24858-0.45502-0.51299-1.16251-0.78781-1.83224-0.23693-0.54997-0.41103-1.22802-0.66307-1.76656-0.25424-0.68108-0.56467-1.26279-0.72322-1.95663-0.24317-0.23552-0.29829-0.49368-0.42897-0.69651"/>
</g>
<path d="m289.89,91.7363c-0.84514,1.93202-3.02182,4.75388-3.05411,4.81608-0.00038,0.000724-2.07139,4.14181-2.07139,4.14181-0.91258,2.26705-0.33046,3.17437,0.0678,3.82922,0.82453,1.45555,0.96963,2.2425,1.58005,3.34999,0.23005,1.38381-2.22456,1.84941-2.25685,1.91161-5.11011,1.77266-7.70201-3.13014-7.72953-3.38132-0.69343-2.57289-0.60272-3.00051,0.96353-3.53067,1.79517-0.41223,2.51643-0.43259,3.40503-1.07768,1.68198-1.26065,2.86955-5.07075,2.90222-5.13367,0.0323-0.0622,0.25233-2.16083,0.25233-2.16083,0.13096-1.01273-0.33675-1.94054,0.18007-3.5426,0.67163-1.54831,1.07572-1.97115,2.66711-2.09344,2.0735-0.187839,3.68331,1.27968,3.09375,2.87152z"/>
</g>
<use xlink:href="#leg" transform="rotate(120,300,150)"/>
<use xlink:href="#leg" transform="rotate(240,300,150)"/>
<path stroke-width="1.3" d="m304.618,169.37c-1.77371-0.90291-3.12727-1.08318-3.77369-0.64598-1.0276-5.7458-1.93184-11.499-3.25176-17.2272-10.8958-4.53683-13.1985-5.57274-16.7735-7.12698,1.6688-1.08462,2.5017-2.1667,2.44628-2.94512,5.48981,1.98297,10.9244,4.07648,16.5451,5.79752,9.37693-7.16766,11.4254-8.64389,14.5589-10.9628,0.10491,1.98753,0.62557,3.24988,1.32741,3.5911-4.46221,3.76283-8.99251,7.42252-13.2934,11.4297,1.51891,11.7045,1.77313,14.2166,2.21459,18.0897z"/>
</g>
</svg>