<?xml version="1.0" encoding="UTF-8"?>
<svg xmlns="http://www.w3.org/2000/svg" width="900" height="600">
<rect width="900" height="600" fill="#000"/>
<rect width="900" height="400" fill="#fff"/>
<rect width="900" height="200" fill="#ce1126"/>
<g fill="#007a3d" transform="matrix(3.1312,0,0,3.4052,-158.74,-207.31)">
<path d="m138.09 170.8l-1.652-1.667 1.667-1.652 1.667-1.652 1.652 1.667 1.652 1.667-1.667 1.652-1.667 1.652-1.65-1.67zm-11.34-0.84c-0.594-0.217-1.558-0.932-2.19-1.623-1.191-1.303-1.462-1.911-0.662-1.483 1.193 0.639 3.556 1.054 4.397 0.774 3.102-1.036 3.807-5.177 1.33-7.804-0.486-0.515-0.884-1.114-0.884-1.331s0.517-0.623 1.148-0.902c0.884-0.391 1.316-0.817 1.882-1.856 0.574-1.055 0.81-1.285 1.086-1.056 0.394 0.327 1.725 3.503 1.725 4.117 0 0.324 0.481 0.395 2.658 0.395h2.658l-0.415-0.996c-0.228-0.547-0.604-1.284-0.835-1.637-0.374-0.572-0.376-0.673-0.017-0.929 0.221-0.158 0.957-0.676 1.636-1.151 0.678-0.475 1.312-1.072 1.407-1.327 0.235-0.632 1.705-2.455 1.978-2.455 0.121 0 0.221 1.911 0.221 4.247v4.247h33.181v-12.168l-0.923-0.571-0.923-0.571-0.935 0.713-0.935 0.713v8.697h-13.936c-7.666 0-13.937-0.048-13.937-0.106 0-0.093 6.935-9.459 7.783-10.512 0.176-0.219 0.612-0.816 0.968-1.327s0.719-0.989 0.805-1.062c0.088-0.073 0.447-0.551 0.801-1.062 0.353-0.511 0.765-1.069 0.916-1.239 0.151-0.171 2.663-3.538 5.583-7.483s5.396-7.18 5.504-7.189c0.107-0.009 0.259 0.313 0.338 0.714 0.438 2.222 0.774 3.466 1.121 4.15 0.444 0.875 0.184 1.202-0.989 1.238-0.555 0.017-1.834 1.587-7.831 9.615-3.942 5.277-7.207 9.689-7.256 9.805s3.505 0.211 7.897 0.211h7.986l0.004-2.854c0.002-1.569 0.092-2.977 0.199-3.128 0.501-0.706 5.781-4.395 6.149-4.297 0.229 0.061 1.641 1.043 3.138 2.182l2.721 2.072v17.706h-46.11l-0.463 1.712c-0.556 2.052-1.465 3.532-2.686 4.368-1.16 0.78-3.77 1-5.3 0.44zm57.47-20.31c0-9.637 0.087-13.847 0.288-13.972 0.158-0.098 0.845 0.406 1.526 1.12s1.895 1.861 2.699 2.548c1.268 1.086 1.4 1.286 1.009 1.524-1.307 0.794-1.274 0.544-1.274 9.705v8.608h2.541c2.256 0 2.673-0.077 3.716-0.689 1.295-0.759 1.381-0.659 0.74 0.856-0.24 0.565-0.508 1.685-0.598 2.488l-0.162 1.46-5.243 0.072-5.242 0.072v-13.8z"/>
<path d="m211.67 159.86c0.139-3.881 0.54-5.198 1.964-6.448 1.096-0.962 2.664-1.418 4.479-1.301l1.359 0.088 0.082-1.588c0.103-2.012-0.079-2.73-0.748-2.943-0.803-0.255-0.639-1.089 0.334-1.696 0.476-0.297 1.642-1.326 2.59-2.287s1.818-1.747 1.932-1.747 0.208 3.837 0.208 8.527v8.528h3.73v-8.775c0-7.622-0.055-8.83-0.419-9.194-0.23-0.23-0.53-0.419-0.666-0.419-0.598 0-0.175-1.067 0.618-1.562 0.477-0.297 1.636-1.32 2.578-2.274 0.941-0.954 1.811-1.673 1.932-1.598s0.22 5.465 0.22 11.979v11.843h3.73v-24.253l-0.666-0.579c-0.366-0.318-0.666-0.724-0.666-0.901s0.829-0.991 1.842-1.81 2.1-1.851 2.416-2.295c1.36-1.911 1.338-2.196 1.338 16.647v17.454h-28.31l0.17-3.4zm7.93-2.6v-1.732h-1.045c-1.403 0-2.685 1.218-2.685 2.552v0.912h3.73v-1.73zm23.19-7.84c0-9.674 0.087-13.901 0.289-14.026 0.159-0.098 0.849 0.408 1.532 1.125 0.684 0.717 1.902 1.868 2.708 2.558 1.273 1.09 1.406 1.291 1.013 1.53-1.312 0.797-1.279 0.547-1.279 9.743v8.642h2.603c2.361 0 2.697-0.064 3.618-0.69 0.559-0.379 1.081-0.624 1.161-0.544s-0.064 0.66-0.321 1.289-0.542 1.803-0.633 2.609l-0.166 1.466-5.263 0.072-5.263 0.072v-13.85zm-20.98-14.5c-0.47-0.172-1.01-0.477-1.199-0.677-0.29-0.306-0.146-0.336 0.908-0.185 1.894 0.27 3.055-0.051 4.111-1.14l0.929-0.956 1.291 0.458c0.71 0.252 1.452 0.396 1.65 0.32 0.512-0.197 1.44-1.668 1.347-2.136-0.113-0.571 0.411-0.484 0.735 0.121 0.636 1.188 0.105 2.695-1.11 3.154-0.595 0.225-1.17 0.231-2.134 0.025-1.184-0.254-1.378-0.227-1.897 0.259-1.16 1.09-2.93 1.38-4.63 0.76zm3.23-4.4c-0.642-0.438-1.997-2.683-2.048-3.397-0.045-0.612 0.064-0.799 0.499-0.862 0.762-0.109 1.114 0.398 1.7 2.449 0.48 1.68 0.43 2.21-0.15 1.81z"/>
</g>
</svg>