<svg xmlns:svg="http://www.w3.org/2000/svg" xmlns="http://www.w3.org/2000/svg"
width="660" height="440" viewBox="0 0 2880 1920">
<title>Flag of Macau</title>
<defs id="defs4" />
<rect width="2880" height="1920" x="0" y="0" id="rect3348" style="fill:#00785e;fill-opacity:1;stroke:none;stroke-width:0;stroke-miterlimit:4;stroke-dasharray:none;stroke-opacity:1" />
<path d="M 1440,362 L 1416.3438,434.90625 L 1339.6562,434.90625 L 1401.6875,479.96875 L 1378,552.84375 L 1440,507.84375 L 1502,552.84375 L 1478.3125,479.96875 L 1540.3438,434.90625 L 1463.6562,434.90625 L 1440,362 z M 1137.4375,489.90625 L 1152.9688,540.625 L 1109.5,571.03125 L 1162.5312,571.96875 L 1178.0312,622.6875 L 1195.3125,572.53125 L 1248.3438,573.4375 L 1206,541.53125 L 1223.25,491.375 L 1179.7812,521.8125 L 1137.4375,489.90625 z M 1742.5625,489.90625 L 1700.2188,521.8125 L 1656.75,491.375 L 1674,541.53125 L 1631.6562,573.4375 L 1684.6875,572.53125 L 1701.9688,622.6875 L 1717.4688,571.96875 L 1770.5,571.03125 L 1727.0312,540.625 L 1742.5625,489.90625 z M 1036.9688,657.46875 L 1014.5625,705.53125 L 961.9375,699.0625 L 1000.7188,735.21875 L 978.3125,783.3125 L 1024.6875,757.59375 L 1063.4688,793.75 L 1053.375,741.6875 L 1099.7188,715.96875 L 1047.0938,709.53125 L 1036.9688,657.46875 z M 1843.0312,657.46875 L 1832.9062,709.53125 L 1780.2812,715.96875 L 1826.625,741.6875 L 1816.5312,793.75 L 1855.3125,757.59375 L 1901.6875,783.3125 L 1879.2812,735.21875 L 1918.0625,699.0625 L 1865.4375,705.53125 L 1843.0312,657.46875 z" id="path3370" style="fill:#fbd116;fill-opacity:1;fill-rule:evenodd;stroke:none;stroke-width:0;stroke-linecap:butt;stroke-linejoin:miter;stroke-miterlimit:4;stroke-dasharray:none;stroke-opacity:1" />
<path d="M 1440,614.40625 C 1371.1264,673.92514 1327.5,761.89769 1327.5,860 C 1327.5,926.72583 1347.674,988.75415 1382.25,1040.3438 C 1339.7879,985.49173 1314.5,916.68567 1314.5,842 C 1314.5,792.3906 1325.6628,745.37327 1345.5938,703.3125 C 1331.8287,688.76564 1321.3724,671.05436 1315.4688,651.375 C 1288.757,698.52013 1273.5,752.97967 1273.5,811 C 1273.5,883.17038 1297.1022,949.84574 1337,1003.75 C 1267.5168,930.90977 1169.5373,885.49999 1061,885.5 C 1055.1678,885.5 1049.3619,885.64686 1043.5938,885.90625 C 1054.5148,896.08524 1063.6821,908.1145 1070.5938,921.5 C 1178.5572,921.66462 1276.0238,966.78136 1345.3438,1039.0938 C 1279.141,983.7986 1193.9345,950.49999 1101,950.5 C 1049.0635,950.5 999.54759,960.89612 954.40625,979.71875 C 1000.7861,1102.2731 1119.2633,1189.5 1258,1189.5 C 1266.9834,1189.5 1275.8889,1189.0957 1284.6875,1188.375 C 1265.9665,1191.739 1246.6842,1193.5 1227,1193.5 C 1139.4677,1193.5 1060.0133,1158.7796 1001.625,1102.375 C 989.47083,1107.0515 976.43612,1109.9716 962.84375,1110.7812 C 1022.3139,1178.0476 1109.223,1220.5 1206,1220.5 C 1297.9236,1220.5 1380.9443,1182.2079 1440,1120.7188 C 1499.0557,1182.2079 1582.0765,1220.5 1674,1220.5 C 1770.7771,1220.5 1857.6861,1178.0476 1917.1562,1110.7812 C 1903.564,1109.9716 1890.5293,1107.0515 1878.375,1102.375 C 1819.9868,1158.7796 1740.5324,1193.5 1653,1193.5 C 1633.3159,1193.5 1614.0335,1191.739 1595.3125,1188.375 C 1604.111,1189.0957 1613.0167,1189.5 1622,1189.5 C 1760.7368,1189.5 1879.2139,1102.2731 1925.5938,979.71875 C 1880.4523,960.89612 1830.9366,950.5 1779,950.5 C 1686.0656,950.49999 1600.859,983.7986 1534.6562,1039.0938 C 1603.9762,966.78136 1701.4428,921.66462 1809.4062,921.5 C 1816.3179,908.1145 1825.4852,896.08524 1836.4062,885.90625 C 1830.6381,885.64686 1824.8323,885.5 1819,885.5 C 1710.4628,885.49999 1612.4833,930.90977 1543,1003.75 C 1582.8979,949.84574 1606.5,883.17038 1606.5,811 C 1606.5,752.97967 1591.243,698.52013 1564.5312,651.375 C 1558.6276,671.05436 1548.1713,688.76564 1534.4062,703.3125 C 1554.3372,745.37327 1565.5,792.3906 1565.5,842 C 1565.5,916.68567 1540.2122,985.49173 1497.75,1040.3438 C 1532.3261,988.75415 1552.5,926.72583 1552.5,860 C 1552.5,761.89769 1508.8736,673.92514 1440,614.40625 z M 1440,1155.7188 C 1381.743,1211.3388 1302.8425,1245.5 1216,1245.5 L 963.46875,1245.5 C 970.9134,1256.4404 978.71454,1267.116 986.875,1277.5 L 1231,1277.5 C 1310.6028,1277.5 1383.5242,1248.7803 1440,1201.1562 C 1496.4758,1248.7803 1569.3973,1277.5 1649,1277.5 L 1893.125,1277.5 C 1901.2856,1267.116 1909.0866,1256.4404 1916.5312,1245.5 L 1664,1245.5 C 1577.1576,1245.5 1498.2571,1211.3388 1440,1155.7188 z M 1014.875,1310.5 C 1019.8401,1315.9271 1024.9258,1321.2637 1030.0938,1326.5 L 1849.9062,1326.5 C 1855.0741,1321.2637 1860.1599,1315.9271 1865.125,1310.5 L 1014.875,1310.5 z M 1065.4688,1359.5 C 1075.6011,1368.1837 1086.0264,1376.5259 1096.75,1384.5 L 1440,1384.5 L 1783.25,1384.5 C 1793.9737,1376.5259 1804.3989,1368.1837 1814.5312,1359.5 L 1440,1359.5 L 1065.4688,1359.5 z M 1133.2188,1409.5 C 1151.7948,1421.22 1171.0739,1431.9252 1191,1441.5 L 1440,1441.5 L 1689,1441.5 C 1708.9262,1431.9252 1728.2052,1421.22 1746.7812,1409.5 L 1440,1409.5 L 1133.2188,1409.5 z M 1227.5625,1457.5 C 1293.3097,1483.6288 1364.9803,1498 1440,1498 C 1515.0197,1498 1586.6902,1483.6288 1652.4375,1457.5 L 1440,1457.5 L 1227.5625,1457.5 z" id="path3169" style="fill:#ffffff;fill-opacity:1;fill-rule:evenodd;stroke:none;stroke-width:0;stroke-linecap:butt;stroke-linejoin:miter;stroke-miterlimit:4;stroke-dasharray:none;stroke-opacity:1" />
</svg>