<?xml version="1.0" encoding="UTF-8"?>
<svg xmlns="http://www.w3.org/2000/svg" xmlns:xlink="http://www.w3.org/1999/xlink" width="640" height="320">
<rect width="640" height="320" fill="#d3ae3b"/>
<rect width="608" height="288" x="16" y="16" fill="#c40308"/>
<g>
<path fill="#B96B29" d="M389.64,157.4c1.874-0.529,8.39-2.433,12.981-6.158,4.591-3.726,5.487-6.711,5.858-8.323,0.368-1.612,0.527-2.88-0.66-1.955-1.187,0.923-4.749,3.725-7.176,5.073-2.429,1.347-4.672,1.982-5.991,2.353-1.319,0.368-2.375,0.606-1.107,0.104,1.265-0.501,5.409-1.956,8.602-5.152,3.192-3.197,5.714-7.988,5.768-10.93,0.053-2.941-0.157-2.732-1.103-1.996-0.946,0.735-4.308,4.886-6.198,6.461-1.891,1.577-4.938,3.678-6.461,4.57-1.524,0.894-3.677,1.892-0.683-0.157,2.994-2.047,8.666-6.881,10.979-13.132,2.311-6.251,1.89-9.927,1.838-10.558-0.052-0.63-0.578-1.891-1.103-0.734-0.525,1.154-4.309,8.719-7.354,11.975-3.048,3.257-2.312,2.627-2.995,3.152-0.682,0.525-1.839,1.471-0.366-0.369,1.471-1.837,4.517-6.093,6.094-10.294,1.574-4.203,1.995-8.406,2.047-10.822,0.053-2.416-0.997-5.777-1.471-6.774-0.472-1-0.945-1.734-1.104-0.58-0.156,1.156-2.573,8.615-3.887,12.239-1.313,3.625-3.938,7.723-4.465,8.511-0.524,0.788-1.89,2.416-0.42-0.315,1.471-2.732,4.307-10.769,4.676-18.385,0.367-7.617-0.683-11.819-1.734-13.92-1.05-2.102-1.96-2.847-1.96-2.847s0.18,5.2-1.372,12.67c-1.553,7.471-3.819,11.415-3.819,11.415s-0.954,1.076-0.3-0.717c0.443-1.206,1.354-3.86,1.771-8.358,0.439-4.719,0.491-10.088-0.887-14.659-1.5-4.978-4.104-7.523-4.104-7.523-0.726,7.142-0.582,16.344-3.199,23.803-0.49-0.438-1.138-1.248-1.396,0.401-0.478,2.451-1.433,7.053-4.654,12.91-3.224,5.857-4.535,6.634-4.535,6.634s-0.597-1.435-1.016-2.211c-0.417-0.777-0.656-1.196-1.194-0.12-0.535,1.076-2.326,5.2-6.266,9.742-3.938,4.542-6.146,6.753-6.026,10.159,0.12,3.407,1.909,5.141,4.296,6.694,2.388,1.555,2.807,2.39,2.447,4.243-0.358,1.854-2.507,2.51-4.355,2.57-1.852,0.06-4.179-0.12-5.014,0.358-0.836,0.479-0.895,1.673-1.731,2.509-0.834,0.838-1.192,1.314-1.969,1.436-0.273,0.042-0.495,0.067-0.667,0.086-0.172-8.985,3.31-12.991,3.31-12.991l-9.731-11.433c-0.503,0.247-1.005,0.478-1.509,0.696-0.068-0.132-0.162-0.276-0.285-0.432-1.295-1.654-1.719-3.056-1.719-5.176,0.484,0.048,1.455,0.398,2.337,0.221,0.882-0.176,0.22-1.061-0.044-1.901-0.265-0.842-0.53-3.76-0.354-4.866,0.177-1.106,0.264-1.549,0.264-1.549s1.413,1.549,2.294,1.549c0.884,0,0.794-0.884,0.927-1.858,0.199-1.467,0.889-3.319,2.028-4.335,0,0,1.543,1.063,3.309,1.063,1.763,0,4.144-0.487,6.04-2.3,1.897-1.813,1.853-2.256,1.853-2.256s3.527,1.238,6.218,1.372c2.69,0.132,5.557-0.311,6.924-3.141,1.367-2.831-0.398-5.44-0.705-5.883-0.31-0.443-1.191-0.797-1.191,0s0.045,2.919-1.588,3.981c-1.632,1.061-2.91,1.016-4.454,0.53-1.543-0.486-3.704-1.106-6.174-0.752-2.215,0.317-2.515,0.492-2.553,0.525,0.115-0.118,2.126-2.18,4.096-2.781,2.029-0.619,3.221,0.221,3.882,1.017s1.234,2.08,1.764,0.221c0.529-1.857,0.221-3.98-0.661-5.352-0.883-1.371-2.778-2.256-4.763-2.034-1.985,0.221-2.689,0.53-2.689,0.53s-1.016-2.874-3.573-3.405c-3.12-0.648-6.562,0.525-9.261,2.034,0,0-2.117,0.488-4.277-0.132-1.415-0.406-2.83-1.267-3.639-1.811,0.246-0.827,0.73-2.354,0.73-2.354s0.618-0.188,1.264-0.431c0.646-0.242,0.512-0.458,0.593-0.996,0.08-0.538-1.214-1.475-1.214-1.475s-0.187-1.617,1.94-2.726c2.126-1.109,1.895-0.924,1.895-0.924s1.247,0.231,1.756-0.139c0.508-0.37,0.508-0.601,0.508-0.601s0.942-0.309,1.288-0.877c0.345-0.567,0.409-1.387,0.156-2.049-0.25-0.663-0.567-0.789-0.219-1.105,0.345-0.315,0.66-1.072,0.691-1.608,0.032-0.538,0.032-0.662,0.032-0.662s0.723-0.254,0.69-1.357c-0.032-1.105-0.629-1.547-0.976-1.642-0.345-0.094-0.564-0.094-0.564-0.094s-0.063-0.663-0.629-1.545c-0.568-0.884-0.944-1.262-0.944-1.262s0.408-0.313,0.188-1.039c-0.22-0.726-0.724-1.167-1.227-1.327-0.503-0.157-1.037,0-1.037,0s-1.667-1.009-2.453-1.419c-0.787-0.41-0.976-0.504-0.976-0.504s-0.031-0.694-0.314-1.073-0.944-0.537-1.29-0.537-0.723,0.19-0.723,0.19-2.832-0.727-3.995-0.916c-1.164-0.189-1.228-0.284-1.228-0.284s-2.515-1.199-3.489-1.388c-0.976-0.189-1.258-0.283-1.258-0.283s1.018-1.232,1.08-2.651c0.064-1.42-0.879-2.759-1.885-3.358-0.568-0.337-0.873-0.393-1.058-0.509l-0.021-0.977,1.89,0.19,0.156-3.042-1.84,0.233,0.282-1.831-3.856-0.044,0.282,1.83-1.855-0.127,0.157,2.998,1.951-0.252-0.189,1.134s-0.714,0.121-1.319,0.567c-1.006,0.6-1.857,1.768-1.794,3.188,0.062,1.419,0.911,2.682,0.911,2.682s-0.251,0.063-1.226,0.251c-0.975,0.189-3.492,1.388-3.492,1.388s-0.063,0.094-1.227,0.284c-1.163,0.189-3.994,0.916-3.994,0.916s-0.377-0.19-0.724-0.19c-0.346,0-1.006,0.158-1.289,0.537-0.283,0.378-0.314,1.073-0.314,1.073s-0.189,0.095-0.976,0.504c-0.787,0.41-2.453,1.419-2.453,1.419s-0.536-0.157-1.039,0c-0.503,0.159-1.006,0.601-1.226,1.327s0.188,1.039,0.188,1.039-0.378,0.378-0.944,1.262c-0.565,0.882-0.628,1.545-0.628,1.545s-0.221,0-0.566,0.094c-0.346,0.095-0.944,0.537-0.975,1.642-0.032,1.103,0.692,1.357,0.692,1.357s0,0.125,0.031,0.662c0.032,0.537,0.347,1.293,0.692,1.608,0.346,0.316,0.032,0.442-0.22,1.105-0.251,0.662-0.189,1.482,0.157,2.049,0.346,0.568,1.287,0.877,1.287,0.877s0,0.231,0.508,0.601c0.508,0.37,1.756,0.139,1.756,0.139s-0.23-0.185,1.895,0.924c2.125,1.109,1.94,2.726,1.94,2.726s-1.294,0.938-1.213,1.475c0.081,0.538-0.054,0.754,0.592,0.996,0.646,0.243,1.265,0.431,1.265,0.431s0.483,1.526,0.729,2.354c-0.809,0.544-2.223,1.405-3.637,1.811-2.161,0.62-4.279,0.132-4.279,0.132-2.697-1.509-6.139-2.682-9.26-2.034-2.558,0.531-3.573,3.405-3.573,3.405s-0.705-0.309-2.689-0.53c-1.984-0.222-3.881,0.663-4.764,2.034-0.882,1.372-1.19,3.495-0.661,5.352,0.529,1.859,1.103,0.575,1.764-0.221,0.662-0.796,1.853-1.636,3.881-1.017,1.97,0.601,3.981,2.663,4.096,2.781-0.039-0.033-0.337-0.208-2.553-0.525-2.469-0.354-4.63,0.266-6.173,0.752s-2.822,0.531-4.454-0.53c-1.632-1.063-1.588-3.185-1.588-3.981s-0.882-0.443-1.19,0-2.073,3.053-0.706,5.883c1.367,2.83,4.233,3.273,6.923,3.141,2.69-0.134,6.218-1.372,6.218-1.372s-0.043,0.443,1.853,2.256c1.896,1.813,4.277,2.3,6.042,2.3s3.307-1.063,3.307-1.063c1.139,1.017,1.831,2.869,2.029,4.335,0.132,0.974,0.045,1.858,0.927,1.858,0.881,0,2.293-1.549,2.293-1.549s0.088,0.443,0.264,1.549c0.176,1.106-0.088,4.024-0.353,4.866-0.264,0.84-0.926,1.725-0.043,1.901,0.882,0.177,1.852-0.173,2.337-0.221,0,2.12-0.425,3.522-1.72,5.176-0.114,0.146-0.204,0.281-0.272,0.407-0.482-0.211-0.964-0.434-1.446-0.671l-9.731,11.433s3.498,4.025,3.309,13.059v-0.063c-0.177-0.017-0.413-0.045-0.708-0.09-0.777-0.121-1.134-0.598-1.97-1.436-0.835-0.836-0.895-2.03-1.73-2.509s-3.163-0.299-5.013-0.358c-1.851-0.061-3.998-0.717-4.357-2.57-0.357-1.854,0.061-2.688,2.447-4.243,2.387-1.554,4.177-3.287,4.297-6.694,0.119-3.406-2.088-5.618-6.027-10.159-3.939-4.542-5.729-8.666-6.266-9.742s-0.776-0.657-1.194,0.12c-0.418,0.776-1.014,2.211-1.014,2.211s-1.313-0.777-4.535-6.634c-3.223-5.857-4.178-10.458-4.655-12.91-0.259-1.649-0.908-0.838-1.396-0.401-2.62-7.459-2.475-16.662-3.2-23.803,0,0-2.604,2.545-4.104,7.523-1.377,4.57-1.325,9.94-0.886,14.659,0.417,4.498,1.327,7.153,1.769,8.358,0.656,1.793-0.298,0.717-0.298,0.717s-2.268-3.944-3.819-11.415c-1.552-7.47-1.373-12.67-1.373-12.67s-0.909,0.745-1.96,2.847c-1.05,2.101-2.1,6.303-1.733,13.92,0.368,7.617,3.205,15.653,4.676,18.385,1.471,2.731,0.105,1.103-0.421,0.315-0.525-0.788-3.151-4.885-4.465-8.511-1.313-3.624-3.729-11.083-3.887-12.239-0.158-1.155-0.63-0.42-1.104,0.58-0.473,0.998-1.523,4.359-1.471,6.774,0.053,2.416,0.473,6.619,2.049,10.822,1.576,4.202,4.622,8.457,6.093,10.294,1.471,1.84,0.315,0.894-0.368,0.369s0.053,0.104-2.994-3.152-6.829-10.821-7.354-11.975c-0.526-1.157-1.051,0.104-1.104,0.734-0.052,0.631-0.473,4.307,1.839,10.558,2.311,6.251,7.984,11.085,10.979,13.132,2.994,2.049,0.84,1.051-0.683,0.157-1.523-0.892-4.57-2.993-6.461-4.57-1.891-1.575-5.253-5.726-6.198-6.461-0.946-0.736-1.155-0.946-1.103,1.996s2.575,7.732,5.768,10.93c3.192,3.196,7.334,4.651,8.602,5.152,1.267,0.502,0.211,0.264-1.109-0.104-1.318-0.37-3.561-1.006-5.989-2.353-2.428-1.349-5.989-4.15-7.177-5.073-1.188-0.925-1.029,0.343-0.66,1.955,0.37,1.612,1.267,4.598,5.857,8.323,4.591,3.726,11.108,5.629,12.981,6.158,1.874,0.527,0.554,0.527,0.554,0.527s-0.739-0.104-4.538-0.952c-3.799-0.845-9.552-3.856-11.109-4.834-1.557-0.979-1.793-1.348-1.583,0.713,0.212,2.06,2.402,6.474,5.911,8.535s9.842,3.119,11.478,3.197c1.636,0.08,1.214,0.317,0.475,0.369-0.739,0.053-2.56,0.053-5.541-0.289-2.444-0.282-6.074-1.469-7.305-1.889-0.138-0.526-0.265-1.036-0.323-1.35-0.145-0.785-0.551-0.669-0.813-0.493-0.262,0.172-0.407,0.318-1.276,0.755-0.872,0.438-0.901-0.086-0.93-0.348-0.029-0.264-0.203-1.399-0.232-1.979-0.029-0.584-0.349-0.613-0.754-0.438-0.407,0.176-2.352,0.99-3.077,1.312-0.726,0.319-0.058,0.901,0.319,1.599,0.377,0.701,0.958,1.719,0.958,1.719s-1.829,0.495-2.41,0.641c-0.58,0.146-0.406,0.554-0.261,0.962,0.146,0.406,1.045,2.445,1.277,3.027s0.755,0.233,0.755,0.233l1.828-1.077,0.638,2.444c-0.031,0.039-0.845,0.194-1.77,0.843-0.924,0.648-0.693,1.483,0.416,1.808,1.108,0.324,2.403,0.881,3.835,3.476,1.432,2.597,1.802,7.276,2.68,14.647,0.878,7.367,5.591,11.122,6.238,11.586s0.277,0.834,0.277,0.834-0.647,0.929-0.369,2.365c0.277,1.435,1.524,2.271,2.171,2.502,0.646,0.23,0.462,0.88,0.462,0.88s-0.324,1.575,0,4.45c0.323,2.873,2.68,6.117,3.327,6.674,0.646,0.555,0.693,0.834,0.601,1.066-0.092,0.231-0.509,0.047-1.294,0.648-0.786,0.603-1.664,1.437-2.217,2.456-0.555,1.021-0.37,1.623-0.186,3.014,0.185,1.391,2.218,2.642,2.218,2.642s-0.37,0.093-0.461,1.112c-0.092,1.02,0.646,2.178,1.571,2.919,0.924,0.742,2.68,1.113,2.68,1.113s0.139,0.88,0.231,1.482c0.092,0.604,1.248,1.204,1.987,1.622,0.739,0.417,2.171,0.186,2.772-0.093,0.6-0.277,1.016,0.047,1.385,0.648,0.371,0.604,0.232,2.92,0.232,3.848,0,0.927-0.555,1.9-0.232,2.364,0.324,0.463,1.202,0.138,2.08-0.371,0.878-0.511,1.109-0.139,1.895,0.371,0.786,0.509,2.033,0.974,2.357,0.927,0.323-0.047,0.185-0.881,0.185-1.576s0.125-2.268,0.448-2.5c0.153-0.11,1.513-0.211,2.555-0.652,0.485-0.204,1.109-0.416,1.155-0.88,0.046-0.463-0.647-0.463-2.171-1.251-1.525-0.787-1.802-1.253-2.772-1.901-0.971-0.648-0.508-0.88-0.508-1.158,0-0.276,0.461-0.602,0.646-0.973s0.092-1.204,0.092-1.204,0.786-0.788,1.155-1.206c0.37-0.416,0.832-1.067,1.34-1.483s1.293-2.409,1.802-3.059c0.508-0.648,1.664-1.344,2.356-2.225,0.693-0.881,2.542-2.317,3.605-3.013,1.063-0.695,3.927-2.04,3.927-2.04s-0.046,1.715,0.693,2.549c0.739,0.836,1.709-0.647,4.99-2.966,3.281-2.317,5.776-3.151,5.776-3.151s0.693,1.065,1.57,2.178c0.878,1.113,1.664-0.047,5.684-5.607,3.171-4.388,7.348-8.399,8.97-9.898,0.299,0.133,0.595,0.266,0.89,0.402-0.076,0.214-0.16,0.456-0.244,0.721-0.369,1.152-0.967,1.89-1.75,3.5-0.783,1.611-1.979,1.979-3.361,4.145-1.381,2.164-1.565,3.636-1.704,5.847-0.138,2.21,1.105,2.671,1.105,2.671s-2.026,1.979-2.625,3.453c-0.598,1.473-0.921,4.467-0.921,4.467s-0.323,0.137-1.059,1.657c-0.737,1.521-2.073,1.749-4.006,3.684-1.935,1.934-4.098,2.763-5.111,3.359-1.013,0.601-0.737,1.198-0.46,1.981,0.275,0.782,1.657,1.565,3.269,2.164,1.612,0.598,2.164,0.368,3.27,0.322,1.105-0.045,0.23,0.829-0.23,1.288-0.46,0.462-1.059,2.072-0.967,3.868,0.092,1.797,1.428,1.381,3.086,1.105,1.657-0.275,3.591-1.105,3.591-1.105s0,0-0.184,0.508c-0.184,0.506-0.276,0.873-0.276,2.303,0,1.427,0.23,2.117,0.645,2.484,0.415,0.369,1.244-0.413,1.842-0.597,0.599-0.187,1.612-0.783,3.085-1.105,1.473-0.323,2.025-0.967,2.025-0.967s-0.368,0.459-0.46,1.473c-0.093,1.014-0.046,2.532,0.185,3.408,0.229,0.873,0.874,1.933,1.887,2.854,1.013,0.922,1.243,0.507,1.979-0.644,0.737-1.152,2.256-2.626,2.256-2.626s0.092,0.369,1.105,3.638c1.013,3.27,4.328,5.986,4.328,5.986s3.315-2.717,4.328-5.986c1.013-3.269,1.104-3.638,1.104-3.638s1.521,1.474,2.257,2.626c0.737,1.15,0.968,1.565,1.98,0.644,1.013-0.921,1.657-1.98,1.888-2.854,0.23-0.876,0.276-2.395,0.186-3.408-0.094-1.014-0.462-1.473-0.462-1.473s0.553,0.644,2.026,0.967c1.473,0.322,2.486,0.919,3.084,1.105,0.599,0.184,1.429,0.966,1.843,0.597,0.414-0.367,0.645-1.058,0.645-2.484,0-1.43-0.092-1.797-0.276-2.303-0.185-0.508-0.185-0.508-0.185-0.508s1.935,0.83,3.592,1.105,2.992,0.691,3.086-1.105c0.091-1.796-0.508-3.406-0.968-3.868-0.461-0.459-1.335-1.333-0.23-1.288,1.104,0.046,1.657,0.275,3.269-0.322,1.611-0.599,2.993-1.382,3.27-2.164,0.276-0.783,0.553-1.381-0.46-1.981-1.013-0.597-3.178-1.426-5.111-3.359-1.933-1.935-3.27-2.163-4.007-3.684-0.735-1.521-1.057-1.657-1.057-1.657s-0.324-2.994-0.922-4.467c-0.599-1.475-2.625-3.453-2.625-3.453s1.244-0.461,1.105-2.671c-0.138-2.211-0.321-3.683-1.703-5.847-1.382-2.165-2.58-2.533-3.363-4.145-0.782-1.61-1.381-2.348-1.749-3.5-0.073-0.232-0.153-0.464-0.235-0.696,0.395-0.176,0.792-0.351,1.188-0.521,1.611,1.485,5.806,5.51,8.987,9.911,4.021,5.563,4.807,6.722,5.685,5.608,0.877-1.111,1.57-2.177,1.57-2.177s2.495,0.833,5.776,3.15c3.28,2.318,4.251,3.801,4.989,2.967,0.391-0.439,0.478-1.168,0.525-1.727,0,0,1.885,0.551,4.044,1.307,1.295,0.454,2.733,1.026,3.801,1.477,2.842,1.203,3.15,1.822,5.411,3.608s5.48,1.614,8.529,0.686c3.047-0.926,11.167-3.605,14.42-5.014,3.254-1.411,5.584-2.646,5.927-3.3,0.342-0.652,0.718-2.474,0.718-3.125,0-0.653-0.718-1.614-0.959-1.787-0.238-0.173-0.135-0.688-0.068-1.099,0.068-0.413-0.136-1.649-0.649-2.2-0.514-0.55-0.445-0.754-0.377-2.337,0.145-3.351-2.247-7.576-5.636-8.921,0,0-0.091-0.39-0.366-0.62-0.272-0.229-0.73-0.435-0.73-0.435s0.067-1.927,0.045-2.341c-0.022-0.413,0.16-0.365,0.391-0.252,0.228,0.114,0.593,0.574,1.142,0.712,0.549,0.137,0.892-0.254,1.007-0.872,0.113-0.619,0.571-1.858,0.777-2.478,0.207-0.618-0.047-0.711-0.298-0.779-0.251-0.07-1.074-0.16-1.464-0.254-0.388-0.091-0.388-0.114-0.297-0.32,0.093-0.205,0.229-0.526,0.731-1.308,0.504-0.78,0.047-0.803-0.435-0.962-0.48-0.161-2.651-0.826-3.246-0.919-0.596-0.092-0.733,0.413-0.733,0.665,0,0.254,0.023,1.354,0.046,1.767s-0.365,0.298-0.594,0.184c-0.23-0.114-0.755-0.437-1.166-0.758-0.412-0.32-0.709-0.022-0.87,0.437-0.16,0.458-0.662,2.341-0.822,2.891-0.16,0.551-0.115,0.986,0.114,1.077,0.229,0.093,1.303,0,1.944,0,0.639,0,0.273,0.368,0.273,0.368s-0.686,1.124-0.915,1.559c-0.228,0.437-0.617,0.506-1.143,0.506s-1.408-0.007-1.408-0.007-3.514,0.132-6.101,2.056c-2.586,1.923-3.315,3.514-3.713,4.441-0.398,0.93-0.861,0.729-1.261,1.062-0.397,0.332-1.524,1.526-1.524,2.256,0,0.729,0.265,1.126-0.861,1.855-1.129,0.73-2.057,3.913-0.531,5.571,1.525,1.656,2.122,3.313,2.587,4.11,0.462,0.796,0,1.127-0.399,1.127-0.397,0-1.228-0.676-1.922-1.194-0.694-0.517-4.197-3.253-5.702-4.375-1.507-1.124-0.398-0.995-0.398-0.995s0.383,0.035,1.262-0.335c0.877-0.371,1.017-0.833,0.137-1.112-0.877-0.277-2.587-1.251-3.048-1.715-0.463-0.463-0.693-0.973,0.185-1.437,0.877-0.463,2.818-1.715,1.294-2.132-1.526-0.419-3.328-0.741-4.807-1.159-1.479-0.417-1.618-0.834-1.618-0.834l0.972-1.391s0.785-1.111-0.139-1.251-3.142-0.417-5.175-1.299c-4.061-1.759-6.605-4.742-7.548-8.383l0.067-0.088c0.759,1.501,2.525,4.306,5.188,4.393,3.64,0.12,4.057-1.017,3.222-2.212s-1.79-2.271-2.028-2.629c-0.24-0.359-0.3-0.838,0.655,0.06s2.773,3.944,8.264,3.586c5.489-0.358,5.462-1.435,5.462-1.733,0-1.054-1.118-1.221-1.777-1.882-0.344-0.345-0.553-0.846,0.555-0.423s3.824,0.924,7.52,0.131c1.458-0.311,5.324-1.999,5.698-3.962,0,0-2.454-0.134-4.168-0.873-1.716-0.741-2.745-1.347-0.924-0.977,1.821,0.369,5.357,1.108,8.47,0.053,1.819-0.618,4.17-2.09,4.169-4.783,0,0-3.377-0.713-4.617-1.163-1.24-0.449-1.636-0.792-1.636-0.792s4.826,1.531,9.208-0.688c4.38-2.219,4.564-5.257,4.564-5.971s-0.105-0.926-0.105-0.926-3.984,0.979-6.965,0.952c-2.982-0.026-3.906-0.291-3.906-0.291s8.339-0.238,12.533-2.801c4.195-2.563,4.434-7.611,4.434-7.611s-4.751,1.691-7.731,2.036c-2.981,0.342-4.803,0.342-5.541,0.289-0.739-0.052-1.16-0.289,0.475-0.369,1.638-0.078,7.968-1.137,11.478-3.197,3.51-2.062,5.699-6.476,5.911-8.535,0.211-2.061-0.026-1.691-1.584-0.713-1.557,0.978-7.308,3.989-11.107,4.834-3.799,0.848-4.538,0.952-4.538,0.952s-1.46-0.07,0.42-0.59zm-150.1,9.58c-0.406,0.233-1.683,0.96-1.683,0.96s-0.668-1.368-0.842-1.775c-0.174-0.408-0.087-0.583,0.144-0.583,0.233,0,0.93-0.203,1.481-0.261,0.079-0.009,0.151-0.021,0.215-0.036,0.184,0.525,0.426,1.094,0.744,1.665-0.02,0.02-0.04,0.03-0.06,0.04zm51.18,29.97c-1.017,1.902-3.789,3.895-5.822,4.775s-4.251,1.159-5.175,1.297c-0.924,0.139-0.139,1.252-0.139,1.252l0.97,1.392s-0.138,0.416-1.617,0.834c-1.479,0.416-3.28,0.74-4.805,1.158-1.525,0.416,0.416,1.668,1.293,2.133,0.878,0.462,0.647,0.973,0.185,1.436-0.462,0.464-2.171,1.437-3.049,1.715s-0.74,0.743,0.138,1.113c0.878,0.369,3.281,0.833,3.281,0.833s-0.046,0.093-1.524,1.206c-1.479,1.112-4.067,1.854-5.776,1.946-1.71,0.092-4.413,0.204-7.841,0.046-3.427-0.156-3.821-0.235-3.821-0.235s-0.118-1.144-0.355-2.838c-0.236-1.693-1.26-4.097-2.048-5.199-0.789-1.104-2.442-3.31-2.442-3.31s0.039-0.473,0.157-1.024,0.039-1.143-0.361-2.184c-0.401-1.042-2.403-2.563-2.403-2.563s-0.081-1.121-0.081-2.163c0-1.041-0.72-5.126-1.362-7.048-0.64-1.922-3.764-6.968-5.206-9.371-1.442-2.402-2.298-5.964-2.734-8.729-0.436-2.766-0.261-3.668-0.116-4.396,0.064-0.319,0.2-0.609,0.328-0.867,0.592,0.765,1.35,1.489,2.318,2.082,4.195,2.563,12.533,2.801,12.533,2.801s-0.924,0.265-3.905,0.291c-2.981,0.026-6.965-0.952-6.965-0.952s-0.106,0.212-0.106,0.926,0.186,3.752,4.565,5.971c4.379,2.22,9.208,0.688,9.208,0.688s-0.396,0.343-1.636,0.792c-1.24,0.45-4.617,1.163-4.617,1.163,0,2.693,2.351,4.165,4.168,4.783,3.114,1.056,6.649,0.316,8.471-0.053,1.82-0.37,0.792,0.235-0.924,0.977-1.714,0.739-4.168,0.873-4.168,0.873,0.376,1.963,4.242,3.651,5.699,3.962,3.694,0.793,6.411,0.292,7.52-0.131s0.897,0.078,0.554,0.423c-0.659,0.661-1.777,0.828-1.777,1.882,0,0.299-0.028,1.375,5.462,1.733s7.308-2.688,8.263-3.586c0.955-0.897,0.895-0.419,0.656-0.06-0.238,0.357-1.193,1.434-2.028,2.629-0.836,1.195-0.418,2.332,3.222,2.212,2.681-0.088,4.455-2.932,5.204-4.424l0.05,0.069c0.049,0.067,0.099,0.133,0.147,0.196-0.34,0.88-0.93,2.32-1.58,3.54zm44.28-118.76c-0.496-0.945-0.759-1.39-0.759-1.39s2.068,0.97,3.299,2.361c1.23,1.393,1.203,2.127,1.387,2.811,0.184,0.683,0,1.942-0.183,3.124-0.184,1.181-0.184,1.891,0.053,2.311,0.235,0.42,0.445,0.63,0.445,0.63s-0.918,0.236-1.781,0.578c-0.864,0.342-1.989,0.656-2.617,0.131-0.629-0.525-0.785-0.893-0.392-1.234,0.392-0.342,1.857-0.762,2.041-3.282,0.18-2.521-0.99-5.094-1.49-6.04zm-11.28,6.857c0.472-1.197,0.666-2.34,0.305-4.792-0.303-2.061-0.703-3.826-0.805-6.047,0,0,1.528,0.335,3.723,2.341,2.193,2.006,2.695,4.068,2.695,5.072,0,1.002-0.529,2.229-0.612,3.205-0.083,0.975,0.277,1.839,0.277,1.839s-0.806,0.333-1.527,0.834c-0.722,0.502-1.222,0.809-2.333,0.753-1.112-0.056-1.779-0.557-2.418-0.892s-1.054-0.39-1.054-0.39,1.27-0.724,1.74-1.923zm-10.7-8.498c2.195-2.005,3.722-2.341,3.722-2.341-0.101,2.221-0.501,3.986-0.806,6.047-0.36,2.452-0.166,3.595,0.306,4.792,0.473,1.199,1.75,1.923,1.75,1.923s-0.416,0.056-1.056,0.39c-0.638,0.334-1.305,0.836-2.417,0.892-1.111,0.055-1.611-0.251-2.333-0.753-0.723-0.501-1.528-0.834-1.528-0.834s0.361-0.864,0.277-1.839c-0.083-0.975-0.61-2.202-0.61-3.205,0.01-1.004,0.51-3.066,2.7-5.072zm-7.91,12.197c-0.629,0.525-1.754,0.211-2.619-0.131-0.864-0.342-1.78-0.578-1.78-0.578s0.209-0.209,0.445-0.63c0.236-0.419,0.236-1.129,0.052-2.311-0.183-1.182-0.367-2.441-0.183-3.124,0.183-0.684,0.157-1.418,1.387-2.811,1.231-1.391,3.299-2.361,3.299-2.361s-0.262,0.445-0.759,1.39c-0.498,0.946-1.676,3.519-1.492,6.041,0.184,2.52,1.65,2.939,2.042,3.282,0.39,0.34,0.23,0.708-0.4,1.233zm29.24,21.078c-2.162,1.195-3.396,0.929-3.308,1.813,0.089,0.885,2.027,1.549,2.027,1.549s-1.984,2.123-3.528,3.097c-1.542,0.973-3.353,1.592-3.353,1.592s-0.616,0.089-0.264,1.062c0.354,0.973,0.971,1.636,1.455,1.902,0.485,0.265,0.751,0.354,0.751,0.354s-2.69,2.875-3.881,3.804c-1.191,0.929-1.853,1.238-2.822,1.637-0.971,0.398-0.484,1.99-0.265,2.699,0.22,0.706,1.058,1.68,1.544,1.813,0.483,0.133,0.661,0.486,0.044,1.46-0.462,0.726-2.001,2.657-2.735,3.722l-0.045,0.023c-0.729-1.058-2.289-3.014-2.753-3.745-0.617-0.974-0.441-1.327,0.044-1.46s1.324-1.106,1.544-1.813c0.219-0.709,0.705-2.301-0.267-2.699-0.969-0.399-1.631-0.708-2.821-1.637-1.191-0.929-3.881-3.804-3.881-3.804s0.265-0.089,0.75-0.354c0.486-0.266,1.103-0.929,1.456-1.902,0.352-0.973-0.265-1.062-0.265-1.062s-1.808-0.619-3.352-1.592c-1.542-0.974-3.528-3.097-3.528-3.097s1.94-0.664,2.029-1.549c0.088-0.885-1.147-0.619-3.308-1.813s-2.867-2.698-2.867-2.698,2.514-0.841,3.749-3.362c0.437-0.893,0.542-1.708,0.496-2.39l0.095,0.032c4.014,1.307,8.706,1.83,12.9,1.83,4.187,0,8.877-0.526,12.883-1.83l0.095-0.032c-0.047,0.682,0.058,1.497,0.495,2.39,1.235,2.521,3.75,3.362,3.75,3.362s-0.7,1.51-2.86,2.71z"/><g><path fill="#D4AF3A" d="M347.47,158.5c0-6.785,3.122-11.076,3.122-11.076l-8.493-9.73c-8.089,3.127-15.5,3.317-22.098-0.04-6.598,3.357-14.009,3.167-22.096,0.04l-8.496,9.73s3.123,4.291,3.123,11.076c0,6.786-1.312,11.82-2.079,15.103-0.766,3.283-1.422,9.411,0.329,13.79,1.75,4.376,3.611,8.207,11.162,11.381s11.491,4.814,14.117,7.004c2.627,2.187,3.94,3.938,3.94,3.938s1.313-1.752,3.94-3.938c2.625-2.189,6.565-3.83,14.117-7.004,7.55-3.174,9.411-7.005,11.162-11.381,1.75-4.379,1.094-10.507,0.328-13.79-0.76-3.28-2.07-8.31-2.07-15.1z"/><path fill="#B96B29" d="M344.8,161.3c-1.065-6.481,2.671-12.189,2.671-12.189l-7.271-8.501c-5.602,3.147-13.398,2.724-20.174-0.393-6.774,3.116-14.573,3.54-20.173,0.393l-7.271,8.501s3.736,5.708,2.669,12.189c-1.067,6.48-3.363,16.736-2.789,20.919,0.574,4.184,3.528,9.024,6.563,11.567s7.547,4.677,10.745,5.825c3.2,1.148,6.318,3.363,7.795,4.512,1.476,1.148,2.46,2.134,2.46,2.134s0.985-0.985,2.462-2.134,4.594-3.363,7.792-4.512c3.2-1.148,7.713-3.282,10.747-5.825,3.036-2.543,5.989-7.384,6.563-11.567,0.57-4.2-1.73-14.45-2.8-20.93z"/><path fill="#1D5E91" d="M344.1,162.07c-1.053-6.998,2.104-12.635,2.104-12.635l-6.563-7.308c-5.547,2.849-12.289,2.113-19.634-0.434-7.344,2.547-14.085,3.282-19.633,0.434l-6.564,7.308s3.159,5.637,2.106,12.635-2.663,14.924-2.354,19.57c0.021,0.319,0.055,0.644,0.101,0.972h5.978s0.346-0.403,1.012-0.687c0.664-0.287,0.854-0.478,0.854-0.478s0.127-1.207,0.855-1.461c0.728-0.255,1.045-0.255,1.33-0.255s0.507-0.063,0.855-0.413c0.349-0.349,1.297-1.206,1.709-2.413s0.666-1.684,0.666-2.478c0-0.793,0.285-2.063,0.285-2.063s-0.159-0.381-0.76-0.158c-0.602,0.222-0.697-0.381-0.759-0.985-0.064-0.604-0.032-1.841,0.316-2.413s0.475-0.763,0.475-0.763l-0.254-0.951s-3.799,0.761-4.463-2.192c-0.665-2.953-0.792-4.384-0.887-4.699-0.095-0.319-0.19-0.479-0.697-0.445-0.507,0.031-1.583-0.317-2.343-1.843-0.76-1.524-0.823-2.159-0.602-2.762,0.222-0.604,0.634-0.381,0.76-0.191,0.126,0.191,1.14,1.652,1.552,1.238,0.411-0.413,0.19-0.413-0.38-1.556s-0.38-1.523-0.317-2.097c0.063-0.571-0.189-1.334-0.189-1.651,0-0.316,0.348-0.571,0.696-0.413,0.349,0.159,0.665,0.413,0.823,0.604,0.158,0.19,0.222,0.478,0.539,0.287s0.126-1.24,0.126-1.588c0-0.35,0.412-0.604,0.919-0.318,0.506,0.286,0.759,0.825,0.759,1.206,0,0.382,0.032,0.731,0.222,0.731s0.412-0.572,0.443-0.954c0.031-0.379,0.253-0.952,0.602-0.475,0.349,0.475,0.475,1.176,0.349,1.905-0.127,0.729,0.126,0.35-0.127,1.62-0.252,1.271-0.379,1.842-0.348,2.795,0.032,0.952,0.063,1.492,0.538,2.668,0.475,1.175,0.854,2.539,1.741,2.571,0.887,0.031,1.14,0.031,1.14,0.031s0.981-1.905,1.742-2.35c0.76-0.444,1.836-0.509,2.596-0.604,0.76-0.096,1.076-0.318,1.076-0.509s-0.253-0.253-1.171-0.381c-0.917-0.126-1.677-0.35-1.708-1.048-0.032-0.698,0.157-1.302-0.444-1.333-0.601-0.032-2.089-0.511-2.627-1.493-0.538-0.985-0.412-1.208-0.348-1.746,0.063-0.54,0.759-1.621,1.203-0.604s0.729,1.143,1.108,1.365c0.38,0.224,0.886,0.287,0.634-0.413-0.254-0.698-0.412-1.142-0.349-1.649,0.063-0.51,0.412-0.73,0.824-0.826,0.411-0.096,1.646-0.478,2.279-0.604,0.632-0.126,0.665-0.189,0.665-0.189s0.063-0.445,0.886-0.699c0.823-0.254,1.361-0.285,1.963-0.285,0.601,0,1.044,0.095,1.836-0.287,0.792-0.38,1.424-0.443,1.931-0.412,0.506,0.032,0.887,0.223,1.267,0.476,0.38,0.255,0.253,0.604,0.253,0.953,0,0.35,0.063,0.54,0.601,0.54,0.54,0,1.015,0,1.521,0.19,0.508,0.191,1.204,0.476,0.76,1.016-0.442,0.541-0.473,1.144-0.76,1.112-0.283-0.032-0.252,0.286-0.38,0.477-0.126,0.189-0.221,0.349,0.097,0.54,0.314,0.19,0.347,0.381,0.791,0.793,0.442,0.413,1.107,0.858,0.442,1.525-0.663,0.666-1.835,1.207-1.835,1.207s-0.666,0.316,0.094,0.763c0.76,0.443,1.109,1.365,1.394,1.523,0.284,0.159,0.57,0.413,0.76,0.508,0.189,0.096,0.158,0.73,0.158,0.73s-0.411,0.287-0.981,0.509c-0.57,0.223-1.172,0.477-1.709,0.477-0.539,0-0.824,0-0.602,0.508,0.221,0.507,0.602,1.049,0.696,1.333,0.095,0.286,0.222,0.795,0.222,0.795s0.885,0.189,1.678,0.189c0.791,0,1.14,0.032,2.881-0.158,1.741-0.189,2.249-0.254,3.927-0.064,1.679,0.19,1.93,0.128,2.374,0.286,0.443,0.159,0.886,0.383,0.886,0.383s2.375-0.033,3.673-0.318c1.298-0.286,1.616-1.113,1.427-1.556-0.19-0.445-0.16-1.111-2.439-1.43-2.278-0.319-3.197-0.191-5.003-0.541-1.804-0.349-4.623-1.27-5.128-3.524-0.508-2.255,1.329-3.207,2.248-3.651,0.918-0.446,2.912-1.144,3.831-1.524,0.917-0.382,2.597-0.762,4.369-0.509,1.772,0.255,2.785,0.73,3.482,0.318,0.696-0.413,1.267-0.096,1.14,0.539-0.125,0.635-0.823,1.938-2.818,2.541-1.994,0.604-4.399,0.667-5.698,0.318-1.299-0.351-2.279-0.858-3.071-0.573-0.791,0.286-1.678,1.271-0.824,2.445,0.857,1.177,5.226,1.525,6.396,1.651,1.172,0.129,5.509-0.19,6.744,1.969,1.234,2.161,0.252,4.573-1.203,5.114-1.456,0.539-2.691,0.89-3.799,1.048s-1.108,0.158-1.108,0.158,0.506,1.144,0.506,1.621c0,0.476-0.063,1.365,0.476,1.713,0.538,0.351,1.299,0.604,2.217,0.509,0.918-0.094,2.026,0.54,2.09,1.366,0.062,0.825,0.316,1.968,0.41,3.62,0.096,1.651,0,3.017,0,3.017s-0.063,0.636-0.284,1.238c-0.222,0.604-1.362,2.943-1.362,2.943h6.375c0.046-0.328,0.08-0.652,0.102-0.972,0.26-4.71-1.35-12.63-2.4-19.63z"/><path fill="#6D8C3E" d="M294.42,185.72c1.25,3.571,3.826,7.187,7.748,9.549,5.45,3.282,7.804,2.849,12.944,6.193,5.141,3.344,4.831,3.902,4.893,3.902s-0.248-0.559,4.894-3.902c5.14-3.345,7.493-2.911,12.943-6.193,3.923-2.362,6.498-5.978,7.747-9.549h-51.158z"/><path fill="#D4AF3A" d="M298.88,158.13c0.585,0.615,1.017,0.802,1.91,0.71,0.894-0.095,1.109,0.555,1.263,1.263,0.154,0.709,0.154,2.372,0.801,3.912,0.646,1.54,2.803,1.633,2.803,1.633,0.06-0.743,0.319-1.742,0.647-2.557,0.058-0.146,0.338-0.833-0.432-0.833s-0.739-0.308-1.201-1.047c-0.461-0.739-1.355-2.71-1.57-3.974-0.215-1.263,0.185-3.142,0.4-3.819,0.216-0.678,0.247-1.14,0-1.263-0.247-0.124-0.739,0-0.739,0s0.185,0.585-0.032,0.677c-0.215,0.094-0.4-0.308-0.553-0.738-0.155-0.432-0.339-0.37-0.647-0.34-0.308,0.031-0.308,0.309-0.092,0.617,0.215,0.307,0.092,0.861,0.092,0.861s-0.678-0.492-0.955-0.616c-0.277-0.122-0.924,0.124-0.986,0.494-0.061,0.368,0.247,1.323,0.832,1.816,0.585,0.494,0.585,1.51,0.4,1.973-0.184,0.461-1.047,0.399-1.232,0.185-0.185-0.216-0.554-0.277-0.801,0-0.25,0.28-0.5,0.44,0.09,1.05z"/><path fill="#D4AF3A" d="M298.54,156.5s-0.339-0.276-0.462-0.43c-0.123-0.156-0.37-0.495-0.37-0.495s-0.062,0.154-0.062,0.524,0.4,0.771,0.4,0.771l0.49-0.37z"/><path fill="#D4AF3A" d="M299.83,152.22c0.278-0.123,0.493-0.186,0.278-0.493-0.216-0.308-0.401-0.647-0.617-0.709-0.216-0.061-0.4-0.03-0.4-0.03s0.246,0.555,0.307,0.894c0.06,0.34,0.16,0.46,0.43,0.34z"/><path fill="#D4AF3A" d="M301.44,150.92c-0.031,0.277,0.031,0.401,0.277,0.277,0.247-0.124,0.339-0.462,0.215-0.709-0.123-0.246-0.4-0.43-0.4-0.43l-0.185-0.125c-0.02,0,0.11,0.71,0.08,0.98z"/><path fill="#D4AF3A" d="M303.74,151.29c0.03-0.308-0.093-0.646-0.093-0.646s0,0.369-0.154,0.586c-0.154,0.215-0.123,0.154,0.031,0.339,0.15,0.19,0.18,0.03,0.21-0.28z"/><path fill="#D4AF3A" d="M307.36,166.95c0.453,1.05,1.604-0.595,2.65-1.925,1.045-1.329,1.011-0.313,0.871,0.77-0.139,1.085,0.279,2.24,0.698,2.975,0.418,0.732,0.767,0.313,0.94-0.212,0.175-0.522,0.314-1.607,0.663-2.132s0.697-0.07,0.732,0.384,0.592,1.47,1.115,2.063c0.522,0.596,0.767-0.209,0.941-0.943s0.383-1.854,0.523-2.31c0.139-0.454,0.627-0.069,0.627-0.069s0.35,0.35,1.047,1.014c0.695,0.666,0.766-0.385,0.836-0.907,0.069-0.526-0.105-1.68,0.104-1.856,0.209-0.174,0.801,0.246,1.709,0.702,0.906,0.453,0.872-0.421,0.768-0.911-0.106-0.488-0.627-1.608-1.36-2.237-0.732-0.63-0.836-1.364-0.592-1.68,0.243-0.313,1.115-0.035,1.672-0.104,0.559-0.07,0.838-0.139,1.256-0.208,0.418-0.071,0.418-0.491,0.418-0.491s-0.313-0.524-0.906-1.048c-0.594-0.526-0.94-0.944-1.673-1.12-0.733-0.175-1.743,0-1.743,0s0,0-0.105-0.21c-0.104-0.209-0.313-0.209-0.453,0-0.14,0.21-0.488,0.49-0.768,0.734-0.278,0.245-0.453,0.385-0.627,0.279-0.175-0.104,0.139-0.35,0.139-0.35s0.384-0.278,0.733-0.979c0.348-0.7,0.453-1.365,0.174-1.679-0.279-0.316-1.046,0-1.464,0-0.419,0-0.663,0.069-0.697-0.14-0.036-0.21,0.418-0.104,0.941-0.176,0.524-0.069,0.837-0.699,1.011-1.224s0.314-0.455,0.628-0.14c0.313,0.315,0.594,0.245,0.662,0.034,0.068-0.21,0.349-0.733,0.697-1.259,0.349-0.524,0.558-1.258,0.174-1.747-0.384-0.49-1.325-0.422-1.708-0.104-0.383,0.313-0.627,0.628-0.731,1.397-0.105,0.77-0.314,0.349-0.314,0.104s-0.314-0.63-0.175-0.944c0.14-0.313,0-0.665,0-0.665s-0.069-0.663-0.802-0.804-1.569,0.035-2.301,0.21-0.593,0.806-0.593,0.806-0.558,0.033-1.151,0.104c-0.592,0.069-1.29,0.313-1.848,0.453-0.557,0.141-0.767,0.21-0.767,0.489,0,0.281,0.105,0.736,0.105,0.736s0.453,0,0.697,0.139c0.244,0.141,0.104,0.385-0.175,0.49-0.278,0.106-0.383,0.14-0.383,0.489,0,0.351,0.14,0.421,0.418,0.421s0.872,0,1.569,0.313c0.698,0.314,0.872,0.943,0.802,1.293-0.07,0.351-1.047,0.805-1.535,0.805s-0.627,0.106-0.627,0.42c0,0.315,0.593,0.281,0.593,0.281s0.592,0.034,1.743,0.173c1.151,0.141,1.325,0.386,1.849,0.84,0.522,0.455,0.139,0.56-0.105,0.699-0.244,0.141-0.628,0.455-1.011,0.596-0.384,0.139-0.628,0.42-0.977,0.488-0.349,0.07-1.221,0.036-2.824,0.666-1.604,0.629-2.162,2.729-2.162,2.729s0.209-0.071,0.941-0.457c0.732-0.384,1.639-0.804,2.476-1.328,0.836-0.523,0.836,0.246,0.418,0.979-0.418,0.734,0.384,0.594,0.628,0.385,0.244-0.211,0.558-0.42,1.359-0.84,0.803-0.419,0.523,0.245,0.523,0.245s-0.244,0.489-0.313,1.645c-0.07,1.154,1.15,0.069,1.708-0.665s0.802,0,0.383,0.84c-0.418,0.84-1.22,1.503-1.673,1.503-0.454,0-0.802-0.489-0.837-0.769s0.14-1.12-0.139-1.329c-0.28-0.209-1.082,0.035-1.674,0.384-0.593,0.35-0.733,0.071-0.872-0.244-0.14-0.315,0.209-0.42,0.07-0.629-0.14-0.211-0.453,0-0.698,0.104-0.244,0.104-0.802,0.42-1.882,0.979-1.082,0.559-1.011,0.873-1.011,1.678s0.2,0.99,0.65,2.04z"/><path fill="#D4AF3A" d="M317.82,149.44c0.227-0.144,0.639-0.309,0.639-0.309s0.515-0.123,0.988-0.186c0.473-0.062,0.391-0.33,0.287-0.555-0.102-0.229-0.287-0.31-0.903-0.31-0.619,0-1.011,0.31-1.36,0.452-0.351,0.145-0.762,0.248-0.762,0.248s0.083,0.103,0.309,0.433c0.22,0.35,0.57,0.39,0.79,0.24z"/><path fill="#D4AF3A" d="M320.34,151.94c0.247,0,0.515-0.145,0.515-0.145s0.451-0.227,0.865-0.37c0.411-0.145,0.576-0.207,0.822-0.701,0.247-0.494-0.268-0.494-0.987-0.678-0.721-0.188-1.071,0.06-1.152,0.328-0.084,0.268-0.063,0.576-0.351,1.092-0.29,0.51,0.04,0.47,0.29,0.47z"/><path fill="#D4AF3A" d="M320.11,152.57c-0.699,0-1.481,1.05-1.77,1.235s-0.124,0.37-0.124,0.37,0.206,0.433,0.287,0.844c0.084,0.413,0.104,1.113,0.104,1.113s0.103,0.042,0.514,0.042c0.413,0,0.659-0.207,1.051-0.495s0.7-0.392,1.256-0.495c0.557-0.102,0.823-0.205,1.44-0.534,0.619-0.329-0.329-0.906-0.987-1.441-0.66-0.51-1.07-0.62-1.77-0.62z"/><path fill="#D4AF3A" d="M310.8,154.99c0.554-0.062,0.801-0.338,0.801-0.646s-0.28-0.647-0.986-0.585c-1.735,0.154-3.417-0.468-3.727-2.187,0,0-0.585,1.076,0.493,2.279,1.09,1.2,2.87,1.2,3.43,1.14z"/><path fill="#D4AF3A" d="M304.89,182.31c0.088,0.153,0.196,0.248,0.306,0.305h2.658c0.453-0.127,0.456-0.544,0.478-0.832,0.026-0.343,0.289-1.317,0.657-3.084,0.368-1.765,0.999-3.028,1.261-3.74s-0.263-0.948-0.447-1.397c-0.184-0.447-0.473-1.237-0.552-1.632-0.079-0.396-0.709-0.343-1.051-0.317s-0.395,0.58-0.447,1.107c-0.052,0.525-0.289,2.081-0.551,3.425-0.263,1.344-1.787,3.136-2.207,3.53-0.421,0.396-0.762,0.554-1.051,0.554s-0.919,0-1.235,0.185c-0.314,0.185-0.629,0.686-0.656,1.079-0.026,0.396,0.605,0.607,0.605,0.607s0.499-0.29,0.683-0.527c0.184-0.237,0.604-0.29,1.024-0.368,0.42-0.079,0.473,0.078,0.315,0.288-0.16,0.2-0.11,0.25,0.21,0.81z"/><path fill="#D4AF3A" d="M300.82,182.17c-0.201,0.071-0.348,0.271-0.439,0.437h1.737c-0.021-0.142-0.068-0.311-0.168-0.437-0.21-0.26-0.77-0.13-1.13,0z"/><path fill="#D4AF3A" d="M303.18,182.12c-0.212,0.115-0.468,0.303-0.598,0.489h1.87c0.066-0.174,0.087-0.407-0.142-0.594-0.42-0.35-0.84-0.06-1.13,0.1z"/><path fill="#D4AF3A" d="M319.4,181.35c-0.204,0-0.385,0.182-0.679,0.385-0.293,0.204-0.383,0.521-0.428,0.771-0.008,0.044-0.003,0.079,0.011,0.108h0.794c0.031-0.028,0.053-0.064,0.053-0.108,0-0.228,0.09-0.432,0.43-0.726,0.35-0.3,0.03-0.43-0.17-0.43z"/><path fill="#D4AF3A" d="M320.96,182.21c0-0.248-0.091-0.475-0.271-0.452s-0.474,0.34-0.722,0.521c-0.138,0.101-0.241,0.235-0.317,0.336h1.174c0.07-0.14,0.14-0.29,0.14-0.41z"/><path fill="#D4AF3A" d="M328.18,173.58c0.563-0.408,0.474-0.521,0.495-0.951,0.022-0.431,0.022-0.566-0.203-0.724-0.226-0.16-1.06-0.521-1.85-0.521s-2.281,0.181-2.845,0.565c-0.565,0.386-0.836,1.767-0.836,2.49s0.113,0.838,0.316,0.838,0.542-0.521,0.542-0.521,0.744,0.974,1.196,1.654c0.452,0.679,0.248,0.95,0.047,1.47-0.204,0.521-0.948,1.902-1.535,2.197-0.589,0.295-1.04,0.021-1.739-0.09-0.699-0.114-1.084,0.09-1.49,0.497s-0.021,0.726,0.226,0.726c0.249,0,0.587-0.023,0.858,0.316,0.188,0.235,0.061,0.772-0.034,1.082h3.459c0.59-0.262,0.997-1.072,1.156-1.514,0.182-0.497,0.926-1.153,1.288-1.492,0.36-0.341,0.406-0.567,0.406-1.314s-0.203-1.177-0.476-1.697c-0.271-0.521-0.474-1.269-0.384-1.698,0.06-0.46,0.81-0.93,1.37-1.34z"/><path fill="#D4AF3A" d="M322.49,164.95c0.346,0.562,0.174,0.669-0.323,0.776-0.495,0.108-1.033,0.194-1.811,0.13-0.775-0.065-0.755,0.043-0.775,0.432-0.021,0.388-0.088,1.208-0.54,1.811-0.453,0.604-1.014,0.367-1.359,0.13s-0.539-0.174-0.668,0.258-0.367,0.734-0.733,1.38c-0.367,0.647-0.604,0.669-0.863,0.604s-0.496-0.453-0.755-0.475-0.669-0.538-1.057-1.165c-0.388-0.624-0.582,0.064-0.84,0.605-0.26,0.538-0.517,0.928-1.014,0.861-0.496-0.063-1.056-0.991-1.336-1.552-0.281-0.562-0.453-1.1-0.884-1.079-0.431,0.022-1.143,0.928-1.618,1.164-0.475,0.238-0.604,0.152-0.819-0.149-0.215-0.302-0.496,0.108-0.776,0.819-0.28,0.712,0.022,1.314,0.41,1.509,0.388,0.194,1.164-0.367,1.682-0.712,0.517-0.344,0.754-0.258,1.294-0.258,0.539,0,0.496,0.885,0.733,2.177,0.237,1.294,0.992,1.467,0.992,1.467s0.259,0.216,0.841-0.775c0.582-0.992,0.646-1.963,1.208-1.963,0.56,0,0.604,0.129,1.164,0.905,0.561,0.776,1.035,1.358,1.358,0.776,0.323-0.583,0.604-1.445,0.971-1.746,0.366-0.303,0.711-0.389,0.323,0.172-0.389,0.561-0.561,1.164,0.237,0.928s3.838-1.467,5.067-1.703c0,0,1.444-0.237,3.105-0.323,1.66-0.088,2.069-0.195,2.717-0.195,0.646,0,0.668-0.065,0.712-0.496,0.042-0.432-0.302-0.345-1.51-0.345-1.207,0-2.049,0.151-2.89,0.281-0.841,0.129-1.228,0.107-1.079-0.108,0.152-0.216,0.389-0.367,1.36-0.517,0.969-0.151,2.954-0.26,3.989-0.281,1.034-0.021,0.711,0.302,0.624,0.992-0.087,0.689,0.087,1.704,0.152,2.351,0.063,0.646,0.085,0.841,0.646,1.746s2.5,1.467,3.062,1.769c0.561,0.302,0.475,0,0.453-0.54-0.022-0.538,0.431-0.517,0.927-0.237,0.495,0.282,1.315,0.519,1.897,0.67,0.582,0.149,0.668,0.258,0.668,0.56s0.065,0.971,0.131,1.597c0.063,0.625,0.042,0.818-0.217,1.207s-1.358,1.508-1.358,1.508-0.496,0-1.553,0.261c-1.057,0.259-1.381,0.755-1.488,1.186s0.195,0.561,0.238,0.733c0.023,0.095,0.014,0.328,0.001,0.518h0.244c0.089-0.151,0.215-0.349,0.379-0.562,0.368-0.474,1.296-0.582,1.898-0.302,0.396,0.185,0.401,0.599,0.359,0.863h2.415c0.326-0.629,1.099-2.133,1.302-2.589,0.258-0.581,0.409-0.948,0.431-1.746s0.107-3.881-0.043-4.054c-0.151-0.173,0.043-0.69,0-1.553-0.044-0.862,0-1.51-1.596-1.66-1.597-0.151-2.092-0.818-2.631-1.359-0.541-0.538-0.41-1.789-0.84-3.298-0.432-1.509-1.488-1.747-3.364-2.114-1.877-0.365-3.257-0.409-4.658-0.279s-3.147,0.324-4.118,0.236c-0.95-0.12-0.8,0.16-0.45,0.72z"/><path fill="#D4AF3A" d="M331.55,182.27c-0.164,0.106-0.273,0.232-0.346,0.342h1.63c0.008-0.14-0.015-0.297-0.16-0.472-0.24-0.3-0.72-0.13-1.12,0.13z"/><path fill="#D4AF3A" d="M334.47,182.16c-0.265,0.134-0.436,0.306-0.541,0.452h1.653c0.006-0.063,0.004-0.129-0.009-0.191-0.05-0.26-0.55-0.54-1.1-0.26z"/><path fill="#D4AF3A" d="M293.75,183.19c0.092,0.512,0.212,1.031,0.361,1.553h51.785c0.149-0.521,0.27-1.041,0.36-1.553h-52.506z"/><path fill="#D4AF3A" d="M328.65,158.45c1.636,1.089,6.83,1.147,9.269,1.636,2.439,0.487,2.269,2.353,1.521,3.328-0.746,0.977-4.177,1.094-4.792,1.176,0.332,0.23,0.832,0.947,0.832,0.947s0.374-0.027,1.406-0.115c1.032-0.085,2.841-0.343,4.075-1.377,1.234-1.032,1.147-2.696,0.058-3.815-1.091-1.12-2.899-1.234-4.736-1.435-1.836-0.201-3.271-0.345-5.337-0.689-2.065-0.344-3.07-1.176-3.07-2.382,0-1.205,1.12-1.836,1.923-2.066,0.803-0.229,2.094-0.572,3.242-0.144,1.148,0.431,2.497,0.487,4.764,0.202,2.268-0.288,2.784-1.866,2.784-1.866s-0.288,0.144-1.435,0.172c-1.148,0.028-1.981-0.487-4.074-0.518-2.097-0.028-2.843,0.72-3.818,1.063-0.976,0.345-3.586,0.604-4.361,2.296-0.77,1.7,0.12,2.5,1.76,3.59z"/><ellipse rx="0.977" ry="0.962" cy="150.64" cx="315.04" fill="#B96B29"/><path fill="#B96B29" d="M336.02,152.28c-1.293-0.114-2.986,0.229-2.986,0.229s0.315,0.259,0.746,0.23c0.43-0.029,1.206-0.058,2.468,0.171,1.263,0.231,2.181-0.373,2.181-0.373s-1.12-0.14-2.41-0.26z"/><path fill="#1D5E91" d="M323.74,176.38c-0.316-0.498-0.407-0.452-0.77-0.135-0.361,0.316-0.725-0.771-0.77-1.449-0.045-0.677,0.271-2.759,0.271-2.759s-1.765,0.362-2.714,0.678c-0.949,0.317-1.854,0.408-2.623,0.59s-1.176,0.36-1.583,0.271c-0.407-0.09-1.267-0.136-1.945-0.136s-0.632,0.136-1.312,0.814c-0.678,0.677-0.859,1.039-1.402,2.307-0.543,1.265-0.724,2.441-0.904,3.979-0.119,1.007-0.314,1.702-0.436,2.064h8.108c0.097-0.26,0.223-0.587,0.333-0.829,0.212-0.468,0.658-0.765,0.977-0.914s0.596-0.149,0.743-0.508c0.148-0.362,0.553-0.66,0.978-0.851s1.168-0.085,1.849,0.106c0.679,0.19,0.913-0.276,1.103-0.531,0.191-0.255,0.277-0.616,0.639-1.082,0.361-0.469,0.09-0.894,0.09-0.894s-0.33-0.22-0.65-0.72z"/><path fill="#1D5E91" d="M336.75,176.6c-0.105-0.468-0.063-0.53-0.34-0.596-0.276-0.064-0.743-0.148-1.146-0.317-0.403-0.17-0.361,0.913-0.361,0.913s-0.957,0.104-2.039-0.021c-1.083-0.128-2.357-1.104-2.804-1.424-0.445-0.318-0.935-1.04-0.935-1.04s-0.34,0.318-0.68,0.51-0.531,0.871-0.594,1.551c-0.064,0.68,0.786,1.507,0.849,2.187,0.064,0.681-0.743,2.04-1.147,2.592-0.275,0.379-0.632,1.186-0.829,1.657h3.914c0.082-0.201,0.216-0.455,0.42-0.658,0.402-0.404,1.084-0.489,1.084-0.489s0-0.17,0.148-0.53c0.147-0.361,0.552-0.786,1.528-1.169,0.978-0.382,2.146-0.446,2.146-0.446s0.466-0.382,0.807-0.913c0.34-0.53,0.09-1.33-0.02-1.8z"/></g><g><path fill="#D4AF3A" d="M304.15,219.77c0.729,0.243,2.091-0.291,2.772-1.118,0.68-0.827,0.924-2.093,1.41-2.821,0.486-0.73,0.839-1.271,0.839-1.271s-0.104,1.202-0.749,2.813c-0.615,1.536-0.722,3.637-0.576,4.537,0.292,1.799,1.459,2.091,2.14,1.847,0.517-0.184,1.3-0.981,2.019-2.177,0.227-0.379,0.386-0.903,0.608-1.324,0.462-0.875,0.875-2.309,1.079-2.269,0.45,0.088,0.162,1.101-0.008,1.782-0.341,1.361-1.021,3.356-1.07,4.572s0.098,3.404,1.313,3.502c1.216,0.097,1.848-0.974,2.528-3.454,0.681-2.479,0.828-3.259,1.119-3.259,0.292,0,0.292,1.702,0.292,2.432,0,0.251,0.01,0.942,0.109,1.637,0.189,1.329,0.577,2.925,0.961,3.276,0.583,0.535,1.07,0.437,1.07,0.437s0.485,0.099,1.07-0.437c0.583-0.535,1.069-4.184,1.069-4.913s0-2.432,0.291-2.432c0.294,0,0.438,0.779,1.119,3.259,0.682,2.48,1.313,3.551,2.529,3.454,1.216-0.098,1.363-2.286,1.314-3.502s-0.729-3.211-1.071-4.572c-0.341-1.362,0.146-1.265,1.071,0.486,0.288,0.547,0.587,1.217,0.88,1.685,0.648,1.031,1.278,1.649,1.746,1.816,0.68,0.244,1.848-0.048,2.14-1.847,0.292-1.801-1.07-6.956-1.07-6.956s0.098,0.146,0.584,0.876c0.486,0.729,0.729,1.994,1.411,2.821,0.68,0.827,2.043,1.361,2.772,1.118s0.827-1.606,0.291-4.038c-0.535-2.432-2.724-3.793-4.28-5.739-1.432-1.788-2.535-4.936-2.701-5.429-1.959,0.97-3.677,2.071-5.229,3.692-3.219,3.358-3.918,4.197-3.918,4.197s-0.7-0.839-3.918-4.197c-1.563-1.631-3.291-2.734-5.265-3.709-0.182,0.415-1.52,3.421-2.966,5.23-0.719,0.899-1.71,1.578-2.414,2.441-0.818,1.003-1.316,2.206-1.604,3.513-0.52,2.42-0.42,3.78,0.31,4.03z"/><path fill="#D4AF3A" d="M304.06,228.01c0.942-0.829,1.427-1.286,1.427-1.286s0.685-0.57,0.514,0.515c-0.172,1.084-0.543,3.311-0.314,4.28,0.228,0.971,0.342,1.798,1.541,1.084,1.199-0.713,1.484-1.142,2.055-1.74,0.57-0.6,1.17-0.855,1.027,0.086-0.144,0.941-0.571,2.368-0.371,4.28,0.2,1.911,1.142,2.196,2.368,0.57,1.228-1.626,1.969-3.109,2.34-3.909,0.371-0.799,1.113-1.483,1.113,0,0,3.192,0.732,7.835,4.251,9.074,3.521-1.239,4.253-5.882,4.253-9.074,0-1.483,0.74-0.799,1.11,0,0.372,0.8,1.113,2.283,2.341,3.909,1.227,1.626,2.169,1.341,2.368-0.57,0.199-1.912-0.229-3.339-0.371-4.28s0.457-0.686,1.028-0.086c0.57,0.599,0.854,1.027,2.054,1.74,1.199,0.714,1.313-0.113,1.541-1.084,0.228-0.97-0.143-3.196-0.313-4.28-0.172-1.085,0.513-0.515,0.513-0.515s0.485,0.457,1.428,1.286c0.94,0.827,2.233,0.877,2.233,0.877s0.605-3.351-0.791-5.352-1.909-2.652-1.909-2.652-0.79-0.046-1.395-0.278c-0.604-0.233-1.192-0.67-1.192-0.67s0,1.027,0,1.368v0.486s1.711,1.626,2.111,2.111c0.398,0.483,1.198,1.312,0.029,0.513-1.17-0.799-2.141-1.598-2.141-1.598s-0.229,1.684-0.714,2.112c-0.484,0.427-1.17,0.483-1.454,0.37-0.285-0.115-0.285-0.115-0.285-0.115l-0.086,0.658s1.055,1.969,1.197,2.768c0.144,0.799-0.086,0.712-0.57-0.315-0.485-1.025-1.426-2.339-1.854-3.052s-1.056-1.199-0.999-0.285c0.058,0.913-0.313,2.567-0.628,3.166-0.313,0.6-0.513,0.799-0.513,0.799s0.655,2.313,0.741,2.74c0.087,0.428,0.028,0.913-0.342,0.37-0.371-0.542-1.428-2.824-1.428-2.824s-1.398-0.057-1.797-0.457c-0.399-0.4-1.027-1.938-1.027-1.938s-0.572,1.964-1.046,2.595c-0.473,0.63-1.575,1.259-1.575,1.259s-0.079,3.416-0.156,4.02c-0.08,0.604-0.105,0.866-0.361,0.866-0.255,0-0.282-0.263-0.361-0.866-0.077-0.604-0.156-4.02-0.156-4.02s-1.104-0.629-1.577-1.259c-0.472-0.631-1.045-2.595-1.045-2.595s-0.627,1.538-1.027,1.938c-0.399,0.4-1.797,0.457-1.797,0.457s-1.056,2.282-1.427,2.824c-0.371,0.543-0.428,0.058-0.342-0.37s0.742-2.74,0.742-2.74-0.2-0.199-0.514-0.799c-0.314-0.599-0.685-2.253-0.627-3.166,0.056-0.914-0.572-0.428-1,0.285s-1.369,2.026-1.854,3.052c-0.485,1.027-0.713,1.114-0.57,0.315s1.198-2.768,1.198-2.768l-0.085-0.658-0.285,0.115c-0.286,0.113-0.97,0.057-1.456-0.37-0.485-0.429-0.713-2.112-0.713-2.112s-0.97,0.799-2.14,1.598c-1.17,0.799-0.371-0.029,0.029-0.513,0.399-0.485,2.11-2.111,2.11-2.111s0-0.144,0-0.486v-1.368s-0.586,0.437-1.191,0.67c-0.605,0.232-1.396,0.278-1.396,0.278s-0.512,0.651-1.908,2.652c-1.396,2.001-0.791,5.352-0.791,5.352s1.3-0.04,2.24-0.86z"/><path fill="#D4AF3A" d="M321.23,250.32c-0.902-1.055-1.203-1.58-1.203-1.58s-0.301,0.525-1.202,1.58c-0.904,1.053-3.01,2.708-3.01,2.708s0.188,2.784,1.204,4.287c0.856,1.27,1.675,2.43,3.008,3.311,1.333-0.881,2.153-2.041,3.009-3.311,1.017-1.503,1.204-4.287,1.204-4.287s-2.11-1.66-3.01-2.71z"/><path fill="#B96B29" d="M319.57,253.73c0.083,0.646,0.028,2.279,0.421,2.279s0.336-1.634,0.421-2.279c0.083-0.646,0.111-2.195,0.111-2.195h-1.067c0.01-0.01,0.04,1.54,0.12,2.19z"/><path fill="#D4AF3A" d="M319.98,100.87c-3.766,0.064-8.184-0.456-10.615-1.361-0.864,0.191-1.728,0.381-2.592,0.571,4.007,1.509,7.355,2.094,13.207,2.153,5.853-0.059,9.2-0.644,13.206-2.153-0.864-0.19-1.729-0.38-2.593-0.571-2.43,0.901-6.85,1.421-10.62,1.361z"/><path fill="#D4AF3A" d="M333.68,97.727c-0.299-0.249-2.013-1.471-2.46-1.694-0.447-0.225-0.099-0.822-0.024-1.071,0.074-0.25,2.012-0.798,3.081-1.072,1.067-0.274,0.894-0.499,0.894-0.499s-0.622-0.723-4.498-1.146c-3.874-0.423-10.68-0.324-10.68-0.324s-6.807-0.1-10.683,0.324c-3.875,0.423-4.496,1.146-4.496,1.146s-0.174,0.225,0.895,0.499c1.068,0.274,3.005,0.822,3.08,1.072,0.075,0.249,0.423,0.847-0.024,1.071-0.447,0.223-2.162,1.445-2.459,1.694-0.298,0.25-0.323,0.648,0.149,0.673,0.472,0.024,0.48,0.017,1.813-0.25,3.988-0.793,7.742-1.015,11.727-1.07,3.983,0.055,7.736,0.277,11.726,1.07,1.332,0.266,1.34,0.274,1.813,0.25,0.47-0.025,0.45-0.423,0.15-0.673z"/><path fill="#D4AF3A" d="M329.27,99.373c-2.659-0.315-4.347-0.659-9.27-0.615-4.922,0.043-6.609,0.3-9.27,0.615,1.675,0.672,4.384,1.01,9.27,1.01,4.89,0,7.6-0.34,9.27-1.007z"/><polygon points="319.18,62.889,321.21,62.725,321.02,60.951,323.2,61.254,323.29,59.503,321,59.714,321.4,57.823,318.88,57.8,319.32,59.714,317.1,59.503,317.1,61.254,319.3,60.998" fill="#D4AF3A"/><path fill="#D4AF3A" d="M323.61,65.76h-2.726v-2.325c-0.26-0.053-0.528-0.079-0.805-0.079-0.244,0-0.481,0.021-0.712,0.063v2.342h-2.82c-0.095,0.295-0.146,0.61-0.146,0.935,0,0.133,0.009,0.265,0.026,0.396h7.301c0.018-0.131,0.026-0.263,0.026-0.396-0.01-0.326-0.07-0.64-0.16-0.936z"/><path fill="#1D5E91" d="M320.08,70.032c1.621,0,2.997-0.954,3.485-2.276h-6.972c0.49,1.323,1.87,2.276,3.49,2.276z"/><path fill="#1D5E91" d="M321.58,63.648v1.598h1.808c-0.37-0.706-1.01-1.275-1.81-1.598z"/><path fill="#1D5E91" d="M318.57,63.648c-0.791,0.323-1.434,0.892-1.809,1.598h1.809v-1.598z"/><path fill="#B96B29" d="M322.17,93.312c-0.688-0.325-2.188-0.966-2.188-0.966s-1.426,0.703-2.201,1.092c-0.775,0.388-0.675,0.275-0.913,0.84s0.024,0.765,0.362,0.915c0.338,0.151,2.79,1.406,2.79,1.406s2.426-1.129,3.013-1.406c0.589-0.275,0.478-0.551,0.314-0.979-0.16-0.425-0.49-0.575-1.17-0.902z"/><polygon points="317.64,94.027,320.04,95.249,322.41,94.027,319.98,92.889" fill="#D4AF3A"/><path fill="#D4AF3A" d="M319.98,84.648s-0.202,0.847-0.473,1.206c-0.271,0.36-0.476,0.681-0.398,1.119,0.078,0.437,0.578,0.729,0.871,0.729,0.292,0,0.793-0.292,0.87-0.729,0.079-0.438-0.126-0.759-0.397-1.119-0.26-0.359-0.47-1.206-0.47-1.206z"/><circle cy="88.56" cx="320" r="0.451" fill="#D4AF3A"/><path fill="#D4AF3A" d="M318.39,86.24s0.78-0.866,1.068-1.415c0.289-0.548,0.524-1.039,0.524-1.039s0.234,0.491,0.523,1.039c0.289,0.548,1.068,1.415,1.068,1.415s1.097-0.578,1.731-2.684c0.636-2.107-0.146-4.329-0.434-6.724s-0.52-6.521-0.52-6.521c-0.831,0.476-1.616,0.678-2.37,0.691-0.754-0.014-1.54-0.216-2.371-0.691,0,0-0.23,4.126-0.519,6.521-0.289,2.396-1.068,4.617-0.433,6.724,0.64,2.106,1.73,2.684,1.73,2.684z"/><ellipse rx="1.894" ry="1.828" cy="81.506" cx="319.98" fill="#B96B29"/><ellipse rx="1.822" ry="1.759" cy="77.22" cx="319.98" fill="#B96B29"/><ellipse rx="1.738" ry="1.677" cy="73.121" cx="319.98" fill="#B96B29"/><ellipse rx="1.004" ry="0.968" cy="81.178" cx="319.98" fill="#D4AF3A"/><ellipse rx="0.966" ry="0.931" cy="76.905" cx="319.98" fill="#D4AF3A"/><ellipse rx="0.847" ry="0.817" cy="72.82" cx="319.98" fill="#D4AF3A"/><path fill="#b96b29" d="m319.93,224.04c0.117,0.024,0.14-0.277,0.163-0.835,0.022-0.556,0.094-1.9,0.231-2.688,0.139-0.789-0.209-0.742-0.418-0.695-0.208,0.046-0.323,0.648-0.323,0.997,0,0.347,0.092,2.341,0.092,2.758s0.139,0.44,0.255,0.463z"/></g><g id="g4017"><path fill="#d4af3a" d="m300.28,239.41c0.841-0.534,1.571-1.126,3.478-2.392,1.907-1.267,2.608-2.673,2.608-2.673h-0.673c-0.365,0-0.673-0.507-0.701-1.013-0.029-0.507,0-1.547,0.14-2.757,0.14-1.209-0.196-2.194-0.196-2.194s-0.813,0.758-2.047,1.406c-1.234,0.647-1.74,0.337-1.74,0.337l-0.309-1.236s-0.532,1.126-1.29,2.446c-0.758,1.322-2.805,2.786-4.263,3.882-1.459,1.098-3.058,2.252-4.264,2.674-1.206,0.421-0.504,0.985-0.504,0.985s1.206,1.208,4.319,1.771,4.601-0.702,5.442-1.236z"/><path fill="#d4af3a" d="m311.17,238.2c-1.112-0.117-1.777-0.537-1.992-1.745-0.141-0.787,0.057-3.798,0.057-3.798s-0.365,0.309-0.786,0.817c-0.421,0.505-1.375,0.618-1.375,0.618s-0.14,0.422-0.561,1.096c-0.421,0.677-0.954,1.493-2.02,2.167-1.065,0.676-2.299,1.464-3.113,2.139-0.814,0.676-1.767,1.464-2.833,2.054-1.066,0.591-2.02,1.548-2.385,3.122-0.364,1.575-0.083,2.082,1.15,1.998,1.234-0.085,1.375,0.028,3.366-0.479,1.992-0.506,4.824-2.728,6.899-4.05,2.079-1.323,3.593-3.939,3.593-3.939z"/><path fill="#d4af3a" d="m316.69,240.02s-0.842-1.067-1.15-2.279c-0.309-1.209-0.897-3.6-0.897-3.6s-0.281,0.76-0.954,2.192c-0.674,1.436-1.823,1.774-1.823,1.774s-0.057,0.618-1.01,1.828c-0.954,1.209-2.355,2.334-3.787,3.18-1.431,0.842-3.282,1.998-4.292,3.432-1.009,1.435-1.094,2.925-0.616,3.572,0.477,0.646,1.149-0.085,2.103-0.563s3.675-0.9,7.433-2.926c3.758-2.025,4.993-6.61,4.993-6.61z"/><path fill="#d4af3a" d="m318.32,248.44c1.038-1.547,1.207-5.315,1.207-5.315s-0.364-0.253-0.87-0.677c-0.504-0.422-1.486-1.912-1.486-1.912s-0.617,1.293-1.29,2.503c-0.673,1.211-1.011,1.632-2.413,2.926-1.402,1.295-3.31,2.561-4.124,3.939-0.813,1.378-0.364,4.135,0.169,5.063,0.533,0.93,1.29,0.618,2.075-0.14,0.786-0.759,1.038-0.956,2.412-2.138s3.283-2.702,4.32-4.249z"/><path fill="#b96b29" d="m305.98,216.89c0.552-1.128,1.176-2.496,1.68-3.19,0.503-0.697,0.863-1.489,0.863-1.489s-1.344,1.224-1.872,2.088c-0.527,0.863-0.863,1.703-1.104,2.64-0.238,0.935-0.119,1.078,0.433-0.049z"/><path fill="#b96b29" d="m311.31,217.85c0.216-0.745,0.337-1.24,0.337-1.24s0.217-0.72,0.097-0.768c-0.12-0.049-0.673,0.447-1.057,1.67-0.385,1.225-0.96,2.999-0.84,3.071,0.119,0.073,1.247-1.989,1.463-2.733z"/><path fill="#b96b29" d="m315.51,221.23c0.24-0.527,0.24-0.551,0.24-0.551s0.432-1.392,0.432-1.68c0-0.287-0.144-0.623-0.503,0.096-0.361,0.721-0.384,1.415-0.457,1.728-0.071,0.312-0.479,1.392-0.36,1.488,0.12,0.096,0.408-0.551,0.648-1.081z"/><path fill="#b96b29" d="m302.47,234.03-0.562-0.338s-0.336,0.451-0.813,0.957c-0.477,0.505-1.011,0.703-1.375,1.182-0.364,0.478-0.926,1.069-1.795,1.519s-1.206,0.591-1.037,0.732c0.168,0.141,0.757-0.197,0.757-0.197s0.252-0.029,1.29-0.647,1.29-0.956,1.963-1.547,1.572-1.661,1.572-1.661z"/><path fill="#b96b29" d="m307.02,239.41c0.393-0.422,0.813-0.704,0.589-0.93-0.225-0.224-0.505-0.196-0.87,0.113-0.364,0.31-1.402,1.293-1.879,1.716-0.477,0.422-0.869,0.676-1.346,1.041-0.477,0.366-1.515,0.928-2.019,1.209-0.505,0.282-0.028,0.312-0.028,0.312s0.393-0.199,0.813-0.34c0.42-0.14,1.626-0.675,1.626-0.675s0.477-0.225,1.122-0.675c0.645-0.449,1.599-1.35,1.992-1.771z"/><path fill="#b96b29" d="m312.26,243.04c0.336-0.674-0.028-0.479-0.589-0.252-0.561,0.225-1.823,1.604-2.552,2.109s-1.347,0.703-1.963,1.014c-0.617,0.309-0.617,0.477-0.588,0.618,0.027,0.141,0.279,0.141,0.532,0.028,0.253-0.112,1.122-0.619,1.122-0.619s0.365-0.111,0.702-0.141c0.337-0.028,0.813-0.396,1.571-1.041,0.755-0.647,1.428-1.039,1.765-1.716z"/><path fill="#b96b29" d="m314.7,247.85c-0.926,0.563-2.524,1.828-2.945,2.673-0.422,0.845-0.702,1.435-0.562,1.575,0.14,0.141,0.589-0.141,0.786-0.479,0.196-0.337,0.617-0.844,0.617-0.844s1.598-1.574,2.187-1.94,1.543-1.406,1.768-2.025c0.224-0.62,0.056-0.956,0.056-0.956s-0.982,1.433-1.907,1.996z"/><path fill="#c52126" d="m289.99,113.28c-0.848-0.498-3.128-1.473-5.556-1.679-2.426-0.205-4.302,0.16-6.316,0.704-1.443,0.39-2.612,0.45-3.768,0.14-1.737-0.463-3.084-2.031-3.542-3.952,0,0-1.602,2.054,0.036,4.283,0.787,1.072,1.812,1.742,2.856,1.953,3.399,0.685,6.733-1.39,9.564-1.571,2.719-0.177,4.854,1.547,4.854,1.547s0.643,0.534,1.549,0.007c0.908-0.53,1.171-0.934,0.323-1.432z"/><path fill="#d4af3a" d="m280.2,211.66s-0.334-0.033-0.802-0.101c-0.468-0.067-1.471-0.402-1.772-0.537-0.301-0.133-0.769-0.167-1.07,0.168-0.301,0.336-2.742,1.777-2.742,1.777h4.046c1.404,0,2.34-1.307,2.34-1.307z"/><path fill="#d4af3a" d="m291.59,210.97v-0.404l-0.539-1.161s-0.629,0.395-1.242,1.029c-0.789,0.819-1.638,1.97-2.017,2.456-0.674,0.863-1.616,1.675-0.808,0.296,0.808-1.378,1.077-1.972,1.723-2.891,0.647-0.918,1.132-1.323,1.052-1.378-0.081-0.054-0.594-0.134-2.291-0.35-1.696-0.218-2.747-0.865-3.528-1.325-0.781-0.459-2.182-1.215-2.182-1.215s-2.882,1.215-3.96,1.485-1.724,0.432-0.674,0.946c1.051,0.513,1.939,0.675,2.451,0.998,0.511,0.326,2.101,0.838,3.071,0.838,0.969,0,2.612,0.026,1.966,0.702-0.646,0.677-1.374,1.974-2.074,3.944-0.7,1.974-0.727,3.729-0.727,4.594s0.107,1.728,0.107,1.728,1.185-1.322,4.364-3.321c3.178-2,4.363-2.675,4.956-2.946,0.592-0.269,0.89-0.269,0.781-1.025-0.106-0.757-0.429-2.621-0.429-3z"/><path fill="#d4af3a" d="m303.73,201.31c-0.192-0.086-0.39-0.175-0.59-0.268-0.053,0.014-0.102,0.029-0.146,0.052-0.373,0.187-2.312,1.492-3.095,2.761-0.783,1.267-1.566,1.38-0.709,0,0.858-1.382,1.492-2.164,2.163-2.761,0.259-0.23,0.491-0.422,0.677-0.569-1.56-0.752-3.254-1.663-4.893-2.804-0.212,0.423-0.619,1.173-1.08,1.659-0.671,0.708-2.163,1.306-2.163,1.306s1.193-1.231,1.604-2.164c0.261-0.595,0.432-1.236,0.521-1.621-1.141-0.889-2.234-1.902-3.21-3.065-0.199,0.807-0.844,2.771-2.755,4.91-2.498,2.798-7.496,4.214-7.496,4.214s-1.752,0.187-0.335,0.56,2.424,1.007,5.184,0.521c2.759-0.483,2.945-0.596,3.318-0.706,0.373-0.113,1.38-0.038,0,0.484-1.379,0.521-4.587,1.005-5.817,0.895-1.231-0.111-2.909-0.373-1.156,0.56s2.499,1.305,3.58,1.305c1.082,0,1.529,0.336,2.574,0.336,1.044,0,1.341-0.187,2.088-0.336,0.746-0.148,1.23,0.111,1.23,0.41,0,0.298-1.006,1.118-0.969,3.17,0.037,2.051,0.186,3.394,0.372,3.988,0.188,0.599,0.635,1.567,0.933,2.128,0.298,0.559,0.411,1.117,0.708-0.075,0.298-1.194,0.969-2.909,1.231-4.064,0.261-1.156,0.41-1.193,0.522-1.79,0.111-0.597,0.746-1.044,0.447,0.037s-0.634,2.461-0.857,3.431c-0.225,0.97-0.746,2.759,0.148,1.342,0.895-1.416,4.251-5.183,4.81-5.854s1.007-1.306,1.417-1.864c0.41-0.56,1.566-1.306,2.126-2.126,0.506-0.742,1.988-2.187,2.624-2.704-0.949-0.403-1.95-0.825-3.006-1.298z"/><path fill="#d4af3a" d="m257.37,115.23c0.089,2.055,2.364,5.987,3.658,8.087,1.294,2.101,1.65,2.947,1.428,3.082-0.224,0.134-0.759-0.938-1.473-1.875-0.714-0.938-2.096-3.127-3.256-4.78s-2.855-5.584-3.078-5.942c-0.223-0.357-0.313-0.581-0.892-0.135-0.58,0.447-1.695,4.781-0.356,7.73,1.338,2.948,3.345,5.091,4.192,6.119,0.848,1.028,1.963,2.636,1.784,2.771-0.178,0.133-0.49-0.269-1.516-1.341s-2.722-2.904-3.836-4.244c-0.906-1.088-2.135-3.298-2.566-4.088-0.162-0.299-0.371-0.218-0.527-0.062-0.367,0.369-0.955,1.226-0.699,3.569,0.357,3.262,2.052,5.138,3.568,6.791,1.517,1.653,3.034,3.037,2.811,3.261s-1.784-1.162-2.855-2.189c-1.07-1.027-3.703-3.573-4.282-4.289-0.581-0.714-1.427-0.358-1.383,2.457s3.167,5.674,4.46,7.238c1.295,1.563,2.9,2.5,2.767,2.813-0.134,0.313-1.428-0.49-2.275-1.072-0.847-0.581-4.015-2.636-4.639-3.083-0.624-0.446-0.937,0.402-0.134,3.083,0.803,2.679,3.123,4.824,4.505,5.806,1.383,0.983,3.613,2.188,3.479,2.503-0.133,0.312-1.07-0.09-2.364-0.716-1.293-0.625-2.854-1.206-3.97-1.518-1.116-0.313-1.115,0.49-1.115,0.49s-0.224,2.278,1.427,4.11,3.524,2.547,5.308,2.858c1.784,0.313,2.052,0.403,2.007,0.672-0.044,0.268-0.223,0.312-0.624,0.312s-2.052,0.179-3.569,0.179-2.319,0.356-2.319,1.027-0.045,1.564,2.23,3.082c2.274,1.52,4.817,1.743,5.888,1.967,1.07,0.223,1.114,0.313,0.892,0.626-0.223,0.312-0.713,0.268-2.409,0.446-1.695,0.178-2.721,0.849-2.944,1.295-0.223,0.447,0.134,1.788,1.518,2.725,1.382,0.939,3.166,1.252,5.843,1.073,2.677-0.18,3.346-0.224,3.435,0.224,0.09,0.446-0.802,0.581-2.141,0.805-1.338,0.222-2.365,0.222-3.123,0.848-0.759,0.626-0.178,1.921,1.115,2.859s4.506,0.938,5.844,0.849,3.39-0.581,3.524-0.224-0.981,0.895-2.363,1.385c-1.384,0.493-1.786,0.804-2.052,1.386-0.269,0.58-0.045,1.116,1.605,1.741,1.65,0.626,4.059,0.626,5.308,0.045,1.25-0.58,1.918-0.805,2.142-0.58,0.222,0.225,0,0.447-0.268,0.76-0.267,0.313-1.338,1.161-2.721,1.519s-1.517,0.358-2.008,1.474c-0.49,1.117,0.758,2.012,3.256,2.102,2.499,0.088,5.844-0.894,6.915-1.521,1.071-0.626,1.472-0.759,1.65-0.535,0.178,0.223,0.134,0.357-0.401,0.758-0.536,0.404-2.231,1.609-3.078,1.833-0.847,0.223-0.937,0.848-0.937,1.429,0,0.58-0.223,1.742,2.007,2.279,2.231,0.536,4.862,0.135,7.271-1.564,0.776-0.546,1.227-0.997,1.481-1.388-0.195-2.281-0.092-3.849,0.182-5.295-0.473-0.05-1.37-0.186-2.288-0.555-1.338-0.535-1.873-1.786-2.186-2.457-0.313-0.67-0.758-0.67-1.294-0.492-0.536,0.181-1.071,0.403-1.829,0.359s-2.364-0.447-3.524-1.833c-1.16-1.385-0.938-2.724-0.982-3.396-0.045-0.67-1.115-0.178-1.65-0.178-0.536,0-2.097-0.224-3.523-1.206-1.428-0.983-1.428-2.323-1.562-2.86-0.134-0.535-0.714-0.892-1.16-1.072-0.445-0.178-1.16-0.356-2.142-1.161-0.981-0.804-1.337-2.367-1.382-2.903-0.044-0.536-0.625-0.581-2.632-1.608s-1.829-3.172-1.739-4.02c0.089-0.85,1.025-1.563,1.025-1.878,0-0.313-0.669-0.401-1.338-0.804-0.669-0.401-2.364-1.072-2.408-3.573-0.045-2.502,1.606-2.77,1.606-2.77s-0.313-0.135-0.982-0.536c-0.669-0.403-2.497-1.653-2.497-3.128,0-1.474,0.668-2.144,1.159-2.502,0.491-0.357,1.829-0.714,1.829-0.714s-0.848-0.537-1.205-1.698c-0.357-1.162-0.491-2.59,0.356-3.618,0.848-1.028,2.275-1.028,3.034-1.028s1.427,0.402,1.695,0.18c0.268-0.224,0.312-0.402,0.044-0.983-0.267-0.58-0.312-2.011-0.089-2.501,0.224-0.492,0.268-1.474,2.187-2.1,1.917-0.625,3.924,0.67,4.549,1.028s0.357-0.493,0.357-1.117c0-0.625-1.293-2.189-2.766-4.423-1.472-2.234-2.141-3.396-3.792-6.791s-2.722-7.773-2.944-8.89c-0.223-1.117-0.669-0.582-0.669-0.582s-0.446,0.18-1.472,2.77c-1.024,2.592-1.202,4.96-1.113,7.013z"/><path fill="#d4af3a" d="m291.02,160.92c-1.15-0.058-2.643-0.689-3.792-2.358-1.148-1.669-2.873-2.073-5.861-2.016-2.988,0.058-4.367-1.38-5.114-3.451-0.747-2.073,0.115-4.433,3.16-5.929s4.425-3.165,4.539-5.753c0.115-2.59-3.044-5.813-6.205-9.438s-5.631-8.748-5.631-8.748-0.919,1.209-0.919,2.417,0.459,2.474,0,2.819c-0.46,0.346-0.632-0.517-2.47-1.323-1.839-0.806-3.333-0.92-4.482,0.403s0,3.625,1.034,4.719c1.035,1.093,1.896,1.9,1.609,2.303s-1.839-0.633-2.356-0.979-1.724-1.668-3.505-1.496-2.414,0.69-2.586,2.187c-0.172,1.496,1.609,2.818,2.758,3.395,1.149,0.574,1.609,1.093,1.321,1.322-0.287,0.231-0.575,0-1.092-0.171-0.516-0.173-1.953-0.345-2.872,0-0.92,0.345-2.414,1.61-1.035,3.165,1.379,1.554,4.252,2.129,4.827,2.243,0.574,0.115,0.862-0.058,0.919,0.402,0.057,0.462-1.207,0.462-2.758,0.52s-2.011,1.553-1.781,2.704,2.815,2.416,4.251,2.647c1.438,0.23,1.954,0,2.069,0.402,0.116,0.402-0.172,0.575-0.977,0.806-0.804,0.229-2.356,0.403-2.644,1.669-0.287,1.266-0.344,1.841,0.863,2.936,1.207,1.093,3.161,0.92,3.735,0.805,0.575-0.114,1.265-0.749,1.839-0.172,0.574,0.574-0.518,1.035-1.495,1.726-0.977,0.692-0.919,2.015,0.747,2.936,1.666,0.922,3.333,0.574,4.022,0.345s1.609-1.323,2.068-0.633c0.46,0.69-1.436,0.921-2.241,1.899-0.804,0.977-0.517,2.588,1.092,3.566,1.609,0.979,4.252,0.288,4.712-0.114,0.459-0.402,1.033-0.574,1.378-0.229,0.344,0.343-0.172,1.264-0.517,2.07-0.344,0.806-0.977,3.165,1.437,4.086,2.414,0.92,4.597-1.151,4.999-1.555,0.402-0.402,0.804-0.46,1.149-0.287,0.344,0.174,0.173,0.518-0.115,0.921-0.287,0.402-0.919,2.128,0.804,3.338,1.177,0.825,2.461,0.764,3.157,0.644,0.359-1.348,0.826-2.788,1.302-4.805h-0.36c-0.23,0-0.276,0.345-0.276,0.483s0.069,0.253-0.139,0.253c-0.207,0-0.23,0.115-0.529,0.323-0.299,0.207-0.575,0.459-0.737,0.345-0.161-0.115,0.622-0.53,0.829-0.783,0.208-0.254,0.622-0.645,0.645-0.92,0.023-0.277,0.161-0.438,0.575-0.783,0.129-0.107,0.23-0.235,0.31-0.359,0.277-1.342,0.548-2.913,0.795-4.815,0.167-1.291,0.262-2.507,0.299-3.643l-0.755-0.039z"/><path fill="#d4af3a" d="m241.91,125.05c2.567,5.193,6.192,8.117,6.192,8.117s-0.476-1.29-0.687-2.177c-0.209-0.888-0.046-1.892-0.046-1.892s-0.91-1.167-2.591-3.758-2.568-6.419-2.568-6.419,1.564,3.828,2.778,5.86c1.215,2.031,2.616,3.688,2.616,3.688s0.489-1.796,0.84-1.89c0.35-0.093,0.607,0.187,0.91,0.583,0.304,0.397,0.562,0.36,0.562,0.36s-0.415-0.857-1.053-1.885c-0.29-0.467-0.713-0.971-1.012-1.443-0.957-1.512-3.02-4.385-4.078-7.259-1.058-2.875-3.373-10.083-3.776-12.202-0.402-2.117-0.805-0.958-1.208,0.606-0.402,1.563-0.956,3.781-0.604,7.108s1.157,7.41,3.725,12.603z"/><path fill="#d4af3a" d="m245.23,139.07c0.956,0.706,2.366,1.663,2.366,1.663s-0.223-0.521-0.364-1.146-0.201-1.912-0.201-1.912-1.126-0.988-1.91-1.672c-0.784-0.685-1.77-1.571-3.72-3.987-1.95-2.417-0.382-0.966,1.206,0.766s4.625,4.248,4.625,4.248,0-0.04,0.02-0.563c0.021-0.523,0.182-0.906,0.463-1.268,0.282-0.363,0.133-0.414-1.579-1.724-1.711-1.311-6.142-6.302-7.954-9.278-1.813-2.975-3.776-7.008-3.776-7.008s-0.956,5.95,2.669,12.504c3.624,6.553,7.199,8.671,8.155,9.377z"/><path fill="#d4af3a" d="m264.25,176.6c1.986-0.77,1.442-2.729,1.442-2.761s-1.218,0.386-2.338,0.802c-1.122,0.419-3.877,1.22-4.966,1.251-1.088,0.032-1.088-0.127-1.121-0.288-0.032-0.159,0.833,0,2.402-0.288,1.57-0.289,4.325-1.733,4.805-2.053,0.48-0.322,0.416-0.387-0.288-0.451-0.705-0.063-1.313-0.385-1.57-0.608-0.255-0.225-0.992,0.097-2.786,0.515-1.795,0.416-5.511,1.058-8.362,1.058s-5.509-0.481-5.958-0.578c-0.449-0.096-0.929,0.161,0.449,2.472,1.377,2.309,6.215,3.561,9.578,3.528,3.363-0.034,6.727-1.83,8.713-2.599z"/><path fill="#d4af3a" d="m255.31,171.83c3.47,0.029,4.764-1.002,4.764-1.002s0-0.177-0.47-0.883c-0.471-0.706-0.382-1.914-0.382-1.914s-0.824,0.147-2.265,0.354c-1.441,0.206-3.117,0.412-4.97,0.088s-1.058-0.53,0.412-0.354c1.471,0.177,4.293-0.354,5.205-0.677,0.911-0.324,0.529-0.618-0.088-0.826-0.617-0.204-2.293-1.266-2.293-1.266s-4.205,0.53-8.116,0.09c-3.911-0.444-6.382-1.444-7.176-1.562s-0.765,0.207-0.765,0.207-0.206,0.352,1.146,2.471c1.353,2.123,4,3.507,6.235,4.154,2.235,0.649,5.293,1.091,8.763,1.12z"/><path fill="#d4af3a" d="m254.42,163.7s-0.147-0.206-0.353-0.914c-0.206-0.707,0.382-1.236,0.382-1.236s-0.794-0.235-3.382-0.56c-2.588-0.324-2.734-0.53-4.323-0.884-1.588-0.353-2.646-0.824-2.617-1.001s0.529,0.089,1.47,0.441c0.94,0.354,4.911,0.766,6.587,1.002,1.676,0.235,2.617,0.413,2.911,0.235,0.294-0.177,1.323-0.442,1.323-0.442s-0.706-0.204-1.588-0.353c-0.883-0.147-1.676-0.53-2.146-0.854-0.471-0.324-0.618-0.414-2.735-0.647-2.118-0.235-3.823-0.914-7.617-2.298-3.792-1.385-6.646-3.033-7.41-3.651-0.765-0.618-0.706-0.176-0.5,0.618,0.206,0.796,0.176,1.796,2.088,4.034,1.911,2.239,2.852,3.21,7.674,4.979,4.825,1.766,10.236,1.531,10.236,1.531z"/><path fill="#d4af3a" d="m240.16,151.95c4.264,3.004,9.261,4.107,10.321,4.24,0.238-0.278-0.258-1.276-0.03-1.885,0.276-0.729,0.736-0.736,1.765-0.795,1.029-0.061,0.353-0.266,0.118-0.266s-0.294-0.029-2-0.471c-1.706-0.44-3.44-0.707-5.792-1.591-2.353-0.883-3.058-1.531-3-1.708,0.059-0.176,1.088,0.561,3.265,1.385,2.176,0.824,4.705,1.148,6.087,1.444,1.382,0.292,0.176-0.296-0.471-0.679-0.647-0.384-1.559-1.797-1.559-1.797s-1.529-0.265-4.028-1.03c-2.5-0.766-4.587-1.621-6.675-2.798-0.717-0.406-1.411-0.929-2.159-1.466-1.431-1.026-2.869-2.075-3.428-2.48-0.854-0.618-0.588-0.118-0.5,0.265s0.676,2.151,2.028,4.094c1.353,1.944,1.794,2.533,6.058,5.538z"/><path fill="#d4af3a" d="m239.46,143.5c4.205,3.329,7.821,4.357,8.439,4.623,0.617,0.266,0.559-0.088,0.441-0.441-0.118-0.354-0.207-1.501-0.207-1.501s-1.5-0.855-3.176-1.827c-1.676-0.973-3.528-2.297-4.763-3.15-1.235-0.854-0.5-0.795-0.118-0.473,0.382,0.324,2.088,1.326,3.793,2.386,1.706,1.061,4.293,2.592,4.293,2.592s0.059-0.559,0.412-0.913,1.234-0.264,1.234-0.264-0.441-0.442-0.706-0.854c-0.264-0.414-1.647-0.854-3.205-1.592-1.559-0.735-4.353-2.796-6.411-4.534-2.058-1.737-6.058-6.096-6.322-6.45-0.265-0.354-0.441-0.294-0.471,0.147-0.029,0.441-0.176,0.736,0.265,2.739,0.444,2.002,2.296,6.184,6.502,9.512z"/><path fill="#d4af3a" d="m254.34,112.03c0.477,0.99,0.999,1.738,1.375,2.383,0.568,0.974,0.888,1.605,0.888,1.605s0.114-0.343,0.024-0.928-0.18-1.396-0.022-2.363c0.083-0.518,0.195-1.034,0.167-1.494-0.033-0.523-0.208-0.975-0.279-1.273-0.135-0.564-0.741-3.016-1.034-4.748-0.292-1.733-0.606-4.208-0.584-6.392,0.022-2.183,0.337-1.081,0.337-0.022s0.112,2.679,0.449,5.176c0.337,2.498,1.393,6.301,1.393,6.301s0.067-0.585,0.382-1.418,0.832-1.777,1.236-2.813c0.404-1.035,0.262-1.208,0.262-1.208s-1.476-7.066-1.864-10.406c-0.389-3.339-1.01-12.116-1.01-12.116-2.16,2.173-3.766,7.892-4.052,13.301-0.214,4.075,0.444,7.847,0.635,9.376,0.378,3.028,0.904,5.392,1.697,7.039z"/><path fill="#d4af3a" d="m249.55,123.18c0.067-1.6,0.435-2.811,1.467-3.166,0,0-0.913-1.601-1.711-3.883-0.545-1.563-0.996-3.567-1.225-5.105-0.564-3.787-1.016-7.688,0.113-1.3,1.128,6.387,2.483,8.648,2.483,8.648l1.637,2.657c-0.242-1.167-0.28-1.987-0.218-3.262s0.225-3.002,0.613-4.369c0,0-1.976-3.956-3.217-8.706s-1.951-9.069-1.976-11.644c-0.113-2.488-0.169-3.449-0.169-3.449s-2.031,1.526-2.708,9.27c-0.678,7.745,1.355,15.151,2.37,17.978,1.016,2.825,2.541,6.331,2.541,6.331z"/><path fill="#d4af3a" d="m271.71,182.24s-0.32-0.224-1.281-0.834c-0.961-0.608-0.672-2.438-0.672-2.438s-0.256,0.192-0.962,0.674c-0.705,0.481-1.505,1.025-2.466,1.411s-1.442,0.642-2.05,0.834c-0.609,0.193-0.448-0.063,0.064-0.353,0.512-0.288,0.673-0.449,1.955-0.962,1.28-0.514,3.843-2.76,3.843-2.76s-0.609-0.064-1.666-0.096-2.403-0.577-2.403-0.577-1.056,0.962-5.317,2.79c-4.261,1.83-7.881,2.31-7.881,2.31s0.449,2.183,2.499,2.921c1.698,0.738,4.037,1.187,8.618,0.097,4.58-1.09,7.719-3.017,7.719-3.017z"/><path fill="#d4af3a" d="m277.32,186.61c0.353-1.799-0.673-3.05-0.673-3.05s-0.224,0.128-0.864,0.706c-0.641,0.578-1.571,1.669-3.364,2.566s-2.435,0.834-0.705-0.097,4.261-3.561,4.261-3.561l-0.672-0.257c-0.674-0.257-1.827,0.192-6.632,3.079-4.805,2.888-7.625,2.985-7.625,2.985s2.146,2.599,7.977,2.406c5.831-0.19,7.945-2.982,8.297-4.777z"/><path fill="#d4af3a" d="m288.34,184.52s-0.641,0.897-1.506,1.475-3.171,0.931-3.171,0.931-0.096,0.257-0.544,0.834c-0.449,0.578-1.442,1.958-2.467,2.696-1.024,0.738-2.627,1.218-2.723,1.025s0.929-0.577,1.922-1.187c0.993-0.608,1.89-1.733,2.563-2.502,0.673-0.771-0.288-0.642-0.288-0.642s-1.217,0.031-2.339-0.064c-1.121-0.098-0.897,0-1.217,0.546s-0.769,1.026-1.602,1.989c-1.016,1.174-1.981,2.238-2.947,3.399-0.64,0.771-0.16,0.995-0.16,0.995s0.289,0.482,2.883,0.77c1.602,0.179,3.337-0.023,5.163-1.076,1.131-0.656,2.298-1.695,3.488-2.998,3.105-3.399,2.945-6.191,2.945-6.191z"/><path fill="#d4af3a" d="m289.72,191.54c-0.641,0.835-0.994,1.188-0.994,1.188s0.449-1.38,0.833-2.022c0.205-0.342,0.427-0.667,0.592-0.894-0.429-0.964-0.781-2-1.041-3.117-0.285,0.923-1.172,3.631-2.274,5.392-1.344,2.148-2.531,2.919-1.762,3.495,0.769,0.578,2.274,0.707,3.973-0.128,1.64-0.805,2.114-2.211,2.347-3.346-0.288-0.446-0.558-0.909-0.808-1.394-0.212,0.131-0.52,0.376-0.866,0.826z"/><ellipse rx="1.192" ry="1.092" cy="105.75" cx="289.34" fill="#d4af3a"/><path fill="#d4af3a" d="m286.83,103.69c1.088-0.026,1.673-0.541,2.874-0.425,1.417,0.138,3.337,0.964,5.669,2.202,1.823,0.824,4.23,1.236,6.548,0.571,0.649-0.187,1.291-0.542,1.912-0.892,2.835-1.606,2.149-4.771,2.149-4.771-2.092,1.509-4.678,2.32-7.087,2.156,0,0,0.183,0.138,0.594,0.551,0.412,0.413,1.165,0.893,0.915,1.102-0.249,0.207-1.28-0.781-2.149-1.423-0.869-0.643-2.149-1.514-4.344-2.154-2.195-0.644-4.664-0.688-6.31,0.227-1.646,0.919-1.783,2.066-1.554,2.524,0.126,0.257,0.429,0.341,0.783,0.332z"/><path fill="#d4af3a" d="m317.64,126.8c-0.503-0.138-1.371-0.275-2.514-1.33-1.144-1.054-3.887-4.082-4.208-4.632-0.32-0.551-0.183-1.055,0.595-1.377,0.777-0.32,1.326-1.33,1.326-1.33s-1.691-0.643-2.834-1.469c-1.144-0.824-3.796-3.21-4.162-3.806s-0.183-0.688,0.366-0.871c0.55-0.184,0.687-0.551,0.687-0.551s-1.235-0.779-2.377-1.696c-1.144-0.917-2.698-2.431-2.698-2.431-1.713,0.688-4.401,0.398-5.853,0.138-2.561-0.458-4.435-1.514-4.435-1.514s-0.092,0.413-0.412,1.193c-0.32,0.779-1.509,1.239-2.698,0.458-1.189-0.779-0.915-2.476-0.915-2.476s-0.96-0.596-2.926-1.33-3.566-0.826-5.167-0.092c-1.601,0.733-2.378,2.935-2.378,4.587,0,1.65,0.87,0.963,1.052,0.732,0.183-0.229,0.549-1.422,2.561-1.742,2.012-0.322,3.841,0.642,6.127,2.521,2.286,1.882,2.789,2.019,3.932,3.211,1.143,1.193,0.229,1.834-1.737,2.477s-4.481-0.642-4.573-0.595c-0.378,0.189,0.848,1.938,2.544,2.599,1.696,0.66,3.864,0.232,5.55-0.444,1.143-0.458,1.356,0.015,1.691,0.367,1.857,1.952,2.34,3.781,2.652,6.009,0.949-0.292,1.606-1.24,1.738-2.018,0.063-0.373,0.183-1.193,0.823-0.597,0.64,0.597,1.143,3.898,1.143,5.412s-0.458,3.532-0.458,3.532l0.458-0.046c0.275-0.046,0.823-0.367,1.555-0.779,0.731-0.414,0.777,0.046,0.777,0.871s0.274,2.385,1.372,5.183,2.698,3.714,2.698,3.714,0.321-0.55,0.641-1.65c0.319-1.101,0.549-3.256,0.549-5.137s-0.503-5.917-0.503-5.917,2.287,2.798,4.664,3.487c2.378,0.688,4.756,0.275,5.762-0.872,1.003-1.146,0.088-1.65-0.415-1.789z"/><path fill="#d4af3a" d="m302,134.04s-0.722,1.597-1.116,2.166-0.569,0.658-0.569,0.658,0.722,0.612,1.773,0.94c1.051,0.329,1.992,0.525,1.992,0.525s-1.183-1.621-1.598-2.758c-0.416-1.138-0.482-1.531-0.482-1.531z"/><path fill="#d4af3a" d="m316.28,133.1c-0.351-0.897-0.569-1.401-0.569-1.401-1.459,0.292-4.227-0.393-5.429-1.116,0,0,1.095,2.231,2.189,2.998,1.095,0.766,1.248,0.81,1.248,0.81s-1.094,0.176-2.561-1.269c-1.466-1.445-2.123-3.109-2.123-3.109s0.328,3.853-0.263,6.216-0.722,2.67-0.722,2.67,3.107,0.547,6.566-0.416c3.458-0.964,3.72-1.27,3.72-1.27s0.415-0.109-0.131-0.831c-0.547-0.721-1.575-2.385-1.925-3.282z"/><path fill="#b96b29" d="m310,124.64c-1.064-1.223-1.17-1.516-1.17-1.516s-0.372,0.372-0.054,0.905c0.319,0.531,1.835,1.86,2.872,2.445,1.038,0.585,2.074,0.771,2.074,0.771l-0.053-0.213c0,0.001-2.606-1.169-3.669-2.392z"/><path fill="#b96b29" d="m305.78,132.67s-0.266-4.84-0.266-5.558-0.452-0.532-0.452-0.532l-0.531,0.239s0.907,6.173,1.04,7.077c0.113,0.762,0.488,0.697,0.68,0.663-0.38-0.197-0.455-1.668-0.471-1.889z"/><path fill="#b96b29" d="m299.25,111.72c-0.395-0.394-1.283-0.689-0.427,0.264,0.855,0.954,1.975,2.14,2.303,3.128,0.33,0.987,0.527,2.204-0.032,1.941-0.56-0.264-0.955-0.264-1.547-0.757-0.593-0.494-1.711-1.318-2.172-1.448-0.461-0.132-1.283,0-0.625,0.723,0.658,0.725,1.383,1.417,2.633,2.337,1.251,0.922,1.975,1.316,2.633,1.777,0.658,0.462,1.316,0.856,1.316,0.856s-0.593-3.949-1.679-5.693-2.008-2.732-2.403-3.128z"/><path fill="#b96b29" d="m277.91,177.87c-0.802,0.608-1.853,0.857-1.853,0.857s-0.498-0.026-0.498,0.167,0.581,0,1.189-0.11c0.608-0.111,1.438-0.72,1.742-0.941,0.304-0.222,0.747-0.499,0.608-0.887-0.138-0.388-0.387,0.305-1.188,0.914z"/><path fill="#b96b29" d="m284.8,181.56c-0.166,0.192-1.493,1.19-1.493,1.19s-0.415,0.276-0.858,0.442c-0.442,0.167-0.552,0.417-0.552,0.417s0.083,0.109,0.552-0.027c0.47-0.14,1.854-1.109,2.295-1.497,0.442-0.389,0.637-0.498,0.471-0.664-0.165-0.166-0.248-0.055-0.415,0.139z"/><path fill="#b96b29" d="m256.87,131.93c0.248,0.302,0.55,0.715,0.688,0.577,0.138-0.137-0.028-0.275-0.358-0.661-0.33-0.385-0.522-0.578-0.522-0.578s-0.467-0.744-0.743-1.02c-0.275-0.275-0.688-0.413-0.165,0.22,0.523,0.635,0.853,1.158,1.1,1.462z"/><path fill="#b96b29" d="m254.75,136.58c0.302,0.277,0.577,0.523,0.907,0.881s0.578,0.743,0.77,0.551c0.193-0.193-0.495-0.605-0.797-0.992-0.303-0.386-0.55-0.633-0.936-0.936s-0.853-0.551-0.853-0.551,0.606,0.772,0.909,1.047z"/><path fill="#b96b29" d="m255.54,144.09c0.525,0.553,1.299,0.719,1.41,0.499,0.111-0.222-0.055-0.4-0.496-0.62-0.439-0.22-1.155-0.688-1.513-0.936-0.357-0.249-0.715-0.524-0.963-0.771-0.247-0.248-0.54-0.471-0.632-0.387-0.092,0.085,0.729,0.968,0.977,1.107,0.249,0.138,0.692,0.554,1.217,1.108z"/><path fill="#b96b29" d="m257.06,150.1c0-0.221,0.054-0.331-0.388-0.36-0.442-0.027-1.051-0.109-1.051-0.109s-0.857-0.333-0.913-0.167c-0.055,0.167,0.719,0.5,1.051,0.555,0.332,0.056,0.746,0.166,0.939,0.275,0.195,0.11,0.362,0.026,0.362-0.194z"/><path fill="#b96b29" d="m257.72,156.63c-0.939,0-1.742-0.223-1.797-0.084s0.442,0.361,0.913,0.526c0.471,0.167,1.356,0.222,1.964,0.249s0.719-0.11,0.691-0.414c-0.028-0.306-0.83-0.277-1.771-0.277z"/><path fill="#b96b29" d="m265.08,163.78c-0.138-0.138-0.47-0.027-0.996,0.083-0.524,0.112-1.382,0.278-1.88,0.251s-1.576-0.056-1.576-0.056l-0.608,0.138c0,0.139,0.801,0.111,1.963,0.249,1.161,0.139,1.935-0.11,2.488-0.194,0.554-0.083,0.748-0.331,0.609-0.471z"/><path fill="#b96b29" d="m268.12,168.87c-0.581,0.222-0.995,0.276-1.438,0.276-0.442,0-1.493,0.194-1.493,0.194s-0.498,0.056-0.415,0.25c0.083,0.193,0.249,0,0.69-0.056,0.443-0.056,0.775,0,1.549-0.027,0.774-0.028,1.217-0.223,1.687-0.305,0.47-0.084,0.995-0.333,0.747-0.638-0.249-0.303-0.746,0.084-1.327,0.306z"/><path fill="#b96b29" d="m274.04,172.72c-0.332,0.333-1.604,1.191-1.604,1.191s-0.249,0.194-0.747,0.443-0.47,0.361-0.387,0.499,0.387-0.194,0.663-0.305,1.189-0.722,1.659-1.107c0.47-0.39,1.078-0.694,0.967-0.97-0.109-0.277-0.219-0.082-0.551,0.249z"/><path fill="#b96b29" d="m264.19,122.87s0.11,0.253,1.131,1.531c1.022,1.277,0.475,0.072,0.219-0.254-0.256-0.33-1.751-2.444-2.262-3.029-0.51-0.584-0.583-0.292-0.328,0.072,0.256,0.365,1.24,1.68,1.24,1.68z"/><path fill="#b96b29" d="m262.04,129.43c0.146-0.146-0.183-0.292-0.766-1.021-0.584-0.73-1.751-2.225-1.751-2.225s-0.329-0.693-0.438-0.621c-0.109,0.073,0.401,1.167,0.875,1.643,0.475,0.474,1.094,1.386,1.423,1.787s0.511,0.583,0.657,0.437z"/><path fill="#b96b29" d="m264.87,141.73c0-0.357-1.155-0.303-1.677-0.413-0.523-0.11-1.458-0.303-1.458-0.303s-1.101-0.193-1.128-0.055c-0.028,0.136,0.22,0.274,0.825,0.386,0.605,0.109,1.513,0.385,2.201,0.495s1.237,0.249,1.237-0.11z"/><path fill="#b96b29" d="m262.04,135.09c0.766,0.62,1.276,0.912,1.678,1.131,0.401,0.218,0.729,0.548,0.949,0.292,0.219-0.257-0.183-0.438-0.839-0.73-0.657-0.292-0.985-0.547-0.985-0.547s-0.365-0.182-0.694-0.365c-0.329-0.182-0.876-0.401-0.109,0.219z"/><path fill="#b96b29" d="m268.64,130.71c-0.475-0.401-0.876-0.622-0.876-0.622s-0.583-0.547-0.693-0.365c-0.109,0.184,0.656,0.73,1.021,1.058,0.365,0.329,1.022,1.278,1.35,1.095,0.328-0.182-0.329-0.765-0.802-1.166z"/><path fill="#b96b29" d="m264.33,147.85s-0.637,0.165-1.051,0.276-0.442,0.306,0.305,0.306,1.051-0.194,1.797-0.334c0.747-0.138,0.997-0.221,0.885-0.47-0.11-0.25-0.498-0.166-0.802-0.083s-1.134,0.305-1.134,0.305z"/><path fill="#b96b29" d="m265.49,154.06c-0.055,0.14,0.525,0,0.912-0.138,0.387-0.139,1.189-0.553,1.659-0.692,0.471-0.138,0.471-0.222,0.471-0.499,0-0.276-0.499-0.056-1.106,0.139-0.608,0.194-1.383,0.804-1.383,0.804s-0.498,0.248-0.553,0.386z"/><path fill="#b96b29" d="m273.48,157.82c0.554-0.334,0.665-0.582,0.47-0.749-0.193-0.165-0.359-0.138-0.801,0.222-0.443,0.36-1.3,0.969-1.3,0.969s-0.442,0.167-0.774,0.333-0.747,0.443-0.636,0.609c0.11,0.166,0.802,0,1.161-0.305,0.36-0.304,1.328-0.748,1.88-1.079z"/><path fill="#b96b29" d="m277.25,162.81c0.221-0.195,0.884-0.414,1.189-0.637,0.304-0.222,0.498-0.886,0.249-0.969s-0.387,0.276-0.912,0.663c-0.526,0.389-2.323,1.579-2.323,1.579l-0.471,0.194c-0.498,0.193-0.276,0.333,0.139,0.277,0.415-0.057,0.691-0.057,1.189-0.442,0.497-0.388,0.718-0.471,0.94-0.665z"/><path fill="#b96b29" d="m282.83,167.54c0.471-0.193,1.162-0.803,1.494-1.106,0.331-0.306,0.746-0.693,0.498-0.887-0.25-0.193-0.525,0.056-0.913,0.414-0.387,0.361-1.411,1.441-1.411,1.441s-0.138,0.027-0.691,0.471c-0.553,0.442,0.028,0.359,0.221,0.166,0.194-0.193,0.333-0.305,0.802-0.499z"/><polygon points="305.58,96.588,307.83,94.99,305.18,94.311,303.48,95.668" fill="#d4af3a"/><ellipse rx="2.146" ry="2.069" transform="translate(-5.9509277e-6,-3.4236908e-6)" cy="94.716" cx="312.78" fill="#b96b29"/><ellipse cx="312.78" rx="1.295" cy="94.278" ry="1.237" fill="#d4af3a"/><path fill="#d4af3a" d="m308.3,87.608c0.552,0.205,1.27,0.115,1.27,0.115s0.217-0.952-0.308-1.416c-0.525-0.462-1-0.796-1.308-1.105-0.308-0.31-0.384-0.413-0.384-0.413s0,0.823-0.04,1.338c-0.037,0.516,0.219,1.274,0.77,1.481z"/><ellipse cx="309.44" rx="0.394" cy="88.65" ry="0.373" fill="#d4af3a"/><path fill="#d4af3a" d="m306.51,88.25c-0.167,0.232-0.525,0.604-0.525,0.604s0.436,0.013,0.795,0.27c0.359,0.258,0.821,0.476,1.244,0.425,0.423-0.053,0.603-0.452,0.513-0.734-0.089-0.283-0.294-0.577-0.987-0.836-0.693-0.256-0.873,0.039-1.04,0.271z"/><path fill="#d4af3a" d="m308.01,90.756c-1.348,0.121-3.129-1.369-3.129-1.369-0.166,1.197-0.906,1.818-2.04,2.045l0.104,0.053s1.054,0.539,2.299,0.728c0.563,0.086,1.064-0.011,1.669-0.132,0.73-0.148,1.551-0.356,1.995-0.63,0.813-0.502,0.57-1.803,0.57-1.803s-0.119,0.986-1.468,1.108z"/><path fill="#d4af3a" d="m302.76,89.404c-0.553-0.208-1.383-0.607-1.729-0.625-0.346-0.017-0.848-0.104-0.761,0.538,0.086,0.642,0.743,0.954,1.382,0.971,0.64,0.018,0.969-0.225,1.349-0.417,0.381-0.19,0.312-0.259-0.241-0.467z"/><path fill="#d4af3a" d="m298.54,87.114c-0.604-0.433-1.142-0.554-1.142-0.554s-0.397,1.041-0.173,1.683c0.225,0.642,0.692,0.814,1.262,0.796,0.571-0.016,1.418-0.312,1.176-0.745-0.241-0.432-0.518-0.746-1.123-1.18z"/><ellipse cx="299.09" rx="0.466" cy="90.041" ry="0.336" fill="#d4af3a"/><path fill="#d4af3a" d="m300.38,84.865c-0.374-1.774-0.311-3.704,1.37-6.163,1.682-2.46,4.607-3.456,4.607-3.456s0.093-0.187,1.027-1.182c0.934-0.997,2.833-2.241,2.833-2.241s-2.204,0.544-3.457,0.945c0,0.022,0.001,0.043,0.001,0.066,0,0.851-0.676,1.541-1.51,1.541-0.318,0-0.615-0.102-0.859-0.274-0.68,0.132-2.944,1.485-3.523,1.968,0.144,0.236,0.228,0.514,0.228,0.812,0,0.849-0.677,1.54-1.511,1.54-0.25,0-0.485-0.061-0.693-0.172-0.068,0.108-0.132,0.217-0.193,0.328-0.475,0.873-0.825,1.711-1.083,2.478,0.387,0.267,0.646,0.766,0.646,1.336,0,0.846-0.573,1.534-1.281,1.541-0.049,0.498-0.045,0.846-0.026,0.995,0.062,0.499,0.249,0.81,1.12,1.059,0.872,0.249,2.055,1.774,2.055,1.774,0.084,0,0.706-1.12,0.249-2.895z"/><path fill="#d4af3a" d="m305.74,73.506c0.318-0.258,0.374-0.653,0.121-0.879-0.25-0.227-0.711-0.2-1.029,0.06-0.317,0.26-0.373,0.655-0.121,0.881,0.251,0.226,0.712,0.2,1.029-0.062z"/><path fill="#d4af3a" d="m300.1,77.317c0.357-0.326,0.42-0.819,0.136-1.104-0.283-0.284-0.803-0.25-1.162,0.076-0.358,0.324-0.419,0.818-0.136,1.102,0.283,0.285,0.803,0.251,1.162-0.074z"/><ellipse cx="296.74" rx="0.871" cy="82.109" ry="0.856" fill="#d4af3a"/><path fill="#d4af3a" d="m315.54,70.017c-0.452,0.099-1.288,0.371-2.539,1.026h0.023c0.87,0,1.546,0.556,1.546,1.276,0,0.721-0.791,1.504-1.66,1.504s-1.461-0.755-1.461-1.476c0-0.169,0.04-0.333,0.111-0.482-0.371,0.229-0.767,0.482-1.189,0.767-2.771,1.868-3.424,2.771-4.793,5.324-1.37,2.551-1.868,5.353-1.277,7.003,0.592,1.649,2.771,1.992,2.802,1.992s-0.249-0.249-0.281-0.559c-0.031-0.313,0.063-0.468,0.156-1.091,0.093-0.621,0.031-1.368,0.031-1.368s0.498-0.063,0.778,0.28c0.281,0.342,0.686,0.747,0.965,1.088,0.28,0.342,1.027,0.997,1.027,0.997s0.437-0.624,0.437-1.371c0-0.746-0.498-1.555-0.592-2.863s0.592-3.643,1.867-5.354c1.277-1.712,3.673-3.268,4.389-3.611,0.716-0.341,0.84-0.872,0.872-1.183,0.031-0.311,0.093-0.528,0.155-1.307,0.064-0.778-0.652-0.747-1.367-0.592z"/><path fill="#d4af3a" d="m312.79,72.973c0.49,0,0.936-0.441,0.936-0.845,0-0.405-0.381-0.717-0.872-0.717-0.49,0-0.888,0.329-0.888,0.732s0.333,0.83,0.824,0.83z"/><path fill="#d4af3a" d="m316.91,89.249c0.668,0.272,1.422,0.119,1.777-0.118,0.355-0.238,0.475-0.843,0.054-1.189-0.419-0.345-1.044-0.333-1.432-0.118-0.388,0.216-1.261,0.831-1.261,0.831s0.194,0.324,0.862,0.594z"/><path fill="#d4af3a" d="m319.05,89.999c-0.241,0.372-0.419,0.598-1.161,0.63s-1.547-0.016-2.031-0.501c-0.484-0.484-0.822-1.164-0.822-1.164l-0.838-0.016s-0.273,1.165-0.644,1.486c-0.371,0.324-1.661,0.373-2.225-0.048s-1.08-0.938-1.176-0.873,0,0.485,0.58,0.986c0.58,0.5,0.982,0.809,1.918,0.809h5.318s1.08,0.063,1.387-0.583c0.306-0.646,0.32-1.051,0.177-1.212-0.144-0.161-0.241,0.113-0.483,0.486z"/><path fill="#d4af3a" d="m310.96,89.098c0.798,0.443,1.239,0.173,1.529-0.184,0.292-0.356,0.345-0.518,0.345-0.518s-0.754-0.271-1.12-0.487c-0.367-0.215-0.614-0.421-0.98-0.378-0.367,0.044-0.42,0.098-0.42,0.098s-0.151,1.025,0.646,1.469z"/><ellipse cx="307.11" rx="1.775" cy="81.24" ry="1.759" fill="#b96b29"/><path fill="#b96b29" d="m310.19,75.144c-0.71-0.478-1.753-0.287-2.331,0.426-0.576,0.715-0.467,1.683,0.245,2.16,0.71,0.479,1.755,0.287,2.332-0.426,0.576-0.712,0.466-1.68-0.246-2.16z"/><ellipse cx="307.04" rx="1.031" cy="81.012" ry="0.983" fill="#d4af3a"/><path fill="#d4af3a" d="m309.45,75.338c-0.457-0.125-1.022,0.1-1.26,0.502-0.238,0.403,0.014,0.832,0.623,0.956,1.121,0.229,1.655-1.179,0.637-1.458z"/></g><g><path fill="#D4AF3A" d="M282.34,212.67s-2.742,1.31-3.611,1.543c-0.869,0.237-1.07,0.237-1.07,0.237s-1.873,1.709-3.244,2.513c-1.44,0.848-3.093,1.463-4.748,1.646-2.141,0.233-8.025,0.166-10.667,0.066s-4.279,0.536-5.417,1.811c-1.137,1.275-1.404,3.119,0.034,4.528s3.042,0.705,3.578-0.167c0.534-0.873,0.267-1.98,0.033-2.482-0.233-0.504,0.469-0.672,1.204-0.705,0.736-0.033,1.973,0.067,3.11,0.235,1.137,0.167,3.144,0.838,4.013,1.308,0.87,0.47,0.368,0.537-0.234,0.436s-1.27-0.335-2.341-0.736c-1.07-0.402-1.973-0.604-2.641-0.639-0.668-0.033-0.436,0.336-0.301,0.57,0.133,0.235,0.501,0.805,0.601,1.074,0.101,0.269-0.2,1.272-0.2,1.272l0.334,0.639s0.401-0.639,0.535-0.972c0.133-0.337-0.034-0.973,0.1-1.275s0.702-0.302,1.137,0.202c0.435,0.502,0.937,1.107,1.17,2.379,0.234,1.275-0.201,2.181-0.201,2.181s0.536,0.438,0.636,0.737c0.101,0.303-0.134,1.511-0.134,1.511s0.368,0.234,0.703-0.471c0.334-0.703,0.735-1.944,0.835-2.381,0.1-0.436,0.401-1.24,0.936-0.637s0.903,1.342,1.004,1.711c0.099,0.368,0.099,0.671,0.099,0.671s1.204-1.175,1.605-1.846,1.237-1.677,2.375-2.615c1.137-0.939,3.109-2.817,4.079-3.455,0.969-0.637,3.444-1.979,4.213-2.448s0.903-0.502,1.037-1.812c0.134-1.309,0.77-2.48,1.07-3.387,0.29-0.91,0.36-1.24,0.36-1.24z"/><path fill="#D4AF3A" d="M238.49,163.52c-0.022-0.223-0.468-1.006-0.579-1.408-0.112-0.401-0.513-0.157-0.513-0.157s-0.87,0.492-1.516,0.671-0.736-0.066-0.803-0.401c-0.066-0.338-0.223-1.387-0.334-2.125-0.112-0.736-0.268-0.691-0.535-0.582-0.267,0.113-1.07,0.403-1.627,0.65-0.557,0.245-0.379,0.514-0.201,0.826,0.178,0.314,0.825,1.632,1.114,2.102,0.29,0.469,0.022,0.671-0.313,0.828-0.334,0.156-0.824,0.223-1.493,0.446s-0.624,0.38-0.558,0.604c0.067,0.225,0.513,1.141,0.758,1.564,0.245,0.425,0.468,0.135,0.468,0.135s0.714-0.647,1.315-0.939c0.602-0.289,0.646-0.201,0.802,0.247,0.156,0.447,0.848,2.795,0.981,3.242,0.134,0.445,0.357,0.401,0.669,0.269,0.312-0.134,0.735-0.202,1.092-0.314,0.357-0.111,0.491-0.827,0.491-0.827s-1.315-2.369-1.672-2.974c-0.357-0.604,0-0.738,0.268-0.782,0.267-0.044,1.047-0.156,1.716-0.313,0.66-0.17,0.48-0.55,0.46-0.78z"/><path fill="#D4AF3A" d="M253.35,227.9c-0.1-0.571,0-1.142-0.435-1.577-0.435-0.437-0.97-1.308-1.17-2.012-0.2-0.705,0.167-1.04,0.1-1.443-0.066-0.402-0.602-0.402-1.136,0.035-0.536,0.436-1.238,0.838-1.238,2.112,0,1.273,0.469,2.784,2.241,3.319,1.77,0.54,1.74,0.14,1.64-0.43z"/><path fill="#D4AF3A" d="M255.15,227.29s-0.368-0.234-0.535,0.101-0.134,0.504,0.334,1.241,0.77,0.906,1.304,1.24c0.535,0.336,0.167-0.334,0.1-0.536-0.066-0.202,0-0.469-0.133-0.638-0.134-0.168-0.202-0.369-0.202-0.904,0-0.53-0.87-0.5-0.87-0.5z"/><path fill="#D4AF3A" d="M257.32,233.33c0.334-0.505,0.636-0.638,1.438-1.006s2.273-0.57,2.774-0.604c0.502-0.034,1.639-1.006,1.471-2.014-0.167-1.006-0.903-1.408-1.538-1.542s-1.204-0.134-1.404,0.167c-0.201,0.303-0.569,0.705-1.271,0.939s-0.803,0.47-1.237,0.604c-0.435,0.135-0.101,0.403-0.468,0.705-0.368,0.301-0.869,0-1.438-0.168-0.568-0.168-0.602-0.268-1.237-0.303-0.635-0.033-2.307-0.133-2.307-0.133s-0.067-0.034-0.434-0.034c-0.368,0-0.402,0.067-0.568,0.47-0.167,0.402,0.033,1.409,0.435,1.912,0.401,0.502,1.705,0.737,2.574,1.006,0.87,0.267,1.305,0.369,2.041,0.502,0.76,0.13,0.86-0.01,1.19-0.51z"/><path fill="#D4AF3A" d="M265.45,234.13c0.702-0.47,0.3-1.275,0.134-1.777-0.167-0.504-1.137-0.604-1.639-0.604s-0.769,0-1.037,0.234c-0.268,0.234-0.635,0.57-1.371,0.806-0.734,0.234-1.304,0.502-2.307,0.905-1.003,0.401-1.305,1.072-1.739,1.343-0.435,0.267-1.27,0-1.27,0s-0.603-0.169-0.803,0c-0.201,0.165,0,0.501,0.401,0.937,0.402,0.438,1.17,0.403,2.039,0.672,0.87,0.268,1.037,0.066,1.372-0.168,0.334-0.234,0.602-0.737,1.204-1.107,0.602-0.368,1.906-0.436,2.541-0.502,0.65-0.07,1.79-0.27,2.49-0.74z"/><path fill="#D4AF3A" d="M265.45,231.08c0.3,0.27,0.635,0.639,0.903,0.201,0.268-0.435,0.702-1.341,0.401-1.877-0.302-0.536-0.668-1.007-0.668-1.007s-0.502,1.543-0.736,1.946c-0.22,0.41-0.19,0.47,0.11,0.74z"/><path fill="#D4AF3A" d="M262.74,226.45c0-0.873-0.602-1.946-0.602-1.946s-0.201,0.805-0.568,1.51c-0.368,0.703-0.736,1.073-0.736,1.073s0.87,0.234,1.204,0.234,0.71,0.01,0.71-0.86z"/><path fill="#D4AF3A" d="M257.73,228.3c0.936-0.201,1.438-0.57,1.839-0.905s0.636-1.242,0.368-1.71c-0.267-0.472-0.936-0.973-1.203-0.973h-0.502s-0.268,0.872-0.635,1.308c-0.368,0.437-0.802,0.737-0.769,1.308,0.03,0.56-0.04,1.16,0.9,0.96z"/><path fill="#D4AF3A" d="M259.63,224.04c0.034-0.436-0.135-0.905-0.435-1.207-0.301-0.302-0.502-0.502-0.502-0.502s-0.067,0.67-0.133,1.039c-0.067,0.369-0.1,0.436-0.1,0.436s0.268,0.27,0.502,0.37c0.23,0.09,0.63,0.3,0.66-0.14z"/><path fill="#D4AF3A" d="M248.07,200.25l0.632-3.952c-0.475-3.951-2.53-7.691-4.162-10.274-1.634-2.581-3.32-6.638-4.058-8.799-0.737-2.161-1.232-5.119-1.232-6.667,0-1.55,0.661-2.347,0.661-2.347s0.287-0.42,0.022-0.686c-0.265-0.265-0.683-0.021-1.103,0.398s-0.86,1.194-1.037,1.747c-0.177,0.555-0.177,0.753-0.177,0.753s-0.838-0.198-2.184-0.087c-1.346,0.109-1.985,0.221-2.03,0.508-0.044,0.288,0.177,0.51,1.147,0.93,0.971,0.42,1.589,0.597,2.074,1.173,0.486,0.575,1.727,3.465,2.106,4.86,0.379,1.396,1.19,5.18,1.519,8.15s1.331,6.568,2.732,9.573c0.46,0.99,2.97,5.67,5.09,4.73z"/><path fill="#D4AF3A" d="M250.52,207.21c-0.915,0.511-0.881,4.25-0.475,6.188,0.407,1.939,2.305,4.353,2.881,4.999,0.577,0.646,0.712,0.646,1.018,0.476,0.306-0.169,0.44-0.169,0.44-0.169s0.814-0.272,1.425-0.748c0.609-0.477,0.372-1.667,0.27-2.721-0.102-1.056-0.915-3.164-2.406-5.61-1.48-2.45-2.23-2.93-3.14-2.42z"/><path fill="#D4AF3A" d="M251.53,204.18c0-1.22-1.058-2.142-2.274-2.142-0.575,0-1.082,0.145-1.396,0.428-1.234,1.113-0.49,3.891,1.293,3.891,0.646,0,1.401-0.108,1.868-0.555,0.42-0.39,0.51-1.04,0.51-1.62z"/><path fill="#D4AF3A" d="M269.21,239.32c-0.487-0.086-0.774-0.285-1.492-0.773-0.717-0.487-1.865-1.492-2.066-1.98-0.202-0.488-0.202-0.517-0.89-0.286-0.689,0.229-1.665,0.2-2.41,0.229-0.746,0.029,0.085,0.86,0.602,1.637,0.517,0.774,0.344,3.385,0.344,3.385s0,0.23-0.115,0.604c-0.115,0.372-0.028,0.631,0.172,0.717,0.201,0.086,0.315-0.086,0.832-0.69,0.517-0.602,1.464-2.179,1.464-2.179s0.144,0.027,0.947,0.229,2.095,0.086,2.755-0.115c0.68-0.2,0.36-0.69-0.13-0.78z"/><path fill="#D4AF3A" d="M266.14,241.34c-0.344-0.058-0.487-0.087-0.66,0.141-0.171,0.231-0.315,0.663-0.401,0.891-0.086,0.23-0.058,0.432,0.144,0.604,0.201,0.173,0.488,0.373,0.488,0.373s0.287,0.316,0.575,0.458c0.287,0.145,0.343-0.285,0.343-0.602,0-0.315,0.172-0.89,0.172-1.263s-0.3-0.55-0.65-0.6z"/><path fill="#1D5E91" d="M396.62,216.11c-0.839-0.199-1.195-0.518-1.195-0.518s-0.359-0.04-0.641,0.479c-0.276,0.517-1.354,1.195-1.354,1.195s-1.515,0.4-1.715,1.438c-0.199,1.036,0.519,1.395,1.236,1.275,0.72-0.12,2.474-0.479,3.229-1.395,0.758-0.918,0.878-1.437,1.037-1.797,0.14-0.35,0.23-0.47-0.61-0.67z"/><path fill="#1D5E91" d="M398.97,207.85c-0.545-2.306-2.034-5.155-4.905-6.582,0,0-1.077,3.79-1.396,4.987-0.32,1.195-0.32,1.156,0.598,1.396,0.916,0.238,3.867,0.876,4.466,1.036s1.6,0.67,1.24-0.85z"/><path fill="#1D5E91" d="M385.29,205.7c0.677,0.12,0.598-0.16,0.837-1.077,0.239-0.916,1.435-5.463,1.435-5.463s-3.029-0.12-5.662,1.155c-2.633,1.276-3.789,3.629-3.789,3.629s0.679,0.279,2.474,0.679c1.8,0.39,4.03,0.95,4.71,1.07z"/><path fill="#1D5E91" d="M378.27,211.96c-1.075-0.199-1.475-0.319-1.475-0.319s0.678,2.591,1.795,4.028c1.116,1.436,2.353,2.155,4.666,2.194,2.313,0.04,4.067-1.236,4.347-2.233,0.279-0.998,0.758-1.754,0.758-1.754s-4.188-0.561-5.903-0.959c-1.74-0.4-3.13-0.76-4.21-0.96z"/><path fill="#D4AF3A" d="M377.55,210.32c1.038,0.239,9.572,1.874,10.29,2.034,0.719,0.158,1.316,0.318,1.516,0.118,0.201-0.198,0.319-0.318,1.077-0.599,0.758-0.277,0.719-1.036,0.719-1.036s0.199-0.719,0.277-1.436c0.081-0.717,0.48-0.957,1.317-0.079,0.838,0.876,0.997,2.152,1.156,3.39,0.16,1.236,2.115,1.555,2.871,1.675,0.759,0.12,1.116-0.12,1.556-0.837,0.439-0.718,0.679-2.154,0.798-3.072,0.119-0.916,0.041-0.837-0.917-1.076-0.957-0.238-5.384-1.235-6.183-1.437-0.796-0.199-0.637-0.717-0.518-1.275s1.874-6.183,1.874-6.183c-1.249-0.772-3.004-1.232-5.104-1.475,0,0-1.276,5.742-1.517,6.621-0.238,0.876-0.798,0.876-1.714,0.716-0.918-0.158-7.539-1.712-7.539-1.712s0,0-0.517,1.234c-0.519,1.236-0.758,2.713-0.758,3.47s0.27,0.74,1.3,0.97z"/><path fill="#D4AF3A" d="M400.2,215.51c-0.88-0.575-1.527-0.727-1.985,0.344-0.459,1.071-0.496,2.64-1.642,3.748-1.146,1.109-2.75,2.256-4.354,2.142-1.603-0.115-2.52-0.498-2.139-2.333,0.383-1.835,2.827-2.409,3.399-3.365s0.42-2.065-0.421-2.791c-0.84-0.728-2.062-0.88-2.405-0.65-0.343,0.229-1.337,1.071-1.832,2.446-0.497,1.377-0.802,2.486-1.872,3.366-1.067,0.879-3.817,1.759-5.955,1.261-2.138-0.497-2.901-1.147-3.704-3.25-0.802-2.103-1.756-5.582-2.177-5.965-0.419-0.382-0.954-0.688-1.87-0.039-0.917,0.649-0.993,1.606-1.107,2.372-0.115,0.764,0,1.646,0.915,2.754,0.917,1.108,1.872,2.217,2.216,3.363,0.344,1.147,1.374,2.907-0.077,2.983-1.45,0.076-2.099,0.114-3.207-0.955-1.107-1.071-5.423-4.016-6.605-4.973-1.184-0.956-1.68-1.261-1.68-1.261-1.997-0.035-3.997-0.856-5.994-2.217,0,0,1.146,2.943,1.374,4.052,0.229,1.109,0.191,1.72,0.191,1.72s4.352,2.218,6.071,3.06c1.718,0.841,5.192,2.83,6.871,3.861,1.682,1.034,3.094,2.64,6.072,2.028,2.979-0.612,9.01-2.447,10.957-3.021,1.948-0.574,7.332-1.912,9.317-3.288s2.177-1.3,2.519-2.677c0.34-1.35,0-2.11-0.88-2.69z"/><path fill="#D4AF3A" d="M388.71,194.92c0.331-0.044,0.464-0.089,1.479-0.221,1.017-0.134,0.64,0.84,0.463,1.216-0.176,0.375-0.485,1.127-0.903,1.834-0.422,0.71,0.131,0.82,0.418,0.93,0.287,0.112,0.706,0.155,1.523,0.377,0.818,0.22,0.662-0.377,0.685-0.686,0.022-0.311,0.065-1.925,0.155-2.499,0.088-0.574,0.617-0.42,0.816-0.31s0.706,0.396,1.127,0.617c0.418,0.224,0.617-0.021,0.706-0.264s0.286-0.685,0.464-1.327c0.177-0.641-0.221-0.509-0.62-0.509-0.396,0-0.971,0-1.633-0.021-0.662-0.022-0.243-0.664-0.243-0.664s0.486-0.795,0.861-1.393c0.376-0.597,0.244-0.685-0.133-0.797-0.374-0.111-1.545-0.376-1.876-0.464-0.331-0.087-0.485-0.044-0.485,0.178s-0.045,1.37-0.045,1.813c0,0.441-0.043,0.707-0.618,0.729-0.574,0.021-0.928-0.312-1.391-0.819-0.464-0.507-0.662-0.309-0.707-0.109-0.044,0.199-0.42,1.658-0.508,2.056-0.11,0.39,0.11,0.37,0.44,0.32z"/><path fill="#D4AF3A" d="M391.91,209.41s-0.041,1.157-0.16,1.555c-0.12,0.4-0.398,0.998,0.08,1.157,0.479,0.16,0.917,0.358,1.194,0.279,0.281-0.079,0.16-0.638,0-1.116-0.158-0.479-0.397-1.078-0.757-1.476-0.35-0.39-0.35-0.39-0.35-0.39z"/><path fill="#D4AF3A" d="M398.93,214.03c0.16,0.358,0.479,0.438,0.719,0.519,0.239,0.079,0.559,0.079,0.559-0.359s0.079-0.997-0.278-1.476c-0.359-0.479-0.55-0.828-0.758-0.12-0.21,0.72-0.4,1.09-0.24,1.44z"/><path fill="#D4AF3A" d="M374.48,209.37c0.199,0.04,0.957,0.279,0.957,0.279s0-1.117,0.159-1.875c0.159-0.756,0.479-1.275,0.2-1.275s-0.438,0.239-0.64,0.558c-0.198,0.318-0.758,0.399-0.956,1.316-0.2,0.91,0.08,0.95,0.28,0.99z"/><circle cy="207.45" cx="379.27" r="1.556" fill="#B96B29"/><circle cy="208.53" cx="383.65" r="1.595" fill="#B96B29"/><circle cy="211.24" cx="396.42" r="1.596" fill="#B96B29"/><circle cy="209.57" cx="388.04" r="1.596" fill="#B96B29"/><circle cy="205.74" cx="389.2" r="1.596" fill="#B96B29"/><circle cy="201.91" cx="390.32" r="1.596" fill="#B96B29"/><circle cy="207.3" cx="379.38" r="0.777" fill="#D4AF3A"/><circle cy="208.37" cx="383.77" r="0.798" fill="#D4AF3A"/><circle cy="211.08" cx="396.54" r="0.797" fill="#D4AF3A"/><circle cy="209.41" cx="388.16" r="0.797" fill="#D4AF3A"/><circle cy="205.58" cx="389.32" r="0.797" fill="#D4AF3A"/><circle cy="201.75" cx="390.44" r="0.798" fill="#D4AF3A"/></g><use xlink:href="#g4017" transform="matrix(-1,0,0,1,639.96566,0)" height="320" width="640" y="0" x="0"/></g></svg>
