<?xml version="1.0" encoding="UTF-8"?>
<svg xmlns="http://www.w3.org/2000/svg" width="1000" height="500">
<rect width="1000" height="500" fill="#0071bc"/>
<g>
<g fill="none" stroke="#000" stroke-width="1.93488">
<path fill="#fff" d="m557.8173,395.54368c0,0 17.63179,-18.64915 34.58541,-15.08878 5.08623,-19.66633 24.24388,-21.19218 24.24388,-21.19218 0,0 -1.86484,-21.70066 22.71782,-26.4477 0.67818,-14.74979 15.59747,-26.95637 15.59747,-26.95637 0,0 -3.05169,-22.88732 12.54577,-28.14305 -9.49408,-18.14048 3.22119,-31.36461 3.05169,-31.7036 -0.1695,-0.33899 -16.10595,-28.65192 -1.86503,-36.78945 -15.08878,-12.71528 -10.17206,-27.12593 -10.17206,-27.12593 0,0 -16.44513,-4.23859 -10.51143,-23.9048 -13.56294,-2.37343 -16.27545,-24.24373 -16.27545,-24.24373 0,0 -20.85318,4.23831 -23.39619,-13.90209 -13.73244,2.20413 -15.25829,-11.35889 -15.42778,-11.35889 -0.1695,0 -27.29557,7.29005 -32.72077,-13.22393 -10.51106,5.42533 -15.08879,-4.238455 -15.08879,-4.238455 0,0 -15.08879,7.459663 -24.07418,-6.950964 -17.9708,11.189419 -27.97355,-0.508699 -27.97355,-0.508699 0,0 -23.56569,15.597348 -31.36442,3.560296 -13.90213,14.071702 -26.27819,7.968364 -26.27819,7.968364 0,0 -10.51132,18.648948 -27.46502,13.901928 -3.89937,17.29277 -23.3961,17.63186 -23.3961,17.63186 0,0 2.03443,15.25841 -21.36167,19.32726 -3.05166,17.97078 -15.25832,21.02252 -15.25832,21.02252 0,0 1.18674,17.46223 -9.83316,23.05701 3.89936,9.83336 -6.27287,21.87026 -6.27287,21.87026 0,0 10.85037,13.56293 -3.89935,28.82141 14.24112,3.72968 3.89935,28.31272 3.89935,28.31272 0,0 19.66631,8.81591 7.29011,25.09135 14.07156,4.57755 9.66359,15.76715 9.83315,22.37904 8.98545,4.06866 16.9537,2.03432 13.05435,20.1748 27.6345,3.0517 14.58016,18.30999 14.58016,18.30999 0,0 12.88483,0.50867 7.79872,10.68093 23.56565,-0.5085 26.95637,17.63179 26.95637,17.63179 0,0 21.87032,-5.7644 24.7524,2.71251 2.88214,8.47692 -9.49405,65.61086 -9.49405,65.61086 0,0 -18.47953,0 -32.21204,-14.7496 -32.21203,-0.84767 -25.09149,-22.04004 -25.60009,-22.04004 -0.5086,0 -10.68084,3.89937 -15.93648,-13.73243 -21.5312,4.40805 -20.85307,-13.73224 -21.0226,-13.90193 -0.16953,-0.1695 -9.66358,-4.40804 -6.10333,-13.39345 -22.20934,2.03415 -20.51398,-19.66632 -20.51398,-19.66632 -4.86006,-1.97802 -6.66845,-6.49888 -5.93379,-11.01992 -2.88212,-1.01736 -22.54842,-1.35635 -12.3762,-27.29537 -18.81862,-11.35911 -7.12056,-24.41336 -7.12056,-24.41336 0,0 -25.93915,-13.39344 -5.9338,-28.82141 -14.91924,-22.03986 1.18676,-33.05959 1.18676,-33.05959 0,0 -20.68351,-21.02267 0.33909,-35.94194 -3.39074,-31.87287 15.59741,-39.50199 15.59741,-39.50199 0,0 -10.00268,-25.93931 17.12324,-36.78964 1.69536,-26.278245 20.68351,-26.956402 20.68351,-26.956402 0,0 0.5086,-20.853066 30.34712,-18.818577 5.76424,-18.648947 26.10869,-14.919173 26.10869,-14.919173 0,0 6.27289,-22.548468 33.90742,-11.698137 14.07148,-27.464941 34.9247,-13.393384 34.9247,-13.393384 0,0 13.22375,-8.646532 19.83582,-5.933874 8.39584,-14.428497 26.26988,-0.559337 37.82654,2.23289 4.18844,-1.628821 19.13791,-12.913767 30.66633,1.327406 15.25847,-10.002714 28.31272,7.968209 28.31272,7.968209 0,0 21.02249,-10.680583 30.85575,13.732627 44.58818,-4.068997 38.1458,25.091366 38.1458,25.091366 0,0 35.0941,-7.968209 27.46506,26.956399 31.87291,2.20396 28.65172,23.22664 28.65172,23.22664 0,0 20.17481,15.25811 11.35892,28.99074 17.97098,0.84778 11.35891,18.14056 11.35891,18.14056 0,0 13.73263,5.25569 2.37351,26.61721 26.27821,21.02248 5.08623,41.87586 4.91673,41.70616 -0.16969,-0.16949 14.07162,16.95363 1.18666,36.61996 3.89938,31.19493 -11.86759,39.16296 -11.86759,39.16296 0,0 4.06887,20.17501 -13.56294,25.93922 -0.33899,23.73519 -22.71802,26.61738 -22.71802,26.61738 0,0 5.93389,10.31001 -16.27544,21.16045 -0.87593,15.88188 -24.07437,17.15485 -24.07437,17.15485 0,0 -2.20384,29.1602 -31.70343,21.36167 -7.15963,23.39658 -41.70597,16.44513 -42.38415,16.10614 -0.67817,-0.33918 -6.61187,-50.18288 -6.61187,-50.35258 z"/>
<path d="m599.01,420.07s-2.6164,5.0315,7.8492,9.4592"/>
<path d="m619.94,408.19s11.673-2.8176,19.522,0"/>
<path d="m654.76,378.81c0,0.20143-1.61,5.2329,7.648,12.478"/>
<path d="m661.4,365.73s6.8427,5.0315,18.315,4.8302"/>
<path d="m592.37,380.42s0.40246,13.283-6.4402,19.522"/>
<path d="m615.31,359.89s11.27,2.8176,20.529-1.8112"/>
<path d="m687.56,340.37s2.4151,3.4214,14.893,2.8178"/>
<path d="m638.86,332.52c0.40246,0.20122,14.692,4.8302,23.749,0.60388"/>
<path d="m667.43,277.77s0.60368-0.8051,5.0315,14.692"/>
<path d="m678.5,234.1s-0.60388,8.2515-7.2454,11.874"/>
<path d="m720.97,200.29s-9.6605,7.849-7.849,11.069"/>
<path d="m672.87,194.65s5.0315,8.4528-3.22,14.289"/>
<path d="m648.52,158.43s8.6542-0.4027,12.478,7.044"/>
<path d="m666.63,103.69c0,0.20119,1.8112,1.8112-1.61,5.2327"/>
<path d="m604.84,104.49s4.629,7.2453,3.8239,16.101"/>
<path d="m631.61,79.937c2.0125-0.20119,8.8554-3.2202,8.8554-3.2202"/>
<path d="m601.82,51.157c-0.20124,0-2.6164,9.0566,1.8114,12.277"/>
<path d="m590.75,92.415c0,9.6605,7.648,7.2452,2.4153,16.503"/>
<path d="m572.04,84.365c-0.20123,0-12.075,9.258-12.075,10.868"/>
<path d="m541.04,79.333s5.0315,5.0313,3.8239,11.874"/>
<path d="m499.58,73.295c-0.20123,0.40257-4.2266,9.0566-7.0441,10.667"/>
<path d="m462.96,73.497c0.20122,0,4.0251,8.0504-1.0063,13.887"/>
<path d="m397.75,106.91c0.20126,0.40242,10.264,2.0125,10.264,2.0125"/>
<path d="m372.59,130.25c0.20126-0.20136,12.277-3.8239,12.277-3.8239"/>
<path d="m353.07,145.35c0.40253,0,8.4529,1.4089,10.465,0.40255"/>
<path d="m347.43,152.79s2.6164,1.4089,0.40252,14.893"/>
<path d="m308.19,117.37,4.8302,7.2453"/>
<path d="m291.68,154.6c0-0.20134,4.8302,7.2452,11.271,8.6541"/>
<path d="m329.72,192.44c0.20127,0,7.8491-1.6102,9.0567-2.4152"/>
<path d="m326.3,219.81c0.20127,0-0.20125-5.0315,6.0378-8.4529"/>
<path d="m318.05,232.29c0,0.20124,5.8365,7.4466,9.8617,8.4529"/>
<path d="m314.63,246.18c0.60377-0.20143,6.8428-5.6356,14.088-5.2329"/>
<path d="m312.61,264.89s0.20125,6.2392,18.717,4.6292"/>
<path d="m314.43,286.83c0-0.20122,5.434-12.478,16.503-17.107"/>
<path d="m329.32,302.53s1.6101-5.2329,10.868-8.8554"/>
<path d="m339.58,323.26s6.6416-5.4339,9.0567-6.2388"/>
<path d="m347.84,339.36s4.0252,4.2264,14.088-3.019"/>
<path d="m299.33,342.78c1.2076-0.20123,15.899-3.6225,20.931,4.0253"/>
<path d="m305.17,354.86s15.497-2.0127,17.51-0.40246"/>
<path d="m360.51,358.08s-2.0126,4.2266,17.107-2.8176"/>
<path d="m384.26,365.73c-3.4214,5.8364,0.80503,10.465-3.6227,13.082"/>
<path d="m326.1,373.78c0.60378-0.40226,7.0441-2.6162,6.0378-11.874"/>
<path d="m331.94,387.66c0.80505-0.20122,11.472-4.8302,13.686-2.4151"/>
<path d="m352.87,401.15s1.4088-9.4592,4.4277-10.465"/>
<path d="m368.97,415.44s8.8554-0.20122,12.679-3.0188"/>
<path d="m386.07,383.44c0.20127,0.20123,8.2517,4.4276,25.359,0.20123"/>
<path d="m392.51,421.88s2.4151,12.277,2.2139,15.094"/>
<path d="m632.21,133.87,6.6417-0.00015"/>
<path d="m526.35,75.308s-2.6163,7.6477-6.0376,9.6604"/>
<path d="m454.5,31.836c0.20122,0.20119,0.80511,6.2389-3.0188,11.472"/>
<path d="m418.28,45.522c0,0.20134,1.6101,6.8431-9.0566,9.0568"/>
</g>
<g>
<g fill="#f7df73" stroke="#000" stroke-linejoin="round" fill-rule="evenodd">
<path d="m561.72,423.68s100.53-28.397,130.89-151.78c-17.626,126.65-127.63,166.79-127.63,166.79l-3.264-15.015z" stroke-width="2.4186"/>
<path d="m429.95,421.01s-99.612-28.908-129.69-154.51c17.464,128.92,126.46,169.79,126.46,169.79l3.234-15.285z" stroke-width="2.429"/>
</g>
<g fill="#8c1800">
<path d="m572.03,431.37c3.1074,0,10.794-8.5048,15.21-9.486,4.416-0.98118,4.9065-5.3974-0.1635-5.5607-5.07-0.1635-9.4858,5.7242-9.4858,5.7242s-4.416,3.7618-8.9953,4.2525c-4.5795,0.49068-1.6356,6.2146,3.4344,5.07z"/>
<path d="m593.45,415.67s-3.1076-1.1449,4.9065-4.2523c8.0139-3.1074,7.5232-6.7055,10.14-8.1776,2.6167-1.4719,8.1774-5.3972,9.3223-3.1074,1.1449,2.2897-5.8878,6.8692-7.5232,7.3599-1.6356,0.49069-9.6496,7.8504-11.939,8.5046-2.2897,0.65418-3.9253,0.32719-4.9065-0.32719z"/>
<path d="m419.74,428.84c-3.079,0-10.695-8.6576-15.071-9.6565-4.3755-0.99882-4.8615-5.4944,0.162-5.6606,5.0235-0.16644,9.3988,5.827,9.3988,5.827s4.3755,3.8294,8.9128,4.3289c4.5375,0.49951,1.6206,6.3264-3.4029,5.1611z"/>
<path d="m398.51,412.86s3.0791-1.1654-4.8615-4.3287c-7.9405-3.1633-7.4543-6.8261-10.047-8.3246-2.5928-1.4983-8.1024-5.4942-9.2368-3.1633s5.8339,6.9927,7.4543,7.4922c1.6206,0.4995,9.5612,7.9915,11.83,8.6574,2.2688,0.66595,3.8893,0.33307,4.8615-0.33307z"/>
<path stroke="#8c1800" stroke-width="2.4186" d="m629.92,388.19s-10.467,6.0511-8.9953,7.5232c1.4721,1.4721,10.794-5.7242,10.958-5.8876,0.1635-0.16369,3.9253-4.743-1.9626-1.6356z"/>
<path stroke="#8c1800" stroke-width="2.429" d="m362.37,384.89s10.371,6.1599,8.9128,7.6584c-1.4586,1.4985-10.695-5.827-10.857-5.9935-0.162-0.16663-3.8893-4.8282,1.9446-1.665z"/>
</g>
<g fill="none" stroke="#8c1800" stroke-linecap="round">
<path stroke-width="3.14418" d="m645.46,372.82c-6.869,7.6869-6.869,7.5234-6.869,7.5234"/>
<path stroke-width="2.90232" d="m655.76,360.23-6.542,8.0141"/>
<path stroke-width="2.66046" d="m666.07,343.87-7.3599,11.776"/>
<path stroke-width="2.4186" d="m674.74,327.19-6.0513,12.103"/>
<path stroke-width="2.4186" d="m678.66,318.36-1.9626,4.2523"/>
<path stroke-width="1.45116" d="m683.08,306.75-1.6356,5.07"/>
<path stroke-width="3.15775" d="m346.98,369.24c6.8061,7.8251,6.8061,7.6586,6.8061,7.6586"/>
<path stroke-width="2.914845" d="m336.77,356.42,6.4821,8.1582"/>
<path stroke-width="2.67194" d="m326.56,339.77,7.2925,11.987"/>
<path stroke-width="2.429" d="m317.97,322.79,5.9959,12.32"/>
<path stroke-width="2.429" d="m314.08,313.8,1.9446,4.3287"/>
<path stroke-width="1.4574" d="m309.71,301.98,1.6206,5.1611"/>
</g>
</g>
<g>
<g fill="#217900" stroke="#000" stroke-width="1.93488133" stroke-linejoin="round">
<path d="m343.56,115.74c0.0863,0,7.4767,6.4097,6.0965,16.07-1.38,9.6605-6.9591,23.09-5.8378,33.095,0.68549,4.011,0.42592,11.198,0.42592,11.198s-6.6997-9.5198-6.786-19.698,7.2549-19.842,7.2549-27.346c0-7.5041-1.3261-13.492-1.1535-13.319z"/>
<path d="m339.9,118.62s-9.6981,9.258-10.947,18.255c-0.92216,4.6376-1.2801,26.247-1.3891,35.839-0.21797,2.9426-1.4376,14.558-1.6965,18.785-0.25868,4.2264,7.1339-7.2146,7.5566-16.53-0.23134-9.6425-0.23191-29.953,0.74897-33.005,0.87192-3.9237,0.68199-8.2587,2.0308-12.194,1.7845-5.4608,3.7826-11.064,3.6963-11.15z"/>
</g>
<g fill="none" stroke="#6b18b5" stroke-linejoin="round">
<path stroke-width="1.9349" d="m276.41,180.31s6.574,9.1024,7.7539,14.328c1.18,5.2254,3.3713,15.508,6.2368,19.722,2.8656,4.214,19.216,27.644,20.059,37.421,0.16855,6.4052-6.7425,17.362-17.025,17.53-6.4054-0.16833-22.924-4.3823-23.599-18.542-0.67426-14.159,5.0569-14.497,5.7311-23.093,0.67425-8.5967,0.84282-47.197,0.84282-47.366z"/>
<path d="m389.35,56.361s-6.8061,0.48536-12.046,3.326c-4.0599,2.5035-10.937,6.1054-15.743,12.769-12.223,9.5289-30.612,13.975-36.412,21.891-3.4716,5.3855-3.2583,18.338,5.4402,23.823,5.5606,3.1839,21.865,8.1648,29.797-3.5835,7.9319-11.748,3.21-15.014,7.0999-22.71,6.4183-17.641,21.776-35.372,21.864-35.517z"/>
<path d="m554.44,39.166s-5.0831-4.5518-10.769-6.3401c-4.6226-1.1752-12.322-0.66401-20.288-1.4458-15.348-2.1526-31.171-13.253-40.892-11.912-6.2839,1.2523-15.441,10.416-13.331,20.481,1.5808,6.2095,8.5255,18.768,22.483,16.294,13.958-2.4741,13.837-5.5188,22.072-8.0777,20.085-11.262,40.56-8.9616,40.724-8.9991z"/>
<path d="m718.18,198.3c1.1458-2.6191-0.96454-7.5419-2.4637-13.311-1.4552-4.5424-3.6275-11.592-8.9417-17.858-6.3145-14.154-5.2323-33.564-11.524-41.094-4.3941-4.6633-17.019-7.5668-24.433-0.44034-4.4262,4.6333-13.177,19.264-3.6774,29.785,9.4995,10.521,13.64,6.558,20.176,12.182,15.583,10.467,23.215,28.816,30.863,30.736z"/>
<path d="m712.59,321.94c2.128-2.9464,5.9383-8.6249,5.4852-13.354-0.35873-3.7457,1.7166-15.101,1.9434-20.055,1.4084-15.434,11.069-27.962,8.4423-41.372-1.5543-6.216-10.658-15.083-20.61-12.489-6.126,1.879-19.765,9.3842-16.62,23.206,3.1459,13.822,7.6118,13.593,10.566,21.694,8.4798,16.748,3.054,36.642,10.793,42.37z"/>
</g>
<g fill="#6b18b5">
<path d="m491.8,26.96c0.00082-2.1778-2.449-3.9435-5.4712-3.9435s-5.472,1.7657-5.4712,3.9435c-0.00082,2.1778,2.449,3.9435,5.4712,3.9435s5.472-1.7657,5.4712-3.9435z"/>
<path d="m494.14,36.133c0-2.0885-2.5216-3.7816-5.6321-3.7816s-5.6321,1.6931-5.6321,3.7816,2.5216,3.7816,5.6321,3.7816,5.6321-1.6931,5.6321-3.7816z"/>
<path d="m501.14,25.271s-6.4368,4.8276-3.7815,6.7586c2.655,1.931,9.9768-4.1838,9.9768-4.1838l-6.1953-2.5748z"/>
<path d="m690.31,135.8c0.002-1.3724-0.6414-2.6413-1.687-3.3281-1.0455-0.68677-2.3342-0.68677-3.3798,0-1.0456,0.68678-1.6888,1.9558-1.687,3.3281-0.002,1.3723,0.6414,2.6413,1.687,3.3281,1.0456,0.68677,2.3342,0.68677,3.3798,0s1.6888-1.9558,1.687-3.3281z"/>
<path d="m687.86,126.59c0-2.2888-1.5806-4.1443-3.5303-4.1443-1.9498,0-3.5303,1.8554-3.5303,4.1443,0,2.2888,1.5806,4.1443,3.5303,4.1443s3.5303-1.8555,3.5303-4.1443z"/>
<path d="m689.55,145.32c0-1.1868-0.61848-2.1489-1.3814-2.1489-0.76294,0-1.3814,0.9621-1.3814,2.1489s0.61849,2.1489,1.3814,2.1489c0.76295,0,1.3814-0.96211,1.3814-2.1489z"/>
<path d="m695.23,128.59c0-1.3564-0.61849-2.456-1.3814-2.456-0.76295,0-1.3814,1.0996-1.3814,2.456s0.61848,2.456,1.3814,2.456c0.76294,0,1.3814-1.0996,1.3814-2.456z"/>
<path d="m679.72,130.28c0-1.102-0.61849-1.9954-1.3814-1.9954-0.76295,0-1.3814,0.89336-1.3814,1.9954s0.61848,1.9954,1.3814,1.9954c0.76294,0,1.3814-0.89335,1.3814-1.9954z"/>
<path d="m682.18,143.48c0.00057-1.7807-1.3053-3.2246-2.9163-3.2246-1.6111,0-2.9169,1.4439-2.9163,3.2246-0.00058,1.7807,1.3053,3.2246,2.9163,3.2246,1.6111,0,2.9169-1.4439,2.9163-3.2246z"/>
<path d="m674.5,137.64c0-1.5259-1.0995-2.7628-2.4559-2.7628-1.3563,0-2.4559,1.237-2.4559,2.7628,0,1.5259,1.0995,2.7628,2.4559,2.7628s2.4559-1.237,2.4559-2.7628z"/>
<path d="m673.28,129.82c0.001-0.82331-0.40833-1.5846-1.0736-1.9965-0.6653-0.41197-1.4853-0.41197-2.1506,0-0.66529,0.41198-1.0746,1.1732-1.0736,1.9965-0.001,0.82331,0.40831,1.5846,1.0736,1.9965,0.66531,0.41198,1.4853,0.41198,2.1506,0,0.66529-0.41197,1.0746-1.1732,1.0736-1.9965z"/>
<path d="m708.27,169.62c-3.1705-4.1843-8.2462-5.9474-11.337-3.9381-3.0907,2.0094-3.0261,7.0303,0.14438,11.215,3.1705,4.1843,8.2462,5.9474,11.337,3.9381,3.0907-2.0094,3.0261-7.0303-0.1444-11.215z"/>
<path d="m717.28,246.81c0.61438-5.1345-1.8899-9.656-5.5934-10.099-3.7035-0.44315-7.2039,3.3599-7.8183,8.4944-0.61437,5.1345,1.8899,9.656,5.5934,10.099,3.7036,0.44316,7.2039-3.3599,7.8183-8.4944z"/>
<path d="m719.18,291.75c1.0554-5.0622-1.049-9.7831-4.7005-10.544-3.6514-0.76131-7.4671,2.7253-8.5226,7.7875-1.0554,5.0622,1.049,9.7832,4.7004,10.544,3.6514,0.76132,7.4672-2.7253,8.5226-7.7875z"/>
<path d="m727.84,249.69c0-2.0345-1.3744-3.6838-3.0699-3.6838-1.6954,0-3.0699,1.6493-3.0699,3.6838s1.3744,3.6839,3.0699,3.6839c1.6954,0,3.0699-1.6493,3.0699-3.6839z"/>
<path d="m720.32,258.13-6.2932,7.1374s-5.9093,0.15343-5.6024,2.0721c0.30705,1.9186,8.1352,7.6747,8.0584,9.977-0.0768,2.3025,5.2188-0.53712,5.2188-0.53712s4.2209-12.817,4.2209-12.893c0-0.0768-0.23025-8.9028-2.5326-8.7491-2.3025,0.15343-2.9263,2.8303-3.0699,2.9933z"/>
<path d="m306.38,255.31c0-1.6541-1.341-2.9951-2.9951-2.9951-1.6542,0-2.9952,1.3409-2.9952,2.9951,0,1.6541,1.341,2.9951,2.9952,2.9951s2.9951-1.3409,2.9951-2.9951z"/>
<path d="m309.21,246.16c0-1.7461-1.341-3.1616-2.9951-3.1616-1.6542,0-2.9951,1.4155-2.9951,3.1616s1.341,3.1616,2.9951,3.1616c1.6542,0,2.9951-1.4155,2.9951-3.1616z"/>
<path d="m284.61,202.63c-1.1233-2.5177-3.4627-3.9213-5.2251-3.135-1.7624,0.78632-2.2805,3.4648-1.1572,5.9825s3.4627,3.9213,5.2251,3.135c1.7624-0.78632,2.2805-3.4648,1.1572-5.9825z"/>
<path d="m292.04,229.75c-1.5431-3.2632-4.7567-5.0823-7.1777-4.0632s-3.1327,4.4906-1.5896,7.7538,4.7567,5.0823,7.1777,4.0632,3.1327-4.4906,1.5896-7.7538z"/>
<path d="m299.99,249.63c0.49995-4.0758-1.1889-7.8199-3.7722-8.3627-2.5833-0.54278-5.0828,2.3213-5.5827,6.3971-0.49995,4.0758,1.1889,7.8199,3.7722,8.3627,2.5833,0.54278,5.0828-2.3213,5.5827-6.3971z"/>
<path d="m287.23,252.54c1.5978-3.7828,0.99957-7.8464-1.3361-9.0763s-5.5243,0.83956-7.1221,4.6223c-1.5978,3.7828-0.99957,7.8464,1.3361,9.0763s5.5243-0.83957,7.1221-4.6223z"/>
<path d="m281.42,243.99c0-1.9299-1.49-3.4944-3.3279-3.4944-1.838,0-3.3279,1.5645-3.3279,3.4944s1.49,3.4945,3.3279,3.4945c1.838,0,3.3279-1.5645,3.3279-3.4945z"/>
<path d="m278.76,235.34c0-1.7461-1.341-3.1616-2.9952-3.1616s-2.9951,1.4155-2.9951,3.1616,1.341,3.1616,2.9951,3.1616c1.6542,0,2.9952-1.4155,2.9952-3.1616z"/>
<path d="m281.58,218.7c0-2.9408-1.3037-5.3248-2.912-5.3248-1.6082,0-2.9119,2.384-2.9119,5.3248s1.3037,5.3248,2.9119,5.3248,2.912-2.384,2.912-5.3248z"/>
<path d="m290.54,217.42c0.38801-2.9151-0.58979-5.4502-2.184-5.6624-1.5942-0.21218-3.201,1.979-3.589,4.8941-0.38799,2.9151,0.5898,5.4502,2.184,5.6624,1.5942,0.21218,3.201-1.979,3.589-4.8941z"/>
<path d="m354.39,90.042c1.1868-4.1283-0.0372-8.2775-2.7339-9.2673-2.6967-0.98984-5.845,1.5544-7.0318,5.6828-1.1868,4.1283,0.0372,8.2775,2.7339,9.2673,2.6967,0.98984,5.845-1.5544,7.0318-5.6828z"/>
<path d="m342.27,108.42c3.5565-3.0269,5.0759-7.2124,3.3936-9.3486-1.6823-2.1361-5.9293-1.414-9.4858,1.6129s-5.0759,7.2124-3.3936,9.3486,5.9293,1.414,9.4858-1.6129z"/>
<path d="m335.19,98.217c3.517-2.5985,5.0195-6.1916,3.3559-8.0255-1.6636-1.8338-5.8634-1.2139-9.3805,1.3846-3.517,2.5985-5.0195,6.1916-3.3559,8.0255,1.6636,1.8338,5.8634,1.2139,9.3805-1.3846z"/>
<path d="m362.46,80.281c2.3718-1.8131,3.385-4.3202,2.2631-5.5997s-3.9541-0.84699-6.3258,0.96612c-2.3718,1.8131-3.385,4.3202-2.2631,5.5997s3.954,0.84699,6.3258-0.96612z"/>
<path d="m348.25,97.659c1.6219-2.5064,1.7308-5.2083,0.24334-6.0348-1.4875-0.82655-4.0082,0.53523-5.6301,3.0416s-1.7308,5.2083-0.24334,6.0348c1.4875,0.82655,4.0082-0.53523,5.6301-3.0416z"/>
<path d="m368.76,86.92c2.5506-2.1495,3.5444-4.9969,2.2197-6.3598s-4.4663-0.72518-7.017,1.4244c-2.5506,2.1495-3.5444,4.9969-2.2197,6.3598s4.4663,0.72518,7.017-1.4244z"/>
<path d="m331.69,111.97c2.3843-0.11899,4.1842-1.3067,4.02-2.6528-0.16412-1.3461-2.23-2.3409-4.6144-2.2219-2.3843,0.11898-4.1841,1.3067-4.02,2.6528,0.16411,1.3461,2.23,2.3409,4.6143,2.222z"/>
<path d="m376.57,73.606c1.6219-2.5064,1.7308-5.2083,0.24334-6.0348-1.4875-0.82655-4.0082,0.53523-5.6301,3.0416s-1.7308,5.2083-0.24334,6.0348c1.4875,0.82655,4.0082-0.53523,5.6301-3.0416z"/>
</g>
<g fill="#ffd200" stroke="#ef8a10" stroke-width="1.93488133">
<path d="m553.24,88.375s12.574-5.8004,16.169-16.603c3.5942-10.802-10.882-10.906-12.795-7.4727-1.9124,3.4337,1.6313,11.983,0.71862,14.243-0.91288,2.26-6.0283,7.7162-4.0925,9.8326z"/>
<path stroke-width="2.4186" d="m441.8,92.316s8.1629-11.186,6.0466-22.372c-2.1164-11.186-14.814-4.2327-14.814-0.30232s7.2558,9.6746,7.5582,12.093c0.30223,2.4186-1.5117,9.6744,1.2093,10.581z"/>
<path stroke-width="2.4186" d="m419.73,98.967s8.1629-11.186,6.0465-22.372-14.814-4.2327-14.814-0.30232,7.2558,9.6746,7.5582,12.093c0.30223,2.4186-1.5117,9.6744,1.2093,10.581z"/>
<path stroke-width="2.4186" d="m395.24,106.53s8.1629-11.186,6.0466-22.372c-2.1164-11.186-14.814-4.2327-14.814-0.30232s7.2558,9.6746,7.5582,12.093c0.30223,2.4186-1.5117,9.6744,1.2093,10.581z"/>
<path stroke-width="2.4186" d="m378.01,123.76s8.1629-11.186,6.0465-22.372-14.814-4.2327-14.814-0.30232,7.2558,9.6746,7.5582,12.093c0.30223,2.4186-1.5117,9.6744,1.2093,10.581z"/>
<path stroke-width="2.4186" d="m359.87,140.39s8.1629-11.186,6.0465-22.372-14.814-4.2327-14.814-0.30232,7.2558,9.6746,7.5582,12.093c0.30223,2.4186-1.5117,9.6744,1.2093,10.581z"/>
<path d="m401.57,43.519s-10.87,8.5789-11.84,19.922c-0.9698,11.343,13.13,8.0606,14.187,4.2751,1.057-3.7856-4.3868-11.269-4.0276-13.68,0.35932-2.4108,4.0577-8.9115,1.6809-10.517z"/>
<path d="m437.85,32.333s-10.87,8.5789-11.84,19.922c-0.96981,11.343,13.13,8.0606,14.187,4.2751,1.057-3.7856-4.3868-11.269-4.0276-13.68,0.35933-2.4108,4.0577-8.9115,1.6809-10.517z"/>
<path d="m302.66,130.27s2.2963,13.656,11.776,19.96c9.48,6.3037,13.38-7.6378,10.569-10.385-2.8112-2.7468-11.991-1.5714-13.932-3.0453-1.9412-1.4741-5.8632-7.8423-8.4136-6.53z"/>
<path d="m284.54,176.64s0.11238,13.847,8.4788,21.568c8.3664,7.7207,14.418-5.4306,12.076-8.5865-2.3425-3.156-11.592-3.444-13.277-5.2058-1.6842-1.762-4.5521-8.6694-7.2776-7.7759z"/>
<path d="m326.34,228.44s-4.9424-12.936-15.479-17.248c-10.536-4.3119-11.613,10.125-8.3155,12.264,3.2974,2.1388,12.065-0.82252,14.259,0.24011,2.1936,1.0626,7.2936,6.5329,9.5354,4.744z"/>
<path d="m317.66,206.05s8.3793-11.025,6.481-22.25-14.729-4.5203-14.805-0.59063c-0.0764,3.9296,7.0662,9.8139,7.3214,12.238,0.25509,2.424-1.6996,9.643,1.003,10.603z"/>
<path d="m578.94,99.561s12.574-5.8004,16.169-16.603c3.5942-10.802-10.882-10.906-12.795-7.4727-1.9124,3.4337,1.6313,11.983,0.71862,14.243-0.91288,2.26-6.0283,7.7162-4.0925,9.8326z"/>
<path d="m616.97,118.53s7.3965-11.707,4.5367-22.726-15.064-3.2326-14.801,0.68905c0.26295,3.9215,7.8866,9.1676,8.3502,11.561,0.46321,2.393-0.86141,9.7539,1.9142,10.477z"/>
<path d="m720.74,226.27s-4.9601-12.929-15.502-17.226c-10.542-4.2976-11.599,10.141-8.2989,12.275,3.3005,2.1342,12.064-0.83896,14.259,0.22038,2.1951,1.0597,7.3024,6.5233,9.5419,4.7308z"/>
<path d="m670,234.3s0.28772-13.845,8.7511-21.459c8.4636-7.6145,14.348,5.6121,11.966,8.7385-2.3824,3.126-11.635,3.2968-13.342,5.0373-1.7064,1.7406-4.6611,8.6112-7.3754,7.6832z"/>
<path d="m661.83,87.484s-12.945-4.9172-23.175,0.07937c-10.23,4.9968-0.16872,15.406,3.6223,14.367,3.7906-1.0386,7.4135-9.5536,9.6665-10.485,2.253-0.93052,9.7301-1.0977,9.8859-3.962z"/>
<path d="m632.21,62.693s-12.945-4.9172-23.175,0.07937c-10.23,4.9968-0.16872,15.406,3.6223,14.367,3.7906-1.0385,7.4135-9.5537,9.6665-10.485,2.253-0.93052,9.7301-1.0977,9.8859-3.962z"/>
<path d="m588.02,39.053s-10.975,8.4448-12.084,19.775c-1.1087,11.331,13.03,8.2212,14.133,4.4487,1.1033-3.7723-4.248-11.322-3.8595-13.729,0.38891-2.4064,4.167-8.861,1.8097-10.495z"/>
<path d="m559.27,32.131s-5.0048,12.912-0.0772,23.175,15.404,0.27293,14.391-3.525c-1.0127-3.7976-9.5034-7.4779-10.419-9.7372-0.9154-2.2592-1.0321-9.7372-3.8953-9.9123z"/>
<path d="m477.66,81.887s8.9517-10.565,7.6509-21.875c-1.3006-11.31-14.468-5.295-14.753-1.3747-0.28481,3.92,6.5356,10.174,6.6622,12.609,0.12635,2.4343-2.2087,9.5394,0.4398,10.641z"/>
</g>
<g fill="#de2010" stroke="#000" stroke-width="2.38277">
<path d="m701.62,233.11c-0.50236-4.0492-2.4537-7.607-5.117-9.3315-2.6632-1.7245-5.6335-1.3532-7.7903,0.97376s-3.172,6.2556-2.6626,10.304c0.50235,4.0492,2.4537,7.607,5.117,9.3315,2.6632,1.7245,5.6335,1.3532,7.7902-0.97377,2.1568-2.327,3.172-6.2556,2.6626-10.304z"/>
<path d="m699.95,212.66c-0.50236-4.0492-2.4537-7.607-5.117-9.3315-2.6632-1.7245-5.6335-1.3532-7.7903,0.97377s-3.172,6.2556-2.6626,10.304c0.50235,4.0492,2.4537,7.607,5.117,9.3315,2.6632,1.7245,5.6335,1.3532,7.7902-0.97377,2.1568-2.327,3.172-6.2556,2.6626-10.304z"/>
<path d="m695.8,190.82c-0.85624-3.9894-3.1127-7.362-5.9172-8.8458s-5.7306-0.85294-7.6745,1.6546c-1.944,2.5076-2.61,6.5102-1.7468,10.498,0.85624,3.9894,3.1127,7.362,5.9172,8.8458s5.7306,0.85294,7.6746-1.6546c1.944-2.5076,2.61-6.5102,1.7468-10.498z"/>
<path d="m688.23,168c-1.8449-3.6393-4.8866-6.3252-7.9767-7.0451-3.0901-0.71985-5.7587,0.63609-6.9992,3.5563-1.2405,2.9203-0.86415,6.9604,0.98712,10.597,1.8449,3.6393,4.8866,6.3252,7.9767,7.0451,3.09,0.71985,5.7587-0.6361,6.9992-3.5563,1.2405-2.9203,0.86415-6.9604-0.98712-10.597z"/>
<path d="m680.14,149.69c-1.8449-3.6393-4.8866-6.3252-7.9767-7.0451-3.0901-0.71985-5.7587,0.63609-6.9992,3.5563-1.2405,2.9203-0.86415,6.9604,0.98712,10.597,1.8449,3.6393,4.8866,6.3252,7.9767,7.0451,3.09,0.71985,5.7587-0.6361,6.9992-3.5563,1.2405-2.9203,0.86415-6.9604-0.98712-10.597z"/>
<path d="m668.64,131.28c-2.1465-3.47-5.4047-5.8887-8.5446-6.3443s-5.6841,1.1215-6.6729,4.1363c-0.98876,3.0148-0.27162,7.0086,1.8809,10.475,2.1465,3.47,5.4047,5.8887,8.5446,6.3443,3.1399,0.45559,5.6841-1.1215,6.6729-4.1363,0.98877-3.0148,0.27162-7.0086-1.8809-10.475z"/>
<path d="m655.85,113.54c-2.4719-3.2462-5.9486-5.3386-9.1179-5.4885-3.1692-0.14991-5.5491,1.6657-6.2418,4.762-0.69268,3.0963,0.40721,7.002,2.8848,10.244,2.4719,3.2462,5.9486,5.3386,9.1179,5.4885,3.1693,0.14991,5.5491-1.6657,6.2418-4.762,0.69268-3.0963-0.40721-7.002-2.8848-10.244z"/>
<path d="m640.59,96.996c-2.9164-2.8536-6.6597-4.4199-9.8172-4.1088-3.1575,0.31109-5.249,2.4525-5.4856,5.6165-0.23652,3.164,1.4179,6.8691,4.3393,9.7176,2.9164,2.8536,6.6597,4.4199,9.8172,4.1088,3.1575-0.31109,5.249-2.4525,5.4855-5.6165,0.23652-3.164-1.4179-6.8691-4.3393-9.7176z"/>
<path d="m623.41,81.776c-3.1665-2.5733-7.038-3.7886-10.154-3.1884-3.1155,0.60021-5.0012,2.925-4.9457,6.0973s2.0438,6.7095,5.2147,9.2772c3.1665,2.5733,7.038,3.7886,10.154,3.1884,3.1155-0.60021,5.0012-2.925,4.9457-6.0973s-2.0438-6.7095-5.2147-9.2772z"/>
<path d="m605.21,69.628c-3.5497-2.0119-7.5693-2.5676-10.542-1.4585-2.9726,1.1091-4.4462,3.7146-3.8648,6.8337s3.1293,6.2771,6.6825,8.2828c3.5497,2.0119,7.5693,2.5676,10.542,1.4585,2.9726-1.1091,4.4462-3.7146,3.8648-6.8337s-3.1293-6.2771-6.6825-8.2828z"/>
<path d="m584.84,58.844c-3.7181-1.6805-7.7716-1.8681-10.631-0.49302-2.8594,1.375-4.0897,4.1039-3.2268,7.1571,0.86286,3.0532,3.6876,5.9663,7.4086,7.6402,3.7181,1.6805,7.7716,1.8681,10.631,0.49302,2.8594-1.375,4.0897-4.1039,3.2268-7.1571-0.86285-3.0532-3.6876-5.9663-7.4086-7.6402z"/>
<path d="m564.86,50.799c-3.8224-1.4274-7.8794-1.3428-10.64,0.22081-2.7607,1.5636-3.8053,4.3688-2.7397,7.3573s4.0793,5.7056,7.9042,7.1263c3.8224,1.4274,7.8794,1.3428,10.64-0.22081,2.7607-1.5636,3.8053-4.3688,2.7397-7.3573s-4.0793-5.7056-7.9042-7.1263z"/>
<path d="m544.56,44.43c-3.9202-1.1315-7.9588-0.73759-10.592,1.0322-2.6334,1.7698-3.4608,4.6465-2.1702,7.5449,1.2906,2.8985,4.5028,5.3777,8.425,6.5023,3.9202,1.1315,7.9588,0.73759,10.592-1.0322,2.6334-1.7698,3.4608-4.6465,2.1702-7.5449-1.2906-2.8985-4.5028-5.3777-8.425-6.5023z"/>
<path d="m522.21,40.62c-4.0477-0.51427-7.9775,0.49696-10.307,2.6512-2.3294,2.1542-2.7039,5.1241-0.98236,7.7892,1.7216,2.6651,5.2773,4.62,9.3259,5.1272,4.0477,0.51427,7.9775-0.49696,10.307-2.6512,2.3294-2.1542,2.7039-5.1241,0.98236-7.7892-1.7216-2.6651-5.2773-4.62-9.3259-5.1272z"/>
<path d="m500.15,39.375c-4.0768-0.16747-7.9061,1.175-10.043,3.5199-2.1373,2.3449-2.2574,5.3358-0.31502,7.8446,1.9424,2.5087,5.6518,4.1535,9.7289,4.3139,4.0768,0.16747,7.9061-1.175,10.043-3.5199,2.1373-2.3449,2.2574-5.3358,0.31501-7.8446-1.9424-2.5087-5.6518-4.1535-9.7289-4.3139z"/>
<path d="m479.94,40.089c-4.0768-0.16747-7.9061,1.175-10.043,3.5199-2.1373,2.3449-2.2574,5.3358-0.31502,7.8446,1.9424,2.5087,5.6518,4.1535,9.7289,4.3139,4.0768,0.16747,7.9061-1.175,10.043-3.5199,2.1373-2.3449,2.2574-5.3358,0.31501-7.8446-1.9424-2.5087-5.6518-4.1535-9.7289-4.3139z"/>
<path d="m456.25,42.895c-3.9785,0.90558-7.3229,3.2036-8.7718,6.0263-1.449,2.8226-0.78191,5.7407,1.7495,7.6535s6.542,2.5291,10.519,1.6166c3.9785-0.90558,7.3228-3.2036,8.7718-6.0263,1.449-2.8226,0.78192-5.7407-1.7495-7.6535s-6.542-2.5291-10.519-1.6166z"/>
<path d="m434.7,48.296c-3.8902,1.2306-7.0337,3.7967-8.2449,6.7292s-0.30576,5.7856,2.3748,7.4831,6.7283,1.9809,10.616,0.74352c3.8902-1.2306,7.0337-3.7967,8.2449-6.7292s0.30576-5.7856-2.3748-7.4831-6.7283-1.9809-10.616-0.74352z"/>
<path d="m415.04,56.715c-3.7159,1.6852-6.5314,4.6075-7.3847,7.6634-0.85329,3.0559,0.38555,5.7809,3.2492,7.147,2.8637,1.3661,6.9164,1.1654,10.629-0.5263,3.7159-1.6852,6.5314-4.6075,7.3847-7.6634s-0.38555-5.7809-3.2492-7.147c-2.8637-1.3661-6.9164-1.1654-10.629,0.5263z"/>
<path d="m395.43,66.766c-3.5586,1.9961-6.1145,5.1479-6.704,8.2654-0.58948,3.1176,0.87731,5.7269,3.8471,6.8437s6.9906,0.57113,10.546-1.4312c3.5586-1.9961,6.1145-5.1479,6.704-8.2654,0.58948-3.1176-0.87731-5.7269-3.8471-6.8437s-6.9906-0.57113-10.546,1.4312z"/>
<path d="m376.88,79.349c-3.3206,2.371-5.5189,5.7818-5.7661,8.945-0.24721,3.1632,1.4944,5.5977,4.568,6.3851,3.0736,0.78747,7.0113-0.19191,10.328-2.5687,3.3206-2.371,5.5189-5.7818,5.7661-8.945,0.24721-3.1632-1.4944-5.5977-4.568-6.3851-3.0736-0.78747-7.0112,0.19191-10.328,2.5687z"/>
<path d="m359.71,92.358c-3.1081,2.6435-5.0099,6.2281-4.9886,9.4008s1.9627,5.4511,5.0919,5.9757c3.1292,0.52459,6.9699-0.78445,10.073-3.4333,3.1081-2.6435,5.0099-6.2281,4.9885-9.4008-0.0213-3.1727-1.9627-5.4511-5.0918-5.9757-3.1292-0.52459-6.9699,0.78446-10.073,3.4333z"/>
<path d="m344.56,108.19c-2.9106,2.8595-4.5504,6.5713-4.3016,9.7343,0.24877,3.163,2.3486,5.2964,5.5072,5.5952,3.1587,0.29886,6.8957-1.2822,9.8012-4.1468,2.9106-2.8595,4.5504-6.5713,4.3016-9.7343-0.24876-3.163-2.3485-5.2964-5.5072-5.5952-3.1587-0.29885-6.8957,1.2822-9.8012,4.1468z"/>
<path d="m331.51,125.79c-2.661,3.0931-3.9844,6.9291-3.4718,10.06,0.51264,3.1311,2.7836,5.0812,5.9562,5.1146s6.7642-1.8549,9.4198-4.9526c2.661-3.0931,3.9844-6.9291,3.4718-10.06-0.51264-3.1311-2.7836-5.0812-5.9562-5.1146s-6.7642,1.8549-9.4198,4.9526z"/>
<path d="m319.58,143.81c-2.316,3.3593-3.2227,7.3145-2.3791,10.373,0.84363,3.0586,3.3096,4.7554,6.4677,4.4503,3.1581-0.30511,6.5278-2.5657,8.8379-5.929,2.316-3.3593,3.2227-7.3145,2.3791-10.373-0.84363-3.0586-3.3096-4.7554-6.4677-4.4503-3.1581,0.30511-6.5278,2.5657-8.8379,5.929z"/>
<path d="m309.64,164.24c-1.7045,3.7072-1.9183,7.7594-0.56184,10.628,1.3565,2.8682,4.0773,4.1162,7.136,3.2731,3.0588-0.84308,5.99-3.6489,7.688-7.359,1.7045-3.7072,1.9183-7.7594,0.56184-10.628-1.3565-2.8682-4.0773-4.1162-7.136-3.2731-3.0588,0.84308-5.99,3.6489-7.688,7.359z"/>
<path d="m301.77,185.59c-1.3614,3.8464-1.207,7.9013,0.40393,10.635,1.6109,2.7334,4.4337,3.7296,7.4034,2.6127s5.6346-4.1769,6.9892-8.0257c1.3614-3.8464,1.207-7.9013-0.40393-10.635-1.6109-2.7334-4.4337-3.7296-7.4034-2.6127s-5.6346,4.1769-6.9892,8.0257z"/>
<path stroke-width="2.1334" d="m294.94,226.01c-0.38059,3.2566,0.75959,6.3785,2.9894,8.1879s5.2104,2.031,7.8173,0.58131c2.607-1.4498,4.4436-4.3503,4.8171-7.6074,0.3806-3.2566-0.75959-6.3785-2.9894-8.1879s-5.2104-2.031-7.8173-0.5813c-2.607,1.4498-4.4436,4.3503-4.8171,7.6074z"/>
<path d="m296.76,207.14c-0.91046,3.9774-0.29124,7.9877,1.6231,10.518,1.9143,2.5302,4.8328,3.1955,7.6545,1.7448,2.8218-1.4507,5.1174-4.7966,6.0209-8.7755,0.91046-3.9774,0.29123-7.9876-1.6231-10.518-1.9143-2.5302-4.8328-3.1955-7.6545-1.7448-2.8218,1.4507-5.1174,4.7966-6.0209,8.7755z"/>
</g>
<g fill="#ffe300">
<path d="m685.33,197.47c2.4854-2.6607,4.7977-3.413,7.7239-2.4427-1.0319-7.0192-3.2529-9.4006-5.9587-8.5554-2.7057,0.84519-3.9303,4.4536-1.7652,10.998z"/>
<path d="m689.13,218.66c2.6788-2.4658,5.0415-3.0416,7.8862-1.8536-0.49998-7.077-2.5355-9.6191-5.2971-8.9802-2.7617,0.6389-4.2546,4.1447-2.5891,10.834z"/>
<path d="m680.14,178.14c1.7282-3.2047,3.7738-4.5196,6.8502-4.3242-2.7806-6.527-5.5336-8.2663-7.9361-6.7616-2.4024,1.5046-2.6703,5.3057,1.0859,11.086z"/>
<path d="m670.71,158.86c1.7282-3.2047,3.7738-4.5196,6.8502-4.3242-2.7806-6.527-5.5336-8.2663-7.9361-6.7616-2.4024,1.5046-2.6703,5.3057,1.0859,11.086z"/>
<path d="m648.1,123.54c1.1907-3.4408,2.9985-5.0674,6.0662-5.369-3.7935-5.9952-6.7903-7.2694-8.9196-5.3982s-1.783,5.6659,2.8534,10.767z"/>
<path d="m633.32,108.15c1.0599-3.4833,2.8048-5.1771,5.859-5.5945-4.0174-5.8476-7.0602-7.0076-9.1172-5.0572-2.0572,1.9503-1.5676,5.7293,3.2582,10.652z"/>
<path d="m602.26,81.935c-0.0644-3.6404,1.074-5.7893,3.8512-7.127-5.6232-4.326-8.8753-4.4925-10.231-2.0035-1.3565,2.4891,0.27302,5.9336,6.3803,9.1305z"/>
<path d="m618.42,94.057c0.56691-3.5966,2.0602-5.5159,5.027-6.3525-4.789-5.2344-7.9632-5.9615-9.7299-3.7449-1.7671,2.2166-0.75848,5.8912,4.7029,10.097z"/>
<path d="m583.81,71.756c-0.4396-3.6144,0.47096-5.8692,3.0952-7.4863-6.0394-3.7227-9.2915-3.5528-10.384-0.93706-1.0924,2.6158,0.88386,5.8737,7.2883,8.4234z"/>
<path d="m564.96,63.528c-0.95234-3.5143-0.37382-5.8762,1.992-7.8522-6.5099-2.8202-9.7042-2.1866-10.411,0.55846-0.70701,2.7452,1.7153,5.6868,8.4187,7.2938z"/>
<path d="m544.65,57.235c-1.2464-3.421-0.86992-5.8235,1.32-7.9927-6.7252-2.259-9.8544-1.3572-10.326,1.4378-0.47212,2.7952,2.1905,5.5212,9.0059,6.5549z"/>
<path d="m524.7,53.373c-1.4906-3.3219-1.2888-5.7453,0.73855-8.0672-6.8711-1.7667-9.9267-0.64101-10.195,2.1808-0.26875,2.8221,2.584,5.3483,9.4563,5.8864z"/>
<path d="m503.57,51.753c-1.8271-3.1494-1.8776-5.5807-0.10196-8.1003-7.0172-1.0447-9.9397,0.39174-9.9138,3.2261,0.0253,2.8347,3.1246,5.0515,10.016,4.8742z"/>
<path d="m462.21,54.869c-2.5324-2.616-3.1674-4.9634-2.0518-7.8368-7.0621,0.67789-9.5519,2.7765-8.8436,5.521,0.70797,2.745,4.2504,4.1492,10.895,2.3157z"/>
<path d="m482.57,52.189c-2.1551-2.9348-2.4666-5.3465-0.97229-8.0424-7.0888-0.28422-9.8398,1.4581-9.5094,4.2733,0.32989,2.8155,3.6496,4.6863,10.482,3.7691z"/>
<path d="m442.23,59.185c-2.8813-2.2259-3.8463-4.458-3.1541-7.4616-6.892,1.6834-9.0552,4.1173-7.9606,6.7319,1.0942,2.6151,4.8013,3.4969,11.115,0.7297z"/>
<path d="m403.98,76.772c-3.2521-1.6372-4.6241-3.645-4.5159-6.7254-6.4459,2.9637-8.1066,5.7647-6.5347,8.1233,1.5717,2.3592,5.3788,2.5197,11.051-1.398z"/>
<path d="m422.42,67.35c-3.0292-2.02-4.1472-4.1796-3.6657-7.224-6.7581,2.1589-8.7467,4.7375-7.4729,7.2696,1.2735,2.5326,5.033,3.1543,11.139-0.04555z"/>
<path d="m369.67,100.66c-3.5219-0.92352-5.2822-2.6013-5.8183-5.6366-5.6867,4.242-6.7272,7.3275-4.6983,9.3068,2.0288,1.9798,5.7859,1.3434,10.517-3.6703z"/>
<path d="m386.04,87.263c-3.4388-1.1964-5.0623-3.0068-5.3592-6.0747-6.0013,3.7838-7.2802,6.7784-5.4124,8.9105,1.8676,2.1326,5.6629,1.7922,10.772-2.8358z"/>
<path d="m355.13,114.99c-3.5912-0.59954-5.4968-2.1103-6.3066-5.0843-5.2776,4.7413-6.0333,7.9087-3.8328,9.6954,2.2004,1.7872,5.884,0.8119,10.139-4.6111z"/>
<path d="m342.09,131.9c-3.6308-0.27111-5.6656-1.6027-6.7421-4.4909-4.8254,5.2008-5.2905,8.4237-2.9369,10.003,2.3535,1.5801,5.9334,0.27444,9.679-5.5124z"/>
<path d="m331.19,149.2c-3.6295,0.2881-5.8442-0.71618-7.3503-3.4054-3.9721,5.8784-3.9381,9.1345-1.3704,10.335,2.5678,1.2011,5.9055-0.63741,8.7207-6.9296z"/>
<path d="m321.61,167.67c-3.5615,0.75666-5.8878,0.0483-7.73-2.4229-3.1757,6.3441-2.7195,9.5683-0.0177,10.425,2.7019,0.85774,5.7728-1.3983,7.7478-8.0026z"/>
<path d="m313.95,186.62c-3.3966,1.3114-5.8058,0.98047-8.0163-1.1675-2.1304,6.7671-1.1692,9.8783,1.6342,10.297,2.8037,0.41883,5.4784-2.2953,6.382-9.1291z"/>
<path d="m308.82,207.75c-3.3012,1.5359-5.7271,1.3668-8.0764-0.62825-1.6727,6.8946-0.50531,9.9344,2.3199,10.164,2.8254,0.23006,5.3124-2.657,5.7566-9.5359z"/>
<path d="m306.73,225.33c-3.1078,1.646-5.5296,1.8405-8.0697,0.59614-0.92446,5.6189,0.55546,7.8398,3.3793,7.6391,2.8241-0.20045,4.9816-2.794,4.6904-8.2352z"/>
<path d="m662.3,141.68c1.2428-3.4223,3.0749-5.0212,6.1469-5.2762-3.702-6.0522-6.679-7.3718-8.8366-5.5331-2.1574,1.8386-1.8687,5.6382,2.6897,10.809z"/>
<path d="m691.45,240.12c2.6788-2.4658,5.0415-3.0416,7.8862-1.8536-0.49997-7.077-2.5355-9.6191-5.2971-8.9802-2.7617,0.6389-4.2546,4.1447-2.5891,10.834z"/>
</g>
<path d="m646.9,149.66s7.3965-11.707,4.5367-22.726-15.064-3.2326-14.801,0.68906c0.26295,3.9215,7.8866,9.1676,8.3502,11.561,0.4632,2.393-0.86142,9.7539,1.9142,10.477z" fill="#ffd200" stroke="#ef8a10" stroke-width="1.008"/>
<g fill="#217900" stroke="#000" stroke-width="2.4186" stroke-linejoin="round">
<path stroke-width="1.9349" d="m663.67,124.92c-0.0863,0-8.0216,7.9354-6.6415,17.596,1.38,9.6605,7.504,21.564,6.3828,31.569-1.1215,10.006-2.9327,16.647-2.9327,16.647s9.3155-10.609,9.4018-20.787-6.383-23.548-6.383-31.052c0-7.5041,0.34519-14.146,0.17259-13.973z"/>
<path stroke-width="1.9349" d="m678.42,157.35s-6.2104,4.5715-5.6065,15.095c0.60369,10.523,11.472,29.844,11.472,29.844s7.9355,16.302,7.6766,20.529c-0.25869,4.2264,1.4664-4.0538,0.69017-13.369-0.77627-9.3155-12.766-29.844-12.766-29.844s-2.5877-4.2263-2.3288-11.213c0.25869-6.9867,0.94886-10.954,0.86257-11.041z"/>
<path d="m505.65,52.293s26.653,1.0353,26.825,18.286c-0.0863,2.674-0.00019,5.8651-0.94886,13.542,5.2615-2.8462,8.7981-10.782,8.1079-15.871,0.0863-17.51-23.806-29.499-33.984-15.957z"/>
<path d="m488.75,51.517s21.477-4.4853,21.65,12.766c0.17259,17.251-6.8141,20.011-6.8141,20.011s16.475-3.5365,16.561-21.046c0.0863-17.51-21.218-25.272-31.397-11.731z"/>
<path d="m697.38,249.19c0.49396,7.7393,8.0686,15.149,5.1048,28.652-3.7873,15.314-17.125,51.705-14.82,58.127-3.952-5.4341-3.2934-10.539-3.6227-18.113-0.32931-7.5745,11.032-35.732,12.021-45.283-0.00019-8.5624,0.82311-20.254,1.3171-23.382z"/>
<path d="m697.38,249.36s12.35,15.643,11.691,27.993c-0.65862,12.35-7.5747,26.84-5.2693,33.262-3.952-5.4341-4.9399-8.8921-5.2693-16.467-0.32931-7.5745,6.0926-15.973,4.7753-24.206-1.3175-8.2333-6.0928-20.583-5.9281-20.583z"/>
<path d="m292.82,252.81c-0.49397,7.7393-6.2574,14.655-3.2936,28.158,3.7873,15.314,17.29,34.744,15.149,56.974,3.952-5.4343,5.1048-11.527,5.4341-19.102,0.32931-7.5745-14.984-33.098-15.973-42.648,0.00019-8.5624-0.8231-20.254-1.3171-23.382z"/>
<path d="m292.82,252.98s-12.021,15.149-11.362,27.499c0.16465,8.2331,15.314,42.648,13.009,49.07,3.952-5.4339,5.1046-4.7755,4.9398-13.009-4.446-21.077-12.35-34.58-11.032-42.813,1.3175-8.2333,4.6108-20.748,4.4462-20.748z"/>
</g>
</g>
<g fill="none" stroke="#000" stroke-width="1.9349">
<path fill="#8c8a8c" d="m526.38,104.56s21.457,1.3504,22.508,13.655c1.0502,12.304-5.1017,19.807-5.1017,19.807s2.7009,26.559-18.306,34.361c-22.508,2.701-57.769,0.60024-57.769,0.60024s-10.354,2.551-14.555-18.906c-4.2014-21.457-5.4018-36.612-5.4018-36.612s2.1007-12.004,17.256-12.754c15.155-0.75019,61.22,0.15013,61.371-0.14998z"/>
<path stroke-linecap="round" d="m543.63,137.87s-11.554,14.405-10.353,20.257"/>
<path fill="#8c8a8c" d="m528.18,171.63c2.851,2.4008,5.5518,5.1016,6.152,13.955,0.6002,8.853,1.2004,17.706,1.2004,17.706l15.005,135.05,13.204,97.683,0.9003,15.155s-3.151,11.104-12.004,12.004c-6.452,13.504-41.414,17.406-44.865,17.256-3.151-0.14996-14.255-4.8016-21.007-4.2014-6.7524,0.60001-18.456,5.1015-23.708,4.3514-5.2516-0.75015-17.106-4.8016-19.206-13.354-14.705-4.6516-17.106-15.905-17.106-15.905l15.905-112.99,15.455-142.85s1.8006-19.056,9.4531-21.907c7.9527-0.7502,49.066,0.7502,60.62-1.9506z"/>
<path d="m447.15,367.15-3.151,99.934"/>
<path d="m544.23,380.35,8.853,82.378"/>
<path fill="#fff" stroke-width="2.0159" stroke-linejoin="round" d="m498.19,114.45,29.923,92.093,96.82,0.004-78.327,56.92,29.916,92.095-78.331-56.915-78.331,56.914,29.916-92.095-78.327-56.92,96.82-0.004z"/>
</g>
</g>
</svg>