<?xml version="1.0" encoding="UTF-8"?>

<svg xmlns="http://www.w3.org/2000/svg" viewBox="0 0 1200 600" width="1200" height="600">

<clipPath id="c">
<path d="M0,0V150H700V300H600zM600,0H300V350H0V300z"/>
</clipPath>
<rect width="1200" height="600" fill="#00247d"/>
<path d="M0,0 600,300M600,0 0,300" stroke="#fff" stroke-width="60"/>
<path d="M0,0 600,300M600,0 0,300" stroke="#cf142b" stroke-width="40" clip-path="url(#c)"/>
<path d="M300,0V350M0,150H700" stroke="#fff" stroke-width="100"/>
<path d="M300,0V350M0,150H700" stroke="#cf142b" stroke-width="60"/>
<path d="M0,300H600V0H1200V600H0z" fill="#00247d"/>
<g>

<path fill="#fff" d="m769.466,147.526,256.879,0-0.306,182.787c2.1373,73.4798-43.6616,119.076-127.931,139.634-59.834-14.86-128.837-45.596-128.939-137.549l0.30537-184.872z"/>

<path fill="#00a2bd" stroke="#000" stroke-width="1.8125" d="m775.152,153.036,245.493,0-0.2914,175.155c2.0416,70.4101-41.7273,114.102-122.261,133.802-57.188-14.237-123.132-43.692-123.229-131.805l0.29189-177.152z"/>

<path fill="#a53d08" d="m1018.74,348.938c-8.9307,67.2099-60.6921,96.5757-120.655,112.162-53.073-14.238-110.174-36.968-121.243-111.824l241.901-0.33785z"/>

<path fill="#000" d="m888.365,185.664-0.34221-22.0753,17.4554,0.17111,0.17111,21.9042,47.7434,0,0.17109,17.1126-47.9145,0.17111-0.38281,201.815-17.0262,0.10728-0.2175-202.093-47.5824,0.17125,0.0101-17.4548z"/>

<g fill="#ff9a08" stroke="#000" stroke-width="0.9676">

<path d="m849.714,357.267,43.703,45.3378c15.1121-16.61,4.62991-78.6955-15.247-90.1304-2.3824,7.35162-6.43375,16.1663-10.7403,19.0083-9.47444,6.45695-32.6922,14.0058-24.9316,18.8401,1.76989-2.45053,6.39893-4.76476,8.5773,0.68151,2.58684,8.57687-9.66655,9.12208-9.66655,9.12208s-7.76038-0.95411-9.12194-8.85092c-1.36144-7.89537,11.5591-15.1049,12.6619-15.6559,1.08911-0.40891,17.9714-4.90107,20.8308-19.8783,3.53951-14.7047,7.21531-12.5253,7.89681-12.7979,22.0548,2.17794,36.4869,41.662,37.3047,69.4357,0.81634,27.7737-11.3,46.1542-13.4794,47.3794-2.17793,1.22527-52.553-59.7684-52.553-59.7684l4.76521-2.72313z" fill-rule="evenodd"/>

<path d="m881.573,315.061,0.27116,81.8247"/>

<path d="m876.672,316.558c0,0.13629,0.27116,74.3382,0.27116,74.3382"/>

<path d="m871.362,327.314,0.27115,59.0884"/>

<path d="m867.005,331.534,0.27261,48.8788"/>

<path d="m862.376,333.713v41.2531"/>

<path d="m857.338,336.981v32.6748"/>

<path d="m852.982,339.568v25.0506"/>

<g fill="none" stroke="#ffdf00" stroke-width="1.8125" stroke-linecap="round">

<path stroke-width="0.9676" d="m849.033,362.441,45.0653,51.6004"/>

<path d="m896.276,329.901s20.4236,44.6578,1.49788,81.4172"/>

<path d="m843.723,353.046s1.49772-3.94841,3.40377-2.31424"/>

<path d="m840.184,341.61s-8.16898,7.2153-3.67594,11.8452"/>

</g>

</g>

<g stroke="#000" stroke-width="0.3987">

<path fill="#008021" d="m905.779,228.044c3.02538-2.59499,4.59503-4.18109,6.46848-3.89248,1.87346,0.28798,4.42414,0.14367,6.2976-0.43292,1.87978-0.57723,11.1774-1.73042,15.0003-0.43292,1.2975,0.14431,3.02538,0.86584,5.68999,3.10069,2.67094,2.23422,6.56342,6.12797,5.26592,16.9415-1.29749,10.8135-0.87343,15.4389-1.44306,21.4833-1.00635,10.6698-3.37349,19.4554-7.63939,18.744,5.76593,10.0932,6.34189,18.744,10.0888,25.6651,3.75324,6.92102,6.05708,21.051,4.61402,36.3349-1.43674,15.2838-5.47479,49.5991,6.63304,72.6692-2.01903,1.4418-6.91786,0-11.2471-4.61402-4.32287-4.61401-6.22164-4.46275-9.80399-1.73041-10.9559,8.36282-21.2156,18.4421-36.3298,8.36282-3.46209-2.30701-4.55705-5.07415-2.01902-12.1116,6.34189-17.5902,9.42423-41.7249,8.42421-53.0599v-127.027z"/>

<g fill="#ffe1cf">

<path d="m916.171,217.23c0.79116,2.45131,1.22155,5.62289-0.076,8.50649-1.29749,2.8836-1.58231,6.34443,0.57596,10.5255,3.4621-4.902,8.36726-3.89249,11.2471-6.77609,2.88613-2.88423,3.46209-5.62352,5.62669-6.20075-2.1646-1.87409-5.48112-3.89248-4.75959-9.3717,0.72154-5.47923,8.36093-9.9483,1.44307-18.3118-4.46844-5.39821-10.9622-3.89248-13.7724-1.80193-1.32281,0.9823-2.44942,2.37853-2.87981,3.31589-0.43671,0.93736,0.1076,3.07031-0.94305,4.32603-0.71521,0.86457-1.58864,1.72472-2.59499,2.45068-0.64558,0.469-1.05065,1.15192-0.36077,1.94688,0.27849,0.31772,0.78483,0.38545,1.3418,0.57849-0.32279,0.64875-0.68988,1.29559-1.05065,1.76459-0.34178,0.43988-0.19621,0.85951,0.21519,1.21775-0.54431,1.72978,0.50634,1.91775-0.21519,3.21588-0.6266,1.12218-1.47471,2.45005,0.8671,3.74881,0.64559,0.36013,3.71527,1.07217,5.33555,0.86521z"/>

<path d="m888.126,245.923c-4.03806,1.00952-10.5255-0.72026-15.4307-0.1443-2.1646,0.2557-3.89248-0.86458-3.60133-3.02728,0.28481-2.16333,0.57596-5.47922,0.13924-8.50713-0.6709-4.71845,1.58864-11.2464,4.75959-18.4561,3.17095-7.209,4.75958-11.2458,4.75958-14.6345,0-2.23486,0.2152-4.75832,2.23423-6.05582,1.4937-0.95888,1.77851-1.88991,2.31017-2.66714,1.22154-1.80257,2.37346-2.23485,2.51903-1.15319,0.0886,0.64305-0.14557,1.22534-0.72153,2.09055,1.2975-1.08167,3.50007-2.34372,4.00008-2.70385,0.50634-0.36013,3.06968-2.1627,3.20892-0.46836,1.01268-0.50444,1.69624-0.469,1.94941,0.0715,0.27216,0.58482,0.1076,0.82976-0.39874,1.26205,0.72153-0.14431,1.55066,1.11774,0.10759,2.23485,0.75951-0.25254,1.51269,1.00952,0.18355,2.1627-1.37977,1.19053-2.95575,2.01903-3.46209,2.95576-0.50634,0.93736-3.93046,3.56905-5.29757,4.14565-1.37345,0.57659-1.44307,1.36775-1.44307,3.38804,0,22.2042-2.66461,20.4004-2.66461,25.7372,0,1.44181-0.29114,2.7393,1.15192,2.30638,1.44307-0.43229,3.53172-1.08103,5.69632-1.08103v12.5439z"/>

<path d="m888.987,293.792c6.51912-3.25829,13.9876-4.46971,17.8801-5.47859,3.89248-1.00951,10.0951-4.03679,13.1205-5.62289,3.03171-1.58674,5.48112-3.74945,7.20901-4.32604,1.73421-0.57659,3.67095-1.76965,4.75958-3.89248,5.62037-10.9584,8.65207-19.7523,8.65207-27.3955,0-5.0463-1.29749-10.6698-6.20265-6.63241-4.60769,3.79502-9.62677,11.1104-10.9559,16.437-2.01903,8.07421-3.74691,9.80462-4.18363,11.3901-0.43039,1.58674-2.06333,1.58485-4.03805,2.01903-8.5065,1.87472-10.5255,3.17158-16.8674,7.9299-6.3419,4.75833-13.2661,8.94005-17.8801,11.535-4.61402,2.59562-5.47479,2.8836-6.48747,4.97415-1.00635,2.09055-1.94308,3.67665-2.81018,4.61465-0.86711,0.93673-1.11395,2.03232-0.93673,3.17158,0.14557,0.93736-0.29115,5.26276-0.36077,6.70456-0.076,1.4418,0.28482,1.80257,0.86711,1.87409,0.57596,0.0728,1.36711-0.21583,1.65826-1.94624-0.29115,1.73041,2.08865,1.15319,2.23422-0.14368-0.076,1.87409,2.44941,0.79306,2.59499-0.93736,0,1.22534,1.91143,0.37786,2.08865-0.21646,0.43038-1.4418,0.79115-3.0279,1.36711-4.18109,0.84179-1.67408,1.74054-3.84248,3.39247-5.04694,1.87346-1.36964,1.00635-2.8836,4.89883-4.83047z"/>

<path d="m935.703,411.88c0.43672,1.5861,1.22787,3.38867,1.51269,4.47034,0.29115,1.08103-0.21519,1.41838-0.50001,2.01839-1.51269,3.17222-3.1393,8.22865-3.39247,10.9578-0.13924,1.58611-1.22154,3.10006-1.72788,4.03742-0.55698,1.03357-0.34178,1.83105,0.93672,2.81145,0.61394,0.46837,2.59499-0.1443,2.81019-1.15319,0.72153,0.72027,2.01902,0.43229,2.59498-0.64938,0.65192,0.64938,1.73422,0.21646,2.45575-0.86457,0.64558,0.43229,1.58231-0.43292,1.94307-1.01015,1.01268,0.50508,2.09498-0.10759,2.12663-2.08991,0.006-0.39811,0.25317-1.08167,0.54431-1.55003,0.28482-0.469,0.39242-1.36965,0.36077-2.16333-0.038-0.79306,0.46836-2.37853,1.15192-3.49628,0.68356-1.11774,1.87346-3.10006,1.36712-4.97414-0.46837-1.74624-1.22155-1.58611-1.87346-4.10895-1.58231-1.65889-3.74691-3.9659-5.98113-4.1102-2.23422-0.14368-3.53171,1.37028-4.3292,1.87472z"/>

<path d="m894.683,424.28c2.01902,2.0184,6.56342,2.09055,9.73437-1.29813-1.15192-0.50444-3.67729-1.65826-4.82921-2.59498-1.58864,1.5861-3.39247,3.38804-4.90516,3.89311z"/>

</g>

<path fill="#870f00" d="m915.089,195.026c0.79116-5.11846,4.41781-4.99757,6.70267-4.46971,0.93672,0.21646,3.2469,0.43229,5.40517-0.14431,4.27856-1.13989,7.50014,0.36077,7.06976,4.47035,1.15192,0.86457,2.37346,2.88296,2.15827,4.61401-0.2152,1.72978,0.14557,2.45068,1.73421,2.66651,1.58231,0.21709,4.97478,2.16333,2.73423,4.90263,2.1646,1.29812,3.82286,4.61401,2.67094,6.84887-1.15192,2.23485-4.61402,2.59562-6.05708,0.57659-1.58231,0.7209-4.18363,0.86521-5.76594-0.79242-1.0823,1.29686-3.82286,1.15319-4.3292,0-0.50001-1.15382-1.35446-1.77092-2.37346-2.09118-1.15825-0.36014-1.22788-3.53235,0.50001-3.89312-0.2152-0.93736-0.13925-2.01839,0.29114-2.52283s0.0696-1.4418-0.93673-2.23549c-1.01267-0.79305-1.87345-3.82096-0.8671-5.47859-1.72788,0.5766-5.55074-1.08166-6.3419-2.23485-0.79748-1.15382-1.87345-1.22534-2.59499-0.21646z"/>

<g fill="none">

<path d="m916.171,217.23c2.81018-0.36077,3.74691-2.09055,5.83556-1.94688"/>

<path d="m910.184,209.401c0.18355,0.16202,0.41773,0.2943,0.68356,0.44051,0.56963,0.3076,1.1899,0.34305,1.76586,0.41457"/>

<path d="m911.019,206.418c0.39242,0.13544,0.81014,0.33292,1.18357,0.719"/>

<path d="m917.538,195.026c-1.65826-1.58611,2.81018-4.82984,7.50015-0.21646,0.87343,0.86141,3.09499,0.86584,3.7469,0.64875"/>

<path d="m924.026,197.477c2.1646-0.50507,5.40517-0.50507,6.34189,1.94624,0.94306,2.45132,2.81652,0.86521,4.3292,3.74944,1.51269,2.88361,3.89249,6.12734,6.19633,3.89249"/>

<path d="m931.741,213.698c-0.65191-0.86521-0.93673-2.73993-0.50634-4.03806-0.86711-1.00888-0.50634-3.09942,0-4.10894"/>

<path d="m925.539,207.714c0.076,0.86521,1.22787,2.45132,3.0317,2.7393"/>

<path d="m937.507,214.491c-1.00635-1.2975-0.86711-2.45068-0.64559-4.03742"/>

<path d="m926.982,200.145c-0.0696,1.29749,0.72154,3.0279,2.08865,3.6045,0.29115,0.72027,1.73421,2.73929,4.61402,2.45131"/>

<path d="m934.267,194.882c-1.58231-1.22788-3.72793-2.74057-6.56342-3.11462"/>

<path d="m916.671,236.262c-2.44941,3.31652-4.03805,7.9299-2.8798,14.4186,1.15192,6.48874,3.02537,16.0048-1.73421,20.3302"/>

<path d="m935.418,283.555c-3.31652-0.72027-8.07611-0.72027-10.6711,1.15382s-6.92419,2.01839-9.80399,0.57659"/>

<path d="m928.425,283.339c-2.88613,0.50444-4.25325,2.52284-4.25325,7.85775,0,5.33492-1.15192,13.1205-0.14557,20.7624"/>

<path d="m923.159,285.574c-1.87345,0.50444-3.81653,0.57596-3.45576,5.62289"/>

<path d="m913.431,291.341c0.0696-3.10006,1.15192-5.98366,3.17095-5.47922"/>

<path d="m934.191,291.918c0.14558-6.84887-1.36711-8.79511-3.38614-8.72295,2.74056,0.0721,4.60769,0.40697,5.76594,11.6066,0.8671,8.36283,2.61397,11.323,4.61401,17.8795,5.18998,17.0136,2.59499,43.2553,5.18998,52.4833"/>

<path d="m930.228,293.936c5.47479,15.8611,8.36093,33.4513-0.57596,61.7113,6.05075,16.7256,12.1078,28.8366,13.2598,35.7583"/>

<path d="m912.924,331.424c1.00635-3.60387-2.59498-4.03679,0.57596-16.725,1.37345-5.49631,1.58864-8.79511,0.72154-10.5255"/>

<path d="m914.222,311.672c-1.2975,5.62352,4.18362,16.149,1.44306,23.7903"/>

<path d="m908.886,336.904c0,4.90199,1.15192,11.2464,0.8671,16.149-0.29114,4.902,1.7089,7.17356,4.03806,11.823,8.36092,16.7256,14.0509,28.6588,13.2598,44.4091-0.13924,2.8836,0.86711,8.93942-2.15827,10.6692"/>

<path d="m909.101,424.208c0.86711,0.0721,1.80384-0.36014,2.88614-2.95576s4.54439-18.1674,3.10132-28.8373"/>

<path d="m916.817,404.527c0.43039,3.31589,0.43039,10.0926-1.72788,15.4275"/>

<path d="m922.298,394.578c1.29749,7.06533,1.15192,13.4098,0.14557,17.8788"/>

<path d="m919.412,412.456c0.14558,2.8836,1.44307,10.0932-0.72153,10.6705"/>

<path d="m930.228,379.006c5.32922,8.36283,9.51285,28.9816,13.9813,33.3064"/>

<path d="m934.842,408.996c-0.14558-2.30701-0.29115-5.47859-1.58864-6.92103"/>

<path d="m877.24,308.067c0.0696-1.58674-0.2152-3.10069,1.51268-5.55137"/>

<path d="m874.645,309.004c0.21519-5.55137,0.13924-6.05644,1.72788-7.5704"/>

<path d="m872.411,309.148c0.0696-3.96464-0.43672-5.33492,1.15192-7.85838"/>

<path d="m892.304,190.196c-0.61393,0.39621-4.21527,3.1355-5.72796,4.28932"/>

<path d="m893.854,191.529c-0.68356,0.10759-2.66461,1.73041-6.19633,4.46971"/>

<path d="m893.962,193.764c-1.11394,0.50444-3.24057,2.55955-5.18997,3.92919"/>

<path d="m885.095,193.368c-0.53798,0.39621-1.58231,1.55003-2.08865,1.94624"/>

<path d="m935.343,435.022c-0.3228-0.36076-0.3228-1.62281,0.25317-3.0279"/>

<path d="m937.937,434.373c-0.39241-0.39621,0-2.12662,0.39875-3.24436"/>

<path d="m940.393,433.508c-0.46837-0.21646-0.61394-1.22597,0.0696-2.59562"/>

<path d="m942.336,432.498c-0.32279-0.10759-0.46836-0.64874,0.1076-2.23422"/>

</g>

<g fill="#000" stroke="none">

<path d="m913.969,199.567c1.04432,1.36965,2.12662,1.22471,2.3165,2.10764,0.18988,0.88419,0.32912,0.94685,0.53165,1.20888,0.20254,0.2614-0.49368,0.20887-0.83545,0.0677-0.33545-0.14114-1.18357-0.12658-1.70257-0.11899-0.51267,0.008-1.1266-0.59874-0.74052-0.67026,0.37975-0.0709,0.32912-0.19051,0.27216-0.4595-0.057-0.26836,0.21519-0.69306,0.37342-0.77091,0.16456-0.0779,0.0506-0.0633-0.0949-0.42342-0.1519-0.36077-0.34178-1.2361-0.12025-0.94116z"/>

<path d="m914.602,198.313c1.17091,0.13734,3.18994,0.76963,4.2849,1.98168,0.86077,0.95318,0.15823,0.70065-0.27849,0.73609-0.43672,0.0367-1.29117-0.27279-1.72155-0.81457-0.42406-0.54115-1.69624-1.22724-2.37347-1.40573-0.4114-0.10633-0.79748-0.60191,0.0886-0.49747z"/>

</g>

</g>

</g>

</svg>