<?xml version="1.0" encoding="UTF-8"?>
<svg xmlns="http://www.w3.org/2000/svg" xmlns:xlink="http://www.w3.org/1999/xlink" width="750" height="500">
<rect width="750" height="500" fill="#fff"/>
<path fill="#d42e12" d="m184.013,105.044,0-54.4386,17.7514,0,11.6097,41.4295,11.4512-41.4295,17.8306,0,0,54.4386-11.2531,0,0-43.9057-11.8475,43.9057-12.2833,0-12.006-43.9057,0,43.9057-11.2531,0m92.5608-43.5361-8.08322,23.1724,16.2061,0-8.12284-23.1724m-6.97376-10.9025,13.8683,0,21.0402,54.4386-12.6003,0-3.96237-11.1982-22.6251,0-3.84349,11.1982-12.6399,0,20.7628-54.4386m67.0036,54.4386-12.006,0,0-20.2898-21.1986-34.1489,14.7004,0,12.4814,23.4681,11.5305-23.4681,13.7098,0-19.2175,34.1489,0,20.2898m34.1556-27.1639c-0.00002,5.98716,1.42643,10.6438,4.27935,13.97,2.85288,3.30156,6.84165,4.95233,11.9663,4.95233,5.17746,0.000007,9.20585-1.65077,12.0852-4.95233,2.87927-3.32617,4.31893-7.98283,4.31898-13.97-0.00005-5.98711-1.43971-10.6314-4.31898-13.933-2.87936-3.32614-6.90775-4.98924-12.0852-4.98928-5.12468,0.000046-9.11345,1.65082-11.9663,4.95233-2.85292,3.30159-4.27937,7.95825-4.27935,13.97m-12.2437,0c0-8.79589,2.56233-15.7686,7.68699-20.918,5.15105-5.17402,12.0852-7.76105,20.8024-7.76111,8.71716,0.000055,15.6513,2.58709,20.8024,7.76111,5.17743,5.17411,7.76617,12.1468,7.76623,20.918-0.00006,8.7713-2.5888,15.744-7.76623,20.918-5.15112,5.17408-12.0852,7.76111-20.8024,7.76111-8.71722,0-15.6514-2.58703-20.8024-7.76111-5.12466-5.17406-7.68699-12.1467-7.68699-20.918m78.6529,27.1639,0-44.7188-17.3155,0,0-9.71986,46.5181,0,0,9.71986-17.1966,0,0,44.7188-12.006,0m48.1823,0,0-44.7188-17.3155,0,0-9.71986,46.5181,0,0,9.71986-17.1967,0,0,44.7188-12.006,0m36.0971,0,0-54.4386,42.3577,0,0,9.46116-30.5102,0,0,11.6047,27.895,0,0,9.31333-27.895,0,0,14.007,31.9366,0,0,10.0525-43.7841,0"/>
<g id="seahorse" transform="translate(-98.734,-81.608796)">
<path fill="#dfdfdf" d="m4255,8413c-142-20-249-59-392-145-46-28-89-48-97-45s-17,27-21,56c-4,27-13,58-20,67-20,28-39,5-76-89-17-45-36-88-41-94-18-22-42-14-71,22-29,37-73,48-83,21-3-8-1-40,5-72,18-94-11-108-93-45-71,55-98,66-125,52-28-15-27-36,9-119,31-72,33-124,3-82-8,11-45,36-83,54-38,19-97,50-132,70-35,19-83,42-107,51-44,15-282,50-302,43-6-2,27-29,72-61,99-68,289-242,289-264,0-13-11-15-80-9-91,8-89,11-69-84,7-33,8-55,2-61s-37-4-84,6c-41,8-77,15-81,15-15,0-8-79,13-146,20-63,20-69,4-80-20-15-43-8-195,62-90,42-113,49-162,47-31-1-68-8-83-16l-28-14,65-70c77-84,155-196,167-241,22-75-52-88-301-56-136,18-228,15-273-9-35-18-155-130-155-145,0-5,58-12,129-15,149-6,257-32,346-81,84-46,82-56-9-56-76,0-120-12-160-44-19-15-19-16,0-37,29-32,85-57,154-68,35-6,65-12,67-15,2-2-29-9-69-15-104-17-250-60-321-96-64-32-67-36-80-129l-6-38,32,7c50,11,308,17,350,8,64-14,46-28-53-40-124-15-194-29-227-46l-26-14,54-26c30-15,99-36,154-47,234-48,263-75,67-65-161,8-225,2-220-23,5-28,104-76,207-102,63-16,39-28-64-32-93-3-163-27-192-66-23-29-9-161,18-178,6-3,18,1,27,9,9,9,50,31,91,51,77,37,78,37,188,20,47-7,88-46,123-118,17-34,52-88,78-120s56-69,66-82c19-23,19-24-2-66-11-24-23-51-26-60-18-62-324-41-565,39-96,32-238,102-302,149l-49,36v-39c0-96,75-259,150-326l48-43-49-94c-61-117-65-162-18-209,17-18,29-38,25-46-3-8-29-28-58-44-90-51-86-46-49-65,18-10,67-20,107-23,44-4,79-11,85-19,25-30-27-96-117-150-15-9-4-13,61-23,44-6,108-12,142-13l62-2-21-38c-25-45-72-94-111-118l-28-18,31-4c17-3,52-1,78,3,75,12,166,10,186-4,31-23,5-75-73-150l-68-66,44-7c83-12,188,1,244,30,29,14,54,25,56,23,14-15-40-160-75-200-8-9-12-20-8-25,4-4,58-7,119-7,87,0,120,4,146,18,19,9,36,17,38,17,1,0,3-21,3-47,0-34-7-55-26-80l-25-33h28c65,1,219,51,274,91,36,25,39,24,39-13-1-42-23-103-46-129-21-24-16-24,82,1,88,22,166,53,206,81,37,27,41,24,33-18-9-50-28-79-66-99-17-8-29-18-26-20,8-9,219,24,267,41,24,8,52,23,62,32,17,15,18,15,18-9,0-14-11-46-25-72s-25-49-25-52c0-8,55,9,119,37,35,16,76,29,91,29,34,0,74-31,105-80,17-27,43-47,93-72l70-35,4,41c5,37,170,471,186,488,7,7,208-131,402-275,117-87,386-354,465-462,217-296,288-500,289-830,0-182-12-279-54-454-92-374-306-730-549-910-160-119-349-159-701-148-426,13-692,102-889,295-146,144-242,332-282,552-6,36-11,124-11,195,0,244,55,413,175,542,104,111,215,172,357,194,135,21,289-24,384-111,66-61,69-90,17-194-46-93-50-117-21-146,27-27,83-26,147,5,93,43,139,148,131,294-8,131-69,216-207,286-134,67-202,80-411,79-173,0-191-2-275-28-168-51-270-119-349-229-180-254-279-690-221-972,45-215,165-448,332-640,282-326,656-475,1193-475,398,0,680,76,960,258,312,202,514,464,685,887,46,116,64,188,72,288,3,49,11,89,20,99,40,46,54,177,29,262l-15,48,31,27c55,49,49,155-13,226l-29,33,33,33c43,44,62,127,54,237-5,76-39,182-58,182-20,0-7,27,22,44,45,27,69,72,69,132,0,121-50,307-87,321-15,6-18,33-4,33,23,0,54,94,59,179,6,107-15,189-59,233l-29,30,31,64c27,55,31,71,26,117-11,106-128,302-216,360-32,21-41,33-41,56,0,67-55,166-147,265-96,102-127,148-147,220-14,46-29,70-71,112-49,49-153,111-215,127-13,3-20,13-20,29-1,64-80,171-150,203-35,16-40,22-40,51,0,41-34,82-114,137-76,51-196,82-381,98-389,32-562,97-745,279-111,110-154,184-194,330-33,121-35,234-5,322,21,62,88,188,100,188,4,0-2-33-13-72-26-95-29-251-5-327,33-106,98-185,189-232,62-32,92-39,198-49,110-10,184-32,220-65,54-50,175-56,291-16,30,11,86,23,125,26l72,7,93-65c96-66,511-300,584-329,133-53,283-16,346,85,51,81,5,157-212,353-176,158-218,212-241,304-10,39-42,124-73,188-73,157-74,184-5,256,27,29,57,69,65,90,16,37,23,121,12,133-6,5-73-9-108-22-11-4-13,11-10,80,2,54-2,97-9,116l-13,30-36-35c-37-36-64-45-76-26-3,5-10,34-15,64-10,63-50,161-60,149-4-4-13-25-20-45-6-21-15-38-20-38-4,0-11,24-15,53-11,86-23,122-50,147-22,21-28,22-35,10-5-8-10-26-10-40,0-44-28-133-65-208-72-144-140-130-280,55-80,106-92,139-70,187,53,112,275,263,484,328,39,12,71,25,71,29,0,19-50,64-94,85-50,23-108,28-191,17z" transform="matrix(0.0357384,0,0,-0.0357384,167.2347,527.0896)"/>
<path fill="#000" d="m245.469,297.449c2.26944-1.2614-8.74112-1.06272-11.0688-1.03832-1.57615,0.4752-3.02374,1.16207-3.50808,0.93772-0.48435-0.22435-0.0948-1.9849,0.39632-4.97598,1.73286-1.42214,3.52714-2.18499,5.4375-2.74177,1.82107-0.64607,3.42811-1.06972,5.50609-1.7325,1.99219-0.23793,2.63719-0.14694,5.47233-0.76524-3.32557-0.52902-5.68662-0.12334-8.99304-3.60548,1.33641-0.80358,1.86284-1.82071,3.46999-2.20643,1.60714-0.34428,2.17142-0.28999,3.49142-0.28999,2.53,0,3.26983,0.46249,1.57679-0.75787-1.69303-1.22035-4.92607-2.60571-8.55607-3.26571-3.19-0.55-8.03013-0.56713-10.3629-0.66107,1.07072-2.11607,3.06286-3.35322,4.27286-4.67322,1.98-2.42,6.53-2.36571,13.35-1.26571,10.78,1.32,11.44,0,4.62-8.58l-4.33492-4.77104,2.75-1.0915,3.00253-0.0813c2.86,0.66,6.50239,2.86388,8.70239,3.74388,3.52,1.54,3.32865,0.0898,2.22865-2.77015-0.88-2.42-0.24166-2.40706-0.58309-5.08564,1.76,0,6.40071,1.76087,6.40071,0.66087,0-1.32-0.60848-2.20372-0.9499-5.23944,1.54,0,4.99269,0.41359,5.75217,0.24968s-1.05668-1.9141-2.90711-3.57246l-4.76214-4.26786-6.72643-4.53571,9.98068,1.25c3.08,0,7.95286,3.34571,10.5379,4.69321,1.2925,0.67375,2.51877,0.88242,3.29565,1.6971,1.77739,0.65988-0.35841,2.42126,0.92956,0.79918,0.65663-1.18014-2.38519-4.66915-1.9719-6.49228,2.18106-4.15911,7.06913,3.45539,8.13271,2.22524,2.035-0.22-0.9961-4.95855,0.61776-5.91921,2.30342-1.37111,3.61473,3.33831,4.8545,2.50551,1.23978-0.8328,2.04294-6.86887,4.00258-7.62719,1.95964-0.75833,1.16141,6.16022,2.48141,5.22522,2.86-1.98,9.05023-5.86509,14.1416-6.56983,2.54569-0.35237,5.51148-1.08437,8.02278-0.63188,2.5113,0.45248,4.8806,2.17875,5.56369,4.28756-3.38192,0.98642-3.91613,1.07742-7.43613,2.61742-3.52,1.32-8.14,4.62-10.34,6.82-3.74,4.18-3.74,4.62,0.44,9.9,5.28,7.26,7.92,6.82,10.78-1.54,1.21-3.3,0.83286-5.39643,1.40714-6.51964,0.33178,0.24196,1.53594,0.74073,2.26063,1.87344,0.63387,0.99077,1.19926,5.3707,1.19323,6.51387,0.52949-0.32213,1.024-1.76053,1.519-4.06767,1.32321,2.54929,1.70179,3.38857,2.14179,4.59857s0.0582,4.42143,1.37821,4.42143c0.77,0,1.705-1.48661,3.34402-2.93522,1.41581,2.65852,1.21419,5.98004,0.64848,8.49808,1.10839-0.36143,3.3817-1.13573,4.48504-1.23911,0.34443,1.32517,0.32246,2.91946,0.0546,4.12554-0.80357,1.725-1.05214,3.21071-2.81214,4.53071-2.64,2.2-2.64,3.52,0,8.58,1.76,3.3,3.08,7.04,3.08,8.58,0,1.32,3.96,5.72,9.02,9.9,6.16,5.28,8.36,8.58,7.48,11-2.2,5.28-9.02,6.82-15.18,3.52-2.86-1.54-9.24-5.06-14.3-7.92-3.41-1.87-5.65492-3.90888-7.73485-5.2165-3.34261-0.0449-5.88888,0.26262-8.76515,1.6965-4.4,0.66-7.92,0.22-8.8-1.1s-4.4-2.42-7.7-2.42c-8.8,0-14.5614-5.82-14.9057-14.3414-0.1324-3.70321,0.36743-6.043,1.59653-10.2124-4.85659,7.6701-5.14225,11.2067-3.39796,17.9739,2.10143,9.44571,11.8671,21.54,33.4271,21.76,4.07,0.11,7.47929,1.26429,11.3286,2.03536,2.46036,1.45696,7.70929,4.2467,6.64331,7.74433,3.99181,1.06474,6.73169,5.20317,6.78955,8.59888,9.80143,2.93286,11.0986,8.68143,11.0986,9.78143s2.42,4.4,5.5,7.26,5.12119,7.48388,4.74239,10.034c3.40926,1.76,4.63165,4.33104,6.70538,7.12596,1.75806,3.56881,4.68507,8.00985,0.36722,13.3479,4.52098,1.6763,4.32247,14.4774,0.71336,16.3312,2.65553,1.82508,3.22569,6.2785,3.79196,12.3409,0.025,2.03983-0.63467,3.86573-3.87378,5.47964,0.86328,0.43504,1.54957,1.63024,2.01938,3.19299,0.46982,1.56276,0.72316,3.49307,0.72056,5.39836-0.003,1.90529-0.26115,3.78555-0.81511,5.2482s-1.40334,2.50768-2.5876,2.74251c4.03668,2.63627,3.93946,9.60933,0.45949,10.328,1.9496,3.55978,1.3372,10.5564-1.14915,11.9297,0.54411,7.18167-2.30098,12.2756-3.8066,16.0706-3.01125,7.59-6.97812,14.025-11.9522,19.4288-4.97406,5.40375-10.9553,9.77625-17.9953,13.2412-15.4,7.48-41.58,7.26-56.54-0.44-13.2-6.82-23.98-21.56-26.18-35.86-1.98-12.76,4.18-31.46,12.1-37.4,12.54-9.24,36.96-6.16,40.48,5.06,1.76,5.72-0.44,12.54-4.62,14.08-5.5,1.98-7.7-0.66-4.62-5.5,2.2-3.74,1.98-4.84-1.54-7.7-10.56-7.7-26.4-0.88-30.14,12.76-4.62,17.6,2.64,35.42,17.38,42.68,12.32,6.16,37.18,6.6,45.98,1.1,17.16-10.78,27.94-40.04,22.66-62.04-2.86-12.1-14.74-27.06-30.14-37.4l-9.68-6.82-3.52,9.02c-1.87,4.73-3.52,7.35643-3.075,10.345-2.85857-1.74357-3.89-1.42857-5.86214-3.28571-0.88-1.98-2.50286-4.19929-4.92286-3.53929-0.55,0.165-3.88471,2.12815-7.20498,2.58023,1.14401-2.67291,2.30246-2.74974,2.16734-5.41469-1.77998,2.26963-6.87991,2.55178-13.4923,3.25136,5.17333-2.96113,4.19135-3.54054,4.57584-6.02974-1.98,2.23977-6.92231,3.63585-12.6366,4.66406,2.94642-3.07893,2.44228-4.02572,2.73148-6.82881-2.89772,2.85112-9.95636,4.44408-12.5741,4.27618,2.29299-2.66791,2.33046-2.63239,2.28569-5.93188-2.57359,2.02012-7.32882,1.73556-11.5819,0.9828,2.62194-2.80633,3.42463-5.90229,3.57407-8.25496-3.44797,3.20524-9.09512,2.51474-12.7842,1.9026,2.88964-2.56358,4.64107-4.00715,5.53857-5.61572,1.04571-2.02143,0.34107-2.68143-3.17893-2.68143-2.42,0-4.09456,1.55161-7.66598,0.18375,5.17857-2.04714,6.58538-8.66502,7.74782-8.79852,4.63264-0.53202-6.4453,8.43188,3.47212,6.54423,2.4772-0.35578,3.60371-0.31242,5.4411-0.20728-1.28762,1.89087-1.5072,1.96853-2.61506,3.37782-1.245,1.835-1.49285,4.22643-4.43857,5.77321,2.50036,0.0145,4.54432,0.24281,6.20004-1.07126s1.67319-1.84912,5.16391-4.36198c0.47571,2.63143,0.2408,3.15803-0.0172,4.90169-0.44658,3.0185-1.02928,3.8126-1.93751,6.19902,3.7894,0.87879,6.11903-0.31642,6.78109-1.95203,0.9894-1.03329,2.4036-3.66545,4.34616-4.19786,0.78897,2.37152-0.0508,2.4635-0.34081,4.47207-0.82571,2.25893-1.03143,3.8675-1.7391,5.98723,3.84589-1.09455,6.20767-2.48152,8.64196-5.41009,4.18-3.52,4.18-3.52,2.86,1.1-0.54357,3.08-0.41214,3.76857-1.53,6.42679,3.70357-0.64536,7.14-2.35679,9.01-5.32679,2.2-3.3,2.42-3.08,1.54,1.1-0.12429,2.81214,0.36429,3.26714-0.32786,5.98714,3.36201-0.71111,5.82786-2.02714,7.58786-4.88714,2.2-3.3,2.42-3.08,1.54,1.1-0.55,2.64,0.46,3.18429-1.09821,5.93893,3.79892-1.62036,3.95821-1.20893,5.27821-3.29893,0.88-1.76,2.33071,0.59,4.09071,3.89,1.43,2.53,2.59143,2.72357,3.65679,2.84679,0.26179-1.93036,1.0525-3.21679,2.8125-7.39679,1.98-4.84,3.3-8.8,3.08-9.24-0.44-0.22-5.94-3.08-12.1-6.38-6.38-3.08-11.66-6.6-11.66-7.92,0-1.1-1.1-1.98-2.64-1.98-3.52,0-12.76-8.8-12.76-12.1,0-1.54-1.98-5.28-4.4-8.14-3.3-4.4-7.04-5.94-16.94-7.04-6.99857-1.23714-12.8714-3.08-16.5-5.06-1.81571-0.95-2.06429-1.75357-3.45857-2.295-0.055,1.155,0.70857,4.715,3.23857,7.135,1.43,1.54,2.89448,1.87425,4.1959,2.67794-1.22396,1.24564-2.1059,3.59206-3.0959,5.24206-2.2,3.52-2.2,4.62,0.88,5.72,2.86,1.1,2.86,1.76,0.44,3.3-0.99,0.77-2.48071,1.29929-3.52429,1.9725,1.635,0.40536,2.91358,0.50822,6.03358-0.28893,3.96-2.39786,4.26285-1.69,2.55071,0.73643-1.40286,2.11714-2.35143,4.48143-4.39107,6.12393,2.33536,0.12464,3.40107-0.29393,5.49107-1.06393,2.2-0.88,4.06214-1.47,2.55071,1.945-1.43636,2.38696-0.64336-1.28391-2.00653,1.86563-2.34885,0.45366-7.68326-0.10631-11.5839-1.04952,3.51011-1.92535,4.79333-3.43037,5.23333-4.42037,0.66-1.98-1.23365-1.86074-2.99365-1.86074-0.77,0-3.31515,0.3077-5.21707-1.80248,1.58023-0.86018,3.98226-1.63823,5.42807-3.45259-4.51025-2.60067-1.88965-6.54164-0.83846-8.41358,0.87021-1.49611,0.94148-2.28857,1.95243-3.84149-1.38815-0.10082-3.41497-2.72986-4.40497-4.48986-2.09-3.74-2.99714-7.29357-2.69428-10.3511,2.98143,2.29964,4.13714,3.04178,5.99428,3.96464,3.15179,1.88429,9.91679,4.25572,15.8938,5.15964,5.97705,0.90393,11.1662,0.78679,11.1662-1.41321s2.39195-2.0174,0.66202-3.77634c-3.23899-3.29327-4.98247-6.25102-5.99111-9.16485-1.88557-2.28252-4.2667-2.45086-7.42273-2.4841-1.67459,0.89571-4.94084,1.67516-6.44821,3.85368-1.41807-0.67863-2.14868-5.04749-1.43058-7.12699,0.30842-0.89311,3.95194-2.60408,6.00645-2.67619,2.05451-0.0721,3.145,0.5125,4.95447-0.25375-2.1298-0.6136-3.29412-0.57767-5.5132-1.68359-1.97333-0.98345-3.88579-1.568-3.62753-2.82046,0.31955-1.54969,11.233-0.49288,12.773-0.43788,1.265,0.055-2.38556-1.45978-5.07588-1.80006-1.765-0.6326-5.6996-0.38542-9.67987-3.33926,2.93699-1.88753,4.48427-1.09347,6.89256-1.98182m9.06473,0.36128c-0.88579,1.8659-11.4934,1.35806-8.54357,2.12888,0,0,8.19303,1.50971,10.9047,3.83739,0.47956,2.05982-2.37935,2.97333-2.37935,2.97333l-10.3902-1.10713c-0.11143,1.42214,10.1,1.95857,9.74858,4.09536-0.11389,0.69248,0.56527,1.99791-2.83283,1.61061-3.09448,0.14162-6.8911-0.17311-9.1886,1.01546-1.66928,0.83215-1.87051,2.68301-1.34607,4.26714,1.51134-1.23148,3.91607-2.24571,5.23607-2.68571,2.81857-0.365,4.8575,0.21375,6.76214,1.02875s3.22857,1.68768,4.885,4.94625c1.1,2.86,4.62,6.16,7.92,7.48,3.52,1.1,9.14393,4.11319,11.66,7.48,2.78923,3.73232,4.87073,6.7569,11.5892,10.6384,6.6,5.94,0.89996,3.82829,3.72684,4.2623,7.57545,1.1631,11.7439,2.91925,13.0639,4.67925,1.54,1.76,5.06,3.74,7.92,4.4,3.08,0.88,5.5,2.42,5.5,3.52,0,1.32,1.54,2.2,3.52,2.2,4.84,0,26.4,22.66,30.36,31.68,7.48,16.94,8.8,23.1,8.8,39.6-0.22,11-1.54,20.9-3.52,25.52-4.4,10.34-23.1631,31.1157-28.2231,31.1157-0.89433,0.25254-0.53323,0.16047-1.59362,0.33216-0.48651,0.72589-0.76437,0.79656-2.48333,1.5991-2.49806,1.24873-5.70048,1.85845-9.606,1.9699-3.90552,0.11146-8.51413-0.27533-13.8246-1.01963-5.31046-0.7443-10.5178-1.8461-14.3975-3.13307-3.87972-1.28698-5.30686-1.9835-6.43182-3.17084-0.33609-0.35473-1.22918-0.81638-1.08015-2.36197-0.79798,0.72727-2.65319,0.55516-4.86956-1.45087-1.80027-1.62943-3.53238-2.38784-2.63029-4.02545-2.3809-0.24865-2.78647-1.25964-4.66225-3.8965-1.23356-1.73408-2.63611-3.26746-2.03536-5.72-1.63956,0.32538-2.45254-1.96835-3.39179-4.14163-0.82338-1.90517-2.29179-4.49956-0.46477-5.43881-2.10068,0.0517-1.70609-2.51567-1.96149-4.30202-0.25539-1.78635-0.78196-4.55941,1.33596-5.0453-2.1694-0.68478-1.24119-2.92537-0.91447-4.93568,0.4583-2.81994,0.71731-4.34463,2.51761-4.71762-1.60896-0.71925-0.62824-3.36482,0.43223-6.97492,0.85022-2.89432,2.79881-3.95029,5.04106-3.46998-2.14464-1.63567,1.77163-4.30411,2.61328-5.00658,2.33837-1.95164,4.99687-2.67642,5.51895-1.4079-0.22509-2.37508,8.06776-2.58452,11.2405-2.22653,3.17276,0.35798,5.96052,1.78847,8.93052,4.20847,4.62,3.74,4.84,4.84,2.42,8.8-2.86,5.06-0.66,6.16,3.52,1.98,4.4-4.4,3.08-9.9-3.3-14.96-4.84-3.96-8.14-4.62-16.5-3.96-14.74,1.54-20.68,6.16-24.86,19.8-6.6,22.66,2.42,45.1,22.22,54.78,8.8,4.18,14.08,5.28,28.38,5.28,20.9-0.22,33.88-5.28,45.98-18.7,7.48-8.14,15.84-29.4054,13.2-33.3654-4.29466-1.82694,0-1.83462,1.32-1.83462,1.76,0,2.42-9.11546-0.85697-10.7723,6.53856,0.0247,3.07644-8.1464-0.86077-9.7546,3.52514-0.0841,5.26882-3.53044,5.37342-7.17625,0.10459-3.6458-1.42989-7.49107-4.46106-8.37298-2.28492-0.6648-0.18062-1.27224,1.96465-1.76,2.5577-0.58155,3.54121-0.96412,3.22554-5.52098-0.37881-2.98627-1.43019-7.97858-3.59454-8.89846-2.22856-0.94717-5.69849-1.22262-7.63357-1.39576,2.34957-0.75761,4.58987-1.19761,6.4033-1.34865,3.96-1.65,5.2953-9.65874,1.73469-11.9012-3.56061-2.2425-12.5222,2.16514-12.9935,0.34662,1.74688-1.91225,7.16019-2.38284,9.56392-4.13046,2.94208-2.89253,5.65492-5.65492,0.81492-12.4749-2.42-3.74-2.03516-4.66705-4.83699-5.70057-3.71429-0.15-11.6798,4.85-17.774,4.65571,2.79142-2.32285,12.284-4.18746,15.3129-6.38388,3.02893-2.19643,0.73066-5.60857-2.38188-9.51126-3.74-3.3-5.28-3.52-10.12-1.32-3.3,1.32-8.52286,2.69429-14.1829,3.64143,2.19715-2.26714,12.2029-4.74143,14.4029-6.50143,4.18-3.08,4.18-4.37143,0.22-8.77143l-5.92429-2.43571-6.61571,3.50714c-4.84,2.2-12.33,4.81143-12.33,4.15143,0-0.44,6.83-3.49143,10.35-5.47143,3.74-1.98,6.01845-4.84,6.01845-6.38,0-5.5-5.07536-6.23077-12.8538-0.80923-3.96,2.31-13.8457,5.32459-14.4362,4.21247-0.73229-1.37908,6.62875-2.72895,10.2716-4.50324,3.61571-2.06286,10.4071-5.44571,10.4071-7.20571-0.89285-2.98429-4.90714-5.11429-22.2871-7.09429-12.98-1.54-19.8-5.72-25.52-15.18-7.04-11.44-5.72-21.34,3.74-30.36l7.92-7.48-4.62,7.04c-8.58,12.32-4.4,27.06,7.7,27.06,2.86,0,7.04,1.1,9.24,2.64,3.08,1.76,5.76134,1.37991,8.34714,0.61857l4.20477-1.23801,1.45748-0.31452-6.08939-4.12604c-6.82-3.3-9.68-9.68-5.94-13.42,1.32-1.32,1.76,0,1.1,3.52-0.88,4.18,0,6.16,3.08,7.26,2.2,1.1,6.6,3.52,9.46,5.72,9.46,6.82,22.22,14.74,23.54,14.74,0.66,0-0.44-2.2-2.86-5.06-2.42-2.64-1.1-2.2,2.86,1.54,5.94,5.28,7.7,5.94,10.56,3.52,4.84-3.96,4.18-5.72-4.18-11-5.06-2.86-8.58-7.48-10.34-12.76-1.32-4.4-3.52-9.24-4.4-10.56-1.32-1.54-0.66-3.52,1.32-5.28,1.87-1.54,3.73929-5.11679,3.54036-6.42643-0.86857,0.16357-1.52857,0.40679-2.44036,0.92643-1.1,0.66-2.2-0.22-2.2-2.2,0-0.99,0.76214-4.74071,0.55571-5.66143-0.51892,0.95429-2.09571,3.13143-2.75571,3.46143-1.1,0.66-2.42,0-2.42-1.54-0.33-3.19-0.73973-4.1233-1.01272-5.62429-0.45157,0.82045-2.73067,4.10893-3.76371,4.89822,0.87857-2.42822,0.18429-10.2224-0.19312-10.9467-0.0649,2.08817-1.24152,5.79978-1.59545,7.1421-2.33571,3.29357-2.90393,4.01321-5.53321,4.81-2.2275,0.0825-3.30179-0.82929-6.38179-4.45929-3.08-3.74-4.96429-6.5425-5.14286-8.44929,0-1.98,6.52643-9.81071,14.2554-12.7568,3.27464-1.18929,3.71857-1.52643,5.72715-2.0625-0.54673-0.12327-1.34995-0.88747-3.73777-1.33326-1.25091-0.23354-6.31563-0.21603-9.58474,1.33612-2.92357,0.9375-9.68044,3.82363-12.7604,6.90363-1.67015,0.28119,0.22525-5.33866-1.72446-4.52746-1.9497,0.81121-1.17852,6.66451-2.82427,7.54238-2.46766,1.3163-2.86619-3.00568-3.96619-3.00568-1.1,0.11,0.88643,5.12725-1.15653,6.29639-1.33722,0.76527-5.9687-4.91908-6.5187-4.03908-0.40552,0.68671,3.57582,5.38732,2.50254,6.08568-1.32583,1.04463-1.19761,2.44331-4.13045,1.28212-2.4034-1.21236-13.0198-7.87736-15.7542-7.6866,2.53757,1.6647,4.50954,3.68713,7.26149,6.20086,4.4,4.62,5.64357,5.19564,2.12357,5.73135-3.27-0.53571-4.07812-1.52433-5.69167-0.43299-0.80678,0.54567,0.73794,4.71073-0.35509,5.3771-1.09303,0.66638-4.84546-0.79863-5.26484-0.36551-1.6775,1.7325,1.30652,4.05418,0.31652,6.58418-1.32,3.74-1.98,3.74-6.38,0.66-3.52-2.53-8.01888-4.34022-8.15396-3.3825-0.17739,1.25765,0.89396,1.8425,2.87396,4.7025,6.38,9.02,4.62,10.78-7.92,9.46,0,0-10.2114-2.97867-13.27,1.68938,3.02118-0.56689,10.2592,0.87294,12.1895,1.7102,1.04557,0.45352,3.30965,1.80954,5.26457,3.36344,0.97746,0.77696,0.41201,1.38739-0.17995,3.10515-2.28838,0.82491-4.78185,1.32859-7.48183,1.17774,8.16524,3.28726,7.43427,0.5699,10.3946,2.22063-2.12639,3.50759-3.81866,3.24812-11.0913,4.26623-1.8012,0.8607-3.54194,1.26794-5.52194,1.81794-2.035,0.55-3.29384,2.12815-2.79138,2.30809,0.50246,0.17993,2.49835-0.32406,4.74067-0.54549,2.62962,0.034,1.26815,0.0113,7.16151,0.61785,2.7549,0.67225,3.98848,2.69481,3.45535,3.79785z"/>
<path fill="#000" d="m323.901,276.313c0,1.28539-0.7467,2.3274-1.66781,2.3274-0.9211,0-1.6678-1.04201-1.6678-2.3274,0-1.28538,0.7467-2.32739,1.6678-2.32739,0.89819,0,1.63506,0.9926,1.66677,2.24522"/>
<path fill="none" stroke="#000" stroke-width="1.7" d="m327.253,278.03c-1.0558,2.67163-4.15671,4.01172-6.92608,2.99319-2.76937-1.01854-4.15849-4.01-3.10269-6.68163,1.0558-2.67162,4.15671-4.01172,6.92608-2.99318,2.76569,1.01718,4.15548,4.00256,3.10627,6.67254"/>
<path fill="none" stroke="#000" stroke-width="1.7" d="m307.844,269.368c6.94479-3.66181,16.5412,2.0203,16.5412,2.0203"/>
<g fill="#dfdfdf">
<path d="m255.781,332.439c-0.2479-1.18053,0.28963-1.76664,2.2005-2.99209,2.3573,0.29241,6.45323,1.9701,9.04893,4.26875,4.42243,3.91631,5.09356,5.37575,7.58621,8.72732-1.01694,2.01326-1.6779,2.44816-3.60651,4.32476-1.95795,1.2823-3.11747,2.06093-4.44746,2.69689-1.06212-3.2926-2.35336-4.92049-5.2864-8.70376-1.37171-2.09225-5.42602-3.68531-7.48227-5.23418,0.44374-1.63816,1.25673-1.76657,1.987-3.08769z"/>
<path d="m272.322,347.97c2.02494-1.3068,2.56247-3.1556,3.96826-4.00225,1.85223,0.79749,1.37048,1.02596,4.37698,2.50099,3.23223,2.04296,2.0631,1.58768,4.55575,4.93925-1.01694,2.01326-1.55163,2.95323-3.10143,5.08237-1.70541,1.53484-1.72851,2.69228-3.31104,4.59093-2.95616-0.76722-4.87874-1.89003-7.18044-4.53688-1.62425-1.96598-3.53198-2.04381-4.32554-5.36045,2.08524-1.38562,3.78211-2.01911,5.01746-3.21396z"/>
<path d="m283.813,357.314c1.51986-2.06441,1.80486-3.53441,3.08438-5.0124,2.23103,0.29241,4.02213,0.64715,6.64982,1.49084,3.61104,0.78027,4.08341,1.96648,5.94471,3.92909-1.01694,2.01326-1.17282,4.59473-1.96501,8.2391-0.56898,2.54499-1.09717,3.95497-2.17462,6.23243-2.95616-1.2723-5.13127-2.3951-7.68551-4.0318-2.6344-1.58717-5.17348-3.18024-6.34585-6.49688,1.32763-2.39577,1.25673-3.15553,2.49208-4.35038z"/>
<path d="m299.596,367.163c0.63598-2.82202,0.54217-5.80725,1.94796-8.04286,2.23103,0.29241,1.87556,1.02596,4.50325,1.86965,2.72715,1.15908,4.58848,1.46141,6.07098,4.43417-2.4059,2.2658-2.94059,1.94308-3.73278,5.58745-0.56898,2.54499,0.54433,6.10154-0.53312,8.379-2.95616-1.2723-3.23724-2.01629-5.79148-3.65299-2.6344-1.58717-2.90063-0.9074-4.57808-2.58254,0.94882-2.90085,1.50927-4.29195,2.11327-5.99188z"/>
<path d="m310.455,371.203c1.26732-2.56949,1.80486-3.15561,3.21065-4.38106,2.60984,1.05003,3.76959,0.39461,6.27101,2.62726,2.34835,1.66416,7.24014,5.75455,9.10144,7.71716-1.77455,0.87684-3.431,1.48262-5.50054,4.19849-2.06955,2.71587-1.47598,3.4499-2.6797,6.48497-2.19855-1.39856-3.23724-2.14256-5.2864-3.40045-2.12932-1.96598-3.0269-2.54889-5.46197-4.22404,0.94883-2.77457-0.006-6.81733,0.34551-9.02233z"/>
<path d="m324.976,383.073c1.26732-2.56949,3.06755-3.02934,4.47334-4.25479,2.60984,1.05003,3.64332,3.2988,6.14474,5.53145,3.10597,3.43192,3.57834,3.98678,5.06083,6.07566-2.27963,1.12938-2.92592,1.23008-4.99546,3.06207-2.14125,1.89546-2.73867,1.93467-4.19493,3.58078-1.56721-1.77737-1.34321-1.63749-3.39237-3.65299-2.12932-1.96598-2.39555-1.91755-5.20943-4.47658,0.82256-2.90084,1.25673-3.91314,2.11328-5.8656z"/>
<path d="m337.098,395.321c1.51986-1.18053,2.94128-2.01919,4.2208-2.86583,1.22088,1.42884,2.38063,2.54119,3.11428,4.14249,1.21194,1.53789,1.3055,1.84021,2.28291,3.92909-2.27963,1.12938-2.04203,0.85127-3.73277,1.67311-1.64426,0.79925-2.35986,1.68213-4.3212,2.94943-1.56721-1.77737-0.45932-1.13241-2.50848-3.14791-0.9929-1.20837-1.51167-2.17009-3.06286-3.71897,2.21152-1.89068,2.51942-2.14537,4.00732-2.96141z"/>
<path d="m343.096,404.223c1.83554-0.86486,2.62561-1.32471,4.15766-1.98194,1.03149,1.93391,1.30735,2.22551,2.041,3.82681,0.45433,1.34849,0.80042,2.02962,1.58843,4.24477-1.71142,0.6243-2.23143,0.78813-3.35396,1.2943-1.14739,0.51737-2.35986,1.24019-3.68986,2.00241-1.25153-2.34558-1.21693-1.82689-1.94026-3.21105-0.67723-1.33463-1.13287-1.72814-2.36838-3.52956,1.83271-1.38561,2.39315-1.89283,3.56537-2.64574z"/>
<path d="m347.65,413.33c1.83554-0.86486,1.82204-0.65507,3.35409-1.3123,1.03149,1.93391,1.75378,5.35051,2.30886,7.44288,0.40968,2.37528,0.75577,5.0207,0.87414,7.90549-1.62213,0.3118-0.95256,0.11998-2.37182,0.40144-1.41139,0.27989-1.48773,0.33426-2.99631,0.96255-0.44795-3.14915-0.83588-4.88559-1.65166-7.03726-0.54331-1.5132-1.66859-4.94243-2.9041-6.74385,1.56485-0.84989,2.21458-0.86604,3.3868-1.61895z"/>
<path d="m351.623,429.624c0.56705-0.13209,1.17406-0.23256,2.37195-0.33016,0.22791,4.12141,0.23592,5.12729,0.12136,9.2286-0.30461,4.29491-0.36031,7.78855-1.0455,12.1466-0.77524-0.22392-0.95257-0.46038-2.37183-0.53606-1.41731-0.0756-1.33307-0.0991-2.79701-0.007,1.02527-4.08665,1.05987-5.48761,1.36333-10.3539,0.12633-3.78998,0.11712-5.01547-0.18855-9.28307,1.11842-0.35882,1.59724-0.6036,2.54625-0.86544z"/>
<path d="m349.659,452.124c0.56705-0.13209,1.97763,0.0353,3.17552-0.0623-1.28995,7.24641-2.35336,9.94872-4.78935,14.4072-2.8939,4.20562-5.71746,8.14569-9.43836,12.1466-0.45957-0.31862-0.7735-0.73903-1.21112-1.16106-0.42154-0.40653-0.77662-0.53021-1.27915-0.98866,4.23956-5.60451,4.98845-7.27333,7.52405-12.4075,2.09061-5.12927,2.43854-6.53333,3.8293-12.1402,1.11842,0.44475,1.2401,0.46783,2.18911,0.20599z"/>
<path d="m336.355,478.642c0.72489,0.46769,0.37049,0.30316,1.4791,1.00913-1.73638,2.06784-2.97836,3.25229-6.21793,6.46074-2.44747,1.79491-3.17954,3.36124-8.18928,5.38158-0.59667-0.67035-0.6219-0.75817-0.9117-1.18721-0.27955-0.41385-0.39781-0.51938-0.71187-1.32414,2.54313-0.78308,5.55125-2.55743,7.46185-4.4773,3.16203-2.71855,3.95639-3.94404,6.06144-6.6045,0.48707,0.31848,0.71073,0.43533,1.02839,0.7417z"/>
<path d="m320.54,491.048c0.39838,0.63094,0.24739,0.81272,0.62137,1.55567-2.2721,1.35356-2.77953,1.46844-8.35332,2.55538-6.84948,0.23132-9.73502,0.0676-12.9516-0.36529,0.11629-0.85658,0.12665-0.93576,0.16476-1.74591,0.036-0.76561-0.0636-0.51621-0.003-1.33628,6.40517,0.42522,8.35038-0.004,10.8839-0.16721,4.55842-0.42535,7.99523-1.49711,9.07799-1.77247,0.48707,0.88669,0.43203,0.65406,0.56029,1.27611z"/>
<path d="m298.174,493.191c-0.13734,0.67558-0.10976,0.45557-0.31614,1.42174-5.30781-0.92322-5.41346-0.80834-11.8355-2.13212-4.84054-1.37583-6.43779-2.42021-9.43117-4.01385-0.21787-1.05682-0.15754-0.92988,0.0831-1.37029,0.31705-0.58017,0.0779-0.39442,0.79571-0.8312,3.55886,2.13697,7.3714,2.76359,9.41385,3.44887,4.87093,1.00322,7.28095,1.27074,11.3994,1.70967-0.0487,0.93133-0.059,1.14513-0.10935,1.76718z"/>
<path d="m275.227,485.736c-0.80574,0.60913-0.86634,0.89287-1.87864,0.7521-1.65347-0.22994-1.86626-0.69779-3.45414-1.99419-0.77856-0.63563-1.98789-1.86737-1.74721-2.30778,0.31705-0.58017,0.85218-2.32444,1.55463-1.18834,0.61444,0.99377,3.2339,2.53001,4.7865,3.59603,1.23497,0.84794,1.05219,0.9053,0.73886,1.14218z"/>
<path d="m267.281,480.289c-0.93967,0.29663-0.70409,0.48348-1.47685-0.1854-0.62669-0.54244-1.06269-1.45672-2.20414-2.79777-0.65146-0.76536-1.95437-2.97029-2.01507-3.46849-0.17402-1.42838,0.62219-2.37148,1.24213-1.18834,1.10551,2.10984,2.51961,4.31572,4.474,6.09603,1.10745,1.00881,0.35451,1.42572-0.0201,1.54397z"/>
<path d="m261.567,471.093c-0.93967,0.29663-0.83802,0.48348-1.61078-0.1854-0.62669-0.54244-1.25334-1.95297-1.98093-3.5567-0.42824-0.94393-1.37983-2.35708-1.03293-3.28992,0.38528-1.03601,1.73827-1.74648,2.09035-0.47405,0.63522,2.29567,0.84421,2.32593,1.92936,5.0246,0.41815,1.03992,0.97951,2.36322,0.60493,2.48147z"/>
<path d="m258.486,461.316c-0.36793,0.70743-1.04589,0.62168-2.1465,0.12709-0.88687-0.39855-0.55401-1.80061-0.68628-3.5567-0.0711-0.94393-0.26376-1.82136-0.006-3.0667,0.22391-1.08242,2.26623-1.4747,2.40285-0.16155,0.0995,0.95638-0.0418,1.5139,0.14365,3.1496,0.29986,2.64453,0.57959,2.95611,0.29243,3.50826z"/>
<path d="m257.683,452.075c-0.21388,0.59738-1.09053,0.39847-1.61078-0.23005-0.61998-0.74901,0.11563-2.06847,0.16193-3.5567,0.0294-0.94615,0.29326-1.8992,0.79742-3.0667,0.3132-0.72528,1.44439-0.81198,1.46535,0.50809,0.0102,0.64388-0.17211,1.48126-0.34742,2.88175-0.19247,1.53762-0.12493,2.50959-0.4665,3.46361z"/>
<path d="m259.245,442.745c-0.21388,0.59738-1.16771,0.0311-1.34292-0.76576-0.26284-1.19544,0.5667-2.51227,0.92086-3.95849,0.2973-1.21401,0.84425-2.65798,1.82421-3.46849,0.71498-0.59135,2.00796-0.91717,1.7332,0.37417-0.21298,1.00102-1.64532,2.90983-2.13313,4.53353-0.44587,1.48409-0.66065,2.33102-1.00222,3.28504z"/>
<path d="m265.093,432.075c-0.63405,0.0243-1.37013,0.20233-1.16435-0.58719,0.18359-0.70436,0.86724-1.05156,2.17086-2.08349,0.66604-0.52723,1.83757-1.49175,2.49385-1.8167,0.75658-0.37462,2.24201-0.84409,1.7332,0.37417-0.21298,0.50995-0.88639,0.72233-2.08849,1.54246-1.28008,0.87333-2.71422,2.55423-3.14507,2.57075z"/>
</g>
</g>
<use xlink:href="#seahorse" transform="matrix(-1,0,0,1,750,0)"/>
<g>
<path fill="#000" d="m278.855,412.412c-12.98,4.4-31.68,13.42-39.16,18.48-2.42,1.76-2.20001,3.74,1.53999,11.22,2.64,4.84,5.28001,9.02,5.72001,9.02,0.66001,0,7.92001-3.3,16.06-7.48,8.14-3.96,18.5408-9.18482,23.32-10.12,3.65484-0.71515,6.99285-1.39231,9.05863-2.25012,0.83213,2.02068,0.32067,0.89461,1.8365,4.06767,2.17894,4.56111,0.82243,4.4576,4.59123,5.70564,3.97356,1.31584,13.7736-4.00319,13.7736-4.00319,11.44-3.96,17.82-4.4,58.96-4.4s47.52,0.44,58.96,4.62c0,0,9.2061,3.13201,10.3893,3.51076,1.17557,0.37629,1.79635,0.67333,3.03889,0.37523,1.13322-0.27187,2.31308-2.00468,2.83531-3.05122,0,0,2.53001-6.07878,3.17946-8.21146,2.19153,1.05426,6.187,2.42669,10.037,3.63669,4.61999,1.54,14.96,6.16,23.1,10.12,8.14,4.18,15.4,7.48,16.06,7.48,0.44,0,3.08-4.18,5.72001-9.02,5.27999-10.34,5.72-9.46-13.42-19.36-25.52-13.2-51.04-19.14-53.46-12.76-0.44,1.21-0.8132,1.91781-1.41743,3.48735-2.5575-0.58931-9.25258-2.16735-15.9626-3.26735-20.68-3.74-77.44-3.74-98.12,0-6.71001,1.1-11.2462,2.93504-15.0374,3.98699-2.1463-4.29385-1.69705-2.58577-2.13705-3.79577-1.75999-4.4-13.4056-3.71122-29.4656,2.00878z"/>
<g fill="#dfdfdf">
<path d="m299.75,409.25c-9.4465,0.29739-27.1655,6.34734-45.0938,15.4688-15.4,7.7-15.8362,8.14124-11.6562,16.2812,1.76001,3.74,3.74877,7.06001,3.96875,7.5,0.005,0.003,0.0254,0.0291,0.0312,0.0312,0.82066,0.21541,7.6769-2.82563,15.5625-6.875,8.36001-4.18,18.9425-8.77376,23.5625-10.0938,3.41-1.21,5.88796-1.32035,8.9375-1.96875-0.55664-3.24102,0.13292-0.44574-2.03125-6.625,2.4962-6.25834,7.3167-11.6665,12-12.8438-1.20404-0.6433-2.98931-0.94715-5.28125-0.875z"/>
<path d="m372.031,409.406c-18.2374,0.17382-36.1697,1.065-44.375,2.34375-13.97,2.31-21.5033,6.73823-26.6875,9.4375-1.89687,1.41587-3.56025,1.75912-5.625,3,1.63619,3.70817,1.57275,5.9397,2.96875,9.1875,1.46865,3.41689,0.735,5.57751,4.75,5.6875,4.015,0.11,12.75-4.21875,12.75-4.21875,11.22-3.96,17.83-4.40626,58.75-4.40625,41.14,0,49.4291,1.30887,58.9375,4.625,6.89313,2.37325,9.73574,4.24614,12.5,3.75,1.42097-0.25504,2.15965-2.3059,3.15625-4.78125,1.35742-3.37156,2.99381-7.9009,3.8125-13.5625-2.16265-0.31581-1.20751,0.79042-4.15625-0.53125-6.36748-2.85404-7.5787-3.07099-11.7812-4.84375-4.98802-2.10408-9.65376-2.10814-16.9688-3.46875-8.57999-1.32-27.6494-1.83684-46.2812-2.21875-0.58867,0.004-1.1617-0.006-1.75,0z"/>
<path d="m448.469,409.438c-1.24154,0.01-2.29714,0.14367-3.1875,0.40625,1.91905,1.20698,4.16102,3.22273,5.40625,3.875,4.62,2.42,4.60125,4.65627,4.15625,8.8125-0.20561,1.92038-0.38173,2.65233-1.125,5.28125,1.72401,0.77849,5.98001,2.53999,9.5,3.75,4.4,1.32,14.9525,5.91374,23.3125,10.0938,7.75844,3.98406,14.5336,6.98492,15.5312,6.875,0.0185-0.003,0.0489-0.0253,0.0625-0.0312,0.002-0.001,0.0291,0.001,0.0312,0,0.22001-0.44,2.20875-3.76001,3.96875-7.5,2.86-5.5,3.07501-7.45876,0.875-9.21875-4.84001-3.96-24.42-13.0038-38.5-17.8438-9.01313-3.00437-15.6426-4.53495-20.0312-4.5z"/>
<path d="m442.938,411.219c-0.15364,0.16615-0.28336,0.34133-0.40625,0.53125-0.6672,0.81319-0.76107,1.68308-0.96875,2.6875,1.45792,0.51546,6.37626,3.57875,8.90625,3.46875,0.54141,0,0.96989-0.0232,1.21875-0.125,0.0136-0.006,0.0501-0.0247,0.0625-0.0312,0.006-0.003,0.0257-0.0278,0.0312-0.0312,0.0209-0.0145,0.0469-0.046,0.0625-0.0625,0.007-0.008,0.0255-0.0222,0.0312-0.0312,0.003-0.005,0.0291-0.0265,0.0312-0.0312,0.002-0.005-0.001-0.0262,0-0.0312s-0.00069-0.0259,0-0.0312c0.00031-0.005,0.00006-0.0256,0-0.0312-0.00045-0.006,0.00083-0.0253,0-0.0312-0.005-0.0244-0.02-0.0669-0.0312-0.0937-0.006-0.0138-0.0232-0.0481-0.0312-0.0625-0.0134-0.0221-0.0453-0.0701-0.0625-0.0937-0.35223-0.45851-1.42493-1.19938-3.53125-2.375-1.48666-0.82976-3.89275-2.46661-5.3125-3.625z"/>
<path d="m306.344,411.281c-1.44457,1.10084-3.89463,2.61806-5.46875,3.6875-2.82755,1.921-3.24869,3.41128-4.46875,6.09375-0.0252,0.0554-0.0548,0.12573-0.0625,0.15625-0.00011,0.003-0.00018,0.0289,0,0.0312,0.002,0.00057,0.0293-0.00023,0.0312,0,0.003-0.00078,0.028,0.001,0.0312,0,0.39924-0.18277,2.53822-2.1096,7.65625-3.84375,4.3898-1.63826,2.05439-0.83729,4.78125-1.96875-1.79652-2.77631-2.03-2.965-2.25-3.625-0.0636-0.19078-0.14941-0.3626-0.25-0.53125z"/>
</g>
<path fill="#000" d="m325.41,417.812,0.50387,4.3567,2.98595-0.34534c1.0768-0.12453,1.81619-0.38699,2.21817-0.7874,0.40779-0.40106,0.56456-1.00903,0.47033-1.82392-0.0882-0.76249-0.36001-1.27665-0.81543-1.54251-0.45544-0.26583-1.24775-0.33345-2.37694-0.20287l-2.98595,0.34534m-1.88594-1.31253,4.98532-0.57657c0.80906-0.0936,1.40679-0.1273,1.79322-0.10122,0.39222,0.0254,0.7491,0.10212,1.07063,0.23008,0.57563,0.23426,1.03378,0.60006,1.37444,1.09741,0.34645,0.4967,0.56109,1.10301,0.6439,1.81893,0.0801,0.69265,0.00033,1.30352-0.23929,1.83259-0.24031,0.52327-0.63824,0.95859-1.1938,1.30596,0.51672,0.0818,0.89903,0.27648,1.14696,0.58401,0.25372,0.30687,0.45255,0.85307,0.5965,1.63861l0.39379,2.10443c0.0816,0.45064,0.17919,0.78441,0.29276,1.00132,0.1187,0.21041,0.27366,0.35174,0.46488,0.424l0.0414,0.35797-2.01683,0.23325c-0.19395-0.24889-0.37376-0.80909-0.53943-1.6806-0.003-0.0233-0.005-0.0407-0.006-0.0524l-0.29864-1.66421c-0.15784-0.85471-0.40581-1.39228-0.74392-1.61271-0.33811-0.22042-1.12415-0.25928-2.35811-0.11657l-2.8288,0.32716,0.63716,5.50917-1.72871,0.19994-1.48737-12.8606m15.2719,6.0365,4.02335-0.29539-2.41684-5.55083-1.60651,5.84622m-3.34023,5.63862,3.84675-13.2636,1.93717-0.14222,5.7602,12.5582-1.90211,0.13965-1.65057-3.75641-5.08398,0.37326-1.09301,3.95785-1.81445,0.13321m17.7896-1.12658-0.37961-12.9407,1.75706-0.0515,0.15592,5.31509,6.71195-0.19689-0.15591-5.31509,1.76584-0.0518,0.37961,12.9407-1.76584,0.0518-0.17782-6.06185-6.71196,0.19689,0.17782,6.06185-1.75706,0.0515m15.2803-5.72213,4.03413-0.0208-2.03328-5.70251-2.00085,5.72327m-3.71641,5.3981,4.74093-12.9709,1.94236-0.01,4.89175,12.9213-1.9072,0.01-1.39098-3.86008-5.09758,0.0262-1.35997,3.87424-1.81931,0.009m22.0457-4.6969,1.70482,0.0294c-0.10339,1.57463-0.66408,2.82197-1.68206,3.74202-1.01204,0.9143-2.30895,1.35779-3.89074,1.33047-1.822-0.0315-3.24075-0.67715-4.25625-1.93706-1.00964-1.25981-1.49549-2.98819-1.45755-5.18513,0.035-2.02703,0.60469-3.62583,1.70906-4.7964,1.10446-1.1764,2.57647-1.74872,4.41605-1.71696,1.46461,0.0253,2.65615,0.42387,3.57461,1.19569,0.9243,0.77195,1.4484,1.81241,1.57231,3.12137l-1.7224-0.0298c-0.14928-0.85816-0.52753-1.52104-1.13477-1.98864-0.60716-0.47343-1.40285-0.71866-2.38707-0.73567-1.31231-0.0226-2.33963,0.41964-3.08197,1.32686-0.73648,0.90735-1.11919,2.19879-1.14812,3.87431-0.0273,1.5818,0.32571,2.85664,1.05911,3.82452,0.73925,0.96799,1.72987,1.46271,2.97188,1.48416,1.06038,0.0183,1.93311-0.29478,2.61818-0.9393,0.69101-0.65027,1.06931-1.51691,1.13491-2.59993m3.69646,4.9002,0.59249-12.9327,1.75597,0.0804-0.24335,5.31181,6.7078,0.30731,0.24336-5.31182,1.76475,0.0808-0.59249,12.9327-1.76475-0.0808,0.27754-6.0581-6.70781-0.30731-0.27754,6.0581-1.75597-0.0804m13.0195,0.6741,0.89614-12.9152,1.75359,0.12168-0.89614,12.9152-1.75359-0.12168m7.42061-10.905-0.42454,4.36515,2.99174,0.29096c1.07889,0.10494,1.85696,0.004,2.33422-0.30281,0.48307-0.30623,0.76432-0.86758,0.84374-1.68405,0.0743-0.76396-0.0832-1.32383-0.47245-1.6796-0.38928-0.35574-1.1496-0.58864-2.28097-0.69868l-2.99174-0.29097m-1.56739-1.68012,4.99499,0.4858c0.81062,0.0788,1.40207,0.17169,1.77434,0.27853,0.37809,0.10743,0.71082,0.25753,0.99821,0.4503,0.51342,0.35019,0.8843,0.80423,1.11263,1.36215,0.23413,0.5585,0.31632,1.1964,0.24657,1.91371-0.0675,0.694-0.27407,1.27439-0.6197,1.74116-0.34507,0.46096-0.82573,0.80275-1.44196,1.02539,0.48792,0.18875,0.82069,0.45954,0.99832,0.81237,0.18343,0.3534,0.26283,0.92922,0.23819,1.72745l-0.058,2.14018c-0.0151,0.45772,0.01,0.80456,0.0754,1.04051,0.0718,0.23068,0.19348,0.40147,0.36521,0.51236l-0.0349,0.35866-2.02074-0.19653c-0.13721-0.28414-0.19506-0.86964-0.17356-1.75649,0.002-0.0233,0.004-0.0408,0.005-0.0525l0.0584-1.68978c0.0256-0.86879-0.10363-1.44651-0.38776-1.73318-0.28414-0.28665-1.04438-0.49011-2.28073-0.61036l-2.83428-0.27565-0.53684,5.51986-1.73206-0.16846,1.25319-12.8855m10.6688,14.146,1.68673-12.8359,1.74283,0.22902-1.68673,12.8359-1.74283-0.22902"/>
</g>
<g>
<path fill="#171796" stroke="#000" stroke-width="2" d="m299.715,160.554c-5.95549,3.10011-9.05559,7.66869-9.54509,13.8689-0.48947,6.68972,0.97901,11.4215,4.81333,15.0111,1.71323,1.71323,3.18171,3.34486,3.18171,3.75276,0,0.32633-1.30532,1.95798-2.93696,3.50804-3.83436,3.5896-6.03706,8.32134-6.03706,13.2162,0,5.05809,1.55005,8.5661,5.71074,13.1347l3.42644,3.75276-3.75277,4.16068c-7.50554,8.32135-7.26078,17.8664,0.57108,25.7799l3.34485,3.50803h76.8502,76.7686l3.75279-3.99751c7.26076-7.75029,7.26076-16.1532,0.0816-25.0456l-3.67119-4.48701,3.42644-4.07911c7.50554-8.97399,7.34237-17.2138-0.4079-25.8615-3.50804-3.83436-3.58961-4.56858-0.81583-6.36339,4.48701-3.01853,7.26079-13.2163,5.22125-19.4165-3.01853-9.30033-15.99-15.5006-23.9035-11.4215-1.46846,0.73423-4.40542,2.77378-6.60814,4.48701-2.2027,1.79478-4.24226,3.18169-4.65015,3.18169-0.32632,0-2.28431-1.46848-4.32384-3.26329-7.91345-6.77129-17.2138-6.28179-25.1272,1.38691l-3.01853,2.93695-3.99751-3.6712c-8.07662-7.5871-18.1928-7.26077-26.4325,0.73425l-3.01853,2.93695-3.26329-2.93695c-4.81332-4.40544-7.99502-5.71074-13.5426-5.79232-5.30281-0.0816-10.2793,2.12113-14.1952,6.36339l-1.95796,2.03956-4.24226-3.58961c-7.83186-6.68972-14.1136-7.83187-21.7008-3.83436z"/>
<path fill="#d42e12" stroke="#000" stroke-width="2" d="m295.754,265.034c-7.99502,8.89242-7.91345,17.948,0.16317,26.922l3.01853,3.34485-3.42645,3.75276c-1.87639,2.03956-3.91594,4.97651-4.56858,6.44497-2.61062,6.28181-0.65265,14.6848,4.48701,19.4981,3.1001,3.01851,3.18169,4.24224,0.24475,7.83185-1.30532,1.55005-2.85537,3.75278-3.42645,4.89491-6.11864,11.5846,3.01854,26.1062,16.5611,26.1062,5.38441,0,9.4635-1.71322,13.1347-5.62914,2.93696-3.10013,4.48701-3.1817,7.09762-0.40792,3.83436,4.24226,8.89244,6.85289,13.1347,6.85289,4.97649,0,8.0766-1.55005,13.1347-6.36339l3.83432-3.75276,3.50803,3.83434c7.58712,8.15819,15.2558,8.40294,25.4536,0.65265l4.16067-3.10011,3.5896,3.26328c4.48701,3.91594,7.83187,5.46599,12.2373,5.46599,4.40544,0,7.6687-1.71323,12.8084-6.77129l4.24226-4.07911,3.26328,2.93696c6.28183,5.62914,9.70825,7.42394,14.2768,7.42394,4.73173,0,8.07659-1.55005,12.8084-5.79231,4.40541-3.99751,6.7713-8.64768,6.20022-12.482-0.57108-4.16069-4.32384-11.7478-7.09762-14.3584l-2.36588-2.28431,3.67118-4.16066c7.99506-9.38192,8.07663-16.6427,0.16318-25.943l-3.26328-3.91593,3.42644-4.16069c7.66872-9.05559,7.58711-17.4585-0.16316-25.6983l-4.16069-4.32386-76.3606,0.0816-76.3607,0.0816-3.42643,3.83436z"/>
<path fill="#000" d="m278.855,254.452s0.0499,76.3333,0.20562,105.481c-0.25963,4.31339,2.26727,5.35836,5.96877,8.23046,5.98609,4.64475,12.3714,9.50728,46.6256,6.84878,31.46,0.22,38.06,2.64,41.36,15.18l1.76,7.04,1.54001-7.04c2.41999-12.1,9.8856-14.96,40.2456-15.18,39.0839,0.58804,42.3304-1.86487,47.9312-6.64319,0,0,4.09166-3.14989,5.14637-6.17438,1.18378-3.39458,0.61683-6.17028,0.61683-6.17028v-101.572-106.92h-95.7-95.7v106.92zm189.2,0.88,0.41121,88.0689c0,11.8564,0.85379,15.4923-0.41121,17.7511-1.26501,2.25885-3.82636,5.26561-3.82636,5.26561-5.94,5.94-10.9692,7.15515-38.06,6.80561-17.4993,0.0473-26.9537,0.53146-40.7391,2.70785-2.16476,1.94291-8.11018,1.77028-10.8746,13.0787-3.58683-11.3084-6.14562-10.817-6.14562-10.817-14.6475-6.14559-21.1981-4.92224-44.6744-5.16074-15.18,2.2-31.46-0.66-37.62-6.82,0,0-0.9165,0.24878-5.05999-4.64878,0.0405-21.4537,0-106.231,0-106.231v-105.6h93.5,93.5v105.6z"/>
<path fill="#fff" d="m348.088,195.609c-5.79116,11.982-6.03587,17.3586-1.22351,26.9595,3.75201,7.37357,8.15657,12.0588,14.1924,15.0544,15.7422,7.91116,35.8889,2.07374,43.8007-12.6733,4.89393-9.06332,4.32299-24.1944-1.06032-30.7999l-1.46818-1.76658-1.38664,5.22291c-1.95756,7.45037-3.91515,11.2139-7.83027,15.2079-7.34093,7.45035-17.455,9.14012-27.8954,4.53165-8.07502-3.60996-11.3376-8.60246-14.3556-22.5047l-0.7341-3.45635-2.03911,4.22442z"/>
<path fill="#000" d="m346.175,196.372c-4.84,11-4.4,16.5,1.54,28.16,15.4,30.36,61.16,18.92,60.94-15.4-0.21999-5.5-0.0494-9.08169-3.08-15.18-1.43-2.53-2.0422-3.28099-3.062-4.81096-0.403,1.65693-1.00799,4.59096-2.218,9.43096-4.4,16.94-18.92,24.86-34.1,18.48-8.58001-3.52-12.54-9.24-14.74-21.12l-1.54-7.7-3.74,8.14zm14.96,21.78c10.56,6.82,26.62,4.62,34.76-4.4,3.30001-3.74,5.32653-9.57493,6.16001-12.54,0.82241-2.9258,0.9828-3.36373,1.48037-6.28747,1.27578,2.83327,1.97764,4.32223,2.58011,8.70439,0.88995,6.47321-0.54049,11.8831-2.08049,15.8431-7.7,20.24-32.34,26.4-47.74,11.88-7.47999-6.82-13.4206-20.2224-10.1714-28.8694,1.15229-3.06662,1.4156-4.81481,2.92193-8.05184,0.27269,2.21157,0.42946,5.24119,1.96946,9.86119,1.98001,6.38,5.5,11,10.12,13.86z"/>
<g id="flower" stroke="#000" transform="translate(310.25716,43.566)">
<path fill="#e9d315" stroke-width="1.625" d="m27.1605,254.011c-0.14705,4.75887,0.08261,6.93629,0.83465,10.4636-2.39579-2.31198-4.8086-3.92655-8.12711-5.85286-4.22705-2.45369-9.56535-4.79541-11.378-1.80206-1.74504,2.88171,3.25977,6.82706,7.17796,9.03804,4.28422,2.41752,6.75357,2.74787,9.54107,3.84151-2.36033,1.24732-5.57935,2.08582-9.14772,4.37474-3.5008,2.24557-8.73492,6.89307-6.74942,9.85992,2.02088,3.01971,7.85949-0.3737,11.1521-2.57738,2.74159-1.83488,6.36943-4.73143,7.78088-6.214-0.27887,2.12862-1.122,6.36983-1.0594,10.4258,0.07602,4.92574,0.75765,10.4373,4.42576,10.4281,3.74495-0.009,4.54099-6.5004,4.48191-10.8891-0.06174-4.58642-0.58494-7.82829-1.03669-10.0914,1.62275,1.65543,4.07039,4.0273,7.29718,6.5711,2.66401,2.10013,9.18671,5.20948,11.1406,2.23039,1.98897-3.03261-1.10718-6.04696-6.79612-9.6573-3.98713-2.53033-6.81066-3.39634-9.40845-4.47251,2.62687-1.07618,5.49859-1.35221,9.6971-3.90434,6.22889-3.78633,8.86807-6.31856,6.95907-9.57823-1.85593-3.16904-5.60678-1.43756-11.3035,2.18622-3.05197,1.94141-5.90774,4.51498-7.84254,6.36593,0.44241-2.91268,0.91774-7.20583,0.88216-10.3869-0.05558-4.72823-1.09079-10.84-4.3104-10.8587-3.21961-0.0186-4.05027,5.29417-4.21111,10.4994z"/>
<path fill="#fff" stroke-width="2.79314" d="m41.49,195.116c0,4.1373-3.35394,7.49125-7.49124,7.49125s-7.49124-3.35395-7.49124-7.49125,3.35394-7.49124,7.49124-7.49124c4.1338,0,7.48629,3.34848,7.49124,7.48228" transform="matrix(0.668973,0,0,0.668973,8.6491,139.2056)"/>
</g>
<use xlink:href="#flower" x="65.63"/>
</g>
</svg>