<?xml version="1.0" encoding="UTF-8"?>
<svg xmlns="http://www.w3.org/2000/svg" width="900" height="600" viewBox="0 0 90 60">
<path d="M90,0H0V60z" fill="#003580"/>
<path d="M0,60H90V0z" fill="#009543"/>
<path d="M0,48L72,0H90V12L18,60H0z" fill="#fff"/>
<path d="M0,51L76.5,0H90V9L13.5,60H0z" fill="#d21034"/>
<path d="M18,6.5 19.552914,10.704445 23,7.839746 22.242641,12.257359 26.660254,11.5 23.795555,14.947086 28,16.5 23.795555,18.052914 26.660254,21.5 22.242641,20.742641 23,25.160254 19.552914,22.295555 18,26.5 16.447086,22.295555 13,25.160254 13.757359,20.742641 9.339746,21.5 12.204445,18.052914 8,16.5 12.204445,14.947086 9.339746,11.5 13.757359,12.257359 13,7.839746 16.447086,10.704445z" fill="#ffce00"/>
<circle cx="18" cy="16.5" r="5.5" fill="#ffce00" stroke="#003580"/>
</svg>