<?xml version="1.0" encoding="UTF-8"?>
<!DOCTYPE svg PUBLIC "-//W3C//DTD SVG 1.1//EN" "http://www.w3.org/Graphics/SVG/1.1/DTD/svg11.dtd">

<svg xmlns="http://www.w3.org/2000/svg" xmlns:xlink="http://www.w3.org/1999/xlink" width="600" height="300" viewBox="0 0 120 60">
<clipPath id="t">
<path d="M0,0V15H70V30H60zM0,30V40H30V0H60z"/>
</clipPath>
<title>Flag of Niue</title>
<rect width="120" height="60" fill="#002868"/>
<g stroke="#cf142b" stroke-width="6">
<path d="M0,0L60,30M60,0L0,30" stroke="#fff"/>
<path d="M0,0L60,30M60,0L0,30" clip-path="url(#t)" stroke-width="4"/>
<path d="M30,0V40M0,15H70" stroke="#fff" stroke-width="10"/>
<path d="M30,0V40M0,15H70"/>
</g>
<path d="M60,0h60V60H0V30H60z" fill="#fcd116"/>
<g transform="translate(30,15)">
<g transform="scale(5.10390485)">
<circle r="1" fill="#002868"/>
<path id="s" d="M0,-513674 301930,415571 -488533,-158734H488533L-301930,415571" fill="#fcd116" transform="scale(0.00000194676)"/>

</g>
<use xlink:href="#s" transform="translate(-17.5,0.29) scale(3)"/>
<use xlink:href="#s" transform="translate(17.5,0.29) scale(3)"/>
<use xlink:href="#s" transform="translate(0,10.29) scale(3)"/>
<use xlink:href="#s" transform="translate(0,-9.71) scale(3)"/>
</g>
</svg>