<?xml version="1.0" encoding="UTF-8" standalone="no"?>
<!-- Created with Inkscape (http://www.inkscape.org/) -->

<svg
   xmlns:dc="http://purl.org/dc/elements/1.1/"
   xmlns:cc="http://creativecommons.org/ns#"
   xmlns:rdf="http://www.w3.org/1999/02/22-rdf-syntax-ns#"
   xmlns:svg="http://www.w3.org/2000/svg"
   xmlns="http://www.w3.org/2000/svg"
   xmlns:sodipodi="http://sodipodi.sourceforge.net/DTD/sodipodi-0.dtd"
   xmlns:inkscape="http://www.inkscape.org/namespaces/inkscape"
   version="1.0"
   width="1200"
   height="600"
   viewBox="-15 -7.5 30 15"
   id="Flag_of_the_Pitcairn_Islands"
   inkscape:version="0.47 r22583"
   sodipodi:docname="Flag_of_the_Governor_of_the_Pitcairn_Islands.svg">
  <metadata
     id="metadata125">
    <rdf:RDF>
      <cc:Work
         rdf:about="">
        <dc:format>image/svg+xml</dc:format>
        <dc:type
           rdf:resource="http://purl.org/dc/dcmitype/StillImage" />
      </cc:Work>
    </rdf:RDF>
  </metadata>
  <sodipodi:namedview
     pagecolor="#ffffff"
     bordercolor="#666666"
     borderopacity="1"
     objecttolerance="10"
     gridtolerance="10"
     guidetolerance="10"
     inkscape:pageopacity="0"
     inkscape:pageshadow="2"
     inkscape:window-width="1280"
     inkscape:window-height="1004"
     id="namedview123"
     showgrid="false"
     inkscape:zoom="3.1466667"
     inkscape:cx="783.10788"
     inkscape:cy="363.42459"
     inkscape:window-x="-8"
     inkscape:window-y="-8"
     inkscape:window-maximized="1"
     inkscape:current-layer="Flag_of_the_Pitcairn_Islands" />
  <defs
     id="defs3">
    <inkscape:perspective
       sodipodi:type="inkscape:persp3d"
       inkscape:vp_x="0 : 300 : 1"
       inkscape:vp_y="0 : 1000 : 0"
       inkscape:vp_z="1200 : 300 : 1"
       inkscape:persp3d-origin="600 : 200 : 1"
       id="perspective127" />
    <clipPath
       id="border">
      <rect
         x="-15"
         y="-7.5"
         width="30"
         height="15"
         id="rect6" />
    </clipPath>
  </defs>
  <rect
     fill="#00247D"
     x="-15"
     y="-7.5"
     width="30"
     height="15"
     id="rect8" />
  <comment
     id="comment10">The above line is the ensign field color: #CF142B red and #00247D blue</comment>
  <g
     id="canton"
     transform="matrix(0.5,0,0,0.5,-7.5,-3.75)">
    <g
       clip-path="url(#border)"
       id="g13">
      <circle
         r="20"
         fill="#00247D"
         id="circle15"
         d="m 20,0 c 0,11.045695 -8.954305,20 -20,20 -11.045695,0 -20,-8.954305 -20,-20 0,-11.045695 8.954305,-20 20,-20 11.045695,0 20,8.954305 20,20 z" />
      <path
         d="M -20,-10 L 20,10 M -20,10 L 20,-10"
         stroke-width="3"
         stroke="white"
         id="diags_white" />
      <path
         d="M -20,-10 L 20,10 M -20,10 L 20,-10"
         stroke-width="2"
         stroke="#CF142B"
         id="diags_red" />
      <path
         stroke="none"
         fill="white"
         d="M 0,0 l 20,10 h -3 l -20,-10 M 0,0 l 20,-10 h 3 l -20,10 M 0,0 l -20,10 h -3 l 20,-10 M 0,0 l -20,-10 h 3 l 20,10"
         id="eraser_white" />
      <comment
         id="comment20">I think the above two lines give the simplest way to make the diagonals</comment>
      <path
         d="M -20,0 H 20 M 0,-10 V 10"
         stroke-width="5"
         stroke="white"
         id="cross_white" />
      <path
         d="M -20,0 H 20 M 0,-10 V 10"
         stroke-width="3"
         stroke="#CF142B"
         id="cross_red" />
    </g>
  </g>
  <g
     transform="matrix(0.118269,0,0,0.118269,-18.38135,-8.683977)"
     id="g2791">
    <path
       d="M 197.845,77.265 C 195.139,79.5605 192.561,82.905 191.928,85.9284 C 190.146,94.4412 187.779,96.3347 184.123,94.5066 C 184.123,99.0768 188.131,99.4284 189.889,96.7566 C 189.889,101.046 191.444,104.763 194.951,107.936 C 196.428,109.272 196.709,108.358 196.006,106.882 C 195.303,105.405 195.303,100.624 193.897,97.8816 C 196.147,99.4987 199.451,98.5847 199.17,94.155 C 196.287,95.8425 193.422,95.7765 193.123,91.7643 C 192.772,87.0534 194.61,80.2182 197.845,77.265 z "
       style="fill:#f7e017;fill-opacity:1;stroke:#000000;stroke-width:0.125"
       id="path2793" />
    <path
       d="M 194.422,43.4008 C 194.613,41.7118 194.252,39.977 193.018,38.8893 C 190.634,36.7898 188.298,37.4853 186.56,39.176 C 183.958,37.7697 182.576,42.7566 179.623,41.9128 C 180.115,43.53 180.889,44.2331 182.365,43.6706 C 180.818,45.0768 182.365,46.7643 180.537,48.4518 C 183.842,49.5066 185.6,47.6784 185.459,44.5143 C 186.725,45.6393 188.693,45.5691 189.748,44.3034 C 187.99,43.7409 187.982,42.2109 188.693,40.7878 C 189.748,38.6784 194.703,38.7602 194.422,43.4008 z "
       style="fill:#f7e017;fill-opacity:1;stroke:#000000;stroke-width:0.125"
       id="path2795" />
    <path
       d="M 202.053,67.8581 C 198.326,69.8268 191.506,68.9831 190.873,64.1316 C 190.24,59.28 194.951,57.1003 196.217,56.4675 C 198.19,55.4807 199.732,57.2409 199.1,59.28 C 201.279,58.5066 201.772,55.9753 200.717,54.4987 C 203.6,54.7097 206.272,52.53 207.397,49.4362 C 206.386,50.399 203.629,49.748 201.359,49.6017 C 202.062,48.8283 202.053,47.3268 201.842,46.5534 C 199.451,49.0143 196.006,47.8893 191.436,54.9909 C 192.139,52.53 193.475,47.6081 194.248,44.3737 C 194.325,44.0503 194.385,43.7322 194.422,43.4008 C 194.703,38.7602 189.754,38.6772 188.699,40.7865 C 189.855,42.0912 189.248,43.6132 188.834,45.9206 C 188.342,48.6628 187.287,54.9909 186.373,57.1003 C 186.092,53.7956 183.912,53.5847 183.49,51.9675 C 182.857,52.3893 182.506,53.5143 182.647,54.2878 C 181.873,53.4441 179.201,54.4987 178.217,53.2331 C 177.162,55.3425 178.85,57.4518 180.607,58.3659 C 179.588,58.4362 179.342,59.6667 178.217,59.6667 C 179.729,61.4245 181.275,62.1276 183.068,62.2682 C 184.861,62.4088 186.197,63.0763 187.287,65.2566 C 189.045,68.7722 195.742,71.0573 202.053,67.8581 z "
       style="fill:#337321;fill-opacity:1;stroke:#000000;stroke-width:0.125"
       id="path2797" />
    <path
       d="M 211.334,63.5691 C 209.225,69.405 203.459,73.5534 200.857,74.1862 C 196.43,75.2631 187.4,79.6463 184.976,81.9026 C 184.593,81.8178 184.238,81.679 183.982,81.4987 C 182.787,80.655 181.803,77.9128 183.912,75.5925 C 190.522,69.405 197.623,72.0768 202.053,67.8581 C 198.326,69.8268 191.506,68.9831 190.873,64.1316 C 194.881,65.1862 202.123,65.2566 207.889,59.0691 C 208.662,59.9128 210.912,62.5847 211.334,63.5691 z "
       style="fill:#f7e017;fill-opacity:1;stroke:#000000;stroke-width:0.125"
       id="path2799" />
    <path
       d="M 197.845,77.265 C 194.505,80.0987 192.772,87.0534 193.123,91.7643 C 193.221,93.0749 193.589,93.963 194.146,94.508 C 194.392,91.8361 196.25,84.9321 200.998,81.8503 C 205.006,79.2487 211.264,73.4128 213.584,66.7331 C 213.162,65.5378 212.459,64.6941 211.123,63.8503 C 208.827,70.154 202.661,73.1781 197.845,77.265 z "
       style="fill:#337321;fill-opacity:1;stroke:#000000;stroke-width:0.125"
       id="path2801" />
    <path
       d="M 209.19,60.862 C 207.994,62.655 205.287,65.1159 202.686,66.1003 C 203.248,65.4675 203.424,64.6588 203.459,63.9909 C 200.154,65.2566 193.545,65.1159 190.873,64.1316 C 194.881,65.1862 202.123,65.2566 207.889,59.0691 C 208.451,59.7018 208.943,60.2643 209.19,60.862 z "
       style="fill:#316d3a;fill-opacity:1;stroke:#000000;stroke-width:0.125"
       id="path2803" />
    <path
       d="M 183.912,75.5925 C 178.538,80.6232 182.084,85.0143 184.193,85.9987 C 183.631,89.5143 186.936,89.0925 186.865,92.0456 C 188.201,91.2722 188.553,89.2331 188.342,87.6159 C 190.029,89.4441 194.318,87.405 195.232,90.78 C 195.795,87.0534 192.912,83.3268 189.326,83.6784 C 190.803,82.3425 189.959,80.1628 188.553,79.6003 C 188.272,82.3425 185.178,82.3425 183.982,81.4987 C 182.787,80.655 181.803,77.9128 183.912,75.5925 z "
       style="fill:#337321;fill-opacity:1;stroke:#000000;stroke-width:0.125"
       id="path2805" />
    <path
       d="M 195.549,107.585 C 194.962,107.92 195.005,108.676 195.373,109.167 C 196.111,110.151 194.853,112.382 197.236,112.858 C 197.94,112.999 198.481,112.569 198.748,111.768 C 199.486,109.553 197.131,109.307 196.92,108.253 C 196.709,107.198 196.041,107.303 195.549,107.585 z "
       style="fill:#f7e017;fill-opacity:1;stroke:#000000;stroke-width:0.125"
       id="path2807" />
    <path
       d="M 197.553,111.733 C 196.764,112.097 196.076,112.612 196.393,115.143 C 196.523,116.19 196.463,118.729 195.549,118.764 C 196.111,119.046 197.307,119.344 197.799,118.694 C 198.273,119.485 199.346,119.257 199.768,118.272 C 200.33,118.729 201.104,117.956 201.104,117.288 C 201.596,117.604 202.58,117.147 202.334,115.636 C 202.932,115.846 203.705,115.425 203.986,115.038 C 203.107,114.862 200.893,113.667 200.365,112.718 C 199.838,111.768 198.467,111.311 197.553,111.733 z "
       style="fill:#f7e017;fill-opacity:1;stroke:#000000;stroke-width:0.125"
       id="path2809" />
    <g
       id="g2811">
      <path
         d="M 185.371,40.6208 C 185.725,40.0962 186.121,39.6031 186.56,39.176"
         style="fill:none;stroke:#000000;stroke-width:0.125"
         id="path2813" />
      <path
         d="M 198.748,49.9284 C 199.369,49.5736 200.312,49.5344 201.359,49.6017"
         style="fill:none;stroke:#000000;stroke-width:0.125"
         id="path2815" />
      <path
         d="M 197.799,118.694 C 197.553,118.343 197.465,116.866 197.641,115.969"
         style="fill:none;stroke:#000000;stroke-width:0.125"
         id="path2817" />
      <path
         d="M 199.768,118.272 C 199.381,117.973 198.643,116.954 198.52,116.057"
         style="fill:none;stroke:#000000;stroke-width:0.125"
         id="path2819" />
      <path
         d="M 201.104,117.288 C 200.611,117.059 199.416,115.512 199.152,114.511"
         style="fill:none;stroke:#000000;stroke-width:0.125"
         id="path2821" />
      <path
         d="M 202.334,115.636 C 201.754,115.512 199.979,114.352 199.24,113.122"
         style="fill:none;stroke:#000000;stroke-width:0.125"
         id="path2823" />
    </g>
    <path
       d="M 234.748,75.6628 C 243.397,82.905 243.959,88.6706 242.623,92.0456 C 241.92,88.8816 238.334,83.9597 234.607,82.6941 L 234.748,75.6628 z "
       style="fill:#f7e017;fill-opacity:1;stroke:#000000;stroke-width:0.125"
       id="path2825" />
    <g
       id="g2006">
      <g
         id="g2828">
        <path
           d="M 219.279,71.5847 L 235.311,71.5847 C 235.311,71.5847 235.311,75.8034 235.311,90.5691 C 235.311,106.741 226.311,116.303 217.17,121.366 C 208.029,116.303 199.029,106.741 199.029,90.5691 C 199.029,75.8034 199.029,71.5847 199.029,71.5847 L 210.279,71.5847 C 210.297,72.5691 210.385,74.0456 211.545,75.5222 C 214.199,75.2585 217.205,73.2722 219.279,71.5847 z "
           style="fill:#337321;fill-opacity:1;stroke:#000000;stroke-width:0.125"
           id="path2830" />
        <path
           d="M 235.311,71.5847 C 235.311,71.5847 235.311,75.8034 235.311,90.5691 C 235.311,95.4511 234.49,99.7309 233.094,103.466 L 217.17,74.2566 L 201.246,103.466 C 199.849,99.7309 199.029,95.4511 199.029,90.5691 C 199.029,75.8034 199.029,71.5847 199.029,71.5847 L 235.311,71.5847 z "
           style="fill:#006ec7;stroke:#000000;stroke-width:0.125"
           id="path2832" />
        <path
           d="M 233.579,102.065 C 233.298,102.926 232.788,104.324 232.393,105.185 L 217.17,76.8948 L 201.947,105.185 C 201.552,104.324 201.042,102.926 200.761,102.065 L 217.17,71.639434 L 233.579,102.065 z "
           style="fill:#f7e017;fill-opacity:1;stroke:none;stroke-width:0.12500000000000000"
           id="path2711" />
      </g>
      <g
         style="fill:#f7e017"
         id="g2835">
        <path
           d="M 224.408,112.468 C 224.83,112.679 225.607,113.069 225.959,113.21 C 226.803,111.522 226.943,109.132 226.662,107.022 C 225.748,109.343 222.654,109.272 221.811,110.678 C 222.33,110.938 222.811,111.278 223.226,111.578 C 222.171,112.632 219.701,114.405 218.295,114.827 L 218.295,99.7448 C 218.295,98.6901 217.943,97.8112 217.943,96.9323 C 217.943,96.9323 217.943,94.5177 217.943,93.8145 C 217.943,93.1114 217.803,92.0919 217.17,92.0919 C 216.537,92.0919 216.397,93.1114 216.397,93.8145 C 216.397,94.5177 216.397,96.9323 216.397,96.9323 C 216.397,97.8112 216.045,98.8307 216.045,99.7448 L 216.045,114.827 C 215.272,112.577 212.243,113.347 210.837,111.097 C 211.387,110.963 211.966,110.922 212.529,111.03 C 211.475,107.444 208.592,107.163 208.029,106.108 C 208.029,107.585 207.397,111.03 208.381,112.507 C 208.602,112.242 208.934,111.97 209.333,111.726 C 210.528,114.328 215.904,114.335 217.17,118.624 C 218.186,117.049 221.846,115.219 224.408,112.468 z "
           style="fill:#f7e017;fill-opacity:1;stroke:#000000;stroke-width:0.125"
           id="path2837" />
        <path
           d="M 217.17,99.9206 C 218.365,99.9206 222.162,99.5318 223.533,99.5318 C 223.89,99.5318 224.18,98.9976 224.18,98.3386 C 224.18,97.6796 223.89,97.1453 223.533,97.1453 C 222.162,97.1453 218.365,96.7566 217.17,96.7566 C 215.975,96.7566 212.178,97.1453 210.807,97.1453 C 210.45,97.1453 210.16,97.6796 210.16,98.3386 C 210.16,98.9976 210.45,99.5318 210.807,99.5318 C 212.178,99.5318 215.975,99.9206 217.17,99.9206 z "
           style="fill:#f7e017;fill-opacity:1;stroke:#000000;stroke-width:0.125"
           id="path2839" />
        <path
           d="M 216.4,93.74 C 216.146,93.5359 215.813,93.4122 215.448,93.4122 C 214.651,93.4122 214.006,94.0016 214.006,94.7286 C 214.006,95.4557 214.651,96.045 215.448,96.045 C 216.244,96.045 216.889,95.4557 216.889,94.7286 C 216.889,94.1661 217.707,94.1661 217.707,94.7286 C 217.707,95.868 216.696,96.7917 215.448,96.7917 C 214.2,96.7917 213.188,95.868 213.188,94.7286 C 213.188,93.5893 214.2,92.6656 215.448,92.6656 C 215.822,92.6656 216.175,92.7487 216.486,92.896 C 216.458,93.085 216.4,93.437 216.4,93.74 z "
           style="fill:#f7e017;stroke:#000000;stroke-width:0.125"
           id="path2841" />
        <path
           d="M 210.807,99.5318 C 211.164,99.5318 211.453,98.9976 211.453,98.3386 C 211.453,97.6796 211.164,97.1453 210.807,97.1453"
           style="fill:#f7e017;stroke:#000000;stroke-width:0.125"
           id="path2843" />
        <path
           d="M 211.338,99.5318 C 211.695,99.5318 211.984,98.9976 211.984,98.3386 C 211.984,97.6796 211.695,97.1453 211.338,97.1453"
           style="fill:#f7e017;stroke:#000000;stroke-width:0.125"
           id="path2845" />
        <path
           d="M 214.809,99.7769 C 215.239,99.7769 215.588,99.1329 215.588,98.3386 C 215.588,97.5442 215.239,96.9003 214.809,96.9003"
           style="fill:#f7e017;stroke:#000000;stroke-width:0.125"
           id="path2847" />
        <path
           d="M 215.617,99.8422 C 216.067,99.8422 216.432,99.169 216.432,98.3386 C 216.432,97.5081 216.067,96.8349 215.617,96.8349"
           style="fill:#f7e017;stroke:#000000;stroke-width:0.125"
           id="path2849" />
        <path
           d="M 218.315,99.8592 C 218.77,99.8592 219.139,99.1783 219.139,98.3386 C 219.139,97.4987 218.77,96.818 218.315,96.818"
           style="fill:#f7e017;stroke:#000000;stroke-width:0.125"
           id="path2851" />
        <path
           d="M 219.168,99.8109 C 219.618,99.8109 219.982,99.1517 219.982,98.3386 C 219.982,97.5254 219.618,96.8662 219.168,96.8662"
           style="fill:#f7e017;stroke:#000000;stroke-width:0.125"
           id="path2853" />
        <path
           d="M 222.944,99.5554 C 223.308,99.5554 223.604,99.0106 223.604,98.3386 C 223.604,97.6666 223.308,97.1218 222.944,97.1218"
           style="fill:#f7e017;stroke:#000000;stroke-width:0.125"
           id="path2855" />
        <path
           d="M 209.333,111.726 C 209.768,111.46 210.286,111.231 210.837,111.097"
           style="fill:#f7e017;stroke:#000000;stroke-width:0.125"
           id="path2857" />
        <path
           d="M 223.639,111.874 C 223.51,111.782 223.372,111.684 223.226,111.578"
           style="fill:#f7e017;stroke:#000000;stroke-width:0.125"
           id="path2859" />
        <path
           d="M 224.408,112.468 C 225.393,111.411 226.213,110.216 226.662,108.85"
           style="fill:#f7e017;stroke:#000000;stroke-width:0.125"
           id="path2861" />
      </g>
      <g
         id="g2863">
        <path
           d="M 213.95,85.0055 C 213.95,84.6628 214.232,84.5156 214.56,84.2672 C 214.956,83.9684 215.114,83.8278 215.474,83.8278 L 220.089,83.8278 C 220.431,83.8278 220.51,83.9157 220.51,84.2321 L 220.51,90.5075 C 220.51,90.8239 220.431,90.9118 220.089,90.9118 L 213.95,90.9118 L 213.95,84.9441"
           style="fill:#ffffff;stroke:#000000;stroke-width:0.125"
           id="path2865" />
        <path
           d="M 218.946,91.4571 C 219.552,91.4571 219.443,91.4439 219.869,91.0177 C 220.313,90.5738 220.271,90.6133 220.271,90.2049 L 220.271,84.467 C 220.271,84.1711 220.198,84.0889 219.88,84.0889 L 215.61,84.0889 C 215.276,84.0889 215.13,84.2204 214.764,84.4999 C 214.46,84.7321 214.203,84.8698 214.203,85.1904 L 214.203,91.4571 L 218.946,91.4571 z "
           style="fill:#e5e5e5;stroke:#000000;stroke-width:0.125"
           id="path2867" />
        <path
           d="M 219.403,91.3249 C 219.403,91.6413 219.324,91.7292 218.981,91.7292 L 214.367,91.7292 C 214.024,91.7292 213.95,91.6413 213.95,91.3249 L 213.95,85.0495 C 213.95,84.7331 214.024,84.6452 214.367,84.6452 L 218.981,84.6452 C 219.324,84.6452 219.403,84.7331 219.403,85.0495 L 219.403,91.3249 z "
           style="fill:#ffffff;stroke:#000000;stroke-width:0.125"
           id="path2869" />
      </g>
    </g>
    <g
       id="g2871">
      <path
         d="M 228.348,67.9075 C 229.247,68.9095 229.543,70.26 229.053,71.5785 L 227.717,71.5785 C 228.279,69.891 227.928,68.28 225.537,68.0691 C 221.962,67.7536 217.803,74.6784 211.545,75.5222 C 209.717,73.3425 209.815,69.1905 212.135,67.2217 C 210.936,63.7635 208.402,59.9605 206.649,58.3144 C 205.501,58.1277 204.175,58.0342 203.318,58.0847 C 204.232,56.1159 206.837,54.0438 208.947,53.2001 C 209.288,52.7008 209.655,52.2211 209.998,51.7917 C 210.209,49.0847 223.076,50.3503 225.818,52.0378 C 225.818,55.0612 227.012,65.1653 228.348,67.9075 z "
         style="fill:#96877d;fill-opacity:1;stroke:#000000;stroke-width:0.125"
         id="path2875" />
      <g
         style="fill:#000000"
         id="g2877">
        <path
           d="M 212.752,69.7533 C 212.446,65.0665 210.552,61.2068 207.889,58.5768 C 209.154,58.9284 211.756,58.9284 213.514,57.6628 C 215.834,56.1159 221.881,53.4088 224.096,54.5691 C 224.272,54.9557 224.377,55.8347 224.236,56.3972 C 223.709,54.9909 217.873,57.1706 216.221,57.8386 C 214.639,58.5768 213.936,59.5612 214.498,61.7761 C 213.584,61.0026 213.9,60.2643 212.951,59.7018 C 213.338,60.6159 213.654,62.2682 213.76,63.6042 C 213.408,62.655 212.775,60.6159 211.404,59.4206 C 212.6,61.7409 213.637,67.3131 213.145,70.2663 C 214.094,70.2663 216.186,69.3347 217.029,68.6667 C 216.291,69.7213 214.164,70.4597 212.793,70.7409 C 212.178,71.4792 211.756,73.3776 211.791,74.4323 C 211.686,73.1316 212.096,69.961 212.752,69.7533 z "
           style="fill:#000000;stroke:none"
           id="path2879" />
        <path
           d="M 228.348,67.9075 C 227.184,66.6117 225.012,65.9101 222.232,66.6628 C 222.654,66.4518 223.568,66.1003 224.377,65.9597 C 224.272,65.2213 223.604,62.0573 223.498,61.2838 L 224.272,60.9675 C 224.658,62.8659 225.15,65.0456 225.467,65.9245 C 225.713,65.9948 226.275,66.1003 226.768,66.3463 C 226.557,65.6081 225.361,60.2995 225.397,59.737 L 226.451,59.1745 C 226.873,62.0573 227.541,66.2409 228.348,67.9075 z "
           style="fill:#000000;stroke:none"
           id="path2881" />
      </g>
      <g
         id="g2985">
        <path
           d="M 227.717,71.5785 C 228.279,69.891 227.928,68.28 225.537,68.0691 C 223.684,67.9055 221.674,69.7064 219.295,71.5785 L 227.717,71.5785 z "
           style="fill:#96877d;fill-opacity:1;stroke:#000000;stroke-width:0.125"
           id="path2873" />
        <path
           d="M 212.178,56.4323 C 211.123,56.573 208.768,56.362 207.572,55.9753 C 207.641,55.6579 207.764,55.3292 207.922,54.9811 C 207.183,55.4733 205.779,56.4323 205.252,57.1003 C 206.94,57.4518 210.423,57.627 212.178,56.4323 z "
           style="fill:#96877d;fill-opacity:1;stroke:#000000;stroke-width:0.125"
           id="path2883" />
      </g>
      <path
         d="M 212.135,67.2217 C 212.523,68.3426 212.776,69.4256 212.811,70.3893"
         style="fill:none;stroke:#000000;stroke-width:0.125"
         id="path2885" />
      <path
         d="M 208.947,53.2001 C 208.309,54.1315 207.755,55.1284 207.572,55.9753 C 208.768,56.362 211.123,56.573 212.178,56.4323"
         style="fill:none;stroke:#000000;stroke-width:0.125"
         id="path2887" />
      <path
         d="M 206.649,58.3144 C 207.104,58.3882 207.53,58.4772 207.889,58.5768 C 209.154,58.9284 211.756,58.9284 213.514,57.6628 C 215.272,56.3972 220.053,52.4597 225.467,52.0378"
         style="fill:none;stroke:#000000;stroke-width:0.125"
         id="path2889" />
      <path
         d="M 205.252,57.1003 C 206.94,57.4518 210.423,57.627 212.178,56.4323 C 216.256,53.655 220.193,52.0378 224.131,51.8268"
         style="fill:none;stroke:#000000;stroke-width:0.125"
         id="path2891" />
    </g>
    <path
       d="M 234.748,75.6628 C 240.654,79.7409 245.014,83.6784 246.279,90.0066 C 247.545,96.3347 249.936,98.0222 252.889,96.3347 C 252.186,99.9909 248.529,100.413 245.436,97.6003 C 245.717,101.819 244.029,106.882 239.67,108.71 C 239.389,106.178 241.062,104.174 240.584,102.1 C 240.373,101.186 240.303,99.0768 241.498,98.0925 C 239.178,98.8659 235.522,97.3893 235.17,93.9441 C 237.842,95.2097 241.287,95.4206 242.623,92.0456 C 243.959,88.6706 243.397,82.905 234.748,75.6628 z "
       style="fill:#337321;fill-opacity:1;stroke:#000000;stroke-width:0.125"
       id="path2893" />
    <path
       d="M 242.201,42.7566 C 244.029,37.9753 248.811,38.4675 250.428,40.5066 C 255.139,37.8347 255.772,43.8816 259.779,42.6862 C 259.709,43.8112 258.373,44.8659 256.897,44.7956 C 258.443,46.2018 256.264,48.3112 259.568,49.5768 C 256.756,50.9831 252.818,49.5066 251.764,45.6393 C 250.85,47.4675 247.545,47.4675 246.209,45.9909 C 249.092,45.2175 248.881,42.5456 247.264,41.4909 C 245.635,40.4286 242.764,40.8581 242.201,42.7566 z "
       style="fill:#337321;fill-opacity:1;stroke:#000000;stroke-width:0.125"
       id="path2895" />
    <path
       d="M 227.938,53.2858 C 229.25,57.5176 231.964,61.4505 234.889,64.1316 C 238.264,67.2253 243.361,66.4518 246.209,63.4987 C 246.279,69.3874 240.18,69.8444 236.787,67.9987 C 235.292,67.1853 234.082,67.6127 235.522,68.9128 C 237.701,70.8816 242.47,72.3454 248.107,73.5534 C 257.951,75.6628 254.436,83.4675 251.553,83.3972 C 252.379,83.3795 253.057,82.5144 251.869,81.446 C 243.326,73.7643 225.959,76.7878 226.24,59.6316 C 224.412,64.1316 216.889,62.3737 220.404,57.03 C 221.529,57.9441 223.498,58.0143 224.061,56.6081 C 224.498,55.5139 224.212,53.6108 222.242,51.9755 C 222.566,51.9499 223.261,51.9763 223.19,51.1677 C 223.278,51.6422 223.709,52.3454 224.816,52.1081 C 225.133,52.6091 225.465,52.9385 225.915,52.7585 C 226.003,52.7233 226.267,52.5915 226.161,52.0905 C 226.249,53.0222 227.356,53.3562 227.938,53.2858 z "
       style="fill:#337321;fill-opacity:1;stroke:#000000;stroke-width:0.125"
       id="path2897" />
    <path
       d="M 236.787,67.9987 C 240.865,70.6706 245.476,70.6687 249.725,65.7487 C 251.061,64.2018 253.17,62.8659 254.647,62.7253 C 256.123,62.5847 256.053,61.1784 257.178,60.8972 C 256.475,60.6862 256.193,59.8425 255.139,59.948 C 257.775,59.0338 257.002,56.9245 258.303,55.905 C 257.248,56.2917 255.596,54.7097 254.084,56.7136 C 254.471,55.7995 253.943,54.7097 253.557,54.2878 C 253.697,55.3425 251.482,55.5534 251.061,58.2253 C 250.824,59.7245 250.006,59.6316 249.865,57.3112 C 249.762,55.6137 248.951,50.9128 247.967,48.5222 C 246.982,46.1316 246.757,42.8497 248.093,42.3574 C 247.892,42.0174 247.61,41.717 247.264,41.4909 C 245.635,40.4286 242.764,40.8581 242.201,42.7566 C 240.373,47.5378 245.506,50.28 245.084,55.4831 C 244.311,51.6159 238.053,50.6316 238.123,46.8347 C 236.084,47.7487 236.365,49.4362 237.139,50.7722 C 235.873,48.8034 232.99,52.0378 230.529,49.3659 C 230.248,52.8816 233.342,54.2175 235.873,54.3581 C 234.607,56.6081 236.295,58.5066 237.982,59.1393 C 238.053,55.2018 246.127,56.818 246.209,63.5691 C 246.279,69.3347 240.092,69.8268 236.787,67.9987 z "
       style="fill:#f7e017;fill-opacity:1;stroke:#000000;stroke-width:0.125"
       id="path2899" />
    <path
       d="M 248.107,73.5534 C 257.951,75.6628 254.436,83.4675 251.553,83.3972 C 249.717,83.3524 247.967,81.8151 247.861,80.4792 C 245.752,81.6042 246.315,83.8191 247.932,84.698 C 243.502,84.1706 241.639,87.0886 241.533,90.2878 C 242.342,88.8112 244.803,88.7057 245.717,89.0222 C 246.631,89.3386 248.986,89.5143 249.936,88.4597 C 249.162,89.1276 250.428,90.6745 249.338,91.8698 C 253.029,91.7292 254.647,88.2838 254.014,86.7722 C 258.795,82.4128 257.881,75.3112 248.107,73.5534 z "
       style="fill:#f7e017;fill-opacity:1;stroke:#000000;stroke-width:0.125"
       id="path2901" />
    <path
       d="M 240.613,106.961 C 241.254,107.361 241.173,108.202 240.74,108.734 C 239.873,109.801 241.18,112.346 238.499,112.774 C 237.708,112.9 237.122,112.396 236.859,111.491 C 236.132,108.987 238.772,108.815 239.053,107.647 C 239.335,106.479 240.076,106.625 240.613,106.961 z "
       style="fill:#f7e017;fill-opacity:1;stroke:#000000;stroke-width:0.125"
       id="path2903" />
    <path
       d="M 238.195,111.504 C 239.06,111.945 239.805,112.549 239.342,115.361 C 239.15,116.524 239.107,119.36 240.126,119.44 C 239.485,119.729 238.138,120.01 237.617,119.263 C 237.053,120.125 235.866,119.824 235.438,118.706 C 234.79,119.192 233.961,118.295 233.99,117.549 C 233.427,117.881 232.348,117.328 232.688,115.651 C 232.012,115.861 231.167,115.356 230.87,114.912 C 231.859,114.754 234.383,113.517 235.013,112.48 C 235.643,111.444 237.193,110.993 238.195,111.504 z "
       style="fill:#f7e017;fill-opacity:1;stroke:#000000;stroke-width:0.125"
       id="path2905" />
    <g
       id="g2907">
      <path
         d="M 237.617,119.263 C 237.907,118.881 238.07,117.237 237.913,116.229"
         style="fill:none;stroke:#000000;stroke-width:0.125"
         id="path2909" />
      <path
         d="M 235.438,118.706 C 235.883,118.39 236.751,117.284 236.928,116.289"
         style="fill:none;stroke:#000000;stroke-width:0.125"
         id="path2911" />
      <path
         d="M 233.99,117.549 C 234.549,117.316 235.951,115.641 236.289,114.534"
         style="fill:none;stroke:#000000;stroke-width:0.125"
         id="path2913" />
      <path
         d="M 232.688,115.651 C 233.341,115.539 235.373,114.322 236.251,112.981"
         style="fill:none;stroke:#000000;stroke-width:0.125"
         id="path2915" />
    </g>
    <path
       d="M 226.24,59.6316 C 226.122,66.8386 229.118,70.4845 233.267,72.8589 C 231.725,71.9362 232.393,68.7722 230.318,67.7526 C 230.811,67.7175 231.584,68.4206 232.815,68.1393 C 232.217,66.8034 231.232,64.7643 228.947,64.4831 C 229.545,64.4128 230.846,64.6237 231.69,64.3073 C 230.494,62.4792 227.33,63.3581 226.24,59.6316 z "
       style="fill:#f7e017;fill-opacity:1;stroke:#000000;stroke-width:0.125"
       id="path2917" />
    <path
       d="M 225.494,52.7781 C 225.241,52.6948 225.026,52.4397 224.816,52.1081 C 223.709,52.3454 223.278,51.6422 223.19,51.1677 C 223.261,51.9763 222.562,51.9459 222.237,51.9715 C 224.216,53.6086 224.499,55.5121 224.061,56.6081 C 223.498,58.0143 221.529,57.9441 220.404,57.03 C 220.264,60.0182 224.131,61.0026 225.537,57.2409 C 225.537,57.8737 226.346,57.8034 226.557,58.6472 C 227.561,57.0307 226.803,54.7098 225.494,52.7781 z "
       style="fill:#f7e017;fill-opacity:1;stroke:#000000;stroke-width:0.125"
       id="path2919" />
    <g
       id="g2921">
      <path
         d="M 219.315,38.5026 C 217.557,36.8855 216.748,34.1784 216.818,32.6316 C 216.889,31.0847 217.522,29.3972 219.772,30.1003 C 219.068,30.1003 219.561,31.5066 218.822,31.6472 C 219.42,31.8581 220.229,31.3659 220.334,31.0495 C 220.475,31.5417 221.389,31.4011 221.459,31.9636 C 221.811,31.6823 221.424,30.3112 220.897,30.03 C 221.283,29.8191 221.494,28.7292 221.318,28.2018 C 220.967,28.2722 220.44,28.7643 220.334,29.4675 C 220.51,28.905 220.299,27.4987 219.315,27.2878 C 219.033,27.6745 218.963,28.6237 219.35,29.1511 C 218.436,28.9401 217.1,29.5378 216.783,30.3112 C 216.854,29.3795 216.982,28.0531 217.557,27.2175 C 217.75,26.9362 217.275,26.4441 216.906,27.112 C 216.221,25.7761 214.393,25.073 213.584,25.7409 C 212.775,26.4088 211.686,25.4245 211.018,26.4792 C 210.35,27.5338 208.087,27.645 208.205,28.7643 C 208.275,29.4323 208.114,30.4643 207.783,30.8386 C 206.975,31.7526 208.17,32.4206 208.381,33.2292 C 208.24,30.5573 212.494,25.3542 216.748,27.3932 C 216.361,28.0612 216.023,29.3954 215.904,31.0143 C 215.729,33.405 216.08,36.78 218.4,38.7487 L 219.315,38.5026 z "
         style="fill:#337321;fill-opacity:1;stroke:#000000;stroke-width:0.125"
         id="path2923" />
      <path
         d="M 220.58,30.1355 C 220.557,29.5021 221.652,28.6794 223.129,28.6941 C 224.904,28.7116 226.275,30.3288 227.699,30.1706 C 229.123,30.0124 228.42,30.8034 228.121,31.0143 C 227.822,31.2253 227.647,31.5417 227.752,31.9284 C 227.857,32.3151 227.675,32.568 227.102,32.2097 C 225.836,31.4187 224.57,32.5261 222.9,31.9108 C 221.452,31.3773 220.615,31.0847 220.58,30.1355 z "
         style="fill:#cf142b;fill-opacity:1;stroke:#000000;stroke-width:0.125"
         id="path2925" />
      <path
         d="M 213.338,46.7292 C 212.635,44.5143 209.963,42.0886 208.662,41.5261 L 208.592,40.3307 C 209.295,40.0495 210.982,38.7136 211.756,37.9753 C 217.029,40.5066 224.201,36.9206 227.506,33.1941 L 228.772,33.9675 L 228.139,34.8112 L 227.471,34.4597 C 226.662,35.4441 223.643,38.2848 222.729,38.8824 C 223.958,39.193 225.638,39.4072 226.1,39.3816 C 229.053,37.2722 231.373,35.3737 232.498,35.2331 L 233.447,36.4987 L 232.604,37.0963 L 231.936,36.7097 C 228.772,39.3112 225.186,45.0066 223.779,48.8034 C 221.811,48.3816 214.779,48.6628 213.338,46.7292 z "
         style="fill:#96877d;fill-opacity:1;stroke:#000000;stroke-width:0.125"
         id="path2927" />
      <path
         d="M 222.729,38.8824 C 222.274,38.7672 221.882,38.6357 221.635,38.5026 C 221.072,39.03 219.666,39.487 217.873,39.5573"
         style="fill:none;stroke:#000000;stroke-width:0.125"
         id="path2929" />
      <path
         d="M 213.619,45.9557 C 213.145,43.3366 213.9,40.4362 215.236,39.5573 C 218.154,41.4909 223.147,41.4909 226.1,39.3816"
         style="fill:none;stroke:#000000;stroke-width:0.125"
         id="path2931" />
      <path
         d="M 213.619,44.5847 C 215.869,44.5143 220.756,44.9011 221.951,45.0768 C 223.147,45.2526 225.15,45.7448 224.869,46.3425"
         style="fill:none;stroke:#000000;stroke-width:0.125"
         id="path2933" />
      <path
         d="M 214.66,44.2115 L 215.307,43.5651 L 214.66,42.9188 L 214.014,43.5651 L 214.66,44.2115 z "
         style="fill:none;stroke:#000000;stroke-width:0.125"
         id="path2935" />
      <path
         d="M 216.186,31.1198 C 215.377,29.9948 213.149,29.6389 212.67,31.155 C 212.459,31.823 212.143,32.5261 211.615,32.8425 C 211.088,33.1588 211.212,34.117 211.44,34.53 C 212.002,35.5495 211.51,36.5338 212.6,37.2018 C 212.6,36.3932 213.795,35.5495 214.815,35.3386 C 215.834,35.1276 217.381,34.2136 217.592,33.1941 C 217.803,32.1745 218.154,31.3307 216.186,31.1198 z "
         style="fill:#337321;fill-opacity:1;stroke:#000000;stroke-width:0.125"
         id="path2937" />
      <path
         d="M 211.123,41.2448 L 211.404,41.2448 L 211.409,43.1677 C 211.466,43.1876 211.53,43.2146 211.576,43.2563 L 213.233,42.3007 L 213.374,42.5443 L 211.711,43.5095 C 211.722,43.5695 211.731,43.638 211.718,43.699 L 213.374,44.6562 L 213.233,44.8998 L 211.566,43.9422 C 211.52,43.9822 211.465,44.0237 211.405,44.0431 L 211.404,45.9559 L 211.123,45.9559 L 211.119,44.033 C 211.061,44.0131 210.997,43.9861 210.951,43.9444 L 209.294,44.9 L 209.154,44.6563 L 210.816,43.6911 C 210.805,43.6312 210.796,43.5627 210.809,43.5017 L 209.154,42.5443 L 209.294,42.3007 L 210.962,43.2585 C 211.008,43.2185 211.063,43.177 211.122,43.1576 L 211.123,41.2448 L 211.123,41.2448 z "
         style="fill:#96877d;stroke:#000000;stroke-width:0.125"
         id="path2939" />
      <path
         d="M 213.628,45.947 C 213.024,46.555 212.188,46.9315 211.264,46.9315 C 209.424,46.9315 207.932,45.4401 207.932,43.6003 C 207.932,41.7606 209.424,40.2692 211.264,40.2692 C 212.345,40.2692 213.305,40.7841 213.914,41.5819 C 213.742,42.0006 213.543,42.9415 213.528,43.3675 C 213.412,42.2197 212.442,41.3238 211.264,41.3238 C 210.006,41.3238 208.987,42.3431 208.987,43.6003 C 208.987,44.8576 210.006,45.8767 211.264,45.8767 C 212.316,45.8767 213.226,45.1411 213.487,44.1716 C 213.486,44.589 213.496,45.5954 213.628,45.947 z "
         style="fill:#96877d;fill-opacity:1;stroke:#000000;stroke-width:0.125"
         id="path2941" />
      <path
         d="M 209.857,49.1198 C 209.647,48.8737 209.26,48.2057 209.295,47.7136 C 209.611,47.6784 210.209,47.8893 210.49,48.1706 C 210.455,47.8191 210.315,47.0456 210.385,46.6941 C 210.772,46.8347 211.58,47.2917 211.861,47.8191 C 211.791,47.4675 211.65,46.5534 211.791,45.9909 C 212.213,46.237 212.916,46.905 213.057,47.362 C 213.092,46.6588 213.338,45.4987 213.549,45.2175 C 213.865,45.5338 214.357,45.8151 214.674,46.237 C 214.744,45.6745 215.025,45.0066 215.447,44.8307 C 215.764,45.1823 216.256,45.9909 216.361,46.905 C 216.678,46.7995 217.1,46.2722 217.275,45.9909 C 217.451,46.2722 217.627,46.7643 217.522,47.362 C 217.908,47.0105 218.365,46.5182 218.471,46.0963 C 218.752,46.3073 219.279,46.8347 219.42,47.3972 C 219.35,46.9401 219.385,46.1316 219.244,45.6745 C 219.772,45.9557 220.193,46.448 220.299,46.9753 C 220.44,46.4831 220.756,45.6042 221.037,45.3932 C 221.318,45.9557 221.6,46.6237 221.565,47.1862 C 221.74,46.8347 222.022,46.2018 222.303,46.0612 C 222.549,46.448 222.514,47.2917 222.443,47.7487 C 222.69,47.3972 223.147,46.9753 223.428,46.8347 C 223.463,47.0456 223.498,47.4675 223.428,47.7838 C 223.744,47.6081 224.272,46.6588 224.447,46.1667 C 224.94,46.4128 225.432,47.2566 225.467,47.6784 C 225.818,47.5378 226.522,46.905 226.732,46.5534 C 226.732,46.7995 226.838,47.4675 226.697,47.9948 C 226.908,47.7838 227.119,47.362 227.225,47.1862 C 227.365,47.5378 227.26,48.3816 227.119,48.8386 C 227.436,48.5573 227.893,48.3816 228.174,48.3816 C 228.209,48.9792 227.787,50.0338 227.4,50.8073 C 224.025,49.8581 216.959,49.5066 209.857,49.1198 z "
         style="fill:#337321;fill-opacity:1;stroke:#000000;stroke-width:0.125"
         id="path2943" />
      <path
         d="M 221.627,30.4952 C 221.61,30.2361 222.189,29.6496 223.224,29.6556 C 224.466,29.6628 225.613,30.5743 226.61,30.5096 C 227.607,30.4449 227.115,30.7685 226.906,30.8548 C 226.696,30.9411 226.573,31.0705 226.647,31.2287 C 226.721,31.3869 226.593,31.4904 226.192,31.3438 C 225.306,31.0202 224.42,31.4732 223.251,31.2215 C 222.237,31.0032 221.651,30.8835 221.627,30.4952 z "
         style="fill:#f7e017;fill-opacity:1;stroke:none"
         id="path2945" />
    </g>
    <g
       id="g2947">
      <g
         style="fill:#f7e017"
         id="g2949">
        <path
           d="M 210.947,51.2292 C 209.893,52.4948 208.838,52.2838 208.627,51.4753 C 208.416,50.6667 209.19,50.28 208.908,49.5768 C 208.627,48.8737 209.365,48.5573 209.717,48.8737 C 210.068,49.1901 211.193,48.1706 211.686,49.2253 C 212.178,50.28 212.565,51.0182 212.283,51.4401 C 212.002,51.862 211.158,51.6511 210.947,51.2292 z "
           style="fill:#f7e017;stroke:#000000;stroke-width:0.125"
           id="path2951" />
        <path
           d="M 215.482,49.3307 C 215.284,48.8681 216.379,47.9773 216.941,48.61 C 217.504,49.2429 218.383,47.9245 218.875,48.9264 C 219.367,49.9284 219.525,50.4557 219.772,51.0182 C 220.018,51.5807 218.436,51.8795 217.943,51.3874 C 218.014,51.7213 216.577,51.9829 216.186,51.0358 C 215.975,50.5261 215.746,49.946 215.482,49.3307 z "
           style="fill:#f7e017;stroke:#000000;stroke-width:0.125"
           id="path2953" />
        <path
           d="M 222.795,49.9108 C 222.531,49.4187 223.815,48.7155 224.482,49.612 C 224.658,49.2429 225.924,49.1725 226.012,50.2448 C 226.1,51.317 226.135,51.9499 226.17,52.3718 C 226.205,52.7937 225.397,53.1804 224.816,52.1081 C 223.779,52.3191 223.305,51.7389 223.182,51.1237 C 223.059,50.5085 222.936,50.2097 222.795,49.9108 z "
           style="fill:#f7e017;stroke:#000000;stroke-width:0.125"
           id="path2955" />
      </g>
      <g
         style="fill:#337321"
         id="g2957">
        <path
           d="M 211.633,49.2077 C 211.475,48.8562 212.529,48.153 213.25,48.6804 C 213.971,49.2077 214.969,48.2254 215.395,49.1725 C 216.256,51.0886 216.309,51.2292 216.045,51.5983 C 215.781,51.9675 214.656,51.8268 214.375,51.317 C 214.322,51.6687 213.352,51.6107 212.846,51.3347 C 212.266,51.0182 211.861,49.8405 211.633,49.2077 z "
           style="fill:#337321;fill-opacity:1;stroke:#000000;stroke-width:0.125"
           id="path2959" />
        <path
           d="M 219.033,49.2956 C 218.787,48.7506 220.44,48.2761 221.16,49.2253 C 221.529,48.8913 222.338,48.8737 222.795,49.9108 C 223.252,50.948 223.322,51.528 222.988,51.7917 C 222.753,51.9771 221.898,52.1256 221.617,51.6511 C 221.23,51.8972 220.035,51.6862 219.772,51.0182 C 219.508,50.3503 219.279,49.7702 219.033,49.2956 z "
           style="fill:#337321;fill-opacity:1;stroke:#000000;stroke-width:0.125"
           id="path2961" />
        <path
           d="M 226.029,50.3327 C 225.994,49.8405 226.891,49.612 227.225,50.3327 C 227.559,51.0534 228.627,50.4044 228.719,51.5983 C 228.736,51.8268 228.596,52.7057 228.262,53.1276 C 227.928,53.5495 226.293,53.1276 226.188,52.2312 C 226.082,51.3347 226.047,50.8249 226.029,50.3327 z "
           style="fill:#337321;fill-opacity:1;stroke:#000000;stroke-width:0.125"
           id="path2963" />
      </g>
      <g
         id="g2965">
        <path
           d="M 210.947,51.2292 C 210.561,50.7018 210.033,49.8581 209.365,50.7722"
           style="fill:none;stroke:#000000;stroke-width:0.125"
           id="path2967" />
        <path
           d="M 214.375,51.317 C 214.147,51.0182 213.848,50.5261 213.742,50.1393"
           style="fill:none;stroke:#000000;stroke-width:0.125"
           id="path2969" />
        <path
           d="M 217.943,51.3874 C 217.697,51.2116 217.328,50.86 217.135,50.4909"
           style="fill:none;stroke:#000000;stroke-width:0.125"
           id="path2971" />
        <path
           d="M 217.627,49.5417 C 218.242,49.612 218.664,50.192 218.857,50.4557 C 219.051,50.7194 219.455,51.1941 219.772,51.2468"
           style="fill:none;stroke:#000000;stroke-width:0.125"
           id="path2973" />
        <path
           d="M 221.617,51.6511 C 221.406,51.317 221.195,51.0182 221.143,50.7722"
           style="fill:none;stroke:#000000;stroke-width:0.125"
           id="path2975" />
        <path
           d="M 221.16,49.2253 C 221.371,49.5241 221.529,49.7702 221.652,50.0514"
           style="fill:none;stroke:#000000;stroke-width:0.125"
           id="path2977" />
        <path
           d="M 224.816,52.1081 C 224.535,51.5807 224.096,51.071 223.727,50.8952"
           style="fill:none;stroke:#000000;stroke-width:0.125"
           id="path2979" />
        <path
           d="M 224.676,50.1745 C 224.711,51.2116 226.1,51.2819 226.152,52.0202"
           style="fill:none;stroke:#000000;stroke-width:0.125"
           id="path2981" />
        <path
           d="M 227.225,50.3327 C 227.365,50.5963 227.418,50.86 227.436,51.2995"
           style="fill:none;stroke:#000000;stroke-width:0.125"
           id="path2983" />
      </g>
    </g>
  </g>
</svg>