<?xml version="1.0" encoding="UTF-8"?>

<svg xmlns="http://www.w3.org/2000/svg" viewBox="0 0 600 400" width="600" height="400">

<title>Flag of Swaziland</title>

<rect width="600" height="400" fill="#3e5eb9"/>

<rect width="600" height="250" y="75" fill="#ffd900"/>

<rect width="600" height="200" y="100" fill="#b10c0c"/>

<g>
<g fill="#ffd900" stroke="#000" stroke-width="1.0079">
<rect stroke-width="1.0797" width="485.7" height="8.571" x="59.812" y="195.72" rx="4.2235" ry="4.2857"/>

<path fill="#fff" d="m492.85,154.28-24.285,8.5714,24.285,8.5714,24.285-8.5714-24.285-8.5714z"/>

<rect width="357.13" height="5.7142" x="122.85" y="160" rx="3.1055" ry="2.8571"/>

<path d="m471.44,165.71c1.4272,0,2.8585-1.4288,2.8585-2.8573,0-1.4284-1.4313-2.8573-2.8585-2.8573"/>

<path d="m468.58,165.71c1.4272,0,2.8585-1.4288,2.8585-2.8573,0-1.4284-1.4313-2.8573-2.8585-2.8573"/>

<path d="m465.72,165.71c1.4272,0,2.8585-1.4288,2.8585-2.8573,0-1.4284-1.4313-2.8573-2.8585-2.8573"/>

<path fill="#fff" d="m469.99,171.43-24.285,8.5714,24.285,8.5714,24.285-8.5714-24.285-8.5714z"/>

<rect width="357.13" height="5.7142" x="99.997" y="177.14" rx="3.1055" ry="2.8571"/>

<path d="m448.58,182.86c1.4272,0,2.8585-1.4288,2.8585-2.8573,0-1.4284-1.4313-2.8573-2.8585-2.8573"/>

<path d="m445.72,182.86c1.4272,0,2.8585-1.4288,2.8585-2.8573,0-1.4284-1.4313-2.8573-2.8585-2.8573"/>

<path d="m442.86,182.86c1.4272,0,2.8585-1.4288,2.8585-2.8573,0-1.4284-1.4313-2.8573-2.8585-2.8573"/>

</g>
<g>
<path fill="#fff" stroke="#000" stroke-width="1.0079" d="m442.85,200c-28.571,28.569-66.668,85.711-142.86,85.711-66.668,0-114.28-57.142-142.86-85.711,28.571-28.574,76.188-85.716,142.86-85.716,76.188,0,114.28,57.142,142.86,85.716z"/>

<path fill="#000" d="m290.02,144.1c7.601,8.5493,1.2541,11.996,9.2997,12.557,8.4848,0.62314,3.6753,9.0336,10.812,9.3258,4.9896,0.21772-0.49832,20.151,4.3053,26.729,4.8928,6.8574,8.9906,2.0092,9.0766,6.9634,0.0849,5.1235-13.317,4.6068-13.552,20.39-0.39296,9.0955-11.31,9.678-11.831,15.531-0.64775,5.5047,21.507,8.5953,21.211,13.523-0.30372,4.913-23.922,4.1438-24.95,9.7467-0.52734,5.0325,32.446,9.1575,35.098,23.713-4.9202,1.6091-18.919,3.1239-29.499,3.1322-66.657,0.0484-114.28-57.147-142.85-85.716,28.571-28.574,76.188-85.716,142.86-85.716,0,0-19.789,18.082-9.9711,29.815z"/>

<g fill="#fff">
<rect width="6.9265" height="22.857" x="210.47" y="169.52"/>
<rect width="6.9265" height="22.857" x="210.47" y="207.62"/>
<rect width="6.9265" height="22.857" x="224.32" y="169.52"/>
<rect width="6.9265" height="22.857" x="224.32" y="207.62"/>
<rect width="6.9265" height="22.857" x="238.18" y="169.52"/>
<rect width="6.9265" height="22.857" x="238.18" y="207.62"/>
<rect width="6.9265" height="22.857" x="252.03" y="169.52"/>
<rect width="6.9265" height="22.857" x="252.03" y="207.62"/>
<rect width="6.9265" height="22.857" x="265.88" y="169.52"/>
<rect width="6.9265" height="22.857" x="265.88" y="207.62"/>
<rect width="6.9265" height="22.857" x="279.73" y="169.52"/>
<rect width="6.9265" height="22.857" x="279.73" y="207.62"/>
</g>
<g fill="#000">
<rect width="6.9265" height="22.857" x="315.23" y="169.52"/>
<rect width="6.9265" height="22.857" x="315.23" y="207.62"/>
<rect width="6.9265" height="22.857" x="329.08" y="169.52"/>
<rect width="6.9265" height="22.857" x="329.08" y="207.62"/>
<rect width="6.9265" height="22.857" x="342.94" y="169.52"/>
<rect width="6.9265" height="22.857" x="342.94" y="207.62"/>
<rect width="6.9265" height="22.857" x="356.79" y="169.52"/>
<rect width="6.9265" height="22.857" x="356.79" y="207.62"/>
<rect width="6.9265" height="22.857" x="370.64" y="169.52"/>
<rect width="6.9265" height="22.857" x="370.64" y="207.62"/>
<rect width="6.9265" height="22.857" x="384.49" y="169.52"/>
<rect width="6.9265" height="22.857" x="384.49" y="207.62"/>
</g>
</g>
<g fill="#a70000">
<path fill="#3d5da7" stroke="#000" stroke-width="0.855" d="m511.35,196.6c-4.328,7.496,3.3211-2.4928,21.985,10.056,3.4586,2.3314,6.4807,8.4889,6.4807,12.759-0.87787-0.5873-1.5297-1.8944-2.4969-2.7426-1.3541,1.3572,1.2927,7.5774,1.6796,10.517-2.9179-1.6332-2.6367-2.4062-3.6062-4.4127,0.19344,2.4255-0.50108,9.1071,0.65957,11.68-2.2996-0.65652-2.1473-2.5081-3.3483-2.8799,0.81727,2.9124-0.71162,6.0814-0.30609,9.3553-1.344-1.3304-2.7758-2.3723-3.3996-2.9094-0.10488,1.5593-2.5847,5.6563-2.6414,7.1304-1.1404-0.689-1.4496-1.7632-1.64-2.4861-1.417,1.7806-6.4543,8.3576-6.7774,10.364-3.8813-3.4276-13.823-11.775-15.117-16.206-1.1443,2.5154-2.7998,3.3636-6.0728,5.2004-1.2935-7.0225-6.1303-14.915-3.5433-20.934-1.8326,1.0868-3.3421,2.1736-5.174,3.5112,1.7355-10.17,10.587-22.095,23.319-28.001z"/>

<path d="m495.21,233.72c1.7972-3.592,3.4518-4.7314,4.6131-7.0436,2.0514-4.0648,2.3436-7.2995,4.1309-6.8253,1.7873,0.47419,1.7853,2.1386-0.52988,6.1359-2.315,3.9972-3.4156,4.8506-8.2141,7.733z"/>

<path d="m507.36,242.28c-0.23063-2.7347,0.56247-3.8766,0.4175-5.6381-0.24699-3.0991-1.5141-5.2262,0.13355-5.3775,1.6477-0.15125,2.4182,0.90572,2.4231,4.0288,0.005,3.1229-0.47819,3.9431-2.9742,6.9868z"/>

<path d="m516.58,247.64c-0.72007-3.818-0.1814-5.5112-0.64183-7.9708-0.80247-4.3284-2.389-7.177-0.86193-7.573,1.5272-0.396,2.4485,1.0038,3.0269,5.3927,0.57844,4.3887,0.27316,5.5953-1.5232,10.151z"/>

<path d="m526.17,220.89c-2.252-1.7093-3.5664-1.8238-5.0185-2.9224-2.5582-1.9274-3.8525-3.9899-4.6753-2.9657-0.82279,1.0242-0.23889,2.144,2.4416,3.922,2.6804,1.7779,3.5881,1.9184,7.2522,1.9661z"/>

<path d="m524.58,233.56c-1.187-2.4648-2.4361-3.09-3.2037-4.676-1.3574-2.7868-1.3594-5.1982-2.8315-4.5801-1.4721,0.61808-1.5905,1.8803-0.016,4.5778,1.5744,2.6973,2.3983,3.1856,6.0511,4.6783z"/>

<path fill="#3d5da7" stroke="#000" stroke-width="1.067" d="m80.783,203.82c-0.24165-2.1829,0.22477-2.4439-1.1176-4.0905,1.9545,0.8178,2.0292,2.9917,4.4057,1.4486,0.87333-0.45186,1.2536-0.46621,0.19279-2.8911,2.4787,0.11488,10.596,2.8987,11.896,2.9634,3.4133,0.1566,9.6439-3.5858,13.969,1.016,4.1507,4.196,2.7648,8.551,2.7648,14.362-1.6676-0.79926-0.86444-1.1928-2.6342-3.2708,1.3273,5.0794-0.0711,14.237-0.0711,19.624-0.68142-1.2991-0.58103-0.7349-1.2474-2.0802-1.7698,4.917-3.8913,5.9289-3.8913,11.74-0.63878-2.2788-0.0222-1.797-0.73296-2.9957-1.72,3.7326-13.26,6.9232-8.8132,10.686-4.0139-2.3531-5.7739-2.1063-7.5943-4.2226-0.78359,0.50598-1.4073,1.4637-2.1358,2.7769-7.0568-3.2466-4.5336-10.25-10.062-14.928-0.95684,1.9614-0.52062,1.6766-1.5548,4.869-1.1194-4.4338-1.425-7.2515-2.6839-10.511-1.0865,1.807-0.98882,1.1143-2.9611,3.8449-0.81558-5.4011-2.1438-6.6759-1.6187-10.25-2.0958,1.4791-0.72407,0.88003-2.819,2.7004,1.9847-13.84,10.558-24.067,16.71-20.792z"/>

<path d="m72.101,226.41c1.818-4.4561,3.4571-5.8554,4.6317-8.7238,2.0745-5.0425,2.4125-9.0727,4.1558-8.4579,1.7433,0.61487,1.7148,2.6906-0.6171,7.6454-2.3318,4.9546-3.4235,6.0046-8.1705,9.5363z"/>

<path d="m78.985,237.56c0.72865-3.9953,1.879-5.4503,2.3518-8.0229,0.83943-4.5242,0.37145-7.8926,1.9913-7.7155,1.6199,0.17713,1.9864,1.8847,0.90848,6.3853-1.0779,4.5005-1.8219,5.5663-5.2516,9.3531z"/>

<path d="m87.219,245.31c0.20544-3.8732,1.1128-5.3853,1.2485-7.8798,0.2461-4.3877-0.59884-7.5292,0.94628-7.5469,1.5452-0.0177,2.0951,1.56,1.6218,5.9527-0.4733,4.3925-1.0451,5.4888-3.8166,9.4739z"/>

<path d="m104.9,219.98c-3.3811-3.3682-5.4254-3.9969-7.6058-6.1633-3.8419-3.8045-5.6984-7.3757-7.066-6.1099s-0.5453,3.1635,3.4997,6.7841c4.0448,3.6204,5.4516,4.1476,11.172,5.4892z"/>

<path d="m102.84,233c-2.2024-3.382-3.8185-4.2582-5.2399-6.4344-2.5072-3.824-3.3686-7.1101-4.7905-6.2965-1.422,0.81358-1.1042,2.5313,1.6133,6.2379,2.7174,3.7064,3.8104,4.3878,8.4172,6.4931z"/>

<path fill="#3d5da7" stroke="#000" stroke-width="0.826" d="m253.8,129.5c-3.958,7.6546,6.9299-2.5456,23.998,10.269,3.163,2.3807,7.6965,11.787,7.6965,16.147-3.634-0.77297-10.069-4.3598-10.069-4.3598s7.5523,7.5642,7.5523,16.284c-2.6685-1.6678-4.0035-1.4177-4.8902-3.4665,0,2.8232,2.373,4.6219,2.373,8.9817-1.9261-1.5366-3.5566-2.5611-5.1864-3.4605,2.5172,4.3598-4.5875,12.818-1.0316,15.641-6.218-0.8994-12.58-4.8721-15.097-9.2321-1.3343,0.89939-1.4792,2.311-1.5311,3.8161,0.19609,0.16261-9.4648-7.1711-8.5775-9.9882-1.2959,1.8182-1.4785,2.8172-1.774,4.8661-3.5495-3.5001-6.802-7-7.9856-11.525-1.5772,2.0488-1.676,2.0488-3.2532,4.0977-1.1829-7.1711-1.1829-6.9151,1.1829-13.061-1.676,1.1098-3.0564,2.2195-4.7317,3.5855,1.5872-10.385,9.6822-22.563,21.325-28.594z"/>

<path d="m244.04,166.9c0.63263-5.2749,2.012-7.2621,2.424-10.659,0.73497-5.9744-0.13678-10.341,1.9801-10.23,2.117,0.11043,2.7268,2.3142,1.6803,8.2756-1.0464,5.9611-1.9287,7.4094-6.0844,12.614z"/>

<path d="m255.09,176.56c-0.42911-4.4503,0.39283-6.3451,0.12046-9.2118-0.47011-5.044-2.0282-8.461-0.18299-8.7752,1.8452-0.31423,2.778,1.3779,2.9772,6.4708,0.19918,5.0927-0.29384,6.4501-2.9147,11.516z"/>

<path d="m272.34,184.44c-1.876-3.8507-3.4876-4.9993-4.6992-7.4778-2.1393-4.3565-2.5856-7.9134-4.2356-7.2688-1.65,0.64457-1.5595,2.4848,0.82351,6.7489,2.3829,4.2639,3.4599,5.1336,8.1113,7.9978z"/>

<path d="m278.31,149.95c-4.778-2.5149-7.2318-2.5467-10.311-4.1626-5.4222-2.8336-8.5776-6.035-9.6982-4.2732-1.1206,1.7619,0.37476,3.514,5.9645,6.0902,5.5895,2.5761,7.3074,2.698,14.045,2.3455z"/>

<path d="m280.06,164.36c-3.4794-2.8944-5.5364-3.3205-7.78-5.1817-3.9528-3.2674-5.9203-6.4756-7.2406-5.175-1.3204,1.3006-0.43839,3.0186,3.7106,6.0967,4.1488,3.0779,5.5676,3.4601,11.31,4.2601z"/>

</g>
</g>
</svg>