<?xml version="1.0" encoding="UTF-8"?>
<svg xmlns="http://www.w3.org/2000/svg" width="1200" height="600">
<clipPath id="c">
<path d="M0,0V150H700V300H600zM600,0H300V350H0V300z"/>
</clipPath>
<rect width="1200" height="600" fill="#00247d"/>
<path d="M0,0 600,300M600,0 0,300" stroke="#fff" stroke-width="60"/>
<path d="M0,0 600,300M600,0 0,300" stroke="#cf142b" stroke-width="40" clip-path="url(#c)"/>
<path d="M300,0V350M0,150H700" stroke="#fff" stroke-width="100"/>
<path d="M300,0V350M0,150H700" stroke="#cf142b" stroke-width="60"/>
<path d="M0,300H600V0H1200V600H0z" fill="#00247d"/>
<g>
<path fill="#fff" d="m1008.94,170.989v85.1747c0,69.9277-27.4673,133.94-108.953,172.848-81.488-38.909-108.956-102.921-108.956-172.849v-85.1747h217.907z"/>
<path fill="#fdc300" d="m1001.61,179.669v79.444c0,65.2229-25.6193,124.928-101.623,161.218-76.0036-36.2906-101.623-95.9956-101.623-161.219v-79.444h203.246z"/>
<g fill="#ff9e3d" stroke="#000" stroke-width="0.2604">
<path d="m852.667,214.487c-1.47074-1.10339-3.06648-1.77759-5.27051-1.83885,0.48747-5.39443-3.43312-7.72372-6.25377-8.7046-2.8165-0.98088-3.79977-2.08427-4.28724-4.29105-0.49163-2.20678-1.96238-3.55518-4.53722-4.29063-2.57484-0.73587-4.78303-3.31017-5.76214-4.53648-0.9791-1.22589-1.34991-0.98088-2.0832,1.10339-0.73746,2.08427-3.67894,6.00738-0.98327,6.13031-1.95822,1.59341-3.06231,3.43267-1.83739,5.88446-1.34992,1.10339-2.32902,2.69722-0.49164,3.31017,1.84156,0.61294,2.32903,1.10338,2.45402,1.59383-1.65407,0-2.08321,3.31016,1.83738,4.04562-0.85828,0.1225-1.22492,2.81972,0.37081,2.81972-2.20819,0-4.04974,3.31058-6.86624,3.31058-2.82065,0-4.2914,0.61253-4.41222,1.83885-0.12499,1.22589-1.59574,2.6968-2.32902,3.31016,2.0832,0.24501,3.42895,0,4.53305-0.85837,1.1041-0.85838,2.94148-1.10339,4.17057-0.12251,1.22493,0.98088,3.79977,1.47091,5.02469,1.22589-2.69567,1.83926-4.65804,4.29105-4.90386,6.62034-0.24582,2.3297-1.83739,5.0265-3.67894,5.76237-1.83739,0.73545-4.28723,2.69722-5.14551,5.0265,2.32902,5.76196,5.63298,7.18536,8.94527,8.70419,5.88714,2.69764,9.56191,4.65898,12.0159,7.3562,2.44985,2.69722,3.43312,0.73546,7.1079,5.39402,3.67893,4.65899,7.11205,13.4861,10.7868,14.9574,3.67893,1.47091,8.33698,0.49044,11.0326-4.16854,2.69983-4.65857,4.41639-51.7364-9.43692-59.583z"/>
<path fill="#ff927f" d="m858.921,194.871c-3.43312,3.6781-7.84951,7.3562-7.11206,13.9765,0.73746,6.62033,1.47074,17.4092-4.65804,21.0869-6.12879,3.6781-9.07027,12.9956-1.71656,18.3897,7.35371,5.39486,7.59952,12.0152,8.82445,18.1451,1.22909,6.12989,4.41639,11.0335,9.32025,6.86535,4.8997,0.73545,7.59953-1.2259,7.59953-5.14901,0-3.92312,0.24582-6.12989,3.92059-7.35621,3.67894-1.22589,4.65805-2.4522,6.37461-5.76195,1.71656-3.31017,2.69566-4.78149,1.71656-6.74326-0.97911-1.96135-1.34992-6.00697-0.61247-8.94961,0.73746-2.94224-0.9791-4.53607-1.96237-6.37491-0.97911-1.83884-1.34575-3.43267-0.85828-5.88488,0.49163-2.4522-0.73329-4.04562-2.44985-5.27193-1.71656-1.22589-2.45402-2.45179-2.08321-4.41355,0.36665-1.96135-1.22909-3.18725-3.06647-4.65857-1.83739-1.47132-3.1873-3.43267-3.1873-6.3749,0-2.94265-5.63715-9.80841-10.0494-11.5248z"/>
<path fill="#ff9ee1" d="m860.267,274.928c8.21199-2.08428,7.4787-15.57,6.25378-21.2094-1.22909-5.63987-4.3789-13.7174-1.96238-20.1064,3.43312-9.07212-4.17058-17.6542-2.2082-21.0869,1.96238-3.43309,1.71656-5.27193,1.47075-6.37532-0.24166-1.10339-2.08321-1.96135-2.20403,0.36793-0.125,2.32929-0.73746,3.18725-2.2082,4.65857s-1.1041,4.65857,0,8.21416c1.1041,3.55518,3.43312,8.95003-0.24582,16.0604-3.67477,7.11078-2.16236,10.2793-0.73329,13.6086,2.20403,5.14901,7.47871,23.0487,1.83739,25.8684z"/>
<path d="m823.49,198.059c0.92077,0,2.69983-0.36835,2.69983,0.85796"/>
<path d="m821.652,203.943c1.1041-0.79712,3.06648,0.12251,5.02469-1.04214"/>
<path d="m823.615,208.847c1.47074,0,3.43312-0.0613,5.2705-1.53258"/>
<path d="m825.452,212.893c1.34992,0,3.86226-0.85796,4.47473-2.63555"/>
<path d="m825.823,215.713c2.63317-0.12251,6.12879,0.85838,6.61626-0.0613"/>
<path d="m825.944,224.417c1.83739-1.71633,6.19128-2.88097,7.17039-4.65856"/>
<path d="m830.602,197.078c3.06231,0.9813,1.79573,2.87556,3.30813,4.04603,2.69983,2.08428,0.24582,4.41356,2.45402,5.02651,2.20403,0.61294,2.16653,0.98546,1.59156,3.43267-0.67495,2.88139,2.08321,3.00348,1.1041,4.904"/>
<path d="m847.397,212.648c-1.22492,0-4.84136,0.12251-6.3746,3.37142"/>
<path d="m821.223,248.018c1.41241,0.24543,2.11653-0.55753,2.51234-1.3484,0.42914-0.85838,0.61247-1.47133,1.89989-1.53258,1.28742-0.0617,3.24979-0.42919,3.67893-1.41007,0.42914-0.98047,1.96238-0.0613,3.2498-2.63597,1.28742-2.57429,2.1457-5.63945,5.57466-6.74284"/>
</g>
<g stroke="#000" stroke-width="0.2604">
<g fill="#00a728">
<path d="m918.475,301.589c1.38741,2.01594-0.05,4.19521,2.30402,5.06692,2.75816,1.02089,0.34998,4.64857,3.60394,5.92697,2.88316,1.13422,0.0208,4.60231,3.13731,6.15989,2.78732,1.39465-0.46664,4.64898,3.25396,6.50866,3.71644,1.85926-0.69995,6.04322,2.09154,7.67039,2.78733,1.62716-0.92911,5.81112,2.32485,7.43829,3.25397,1.62674-1.39574,4.88107,1.6249,7.20577,3.02065,2.32429-0.69579,5.81071,2.32486,7.9029,3.02064,2.09219-1.85405,4.88566,1.16243,7.90332,2.32485,2.32428-0.83745,4.60064,0.92911,8.1354,1.16242,2.32429-1.16243,11.6222-7.67036,10.6922-2.32486,3.95186-11.3868,7.43829-14.6408,6.27615-3.25396,2.32428-13.7116,5.57861-19.0613,0.46502-5.34133,5.11359-15.8032,1.85926-19.0572-0.46502-3.25396,1.16214-12.3159-2.32429-14.6408-6.27615-6.50793,0.93004-8.83279-8.36792-7.67036-10.6922,1.76656-3.53476-1.39575-5.81112,0.92911-8.1354,3.01648-3.01766-1.85822-5.81113,1.16243-7.90332,3.02064-2.09219-0.69579-5.57861,2.32485-7.9029,3.02065-2.3247-1.62906-5.57903,1.6249-7.20577,3.25397-1.62717-0.46247-5.81113,2.32486-7.43829,2.79149-1.62717-1.6249-5.81113,2.09153-7.67039,3.72061-1.85968,0.46664-5.11401,3.25397-6.50866,3.11647-1.55758,0.25415-5.02567,3.1373-6.15989,3.25397-1.2784,0.84578-4.90608,3.60395-5.92697,2.39151-0.88546,0.86661-3.12057,2.37485-5.16317,6.9204,2.72263,28.3441,4.67648,37.156,0.0962z"/>
<path d="m887.544,302.239c-2.55817,2.5568,0.46664,4.41647-2.09153,7.43787-2.55818,3.02224-0.23332,4.64899-2.32486,7.43829-2.09154,2.78931,0.92911,4.18438-1.39575,7.20578-2.32069,3.02182,0.46664,4.8815-2.09153,7.43829-2.55401,2.5568,0.46663,4.8815-2.09154,7.67081-2.55401,2.7893,0.46664,4.64856-2.09154,7.20536-2.55401,2.55721,0.46664,5.34652-2.09153,7.90289-2.55401,2.55722,0.46663,5.81113-2.32486,8.83337-2.78733,3.0214,0.46664,5.34568-1.85822,7.67038-2.32485,2.32428-0.23332,4.64857-1.85822,6.27573-1.62906,1.62717-1.85821,3.89395-1.16242,4.8815"/>
<path d="m892.423,303.169c-2.32069,3.02182,1.16242,4.41647-0.92911,6.97327-2.09154,2.55721,0.92911,3.48684-0.69579,6.50866s1.16242,3.71893-0.92911,6.74075c-2.09154,3.02182,1.16243,5.34611-1.16243,8.36792-2.32486,3.02182,1.16243,4.64857-0.92911,7.67081-2.09154,3.0214,0.92911,4.64856-0.92911,6.97326-1.86238,2.32429,1.39158,4.64857-0.92911,7.43788-2.32485,2.78972,0.92911,4.88149-0.93327,7.43829-1.85822,2.55679,0.69995,5.3461-0.92911,7.43787-1.6249,2.09219,1.16243,5.11401-1.16243,7.90331-2.32485,2.78931,0.46664,4.64899-0.92911,6.50866-1.39574,1.85926-2.49568,4.59065-1.16243,5.34611"/>
<path d="m899.86,305.958c-1.15826,4.85983,1.62907,9.18004,0,13.2298-1.62489,4.0502,1.16243,5.67028,0.23332,8.91003-0.92911,3.24016,1.16243,5.67028-0.23332,9.18004-1.39158,3.51018,1.86239,6.2099,0,10.8001-1.85821,4.59023,1.19993,5.73279,0,10.2601-1.39158,5.26568,2.32486,8.05499,0,11.7743-2.32068,3.71894,2.09571,4.64898,0.23332,8.83253-1.85821,4.18437,1.16243,5.81112-0.23332,9.9955"/>
<path d="m912.18,302.239c2.55818,2.5568-0.46663,4.41647,2.09154,7.43787,2.55817,3.02224,0.23332,4.64899,2.32486,7.43829,2.09153,2.78931-0.92911,4.18438,1.39574,7.20578,2.32069,3.02182-0.46664,4.8815,2.09154,7.43829,2.55401,2.5568-0.46664,4.8815,2.09154,7.67081,2.554,2.7893-0.46664,4.64856,2.09153,7.20536,2.55401,2.55721-0.46664,5.34652,2.09154,7.90289,2.55401,2.55722-0.46664,5.81113,2.32485,8.83337,2.78733,3.0214-0.46663,5.34568,1.85822,7.67038,2.32486,2.32428,0.23332,4.64857,1.85822,6.27573,1.62907,1.62717,1.86239,3.89395,1.16243,4.8815"/>
<path d="m907.301,303.169c2.32069,3.02182-1.16243,4.41647,0.92911,6.97327,2.09153,2.55721-0.92911,3.48684,0.69579,6.50866,1.62906,3.02182-1.16243,3.71893,0.92911,6.74075,2.09153,3.02182-1.16243,5.34611,1.16242,8.36792,2.32486,3.02182-1.16242,4.64857,0.92911,7.67081,2.09154,3.0214-0.92911,4.64856,0.92911,6.97326,1.86239,2.32429-1.39158,4.64857,0.93328,7.43788,2.32069,2.78972-0.93328,4.88149,0.92911,7.43829,1.85822,2.55679-0.69996,5.3461,0.92911,7.43787,1.6249,2.09219-1.16243,5.11401,1.16242,7.90331,2.32486,2.78931-0.46663,4.64899,0.92911,6.50866,1.39575,1.85926,2.49985,4.59065,1.16243,5.34611"/>
</g>
<g fill="#fcc300">
<path d="m884.115,313.745c0.004,1.0438-0.0208,2.08344-0.98744,3.37058-2.09154,2.78931,0.92911,4.18438-1.39575,7.20578-2.32069,3.02182,0.46664,4.8815-2.09153,7.43829-2.55401,2.5568,0.46663,4.8815-2.09154,7.67081-2.55401,2.7893,0.46664,4.64856-2.09154,7.20536-2.55401,2.55721,0.46664,5.34652-2.09153,7.90289-2.55401,2.55722,0.46663,5.81113-2.32486,8.83337-2.78733,3.0214,0.46664,5.34568-1.85822,7.67038-2.32485,2.32428-0.23332,4.64857-1.85822,6.27573,2.78733-2.09177,2.78733-5.34568,4.87887-6.97285,2.09153-1.62758-0.69579-3.95186,0.46664-5.114,1.16242-1.16215,0.23331-6.04364,2.32485-8.36793,2.09154-2.3247,0.23332-6.97326,2.09154-8.60043,1.85822-1.62716,0.46247-6.50824,2.78733-8.13541,2.32485-1.62716,0-5.57861,1.85821-7.6708,1.86239-2.09177,0-5.3461,1.86239-7.90289,1.85822-2.5568,0.0833-4.87817,1.39158-6.97327,0.58329-0.92963,0.58329-7.67039-0.87078-3.83561z"/>
<path d="m890.798,316.651c-1.6249,3.02182,1.16242,3.71893-0.92911,6.74075-2.09154,3.02182,1.16243,5.34611-1.16243,8.36792-2.32486,3.02182,1.16243,4.64857-0.92911,7.67081-2.09154,3.0214,0.92911,4.64856-0.92911,6.97326-1.86238,2.32429,1.39158,4.64857-0.92911,7.43788-2.32485,2.78972,0.92911,4.88149-0.93327,7.43829-1.85822,2.55679,0.69995,5.3461-0.92911,7.43787-1.6249,2.09219,1.16243,5.11401-1.16243,7.90331-2.32485,2.78931,0.46664,4.64899-0.92911,6.50866,2.7915-0.93004,1.74573-4.76523,2.7915-5.57861,1.04576-0.81379-0.34998-6.15989,1.27492-7.55455,1.62906-1.39465-1.04577-5.69695,0.46663-7.55454,2.55818-3.13766,0.34998-5.22985,1.85822-7.67039,1.51241-2.44095-0.57496-5.57403,0.5833-7.20578,1.97488-2.7893-0.87495-5.3036,0.57913-7.32203,2.09154-2.90556-0.40414-5.29818,1.04577-7.20578,2.20819-2.90556-0.23332-5.81112,0.69995-7.32203,0.92911-1.51091,2.43735-8.01916-0.46663-9.06504z"/>
<path d="m899.86,319.188c-1.62489,4.0502,1.16243,5.67028,0.23332,8.91003-0.92911,3.24016,1.16243,5.67028-0.23332,9.18004-1.39158,3.51018,1.86239,6.2099,0,10.8001-1.85821,4.59023,1.19993,5.73279,0,10.2601-1.39158,5.26568,2.32486,8.05499,0,11.7743-2.32068,3.71894,2.66234,4.95025,0.23332,8.83253-1.16242,1.85967,0.11666,6.62491,1.97488,0.93004,1.86238-5.69487-1.39158-6.39198,0.23332-8.71668,1.62906-2.3247-0.57913-8.48418,0.11666-11.7385,0.69996-3.25433-1.6249-7.6708-0.11666-11.1572,1.51241-3.48642-2.32486-7.20536-0.81245-10.2276,1.51241-3.02141-0.69579-6.74076,0.69579-9.1813,1.39575-2.44054-1.04577-5.69487-0.46247-7.08952,0.57913-1.39466-0.5833-6.547-1.86239-2.57638z"/>
</g>
<path fill="#ef072d" d="m917.292,304.331c0-26.2659-3.71644-35.3309-17.4323-35.3309-13.7116,0-17.4281,9.06504-17.4281,35.3309h34.8603z"/>
<path fill="#000" d="m882.432,304.331c0-26.2659,3.71644-35.3309,17.4281-35.3309-6.27461,0-10.1077,4.88066-11.1535,8.13499-1.04577,3.25433-0.46664,3.02182,0.92911,1.74342,1.39575-1.27839,0.69579,1.51091-0.46247,3.02182-1.16243,1.51091-2.32486,5.81113-0.69996,4.41647,1.62907-1.39465,2.90399,0.23252,1.16243,2.67306-1.74156,2.44053-3.25397,8.1354-1.51241,6.15989,1.74573-1.97593,2.09154,1.2784,1.04994,2.90556-1.04994,1.62717-0.93328,3.0214,0,2.32428,0.92911-0.69711,0.81245,2.67305-0.11666,3.95145h-6.62459z"/>
<path fill="#000" d="m914.622,302.82c0-20.571-2.55401-26.7309-7.66619-28.8227-2.89566-1.18631-2.97898-0.92963-1.59574,0.92963,1.38325,1.85926,1.17076,4.53272-0.10832,2.67305-1.27492-1.85926-1.6999-2.20803-2.2332-1.39424-0.5333,0.81337,1.48741,4.64857,2.97898,8.13541,1.19993,2.80431,0.42498,4.18354-1.38324,1.39423-1.80823-2.7893-1.80823-0.26251-0.22082,2.09219,2.03737,3.02182,1.97487,12.2031,1.97487,16.0383l8.25366-1.04589z"/>
<path fill="#ef072d" d="m899.86,308.166c5.46217,0,11.441-0.97338,15.4574-2.53304,4.76637-1.85051,5.02052-3.47643,3.37062-5.55236-1.16243-1.46133-3.7206-0.5842-6.15795,0.4871-2.44151,1.07131-9.18276,1.75342-12.67,1.75342-3.48311,0-10.2244-0.68211-12.6659-1.75342-2.43734-1.0713-4.99552-1.94843-6.15795-0.4871-1.64989,2.07593-1.39574,3.70185,3.37063,5.55236,4.01225,1.55966,9.99521,2.53304,15.4532,2.53304z"/>
</g>
<g fill="#b95a1e" stroke="#000" stroke-width="0.2976">
<g>
<path d="m952.855,273.393s3.57764,6.17649,6.20159,10.6787c2.62361,4.5016,4.74983,5.52721,6.64995,4.19194,1.89978-1.33586,0.28699-5.00496-1.23506-6.74599-1.52239-1.74163-9.89229-9.91172-9.89229-9.91172l-1.72419,1.78709z"/>
<path d="m952.005,273.868s1.41757,7.08152,2.46606,12.2491c1.04835,5.16688,2.72803,6.88205,4.94181,6.29214,2.21365-0.59058,1.85465-4.61693,0.97094-6.79384-0.88385-2.1776-6.18786-12.8251-6.18786-12.8251l-2.19095,1.07774z"/>
<path d="m950.499,274.091s-0.008,7.23757,0,12.5221c0.008,5.28383,1.31323,7.32945,3.59492,7.23723,2.28169-0.0929,2.72346-4.11011,2.28772-6.43309-0.43573-2.32368-3.52721-13.9007-3.52721-13.9007l-2.35543,0.57443z"/>
<path d="m948.148,273.393s-3.57764,6.17649-6.20159,10.6787c-2.62361,4.5016-4.74983,5.52721-6.64995,4.19194-1.89978-1.33586-0.28699-5.00496,1.23506-6.74599,1.52239-1.74163,9.89229-9.91172,9.89229-9.91172l1.72419,1.78709z"/>
<path d="m948.999,273.868s-1.41757,7.08152-2.46606,12.2491c-1.04835,5.16688-2.72803,6.88205-4.94181,6.29214-2.21365-0.59058-1.85465-4.61693-0.97094-6.79384,0.88385-2.1776,6.18786-12.8251,6.18786-12.8251l2.19095,1.07774z"/>
<path d="m950.504,274.091s0.008,7.23757,0,12.5221c-0.008,5.28383-1.31323,7.32945-3.59492,7.23723-2.28169-0.0929-2.72346-4.11011-2.28772-6.43309,0.43573-2.32368,3.52721-13.9007,3.52721-13.9007l2.35543,0.57443z"/>
</g>
<g>
<path d="m954.464,218.4s5.82657-6.18876,16.0232-12.3775c10.196-6.18874,17.5728-10.9492,18.936-9.90202,0,1.23779-8.73994,7.42652-16.023,12.3775-7.28309,4.95099-16.023,12.3775-16.023,12.3775l-2.91328-2.4755z"/>
<path d="m955.14,223.351s5.75948-3.63469,16.8043-8.66425c10.8719-4.46556,26.219-3.71326,26.219-2.4755-1.45611,1.23774-14.566,1.23774-23.306,4.95099-8.34258,3.54434-16.804,8.66426-16.804,8.66426l-2.91328-2.4755z"/>
<path d="m955.202,231.877s5.07089-2.45,16.8043-6.18876c11.6522-3.71325,27.1218-1.23775,27.1218,0-1.45611,1.23774-14.0127,0.48543-22.7526,2.47551-9.04357,1.93924-18.2601,6.18875-18.2601,6.18875l-2.91328-2.4755z"/>
<path d="m955.756,240.535s5.84408-4.95866,18.2916-6.18876c12.5245-1.23774,22.7214,6.18876,22.7214,7.42648-1.4561,1.23778-13.1099-5.44762-21.8498-4.49146-9.25941,0.95395-16.2499,5.72924-16.2499,5.72924l-2.91328-2.4755z"/>
<path d="m952.855,213.304s9.38996-6.18876,9.38996-11.1398c0-4.951-4.13967-9.90199-5.31344-12.3775,2.34754,0,7.66089,7.42649,7.66089,12.3775,0,5.41052-8.82413,13.6152-8.82413,13.6152l-2.91328-2.4755z"/>
<path d="m952.855,213.304s-1.17377-3.71325-1.17377-11.1398c0-8.66428,5.17991-14.175,7.04243-16.0908,0.48494,1.91582-4.6949,8.66427-4.6949,16.0908,0,5.41053,1.73952,13.6152,1.73952,13.6152l-2.91328-2.4755z"/>
<path d="m946.539,218.4s-5.82657-6.18876-16.0232-12.3775c-10.196-6.18874-17.5728-10.9492-18.936-9.90202,0,1.23779,8.73994,7.42652,16.023,12.3775,7.28309,4.95099,16.023,12.3775,16.023,12.3775l2.91328-2.4755z"/>
<path d="m945.863,223.351s-5.75948-3.63469-16.8043-8.66425c-10.8719-4.46556-26.219-3.71326-26.219-2.4755,1.45611,1.23774,14.566,1.23774,23.306,4.95099,8.34258,3.54434,16.804,8.66426,16.804,8.66426l2.91328-2.4755z"/>
<path d="m945.801,231.877s-5.07089-2.45-16.8043-6.18876c-11.6522-3.71325-27.1218-1.23775-27.1218,0,1.45611,1.23774,14.0127,0.48543,22.7526,2.47551,9.04357,1.93924,18.2601,6.18875,18.2601,6.18875l2.91328-2.4755z"/>
<path d="m945.247,240.535s-5.84408-4.95866-18.2916-6.18876c-12.5245-1.23774-22.7214,6.18876-22.7214,7.42648,1.4561,1.23778,13.1099-5.44762,21.8498-4.49146,9.25941,0.95395,16.2499,5.72924,16.2499,5.72924l2.91328-2.4755z"/>
<path d="m948.148,213.304s-9.38996-6.18876-9.38996-11.1398c0-4.951,4.13967-9.90199,5.31344-12.3775-2.34754,0-7.66089,7.42649-7.66089,12.3775,0,5.41052,8.82413,13.6152,8.82413,13.6152l2.91328-2.4755z"/>
<path d="m948.148,213.304s1.17377-3.71325,1.17377-11.1398c0-8.66428-5.17991-14.175-7.04243-16.0908-0.48494,1.91582,4.6949,8.66427,4.6949,16.0908,0,5.41053-1.73952,13.6152-1.73952,13.6152l2.91328-2.4755z"/>
</g>
<g stroke="#fdc301" stroke-width="0.7501">
<path d="m981.025,302.422c-3.64812-8.54578-4.69495-23.5172-4.69495-25.9927,0-6.97118,2.18284-40.8779,2.34748-54.461,0.16463-13.5831-8.21614-21.0417-16.4324-21.0417-7.04243,0-11.7374,4.95102-11.7374,12.3775h3.52125c0-4.951,3.52125-8.66425,8.2162-8.66425,7.04244,0,12.4548,5.85035,12.9112,17.3285,0.50384,13.2662-1.41221,47.7134-1.17377,56.9365,0.23844,9.22374,3.39431,17.4468,7.04243,23.5172z"/>
<path d="m919.979,302.422c3.64812-8.54578,4.69495-23.5172,4.69495-25.9927,0-6.97118-2.18284-40.8779-2.34748-54.461-0.16463-13.5831,8.21614-21.0417,16.4324-21.0417,7.04243,0,11.7374,4.95102,11.7374,12.3775h-3.52125c0-4.951-3.52125-8.66425-8.2162-8.66425-7.04244,0-12.4548,5.85035-12.9112,17.3285-0.50384,13.2662,1.41221,47.7134,1.17377,56.9365-0.23844,9.22374-3.39431,17.4468-7.04243,23.5172z"/>
</g>
<g>
<path d="m950.507,273.954c6.56043-0.0974,7.28391-2.47542,7.28391-2.47542s1.45666-4.95099,0.72837-6.18884c-0.72841-1.23772-8.01228-1.23772-8.01228-1.23772v9.90198z"/>
<path d="m950.507,269.003c7.04244,0,8.21621-2.47542,8.21621-2.47542s2.34728-4.95099,1.1737-6.18884c-1.17377-1.23772-9.38991-1.23772-9.38991-1.23772v9.90198z"/>
<path d="m950.507,264.052c5.86873,0,9.38998-2.47549,9.38998-2.47549s2.34728-4.95099,1.1737-6.18884c-1.17377-1.23772-10.5637-1.23765-10.5637-1.23765v9.90198z"/>
<path d="m950.507,257.863c10.5716-0.0974,10.5637-3.17937,10.5637-3.17937s2.34728-4.95099,1.17371-6.18885c-1.17377-1.23771-11.7374-0.53376-11.7374-0.53376v9.90198z"/>
<path d="m950.507,252.912c10.5716-0.0974,11.7374-2.47542,11.7374-2.47542s2.34728-4.95099,1.17371-6.18884c-1.17378-1.23772-12.9111-1.23772-12.9111-1.23772v9.90198z"/>
<path d="m950.507,246.724c10.5716-0.0974,12.9112-2.47549,12.9112-2.47549s2.34728-4.95099,1.17371-6.18877c-1.17377-1.23772-14.0849-1.23772-14.0849-1.23772v9.90198z"/>
<path d="m950.507,240.535c10.5716-0.0974,14.0849-2.47549,14.0849-2.47549s1.17357-4.95099,0-6.18877c-1.17377-1.23772-14.0849-1.23772-14.0849-1.23772v9.90198z"/>
<path d="m950.507,234.346c10.5716-0.0974,14.0849-2.47549,14.0849-2.47549s0-4.95099-1.17371-6.18877c-1.17377-1.23772-12.9112-1.23772-12.9112-1.23772v9.90198z"/>
<path d="m950.507,228.157c10.5716-0.0974,12.9111-2.47549,12.9111-2.47549s0-4.95099-1.17371-6.18877c-1.17377-1.23772-11.7374-1.23772-11.7374-1.23772v9.90198z"/>
<path d="m950.507,212.631c8.22416,0.01,11.7773,7.15331,11.7573,7.00764l-2.36742,2.32976c-1.25778,1.23778-9.38991,1.23778-9.28894,1.23143l-0.10097-10.5688z"/>
<path d="m950.496,273.954c-6.56043-0.0974-7.28391-2.47542-7.28391-2.47542s-1.45666-4.95099-0.72837-6.18884c0.72841-1.23772,8.01228-1.23772,8.01228-1.23772v9.90198z"/>
<path d="m950.496,269.003c-7.04244,0-8.21621-2.47542-8.21621-2.47542s-2.34728-4.95099-1.1737-6.18884c1.17377-1.23772,9.38991-1.23772,9.38991-1.23772v9.90198z"/>
<path d="m950.496,264.052c-5.86873,0-9.38998-2.47549-9.38998-2.47549s-2.34728-4.95099-1.1737-6.18884c1.17377-1.23772,10.5637-1.23765,10.5637-1.23765v9.90198z"/>
<path d="m950.496,257.863c-10.5716-0.0974-10.5637-3.17937-10.5637-3.17937s-2.34728-4.95099-1.17371-6.18885c1.17377-1.23771,11.7374-0.53376,11.7374-0.53376v9.90198z"/>
<path d="m950.496,252.912c-10.5716-0.0974-11.7374-2.47542-11.7374-2.47542s-2.34728-4.95099-1.17371-6.18884c1.17378-1.23772,12.9111-1.23772,12.9111-1.23772v9.90198z"/>
<path d="m950.496,246.724c-10.5716-0.0974-12.9112-2.47549-12.9112-2.47549s-2.34728-4.95099-1.17371-6.18877c1.17377-1.23772,14.0849-1.23772,14.0849-1.23772v9.90198z"/>
<path d="m950.496,240.535c-10.5716-0.0974-14.0849-2.47549-14.0849-2.47549s-1.17357-4.95099,0-6.18877c1.17377-1.23772,14.0849-1.23772,14.0849-1.23772v9.90198z"/>
<path d="m950.496,234.346c-10.5716-0.0974-14.0849-2.47549-14.0849-2.47549s0-4.95099,1.17371-6.18877c1.17377-1.23772,12.9112-1.23772,12.9112-1.23772v9.90198z"/>
<path d="m950.496,228.157c-10.5716-0.0974-12.9111-2.47549-12.9111-2.47549s0-4.95099,1.17371-6.18877c1.17377-1.23772,11.7374-1.23772,11.7374-1.23772v9.90198z"/>
<path d="m950.496,212.631c-8.22416,0.01-11.7773,7.15331-11.7573,7.00764l2.36742,2.32976c1.25778,1.23778,9.38991,1.23778,9.28894,1.23143l0.10097-10.5688z"/>
</g>
</g>
</g>
</svg>