<?xml version="1.0" encoding="UTF-8"?>
<svg xmlns="http://www.w3.org/2000/svg" xmlns:xlink="http://www.w3.org/1999/xlink" width="900" height="600">
<rect fill="#28ae66" height="600" width="900"/>
<g fill="#fff">
<path id="crescent" d="m446.821,66.5425c26.5998,11.4204,45.2364,37.851,45.2364,68.6278,0,41.2242-33.4308,74.6551-74.6545,74.6551-18.4554,0-35.3454-6.70442-48.3768-17.805,8.06162,3.4572,16.8702,5.5458,26.1504,5.9508,41.1846,1.7982,76.0418-30.1422,77.8398-71.3268,1.04399-23.9112-9.28683-45.6876-26.1954-60.1017z"/>
<path id="star" d="m375.616,121.42,8.4582-26.0328-22.1448,16.089,27.3726,0-22.1448-16.089z"/>
<use xlink:href="#star" y="-38.400051" height="600"/>
<use xlink:href="#star" x="37.936928" y="-18.722051"/>
<use xlink:href="#star" x="-37.936072" y="18.721949"/>
<use xlink:href="#star" y="38.399949" height="600"/>
</g>
<g id="carpets" fill="#383739">
<rect fill="#ca3745" width="162" height="600" x="107.998"/>
<g id="ornm5">
<g id="ornm">
<path d="m107.998-39.6189v5.87932l9.11017,8.52746-3.07221,2.86017,6.51492,6.03814-2.86017,2.59534v-3.76059h-5.56153v4.50212l12.553,11.7585h6.35594l0.68864-4.13136h-3.65475l3.97238-3.70763,9.95763,9.0572-9.95763,9.11017-3.97238-3.70763h3.65475l-0.68864-4.18432h-6.35594l-12.553,11.7586v4.50212h5.56153v-3.76059l2.86017,2.59534-6.51492,6.03814,3.07221,2.91305-9.11017,8.47458v5.87932l15.413-14.3539-3.07204-2.91305,6.46187-6.03814-5.56153-5.19068,3.7078-3.38983,7.09729,6.5678,15.5722-14.3008-15.5722-14.3008-7.09729,6.62076-3.7078-3.4428,5.56153-5.19068-6.46187-6.03814,3.07204-2.86017-15.413-14.4068zm0,28.5488v22.1398l3.60169-3.65466v-4.29019h3.81356l3.07186-3.125-3.07186-3.07203h-3.81356v-4.34322l-3.60169-3.65466zm26.2712,7.83898-0.52983,3.01907,0.52983,3.07203,3.28373-3.07203-3.28373-3.01907z"/>
<path fill="#faae29" d="m107.998-38.9833v4.66102l9.74576,9.11017-3.0722,2.86017,6.51491,6.03814-3.91949,3.65466v-4.39619h-4.71407v3.91949l12.3412,11.4936h5.72034l0.58254-3.2839h-4.23729l5.08475-4.76695,10.5932,9.6928-10.5932,9.6928-5.08475-4.71398h4.23729l-0.584-3.33686h-5.72034l-12.3412,11.4936v3.91949h4.71407v-4.39619l3.91949,3.65466-6.51491,6.03814,3.0722,2.91305-9.74576,9.05729v4.66102l14.7774-13.7183-3.07203-2.91305,6.46187-6.03814-5.56153-5.19068,4.34339-4.02542,7.09729,6.62076,14.8836-13.7182-14.8836-13.7182-7.09729,6.62076-4.34339-4.02542,5.56153-5.19068-6.46187-6.03814,3.07203-2.86017-14.7774-13.7712zm0,28.5488v20.8686l3.17796-3.17797v-4.60798h4.07831l2.6483-2.64831-2.6483-2.64831h-4.07831v-4.60805l-3.17796-3.17797zm26.5888,8.05085-0.37068,2.17161,0.37068,2.17161,2.33051-2.17161-2.33051-2.17161z"/>
</g>
<use xlink:href="#ornm" y="109.20679"/>
<use xlink:href="#ornm" y="222.0051"/>
<use xlink:href="#ornm" y="334.80173"/>
<use xlink:href="#ornm" y="447.59835"/>
</g>
<use xlink:href="#ornm5" transform="matrix(-1,0,0,1,377.99597,0)"/>
<path id="branch" fill="#faae29" d="m121.14,530.824c0.7992,3.4074,3.5082,5.979,4.1538,9.51299,1.2924-3.6846,2.484-6.77342,1.5942-10.8042-0.6366-2.883-3.06181-4.9392-3.3426-7.902-2.64421,2.37721-3.2136,5.74921-2.4054,9.19321zm-0.67021,14.2764c2.24281,3.075,5.36041,5.4336,8.8032,7.0062-0.678-2.6934,0.594-4.7214,2.0058-6.85978,1.701-2.574,2.5302-5.1024,1.1436-8.06637-0.6462,1.5408-1.5144,2.8206-2.5332,4.1382-1.5066,2.05559-2.4972,3.8832-2.7294,6.51962-1.7424-1.2912-2.508-3.2196-3.4398-5.0856-1.4202-2.673-3.7122-4.9074-6.34498-6.3684,0.6996,2.9982,1.2384,6.16859,3.0948,8.71617zm12.5784,9.16557c-0.47939,1.7076-0.8928,3.4008-0.8004,5.1858-1.482-1.5966-3.45-2.7984-5.2056-4.08479-2.391-1.93381-5.178-3.2976-7.1328-5.76,0.2916,3.62399,1.8426,6.57842,4.7874,8.78337,3.1128,2.32981,6.86699,3.58261,9.93303,6.02879-0.459-3.2958,0.7518-5.9364,1.7844-8.96577,0.86041-2.89499,0.0276-5.83439-1.93559-8.0406,0.0294,2.4456-0.74221,4.5456-1.43041,6.85317zm6.98578,11.133c0.64501,2.5002,2.4366,4.53419,3.66001,6.76441-3.29881-1.023-6.20938-2.8122-9.1914-4.4958-3.55201-1.9338-7.40882-3.165-10.6242-5.7186,1.6002,5.9244,5.5662,9.35877,11.3682,11.1102,3.9672,1.1982,7.31038,0.6006,12.1242,2.5458-0.552-3.2586-1.5246-6.77582-3.0654-9.71401-1.1958-2.12519-2.5218-4.22099-3.2604-6.5616-1.0698,1.9224-1.5762,3.8784-1.011,6.06962zm12.1386,9.0654c1.13581,1.94579,2.63521,3.5832,4.4946,4.875-4.68299,0.29819-8.45156-2.6694-13.017-2.7984-2.81999-0.0792-5.4972,0.7962-8.37301,0.5334,3.4128,2.3028,6.98578,4.3134,11.1408,4.85099,5.4012,0.69841,10.3824-0.66059,16.341-0.129-2.7846-1.96499-4.1778-4.5954-5.9136-7.42377-2.2602-3.5322-4.3932-6.0498-8.78938-6.61799,1.76459,1.9836,2.79179,4.4406,4.11659,6.70982zm16.6314,7.77299c-8.25002,1.4022-16.1556,3.2172-24.5814,3.3006,9.43139,3.288,18.318,3.8826,27.672,0.4878,5.055-1.8348,8.931-2.817,12.7488-2.5434,5.5794,0.4008,12.36,2.6022,19.8642,10.5168l2.9496-2.36041c-10.7554-9.58314-24.8278-11.753-38.6527-9.40237z"/>
<use xlink:href="#branch" transform="matrix(-1,0,0,1,378.03633,0)"/>
<g id="carp1">
<path d="m128.266,70.3392-12.981-7.96019,0-19.1352,12.981-7.96019,0-10.125,12.267-7.3872,9.80042,0,18.6474-10.4886,40.0332,0,18.648,10.4886,9.80042,0,12.267,7.3872,0,10.125,12.981,7.96019-0.0006,19.1352-12.9804,7.96019,0,10.125-12.267,7.3872-9.80042,0-18.648,10.4886-40.0332,0-18.6474-10.4886-9.80042,0-12.267-7.3872z"/>
<path fill="#28ae66" d="m169.068,7.73279-18.644,10.4873-9.74578,0-11.9704,7.20336,0,10.1165-12.9767,7.94494,0,18.644,12.9767,7.94494,0,10.1695,11.9174,7.20336,9.79875,0,18.644,10.4873,39.8305,0,18.644-10.4873,9.79874,0,11.9704-7.20336,0-10.1695,12.9767-7.94494,0-18.644-12.9767-7.94494,0-10.1165-11.9704-7.20336-9.79874,0-18.644-10.4873-39.8305,0zm1.11229,3.86653,37.6589,0,18.644,10.4873,9.74578,0,9.05717,5.45551,0,10.1165,13.0296,7.94494,0,14.4068-13.0296,7.94494,0,10.1165-9.05717,5.45551-9.74578,0-18.644,10.4873-37.6589,0-18.644-10.4873-9.74578,0-9.11014-5.45551,0-10.1165-12.9767-7.94494,0-14.4068,12.9767-7.94494,0-10.1165,9.11014-5.45551,9.74578,0,18.644-10.4873z"/>
<path fill="#faae29" d="m188.783,53.0252,0-41.0085-18.5058,0-18.6486,10.4886-9.72181,0-8.79479,5.2962,0,10.1004-12.9804,7.95959,0,6.73559,69.0807-0.00066,0,41.0095,18.5058,0,18.648-10.4886,9.72241,0,8.79419-5.2962,0-10.0998,12.981-7.96019,0-6.73559z"/>
<path fill="#fff" d="m120.131,53.0254-0.0006,6.73559,12.981,7.96019,0,10.0998,8.79419,5.2962,9.72241,0,18.648,10.4886,18.5064,0,0-41.0095,69.0807,0.000661,0-6.73559-12.981-7.95959,0-10.1004-8.79419-5.2962-9.72241,0-18.648-10.4886-18.5058,0,0,41.0085z"/>
<g id="carp1h">
<g id="carp1q">
<path d="m148.448,26.2804-3.1956-2.9784-3.1662,1.9524,3.201,2.9844-4.11,2.5464,8.96877,0,7.72921,7.29062,2.47261-2.6112-7.515-7.08902,0-4.812z"/>
<path d="m163.573,24.9719-3.1956-2.9784-3.1662,1.9524,3.201,2.9844-4.11,2.5464,8.96877,0,7.72922,7.29062,2.47259-2.6112-7.51499-7.08902,0-4.812z"/>
<path d="m147.339,34.8358-3.1956-2.9784-3.1656,1.9524,3.2004,2.9844-4.1094,2.5464,8.96877,0,7.72861,7.29062,2.4726-2.6112-7.51499-7.08902,0-4.812z"/>
<path d="m188.997,11.5889-8.09309,0-4.23481,4.0812-8.25542,0-6.1002,3.1662,1.4226,3.4662,5.44021-2.8572,2.38259,0,8.34119,9.6468,9.09717-5.5398z"/>
<path fill="#ca3745" d="m145.199,23.8378,2.8716,2.6766-2.406,1.4904-2.8758-2.6808,2.4102-1.4862zm7.20541,0.495,0,4.227,7.3374,6.92158-1.884,1.9896-7.54141-7.11418-7.63559,0,9.72361-6.02398z"/>
<path fill="#ca3745" d="m160.324,22.5293,2.8716,2.6766-2.406,1.4904-2.8752-2.6808,2.4096-1.4862zm7.2054,0.495,0,4.227,7.33741,6.92158-1.88399,1.9896-7.54142-7.11358-7.63559,0,9.72362-6.02458z"/>
<path fill="#ca3745" d="m144.091,32.3932,2.871,2.6766-2.406,1.4904-2.8752-2.6808,2.4102-1.4862zm7.2048,0.495,0,4.227,7.33741,6.92158-1.88341,1.9896-7.54142-7.11358-7.63618,0,9.72361-6.02458z"/>
<path fill="#ca3745" d="m188.783,12.0166-7.70603,0-4.23481,4.0812-8.32377,0-5.6604,2.9376,1.095,2.6688,5.1168-2.6868,2.68501,0,8.232,9.52081,8.79623-5.3562z"/>
</g>
<use xlink:href="#carp1q" transform="matrix(1,0,0,-1,0,105.62254)"/>
<path d="m143.054,39.7108-3.8586-1.4418-0.0924,0.0642-4.98241,3.4572,0,0.929397-7.98,10.0914,7.98,10.0914,0,0.929998,5.07481,3.5208,3.8586-1.4418-2.355-1.5594,0-2.967,0.93599-1.1196,4.18141,0,0-14.9088-4.18141,0-0.93599-1.1196,0-2.967z"/>
<path fill="#ca3745" d="m134.549,42.0137,4.7064-3.2652,2.862,1.0692-1.8468,1.2228,0,3.3522,1.164,1.392,3.9528,0,0,14.0532-3.9528,0-1.164,1.392,0,3.3522,1.8468,1.2228-2.862,1.0692-4.7064-3.2652,0.0006-0.855-7.86302-9.94258,7.86302-9.94318z"/>
</g>
<use xlink:href="#carp1h" transform="matrix(-1,0,0,1,377.99368,0)"/>
<path d="m136.203,61.2822-2.1726-1.8798v-0.906l-4.6608-5.685,4.66141-5.6856v-0.9054l2.17259-1.8798,3.90241,3.1734-2.25241-0.0174,3.32821,3.378,7.60502,0,5.9808-4.677,0-12.3342,14.9586,0,17.3724-10.6608,0-2.796-2.6568-1.7706-0.8418,0-2.8932,1.9362-0.4482,1.4442-2.2632-3.09,4.3986-3.6954,0.7032,0,4.9638-3.642,1.8714,0,4.9632,3.642,0.70381,0,4.3986,3.6954-2.2632,3.09-0.44821-1.4442-2.8932-1.9362-0.8418,0-2.65679,1.7706,0,2.796,17.3724,10.6608,14.9586,0,0,12.3342,5.9808,4.677,7.60502,0,3.3282-3.378-2.2524,0.0174,3.9024-3.1734,2.1726,1.8798,0,0.9054,4.6614,5.6856-4.6614,5.685,0,0.906-2.1726,1.8798-3.9024-3.1734,2.2524,0.0174-3.3282-3.3786-7.60502,0-5.9808,4.6776,0,12.3342-14.9586,0-17.3724,10.6608,0,2.796,2.65679,1.7706,0.8418,0,2.8932-1.9362,0.44821-1.4442,2.2632,3.0894-4.3986,3.696-0.70381,0-4.9632,3.642-1.8714,0-4.9638-3.642-0.7032,0-4.3992-3.696,2.2638-3.0894,0.4482,1.4442,2.8926,1.9362,0.8418,0,2.6574-1.7706,0-2.796-17.3724-10.6608-14.9586,0,0-12.3342-5.98141-4.6776-7.60441,0-3.32821,3.3786,2.25241-0.0174z"/>
<path fill="#faae29" d="m189.211,87.3189,1.9014,1.45379-1.9014,1.4538,0-2.9076zm-6.0438,2.6442,0.0702,0,4.9638,3.6426,0.5796,0,0-2.8416-2.604-1.9914,2.6046-1.9914,0-5.3376-18.5892-11.4078-13.7418,0,0-11.4624-7.09502-5.5488-10.7016,0-2.6898,3.0414-2.68979-3.0414-3.17581,0.0006,4.35961,5.3172,0,0.863402,1.72679,1.5,2.7744-2.16-1.62839,0.0126,0-0.54,3.62879-3.699,7.974,0,6.26223,4.8972,0,12.1146,14.6514,0,17.679,10.8492,0,3.264-2.95559,1.9698-1.1022,0-3.1266-2.0928-0.24061-0.776398-1.5246,2.0808,3.9732,3.3372,0.6174,0zm-47.2008-39.7602,2.11801,2.394-4.2366,0,2.11859-2.394zm52.8156-34.8072-1.9002,1.4538,1.9002,1.4532,0-2.907zm51.1272,37.6296,2.118,2.394,2.118-2.394-4.236,0zm-45.1542-37.3668-4.9638-3.642-0.5796,0,0,2.8404,2.6052,1.9926-2.6058,1.9926,0,5.3364,18.5892,11.4078,13.7418,0,0,11.4624,7.09502,5.5488,10.6998,0,2.69039-3.0408,2.69041,3.0402,3.1764,0-4.3596-5.3172,0-0.863402-1.7268-1.5-2.77441,2.16,1.62841-0.0132,0,0.5406-3.62881,3.6984-7.974,0-6.26162-4.8972,0-12.114-14.652,0-17.679-10.8492,0-3.2646,2.9556-1.9692,1.1022,0,3.1266,2.0928,0.2406,0.776399,1.5246-2.0808-3.9732-3.3378-0.6876,0z"/>
<path fill="#fff" d="m188.782,90.2262-1.9002-1.4532,1.9002-1.4532,0,2.9064zm-50.6976-37.2006-2.118,2.394-2.11801-2.394,4.23601,0zm56.7408,36.9378-0.0702,0-4.9638,3.6426-0.5796,0,0-0.744005,0-2.0964,2.6052-1.9926-2.6058-1.9926,0-5.3364,18.5892-11.4078,13.7418,0,0-11.4624,7.09503-5.5488,10.7004,0,2.6898,3.0414,2.6898-3.0414,3.177,0.000599-4.3596,5.3172,0,0.863402-1.7268,1.5-2.7744-2.16,1.6284,0.0126,0-0.54-3.6288-3.699-7.974,0-6.26163,4.8972,0,12.1146-14.652,0-17.679,10.8492,0,3.264,2.9556,1.9698,1.1022,0,3.1266-2.0928,0.2406-0.776399,1.5246,2.0808-3.9732,3.3372-0.6174,0zm47.202-39.7602-2.11799,2.394,4.2366,0-2.11861-2.394zm-58.7886-34.5444,4.96381-3.642,0.5802,0,0,2.8404-2.6058,1.9926,2.6058,1.9926,0.0006,5.3364-18.5898,11.4078-13.7412,0,0,11.4624-7.09562,5.5488-10.7028,0-2.6898-3.0408-2.6904,3.0402-3.174,0,4.3602-5.3172,0-0.863401,1.7268-1.5,2.7738,2.16-1.6284-0.0132,0,0.5406,3.6294,3.6984,7.9734,0,6.26223-4.8972,0-12.114,14.6514,0,17.6796-10.8492,0-3.2646-2.9556-1.9692-1.1028,0-3.1266,2.0928-0.2406,0.776399-1.524-2.0808,3.9732-3.3378,0.687,0zm5.97241,2.6448,1.9014-1.4538-1.9014-1.4538,0,2.9076z"/>
<path fill="#28ae66" d="m188.783,53.0252,0-28.3449-18.4686,11.334-13.4346,0,0,11.2428-6.82801,5.34,39.1602-0.00066,0,28.3453,18.4674-11.3334,13.4346,0,0-11.2428,6.82801-5.34z"/>
<path fill="#ca3745" d="m150.051,53.0254,6.82861,5.34,0,11.2428,13.434,0,18.4692,11.334,0-28.3459,39.159,0.000661-6.82801-5.34,0-11.2428-13.4346,0-18.4674-11.3334,0,28.3443z"/>
<path d="m169.118,39.0635-3.195-2.9784-3.16621,1.9518,3.201,2.9844-4.11,2.5464,8.96877,0,7.72922,7.29122,2.4726-2.6118-7.515-7.08902,0-4.8114z"/>
<path d="m208.873,66.5593,3.1956,2.9784,3.1656-1.9524-3.2004-2.9844,4.11-2.5458-8.96937,0-7.72861-7.29123-2.4726,2.6112,7.51499,7.08962,0,4.8114z"/>
<path d="m169.118,66.5593-3.1956,2.9784-3.16561-1.9524,3.2004-2.9844-4.1094-2.5458,8.96877,0,7.72861-7.29123,2.47261,2.6112-7.515,7.08962,0,4.8114z"/>
<path d="m208.873,39.0635,3.1956-2.9784,3.1656,1.9518-3.2004,2.9844,4.11,2.5464-8.96937,0-7.72861,7.29122-2.4726-2.6118,7.51499-7.08902,0-4.8114z"/>
<path fill="#ca3745" d="m212.122,69.0018-2.871-2.6766,2.406-1.4904,2.8752,2.6808-2.4102,1.4862zm-7.2048-0.495,0-4.2264-7.33741-6.92158,1.884-1.9902,7.54142,7.11418,7.63559,0-9.72362,6.02398zm-39.0468-31.8865,2.8716,2.6766-2.40659,1.491-2.87521-2.6808,2.4102-1.4868zm7.20541,0.4956,0,4.2264,7.33741,6.92158-1.884,1.9902-7.54142-7.11418-7.63559,0,9.72362-6.02398z"/>
<path fill="#28ae66" d="m212.122,36.6203-2.871,2.6766,2.406,1.491,2.8752-2.6808-2.4102-1.4868zm-7.2048,0.4956,0,4.2264-7.33741,6.92158,1.884,1.9902,7.54142-7.11418,7.63559,0-9.72362-6.02398zm-39.0468,31.8859,2.871-2.6766-2.40599-1.4904-2.87521,2.6808,2.4102,1.4862zm7.20481-0.495,0-4.2264,7.33741-6.92158-1.8834-1.9902-7.54142,7.11418-7.63619,0,9.72362,6.02398z"/>
<path d="M208.856,52.8119,188.997,66.047,169.138,52.8119,188.997,39.5759z"/>
<path fill="#fff" d="m188.783,40.2328-18.5514,12.3642,37.5318,0-18.5514-12.3642,0,25.1568,18.552-12.3642-37.533,0,18.552,12.3642z"/>
<path d="m194.308,57.3629,0,3.639-10.6206,0,0-3.639-6.87359,0,0-9.10318,6.87359,0,0-3.639,10.6206,0,0,3.639,6.87299,0,0,9.10318z"/>
<path fill="#ca3745" d="m184.116,45.0484,0,3.639-6.87299,0,0,3.9096,11.5404,0,0-7.54862-4.6674,0zm5.0964,7.54862,11.5404,0,0-3.9096-6.87299,0,0-3.639-4.6674,0,0,7.54862zm-11.9694,0.4284,0,3.9096,6.873,0,0,3.639,4.6674,0,0-7.54862-11.5404,0zm11.9694,7.54862,4.6674,0,0-3.639,6.873,0,0-3.9096-11.5404,0,0,7.54862z"/>
</g>
<g id="carp2">
<path d="m222.877,203.61,0-5.8302,15.9882,0,0-5.8302,15.9882,0,0-52.6812-15.9882,0,0-5.8302-15.9882,0,0-5.8302-15.9882,0,0-5.8302-35.7822,0,0,5.8302-15.9882,0,0,5.8302-15.9888,0,0,5.8302-15.9882,0,0,52.6812,15.9882,0,0,5.8302,15.9888,0,0,5.8302,15.9882,0,0,5.83019,35.7822,0,0-5.83019z"/>
<path fill="#ca3745" d="m171.558,122.193v5.8261h-15.9963v5.82644h-15.9956v5.8261h-15.9959v51.8539h15.9959v5.82712h15.9956v5.82543h15.9963v5.82542h34.9034v-5.82542h15.9966v-5.82543h15.9966v-5.82712h15.9949v-51.8539h-15.9949v-5.8261h-15.9966v-5.82644h-15.9966v-5.8261h-34.9034zm4.23729,4.23729h26.4288v5.8261h15.9966v5.82644h15.9966v5.8261h15.9949v43.3793h-15.9949v5.82712h-15.9966v5.82542h-15.9966v5.82542h-26.4288v-5.82542h-15.9963v-5.82542h-15.9956v-5.82712h-15.9959v-43.3793h15.9959v-5.8261h15.9956v-5.82644h15.9963v-5.8261z"/>
<path fill="#ca3745" d="m160.209,198.519,0-5.8308-15.9882,0,0-5.8296-15.9888,0,0-42.5004,15.9888,0,0-5.8302,15.9882,0,0-5.8302,15.9882,0,0-5.8296,25.6008,0,0,5.8296,15.9888,0,0,5.8302,15.9876,0,0,5.8302,15.9888,0,0,42.5004-15.9888,0,0,5.8296-15.9876,0,0,5.8308-15.9888,0,0,5.8296-25.6008,0,0-5.8296z"/>
<path d="m163.921,137.014-4.1412-3.1302,0,6.0108-3.9654,2.52-0.0102-3.7626-3.8034,3.4164-3.8034-3.4164-0.0102,3.7626-4.3944-2.7924,0,5.5728-3.5514,2.571-0.01-3.417-4.2192,3.0558-4.2192-3.0558-0.01,3.417-3.97981-2.8812,0,16.8816-4.662,0,0,7.6842,4.662,0,0,16.8816,3.97981-2.8818,0.01,3.4176,4.2192-3.0558,4.2186,3.0558,0.0102-3.4176,3.5514,2.571,0,5.5734,4.3944-2.7924,0.0102,3.7626,3.8034-3.4164,3.8034,3.4164,0.0102-3.7626,3.9654,2.5194,0,6.0114,4.1412-3.1302,0.009,4.1982,4.0584-3.6294,4.059,3.6294,0.009-4.1982,3.7128,2.8062,0,6.411,5.5512-5.0598,0,5.946,7.6776-4.9362,7.6782,4.9362,0-5.946,5.5512,5.0598,0-6.411,3.7122-2.8062,0.009,4.1982,4.059-3.6294,4.059,3.6294,0.009-4.1982,4.14001,3.1302,0-6.0114,3.9666-2.5194,0.01,3.7626,3.804-3.4164,3.8034,3.4164,0.01-3.7626,4.395,2.7924,0-5.5734,3.5514-2.571,0.01,3.4176,4.2186-3.0558,4.2192,3.0558,0.01-3.4176,3.9798,2.8812,0-16.881,4.662,0,0-7.6842-4.662,0,0-16.8816-3.9798,2.8812-0.01-3.417-4.2192,3.0558-4.2192-3.0558-0.009,3.417-3.5514-2.571,0-5.5728-4.395,2.7924-0.01-3.7626-3.8034,3.4164-3.804-3.4164-0.01,3.7626-3.9666-2.5206,0-6.0102-4.14001,3.1296-0.009-4.1982-4.059,3.63-4.059-3.63-0.009,4.1988-3.7122-2.8074,0-6.4098-5.5512,5.0598,0-5.946-7.6782,4.9362-7.6776-4.9362,0,5.946-5.5512-5.0598,0,6.4104-3.7128,2.8068-0.009-4.1988-4.059,3.63-4.0584-3.63z"/>
<g fill="#28ae66">
<path d="m132.21,148.604,0.01-3.4176,3.7926,2.7474,0.1278-0.093,3.6648-2.6544,0.01,3.4176,3.978-2.8794,0,39.768-3.978-2.8794-0.01,3.4176-3.7926-2.7474-3.7926,2.7474-0.01-3.4176-3.97801,2.8794,0-16.4706-4.662,0,0-6.8268,4.662,0,0-16.4706z"/>
<path d="m164.356,133.772,3.6324,3.2484,3.6324-3.2484,0.009,4.1022,4.1388-3.129,0,61.7274-4.1388-3.129-0.009,4.1022-3.6324-3.2484-3.6324,3.2484-0.008-4.1022-4.1388,3.129,0-61.7274,4.1388,3.129z"/>
<path d="m213.64,133.772-3.6324,3.2484-3.6324-3.2484-0.009,4.1022-4.1382-3.129,0,61.7274,4.1382-3.129,0.009,4.1022,3.6324-3.2484,3.6324,3.2484,0.009-4.1022,4.13881,3.129,0-61.7274-4.13881,3.129z"/>
<path d="m245.786,148.604-0.01-3.4176-3.7926,2.7474-0.1284-0.093-3.6648-2.6544-0.01,3.4176-3.9774-2.8794,0,39.768,3.9774-2.8794,0.01,3.4176,3.7932-2.7474,3.7926,2.7474,0.01-3.4176,3.9774,2.8794,0-16.4706,4.662,0,0-6.8268-4.662,0,0-16.4706z"/>
</g>
<g fill="#faae29">
<path d="m148.623,139.611,3.3774,3.0342,3.3774-3.0342,0.01,3.5832,4.3926-2.7918,0,50.4126-4.3926-2.7912-0.01,3.5826-3.3774-3.0336-3.3774,3.0336-0.01-3.5826-4.3926,2.7912,0-50.4126,4.3926,2.7918z"/>
<path d="m181.748,133.827-5.5512-5.0598,0,73.6824,5.5512-5.0598,0,6.1314,7.2486-4.6602,0.0006,0,0.0006,0,7.2486,4.6602,0-6.1314,5.5512,5.0598,0-73.6824-5.5512,5.0598,0-6.1314-7.2486,4.6602-0.0006,0-0.0006,0-7.2486-4.6602z"/>
<path d="m229.373,139.611-3.3774,3.0342-3.378-3.0342-0.009,3.5832-4.3932-2.7918,0,50.4126,4.3932-2.7912,0.009,3.5826,3.378-3.0336,3.3774,3.0336,0.01-3.5826,4.3926,2.7912,0-50.4126-4.3926,2.7918z"/>
</g>
<g id="carp2h">
<g id="carp2q">
<path d="m134.288,158.366c0.4854,0.4896,1.0656,0.7374,1.7244,0.7374,0.6582,0,1.2384-0.2478,1.7244-0.7374,1.5186-1.53,1.5696-4.2972,1.5546-6.28859,0,0-1.7556,1.85521-2.0724,2.19-0.2208-0.38159-1.2066-2.08379-1.2066-2.08379s-0.9858,1.7022-1.2072,2.08379c-0.3168-0.33479-2.0724-2.19-2.0724-2.19-0.015,1.9914,0.0366,4.7586,1.5552,6.28859z"/>
<path d="m150.966,154.08-1.2792-1.278,0-2.54639-2.9376,2.7228,5.2512,5.2512,5.2512-5.2512-2.9376-2.7228,0,2.54639-1.2786,1.278,0-4.5114,2.265-1.94459-3.3-2.8338-3.3,2.8338,2.2656,1.94459z"/>
<path d="m166.953,149.02-1.2786-1.2786,0-2.5464-2.9376,2.7228,5.2512,5.2512,5.2512-5.2512-2.93761-2.7228,0,2.5464-1.2792,1.2786,0-4.512,2.26561-1.9446-3.3-2.8332-3.3,2.8332,2.265,1.9446z"/>
<path fill="#fff" d="m136.013,153.039c0.2622,0.4524,1.12319,1.9398,1.12319,1.9398s1.2132-1.2828,1.7088-1.8054c-0.0594,2.2488-0.5532,4.0254-1.41179,4.89-0.4026,0.4056-0.8802,0.6114-1.4202,0.6114-0.5406,0-1.01821-0.2058-1.4202-0.6108-0.85861-0.8652-1.35241-2.6418-1.41181-4.8906,0.495,0.5232,1.70821,1.8054,1.70821,1.8054,0.37439-0.6468,0.7494-1.2936,1.1238-1.9398z"/>
<path fill="#fff" d="m168.595,144.312,0,5.7432,2.136-2.1354,0-1.7424,1.8912,1.7532-4.6332,4.63319-4.6338-4.63319,1.8912-1.7532,0,1.7424,2.136,2.1354,0-5.7432-2.0358-1.7478,2.6424-2.2686,2.6418,2.2686z"/>
<path fill="#ca3745" d="m152.607,149.372,0,5.7432,2.136-2.136,0-1.7418,1.89119,1.7526-4.6338,4.6338-4.6332-4.6338,1.89121-1.7526,0,1.7418,2.13599,2.136,0-5.7432-2.0358-1.7478,2.6418-2.2686,2.6424,2.2686z"/>
</g>
<use xlink:href="#carp2q" transform="matrix(-1,0,0,1,377.9958,0)"/>
<path d="m195.282,150.937-1.7202-2.3772,4.4112-4.0722-4.11301-3.37919,0,2.39399-1.72019,1.4718,0-4.34219,3.88559-2.86381-7.02902-5.181-7.02902,5.181,3.88621,2.86381,0,4.34219-1.72021-1.4718,0-2.39399-4.1136,3.37919,4.4118,4.0722-1.7202,2.3772z"/>
<path fill="#ca3745" d="m183.552,150.509,1.4508-2.0058-4.32901-3.996,3.03181-2.49119,0,1.68419,2.5776,2.2056,0-5.49-3.5922-2.6472,6.3066-4.64819,6.30661,4.64819-3.5916,2.6472,0,5.49,2.577-2.2056,0-1.68419,3.0324,2.49119-4.329,3.996,1.4514,2.0058z"/>
<path d="m185.785,137.769,3.21181,2.367,3.21239-2.367-3.21239-2.3676-0.1272,0.0942z"/>
<path fill="#28ae66" d="m188.997,135.934c0.2124,0.156,2.1144,1.55819,2.49,1.83479-0.3756,0.2766-2.2776,1.6788-2.49,1.83481-0.2118-0.15601-2.1144-1.55821-2.4894-1.83481,0.375-0.2766,2.2776-1.67879,2.4894-1.83479z"/>
</g>
<use xlink:href="#carp2h" transform="matrix(1,0,0,-1,0,331.21644)"/>
<path d="m245.902,163.15-7.0374,0,0-2.805-21.5106,0-14.9742-9.83579-0.0636,0-26.7012,0-14.9736,9.83579-21.5112,0,0,2.805-7.0374,0,0,4.9176,7.0374,0,0,2.805,21.5112,0,14.9736,9.8364,26.7648,0,14.9742-9.8364,21.5106,0,0-2.805,7.0374,0z"/>
<path fill="#ca3745" d="m175.742,150.953-14.9894,9.79873-21.1864,0,0,2.8072-7.04449,0,0,4.07839,7.04449,0,0,2.8072,21.1864,0,14.9894,9.8517,26.5359,0,14.9364-9.8517,21.2393,0,0-2.8072,7.04449,0,0-4.07839-7.04449,0,0-2.8072-21.2393,0-14.9364-9.79873zm0.31779,1.43008,25.8475,0,13.7182,9.00424,0,1.37712,15.3072,0,0,5.72034-15.3072,0,0,1.37712-13.7182,8.95127-25.8475,0-13.6652-8.95127,0-1.37712-15.3602,0,0-5.72034,15.3602,0,0-1.37712z"/>
<path fill="#ca3745" d="m201.799,152.826,13.3788,8.7834,0,1.5588,15.3318,0,0,4.8804-15.3318,0,0,1.5594-13.3788,8.7834-25.6044,0-13.3788-8.7834,0-1.5594-15.3318,0,0-4.8804,15.3318,0,0-1.5588,13.3788-8.7834z"/>
<g>
<path d="m169.551,170.598,5.793,4.3488,3.8106-2.8614-2.2152-1.6632-1.5954,1.1982-1.362-1.0224,21.8154-16.3788-4.4304,0zm12.645,6.40077,4.4304,0,21.816-16.3788-5.79241-4.3482-3.81119,2.86079,2.21519,1.66261,1.596-1.1982,1.362,1.023zm9.17098,0,4.4298,0-21.8148-16.3788,1.362-1.023,1.5954,1.1982,2.2152-1.66261-3.8106-2.86079-5.793,4.3482zm12.645-6.40077-1.362,1.0224-1.596-1.1982-2.21519,1.6632,3.81119,2.8614,5.7924-4.3488-21.816-16.3788-4.4304,0z"/>
<path d="m165.164,165.609,3.8934,2.586,3.89341-2.586-3.89341-2.586z"/>
<path d="m185.104,165.609,3.8934,2.586,3.8934-2.586-3.8934-2.586z"/>
<path d="m212.832,165.609-3.8934,2.586-3.8934-2.586,3.8934-2.586z"/>
<path fill="#faae29" d="m207.729,170.598-5.0784,3.81299-3.0978-2.32559,1.5018-1.1274,1.596,1.1982,2.0754-1.5582-21.2448-15.9498,3.003,0zm-13.2162,5.97179-3.0024,0-21.2448-15.9498,5.079-3.813,3.0966,2.32559-1.5012,1.12681-1.5954-1.1982-2.076,1.5588zm-8.0286,0-3.003,0,21.2448-15.9498-2.0754-1.5588-1.596,1.1982-1.5018-1.12681,3.0978-2.32559,5.0784,3.813zm5.0262-21.9216,3.0024,0-21.2442,15.9498,2.076,1.5582,1.5954-1.1982,1.5012,1.1274-3.0966,2.32559-5.07901-3.81299z"/>
<path fill="#28ae66" d="m169.057,163.538,3.1188,2.0712-3.1188,2.0712-3.1188-2.0712z"/>
<path fill="#28ae66" d="m188.998,163.538,3.1188,2.0712-3.1188,2.0712-3.1182-2.0712z"/>
<path fill="#28ae66" d="m208.939,163.538-3.1188,2.0712,3.1188,2.0712,3.1182-2.0712z"/>
</g>
</g>
<g id="carp3">
<g>
<path d="m120.514,274.151-1.5276,2.1606,2.7384,2.094-2.739,2.0946,1.5276,2.1606,3.1818,0.3696,3.081-2.3808,7.68181,4.8798,0-4.0524-4.8348-3.0714,4.8348-3.0708,0-4.0524-7.68181,4.8798-3.081-2.3802z"/>
<path d="m120.514,260.073-1.5276,2.16119,2.7384,2.094-2.739,2.094,1.5276,2.1612,3.1818,0.369,3.081-2.3808,7.68181,4.8804,0-4.053-4.8348-3.0708,4.8348-3.07139,0-4.0524-7.68181,4.87979-3.081-2.38019z"/>
<path d="m120.514,296.739-1.5276-2.1606,2.7384-2.094-2.739-2.0946,1.5276-2.1606,3.1818-0.369,3.081,2.3802,7.68181-4.8798,0,4.0524-4.8348,3.0714,4.8348,3.0708,0,4.0524-7.68181-4.8798-3.081,2.3808z"/>
<path d="m257.482,274.151,1.5276,2.1606-2.7384,2.094,2.7384,2.0946-1.5276,2.1606-3.1812,0.3696-3.081-2.3808-7.6824,4.8798,0-4.0524,4.8354-3.0714-4.8354-3.0708,0-4.0524,7.6824,4.8798,3.081-2.3802z"/>
<path d="m257.482,260.073,1.5276,2.16119-2.7384,2.094,2.7384,2.094-1.5276,2.1612-3.1812,0.369-3.081-2.3808-7.6824,4.8804,0-4.053,4.8354-3.0708-4.8354-3.07139,0-4.0524,7.6824,4.87979,3.081-2.38019z"/>
<path d="m257.482,296.739,1.5276-2.1606-2.7384-2.094,2.7384-2.0946-1.5276-2.1606-3.1812-0.369-3.081,2.3802-7.6824-4.8798,0,4.0524,4.8354,3.0714-4.8354,3.0708,0,4.0524,7.6824-4.8798,3.081,2.3808z"/>
<path d="m226.727,235.73,0,5.856,4.25941,0,0,2.5878,4.1844,0,0-4.7124h-3.73201v-3.7314h-4.7118z"/>
<path d="m239.283,244.965,0,5.8554,4.25521,0,0,2.5884,4.1886,0,0-4.7124h-3.73141v-3.7314h-4.7124z"/>
<path d="m151.269,235.73,0,5.856-4.2606,0,0,2.5878-4.18321,0,0-4.7124h3.73141v-3.7314h4.7124z"/>
<path d="m226.727,321.083,0-5.856,4.25941,0,0-2.58779,4.1844,0,0,4.7118h-3.73201v3.73199h-4.7118z"/>
<path d="m151.269,321.083,0-5.856-4.2606,0,0-2.58779-4.18321,0,0,4.7118h3.73141v3.73199h4.7124z"/>
<path d="m239.283,311.848,0-5.85539,4.25521,0,0-2.5884,4.1886,0,0,4.7118h-3.73141v3.73199h-4.7124z"/>
<path d="m138.714,244.965,0,5.8554-4.2564,0,0,2.5884-4.18741,0,0-4.7124h3.73141v-3.7314h4.7124z"/>
<path d="m138.714,311.848,0-5.85539-4.2564,0,0-2.5884-4.18741,0,0,4.7118h3.73141v3.73199h4.7124z"/>
<path d="m204.753,235.594c-0.27181-0.264-3.2508-3.156-3.2508-3.156l-3.19321,2.95861s2.502,2.42819,2.7834,2.70179l-3.5928,3.4878h5.33401l1.9194-1.8636,1.9194,1.8636h5.3334l-3.5928-3.4878c0.2814-0.2736,2.7828-2.70179,2.7828-2.70179l-3.1926-2.95861c-1.08481,1.05061-2.1672,2.10361-3.2502,3.156z"/>
<path d="m188.998,235.594c-0.2712-0.264-3.2502-3.156-3.2502-3.156l-3.1932,2.95861s2.5014,2.42819,2.7834,2.70179l-3.5928,3.4878h5.3334l1.9194-1.8636,1.9194,1.8636h5.3334l-3.5922-3.4878c0.2814-0.2736,2.7828-2.70179,2.7828-2.70179l-3.1926-2.95861c-1.0848,1.05061-2.1672,2.10361-3.2508,3.156z"/>
<path d="m173.244,235.594c0.2718-0.264,3.25079-3.156,3.25079-3.156l3.19321,2.95861s-2.502,2.42819-2.7834,2.70179l3.5928,3.4878h-5.33401l-1.91939-1.8636-1.91941,1.8636h-5.33339l3.59279-3.4878c-0.28139-0.2736-2.7834-2.70179-2.7834-2.70179l3.1932-2.95861c1.08481,1.05061,2.1672,2.10361,3.25021,3.156z"/>
<path d="m204.753,321.219c-0.27181,0.2634-3.2508,3.1554-3.2508,3.1554l-3.19321-2.9586s2.502-2.4276,2.7834-2.7012l-3.5928-3.4878h5.33401l1.9194,1.8636,1.9194-1.8636h5.3334l-3.5928,3.4878c0.2814,0.2736,2.7828,2.7012,2.7828,2.7012l-3.1926,2.9586c-1.08481-1.0506-2.1672-2.1036-3.2502-3.1554z"/>
<path d="m188.998,321.219c-0.2712,0.2634-3.2502,3.1554-3.2502,3.1554l-3.1932-2.9586s2.5014-2.4276,2.7834-2.7012l-3.5928-3.4878h5.3334l1.9194,1.8636,1.9194-1.8636h5.3334l-3.5922,3.4878c0.2814,0.2736,2.7828,2.7012,2.7828,2.7012l-3.1926,2.9586c-1.0848-1.0506-2.1672-2.1036-3.2508-3.1554z"/>
<path d="m173.244,321.219c0.2718,0.2634,3.25079,3.1554,3.25079,3.1554l3.19321-2.9586s-2.502-2.4276-2.7834-2.7012l3.5928-3.4878h-5.33401l-1.91939,1.8636-1.91941-1.8636h-5.33339l3.59279,3.4878c-0.28139,0.2736-2.7834,2.7012-2.7834,2.7012l3.1932,2.9586c1.08481-1.0506,2.1672-2.1036,3.25021-3.1554z"/>
</g>
<g fill="#28ae66">
<path d="m134.029,281.713,0,3.0366-7.27801-4.623-3.1806,2.4582-2.8182-0.327-1.1784-1.6674,2.856-2.184-2.856-2.184,1.179-1.6674,2.8176-0.327,3.1806,2.4576,7.27801-4.623,0,3.0366-5.2062,3.3072z"/>
<path d="m134.029,267.635,0,3.0372-7.27801-4.623-3.1806,2.4576-2.8182-0.327-1.1784-1.6674,2.856-2.184-2.856-2.1834,1.179-1.66739,2.8176-0.3276,3.1806,2.45759,7.27801-4.62239,0,3.0366-5.2062,3.30659z"/>
<path d="m134.029,289.178,0-3.0366-7.27801,4.623-3.1806-2.4582-2.8182,0.327-1.1784,1.6674,2.856,2.184-2.856,2.184,1.179,1.6674,2.8176,0.327,3.1806-2.4576,7.27801,4.623,0-3.0366-5.2062-3.3072z"/>
<path d="m243.967,281.713,0,3.0366,7.278-4.623,3.18,2.4582,2.8182-0.327,1.1784-1.6674-2.856-2.184,2.856-2.184-1.1784-1.6674-2.8182-0.327-3.18,2.4576-7.278-4.623,0,3.0366,5.2056,3.3072z"/>
<path d="m243.967,267.635,0,3.0372,7.278-4.623,3.18,2.4576,2.8182-0.327,1.1784-1.6674-2.856-2.184,2.856-2.1834-1.1784-1.66739-2.8182-0.3276-3.18,2.45759-7.278-4.62239,0,3.0366,5.2056,3.30659z"/>
<path d="m243.967,289.178,0-3.0366,7.278,4.623,3.18-2.4582,2.8182,0.327,1.1784,1.6674-2.856,2.184,2.856,2.184-1.1784,1.6674-2.8182,0.327-3.18-2.4576-7.278,4.623,0-3.0366,5.2056-3.3072z"/>
<path d="m231.011,236.159v3.732h3.73141v3.855h-3.32641v-2.5878h-4.26v-4.9992h3.855z"/>
<path d="m243.566,245.393v3.7314h3.7314v3.8556h-3.327v-2.5878h-4.2594v-4.9992h3.855z"/>
<path d="m146.985,236.159v3.732h-3.7314v3.855h3.327v-2.5878h4.2594v-4.9992h-3.855z"/>
<path d="m231.011,320.653v-3.7314h3.73141v-3.855h-3.32641v2.58781h-4.26v4.99859h3.855z"/>
<path d="m146.985,320.653v-3.7314h-3.732v-3.855h3.327v2.58781h4.26v4.99859h-3.855z"/>
<path d="m243.566,311.419v-3.7314h3.7314v-3.855h-3.327v2.5878h-4.2594v4.9986h3.855z"/>
<path d="m134.43,245.393v3.7314h-3.7314v3.8556h3.327v-2.5878h4.2594v-4.9992h-3.855z"/>
<path d="m134.431,311.419v-3.7314h-3.732v-3.855h3.327v2.5878h4.26v4.9986h-3.855z"/>
<path d="m201.496,233.029c0.26579,0.258,3.25739,3.162,3.25739,3.162s2.99101-2.904,3.25681-3.162c0.25199,0.2328,2.28539,2.1168,2.5638,2.3748-0.288,0.279-2.7762,2.6946-2.7762,2.6946l3.15119,3.0594h-4.1022l-2.0934-2.0328-2.094,2.0328h-4.1022l3.15121-3.0594s-2.48821-2.4156-2.77621-2.6946c0.2784-0.258,2.3118-2.142,2.56381-2.3748z"/>
<path d="m185.741,233.029c0.2658,0.258,3.2568,3.162,3.2568,3.162s2.991-2.904,3.2574-3.162c0.252,0.2328,2.28481,2.1168,2.5632,2.3748-0.2874,0.279-2.7756,2.6946-2.7756,2.6946l3.1512,3.0594h-4.1028l-2.0934-2.0328-2.0934,2.0328h-4.1028l3.1512-3.0594s-2.4882-2.4156-2.7756-2.6946c0.2784-0.258,2.3118-2.142,2.5638-2.3748z"/>
<path d="m176.502,233.029c-0.2664,0.258-3.2574,3.162-3.2574,3.162s-2.991-2.904-3.25681-3.162c-0.25199,0.2328-2.28539,2.1168-2.56379,2.3748,0.28799,0.279,2.7762,2.6946,2.7762,2.6946l-3.1512,3.0594h4.1022l2.0934-2.0328,2.094,2.0328h4.1022l-3.1512-3.0594s2.4882-2.4156,2.7762-2.6946c-0.2784-0.258-2.3118-2.142-2.5638-2.3748z"/>
<path d="m201.496,323.784c0.26579-0.2586,3.25739-3.1626,3.25739-3.1626s2.99101,2.904,3.25681,3.1626c0.25199-0.2334,2.28539-2.1174,2.5638-2.3748-0.288-0.27959-2.7762-2.69459-2.7762-2.69459l3.15119-3.0594h-4.1022l-2.0934,2.03219-2.094-2.03219h-4.1022l3.15121,3.0594s-2.48821,2.415-2.77621,2.69459c0.2784,0.2574,2.3118,2.1414,2.56381,2.3748z"/>
<path d="m185.741,323.784c0.2658-0.2586,3.2568-3.1626,3.2568-3.1626s2.991,2.904,3.2574,3.1626c0.252-0.2334,2.28481-2.1174,2.5632-2.3748-0.2874-0.27959-2.7756-2.69459-2.7756-2.69459l3.1512-3.0594h-4.1028l-2.0934,2.03219-2.0934-2.03219h-4.1028l3.1512,3.0594s-2.4882,2.415-2.7756,2.69459c0.2784,0.2574,2.3118,2.1414,2.5638,2.3748z"/>
<path d="m176.502,323.784c-0.2664-0.2586-3.2574-3.1626-3.2574-3.1626s-2.991,2.904-3.25681,3.1626c-0.25199-0.2334-2.28539-2.1174-2.56379-2.3748,0.28799-0.27959,2.7762-2.69459,2.7762-2.69459l-3.1512-3.0594h4.1022l2.0934,2.03219,2.094-2.03219h4.1022l-3.1512,3.0594s2.4882,2.415,2.7762,2.69459c-0.2784,0.2574-2.3118,2.1414-2.5638,2.3748z"/>
</g>
<path d="m146.58,306.421,0,9.234,84.8358,0,0-9.234,12.5508,0,0-56.0292-12.5508,0,0-9.234-84.8358,0,0,9.234-12.5508,0,0,56.0292z"/>
<path fill="#ca3745" d="m147.034,241.578v9.21695h-12.5529v55.1898h12.5529v9.21695h83.9509v-9.21695h12.554v-55.1903h-12.5542v-9.21695h-83.9509zm5.40254,3.54915h73.1467v8.89831l3.01864,2.22542h11.3881v44.3322h-11.4407l-2.9661,2.17119v8.95085h-73.1465v-8.89831l-3.01915-2.22373h-11.4407v-44.3322h11.3878l3.07203-2.22542v-8.89831z"/>
<path fill="#ca3745" d="m152.86,245.551v8.15763l11.017-8.15763h-11.017zm61.228,0,11.017,8.15763v-8.15763h-11.017zm-75.6348,11.1237v7.62712l10.3814-7.62712h-10.3806zm90.6788,0,10.4339,7.67966v-7.67966h-10.4339zm10.4339,35.7508-10.4339,7.7339h10.4339v-7.7339zm-101.113,0.0525v7.68135h10.3814l-10.3814-7.68135zm14.4068,10.6474v8.10339h10.9639l-10.9639-8.10339zm72.2449,0-10.9627,8.10339h10.9627v-8.10339z"/>
<path fill="#28ae66" d="m213.377,245.559c0.1128,0.0828,26.0154,19.2144,26.1876,19.3416v27.0102c-0.1722,0.1278-26.0748,19.2588-26.1876,19.3422h-48.7596c-0.11221-0.0834-26.0148-19.2144-26.187-19.3422v-27.0102c0.1722-0.1272,26.0748-19.2588,26.187-19.3416h48.7596z"/>
<path d="m144.667,295.021-3.0108-3.4944,2.8266-3.2802-2.8266-3.2802,2.8266-3.2796-2.8266-3.2802,2.8266-3.2802-2.8266-3.2802,2.826-3.2802-2.826-3.2802,3.0108-3.4938,88.6614,0,3.0108,3.4938-2.8266,3.2802,2.8266,3.2802-2.8266,3.2802,2.8266,3.2802-2.8266,3.2802,2.8266,3.2796-2.8266,3.2802,2.8266,3.2802-3.0108,3.4944zm60.9456-45.2364-3.4944-3.0108-3.2808,2.8266-3.2796-2.8266-3.2802,2.8266-3.2802-2.8266-3.2802,2.8266-3.2802-2.8266-3.2796,2.8266-3.2802-2.8266-3.4944,3.0108,0,57.243,3.4944,3.0114,3.2802-2.8266,3.2796,2.826,3.2802-2.8266,3.2802,2.8266,3.2802-2.8266,3.2802,2.8266,3.2796-2.826,3.2808,2.8266,3.4944-3.0114z"/>
<g fill="#faae29">
<path d="m198.623,249.981-3.0654-2.6418-3.066,2.6418,0,56.85,3.066,2.6412,3.0654-2.6412z"/>
<path d="m185.503,249.981-3.066-2.6418-3.0654,2.6418,0,56.85,3.0654,2.6412,3.066-2.6412z"/>
<path d="m144.863,294.593-2.6412-3.066,2.6412-3.066,88.269,0,2.6412,3.066-2.6412,3.066z"/>
<path d="m233.132,275.34,2.6418,3.066-2.6418,3.0654-88.2678,0-2.6418-3.0654,2.6418-3.066z"/>
<path d="m233.132,268.352,2.6412-3.066-2.6412-3.0654-88.269,0-2.6412,3.0654,2.6412,3.066z"/>
</g>
<g fill="#ca3745">
<path d="m205.184,249.981-3.0654-2.6418-3.066,2.6418,0,56.85,3.066,2.6412,3.06462-2.64063z"/>
<path d="m178.943,249.981-3.066-2.6418-3.066,2.6418,0,56.85,3.066,2.6412,3.066-2.6412z"/>
<path d="m144.864,288.032-2.6418-3.066,2.6418-3.066,88.2678,0,2.6418,3.066-2.6418,3.066z"/>
<path d="m144.864,274.912-2.6418-3.066,2.6418-3.066,88.2678,0,2.6418,3.066-2.6418,3.066z"/>
<path d="m192.064,306.831-3.066,2.6412-3.066-2.6412,0-56.85,3.066-2.6418,3.066,2.6418z"/>
</g>
<path d="m218.631,251.09-59.4804,0v4.7238h-7.60141v45.1848h7.60141v4.7232h59.6946v-4.7232h7.60141v-45.1848h-7.60141v-4.7238h-0.2142z"/>
<path fill="#ca3745" d="m159.587,251.535v4.71525h-7.62712v44.3322h7.62712v4.71356h6.25017l-12.4471-10.4339v-32.8932l12.4471-10.4339h-6.25017zm52.5963,0,12.3932,10.4339v32.8932l-12.3932,10.4339h6.24915v-4.71356h7.57458v-44.3322h-7.57458v-4.71525h-6.24915z"/>
<g fill="#28ae66">
<path d="m166.525,251.535c-0.1176,0.099-12.5613,10.5202-12.7119,10.6462v32.4681c0.1506,0.12661,12.5943,10.5472,12.7119,10.6462h44.9681c0.11813-0.099,12.5083-10.5202,12.6589-10.6462v-32.4681c-0.15068-0.12594-12.5407-10.5472-12.6589-10.6462zm0.63559,1.80085,43.6441,0,11.5466,9.69279,0,30.7732-11.5466,9.63983-43.6441,0-11.4936-9.63983,0-30.7732z"/>
<path d="m178.72,294.289,1.9536,0.8442,0.3594,2.2818-2.4594,2.16359,3.5724,3.4542-3.4374,0-2.4576-2.36579-2.4582,2.36579-3.4374,0,3.573-3.4542-2.46-2.16359,0.36-2.2818,1.953-0.8442,2.4696,1.9746,0.1338-0.10681z"/>
<path d="m191.468,294.289,1.953,0.8442,0.36,2.2818-2.4594,2.16359,3.5724,3.4542-3.4374,0-2.4582-2.36579-2.4576,2.36579-3.438,0,3.573-3.4542-2.4594-2.16359,0.36-2.2818,1.953-0.8442,2.469,1.9746,0.1338-0.10681z"/>
<path d="m199.277,294.289-1.953,0.8442-0.36,2.2818,2.4594,2.16359-3.5724,3.4542,3.4374,0,2.45821-2.36579,2.45759,2.36579,3.43741,0-3.57241-3.4542,2.4594-2.16359-0.36-2.2818-1.95299-0.8442-2.469,1.9746-0.1344-0.10681z"/>
<path d="m178.72,262.523,1.9536-0.8442,0.3594-2.2812-2.4594-2.1636,3.5724-3.4542-3.4374,0-2.4576,2.3652-2.4582-2.3652-3.4374,0,3.573,3.4542-2.46,2.163,0.36,2.2818,1.953,0.8442,2.4696-1.974,0.1338,0.1068z"/>
<path d="m191.468,262.523,1.953-0.8442,0.36-2.2812-2.4594-2.1636,3.5724-3.4542-3.4374,0-2.4582,2.3652-2.4576-2.3652-3.438,0,3.573,3.4542-2.4594,2.163,0.36,2.2818,1.953,0.8442,2.469-1.974,0.1338,0.1068z"/>
<path d="m199.277,262.523-1.953-0.8442-0.36-2.2812,2.4594-2.1636-3.5724-3.4542,3.4374,0,2.45821,2.3652,2.45759-2.3652,3.43741,0-3.57241,3.4542,2.4594,2.163-0.36,2.2818-1.95299,0.8442-2.469-1.974-0.1344,0.1068z"/>
<path d="m221.901,266.167-1.95,1.6146,1.95,1.614,0,2.6766-2.9988-2.4714s-2.0166,1.827-2.1522,1.95c-0.1728-0.0216-2.1156-0.2658-2.3076-0.2898-0.0858-0.1578-0.6924-1.2762-0.813-1.5,0.201-0.2004,1.986-1.9794,1.986-1.9794s-1.785-1.7796-1.986-1.98c0.1206-0.2238,0.7272-1.3428,0.813-1.5,0.192-0.024,2.1348-0.2688,2.3076-0.2904,0.1356,0.123,2.1522,1.9506,2.1522,1.9506l2.9988-2.4708v2.676z"/>
<path d="m221.901,276.792-1.95,1.6146,1.95,1.6134,0,2.67719-2.9988-2.47139s-2.0166,1.827-2.1522,1.94999c-0.1728-0.0216-2.1156-0.26639-2.3076-0.28979-0.0858-0.15781-0.6924-1.27681-0.813-1.5,0.201-0.20041,1.986-1.9794,1.986-1.9794s-1.785-1.7802-1.986-1.9806c0.1206-0.2232,0.7272-1.3422,0.813-1.50001,0.192-0.0234,2.1348-0.26819,2.3076-0.28979,0.1356,0.12299,2.1522,1.95,2.1522,1.95l2.9988-2.47021v2.67601z"/>
<path d="m221.901,290.646-1.95-1.61461,1.95-1.614,0-2.6766-2.9988,2.4714s-2.0166-1.8276-2.1522-1.9506c-0.1728,0.0216-2.1156,0.2664-2.3076,0.2898-0.0858,0.15781-0.6924,1.27681-0.813,1.5,0.201,0.20101,1.986,1.98,1.986,1.98s-1.785,1.7796-1.986,1.98c0.1206,0.2232,0.7272,1.3422,0.813,1.5,0.192,0.024,2.1348,0.26821,2.3076,0.2898,0.1356-0.12299,2.1522-1.94999,2.1522-1.94999l2.9988,2.47079v-2.67599z"/>
<path d="m156.097,266.167,1.9494,1.6146-1.9494,1.614,0,2.6766,2.9988-2.4714s2.0166,1.827,2.1522,1.95c0.1722-0.0216,2.1156-0.2658,2.3076-0.2898,0.0858-0.1578,0.6918-1.2762,0.813-1.5-0.20099-0.2004-1.986-1.9794-1.986-1.9794s1.78501-1.7796,1.986-1.98c-0.1212-0.2238-0.7272-1.3428-0.813-1.5-0.192-0.024-2.1354-0.2688-2.3076-0.2904-0.1356,0.123-2.1522,1.9506-2.1522,1.9506l-2.9988-2.4708v2.676z"/>
<path d="m156.097,276.792,1.9494,1.6146-1.9494,1.6134,0,2.67719,2.9988-2.47139s2.0166,1.827,2.1522,1.94999c0.1722-0.0216,2.1156-0.26639,2.3076-0.28979,0.0858-0.15781,0.6918-1.27681,0.813-1.5-0.20099-0.20041-1.986-1.9794-1.986-1.9794s1.78501-1.7802,1.986-1.9806c-0.1212-0.2232-0.7272-1.3422-0.813-1.50001-0.192-0.0234-2.1354-0.26819-2.3076-0.28979-0.1356,0.12299-2.1522,1.95-2.1522,1.95l-2.9988-2.47021v2.67601z"/>
<path d="m156.097,290.646,1.9494-1.61461-1.9494-1.614,0-2.6766,2.9988,2.4714s2.0166-1.8276,2.1522-1.9506c0.1722,0.0216,2.1156,0.2664,2.3076,0.2898,0.0858,0.15781,0.6918,1.27681,0.813,1.5-0.20099,0.20101-1.986,1.98-1.986,1.98s1.78501,1.7796,1.986,1.98c-0.1212,0.2232-0.7272,1.3422-0.813,1.5-0.192,0.024-2.1354,0.26821-2.3076,0.2898-0.1356-0.12299-2.1522-1.94999-2.1522-1.94999l-2.9988,2.47079v-2.67599z"/>
</g>
<path fill="#ca3745" d="m167.32,253.761c-0.11581,0.097-10.6021,8.87607-11.0699,9.26907,0.94518,0.78343,1.85946,1.60292,2.8072,2.38348,0.23983-0.21695,2.0656-1.85424,2.0656-1.85424l2.70127,0.37076,1.05932,1.95975s-1.64758,1.64878-1.90678,1.90678c0.2592,0.2574,1.90678,1.90678,1.90678,1.90678l-1.05932,1.95974-2.70127,0.3178s-1.82568-1.58364-2.06568-1.80085l-2.9661,2.48941v0.84746c0.99787,0.82593,1.96469,1.66435,2.9661,2.4894,0.23999-0.21659,2.06568-1.80084,2.06568-1.80084l2.70127,0.31779,1.05932,1.95975s-1.64758,1.64878-1.90678,1.90678c0.2592,0.25741,1.90678,1.90678,1.90678,1.90678l-1.05932,2.01271-2.70127,0.3178s-1.82568-1.63661-2.06568-1.85382l-2.9661,2.48941v0.90042l2.9661,2.48941c0.23999-0.21659,2.06568-1.85381,2.06568-1.85381l2.70127,0.37076,1.05932,1.95975s-1.64758,1.64878-1.90678,1.90678c0.2592,0.258,1.90678,1.90678,1.90678,1.90678l-1.05932,1.95974-2.70127,0.37076s-1.82568-1.63661-2.06568-1.85381c-0.94385,0.77731-1.86544,1.55378-2.80721,2.33051,0.46785,0.39298,10.9541,9.17158,11.0699,9.26907h2.43644l3.54873-3.4428-2.27754-2.01271,0.42373-2.75424,2.38347-1.00635,2.43644,1.90678,2.38348-1.90678,2.38347,1.00635,0.4767,2.75424-2.33051,2.01271,3.44279,3.2839,3.4428-3.2839-2.33051-2.01271,0.42373-2.75424,2.43644-1.00635,2.38348,1.90678,2.43644-1.90678,2.38347,1.00635,0.42373,2.75424-2.27754,2.01271,3.38983,3.33687,3.4428-3.33687-2.27755-2.01271,0.42373-2.75424,2.43644-1.00635,2.38348,1.90678,2.38347-1.90678,2.43644,1.00635,0.42373,2.75424-2.27754,2.01271,3.54873,3.4428h2.38347c0.11577-0.0975,10.6015-8.87609,11.0699-9.26907-0.94351-0.77702-1.86222-1.55149-2.8072-2.33051-0.24,0.2172-2.01271,1.85381-2.01271,1.85381l-2.70128-0.37076-1.11228-1.95974s1.64818-1.64878,1.90678-1.90678c-0.2586-0.258-1.90678-1.90678-1.90678-1.90678l1.11228-1.95975,2.70128-0.37076s1.77271,1.63722,2.01271,1.85381l2.9661-2.48941v-0.90042l-2.9661-2.48941c-0.24,0.21721-2.01271,1.85382-2.01271,1.85382l-2.70128-0.3178-1.11228-2.01271s1.64818-1.64937,1.90678-1.90678c-0.2586-0.258-1.90678-1.90678-1.90678-1.90678l1.11228-1.95975,2.70128-0.31779s1.77271,1.58425,2.01271,1.80084c0.99454-0.81922,1.97379-1.62008,2.9661-2.43644v-0.95339l-2.9661-2.43644c-0.24,0.21721-2.01271,1.80085-2.01271,1.80085l-2.70128-0.3178-1.11228-1.95974s1.64818-1.64938,1.90678-1.90678c-0.2586-0.258-1.90678-1.90678-1.90678-1.90678l1.11228-1.95975,2.70128-0.37076s1.77271,1.63722,2.01271,1.85381c0.94925-0.78198,1.91118-1.54834,2.86017-2.33051-0.36468-0.30586-11.0065-9.22464-11.1229-9.32203h-2.38347l-3.54873,3.4428,2.27754,2.01271-0.42373,2.75424-2.43644,1.05932-2.38347-1.90678-2.38348,1.90678-2.43644-1.05932-0.42373-2.75424,2.27755-2.01271-3.38983-3.2839-3.4428,3.2839,2.27754,2.01271-0.42373,2.75424-2.38347,1.05932-2.43644-1.90678-2.38348,1.90678-2.43644-1.05932-0.42373-2.75424,2.33051-2.01271-3.4428-3.2839-3.44279,3.2839,2.33051,2.01271-0.4767,2.75424-2.38347,1.05932-2.38348-1.90678-2.43644,1.90678-2.38347-1.05932-0.42373-2.75424,2.27754-2.01271-3.6017-3.4428zm-11.2288,23.5698,0,2.17161,1.27119-1.11229z"/>
<g fill="#fff">
<path d="m176.271,301.271-1.85424,1.74745h3.65424l-1.8-1.74745z"/>
<path d="m188.983,301.271-1.8,1.74745h3.65423l-1.85423-1.74745z"/>
<path d="m201.747,301.271-1.85254,1.74745h3.70678l-1.85424-1.74745z"/>
<path d="m174.364,253.761,1.90678,1.8,1.85424-1.8h-3.76102z"/>
<path d="m187.129,253.761,1.85424,1.8,1.90678-1.8h-3.76102z"/>
<path d="m199.895,253.761,1.85254,1.8,1.85424-1.8h-3.70678z"/>
<path d="m221.875,266.737-1.27119,1.05932,1.27119,1.00678v-2.0661z"/>
<path d="m221.875,277.33-1.27119,1.05932,1.27119,1.05932v-2.11864z"/>
<path d="m221.875,287.976-1.27119,1.05932,1.27119,1.05932v-2.11864z"/>
<path d="m156.091,266.685v2.17119l1.27119-1.05932-1.27119-1.11187z"/>
<path d="m156.091,277.33v2.17118l1.27119-1.11186-1.27119-1.05932z"/>
<path d="m156.091,287.924v2.17118l1.27119-1.05932-1.27119-1.11186z"/>
</g>
<g>
<path d="m199.901,274.857,0-3.7914-3.837,0,0-4.1562-14.1318,0,0,4.1562-3.837,0,0,3.7914-5.2992,0,0,7.098,5.2992,0,0,3.7908,3.837,0,0,4.1568,14.1318,0,0-4.1568,3.837,0,0-3.7908,5.2986,0,0-7.098z"/>
<path fill="#faae29" d="m188.783,267.338,0,4.2846-6.0744,3.453,0,3.1164-9.4842,0,0-2.9064,5.2986,0,0-3.7908,3.837,0,0-4.1568z"/>
<path fill="#faae29" d="m189.212,289.475,0-4.2846,6.0738-3.4536,0-3.1158,9.4848,0,0,2.9058-5.2986,0,0,3.7914-3.837,0,0,4.1568z"/>
<path fill="#fff" d="m195.286,278.192,0-3.1164-6.0738-3.453,0-4.2846,6.423,0,0,4.1568,3.837,0,0,3.7908,5.2986,0,0,2.9064z"/>
<path fill="#fff" d="m173.225,278.621,9.4842,0,0,3.1158,6.0744,3.4536,0,4.2846-6.423,0,0-4.1568-3.837,0,0-3.7914-5.2986,0z"/>
<path fill="#ca3745" d="m183.138,278.621,0,2.8884,5.6454,3.21,0-6.0984z"/>
<path fill="#28ae66" d="m188.783,272.094-5.6454,3.2094,0,2.8884,5.6454,0z"/>
<path fill="#ca3745" d="m194.858,278.192,0-2.8884-5.6454-3.2094,0,6.0978z"/>
<path fill="#28ae66" d="m189.212,284.719,5.6454-3.21,0-2.8884-5.6454,0z"/>
</g>
</g>
<g id="carp4">
<path d="m137.647,353.73,0,11.7168-11.1654,0,0,10.6272-11.3166,0,0,30.2586,11.3166,0,0,10.6272,11.1654,0,0,11.7168,40.5978,0,7.1394,4.29-3.4308,2.061-14.4762,0-1.2486-1.4082,13.119,0-3.696-3.7218-18.7662,0,8.5026,8.8518,17.598,0,6.0114-3.612,6.0114,3.612,17.5992,0,8.50201-8.8518-18.7656,0-3.6966,3.7218,13.1196,0-1.2492,1.4082-14.4768,0-3.4308-2.061,7.14-4.29,40.5978,0,0-11.7168,11.1654,0,0-10.6272,11.316,0,0-30.2586-11.316,0,0-10.6272-11.1654,0,0-11.7168-40.5978,0-7.14-4.2894,3.4308-2.0616,14.4768,0,1.2492,1.4082-13.1196,0,3.6966,3.7218,18.7656,0-8.50201-8.8518-17.5992,0-6.0114,3.612-6.0114-3.612-17.598,0-8.5026,8.8518,18.7662,0,3.696-3.7218-13.119,0,1.2486-1.4082,14.4762,0,3.4308,2.0616-7.1394,4.2894z"/>
<path fill="#ca3745" d="m199.629,428.23,40.3071,0,0-11.7055,11.1229,0,0-10.6462,11.3347,0,0-29.3963-11.3347,0,0-10.5932-11.1229,0,0-11.7055-40.3071,0-16.7373-10.1165-17.32,0-7.68009,7.99788,17.5848,0,2.86017-2.86017-13.0826,0,2.01272-2.27754,14.8305,0,18.9619,11.4407,34.6398,0,0,11.7055,11.1758,0,0,10.6462,11.3348,0,0,20.9746-11.3348,0,0,10.6462-11.1758,0,0,11.7055-34.6398,0-18.9619,11.3877-14.8305,0-2.01272-2.22458,13.0826,0-2.86017-2.86017-17.5848,0,7.68009,7.99788,17.32,0zm-22.7224-4.18432-34.6398,0,0-11.7055-11.1229,0,0-10.6462-11.3348,0,0-20.9746,11.3348,0,0-10.6462,11.1229,0,0-11.7055,34.6398,0,19.0149-11.4407,14.7776,0,2.01271,2.27754-13.0297,0,2.86017,2.86017,17.5847,0-7.68008-7.99788-17.32,0-16.7373,10.1165-40.3071,0,0,11.7055-11.1758,0,0,10.5932-11.3348,0,0,29.3963,11.3348,0,0,10.6462,11.1758,0,0,11.7055,40.3071,0,16.7373,10.1165,17.32,0,7.68008-7.99788-17.5847,0-2.86017,2.86017,13.0297,0-2.01271,2.22458-14.7776,0z"/>
<path fill="#faae29" d="m188.983,351.59-11.9703,7.20339-34.322,0,0,11.7055-11.1229,0,0,10.6462-11.3348,0,0,20.1271,11.3348,0,0,10.6462,11.1229,0,0,11.7055,34.322,0,11.9703,7.15042,11.9703-7.15042,34.322,0,0-11.7055,11.1758,0,0-10.6462,11.3348,0,0-20.1271-11.3348,0,0-10.6462-11.1758,0,0-11.7055-34.322,0zm0,2.9661,11.2818,6.77966,32.5212,0,0,11.7055,11.1758,0,0,10.5932,11.2818,0,0,15.0953-11.2818,0,0,10.6462-11.1758,0,0,11.7055-32.5212,0-11.2818,6.77966-11.2288-6.77966-32.5212,0,0-11.7055-11.1758,0,0-10.6462-11.3347,0,0-15.0953,11.3347,0,0-10.5932,11.1758,0,0-11.7055,32.5212,0z"/>
<path fill="#28ae66" d="m232.342,408.954,0,11.7168-32.2002,0-11.1444,6.69599-11.1444-6.69599-32.1996,0,0-11.7168-11.166,0,0-10.6278-11.316,0,0-14.2458,11.316,0,0-10.6278,11.166,0,0-11.7162,32.1402,0,0.0594,0,11.1444-6.696,11.1444,6.696,32.2002,0,0,11.7162,11.1654,0,0,10.6278,11.316,0,0,14.2458-11.316,0,0,10.6278z"/>
<g>
<path d="m149.869,404.849,0,11.34,17.7,0-17.7-11.7396z"/>
<path d="m149.869,377.558,0-11.3406,17.7,0-17.7,11.7396z"/>
<path d="m228.127,404.849,0,11.34-17.7,0,17.7-11.7396z"/>
<path d="m228.127,377.558,0-11.3406-17.7,0,17.7,11.7396z"/>
<path fill="#ca3745" d="m150.298,405.248,15.8496,10.5126-15.8496,0z"/>
<path fill="#ca3745" d="m150.298,377.159c0.6162-0.4092,14.7696-9.79679,15.8496-10.5126h-15.8496v10.5126z"/>
<path fill="#ca3745" d="m227.698,405.248c-0.6168,0.4092-14.7702,9.7962-15.8496,10.5126h15.8496v-10.5126z"/>
<path fill="#ca3745" d="m227.698,377.159c-0.6168-0.4086-14.7702-9.79619-15.8496-10.5126h15.8496v10.5126z"/>
</g>
<g id="carp4y">
<path d="m172.445,388.094,0-5.7912-1.9752,0-9.4764-5.925-0.1134,0.0714-9.3624,5.8536-1.9752,0,0,5.7912-4.455,0,0,6.2196,4.455,0,0,5.7906,1.9752,0,9.4758,5.925,9.4764-5.925,1.9752,0,0-5.7906,6.7818,0,0-6.2196z"/>
<path fill="#ca3745" d="m160.994,376.884,8.6682,5.4192-17.3352,0,8.667-5.4192zm8.667,23.2206-8.667,5.4192-8.6664-5.4192,17.3334,0z"/>
<path fill="#ca3745" d="m167.562,388.523,0,5.3628-10.809,0,0-5.3628z"/>
<g fill="#faae29">
<path d="m172.017,394.313,0,5.3628-10.809,0,0-5.3628z"/>
<path d="m160.78,394.313,0,5.3628-10.809,0,0-5.3628z"/>
<path d="m178.799,388.523,0,5.3628-10.809,0,0-5.3628z"/>
<path d="m156.325,388.523,0,5.3628-10.809,0,0-5.3628z"/>
<path d="m172.017,382.732,0,5.3622-10.809,0,0-5.3622z"/>
<path d="m160.78,382.732,0,5.3622-10.809,0,0-5.3622z"/>
</g>
<g>
<path d="m153.349,389.714,0,2.9796-4.8552,0,0-2.9796z"/>
<path d="m157.804,383.923,0,2.9796-4.8552,0,0-2.9796z"/>
<path d="m169.04,383.923,0,2.9796-4.8552,0,0-2.9796z"/>
<path d="m164.585,389.714,0,2.9796-4.8552,0,0-2.9796z"/>
<path d="m175.822,389.714,0,2.9796-4.8552,0,0-2.9796z"/>
<path d="m169.04,395.505,0,2.9796-4.8552,0,0-2.9796z"/>
<path d="m157.804,395.505,0,2.9796-4.8552,0,0-2.9796z"/>
</g>
<g fill="#fff">
<path d="m152.891,390.171-3.9408,0,0,2.0652,3.9408,0z"/>
<path d="m157.346,384.38-3.9408,0,0,2.0652,3.9408,0z"/>
<path d="m168.583,384.38-3.9408,0,0,2.0652,3.9408,0z"/>
<path d="m164.128,390.171-3.9408,0,0,2.0652,3.9408,0z"/>
<path d="m175.365,390.171-3.9408,0,0,2.0652,3.9408,0z"/>
<path d="m168.583,395.962-3.9408,0,0,2.0652,3.9408,0z"/>
<path d="m157.346,395.962-3.9408,0,0,2.0652,3.9408,0z"/>
</g>
</g>
<use xlink:href="#carp4y" transform="matrix(-1,0,0,1,377.99506,0)"/>
<g id="carp4r">
<path d="m200.449,378.42,0,5.7906-1.9752,0-9.4764,5.925-0.1134-0.0708-9.3624-5.8542-1.9752,0,0-5.7906-5.6184,0,0-6.2196,5.6184,0,0-5.79059,1.9752,0,9.4758-5.9256,9.4764,5.9256,1.9752,0,0,5.79059,5.6184,0,0,6.2196z"/>
<path fill="#faae29" d="m188.998,389.63,8.6676-5.4198-17.3346,0,8.667,5.4198zm8.667-23.2206-8.667-5.4198-8.6664,5.4198,17.3334,0z"/>
<g fill="#ca3745">
<path d="m200.021,372.2,0-5.36219-10.809,0,0,5.36219z"/>
<path d="m188.784,372.2,0-5.36219-10.809,0,0,5.36219z"/>
<path d="m205.639,377.991,0-5.3628-10.809,0,0,5.3628z"/>
<path d="m194.402,377.991,0-5.3628-10.809,0,0,5.3628z"/>
<path d="m183.165,377.991,0-5.3628-10.8084,0,0,5.3628z"/>
<path d="m200.021,383.782,0-5.3628-10.809,0,0,5.3628z"/>
<path d="m188.784,383.782,0-5.3628-10.809,0,0,5.3628z"/>
</g>
<g>
<path d="m185.807,368.029,0,2.97959-4.8552,0,0-2.97959z"/>
<path d="m197.044,368.029,0,2.97959-4.8552,0,0-2.97959z"/>
<path d="m180.188,373.82,0,2.9796-4.8552,0,0-2.9796z"/>
<path d="m191.426,373.82,0,2.9796-4.8552,0,0-2.9796z"/>
<path d="m202.663,373.82,0,2.9796-4.8552,0,0-2.9796z"/>
<path d="m185.807,379.611,0,2.9796-4.8552,0,0-2.9796z"/>
<path d="m197.044,379.611,0,2.9796-4.8552,0,0-2.9796z"/>
</g>
<g fill="#fff">
<path d="m185.35,368.486-3.9408,0,0,2.06519,3.9408,0z"/>
<path d="m196.587,368.486-3.9408,0,0,2.06519,3.9408,0z"/>
<path d="m179.731,374.277-3.9408,0,0,2.0652,3.9408,0z"/>
<path d="m190.969,374.277-3.9408,0,0,2.0652,3.9408,0z"/>
<path d="m202.205,374.277-3.9408,0,0,2.0652,3.9408,0z"/>
<path d="m185.35,380.068-3.9408,0,0,2.0652,3.9408,0z"/>
<path d="m196.587,380.068-3.9408,0,0,2.0652,3.9408,0z"/>
</g>
</g>
<use xlink:href="#carp4r" y="31.788122"/>
</g>
<g id="carp5">
<path d="m127.676,479.354,42.0516-22.6314,0.054,0,38.4852,0,42.0516,22.6314,0,37.29-42.0516,22.6308-38.5392,0-42.0516-22.6308z"/>
<path fill="#28ae66" d="m169.863,457.151-41.7376,22.4576v36.7576l41.7376,22.4576h38.2932l41.739-22.4576v-36.7576l-41.739-22.4576h-38.2932zm0.74067,3.01865h36.8118l39.5136,21.239v33.2102l-39.5136,21.239h-36.834l-39.5122-21.239v-33.2102z"/>
<path fill="#faae29" d="m189.212,497.784,0,37.6402,18.0954,0,39.183-21.087,0-16.1244-57.7068-0.00002,0-37.6398-18.0948,0-39.1836,21.0864,0,16.1244z"/>
<path fill="#fff" d="m188.783,497.784,0,37.6402-18.0948,0-39.1836-21.087,0-16.1244,57.7068-0.00002,0-37.6398,18.0954,0,39.183,21.0864,0,16.1244z"/>
<path d="m192.514,533.317,0-10.8792-3.5172,2.2314-3.5178-2.2314,0,10.8792-10.9416,0,7.383-5.4144,0-7.7226-11.2596-7.1442-7.8678,0,0-30.0726,7.8678,0,11.2596-7.14419,0-7.7226-7.383-5.4144,0.6546,0,10.287,0,0,10.8798,3.5178-2.232,3.5172,2.232,0-10.8798,10.9422,0-7.3836,5.4144,0,7.7226,11.2596,7.14419,7.86781,0,0,30.0726-7.86781,0-11.2596,7.1442,0,7.7226,7.3836,5.4144z"/>
<path fill="#faae29" d="m192.956,463.135v11.2288l-3.76102-2.38305v3.17797l17.2136,10.9627h5.6678v11.6542h2.70169v-14.4067h-7.57457l-11.5458-7.31017v-8.15763l6.51356-4.7661h-9.21525zm-29.7144,35.0644v14.4068h7.52119l11.6,7.36102v8.15762l-6.51526,4.76611h9.21695v-11.2288l3.70678,2.38475v-3.28475l-17.2136-10.8576h-5.61491v-11.7051h-2.70119z"/>
<path fill="#fff" d="m175.847,463.135,6.51526,4.7661v8.15763l-11.6,7.31017h-7.52119v14.4068h2.70119v-11.6542h5.61491l17.2136-10.9102v-3.23051l-3.70678,2.38305v-11.2286h-9.21695zm36.2288,35.0644v11.7051h-5.6678l-17.2136,10.8576v3.28475l3.76102-2.38475v11.2288h9.21525l-6.51356-4.76611v-8.15762l11.5458-7.36102h7.57457v-14.4068h-2.70169z"/>
<path fill="#ca3745" d="m166.352,509.458,5.3376,0,17.3076,10.9806,17.307-10.9806,5.3382,0,0-22.9164-5.2758,0-0.0624,0-17.307-10.9806-17.3076,10.9806-5.3376,0z"/>
<path d="m200.977,503.445,3.6954,0,0-1.7484-2.7798,0,0-3.1782,5.9412,0,0,8.1054-5.6958,0,0.0006,5.5296-11.7246,0,0-7.9452,5.16,0,0,3.1782-1.9986,0,0,1.5888,5.4018,0,0-3.0378-21.9612-13.383-3.6954,0,0,1.7478,2.7804,0,0,3.1782-5.9418,0,0-8.1048,5.6958,0,0-5.5296,0.2142,0,11.5098,0,0,7.9452-5.16,0,0-3.1782,1.9986,0,0-1.5888-5.4012,0,0,3.0378zm-1.9998-13.383,0-3.0378-5.4018,0,0,1.5888,1.9986,0,0,3.1782-5.16,0,0-7.9452,11.7246,0,0,5.5296,5.6952,0,0,8.1048-5.9412,0,0-3.1782,2.7804,0,0-1.7478-3.696,0-21.9606,13.383,0,3.0372,5.4012,0,0-1.5888-1.9986,0,0-3.1782,5.16,0,0,7.9458-11.724,0,0-5.5302-5.6958,0,0-8.1048,5.9418,0,0,3.1782-2.7804,0,0,1.7484,3.6954,0z"/>
<path fill="#fff" d="m199.406,505.697,0,3.7068-6.2592,0,0-2.4456,1.9992,0,0-2.3214-4.3032,0,0,7.0878,10.8672,0,0-5.5296,5.6958,0,0-7.2474-5.0844,0,0,2.3208,2.7798,0,0,2.6052-4.2438,0-22.2696-13.5708,0-3.7068,6.2592,0,0,2.4456-1.9986,0,0,2.3214,4.3026,0,0-7.0884-10.8672,0,0,5.5296-5.6952,0,0,7.248,5.0838,0,0-2.3214-2.7798,0,0-2.6052,4.2438,0zm1.4514-13.5714,4.2444,0,0,2.6052-2.7804,0,0,2.3214,5.0844,0,0-7.248-5.6952,0,0-5.5296-10.8672,0,0,7.0884,4.3026,0,0-2.3214-1.9986,0,0-2.4456,6.2586,0,0,3.7068-22.2696,13.5708-4.2438,0,0-2.6052,2.7798,0,0-2.3214-5.0838,0,0,7.248,5.6952,0,0,5.5296,10.8672,0,0-7.0884-4.3026,0,0,2.3214,1.9986,0,0,2.4456-6.2592,0,0-3.7068z"/>
<g>
<path d="m238.042,499.884,0,11.7618-5.0052,0,0-4.1538-5.0454,0,0,4.1538-5.0052,0,0-11.7618,5.0052,0,0,4.1538,5.0454,0,0-4.1538z"/>
<path d="m220.132,515.499,0,11.7618-5.0052,0,0-4.1538-5.0454,0,0,4.1538-5.0052,0,0-11.7618,5.0052,0,0,4.1544,5.0454,0,0-4.1544z"/>
<path d="m238.042,496.113,0-11.7618-5.0052,0,0,4.15379-5.0454,0,0-4.15379-5.0052,0,0,11.7618,5.0052,0,0-4.1538,5.0454,0,0,4.1538z"/>
<path d="m139.953,499.884,0,11.7618,5.0052,0,0-4.1538,5.04541,0,0,4.1538,5.00519,0,0-11.7618-5.00519,0,0,4.1538-5.04541,0,0-4.1538z"/>
<path d="m139.953,496.113,0-11.7618,5.0052,0,0,4.15379,5.04541,0,0-4.15379,5.00519,0,0,11.7618-5.00519,0,0-4.1538-5.04541,0,0,4.1538z"/>
<path d="m220.132,480.499,0-11.7618-5.0052,0,0,4.1538-5.0454,0,0-4.1538-5.0052,0,0,11.7618,5.0052,0,0-4.1538,5.0454,0,0,4.1538z"/>
<path d="m157.864,515.499,0,11.7618,5.00521,0,0-4.1538,5.04539,0,0,4.1538,5.0052,0,0-11.7618-5.0052,0,0,4.1544-5.04539,0,0-4.1544z"/>
<path d="m157.864,480.499,0-11.7618,5.00521,0,0,4.1538,5.04539,0,0-4.1538,5.0052,0,0,11.7618-5.0052,0,0-4.1538-5.04539,0,0,4.1538z"/>
<path d="m223.118,472.256,0,8.93219,16.5972,0z"/>
<path d="m154.877,523.742,0-8.9322-16.5972,0z"/>
<path d="m154.877,472.256,0,8.93219-16.5972,0z"/>
<path d="m223.118,523.742,0-8.9322,16.5972,0z"/>
</g>
<g fill="#ca3745">
<path d="m233.465,507.064,0,4.1538,4.1484,0,0-10.9044-4.1484,0,0,4.1538-5.9028,0,0-4.1538-4.1478,0,0,10.9044,4.1478,0,0-4.1538z"/>
<path d="m215.555,522.678,0,4.1538,4.1478,0,0-10.9044-4.1478,0,0,4.1538-5.90281,0,0-4.1538-4.1478,0,0,10.9044,4.1478,0,0-4.1538z"/>
<path d="m233.465,488.934,0-4.1538,4.1484,0,0,10.9044-4.1484,0,0-4.1544-5.9028,0,0,4.1544-4.1478,0,0-10.9044,4.1478,0,0,4.1538z"/>
<path d="m144.53,507.064,0,4.1538-4.1478,0,0-10.9044,4.1478,0,0,4.1538,5.9028,0,0-4.1538,4.1478,0,0,10.9044-4.1478,0,0-4.1538z"/>
<path d="m144.53,488.934,0-4.1538-4.1478,0,0,10.9044,4.1478,0,0-4.1544,5.9028,0,0,4.1544,4.1478,0,0-10.9044-4.1478,0,0,4.1538z"/>
<path d="m215.555,473.32,0-4.1544,4.1478,0,0,10.905-4.1478,0,0-4.15439-5.90281,0,0,4.15439-4.1478,0,0-10.905,4.1478,0,0,4.1544z"/>
<path d="m162.44,522.678,0,4.1538-4.1478,0,0-10.9044,4.1478,0,0,4.1538,5.9028,0,0-4.1538,4.1484,0,0,10.9044-4.1484,0,0-4.1538z"/>
<path d="m162.44,473.32,0-4.1544-4.1478,0,0,10.905,4.1478,0,0-4.15439,5.9028,0,0,4.15439,4.1484,0,0-10.905-4.1484,0,0,4.1544z"/>
</g>
<path fill="#faae29" d="m223.57,472.986v7.78644h14.461l-14.461-7.78644zm-83.58,42.2678,14.4597,7.78644v-7.78644h-14.4605z"/>
<path fill="#fff" d="m154.449,472.986-14.4597,7.78644h14.4597v-7.78644zm69.1203,42.2678v7.78644l14.461-7.78644h-14.461z"/>
</g>
</g>
</svg>