<?xml version="1.0" encoding="UTF-8"?>
<svg xmlns="http://www.w3.org/2000/svg" xmlns:xlink="http://www.w3.org/1999/xlink" width="1200" height="600">
<defs>
<clipPath id="c">
<path d="M0,0V150H700V300H600zM0,300V400H300V0H600z"/>
</clipPath>
<path id="star" fill="#ffce00" d="M0,-50.0808 29.4368,40.5162 -47.6297,-15.4758H47.6297L-29.4368,40.5172z"/>
<use id="rats" xlink:href="#star" transform="rotate(36)"/>
</defs>
<rect width="1200" height="600" fill="#00247d"/>
<path d="M0,0 600,300M0,300 600,0" stroke="#fff" stroke-width="60"/>
<path d="M0,0 600,300M0,300 600,0" stroke="#cf142b" stroke-width="40" clip-path="url(#c)"/>
<path d="M300,0V400M0,150H700" stroke="#fff" stroke-width="100"/>
<path d="M300,0V400M0,150H700" stroke="#cf142b" stroke-width="60"/>
<path d="M0,300H600V0H1200V600H0z" fill="#5b97b1"/>
<use xlink:href="#star" x="645.3396" y="540.9936"/>
<use xlink:href="#rats" x="788.0256" y="504.516"/>
<use xlink:href="#rats" x="788.0256" y="382.5324"/>
<use xlink:href="#rats" x="914.0304" y="473.6844"/>
<use xlink:href="#rats" x="914.0304" y="208.2708"/>
<use xlink:href="#star" x="996.4416" y="390.0456"/>
<use xlink:href="#rats" x="1019.928" y="172.0776"/>
<use xlink:href="#star" x="1102.836" y="321.5544"/>
<use xlink:href="#star" x="1102.836" y="87.486"/>
</svg>