<?xml version="1.0" encoding="UTF-8"?>

<svg xmlns="http://www.w3.org/2000/svg" viewBox="0 0 1200 600" xmlns:xlink="http://www.w3.org/1999/xlink" width="1200" height="600">

<defs>

<linearGradient id="grad" gradientUnits="userSpaceOnUse" x1="103.083" y1="111.276" x2="92.5511" y2="107.764" gradientTransform="matrix(0.99614143,0,0,2.2525522,703.84172,-75.047171)">

<stop stop-color="#f00" offset="0"/>

<stop stop-color="#ff0" offset="1"/>

</linearGradient>

<clipPath id="c">
<path d="M0,0V150H700V300H600zM600,0H300V350H0V300z"/>
</clipPath>
</defs>

<rect width="1200" height="600" fill="#00247d"/>
<path d="M0,0 600,300M600,0 0,300" stroke="#fff" stroke-width="60"/>
<path d="M0,0 600,300M600,0 0,300" stroke="#cf142b" stroke-width="40" clip-path="url(#c)"/>
<path d="M300,0V350M0,150H700" stroke="#fff" stroke-width="100"/>
<path d="M300,0V350M0,150H700" stroke="#cf142b" stroke-width="60"/>
<path d="M0,300H600V0H1200V600H0z" fill="#00247d"/>
<g>

<path fill="#fff" d="m776.26,144.068,250.401-0.92914-0.4646,222.992s8.8267,33.9134-104.992,85.4802c40.8818-4.18106,85.4802-47.8503,85.4802-47.8503s18.1181-23.2281,26.9449-10.2204c8.8267,13.0077,17.1889,19.5117,23.6928,24.622,6.504,5.11021,11.614,19.0472,1.8582,29.2676s-25.0866,11.6142-29.2676-0.92915c-6.504,3.25205-46.4568,51.5669-128.22,53.8897-83.1573-1.39373-128.685-54.3542-128.685-54.3542s-11.1496,17.6537-26.9448,3.71663c-15.3307-18.1182-3.71653-29.7324-3.71653-29.7324s13.0078-7.43296,16.7244-12.5433c6.03938-6.96852,7.89764-16.2598,18.1181-16.2598,12.0787,0.92916,16.7244,10.685,16.7244,10.685s41.811,44.134,86.8739,49.7086c-101.736-48.783-105.453-78.98-104.988-86.413l0.46458-221.133z"/>

<path fill="#006129" stroke="#000" stroke-width="1.8873" d="m782.299,150.107,238.787-1.39371,0,214.63c0.4645,27.874-46.4566,56.2125-119.858,92.4486-75.7244-39.0236-119.394-62.7163-119.858-92.9131l0.92912-212.771z"/>

<g id="lamp" fill="#f7c600" stroke="#000" stroke-width="0.9437">

<path fill="none" stroke="#f7c600" stroke-width="1.8873" d="m814.794,181.829,14.095-20.7013,14.1636,20.7446"/>

<path d="m831.719,174.09c0.00053,1.54631-1.25288,2.80012-2.79923,2.80012s-2.79977-1.25381-2.79924-2.80012c-0.00053-1.54631,1.25289-2.80013,2.79924-2.80013s2.79976,1.25382,2.79923,2.80013z"/>

<path d="m817.444,197.119,21.8516,0.0622s0.34262-2.83593-2.28248-4.55956c11.4454-1.57386,8.47204-11.6694,18.0575-12.2416,1.85988,0.28611-5.00735,4.29202-5.00735,4.29202s-5.77927,4.07838-3.14748,6.15185c2.08942,1.64618,3.00441-1.00133,3.29056-3.00428,0.28613-2.00296,9.29933-3.29055,8.01175-9.01315-2.14601-4.72127-14.7359,3.14727-14.7359,3.14727l-8.98216-0.0498c-0.56005-1.00812-3.03547-5.05072-5.59189-5.06944-3.03289,0.11067-5.16923,5.11927-5.16923,5.11927h-13.0191-7.29642s-0.69652,5.21257,9.60433,6.21405c2.31918,3.02889,4.11696,3.87515,6.13307,4.65921-1.34408,1.12015-1.72246,2.47524-1.71681,4.29203z"/>

<path d="m819.017,192.684,18.2006-0.062"/>

<path d="m810.681,181.953s1.45607,8.51263,8.17643,10.5287"/>

<path fill="url(#grad)" d="m809.561,181.841c0.67203-3.24812,1.90411-3.80827,3.24818-7.95248,0.22402-4.03218-3.24818-3.58421-2.24012-6.1603,1.79209-2.80015,0.89605-5.48827-2.46413-7.61639,0.67204,3.69624-4.36823,7.16842-4.36823,10.1925,0,3.02421,2.57614,2.35218,2.24012,6.94451,0.22402,2.68797-0.67203,2.01609-0.89604,4.59218h4.48022z"/>

<path d="m831.495,161.657c0.00049,1.42254-1.15262,2.576-2.57522,2.576-1.42259,0-2.5757-1.15346-2.57521-2.576-0.00049-1.42254,1.15262-2.576,2.57521-2.576,1.4226,0,2.57571,1.15346,2.57522,2.576z"/>

</g>

<use xlink:href="#lamp" x="-0.77220062" y="41.304015"/>

<use xlink:href="#lamp" x="-1.0892006" y="82.013015"/>

<use xlink:href="#lamp" x="25.626799" y="126.09901"/>

<use xlink:href="#lamp" x="-4.5742006" y="162.16301"/>

<use xlink:href="#lamp" x="-3.7822006" y="204.77301"/>

<use xlink:href="#lamp" x="146.2798" y="0.67201485"/>

<use xlink:href="#lamp" x="144.9358" y="41.218015"/>

<use xlink:href="#lamp" x="143.1438" y="82.661015"/>

<use xlink:href="#lamp" x="145.1598" y="123.43101"/>

<use xlink:href="#lamp" x="144.7118" y="164.20101"/>

<use xlink:href="#lamp" x="144.9358" y="205.19501"/>

<g fill="#ffc6b5" stroke="#000" stroke-width="0.9437">

<path fill="#f7c600" d="m915.843,406.315s5.70236,13.1472,12.1968,5.06884c6.49443-8.07841,4.11854-11.5633,4.11854-11.5633l-14.573-7.92002-4.27677,9.02885,2.53442,5.3856z"/>

<path d="m928.357,404.572s0.95029,0.15854,1.74235-1.26706c0.79206-1.42559-1.74235-2.05942-2.85118-3.64339l-1.26721,2.53457,2.37604,2.37588z"/>

<path d="m895.409,401.087-12.8305,6.96957s-6.33605,1.26706-6.8112,0c-0.47529-1.2672,0.15839-2.37603,3.48472-2.53441,3.32648-0.15839,12.3553-8.39532,12.3553-8.39532l3.80163,3.96016z"/>

<path d="m895.568,173.149s0.31677,3.00961,0.47515,4.59362c0.15838,1.584-2.53442,4.91039-2.6928,4.752s-1.42559,0.15839-1.26721,1.10884c0.15838,0.95044,2.05927,1.26722,2.05927,1.26722s-0.79206,3.32639,0,3.48477c0.79191,0.1584-2.05927,4.27696,0,5.38568,2.05912,1.10872,5.54398,2.53433,7.12796,2.21755,1.58397-0.31678,0,6.17762,0,6.17762l-4.43516,9.504,24.3936-2.53432-5.06884-8.07851s-2.37588-1.584-1.74235-6.17762c0.63368-4.59361-0.31677-25.344-0.31677-25.344l-17.424-2.37606-1.10883,6.01923z"/>

<path d="m891.132,209.264s-7.92002,3.64329-7.60326,13.4641c-2.05912,9.50401-3.16795,19.008-3.16795,19.008s-9.34561,10.6127-12.1968,14.4144c-2.85118,3.80165-7.12811,11.5632-8.71208,13.6224-1.58398,2.05929-7.76158,8.87057-7.6032,11.4049,0.1584,2.53427-1.4256,13.7809,4.752,15.048,1.58399,0.63353,6.65283-12.9889,6.65283-12.9889s0.31676-5.86068-1.4256-6.96953c-1.74235-1.10882,3.80163-4.9105,3.80163-4.9105s10.6128-7.76162,12.9889-9.66239c2.37603-1.90078,8.87046-9.18722,8.87046-9.18722l3.6431-43.2433z"/>

<path fill="#fff" d="m900.161,201.82s2.05927,5.54406,6.65281,4.59362c4.59369-0.95045,9.97929-5.22716,9.97929-5.22716s4.27678-0.1584,4.91046,0.47516c0.63353,0.63356,11.5631,11.2463,11.2464,14.5728-0.31677,3.32651-5.06884,2.37595-6.8112,4.59362-1.74235,2.21767-4.59369,7.76162-3.80162,11.8801,0.79206,4.11845,3.16794,9.50413,2.85118,11.5633-0.31677,2.05917-2.05912,2.69273-2.05912,3.80155,0,1.10885,1.42559,3.00974,1.42559,5.0689,0,2.05917-1.90089,5.06867-1.58397,7.12794,0.31676,2.05929,0.47514,8.0784,0.47514,8.0784l-0.47514,27.8785s1.58397,0.95029,1.74235,2.53442c0.15838,1.58397,10.7712,47.6785,10.7712,47.6785s-0.47514,1.42559-1.58397,1.26721c-1.10883-0.15839,4.27677,7.12795,4.43516,9.18722,0.15838,2.05928,5.54413,18.2162,5.3856,20.4337-0.15838,2.2175-0.9503,7.12796-1.42559,7.28634-0.47515,0.15838,3.48486,10.1377,2.85118,11.7216-0.63353,1.58397-7.12796,1.42559-7.12796,1.42559l-1.74235-0.31676s0.15838,2.05927-1.10883,2.21765-10.6128-0.4753-10.6128-0.4753-2.6928,4.11839-4.27677,3.96001c-1.58413-0.15838-3.64325-3.00956-4.11855-2.53427-0.47514,0.47515,1.42574,3.1678,0.95045,3.95986-0.47515,0.79206-8.55355,2.53457-10.1377-1.26706-1.58397-3.80162,0.95045-2.85133,0.4753-3.64324-0.4753-0.79206-4.11839-2.85118-5.22722-2.21765-1.10882,0.63352,2.85119,1.58397,2.6928,3.16809-0.15838,1.58398-3.48486,3.95986-4.75207,3.95986s-4.27677-5.86075-8.71193-5.22707c-4.43531,0.63353-7.28649,1.74236-7.28649,1.74236s-5.22722,2.2175-7.44487,1.74236c-2.2175-0.47515-3.16795-2.21766-3.16795-3.16795,0-0.95045,1.58397-5.06884,1.42559-6.33605s-1.42559-2.53442-1.42559-4.4353c0-1.90074,3.64325-8.39517,3.64325-8.39517l-0.15839-29.1457s-3.32648-0.00015-3.48486-2.05927,5.06884-46.0945,5.86075-48.9457c0.79206-2.85118,2.85133-12.9888,2.85133-12.9888s-2.37603,1.10882-2.53442,0c-0.15838-1.10883,7.12796-26.2944,7.12796-26.2944s1.26721-12.5137,1.26721-15.8401c0-3.32639-0.63353-7.92001-0.63353-7.92001s-6.50318-2.75297-6.65296-6.96956c-0.59473-6.70875,6.17766-10.4546,6.96973-12.6721,0.79191-2.21755,3.16794-8.87033,3.16794-8.87033s3.48487-6.01923,9.18723-6.96968z"/>

<path fill="#f7c600" d="m897.785,402.988s-15.3648,8.07855-17.5824,8.71208c-2.21765,0.63353-3.64324-2.6928-1.42559-3.32648,2.21765-0.63353,5.70236-0.95045,5.70236-0.95045s-5.22721-4.11839-5.06883-4.27677c0.15853-0.15838,7.12811-2.69265,7.28649-2.69265s2.21765,4.11824,3.64324,3.80148c1.4256-0.31677,5.54399-3.48471,5.54399-3.48471s2.21765,2.53441,1.90074,2.2175z"/>

<path d="m919.432,407.423c1.45277,1.87357,2.02077,5.1232,5.34725,3.22246,3.32633-1.90074-1.70401-5.42879-1.70401-5.42879l-3.64324,2.20633z"/>

<path d="m925.505,407.106s1.58398,1.26721,3.00957-0.15838-2.85133-4.43516-2.85133-4.43516l-2.05913,2.37604,1.90089,2.2175z"/>

<path d="m932.317,216.96c0.15838,0,5.22722,15.6817,5.86074,19.6417,0.63368,3.95995,2.6928,19.8,1.90089,22.0176-0.79206,2.21767-8.87046,12.8304-9.82091,15.5232-0.95044,2.69283-6.65281,12.989-6.65281,12.989s-1.42559,10.1377-2.05927,10.6128c-0.63353,0.47529,1.63531,2.96351,1.42575,3.80162-0.31435,0.9429-4.59369,5.3856-6.49443,4.91046-1.90089-0.4753-4.91046-2.69295-5.06884-4.75207s0.15838-8.87047,1.58397-10.6128c1.4256-1.74236,8.87047-19.3249,9.34562-20.4337,0.47514-1.10884,6.81119-14.8896,6.96957-17.2656,0.15853-2.37605-1.97095-7.87036-4.2111-9.88644-4.98549-14.6729-3.02662-23.5215,7.22082-26.5457z"/>

<path fill="#9c5100" d="m895.092,172.199s3.48487,0.47506,5.38561-0.63366c1.90089-1.10873,4.11854-1.58389,5.70251,0.63366,1.58398,2.21756,2.6928,2.05917,2.6928,2.05917s-2.37603,5.86073,0,6.49439c2.37604,0.63367,3.48471,0.63356,3.64325,1.42561,0.15838,0.79206-2.05927,2.53434-1.42574,3.32639,0.63368,0.79206,1.7425,1.74251,1.90088,2.37607,0.15839,0.63356-1.42559,3.32627-0.95044,3.95995,0.4753,0.63366,1.90089,3.16811,2.85118,3.16811,0.95045,0,0.31692,3.96005,3.1681,3.00961s2.6928-3.48489,2.6928-3.48489,3.00957-0.47516,3.80163-3.16801c0.79191-2.69283,2.6928-3.32639,2.6928-3.32639s3.80163-2.05917-1.26721-5.22716c0-22.1761-14.5728-19.8001-14.5728-19.8001s-1.74251-3.96017-4.59369-3.48489-3.00956,3.80179-5.06884,3.48489c-2.05912-0.31688-2.53426-1.74238-2.6928-1.58399-0.15838,0.15839-1.90073,3.32627-1.90073,4.11834,0,0.79204-5.54399-1.10885-5.06884,3.00961,0.47515,4.11845,3.16795,3.96005,3.00956,3.64327z"/>

<g fill="none">
<path d="m920.753,207.997s-14.0977,9.02885-13.7809,12.1968"/>

<path d="m923.921,209.581s-3.16795,3.48477-3.32633,3.48477"/>

<path d="m928.198,213.383s-6.96972,5.70244-5.86089,9.34561"/>

<path d="m895.251,207.205s-2.05912,4.27673-1.58398,5.70234c0.4753,1.42561,3.96001,6.81128,4.43531,10.1377,0.47515,3.32639,0,5.70246,0,5.70246"/>

<path d="m891.608,215.125s0.63353,5.06889,1.58398,6.01922c0.95044,0.95034,3.48486,5.22717,3.80162,6.96956"/>

<path d="m890.341,236.192s4.1184,2.05939,7.92002-5.86073"/>

<path d="m904.438,224.788c-0.15839,0-3.00957,7.76162,2.05927,10.6128,5.06883,2.85121,8.87046,2.53433,11.088,1.74238,2.21766-0.79194,4.59369-2.21756,4.59369-2.21756"/>

<path d="m902.221,234.292s0.31677,10.4546,15.6817,20.7505"/>

<path d="m902.854,244.112s-0.15838,9.18712,5.8609,13.3056"/>

<path d="m899.686,233.341s-4.59369,13.6223-8.23678,15.048"/>

<path d="m898.261,243.32s-0.15838,9.8209-1.42559,13.3057"/>

<path d="m895.568,259.002s3.16795,3.96007,6.65281,3.64329c3.48471-0.31678,4.91031-4.43533,7.28634-3.80167,2.37604,0.63367,4.59369,2.53456,10.1377,2.05929"/>

<path d="m911.725,265.021s0,8.07839,1.42559,8.87045,0.79206,8.2368,0.79206,8.2368"/>

<path d="m892.4,261.22s-0.15838,7.60335-1.10882,10.2961c-0.9503,2.69273-2.85119,7.28645-2.53427,11.2464"/>

<path d="m882.737,287.197c0.79191-0.31676,3.48486-2.69265,3.48486-2.69265"/>

<path d="m887.648,286.247s-6.81134,29.1458-4.91045,46.5698"/>

<path d="m889.232,287.673s-3.48487,21.8593-1.90089,25.9777"/>

<path d="m887.489,287.039c0.15838,0,13.3056,0.95029,13.3056,0.95029"/>

<path d="m902.696,286.247s3.64324,1.90089,8.71208,1.58397"/>

<path d="m901.112,296.86s-0.63368,37.3826-1.58398,45.6194"/>

<path d="m920.595,305.413s4.11839,32.7889,6.49443,35.7985"/>

<path d="m912.675,309.532s2.53442,28.9873,3.96001,31.5217"/>

<path d="m876.718,351.191s4.9103-1.58413,9.34546-6.33605c5.06899,6.81119,12.8305,0.31692,12.8305,0.31692s12.0384,8.23678,17.4242-0.95045c8.23678,5.3856,12.3552-0.79206,12.3552-0.79206s3.00972,4.59354,5.22722,4.11839"/>

<path d="m920.753,350.716s6.17767,28.9874,15.3649,37.2242"/>

<path d="m888.915,347.706s0.79191,24.2354,2.21751,41.3424"/>

<path d="m887.806,375.11s-0.79207,15.84-1.74251,16.9489"/>

<path d="m878.46,393.642s1.74236,6.81134,10.4544,0.4753c8.71193-6.3362,8.87032,2.37603,9.18723,3.32633,0.31677,0.95029,1.74236,7.76163,5.06869,2.05927"/>

<path d="m910.141,390.158s-1.42559,14.0974,11.088,3.80147c12.5137-10.2959,14.5728-0.15823,14.8896,3.00972"/>

<path d="m910.299,166.813s-1.10882,6.96954,6.33605,6.336c-0.95044,3.80167,1.90074,5.0689,1.90074,5.0689"/>

<path d="m924.08,182.495c0.15853,0,3.32648,2.05916-0.15838,4.59361"/>

<path d="m913.309,188.039s1.58382,1.90089,3.32633,1.42573c1.74236-0.47518,4.59354,1.74239,4.59354,1.74239s2.37603,0.79194,2.6928,0.31678"/>

<path d="m903.646,194.058s5.38561,2.05927,8.87047-6.4944"/>

<path d="m893.667,185.029,3.1681,0.1584"/>

<path d="m858.523,284.924,0.24792,6.94179"/>

<path d="m852.013,284.409s4.45059,7.44321,4.0787,11.4099"/>

<path stroke-linejoin="round" d="m894.142,188.197,2.85118,0-2.53441,1.10883"/>

<path stroke-linejoin="round" d="m911.665,299.962s3.32769-0.34968,3.2229,5.20608c2.12495-6.90163,6.44581-7.0656,6.44581-7.0656"/>

<path stroke-width="1.6986" stroke-linejoin="round" d="m898.102,179.327c0.47515,0,2.2175-0.63368,2.53442-0.15839,0.31676,0.47528-1.90089,0.79206-2.53442,0.15839z"/>

</g>
</g>

<g fill="none" stroke="#000" stroke-width="1.8873">

<path fill="#f7c600" d="m900.299,458.579c66.8976-1.85832,110.102-50.1732,109.638-50.6378-0.4645-0.46458,8.8268-13.4724,16.2599-11.6142,7.4331,1.85832,18.1181,23.6929,31.1259,28.3385,6.5038,10.2204-1.8583,19.5118-4.6457,21.3701-2.7874,1.85831-15.3307,6.96852-17.189-0.46458-1.8581-7.43309-5.5747-6.03935-5.5747-6.03935s-59.4645,58.0707-128.22,55.748c-71.0786,0.46458-129.614-55.748-129.614-55.748l-5.11024,5.57477s-5.57479,6.03937-8.36219,5.57479c-2.78738-0.46458-14.8661-8.3621-15.7952-16.2598-0.92914-7.89767,7.43306-13.0079,7.43306-13.0079s20.4409-15.7954,22.7637-24.1575c4.64566-4.64561,13.4724,3.25189,13.4724,3.25189s53.8897,61.7873,113.819,58.0709z"/>

<path d="m748.855,422.646s5.52789-1.4742,7.55478,0.82921c2.0269,2.30327,15.9387,15.9388,15.9387,15.9388"/>

<path d="m761.477,429.095-5.52789,4.14587s13.9119,2.76361,10.7794,11.8849"/>

<path d="m1052.34,422.185s-2.7641-1.47421-7.0941,1.7505c-4.3303,3.22456-15.294,15.4781-15.294,15.4781"/>

<path d="m1039.9,428.727,5.9885,4.60653s-12.5298,0.8292-9.7659,12.7142"/>

</g>

<g fill="#000">

<path d="m819.664,437.396c-0.36233,1.05196-1.32124-0.0286-2.1167,0.18281-2.09463,0.0787-3.83438,1.44493-5.62783,2.37754-6.13592,3.57703-12.2718,7.15406-18.4078,10.7311-0.61916-0.20373-0.47224-0.70419-0.32125-1.20622,1.63543-7.66322,3.3341-15.3134,4.92489-22.9858,0.26406-1.34229,0.68917-3.00961-0.60666-3.98662-0.55081-0.37618,0.30172-1.13938,0.65524-0.44562,3.13656,2.23685,6.27311,4.47369,9.40967,6.71054-0.30176,0.88447-0.8363,0.2643-1.3719-0.0946-1.30246-1.25352-2.87297-0.0955-2.83433,1.48783-1.11932,5.05195-2.21088,10.1101-3.31857,15.1646,4.16553-2.47603,8.37867-4.87373,12.5066-7.41174,1.47316-0.65547,2.56043-2.63086,1.02815-3.85506-0.58172-0.34251-1.5433-1.27927-0.58447-1.42187,2.22165,1.58438,4.44331,3.16877,6.66496,4.75315z"/>

<path d="m826.275,469.382c-0.16777,0.5721-0.46619,0.69814-0.92215,0.2864-3.69141-2.01877-7.38282-4.03754-11.0742-6.05631,0.16777-0.5721,0.4662-0.69816,0.92216-0.28641,0.99931,0.68068,2.63447,0.93833,3.36348-0.25422,1.46548-2.35102,2.70085-4.83909,4.05889-7.25394,1.8462-3.41959,3.76974-6.79894,5.55943-10.2479,0.85611-1.22152-0.0994-2.72784-1.29719-3.25104-0.40497-0.21691-1.00172-0.37764-0.48962-0.86318,0.2462-0.30433,0.77152,0.34421,1.12983,0.42258,3.53863,1.93522,7.07727,3.87043,10.6159,5.80565-0.16777,0.5721-0.46619,0.69816-0.92215,0.28642-1.001-0.67935-2.64214-0.9398-3.37996,0.24523-1.46544,2.35104-2.70083,4.83909-4.05887,7.25394-1.84621,3.41958-3.76975,6.79893-5.55945,10.2479-0.85548,1.23068,0.0966,2.74667,1.31365,3.26002,0.24676,0.13495,0.49352,0.26991,0.74028,0.40486z"/>

<path d="m868.884,459.388c-1.00242,2.8143-2.00484,5.62861-3.00726,8.44291-1.2319-0.13004-0.41252-1.7076-0.79582-2.53896-0.43991-3.80009-3.2427-7.34798-7.06085-8.16085-2.91908-0.79536-6.00002,0.70778-7.71381,3.08201-2.59075,3.5364-4.16561,7.85282-4.38703,12.2348-0.14778,2.49015,0.99504,5.04624,3.16882,6.35708,1.72432,1.13596,3.81745,1.593,5.86414,1.53554,0.72218-2.12904,1.58542-4.21491,2.1873-6.38101,0.24699-1.40888-1.20996-2.26005-2.37507-2.58291-0.18191-0.40867,0.26984-0.91183,0.74426-0.47135,3.67913,1.31047,7.35827,2.62093,11.0374,3.9314-0.13183,1.3581-1.66681-0.10859-2.51672,0.4334-1.35963,0.5218-1.47634,2.15677-1.99174,3.33918-0.44831,1.25866-0.89663,2.51732-1.34495,3.77598-4.94585,0.34999-10.0434-0.69666-14.3476-3.186-4.18483-2.6372-7.01502-7.72851-6.19175-12.7222,0.63731-4.27402,3.30111-8.27732,7.24184-10.1654,3.61966-1.92325,8.03709-1.91584,11.7955-0.3912,2.05559,0.69257,3.82986,1.96318,5.42017,3.40994,0.96375,1.30024,2.82894,1.30279,3.61967-0.17512,0.21785,0.0776,0.43569,0.15518,0.65354,0.23277"/>

<path d="m886.836,488.201c-0.0223,0.44877-0.0724,0.85974-0.60997,0.60926-4.21257-0.63812-8.42515-1.27625-12.6377-1.91437,0.0223-0.44877,0.0724-0.85976,0.60998-0.60927,1.09552,0.22381,2.56416,0.20525,3.09269-0.97692,0.53524-1.68791,0.64169-3.47598,0.94965-5.21478,0.72349-4.8563,1.49549-9.70591,2.18624-14.5667,0.26829-1.04778-0.0904-2.23279-1.17512-2.63961-0.6141-0.29133-1.2988-0.33485-1.95936-0.44497,0.0223-0.44877,0.0724-0.85976,0.60997-0.60928,4.21257,0.63813,8.42515,1.27626,12.6377,1.91439-0.0223,0.44877-0.0724,0.85974-0.60998,0.60927-1.1016-0.2267-2.56339-0.19692-3.11123,0.97411-0.53526,1.68791-0.64169,3.47598-0.94966,5.21477-0.72349,4.85631-1.49546,9.70593-2.18623,14.5668-0.26553,1.04485,0.0941,2.25417,1.18531,2.64856,0.61993,0.28179,1.3048,0.32904,1.96771,0.43882z"/>

<path d="m920.954,479.914c-0.16674,2.98737-0.33347,5.97475-0.50021,8.96212-7.51522,0.38345-15.0304,0.7669-22.5457,1.15035-0.13786-0.54875,0.009-0.84067,0.60604-0.72557,1.13326,0.0288,2.59279-0.4515,2.73734-1.75192,0.10037-2.22701-0.15016-4.45454-0.22473-6.68127-0.2431-4.44122-0.41871-8.88702-0.70892-13.325,0.12388-1.32148-1.06672-2.30103-2.32047-2.26067-0.39826-0.20163-1.47506,0.4153-1.36759-0.31092-0.18148-0.58815,0.63507-0.2751,0.98049-0.38746,4.18034-0.2133,8.36067-0.42659,12.541-0.63988,0.13785,0.54874-0.009,0.84069-0.60604,0.7256-1.15864-0.006-2.66506,0.27574-2.98562,1.58332-0.18294,1.92668,0.086,3.86449,0.13757,5.79531,0.25424,4.62527,0.43398,9.2557,0.73973,13.8774-0.0938,1.20984,0.87722,2.28029,2.13026,2.04705,1.83023-0.0915,3.69956-0.0136,5.48649-0.47334,2.50745-0.66714,3.8741-3.15018,4.56089-5.46973,0.44973-0.62711,0.0775-2.19165,1.07054-2.10165,0.0896-0.005,0.17929-0.009,0.26893-0.0137"/>

<path d="m938.531,458.219c-0.59756,0.0106-0.3343,0.77285-0.48591,1.17286-0.99799,7.4764-1.94375,14.9603-2.97613,22.4318-0.251,1.6554-0.66406,3.58785-2.29741,4.42578-0.60243,0.21391-0.072,1.16167,0.48021,0.63456,2.50975-0.75292,5.01949-1.50585,7.52924-2.25877-0.0947-1.26854-1.54038-0.11599-2.3501-0.33901-1.7273-0.002-1.98401-2.09956-1.7436-3.41099,0.10417-0.88542,0.20833-1.77083,0.3125-2.65625,2.875-0.86458,5.75-1.72917,8.625-2.59375,1.10069,1.38573,2.31391,2.69066,3.30954,4.15271,0.74791,1.41036-1.0692,2.05489-2.12457,2.3273-0.49289,0.0522-0.0627,1.08444,0.38688,0.6048,3.77813-1.13243,7.55627-2.26487,11.3344-3.39731-0.0343-1.28248-1.67666-0.0806-2.36866-0.93623-2.12162-1.59417-3.64389-3.81223-5.39981-5.7751-4.07719-4.79409-8.15438-9.58846-12.2316-14.3824zm-0.0625,8.96875c2.04167,2.4375,4.08333,4.875,6.125,7.3125-2.44792,0.72917-4.89583,1.45833-7.34375,2.1875,0.40625-3.16667,0.8125-6.33333,1.21875-9.5z"/>

<path d="m977.1,441.379c1.08619,2.02027,2.17237,4.04053,3.25856,6.0608-1.01376,0.87074-1.54101-1.14943-2.46007-1.45809-1.50628-1.26767-3.77854-1.50742-5.45644-0.43192-0.68677,0.35724-1.36507,0.73053-2.04797,1.09509,3.2768,6.06782,6.50863,12.1606,9.81456,18.2122,0.51183,1.5521,2.41826,1.84313,3.64829,0.96814,0.47558-0.34475,0.90639-0.54064,1.05915,0.18819-1.66296,0.96412-3.48109,1.88159-5.20372,2.82777-2.16967,1.16651-4.33934,2.33303-6.50901,3.49954-0.51117-0.52976-0.16902-0.80293,0.40615-1.00604,1.54289-0.57239,2.13516-2.44512,1.10289-3.76223-3.20609-6.02574-6.4605-12.0261-9.68551-18.042-1.79599,0.99462-4.0898,1.89186-4.54312,4.13133-0.51017,1.40933,0.23983,3.13506,0.2408,4.33405-0.55321,0.57388-0.6986-0.20859-0.9546-0.62321-0.92819-1.7264-1.85638-3.4528-2.78457-5.1792,6.70487-3.60483,13.4097-7.20967,20.1146-10.8145z"/>

<path d="m992.351,432.337c2.0776,2.75429,4.1552,5.50857,6.2328,8.26286,1.44515-0.91843,2.65215-2.55983,2.21865-4.35293,0.1665-1.40062-1.83649-2.98786-1.14842-3.96993,0.45322-0.28145,0.72022,0.76715,1.09532,1.04351,2.3726,3.14543,4.7453,6.29085,7.1179,9.43628-0.9284,1.05716-1.6006-1.09804-2.5836-1.33091-1.3865-0.98572-3.3326-1.47708-4.8196-0.39701-1.11024,0.35461-1.05845,0.97758-0.303,1.6619,1.6701,2.15612,3.2205,4.41037,5.003,6.47497,1.091,1.05878,2.448-0.0476,3.3717-0.78331,2.3881-1.6263,4.4849-4.16522,4.362-7.21105,0.1567-1.32908-0.6787-2.81295-0.6701-3.93483,0.5356-0.7123,0.6849,0.39371,0.9923,0.75562,1.122,2.02645,2.244,4.0529,3.366,6.07935-5.8479,4.41112-11.6957,8.82225-17.5436,13.2334-0.76181-0.53919-0.0123-0.85701,0.46753-1.22935,1.63799-1.01232,1.11749-3.07847-0.0879-4.21329-3.74799-4.93642-7.43003-9.92457-11.2263-14.8233-0.97162-1.31754-2.7643-0.62395-3.74511,0.2947-0.40617,0.57713-1.04343-0.5784-0.27209-0.66375,5.51431-4.15951,11.0286-8.31901,16.5429-12.4785,1.5093,2.00085,3.0185,4.0017,4.5278,6.00255-1.0492,1.06371-1.9782-1.30665-3.1748-1.43095-2.17343-1.13109-4.75777-0.21919-6.55386,1.2098-1.07368,0.76459-2.11384,1.57485-3.16929,2.36419"/>

</g>

</g>

</svg>