<svg xmlns="http://www.w3.org/2000/svg" width="640" height="480" viewBox="-110 210 640 480" enable-background="new -110 210 640 480"><path fill="#244AA5" d="M-110 210h640v480h-640z"/><path fill="#D0A650" d="M143.024 437.676s1.187-.84 1.622-.952c.434-.112 1.969-.616 1.969-.616s.984-.532 1.505-.532c.55 0 1.622.616 1.969 1.148.318.532 2.056 1.456 2.056 1.456s1.187.42 1.418 0 .753-.728 1.303-.728c.55 0 .637-.532.637-.952 0-.42.232-.952.637-1.456.434-.532 1.302-.84 1.302-.84s1.187-.532 1.303-1.26c.116-.728 1.303-1.26 1.969-1.372.637-.112 0-.42 1.737-.224 1.737.224 1.969-.42 2.056-.952.116-.532 0-1.064 1.1-.952 1.101.112 1.622.112 1.622-.532 0-.616.984-.952-.753-1.456-1.737-.532-1.621-.112-1.737-.952-.116-.84 0-.729-1.187-.84s-.55-.728-.637-1.372c-.116-.616-.435-.952-.637-1.372-.231-.42-.869-.42-.869-1.036 0-.616-.116-.952-.753-.952s-.869 0-.869-.616.116-1.148.753-1.148.984-.533.869-1.148c-.116-.616-.116-1.988-.116-1.988l.869-1.064s2.606-2.212 2.837-2.632c.231-.42 1.1-.728 1.506.112.434.84.637 1.064.984 1.457.318.42 1.303.112 1.505-.308.231-.42.318-1.96.898-2.8.579-.812.984-1.232 1.129-1.904.145-.672.434-1.232 1.129-1.232s1.129-.951 1.129-1.512c0-.56.289-1.092 1.129-1.232s1.274-.672 1.563.14.579.812 1.129 1.092c.58.28 1.419.672 1.824.28.435-.42.637-1.092 1.274-.672.608.42 1.042 0 1.187-.812.145-.812.29-1.904.29-1.904s.145-.56 1.129-.56.289-.672.839-1.092c.579-.42.579-.812 1.274-.56.695.28 1.824-.336 1.274-1.008-.579-.672-1.824-1.764-1.129-2.604.695-.812.985-2.184.29-2.324-.695-.14-1.708.14-1.824-.672-.145-.812-.435-1.372.434-1.512.84-.14 2.258-.14 2.693-.561.434-.42 1.824-.672 1.824-1.904s.434-1.372.579-2.044c.145-.672.145-2.1-.434-2.772-.58-.672-1.418-1.652-1.563-2.044-.145-.42-.695-1.092-1.563-1.372-.84-.28-1.563-.42-1.563-1.092 0-.672.579.14.579-1.652 0-1.764-1.129-2.044-1.129-2.044l-1.708-1.092s-3.011-.84-3.822-.84c-.811 0-1.737-.896-.811-1.456.927-.56 1.158-1.568.811-2.352-.348-.784-.579-1.344-1.853-1.68s-1.621-.672-1.042-1.456c.579-.785.695-1.345 1.39-.785.694.56 1.853.785 2.779.336.927-.448 1.274-.784 1.737-.336s1.042.896 1.737.224c.695-.672 1.969-.784 2.548-.448s1.969.224 2.432 0c.463-.224 1.39-1.008 1.39-1.456 0-.448.579-1.232 1.158-1.568s1.274-1.456 1.853-1.456c.58 0 .811-.672.811-1.12 0-.448.463-1.344.579-1.68.116-.336 1.274-.812 2.084-.112.811.672 1.853.896 1.853.896s1.158.224 1.737 0c.579-.224 1.39-.448 2.2.112.811.56 1.969.56 1.969.56s.231-.896.231-1.344c0-.448.232-1.232-.231-1.568s-1.042-.784-.116-1.456c.926-.672.926-.561 1.853-.561.926 0 1.505.112 2.2.112s1.853.672 1.853 1.344.463 1.12 1.042 1.456c.579.336 1.273.672 1.042 1.232-.231.56-.231 1.008.463.896.695-.112.926.336.926.896 0 .561.232.896.927 1.12.695.224 1.042.672 1.042 1.232s-.116.896.116 1.456c.232.56.927 1.456.927 1.456s1.274 1.568-.347.784c-1.622-.784-1.969-1.12-2.548-1.008-.579.112-.926.448-.926.448s-.811.224-1.39.224-1.158 1.232-.231 1.457c.926.224 1.273.448 1.273 1.231 0 .785-.347.561-.811 1.121-.463.56-.811.224-1.621.224s-1.042.672-1.042 1.344.347.561.695 1.121c.348.56.927.672 1.506.112s1.042-.896 1.39.112c.347 1.008.811 1.008 1.505 1.008s.927 0 1.505-.336c.579-.336 1.274 0 1.39.896.116.896.694 1.008 1.274 1.344.579.336.926.56 1.042 1.12.116.56.463.785 1.042.448.58-.336 1.506-.56 1.854-.112.347.449.926 1.345.926 1.345l.116 1.12 2.2.784s.232.56.232 1.008c0 .448.347.672.926.56h1.621s.811-.336.811-1.008.347-.896.926-.896 1.853.449 2.2-.224c.348-.672 1.39-.896 2.201-.56.811.336 2.895 1.232 2.895 1.232s-.231.112.463 1.231c.695 1.12 1.969 1.12 1.969 1.12s.116 1.008.347 1.456c.232.448 1.274.672 1.854.224.579-.448 1.39-1.008 2.084-1.008s1.158 0 1.158-.448-.695-.784-.695-1.456.695-.672.811-1.344c.116-.672.811 0 1.274.336s1.042.896 1.042 1.344.927 2.016 1.505 2.24c.58.224 2.085.336 2.548-.224s1.621-.784 1.505.56c-.116 1.344-.348 1.456.463 1.904.811.448.926 2.016.231 2.464-.695.448-.926.56-.926 1.344s-.232 1.68.347 2.128c.579.448.926.784.926 1.232l.695 2.464s.347 2.016.231 2.464c-.116.448-.348 1.231.694 1.12 1.043-.112 1.274-.112 1.274.784s.347 1.232-.231 1.568c-.58.336-.927 1.456-.348 1.68s1.042.56 1.158 1.008 1.042 1.232 1.622.785c.579-.449.694-.673 1.158-.785.463-.112.811-.448.348-1.008s-.58-1.12-.116-1.456l.695-1.456s.695-1.008 1.505 0c.811 1.008.927.672 1.506.672s.811.56.811 1.12 1.158.448 1.158 1.344c0 .896.231 3.024.231 3.024s0 1.232.695 1.68c.695.448.58.56.232 1.12-.347.56-.232 1.457-.232 1.904s.232.672-.347 1.12c-.579.448-.811 1.008-.463 1.68.347.672.232 1.12 1.158 1.904.926.785.811 1.121.811 1.68l.927 1.904c0 .56.695 1.232 1.274 1.344.579.112 1.273 1.12 1.273 1.68l.116 2.016s-.116.336.579.336 1.158.784 1.39-.112c.232-.896.926-1.008 1.39-1.232.463-.224 1.39-.672 1.853-.336s1.042.336 1.505.336l2.664.112s.579-.112.927.784c.347.896 1.389 1.904.811 2.352-.579.448-.579 1.344.116 1.344s1.39 0 1.39.56.116 1.008.695.672c.579-.336.927-.448 1.158 0 .232.448.695.448 1.274.784.579.336.811.112 1.158-.336.347-.448 1.737-.896 1.737-.896s1.853-.448 2.547-.224c.695.224 1.622.672 1.622.672s.463 1.121.232 1.792c-.232.672-.463.56-.232 1.568.232 1.008-.231 1.12-.695 1.008-.463-.112-.927-.112-.927.784s-.463 1.12-.463 1.904c0 .784 0 .672-.463 1.008s-.579.896.116 1.008c.695.112.463.896.463 1.344 0 .448-.116 1.456-.116 1.456s.116.56-.695.56c-.811 0-1.505-.112-1.621.448s-1.042 1.456-.231 2.016.579.896.116 1.12c-.463.224-.811 1.344.116 1.68s.811.672.232 1.12c-.58.448-1.737.784-1.737 1.456s-.231.672-.926.784c-.695.111-1.042 1.008-.232 2.128s1.042.896 1.621.896c.58 0 .58-.896.58-.896s1.969.112 2.547.112c.58 0 1.39 0 1.853-.336.463-.337 1.737-.896 1.737.111s.231.896.811 1.344c.579.448.695.112 1.158.784.463.673.579.112.927-.672.347-.784 1.042-1.567 1.621-.672s.579.672 1.273.672c.695 0 .927.336.927.896 0 .561.695.561 1.505.449.811-.112.927.447 1.274 1.008.347.56.463.447.926.447s.926 0 1.274-.447c.347-.448.811-1.008 1.274-.336s1.39.56 1.621-.225 1.274-1.456 1.853-.56c.579.896 1.042.896 1.621 1.008.58.112 1.39.112 1.738.672.347.56 1.505 1.456.694 2.128-.811.672-1.737 1.567-1.042 1.792.695.225 1.158.448 1.622 1.008.463.561 1.969.784 2.664.896.695.111 1.274.224 2.084-.448.811-.672 1.622-.672 1.506.224-.116.896.348 1.904.348 1.904s.579 1.456.579 2.017c0 .56-.115.672.927 1.344s.927 1.119 1.737.447c.81-.672 1.042-1.008 1.042-1.567v-1.792s1.158-.225 1.622-.561 2.316-1.344 2.779-.896 1.042.336 1.505.112c.463-.225 1.39-.225 1.853-.225s1.274.112 2.201-.672c.926-.784.926-.56 1.505 0 .579.56.579 1.232.231 1.68-.348.448 0 1.456.811 1.456s1.042.448 1.042 1.009c0 .56.116 1.344.232 1.791.116.448.116.673 1.39 1.009 1.274.336 1.042 1.12 1.274 1.68.232.56.232 1.008-.463 1.008-.695 0-.926.336-1.042.896-.116.56-1.158.783-1.158.783l-1.042-.224s-.695 0-1.042.448c-.348.447-1.042 1.344-.579 2.128s.463 1.232 0 1.568-.695 2.016-1.158 1.68c-.463-.336-1.042.111-1.506.336-.463.224-.348 1.792.579 2.352.927.561 1.158 1.345 1.158 1.345l1.042 1.68s-.347.336-.579.896c-.232.56-.927 1.68-.232 1.903s.348 1.456-.348 1.456c-.695 0-1.505-.336-1.621.561-.116.896-.463.672-1.158.56-.695-.112-2.432-.56-2.895.336-.463.896-.579 1.232-1.39 1.12-.811-.112-.463 1.344-.231 1.903.231.561 1.042 1.345 1.042 1.345s.695.56.695 1.68-.463 1.009-.926.225-1.39-.673-1.505.224c-.116.896-.232 2.24-1.043 2.24-.811 0-1.158.224-1.505.672-.347.448-.926 1.231-.926 1.68s-.116.896-.695 1.009c-.579.111-.695 1.344-.695 1.344s-1.39.224-1.505.783c-.116.561.115 1.456-1.043 1.568-1.158.112-1.853.896-2.2 1.456-.348.561-.463 1.008 0 1.568s.811 2.352 1.389 2.688c.579.336 1.042.448.927 1.344-.116.896-.811 1.568.116 1.568s1.506.224 1.158 1.008c-.347.784-.347.896-1.042 1.232-.695.336-1.042.336-1.042 1.231 0 .896.232.896-.348 1.232-.579.336-.579.784-.579 1.456s-.232.447-.927 1.232c-.695.783-1.622.783-2.201.56-.579-.224-.695-.224-.81-.896-.116-.672-1.159-.672-1.737-.56-.58.111-1.39.784-1.39.784s-1.042.672-.579 1.231c.463.561.231 1.457-.58 1.344-.811-.111-2.663.896-3.242-.111s-2.201-1.68-2.432-.336c-.232 1.344.695 1.232.579 2.576s-.348 1.344-.811 1.792c-.463.447-.463.783-.579 1.344-.116.561-.232 1.792.579 2.24.811.447 1.158 1.68 1.158 2.352s0 1.344.811 1.344 1.506-.112 1.622-.896c.116-.784 1.737-1.232 1.853.336s.116 2.352.695 3.023c.579.673 1.042 1.568 1.505 1.904.463.336 1.245 3.192 1.245 3.192-1.129.252-1.419 1.792-2.143 2.1-.405.168-.84.028-1.216.309-.29.224-.29.644-.695.84-.84.392-.695-.98-1.708-.477-.926.448-1.013 1.568-2.345 1.093-.695-.252-1.129-3.108-1.332-3.78-.116-.393-.839-1.568-1.071-1.932-.782-1.232-2.346 0-2.837-.364-.782-.561-.435-1.512-1.622-1.624-2.403-.168-.695 1.54-1.708 1.932-1.939.729-1.939-1.904-3.387-.7-.55.448.869.729.521 1.513-.29.644-1.708 1.624-1.621 2.38.116 1.036 1.187 1.344 1.505 2.212.869 2.296-.579 3.892-2.75 2.1-1.216-1.008-1.448-2.884-3.33-2.744-.434.028-.579.505-1.013.561-.434.027-.782-.42-1.245-.28-.694.252-.087.756-.231 1.176 0 0-.927.813-1.072 1.036-.521.729-.348 1.372-1.1 1.96-.637.504-1.129.196-1.824.98-.724.812-.782 2.016-1.708 2.8-.463.392-.782-1.176-1.361-.14-.086.14-.173.28-.231.42-.145.308-.174.447-.029.784 1.216 2.463-1.332 3.388-2.113 5.124-.348.728.608 1.399.231 1.96-.26.419-1.39 1.567-1.476 1.819-.087.252-.203.813-.405 1.009-.203.224-.898.111-.956.447-.058.392.724.7.927.952.261.308-.116.728-.029.813 1.302 1.371.521.952 1.187 2.155.087.168.492-.14.637.309.145.42-.318.392-.145.867.029.141.955 1.4.955 1.429.058.42-1.766 1.288-2.171 1.288-1.101.028.955-2.381-.84-2.381-.782 0-.84 1.876-1.042 2.072-.086.084-.811 0-.984 0-1.158 0-1.911 1.512-2.374 1.652-.29.111-.927-.168-1.418-.084-.463.084-1.014.56-1.448.56-.29 0-.435-.195-.666-.336-.521-.308-1.477-.447-2.056-.644-.318-.112-.927.42-1.129.279-.376-.252.26-.952-.608-1.455-.116-.057-.753-1.681-.724-1.765.29-1.063.608-2.212.463-3.332-.174-1.147-1.882-2.128-2.345-3.052-.348-.7-.666-2.548-1.332-3.024-.724-.504-1.39-1.483-1.766-2.239-.116-.224.231-.616-.029-1.009-.289-.42-.84-.588-.984-1.147-.116-.448 0-1.904-.493-2.212-.55-.336-4.082-.784-4.951-.868-.463-.028-.811-.028-1.158-.392-.145-.141-.376-.729-.492-.729-.348-.028-.753.168-1.101.196-.261.027-.695-.168-.926 0-1.129.813-1.419 1.848-2.49 2.716-1.1.868-2.316.84-3.416 1.848-.695.645-1.158 2.185-1.854 2.912-.289.309-.752 0-.868.141-.579.756-1.39 1.204-1.969 1.903-.116.141-.087.42-.232.532l-1.245.336c-.319.057-.926-.027-1.188.057-.579.195-.55.84-2.519 1.26-.145.027-.405.168-.521.252l-.637.588c-.145.112-.58-.084-.84-.057-.492.085-.782.532-1.245.588-1.042.141-2.721-.503-3.532-.167-.492.195-1.853 1.791-2.345 1.96-.319.111-.55-.028-.898-.169-.173.225-.579 1.961-.724 2.353 0 .028-2.229 1.988-2.403 2.212-.289.337-.405.7-.752 1.064-.231.252-.608.476-.984.476-.463 0-1.158-.364-1.592-.448-.84-.14-3.359-.252-4.111-.083-.782.167-.55 2.52-2.49 2.743-1.129.141-2.171.364-3.329.477-.116 0-.811-.505-1.505-.309-.261.084-1.1.98-1.1 1.261v.504l.202.42c-.434.532-1.418 1.371-1.737 1.987-.086.169-.202.364-.347.477-.261.195-1.592.728-1.708.98-.319.839.926 1.624.811 1.96-.348 1.091-1.737 2.128-2.171 3.136-.173.42.463 1.819.434 2.296-.145 1.315-.579 2.996-.521 4.283 0 .252.174 1.568.261 1.709.145.252.463.392.666.616.203.224 1.738 3.359 1.795 3.695.29 2.324-2.924 1.512-1.071 3.836.289.364.521.757.839 1.064.405.42 2.78 2.24 2.809 2.436.058.336-1.911.672-2.258 1.036-.926.952-1.708 2.716-2.606 3.695-.55.616-1.042-.056-1.766 1.373-.261.531 0 1.735-.319 2.071-.463.505-.839-.168-1.303.056-.203.085-.318.7-.521.869-.521.476-5.154 3.052-5.588 2.828-.231-.112-.492-.925-.521-1.177-.058-.28-.348-.896-.579-1.092-1.188-1.064-3.011-1.26-4.169.028-.29.336-.319.84-.695 1.176-.637.56-1.361 1.064-1.969 1.624-.116.112-.463.531-.608.504-.463-.056-1.592-1.399-1.882-1.764-.521-.645-2.027-2.185-2.172-2.912 0-2.492-1.853-5.097-2.634-7.532l1.158.028c1.303-.925.926-3.192 3.271-2.296.29-.421.261-.868.811-1.177.202-.111.579-.224.694-.42.782-1.26 1.708-6.076.898-7.308-.724-1.12-1.477-1.064-2.056-2.912-.174-.504.145-1.092 0-1.652-.116-.447-.898-3.107-1.014-3.304l-.666-.644c-.029-.225-.202-3.108-.116-3.333-.782-2.239-3.417-3.667-3.561-3.92l-.984-1.819c-.405-.7-.405-1.064-.637-1.736-.087-.308-.521-.561-.55-.896-.058-.588 1.534-1.819 1.477-2.855-.029-.336-1.013-1.344-.811-1.904.203-.588 1.216-1.904 1.188-2.548-.058-.868-1.593-2.744-1.795-3.668-.087-.448.607-.812.434-1.12-.203-.392-1.824-1.932-2.084-2.38-.203-.336.607-.784.029-1.4-.521-.56-.087-.363-.232-.839-.173-.532-.752-1.009-.984-1.568-.203-.477-1.593-5.74-1.563-6.048-.231-.364-.637-.672-.84-1.036-.202-.364-.29-1.064-.463-1.345-.029-.027-1.563-.503-1.853-.979-.231-.392-.29-1.68-.695-2.324-.203-.308-.521-.252-.753-.476-.203-.168-.174-.476-.319-.673-.463-.672-1.389-.056-2.026-2.52-.84-.616-1.622-1.147-2.345-1.904-.145-.14-.232-.308-.405-.392-.58-.252-1.448-.336-1.94-.784-.29 0-1.824-.056-1.998-.168-.174-.111-.347-.812-.463-.84-.811-.168-2.143-.084-2.837-.7-.55-.504-.666-2.939-1.65-2.604-.116-.056-.261-.112-.406-.084-.637-.868-2.837-.98-3.734-1.54-.261-.168-1.1-.028-1.1-.28.203-.476.145-.868.173-1.344-.492-.504-.811-1.092-1.158-1.456-.839-.196-.521-.28-1.042-.616-1.448-.112-1.592.141-2.519 1.036-.231.224-.695.28-.984.448-.493.28-.637 1.204-1.332.784-.232-.141-.376-.364-.55-.532-.405-.364-.637-.168-.84-.841-1.187-.672-4.458 1.652-5.24.028-.55-.308-.956.084-1.419-.42-.231-.252.638-3.052-1.737-4.199.55-.449 1.129-.757 1.65-1.177.145-.308-.029-.784-.029-1.092 0-.477.29-1.4.203-1.736-.087-.336-.435-.616-.55-1.008-.145-.392.028-.896-.174-1.315-.145-.112-.579-.393-.752-.393-.608-.532-1.274-.868-1.767-1.512-.115-.141-.202-.393-.347-.505-.435-.336-1.853-.783-1.795-1.483.029-.224.318-.252.405-.476.087-.28.029-.645.231-.896.666-.952 2.143-.532 1.911-2.296-.115-.784-.637-1.456-.781-2.296-.261-.196-.29-.532-.521-.728-1.448-.141-1.245-1.709-1.767-2.072-1.534-1.092-2.721-.42-1.013-2.576.231-.7-1.477-1.82-1.825-2.212-.607-.616-.318-1.904-.55-2.576-.116-.336-1.129-.924-1.448-1.4-.086-.14-.347-.867-.492-.952l.029-.224c.318-.252.145-.756.058-1.092-.203-.196-.637-.14-.782-.28-1.39-1.316-3.069-1.904-4.893-2.66-.493-.195-.348-.616-.753-.812-.347-.168-2.809-1.316-2.982-1.26-.289-.085-.492-1.232-.695-1.597-.173-.336-.869-.951-.869-.979.058-1.064-.579-1.204-1.36-1.764.058-.141-.087-.477-.087-.645 0-.14.521-1.988.608-2.24.145-.392.637-.756.55-1.204-.116-.699-.203-1.792-.435-2.407-.782-2.185-1.708-1.904-1.216-4.761.116-.588-.087-.924.347-1.456-.058-.027.203-.308.232-.363.26-.252.984-.672 1.129-.868.435-.616.695-2.016 1.245-2.464.405-.337 1.563-.98 1.766-1.261.174-.224.434-.924.289-1.203-.405-.252-.81-.141-1.215-.196-.145-.028-.666-.42-1.072-.504-.115-.141-.318-.309-.318-.504l-.173-.168c-.463-.057-.984-.364-1.39-.504-.521-.225-1.245-.252-1.737-.561-.926-.561-1.969-2.1-2.866-2.323-1.216-.28-1.998.111-3.156.167-.753.057-.753-.42-1.361-.616-.811-.251-.203.449-2.056-.167-.231-.196.116-.868.145-1.121-.289-.083-.637.085-.984 0-1.535-.392-.956-1.848-1.361-2.8-.174-.224-.811-.167-1.1-.195-.087-.028-.116-.168-.087-.225l.145-.111c.26-.42-.666-1.484-.637-1.624.058-.336 1.94-.645 2.201-.672.087-.252-.174-.477-.203-.729-.058-.56.29-1.288.463-1.792l-.058-.168c-.521-.308-.695-.756-1.158-1.12.029-.252.347-.42.405-.672.897-2.604 2.287-.531 3.503-2.94.116-.224.463-.812.579-1.203l.231-.057c.232.057.55.252.782.169.174-.253.55-.336.839-.421l.435.112c2.258-.504 1.737-1.372 3.04-2.352.347-.252 1.361-.364 1.824-.532.492.224 1.187 1.036 2.113 1.4.666.28 2.953.784 3.33 1.008.492.28.579.952 1.013 1.204 1.303.729.55-.504 1.795-.252 1.273.28 2.316 1.372 3.503 1.904.203.084.695-.028.926-.084.376-.084 2.403-.476 2.606-.392.231.084.579.308.811.363.29.057.521-.588.724-.56.869.14.897.504 2.056.392.058 0 .607-3.416 1.158-3.583.319-.084 1.188.812 1.448.868.434.112-.029-.7-.058-.756-.116-.28-.724-2.38-.695-2.576.029-.112.579.168.84.084.637-.224 1.505-.392 1.969-.924.058-.056 1.042-1.54 1.071-1.596.058-.252-.261-.84-.116-1.036.145-.168.695-.392.956-.672.376-.392.435-1.064.956-1.344 2.056-.196 2.779-1.876 4.632-2.1.116 0 .521-.084.608-.056l.376.644c.116.168 1.361.952 1.563.896.174-.028.261-.336.434-.392.376.056 1.419-.616 1.535-.952.029-.056-.231-.392-.116-.616.086-.167 1.39-1.176 1.593-1.288.462 0 .955-.112 1.389.056.26.112.29.532.58.588.318.028.897-.112 1.129-.056l.695-.532.055.059z"/><path fill="#fff" d="M241.874 278.661l16.122 52.099-42.208-32.199h52.173l-42.209 32.199z"/><path fill="#fff" d="M304.654 290.285l16.122 52.099-42.208-32.199h52.172l-42.209 32.199z"/><path fill="#fff" d="M364.558 313.177l16.122 52.1-42.209-32.199h52.173l-42.208 32.199z"/><path fill="#fff" d="M178.126 278.661l-16.122 52.099 42.208-32.199h-52.172l42.208 32.199z"/><path fill="#fff" d="M115.346 290.285l-16.122 52.099 42.208-32.199h-52.172l42.209 32.199z"/><path fill="#fff" d="M55.442 313.177l-16.122 52.1 42.209-32.199h-52.173l42.209 32.199z"/></svg>