<?xml version="1.0" encoding="UTF-8"?>
<svg
   xmlns="http://www.w3.org/2000/svg"
   xmlns:xlink="http://www.w3.org/1999/xlink"
   width="1008"
   height="504"
   viewBox="0 0 252 126">

<rect id="green_stripes"	width="252" height="126"	fill="#319208"/>
<rect id="yellow_stripes"	width="252" height="90"	y="18"	fill="#FFD200"/>
<rect id="red_stripes"		width="252" height="54" y="36"	fill="#DE2010"/>
<rect id="black_stripe"		width="252" height="18" y="54"	fill="#000"/>

<path d="M4.582575694955840006588047193728,0 l 84,63 l -84,63 L 0,126 v-126 z" fill="#000"/> <comment>value has to be sqrt(21)</comment>
<path d="M0,0 L 84,63 L 0,126" fill="#FFF"/>

<g id="star">

<g id="upper_star_part" fill="#DE2010" transform="translate(34,63) scale(32)">
  <g>
    <polygon id="triangle_ur" points="0,0 0,1 .75,1" transform="translate(0,-1) rotate(26.26769855)"/>
    <use id="triangle_ul" xlink:href="#triangle_ur" transform="scale(-1,1)"/>
    <polygon id="triangle2_ur" points="0,0 0,1 .75,1" transform="translate(0,-1) rotate(19.57996077)"/>
    <use id="triangle2_ul" xlink:href="#triangle2_ur" transform="scale(-1,1)"/>
  </g>
  <use xlink:href="#triangle_ur" transform="rotate(72)"/>
  <use xlink:href="#triangle_ul" transform="rotate(-72)"/>
  <use xlink:href="#triangle2_ur" transform="rotate(72)"/>
  <use xlink:href="#triangle2_ul" transform="rotate(-72)"/>
</g>

<g id="lower_star_part" fill="#DE2010" transform="translate(34,63) scale(27.5)">
  <g id="cone_l">
    <polygon id="triangle_l" points="0,0 0,1 .5,1" transform="translate(0,-1) rotate(24.22482095)"/>
    <use xlink:href="#triangle_l" transform="scale(-1,1)"/>
  </g>
  <use xlink:href="#cone_l" transform="rotate(144)"/>
  <use xlink:href="#cone_l" transform="rotate(-144)"/>
</g>

</g>

<g id="bird">
  <path d="M 28.63541,55.109321 C 30.611561,59.414581 31.105753,59.697041 36.046234,61.390941 C 40.986715,63.084631 54.943835,64.690451 56.320131,64.849251 C 55.420245,63.949371 39.698712,52.303801 36.46971,49.974681 C 33.240707,47.645571 32.340822,46.586881 32.340822,46.586881 C 32.340822,46.586881 29.429427,41.346381 28.423672,39.811281 C 27.417918,38.276181 25.565211,36.105871 23.130227,36.105871 C 20.695242,36.105871 19.21318,37.535101 18.507353,40.075951 C 18.119132,40.181821 16.037009,41.452451 16.107623,42.758031 C 16.707582,42.687311 20.483608,41.628621 21.78929,45.898731 C 23.095075,50.168841 23.165585,57.155981 21.824545,60.614501 C 20.483504,64.073021 18.401485,66.684171 18.401485,69.719221 C 18.401485,70.142691 18.683733,70.989641 19.38956,70.989641 C 19.636553,72.330791 21.612807,81.894131 21.612807,81.894131 L 49.774042,81.894131 L 54.247003,64.602161" style="fill:#ffc618;overflow:visible"/>
 <g style="fill:none;stroke:black;stroke-width:0.21173774;overflow:visible">
  <path d="M 28.63541,55.109321 C 30.611561,59.414581 31.105753,59.697041 36.046234,61.390941 C 40.986715,63.084631 54.943835,64.690451 56.320131,64.849251 C 55.420245,63.949371 39.698712,52.303801 36.46971,49.974681 C 33.240707,47.645571 32.340822,46.586881 32.340822,46.586881 C 32.340822,46.586881 29.429427,41.346381 28.423672,39.811281 C 27.417918,38.276181 25.565211,36.105871 23.130227,36.105871 C 20.695242,36.105871 19.21318,37.535101 18.507353,40.075951 C 18.119132,40.181821 16.037009,41.452451 16.107623,42.758031 C 16.707582,42.687311 20.483608,41.628621 21.78929,45.898731 C 23.095075,50.168841 23.165585,57.155981 21.824545,60.614501 C 20.483504,64.073021 18.401485,66.684171 18.401485,69.719221 C 18.401485,70.142691 18.683733,70.989641 19.38956,70.989641 C 19.636553,72.330791 21.612807,81.894131 21.612807,81.894131 L 49.774042,81.894131 L 54.247003,64.602161"/>
  <path d="M 19.38956,70.989641 C 19.38956,70.989641 25.388832,70.636881 27.012225,70.636881 C 28.63541,70.636881 43.74613,70.655501 52.176976,72.604761"/>
  <path d="M 21.508178,70.870751 C 21.508178,70.870751 20.907083,70.142691 21.2952,68.695891 C 21.683318,67.249081 25.918177,63.508111 25.918177,58.214871"/>
  <path d="M 25.141736,70.636881 C 25.141736,70.636881 24.64775,68.272411 30.047065,66.260901 C 31.564587,65.802071 35.905007,63.367091 36.046234,61.390941"/>
  <path d="M 29.473056,66.485261 C 29.473056,66.485261 42.71639,66.543151 53.197205,68.660531"/>
  <path d="M 32.792626,64.905291 C 32.792626,64.905291 37.343128,65.060991 38.084211,64.849251 C 38.825293,64.637511 40.137077,64.087081 40.658976,62.536061"/>
  <path d="M 35.490423,64.959261 C 35.490423,64.959261 37.924582,63.693791 38.401404,62.048281"/>
  <path d="M 28.141424,81.894131 C 28.141424,81.894131 27.100311,74.677681 26.888574,70.636881 L 29.606013,73.230671 L 32.480809,70.716491 L 34.952392,73.354321 L 37.810027,70.929471 L 40.28099,73.707081 L 43.110918,71.300431 L 45.362698,73.918821 L 48.184976,71.877951 L 51.540109,75.066631"/>
  <path d="M 50.9508,77.345081 C 40.870302,75.901381 27.380491,75.995051 27.380491,75.995051"/>
  <path d="M 22.693931,51.052191 C 22.693931,51.052191 30.89381,47.133801 32.340822,46.586881"/>
 </g>
 <g style="fill:none;stroke:black;overflow:visible" transform="matrix(0.211738,0,0,0.211738,16,36)" >
  <polyline points="52.4873047,177.0859375 65.5048828,188.9375 77.2666016,177.1757813 89.1630859,189.4423828 102.0087891,178.0839844 113.8359375,190.5136719 127.1748047,179.5009766 138.0722656,192.2285156 151.3417969,182.0839844 165.2890625,194.4033203"/>
  <circle cx="89.425293" cy="154.58398" r="5.1665039"/>
  <circle cx="111.23682" cy="156.04688" r="5.1665039"/>
  <circle cx="30.049805" cy="16.5" r="4"/>
 </g>
</g>

</svg>