<?xml version="1.0" encoding="UTF-8"?>
<svg xmlns="http://www.w3.org/2000/svg" width="2100" height="1400">
	<rect width="2100" height="1400" fill="#198a00"/>
	<rect x="1850" y="500" width="250" height="900" fill="#ef7d00"/>
	<rect x="1600" y="500" width="250" height="900" fill="#000"/>
	<rect x="1350" y="500" width="250" height="900" fill="#de2010"/>
	<g fill="#ef7d00" stroke="#000" stroke-width="2.25" stroke-linecap="round" stroke-linejoin="round">
		<path d="M 1916.4245,168.3344 C 1916.4245,168.3344 2002.4265,134.6285 2010.7593,127.6785 C 2014.5489,131.8483 1976.2829,174.2418 1902.0276,189.87871 C 1969.4633,175.2842 2027.0511,129.4158 2038.7957,130.8058 C 2042.2056,131.5008 2041.4461,175.6316 1886.8731,213.85517 C 1993.7101,188.14097 2055.8431,140.8829 2055.0855,146.0952 C 2055.8431,147.1376 2044.4782,183.27622 1950.9008,211.42263 C 1977.0424,205.86205 2047.8881,166.2494 2047.1305,173.8943 C 2049.4031,177.0216 1978.5575,260.41781 1850.5039,233.31502 C 1952.7956,257.63859 2019.0941,198.91314 2028.5661,199.95564 C 2030.4609,200.30309 2009.6221,251.38355 1880.8128,254.51107 C 1942.568,248.60433 1924.7593,254.16286 1924.7593,254.16286 C 1924.7593,254.16286 1888.3881,280.22426 1844.4417,262.50402 C 1878.918,271.19178 1882.7056,271.53828 1883.4633,274.31751 C 1881.1906,277.79154 1852.7764,283.00526 1825.4995,269.45208 C 1847.4718,277.79154 1867.1733,279.18294 1867.5512,282.31046 C 1867.1733,283.35177 1853.1561,290.64992 1840.654,285.43798 C 1828.1518,280.22426 1712.9782,215.24513 1712.9782,215.24513 L 1909.227,165.902 z"/>
		<path d="M 1685.7126,344.10525 C 1668.4556,344.10525 1667.9794,358.19028 1667.9794,358.19028 C 1667.9794,358.19028 1666.5551,359.20736 1667.5052,366.03421 C 1670.3541,361.38542 1671.7804,359.93337 1671.7804,359.93337 C 1673.6808,360.22451 1681.5962,362.40249 1694.104,353.39936 C 1682.7032,364.28942 1689.5134,368.35602 1689.5134,368.35602 C 1689.5134,368.35602 1686.8216,376.92419 1695.5285,378.66728 C 1692.8383,375.18109 1694.4214,372.13156 1694.4214,372.13156 C 1694.4214,372.13156 1706.6118,370.97066 1705.8204,357.32052 C 1706.2964,369.66245 1713.5789,372.71197 1713.5789,372.71197 C 1713.5789,372.71197 1713.5789,379.53704 1721.4943,380.11924 C 1717.2212,376.63305 1718.1694,371.26002 1718.1694,371.26002 C 1718.1694,371.26002 1728.4613,364.43494 1719.7526,352.81725 C 1724.9778,350.05699 1729.2529,342.36216 1729.2529,342.36216 C 1729.2529,342.36216 1722.1291,339.60198 1718.8042,337.28017 C 1717.2192,334.22886 1718.6456,317.52919 1718.6456,317.52919 L 1714.3704,295.89129 L 1702.1781,329.58356 C 1702.6522,324.79085 1702.9697,344.10525 1685.7126,344.10525 z"/>
		<path d="M 1770.9438,295.51356 C 1771.3216,295.86186 1783.8256,308.72015 1795.9482,308.02364 C 1800.4933,304.54953 1786.4761,296.90496 1786.4761,295.16705 C 1791.401,299.33759 1812.238,315.66829 1825.4995,309.76147 C 1830.8022,302.81171 1816.0275,303.85472 1799.7358,285.08968 C 1811.1007,292.03953 1839.5168,307.32884 1852.7764,301.42209 C 1858.4607,295.86186 1823.225,278.48634 1811.4804,264.93494 L 1781.1734,250.68874 L 1739.8773,281.61565 z"/>
		<path d="M 1724.3449,189.87853 C 1724.3449,189.87853 1738.3622,182.23388 1794.433,186.05621 C 1800.4952,186.75101 1832.6971,175.9792 1842.9266,172.8518 C 1859.2164,170.0719 1911.1199,159.6472 1925.1389,149.9175 C 1934.9888,148.8752 1922.4847,166.597 1909.9846,170.7667 C 1896.7229,176.32663 1848.6091,191.61602 1831.5597,189.53109 C 1852.0189,189.87871 1840.654,205.16792 1806.5555,197.87072 C 1822.8472,206.21035 1816.785,207.6003 1816.785,207.6003 C 1816.785,207.6003 1787.993,208.99025 1780.4158,203.083 C 1799.7377,209.68531 1791.7807,212.11761 1791.7807,212.11761 C 1791.7807,212.11761 1772.0811,213.855 1762.9868,210.03267 C 1777.0041,213.855 1769.8065,216.28754 1769.8065,216.28754 C 1769.8065,216.28754 1758.4416,218.02494 1748.9696,214.89759 C 1739.4994,211.77024 1725.1025,189.87853 1724.3449,189.87853 z"/>
		<path d="M 1746.8274,302.71636 L 1748.8865,336.69798 C 1748.8865,336.69798 1747.7776,338.44108 1746.8274,339.45816 C 1745.8771,340.47353 1720.5441,335.82644 1724.0276,353.54318 C 1724.0276,360.80493 1724.1863,362.69184 1729.5703,366.75845 C 1728.144,361.96582 1728.6201,358.62694 1728.6201,358.62694 C 1728.6201,358.62694 1735.7439,362.54802 1742.711,351.80187 C 1737.9617,362.40249 1741.2846,366.17804 1742.3936,366.46909 C 1743.5025,368.35772 1740.495,376.92419 1749.9935,376.77866 C 1746.3532,373.58352 1748.0949,368.93642 1748.0949,368.93642 C 1748.0949,368.93642 1758.0695,367.48617 1754.5859,350.93033 C 1758.2281,347.58966 1759.6525,350.78479 1759.6525,350.78479 C 1759.6525,350.78479 1760.7596,360.65939 1769.4684,358.62694 C 1773.428,360.65939 1768.8356,366.03242 1768.8356,366.03242 C 1768.8356,366.03242 1775.1678,366.17804 1777.0683,361.23981 C 1778.9688,356.30336 1781.1847,347.44413 1770.7341,343.81411 C 1769.4684,340.32971 1774.8524,340.03856 1774.8524,340.03856 C 1774.8524,340.03856 1781.502,342.07101 1783.4006,345.12063 C 1785.3011,348.17015 1784.6682,337.13456 1776.4354,335.97196 C 1766.3022,335.68091 1765.6694,333.79399 1765.6694,333.35902 C 1765.6694,332.92244 1763.9276,308.67167 1763.1361,301.70098 z"/>
		<path d="M 1782.0688,331.67486 C 1782.1934,330.11719 1764.7834,308.61621 1769.2001,305.83699 C 1773.6149,306.67035 1780.8559,316.44969 1786.7216,313.27539 C 1784.9439,309.46353 1779.7036,311.61029 1773.7529,301.85179 C 1767.8041,290.81969 1766.9351,274.25865 1746.0981,256.19352 C 1759.5883,275.31034 1790.1901,286.5157 1791.4861,280.9416 C 1792.782,275.3675 1764.5397,254.28933 1765.9868,249.20906 C 1771.6031,259.64161 1799.9606,282.88746 1820.8542,280.96244 C 1822.2862,276.48689 1803.7445,267.45433 1798.9726,259.01961 C 1785.626,250.79616 1749.9084,222.55764 1749.1925,216.00857 C 1736.1954,198.622 1728.0817,193.36226 1724.3034,191.35975 C 1722.8431,189.78217 1722.4767,188.27399 1722.1914,187.31517 C 1714.123,169.8692 1724.8097,164.2041 1731.0646,163.3664 C 1736.2124,162.8417 1737.7067,163.5485 1741.4113,161.9032 C 1737.0247,160.3293 1732.6401,158.8574 1728.2554,157.2835 C 1733.9738,161.1307 1748.5805,157.7436 1745.4143,168.8249 C 1751.8184,166.5901 1765.4446,151.7209 1729.9707,148.3652 C 1718.4264,136.218 1670.9623,129.237 1659.0818,182.2531 C 1660.0301,182.99639 1660.5269,183.60716 1663.5458,185.67499 C 1648.5575,179.01161 1608.1248,173.8732 1593.554,171.7138 C 1554.1905,161.297 1513.3099,136.1939 1509.3802,139.2811 C 1504.1242,141.4208 1533.1636,166.2005 1531.6542,166.749 C 1506.4747,153.2833 1483.4723,143.7431 1462.0688,135.0617 C 1447.0114,129.8992 1431.9299,117.8797 1430.2669,120.1662 C 1424.7253,130.6954 1454.4075,157.1623 1459.9287,160.2757 C 1465.4516,163.2539 1508.8759,181.72909 1508.2356,181.95975 C 1442.8304,154.731 1431.8645,149.7947 1428.5824,146.6553 C 1422.8177,145.4644 1408.775,128.074 1404.8615,129.1923 C 1402.719,131.1229 1407.0161,158.6011 1438.2263,170.9357 C 1443.3134,174.3363 1505.1266,194.67481 1504.5213,196.26941 C 1504.3701,196.66789 1433.7231,169.5256 1430.9789,168.5552 C 1417.358,163.6563 1400.6447,146.4846 1397.5201,148.4156 C 1394.5379,150.1678 1405.2248,168.754 1418.9884,174.5834 C 1426.2027,177.50343 1453.8752,190.0745 1478.8069,198.07552 C 1480.3981,198.60329 1433.9924,181.93483 1411.6811,173.3834 C 1401.5649,168.2337 1396.801,161.8148 1395.2601,163.1959 C 1392.9808,164.5768 1398.9425,192.03295 1470.6403,207.52545 C 1472.5293,208.26287 1495.8781,202.45215 1494.7241,203.22283 C 1494.4354,203.41556 1471.5384,207.98755 1469.309,207.83131 C 1467.3249,207.55335 1454.781,209.19336 1454.5541,209.78959 C 1453.7962,211.64683 1459.0989,221.47779 1496.1182,219.42766 C 1500.8508,219.16671 1526.5335,210.84928 1524.3758,212.63847 C 1523.2969,213.53358 1489.403,223.63519 1486.8217,223.83447 C 1484.5797,224.12502 1472.6728,225.26704 1472.2326,226.42862 C 1471.695,228.01284 1481.0459,235.00963 1500.9262,236.13064 C 1518.5282,236.98833 1551.9751,226.26591 1551.3042,226.96106 C 1550.6331,227.65612 1519.0604,237.5792 1518.2342,238.18393 C 1517.0918,238.77651 1505.5304,239.35172 1505.1246,240.16612 C 1504.1825,242.19168 1521.802,257.30424 1573.911,241.1763 C 1568.6762,247.66176 1543.4181,252.09749 1543.4544,253.26528 C 1543.3373,254.11259 1549.0191,259.14779 1557.8497,260.94983 C 1562.2647,261.85081 1568.3098,261.66709 1573.8316,260.86664 C 1583.7496,259.04555 1594.202,255.44675 1607.4824,244.18943 C 1609.0694,247.7224 1574.3077,263.85722 1575.9399,265.39586 C 1583.4775,271.80689 1608.5159,264.56939 1610.1556,263.72905 C 1611.7972,262.88693 1658.3714,238.79904 1658.2108,236.01114 C 1658.9344,239.58392 1598.1654,269.86969 1598.8209,271.11208 C 1602.7219,276.82124 1623.4814,270.81226 1624.4731,270.28731 C 1625.4631,269.76397 1650.9661,257.1275 1651.665,256.75496 C 1652.3622,256.38243 1621.6924,273.21904 1624.4241,275.78162 C 1623.1036,286.71498 1672.3226,268.23581 1676.1801,265.93476 C 1678.1089,264.78423 1652.5359,276.24772 1652.4679,281.69356 C 1660.7027,294.46357 1687.0709,290.41253 1691.1381,287.60379 C 1693.1727,286.19862 1688.7446,297.09029 1690.1709,296.10094 C 1690.6678,295.89648 1695.9063,290.21495 1697.9201,286.10327 C 1697.2777,289.67094 1694.3874,295.29174 1692.7004,301.74087 C 1691.0116,308.18993 1690.5279,315.46723 1688.2101,323.19855 C 1687.6791,326.59459 1704.4583,316.5589 1702.0213,292.56797 C 1703.4571,305.04684 1696.7224,328.38106 1698.4848,329.59393 C 1702.01,332.01968 1711.7559,317.97275 1712.7401,308.47409 C 1715.6343,313.2719 1721.7078,323.28692 1726.9331,325.59137 C 1726.3645,318.33312 1727.0332,318.66586 1724.6813,311.53229 C 1726.0376,302.06144 1726.2266,288.9536 1726.5552,274.15293 C 1740.7539,299.1002 1746.4174,309.63499 1742.4503,328.73974 C 1746.6724,330.35457 1753.4165,315.40489 1752.8725,307.70996 C 1758.2943,329.09143 1781.6966,332.29695 1782.0688,331.67486 z"/>
		<path d="M 1545.5749,173.2876 C 1545.5749,173.2876 1535.9106,179.9848 1523.8842,179.591 C 1526.8908,190.62165 1551.8029,182.15172 1551.8029,182.15172 C 1551.8029,182.15172 1539.7764,194.36428 1531.1861,196.33396 C 1536.3403,200.27349 1558.0311,198.89477 1561.6827,196.925 C 1565.3326,194.95515 1571.7762,187.27308 1571.7762,187.27308 C 1571.7762,187.27308 1549.4406,210.91026 1546.2193,210.71344 C 1545.7897,213.47107 1569.6284,212.48614 1574.5684,208.34971 C 1579.5066,204.21311 1591.9634,198.10691 1591.9634,198.10691 C 1591.9634,198.10691 1559.3195,218.98639 1557.8157,218.98639 C 1570.0573,221.94117 1594.5402,215.44075 1610.2179,206.57684 C 1587.0233,220.75926 1584.8773,223.31981 1573.0646,228.04728 C 1583.5889,230.2142 1588.9559,236.71462 1624.6073,222.53196 C 1645.0097,213.66823 1656.6051,197.51588 1656.6051,197.51588 C 1643.9348,213.07718 1623.9613,226.27561 1601.8435,239.27551 C 1600.5532,241.63891 1625.4649,251.28999 1657.2493,220.95624"/>
		<path d="M 1718.2413,239.07802 C 1718.2413,239.07802 1720.3891,248.33581 1728.9789,255.42769 C 1737.5707,262.51788 1738.2149,269.41228 1738.2149,269.41228"/>
		<path d="M 1713.9473,178.80314 C 1713.9473,178.80314 1716.9529,187.07601 1725.758,192.39452 C 1734.7786,197.71286 1748.3103,214.45591 1749.3833,217.41051 C 1750.4223,220.98661 1755.6098,246.76077 1755.1811,249.51746"/>
		<path d="M 1659.1838,191.60649 C 1659.8279,194.75808 1646.5116,210.71344 1664.7661,229.42617 C 1648.2288,247.94073 1648.2307,250.30583 1648.2307,250.30583 C 1648.2307,250.30583 1657.4646,255.03262 1674.0019,242.0322 C 1701.2751,272.76153 1692.1866,286.82411 1692.1866,286.82411"/>
		<path d="M 1690.0141,265.13074 C 1690.0141,265.13074 1687.5016,261.82996 1691.9807,249.5036 C 1696.0139,253.96009 1700.4987,254.91133 1702.4653,256.71508 C 1704.4299,258.51881 1725.0232,261.25304 1726.3323,273.87565"/>
		<path d="M 1714.2231,149.4322 C 1714.2231,148.5049 1710.0765,140.3439 1694.6066,150.5451 C 1702.8979,151.0086 1711.0872,155.3674 1714.2231,149.4322 z"/>
		<path d="M 1861.8688,186.75118 C 1862.6263,187.09854 1908.0897,196.13332 1923.2443,191.61602 C 1903.9224,215.24513 1865.2786,199.26067 1865.2786,199.26067 C 1884.2207,204.47295 1884.9802,204.12559 1891.0404,208.99025 C 1892.9352,213.50756 1856.1863,211.42263 1844.0619,205.16792 C 1877.7808,214.89759 1878.5384,214.20262 1879.6755,218.02494 C 1881.1926,223.23722 1824.3623,216.63491 1819.4373,209.68531 C 1834.5918,220.45741 1842.9266,222.54242 1851.2614,227.40708 C 1841.0319,231.57703 1822.0896,235.74603 1787.2336,213.16019 C 1833.0748,251.38355 1874.371,248.95092 1880.8128,255.90068 C 1864.9008,277.44503 1803.1456,243.04417 1774.7314,225.66951 C 1746.3173,208.29527 1836.8644,267.71596 1845.2011,266.67286 C 1841.0319,272.5796 1811.1026,267.36766 1809.2077,264.58844"/>
		<path d="M 1873.6134,226.71211 C 1868.3106,227.40708 1852.3986,227.40708 1850.126,227.05955"/>
		<path d="M 1532.2598,166.9845 C 1532.2598,166.9845 1566.8363,183.72743 1581.4391,182.54561 C 1577.574,185.89418 1571.7744,187.27308 1571.7744,187.27308 C 1575.4261,188.65197 1585.5196,193.57642 1600.7685,190.42467 C 1597.1169,193.77324 1592.3922,197.51604 1592.3922,197.51604 C 1592.3922,197.51604 1605.4932,202.04636 1620.3114,194.95515 C 1615.8021,200.07642 1613.2234,203.81922 1613.2234,203.81922 L 1623.5324,204.41009"/>
	</g>
</svg>