<?xml version="1.0" encoding="UTF-8"?>
<svg xmlns="http://www.w3.org/2000/svg" xmlns:xlink="http://www.w3.org/1999/xlink" width="1000" height="600" viewBox="0 0 30 18">
<rect width="30" height="18" fill="#fff"/>
<path d="M0,0 30,18M0,18 30,0" stroke="#df112d" stroke-width="2"/>
<g stroke="#000" stroke-width="0.0153">
<path fill="#e8112d" d="M16.5698,2.69297c0.3855,1.56106,0.1741,3.48906-1.5673,4.55878-1.7415-1.06972-1.9529-2.99772-1.5673-4.55878,0.410478-0.373168,2.2762-0.60328,3.13453,0z"/>
<path fill="#f9dd16" d="m15,2.37955c0.638439,0,1.23302,0.16898,1.58351,0.388048,0.06878-0.538251,0.312867-1.07649,0.600812-1.4833-0.300406-0.00627-0.435033,0.15333-0.438087,0.319183-0.07513-0.212788-0.369307-0.200279-0.460077-0.08449,0.328627,0.222183,0.07513,0.616473-0.222097,0.535123-0.139636-0.038201-0.213424-0.135568-0.239567-0.276926a0.161537,0.161537 0 1,0 -0.068908,-0.010714c-0.09395,0.153343-0.262412,0.199375-0.383112,0.165584-0.156495-0.043809-0.22222-0.184629-0.22222-0.3098,0-0.32545,0.312867-0.375514,0.406812-0.319183-0.0061-0.21905-0.3504-0.394295-0.4568-0.21279,0.1189-0.212791,0.1127-0.513211-0.1002-0.713486-0.2127,0.200275-0.219,0.500695-0.1,0.713486-0.106406-0.181501-0.45067-0.00625-0.4569,0.2128,0.09382-0.056331,0.406812-0.00627,0.406812,0.319183,0,0.125171-0.06572,0.265992-0.22222,0.3098-0.120699,0.033791-0.289166-0.012241-0.383234-0.165584a0.161537,0.161537 0 1,0 -0.068908,0.010714c-0.0262,0.14136-0.1001,0.23872-0.2396,0.27692-0.2972,0.08135-0.5507-0.31294-0.2222-0.53512-0.0907-0.11579-0.3848-0.1283-0.46,0.08449-0.0032-0.16585-0.1377-0.32545-0.4381-0.31918,0.287823,0.406812,0.53191,0.945051,0.600812,1.4833,0.350494-0.219068,0.945075-0.388048,1.58339-0.388048z"/>
<g id="leopard">
<g fill="#f9dd16">
<path d="m16.3243,3.91058c-0.03848,0.00917-0.03848,0.058762-0.05864,0.058762,0.100054-0.00276,0.148676-0.030297,0.178973-0.080801-0.02199,0.020194-0.0028,0.058762-0.01014,0.067937,0.07342-0.025704,0.108361-0.088131,0.08271-0.130363,0.01649,0.023859,0.06426,0.036723,0.07892,0.038556-0.05143-0.0404-0.01466-0.132208-0.09737-0.179938,0.02761-0.00184,0.08087,0.029369,0.09553,0.066104-0.01283-0.082633-0.02578-0.135885-0.0937-0.181783,0.0073,0.00826,0.04593,0.015601,0.06243,0-0.04398-0.027548-0.05693-0.073446-0.05314-0.102827,0.0051-0.041109-0.02211-0.049587-0.07354-0.036723-0.0463,0.011569-0.15234,0.018362-0.214767,0.018362-0.128519,0-0.240545,0-0.347073-0.073446,0.159793,0.066092,0.363565-0.073446,0.363565-0.189125,0-0.128543-0.15796-0.233202-0.477424-0.163421-0.319464,0.069769-0.708684,0.040388-0.708684-0.066104,0-0.106504,0.279027-0.121189,0.422327-0.09915,0.143179,0.022027,0.24592,0.036723,0.514074-0.058762-0.06609,0.025704-0.279149,0.033046-0.447982-0.014684-0.168956-0.047742-0.583953-0.047742-0.587618,0.176273-0.0037,0.224003,0.441874,0.203602,0.82633,0.146892,0.22393-0.033058,0.341454-0.011019,0.341454,0.062427,0,0.069769-0.205606,0.09915-0.363566,0.080788-0.157838-0.018349-0.319464-0.014684-0.506744,0.0404-0.156372,0.045983-0.264367,0-0.436987,0.029381-0.08368,0.01422-0.286479,0-0.386533-0.165266-0.06157,0.044078-0.24702,0.136337-0.278172,0.226312-0.0441,0.082621-0.01466,0.164802,0.04398,0.24559,0.07403,0.101679-0.03665,0.086298-0.115569,0.089975-0.108239,0.00503-0.253128-0.011496-0.328749-0.097317-0.06695-0.076048-0.156128-0.136997-0.22735-0.08063-0.03665,0.029014-0.0015,0.067204,0.02749,0.056514,0.02871-0.010567,0.06267,0.01069,0.09333,0.024116-0.04899-0.021061-0.102864-0.00472-0.123876,0.014061-0.02895,0.02596,0.0062,0.075547,0.04129,0.058029,0.02749-0.013744,0.08393-0.022906,0.120577,0.010689-0.0397-0.00764-0.081-0.00602-0.100786,0.015271-0.01979,0.021294-0.0045,0.052299,0.03824,0.050393,0.06866-0.00305,0.08625,0.045055,0.155029,0.035172-0.04227,0.00551-0.06621,0.027536-0.07721,0.044065,0.06426-0.029381,0.135238,0.049819,0.218555,0.031213-0.0325,0.013377-0.08491,0.045324-0.08442,0.069781,0.04948-0.056929,0.381891,0.044065,0.389221-0.080788,0.0092,0.025704,0.0073,0.064259-0.01832,0.097317,0.04251-0.025716,0.17995-0.03489,0.222097-0.134053,0.0037,0.029381-0.0018,0.067949-0.02749,0.077123,0.0441,0.014416,0.102131-0.018423,0.161503-0.106492,0.02358-0.034939,0.0292-0.058163,0.02517-0.084429,0.05888,0.00222,0.101519-0.012559,0.147454-0.051456,0.04777-0.040388,0.0992,0.033058,0.17995-0.018362,0.08087-0.051407,0.150631-0.00734,0.19461-0.033046,0.0441-0.025704,0.104697,0.00917,0.152463-0.020194,0.04777-0.029381,0.1218,0.014379,0.200841-0.048048,0.124365,0.045556,0.269498,0.129972,0.625489,0.064565,0.204017-0.037493,0.268032,0.031213,0.268032,0.124866,0,0.064259-0.03763,0.069854-0.06609,0.071614-0.113493,0.00698-0.162237-0.042489-0.207072-0.026632-0.03005,0.010702-0.04838,0.059568-0.0049,0.076366-0.03592,0.018325-0.03128,0.05269-0.01295,0.065285,0.01832,0.012595,0.0656,0.00115,0.09773-0.013744-0.04129,0.018704-0.08405,0.052299-0.05962,0.087422,0.01478,0.021318,0.05216,0.039386,0.0871-0.0061,0.03506-0.045824,0.0992-0.084001,0.140002-0.077942z"/>
<path d="m14.0632,2.94108c-0.102864-0.04222-0.137559-0.043381-0.113859,0.0404,0.01014,0.035807,0.03482,0.086298,0.05962,0.109253,0.000978-0.034878,0.0138-0.131279,0.05424-0.149653z"/>
<path d="m14.3845,2.94108c0.102864-0.04222,0.137559-0.043381,0.113859,0.0404-0.01014,0.035807-0.03494,0.086298-0.05974,0.109253-0.000855-0.034878-0.01368-0.131279-0.05412-0.149653z"/>
<path d="m14.2243,2.88464c0.19461,0,0.218921,0.091343,0.217944,0.205178-0.000855,0.123021-0.06695,0.080788-0.104574,0.2387-0.01466,0.061743-0.06389,0.065188-0.11337,0.065188-0.0496,0-0.09871-0.00345-0.113492-0.065188-0.0374-0.15792-0.1036-0.11569-0.1045-0.23871-0.0009-0.11383,0.0234-0.20517,0.2181-0.20517z"/>
<path d="m13.7226,3.33585c-0.0496-0.029381-0.08161-0.00905-0.101765-0.00353,0.06426,0.016517,0.06682,0.099015,0.213791,0.137571-0.03311-0.00917-0.05143,0.00919-0.08271-0.00734,0.06059,0.047742,0.128519,0.103022,0.271819,0.10466,0.0799,0.0009162,0.02468,0.042233-0.02761,0.018361,0.05424,0.056001,0.161625,0.010103,0.22955,0.112014,0.01283-0.078956-0.126686-0.203822-0.06243-0.293784-0.198153-0.00844-0.214401-0.118269-0.328626-0.205654-0.09297-0.071052-0.101276-0.143276-0.142324-0.278502-0.01869-0.06123-0.0904-0.099406-0.130106-0.084905-0.03469,0.012681-0.0474,0.04277-0.01759,0.065285,0.02981,0.022527,0.06792,0.025582,0.07611,0.082657-0.03873-0.046386-0.09675-0.063184-0.124609-0.03417-0.01698,0.017665-0.01014,0.058884,0.02639,0.062622,0.0595,0.00611,0.01674,0.064137,0.08442,0.120908-0.05998-0.06746-0.111903-0.073568-0.144033-0.036919-0.01918,0.021953,0,0.061083,0.04129,0.056893,0.05974-0.00608,0.129007,0.145463,0.218433,0.183835z"/>
<path d="m15.32,3.90323c-0.03127,0.00551-0.02199,0.056929-0.06426,0.060606,0.101032,0,0.152341-0.023883,0.200108-0.062439-0.02199,0.012852-0.03115,0.04591-0.03299,0.064259,0.05326-0.045898,0.179951-0.049563,0.246042-0.036711,0.06609,0.012852,0.07709-0.018362,0.100909-0.060594,0.02395-0.042233-0.0092-0.066104-0.04215-0.09915-0.03311-0.033058-0.04044-0.078956-0.03311-0.156079-0.176285-0.235023-0.492084-0.121188-0.495749-0.018362,0.113859,0.132196,0.128519,0.117511,0.224052,0.135873,0.09541,0.018361,0.153929,0.018313,0.08991,0.071614-0.02199,0.018362-0.113858,0.00974-0.185447,0.012852-0.16016,0.00696-0.233459-0.110633-0.280738-0.049551-0.03897,0.050235,0.0012,0.07242,0.08063,0.069745-0.05498,0.0003909-0.127908-0.00258-0.115447,0.048622,0.02101,0.086274,0.103475-0.01604,0.135604,0.019461-0.02749-0.00649-0.07024,0.010311-0.07183,0.036271-0.0015,0.025972,0.06108,0.059556,0.129862,0.00496,0.03763-0.029931,0.08564-0.041133,0.114592-0.041377z"/>
<path d="m15.4566,3.54488c-0.0573-0.020964-0.109827-0.033779-0.177018-0.019901"/>
<path d="m14.5929,3.51764c-0.04716,0.101324-0.01857,0.151339-0.0116,0.198348"/>
<path d="m14.0908,3.03734c0.03237,0.016187,0.05058-0.029564,0.0981,0.019009-0.01307-0.014171-0.02932,0.037664-0.06573,0.00326"/>
<path d="m14.355,3.03734c-0.03237,0.016187-0.05058-0.029564-0.0981,0.019009,0.01307-0.014171,0.02932,0.037664,0.06572,0.00326"/>
<path d="m14.2569,3.05635c-0.01112,0.00917-0.01222-0.00732-0.0038,0.036014,0.01564,0.079567,0.03408,0.116791-0.0303,0.116791-0.06573,0-0.04581-0.037224-0.0303-0.116791,0.0086-0.043332,0.0075-0.02684-0.0037-0.036014"/>
</g>
<g fill="#ff0016" stroke-width="0.00765">
<path d="m14.2238,3.36157c0.05229,0,0.08258-0.0009163,0.0744-0.074362-0.0034-0.029479,0.03579-0.041219,0.02199-0.089059,0.01466,0.058749-0.09639,0.053142-0.09639,0.02651,0,0.026632-0.111049,0.032239-0.09639-0.02651-0.0138,0.04784,0.02529,0.05958,0.02199,0.089059-0.0082,0.073446,0.02211,0.074362,0.0744,0.074362z"/>
<path d="M14.1768,3.21299,14.0512,3.17796"/>
<path d="m14.1768,3.21952-0.140246-0.00117"/>
<path d="m14.1781,3.2267-0.1196,0.032044"/>
<path d="m14.2709,3.21299,0.125587-0.035037"/>
<path d="m14.2709,3.21952,0.140246-0.00117"/>
<path d="m14.2695,3.2267,0.119601,0.032044"/>
</g>
<g fill="#0051ba" stroke-width="0.00159">
<path d="m13.5733,2.83723c-0.03653-0.045482-0.12803-0.00707-0.129862,0.049355,0.03091-0.036576,0.08136,0.016114,0.108849,0.00503,0.01906-0.00767,0.0358-0.03588,0.02101-0.054388z"/>
<path d="m13.5259,2.9449c-0.03653-0.045482-0.127908-0.00707-0.129741,0.049355,0.03079-0.036576,0.08124,0.016114,0.10885,0.00503,0.01906-0.00766,0.0358-0.03588,0.02089-0.054388z"/>
<path d="m13.5021,3.08953c-0.04141-0.041084-0.127908,0.00737-0.123387,0.063636,0.02663-0.039814,0.08258,0.00688,0.108727-0.00724,0.01808-0.00976,0.03152-0.039667,0.01466-0.056392z"/>
<path d="m13.5457,3.53777c-0.04593-0.036039-0.126197,0.022026-0.115324,0.077416,0.02187-0.042599,0.08283-0.00268,0.107139-0.019693,0.01686-0.011789,0.02688-0.043039,0.0082-0.057723z"/>
<path d="m13.5434,3.63587c-0.05473-0.020182-0.11337,0.059788-0.08588,0.109131,0.0076-0.047254,0.07794-0.028025,0.0959-0.051725,0.01246-0.016395,0.01222-0.049184-0.01002-0.057406z"/>
<path d="m13.6136,3.70918c-0.05473-0.020194-0.11337,0.059776-0.08601,0.109131,0.0077-0.047266,0.07806-0.028037,0.09602-0.051737,0.01246-0.016395,0.01222-0.049184-0.01002-0.057393z"/>
<path d="m15.0476,3.8512c-0.05473-0.020182-0.11337,0.059788-0.08588,0.109131,0.0077-0.047254,0.07794-0.028025,0.0959-0.051725,0.01246-0.016395,0.01222-0.049184-0.01002-0.057406z"/>
<path d="m15.1215,3.91773c-0.05669-0.013829-0.105796,0.072298-0.07293,0.118196,0.0022-0.047828,0.07428-0.036723,0.08943-0.062317,0.01051-0.017702,0.0066-0.050259-0.01649-0.055879z"/>
<path d="m15.0695,3.75701c-0.05058-0.029198-0.121921,0.039643-0.10323,0.092932,0.01564-0.045262,0.08161-0.014355,0.103353-0.034646,0.01503-0.014049,0.0204-0.046399-0.000123-0.058285z"/>
<path d="m16.0897,3.87191c-0.05669-0.013817-0.105796,0.072298-0.07293,0.118208,0.0023-0.047828,0.0744-0.036723,0.08943-0.062317,0.01051-0.017702,0.0066-0.050259-0.01649-0.055891z"/>
<path d="m16.0914,3.78185c-0.05143-0.027438-0.120333,0.043821-0.09993,0.096438,0.01405-0.045776,0.08112-0.017152,0.102131-0.038189,0.01454-0.014562,0.01881-0.04707-0.0022-0.058249z"/>
<path d="m16.1312,3.9524c-0.05717-0.011337-0.102497,0.076855-0.06768,0.121274,0.000245-0.047877,0.07269-0.039948,0.08662-0.066165,0.0098-0.018154,0.0044-0.050503-0.01894-0.055109z"/>
<path d="m14.228,3.31754c0.03592,0,0.05045,0.010482,0.05045,0.075364,0,0.137461-0.0016,0.196565-0.04581,0.196565-0.04435,0-0.04129-0.05616-0.04129-0.157081,0-0.052653,0-0.07898-0.01063-0.074594,0-0.034353,0.01527-0.040254,0.04728-0.040254z"/>
</g>
</g>
<use xlink:href="#leopard" transform="matrix(0.9,0,0,0.9,1.45342,1.67136)"/>
<use xlink:href="#leopard" transform="matrix(0.67,0,0,0.75,4.90869,3.35378)"/>
</g>
</svg>