<?xml version="1.0" encoding="UTF-8"?>
<svg xmlns="http://www.w3.org/2000/svg" xmlns:xlink="http://www.w3.org/1999/xlink" width="1200" height="600">
<defs>
<linearGradient id="gradbase" gradientUnits="userSpaceOnUse">
<stop stop-color="#a43907" stop-opacity="0.9961" offset="0"/>
<stop stop-color="#fff" offset="1"/>
</linearGradient>
<linearGradient id="grad1" xlink:href="#gradbase" x1="826.45044" y1="419.93194" x2="786.12402" y2="396.11032"/>
<linearGradient id="grad2" xlink:href="#gradbase" x1="851.56865" y1="436.06697" x2="763.03312" y2="419.67318"/>
<linearGradient id="grad3" xlink:href="#gradbase" x1="1016.1496" y1="398.53933" x2="974.91928" y2="400.94143"/>
<linearGradient id="grad4" xlink:href="#gradbase" x1="1033.33547" y1="421.21868" x2="945.904" y2="428.64452"/>
<linearGradient id="grad5" xlink:href="#gradbase" x1="1023.35736" y1="445.13212" x2="776.64586" y2="445.13212"/>
<linearGradient id="grad6" xlink:href="#gradbase" x1="783.43027" y1="462.50282" x2="1144.08805" y2="465.42083"/>
<linearGradient id="grad7" xlink:href="#gradbase" x1="1032.1278" y1="442.28699" x2="1002.94064" y2="444.03323"/>
<linearGradient id="grad8" xlink:href="#gradbase" x1="775.74733" y1="471.7178" x2="803.90792" y2="476.1845"/>
<linearGradient id="grad9" xlink:href="#gradbase" x1="803.17707" y1="466.88819" x2="755.30821" y2="440.32034"/>
<clipPath id="c">
<path d="M0,0V150H700V300H600zM600,0H300V350H0V300z"/>
</clipPath>
</defs>
<rect width="1200" height="600" fill="#00247d"/>
<path d="M0,0 600,300M600,0 0,300" stroke="#fff" stroke-width="60"/>
<path d="M0,0 600,300M600,0 0,300" stroke="#cf142b" stroke-width="40" clip-path="url(#c)"/>
<path d="M300,0V350M0,150H700" stroke="#fff" stroke-width="100"/>
<path d="M300,0V350M0,150H700" stroke="#cf142b" stroke-width="60"/>
<path d="M0,300H600V0H1200V600H0z" fill="#00247d"/>
<g stroke="#000" stroke-width="1.8">
<use xlink:href="#scroll" stroke="#fff" stroke-width="12"/>
<g id="scroll" stroke-linejoin="bevel">
<path fill="url(#grad1)" d="m826.45,427.735s-8.53598-13.8843-15.65-12.8926c-7.11256,0.99174-13.7516,9.91737-14.2266,10.4124-0.47347,0.49666-10.9063-11.4042-10.4329-11.9008,0.47498-0.49508,10.9078-26.2802,16.5985-27.272,5.69065-0.99174,17.9773,1.89709,17.9773,2.88882,0,0.99174,5.73375,38.7641,5.73375,38.7641z"/>
<path fill="url(#grad2)" d="m845.419,412.859c0,0.99174-2.84532,37.686-15.1751,50.5786-12.3297,12.8926-32.247,20.8265-39.3611,18.843-7.11255-1.98348-23.2361-39.1728-23.2361-39.1728s17.072,17.8513,29.8752,14.8761c12.8047-2.97521,20.3922-25.2901,22.7626-36.1992,2.37186-10.9091,0.47498-32.2323,0.47498-32.2323l24.6595,23.3066z"/>
<path fill="url(#grad3)" d="m973.576,427.735s8.53598-13.8843,15.65-12.8926c7.11256,0.99174,13.7516,9.91737,14.2266,10.4124,0.4734,0.49666,10.9063-11.4042,10.4328-11.9008-0.4749-0.49508-10.9078-26.2802-16.5984-27.272-5.69065-0.99174-17.9773,1.89709-17.9773,2.88882,0,0.99174-5.73375,38.7641-5.73375,38.7641z"/>
<path fill="url(#grad4)" d="m954.608,412.859c0,0.99174,2.84532,37.686,15.1751,50.5786,12.3297,12.8926,32.247,20.8265,39.361,18.843,7.1126-1.98348,23.2361-39.1728,23.2361-39.1728s-17.072,17.8513-29.8752,14.8761c-12.8047-2.97521-20.3922-25.2901-22.7626-36.1992-2.37186-10.9091-0.47498-32.2323-0.47498-32.2323l-24.6595,23.3066z"/>
<path fill="url(#grad5)" d="m788.945,407.482c-5.69068,6.94218-8.7289,12.308-11.1,16.275-2.3711,3.96694-0.97668,9.4873,4.5,17.3625,5.90463,8.48767,54.4484,41.6625,117.675,41.6625,63.2265,0,111.77-33.1748,117.675-41.6625,5.4766-7.87519,6.8336-13.3956,4.4625-17.3625-2.3711-3.96695-5.3719-9.33282-11.0625-16.275,0,10.4124-40.2141,48.0375-111.075,48.0375-70.8609,0.00002-111.075-37.625-111.075-48.0375z"/>
<path fill="url(#grad6)" d="m1008.25,476.741c0.9485-1.48681,10.9063-18.843,10.9063-18.843l-5.46-4.02724c-1.6768,4.90949-7.8182,6.50738-8.7666,12.4578s4.2688,11.9008,3.3203,10.4124z"/>
<path fill="url(#grad7)" d="m1018.15,471.371s1.8969-8.42897-4.2673-9.42071c-6.1656-0.99173-9.4293,4.71805-8.5359,2.47855,0.9921-2.48691,4.7422-4.95868,5.2156-13.3877,0.475-8.43056-0.4734-12.8926-0.4734-12.8926s2.3703-10.9107,12.3297-9.4223c9.9579,1.4884,10.4329,9.4223,10.4329,12.3975,0,2.97521-0.9485,4.46202-0.9485,4.46202l-13.7531,25.7852z"/>
<path fill="url(#grad8)" d="M791.773,476.741c-0.949-1.487-10.907-18.843-10.907-18.843l5.45999-4.02724c1.67684,4.90949,7.81819,6.50738,8.76663,12.4578s-4.26874,11.9008-3.3203,10.4124z"/>
<path fill="url(#grad9)" d="m781.873,471.371s-1.89688-8.42897,4.26723-9.42071c6.16563-0.99173,9.42936,4.71805,8.53597,2.47855-0.99208-2.48691-4.7422-4.95868-5.21567-13.3877-0.47498-8.43056,0.47347-12.8926,0.47347-12.8926s-2.37035-10.9107-12.3297-9.4223c-9.95788,1.4884-10.4329,9.4223-10.4329,12.3975,0,2.97521,0.94844,4.46202,0.94844,4.46202l13.7532,25.7852z"/>
</g>
<g fill="#000" stroke="none">
<path d="m813.43,438.565-5.16779-3.55994-0.60012,0.95373,1.0182,0.84192,0.0874,0.5064-6.50543,10.3388-0.47909,0.11619-1.14073-0.6472-0.60011,0.95374,5.16779,3.55994c1.7705,1.21965,3.2807,1.84224,4.96633,1.66477,2.1944-0.22005,4.06492-1.49869,5.5102-3.7956,2.573-4.08915,1.85084-8.10322-2.25661-10.9327zm-2.1551,0.0781,1.02686,0.70737c2.8141,1.93856,3.06199,4.64992,0.75905,8.30989-2.30295,3.65997-4.79294,4.51187-7.60704,2.57332l-1.02686-0.70738,6.84799-10.8832z"/>
<path d="m815.174,457.273,10.2685,5.13308,1.71686-3.76452-1.2992-0.64945-1.34262,2.06734-0.40209,0.21206-4.43568-2.21733,2.495-5.47071,2.48537,1.2424,0.1338,0.42897-0.50075,1.60932,1.12889,0.56432,2.22605-4.88099-1.12889-0.56431-0.88123,1.42089-0.4021,0.15932-2.48537-1.24239,2.2835-5.00695,3.80416,1.90164,0.12401,0.39771-0.55685,1.9961,1.33839,0.66904,1.50666-3.30361-9.63852-4.81815-0.47001,1.03059,1.11826,0.68907,0.17148,0.44781-5.11404,11.2134-0.45937,0.18343-1.21422-0.47866-0.47002,1.03059z"/>
<path d="m828.786,462.999c1.10133,0.90962,2.37746,1.60988,3.66831,2.04514,3.30819,1.11547,5.93074-0.10665,6.74176-2.74783,0.40203-1.30927,0.12479-2.72592-0.79298-3.94194-0.93036-1.24359-1.89776-1.93807-2.39314-2.57005-0.85035-1.06996-1.21179-1.92674-0.89833-2.94757,0.37514-1.22168,1.55506-1.80204,3.02713-1.30568,0.64543,0.21763,1.07577,0.48438,1.37702,0.80593l0.18745,0.4065-0.36563,2.42474,1.45141,0.48939,1.10408-3.59557c-1.11994-0.91756-2.30851-1.61162-3.55962-2.03348-2.88374-0.97235-5.34572,0.30391-6.10202,2.7669-0.33434,1.08879-0.18493,2.33902,0.47776,3.51735,0.6348,1.1206,1.46794,1.81814,2.13759,2.53387,1.18703,1.28181,1.66823,2.32562,1.30052,3.52314-0.37514,1.22168-1.61594,1.78318-3.25016,1.23214-0.62476-0.21066-1.17546-0.51966-1.6786-0.90929l-0.16029-0.42066,0.49527-2.77265-1.53408-0.51727-1.23345,4.01689z"/>
<path d="m839.509,467.153,6.02979,2.03315,0.33386-1.08727-1.3174-0.56586-0.21374-0.46369,3.63266-11.8302,0.41824-0.20227,1.38557,0.34388,0.33387-1.08728-6.02979-2.03316-0.33387,1.08728,1.29628,0.56041,0.22719,0.41989-3.63267,11.8302-0.43168,0.24606-1.36444-0.33842-0.33387,1.08728z"/>
<path d="m852.462,454.82-0.23018,1.11771,1.19889,0.38514,0.26548,0.39304-2.50447,12.1613-0.40647,0.29156-1.24589-0.15694-0.23018,1.11771,5.84014,1.29106,0.23018-1.11771-1.24001-0.39261-0.25622-0.43806,1.05723-5.1337c0.12405,0.0274,0.2481,0.0549,0.35256,0.0779,2.0909,0.46223,2.42749,1.5624,2.62266,3.87132,0.10596,1.16768,0.0804,2.23648,0.9697,3.38743,0.40864,0.54317,1.11789,0.98561,2.00909,1.18263,0.64147,0.14181,1.35903,0.22902,2.10708,0.27591l0.2257-1.09598c-0.10283-0.0227-0.18607-0.0411-0.26932-0.0595-1.3874-0.3067-1.93731-0.78534-2.11449-2.13756-0.15871-1.2264-0.0697-2.49543-0.50599-3.64198-0.32473-0.83462-0.94066-1.42361-1.8829-1.89485,2.43941,0.0378,3.93433-1.01461,4.36656-3.11342,0.52174-2.53347-0.85301-4.26891-4.06362-4.97867l-6.29553-1.39173zm3.97754,2.23942,0.95323,0.21072c2.00765,0.44383,2.84759,1.72669,2.46236,3.5973-0.43255,2.10036-1.68585,2.82472-3.9008,2.33507-0.22851-0.0505-0.47661-0.10536-0.74113-0.18819l1.22634-5.9549z"/>
<path d="m865.586,473.888,11.3628,0.56256,0.18257-4.16851-1.43933-0.0713-0.4684,2.45157-0.2915,0.35885-4.90839-0.24301,0.26531-6.0578,2.75023,0.13616,0.28257,0.3412,0.13837,1.6874,1.24753,0.0618,0.23671-5.40479-1.24753-0.0618-0.28532,1.66801-0.3111,0.31022-2.75024-0.13616,0.24282-5.54426,4.21124,0.20849,0.26193,0.31636,0.22707,2.06665,1.48102,0.0733,0.16021-3.65813-10.664-0.52797-0.05,1.14119,1.28576,0.1812,0.32426,0.34327-0.5438,12.4168-0.35488,0.35571-1.29596,0.0518-0.05,1.14119z"/>
<path d="m885.562,460.702-0.039,4.12848,1.49873,0.0179,0.37128-2.49165,0.35057-0.29889,2.60866,0.0312-0.11983,12.6869-0.3735,0.36844-1.41418,0.0989-0.0108,1.14239,6.49852,0.0777,0.0108-1.14239-1.412-0.13272-0.36645-0.37729,0.11983-12.6869,2.60866,0.0312,0.32257,0.30694,0.3464,2.50023,1.49874,0.0179,0.039-4.12847-12.538-0.14991z"/>
<path d="m898.767,461.149,0.0199,1.1423,1.26256,0.0954,0.35417,0.36677,0.21614,12.3829-0.34115,0.3789-1.25849,0.13782,0.0199,1.14231,6.14838-0.10732-0.0199-1.14231-1.30534-0.0931-0.35417-0.36677-0.10258-5.87653,6.27854-0.1096,0.10257,5.87654-0.31889,0.37852-1.3013,0.13857,0.0199,1.1423,6.12782-0.10696-0.0199-1.14231-1.26252-0.0938-0.35417-0.36677-0.21615-12.3829,0.34116-0.37891,1.25845-0.1394-0.0199-1.14231-6.12782,0.10696,0.0199,1.14231,1.30537,0.0947,0.33191,0.36716,0.0891,5.10707-6.27853,0.10959-0.0892-5.10707,0.34116-0.3789,1.30127-0.14016-0.0199-1.1423-6.14838,0.10732z"/>
<path d="m916.073,476.413,11.6241-1.06432-0.3543-4.15727-1.47242,0.13481-0.15864,2.4965-0.24986,0.39724-5.02124,0.45975-0.51488-6.04148,2.81346-0.2576,0.33145,0.29782,0.35921,1.65255,1.27621-0.11685-0.45938-5.39023-1.27621,0.11685-0.074,1.69382-0.27608,0.35185-2.81346,0.25761-0.47124-5.52933,4.30807-0.39446,0.30724,0.27614,0.4985,2.01576,1.51507-0.13872-0.31092-3.64828-10.9092,0.99887,0.097,1.13811,1.33054-0.004,0.37411,0.29391,1.05536,12.3833-0.3147,0.40318-1.31073,0.23631,0.097,1.13811z"/>
<path d="m932.555,458.353,0.1778,1.12752,1.36566-0.11428,0.41605,0.26022,1.9346,12.2681-0.30714,0.4304-1.32936,0.34448,0.1778,1.12753,6.43651-1.09951-0.1778-1.12752-1.41039,0.12352-0.42321-0.30563-0.81666-5.17879c0.13672-0.0233,0.27523-0.047,0.38857-0.0664,2.3044-0.39365,3.05412,0.49466,4.10583,2.56004,0.53928,1.04166,0.90964,2.04302,2.24033,2.76132,0.61756,0.34319,1.50472,0.47469,2.48692,0.3069,0.70698-0.12076,1.47144-0.32211,2.25213-0.57287l-0.17434-1.1056c-0.11334,0.0194-0.20508,0.035-0.29683,0.0507-1.52907,0.2612-2.26699,0.0335-2.94708-1.1514-0.6148-1.07539-0.99257-2.28777-1.85931-3.18021-0.64135-0.64629-1.48738-0.95045-2.62113-1.01731,2.50154-0.92425,3.63852-2.48866,3.30465-4.6059-0.40302-2.55573-2.44673-3.62504-5.98519-3.02059l-6.93841,1.18524zm4.88592,0.51304,1.05056-0.17946c2.21267-0.37798,3.5435,0.48182,3.84107,2.36886,0.33413,2.11881-0.6774,3.28386-3.11853,3.70086-0.25185,0.043-0.52528,0.0897-0.82581,0.11695l-0.94729-6.00721z"/>
<path d="m951.81,470.606,6.6025-2.07914-0.32891-1.09305-1.51294,0.35511-0.46072-0.24548-3.57863-11.893,0.25926-0.42401,1.44579-0.57827-0.3289-1.09304-6.60249,2.07913,0.3289,1.09305,1.49077-0.34646,0.44747,0.20145,3.57864,11.893-0.24602,0.46803-1.42362,0.56963,0.3289,1.09305z"/>
<path d="m965.54,457.738,0.31433,1.09468,1.67193-0.3998,0.4444,0.20245,1.30881,4.55813c-0.56356,0.22413-0.97784,0.37842-1.1996,0.44771-3.41021,1.06553-6.16697-0.62955-7.32211-4.6525-1.12284-3.91044,0.24784-6.87029,3.54979-7.902,0.64258-0.20077,1.27163-0.27637,1.94128-0.21721l0.44702,0.29773,1.10098,2.23728,1.61693-0.50522-1.09053-3.79793c-1.78108,0.0197-3.42289,0.26594-4.88616,0.72314-4.91713,1.53637-7.20583,5.58661-5.89047,10.1676,1.33457,4.64783,5.40358,6.88389,10.0553,5.43045,1.61693-0.50521,3.16663-1.33072,4.69929-2.46735l-1.49479-5.20581,0.26454-0.42396,1.25285-0.51406-0.31432-1.09468-6.46946,2.0214z"/>
<path d="m968.961,448.387,0.49355,1.02007,1.24791-0.52701,0.49129,0.15867,5.35021,11.0578-0.16911,0.50721-1.14714,0.73527,0.49355,1.02007,5.84114-3.08282-0.49355-1.02007-1.28951,0.55074-0.49129-0.15867-2.53904-5.24769,5.96476-3.14807,2.53904,5.24769-0.14796,0.49605-1.18944,0.75759,0.49355,1.02007,5.82-3.07166-0.49355-1.02007-1.24722,0.52842-0.49129-0.15867-5.35022-11.0578,0.16912-0.50721,1.14645-0.73669-0.49355-1.02007-5.81999,3.07167,0.49355,1.02007,1.2902-0.54933,0.47014,0.16983,2.20658,4.56056-5.96477,3.14807-2.20658-4.56056,0.16912-0.50721,1.18874-0.75901-0.49355-1.02007-5.84114,3.08283z"/>
<path d="m983.583,439.937,2.02787,3.54597,1.36886-0.85444-0.90834-2.3419,0.16871-0.45852,2.38104-1.48624,6.23168,10.8968-0.1532,0.5302-1.23374,0.9051,0.56113,0.98121,5.93381-3.70388-0.56113-0.98121-1.34597,0.70516-0.52106-0.10933-6.23169-10.8969,2.3826-1.48721,0.44609,0.0747,1.56227,1.93372,1.37042-0.85542-2.02787-3.54597-11.4515,7.14802z"/>
</g>
</g>
<g>
<path fill="#0072c4" stroke="#fff" stroke-width="6" d="m900.011,448.344s-114.465-33.7349-113.798-162.077l0.88167-169.649h225.834l0.8847,168.675c0.6677,128.342-113.802,163.051-113.802,163.051z"/>
<g fill="#bcbcbc">
<path d="m802.805,155.04c0.18817,0,1.57517-1.31703,2.84532-2.47855,1.77396-0.88859,3.41438-2.13739,5.21718-2.97521,1.34299-0.77752,3.99711-1.3805,5.21566-1.98347,1.59794-0.83623,2.90147-1.79941,4.26875-3.47187,0.16389-2.21832,0.47498-3.81145,0.47498-6.4455,1.88625-0.90763,3.56006-1.7883,5.21566-2.48013,2.37338-0.66804,2.88781-1.61693,5.21718-1.98348,1.4993-0.52363,3.97738-0.49666,6.16411-0.49666,2.35972,0,3.84839,1.67723,5.96834,2.07392,2.51299,1.01395,3.68602,1.71531,5.69065,3.47187,1.13206,1.43286,1.83618,2.59756,3.76645,3.67657,1.52812,0.78387,2.95913,1.97078,4.7422,2.47855,1.95758,1.13454,3.69512,1.79147,5.21566,3.47187,1.39307,0.99015,1.96821,2.46109,3.3203,3.47028,1.56607,1.29958,3.05171,2.46903,4.74221,3.47188,2.03194,1.36145,4.04567,2.39603,7.33713,2.0993,1.7421-0.10314,3.61774-0.30307,5.69065,0.0841,2.32026,0,4.58438-0.0412,6.63908,0.49666,2.41891,0,4.37649,0.32688,6.63909,0.49508,2.11995,0.39669,4.28088,0.49666,6.63908,0.49666,2.05622,0.53633,4.31882,0.49508,6.63909,0.49508h6.63908,6.63908c2.41587,0,4.86209,0.0984,6.63909,0.49666,2.3931,0,4.45084-0.22374,6.63908-0.49666,2.57521,0,4.53886-0.47128,7.11407-0.49508h8.0625c2.06988,0.56648,4.71489,0.95524,6.16411,1.98347,1.89839,0.5411,2.8438,1.4408,4.7422,1.98348,1.45377,0.74578,3.66174,1.92635,4.7422,3.47028,1.33844,1.39954,2.7133,3.40364,3.79376,5.45535,1.32023,1.90413,1.82253,4.08119,2.84533,6.44549,0.54175,2.26592,0.9196,4.42076,0.94844,6.94216,0.51443,2.15008,0.47498,4.51597,0.47498,6.94215-0.54175,2.26116-0.66012,4.77779-1.42342,6.94216-0.082,2.41984-0.56603,4.60959-0.94844,6.44708-0.42187,2.02949-0.91809,3.33541-0.94844,5.95042v6.94215c-0.16693,2.27703-0.66467,3.9495-0.94845,6.4455-1.14723,2.16595-2.2459,4.69845-3.31878,7.43882-1.5782,1.09963-2.94699,2.6642-3.79376,3.96694-1.01218,0.62519-1.59793,1.57409-1.42342,1.98348,1.89536,0.6601,1.42342,1.97871,1.42342,4.46202,0.24583,1.91206,0.43097,4.28271,0.94844,6.44708,0.17299,2.36747,0.67984,3.81461,1.4219,5.45376,0.74813,0.97745,0.89381,0.49666-0.94844,0.49666-1.37031,1.07425-2.75731,0.51253-3.31878-1.4884-1.10626-1.33448-1.47046-2.94982-1.89688-5.45376-0.26253-2.29607-0.62977-4.53343-1.42342-5.95042-0.2428-2.79432-0.98638-2.76575-3.79377-2.97521-1.3354-1.18373-3.09874-1.4884-5.69064-1.4884-2.58128,0-2.79828-0.2634-2.84532,2.48014v6.94215c-0.44615,2.01204-1.42494,3.64325-1.89688,5.45376-1.41432,1.03617-2.15031,2.77528-3.79377,3.96695-0.78303,2.25164-1.92116,2.64357-4.26874,2.97521-0.82097-1.02506-2.15941-2.36272-2.84532-3.47029,1.32782-2.22783,2.48719-2.56423,3.3203-4.95868,1.00763-1.97395,1.59945-3.25448,2.37035-4.95868-1.01218-1.55822-1.92117-2.26116-2.84533-4.46361-0.77999-1.1996-1.86046-3.78129-2.37034-5.45376-1.55696-0.54268-4.00925-0.62995-5.21718-1.4884-2.30054-0.53474-2.94396,1.98348-5.68913,1.98348h-6.63908c-2.93637,0-3.66933,1.63914-6.16563,1.4884-0.73295,0.23801-2.51147-0.10473-5.21718,0-1.98186,0.69024-4.36889,0.49507-6.63908,0.49507-2.40525-0.0301-4.37345-0.58393-6.16411-0.99174-2.17913-0.59662-4.34613-1.20119-6.63908-1.48681-2.78462,0-3.82108,0.22215-5.69065,1.48681-1.47956,0.87749-3.6238,2.88318-5.21718,3.96695-0.67377,1.64549-1.02431,4.43029-1.89688,6.44708-0.50381,1.93428-1.32326,3.16086-1.89688,4.95868-0.6419,1.67723-1.24891,3.40364-1.4219,5.95042-0.16086,3.34176-0.89078,2.93237-2.84532,1.98348-0.8149-1.38367-2.11389-2.9054-2.84533-4.46361,0.43098-2.52298,0.91658-3.77812,0.94844-6.4455-0.46132-1.92476-1.53875-1.86287-2.84532-0.49666,0,2.59597,0.11989,4.59849-0.94844,5.95042-0.53416,2.04853-1.39307,2.93396-2.84532,3.96695-0.71019,1.84066-2.28688,2.68324-3.79376,3.47187-0.24129-0.0841,0-0.66486,0-1.98347-1.13661-2.26751-0.082-4.14943-0.082-6.94216,0.0288-2.50394-0.11381-4.16371,0.61307-6.44708,0-2.40397-1.11536-4.69052-1.47956-6.44549-0.88167-1.84225-1.39004-2.75307-3.79377-3.47188-1.68898-0.6712-4.12306-1.57884-5.21718-2.97521-1.37637-1.78512-2.25501-2.5198-4.26722-3.47028-2.18217-0.79022-3.24139-1.51379-4.7422-2.48014-1.46591-1.61692-2.65716-2.31828-3.32031-4.46202-0.98941-1.52489-1.15937-4.35729-1.89688-6.44708-0.16085-2.17706-0.78455-4.2002-1.4219-5.95042-0.28225-2.17706-0.62521-3.77018-1.42342-5.95042-0.26404-2.03901-0.85284-4.17164-1.4219-6.44549,0-2.42618,0.0394-4.79366-0.47498-6.94216v-6.94215c-0.34144-2.0041-0.46739-4.93806-0.94844-6.44708,0-2.69753-0.28681-4.22083-0.94844-5.95042-1.08502-1.75181-1.17303-2.53726-2.84532-2.97521-1.20794,1.54076-3.1989,2.16912-5.69065,2.48013-1.74058-0.39669-4.19742-0.65534-6.16562-1.4884-1.90143-0.4681-3.20194-1.22023-4.7422-1.98347-0.84222-1.2964-1.84832-2.76417-2.84532-3.96695-0.2944-2.58962-0.85891-3.92251-0.94845-6.44549,0-1.89303,0.0455-0.8886,1.89689-3.47187z"/>
<path fill="#fefefe" d="m830.89,172.905c3.01016-0.99728,9.58467-5.8759,13.3643-9.00378,4.30335-2.72739,13.1109,0.10252,13.4622-7.28709-0.53305,2.22171-5.62641,7.74585-8.11654,11.089-5.48978,3.48825,2.68529,7.04297,4.00373,2.05723,2.84772-5.09972,6.46988-10.277,12.1601-12.2836-1.03729,3.67567-1.80247,7.24947,0.67074,10.5203,0.88987-1.60958,1.11142-8.21765,1.01654-2.77785-1.79843,3.09405,2.65737,12.1065,2.76993,5.09501,0.71142-4.43341,0.442,4.79493,1.79515,6.18455,2.83476,5.46966,2.58586-5.03246,3.21522-7.11238,0.47597-3.93153,0.67377-2.89436,0.0994-0.0538-0.57065,3.56033,0.61326-7.43531,0.82573-1.37487,0.39079,3.16821-0.0413,11.7806,3.02049,4.94723,2.45143-4.06247,3.03655-4.12345,0.36045-0.51803-0.87211,1.35908,4.0207-7.40192,2.08539-1.2911-0.12835,4.39044,0.0335,10.9195,2.41805,13.7864,1.83004-2.2556,0.7635-13.983,2.60342-5.92305,0.70504,2.27261,0.021,8.59829,2.99262,3.74338,3.2098-3.78269,4.97961-7.06438,4.63014-12.2524,0.40126-2.64755,2.01363-6.90493,3.43146-2.21596-0.97348,6.11645,5.39407,10.007,4.61587,15.8908,2.85773-4.49568,1.57127-11.1875-0.33184-15.4883-0.40174-5.09276,7.74442-2.0564,5.71932,2.43583-0.2315,3.22891,4.39599,11.5246,4.76657,3.84607,0.62156-3.6492,2.63103-3.9712,2.19105,0.10944,0.83861,2.63565,4.4214,10.3898,4.03435,3.63695,0.31893-3.67806-0.59578-7.55212,1.0582-11.0187,1.17289,2.21486,1.29679,5.61678,2.68143,1.40272,2.83045-0.0846,1.11836,7.78332,4.69516,9.46672,1.43727,2.82372,5.01505,7.43827,4.01209,1.35967,0.55544-3.29147-2.39218-10.095-1.11413-10.9712,3.74549,4.75485,5.12978,11.0333,10.1799,14.8701,4.80966,2.44003,0.59783-6.74784,0.33537-9.11604-2.867-1.57623-5.20908-7.70196-1.15198-2.91591,2.34206,4.25118,9.46311,7.97131,11.6877,8.89564-2.12213-1.56996-4.05621-2.15463-0.45716,0.018,2.66474,1.09269-1.58101-6.64142-3.12753-7.95206-1.37513-2.47279-8.07162-6.07864-6.17271-7.7839,5.23969,1.13266,6.77331,6.86107,9.95197,10.4396,1.98126,1.65983,6.75982,5.18605,4.09075-0.0764,1.49352-0.62278,8.86655,7.55936,7.10936,0.99791-1.21487-2.82231-7.67666-7.91561-6.96393-8.22312,2.20398,3.19048,0.87344,0.90986-0.8825-0.76238,6.38867,0.70949,10.1398,7.08678,14.1572,11.1402,0.50039,1.92977,1.96129,11.3292-0.0119,5.16368-4.15457-1.77377,1.603,8.43181-2.93355,7.10807-0.20511-2.26067-4.20708-7.00283-2.27102-2.31615,3.33625,6.84409,0.82153,14.361,1.11885,21.5783,0.0883,3.55373-0.082,7.08496-0.33537,10.6211,0.24069-2.60941,0.4433-6.95281,0.0161-1.25452-0.14842,3.95896-1.6073-5.71316-3.58581-6.2059-0.41055-1.80097-1.96739-10.901-3.2803-5.47185,0.0104,5.32009,5.14076,10.9028,1.04345,15.5915-1.38269,1.28818-2.11236,4.99701-2.85006,1.1098-2.01798-4.59595-3.30949-9.46095-6.84794-13.2155-1.49315-2.92571-6.61967-10.0186-5.19949-2.5725,0.88879,3.36447,1.4857,6.77784,1.25569,10.2672-1.99097-5.1616-4.70684-9.96075-7.37811-14.7269,0.3869,2.22649,3.09039,11.7834,0.73938,5.58987-1.62661-5.08029-4.24819-10.1509-9.31077-12.4046-1.39782-0.17335,3.40031,8.93365,1.55009,8.99929-0.44381-2.93678-3.10484-9.47314-5.7487-8.28005,0.1185,5.24793,2.25357,10.1348,1.03362,15.4864,0.26607,5.219-3.21916-5.18977-4.3598-6.58553-5.12431-3.13598,0.37497,8.83935-3.68753,4.20655-3.26935-2.29695-5.01393-4.83396-4.69516-9.11605-6.08182-1.03487-3.73498,5.39502-4.02291,9.05002-0.51339,2.77358-2.01069,8.04045-3.70171,8.85003-0.70603-4.00858-0.14054-8.20487-0.32271-12.2908,0.97716-2.34563-0.0982-8.37465-2.94714-5.50964-0.48257,5.29352,2.9743,12.0158-0.95631,16.3378-2.0801,2.3795-5.9375-3.71409-9.57596-2.08571-4.62086-2.36747-2.72652-9.7724-5.86328-13.6612-3.11725-3.26284-1.65536,13.0789-3.7059,5.3359,1.47374-4.93096-7.51607-6.85911-5.75896-1.60077,2.20795,2.23726,2.60646,5.04299,2.31646,8.01757,0.62655,3.49911-1.97233,4.5372-2.57748,0.60989-0.24863-4.3276-7.65601-6.12206-6.14058-0.43021-3.88245-2.49914-0.23824,9.85086-4.99598,6.05452-5.36181-3.7405-8.80139,3.31203-14.6754,1.92791-3.33986,0.55613-11.3287,1.42615-6.48435-3.42362,4.52943-2.7321,6.44443-10.9898,12.7568-6.76537,4.82565-0.28129,9.95052-3.67983,13.8907-6.84495,3.22258-2.17258,1.7812-7.6997-2.16866-4.27267-3.27934,4.92682-12.6992,4.92224-15.524,4.53229,2.79931-2.65078,11.3625-3.04043,9.23663-7.68244-3.14315,0.25665-8.66152,4.96533-10.4304,2.22426,1.09847-1.20979,4.70733-4.56024,0.54478-3.09798-5.27085,1.71677-10.9218,1.29897-16.3532,0.86776-5.4353-5.32188,7.928-3.86431,7.73453-7.36265-1.31761-0.10864-6.52147,0.59403-4.24666-1.31787,4.39919,0.0865,8.83744,0.42098,11.992-3.75434,1.90848-1.98275,8.54789-6.5335,6.92454-8.13266-4.8995,2.82138-10.0443,7.60914-16.1838,4.81979,5.27508-3.93443-2.03747-4.27138-5.37085-3.88706-2.42534,0.74896-9.16747-2.00823-3.40053-1.83108,3.92909,0.83158,7.83231-4.61133,1.78491-3.56902-1.26541-0.38878-2.62461-0.14135-3.92934-0.21075z"/>
<path fill="#fefefe" d="m801.857,164.957c-0.23136-2.56198-1.26283-5.10739-0.83642-7.69477,1.26199-1.84481,3.00745-3.18724,4.63018-4.70114,2.90484-1.61981,5.66804-3.59092,8.95369-4.38807,2.28115-0.69646,4.25854-2.20213,5.7479-4.04248,0.73309-2.21398-0.56236-5.75944,1.51487-6.95213,2.55642-1.39969,5.32409-2.30112,7.92882-3.58637,2.84468-0.91895,5.92331-1.06205,8.87362-0.70987,2.36179,1.01464,4.75592,1.93853,7.09929,2.99747,2.11924,1.03086,3.67999,2.77694,5.11286,4.5868,1.67465,1.52753,3.77083,2.51915,5.7413,3.60912,1.6371,0.11322,1.09701,2.23527,0.058,2.15219-0.6743,3.14003-4.59158,0.47595-5.33677-1.37364,0.65699-1.21901,0.38844,2.78457-0.86509,2.83893-2.20894,0.97651-2.14283-2.78465-2.46626-4.2221,0.28044-1.2152-0.67864-2.65619-1.17917-0.74693-1.48609,1.6347,1.60134,5.13888-1.62587,4.173-2.39804-0.31622-5.07777-0.81085-7.16045,0.77882-1.74322,1.81824,1.88708,2.56492,3.01891,3.44643,1.52572,1.43611,3.56554,0.0173,5.34179-0.15924,2.4299-0.83935,5.16356-0.40458,7.41596,0.72101,1.041,2.24835-1.04678,4.48315-3.03758,5.39487-1.85974,1.00879-3.93569,1.44558-6.00856,1.69755-3.03896,0.13471-2.44922,3.90074-5.40932,4.20221-1.89031,0.80048-4.01961,0.9837-6.03641,0.7181-0.39697-1.08631,2.00358-2.80708,2.25276-4.46644,2.17427-2.58539-3.11509-2.11424-2.34758,0.35068,0.36642,1.67133-3.29636,4.13969-2.05854,1.29917,0.0586-1.52756,1.6414-3.89874-1.0236-2.7979-1.45836-0.0133-4.44773-0.0666-3.62523,2.20009-1.80834,0.38287-4.12631,0.42325-5.67717-0.47586-0.9259-2.4702-3.81144-3.5558-5.62049-1.31137-1.8025,2.38467-4.30551-0.74156-6.09503,0.49461-0.0237,2.23527,2.28093,3.40462,4.32116,3.38734,2.06562-0.18234,4.18492-0.56558,6.26763-0.22477,1.91711,2.28659-1.83037,3.00321-3.60897,2.6894-2.39695-0.0867-4.54102-1.45657-6.97935-1.26693-1.16492-0.16461-3.8206,1.28459-1.31556,1.4787,1.85975,0.37786,5.66791,0.25128,4.81789,3.16927-1.45811,0.67958-3.26393-0.0665-4.91285,0.63698-0.96797-0.25022-3.87338,0.5347-2.25582-0.29811-0.85609-1.48198-2.51249-2.32067-3.61455-3.60462z"/>
<path d="m812.447,153.269c-0.11078,0-1.11233,0.6966-2.01221,1.40272-1.4735,0.78863-3.04715,2.13104-4.02442,2.80542-0.76938,0.61567-0.76482,0.88384-1.67533,1.05204,1.59794-0.22691,2.30964-0.63313,3.68754-1.40272,1.7421-0.20945,3.42956-0.57917,4.35979-1.40271,0.87257-0.30466-0.0652-1.70261-0.33537-2.45475z"/>
<path d="m827.873,136.789c0.19272,0,0.58576,1.09647,1.33996,1.75339,0.48256,1.34559,0.92719,2.29607,1.0061,3.85746,0.41125-1.71372,1.11385-3.09104,1.34148-4.90949-0.52202-0.92351-0.55693-1.3567-2.01221-1.40271,0,0.9473,0.11077,0.32846-1.67533,0.70135z"/>
<path d="m833.908,137.14v0.35068c0-0.94572-0.0213-0.46334,0.33537,1.40271,0.55389,1.1758,0.67073,2.43729,0.67073,4.20814,0.88016-0.65693,1.61463-1.96761,2.01222-3.1561,0-2.76893-0.37483-2.6055-3.01832-2.80543z"/>
<path d="m846.315,177.463h0.33537c-0.98638,0-0.43097,0.0603,1.34147-1.05204,1.14724-0.79973,2.08657-1.98188,3.68906-2.45474,1.5524-1.27419,2.74668-1.87082,4.35827-2.45316,0.78607-0.37766,1.47957-1.033,2.34758-0.35068-0.24887,1.72959-0.53568,2.38334-2.01221,3.15451-0.76331,0.99967-1.96517,1.58361-3.0168,2.10407-1.09109,0.50142-2.29143,0.52681-2.68295,1.75339-1.82404,0.83941-2.04863,0.69818-4.35979-0.70135z"/>
<path d="m852.687,187.631c0.5979-0.47286,2.69813-2.66261,3.68754-3.50519,1.11992-1.54394,2.25198-2.7245,3.35369-3.50678,0.97727-1.50427,2.22921-2.51187,3.01831-3.85746,0.93175-1.17898,1.61766-2.17706,2.68295-3.50519,0,1.53282-0.13961,3.56549,0.33385,4.55722,0,2.11835-0.23369,2.69753-1.00458,4.20814-0.76179,1.24086-1.32934,2.06281-3.01832,2.80543-1.52358,0.84416-2.43712,1.14089-3.68906,2.10248-0.95451,0.61408-1.94847,1.22499-3.01831,1.75339-0.95907,0.43001-0.51899,0.24277-2.34607-1.05204z"/>
<path d="m842.291,195.696h0.33536c-0.98637,0-0.43248,0.0603,1.34148-1.05204,1.43101-1.49633,2.57065-2.01679,4.35979-2.80542,1.3612-0.10949,3.0077-0.46334,4.02442-1.05203,0.81035-0.14916,1.37486-0.66487,2.0107,0,1.05315,1.48839,1.34299,1.90889-0.33537,2.80542-0.80276,0.71246-2.21859,1.42969-3.35217,1.75339-0.83766,0.72198-2.49478,0.76641-4.02442,1.05203-1.37031,0-2.1321,0.16186-2.68295-0.70135l2.68295,0.70135c-1.37031,0-2.1321,0.16186-4.35979-0.70135z"/>
<path d="m856.71,195.696v-0.35068c0,0.97904-0.041,0.46017,0.67074-1.40271,1.25649-1.96126,1.72995-3.04344,3.35368-3.50678,0.76027-0.96159,2.07747-1.21071,3.68906-1.75339,0.60396,1.05362,0.13961,2.28178,0,3.50678-0.43856,1.30909-1.63436,2.23259-2.34758,3.1561-1.04556,0.74261-1.47198,1.45666-3.01832,1.75339-1.27926,0-0.60093-0.0333-2.34758-1.40271z"/>
<path fill="#c4c4c2" stroke="#000" stroke-width="1.3578" d="m817.476,151.165c-0.74964,0,1.32175-0.7807,2.01222-1.05204,0.55237-1.21706,0.99093-2.07868,2.01221-2.80384,1.67988,0.13488,2.50388,0.64106,3.35368,1.75181,1.41128,0.40304,1.91965,1.10598,3.68906,1.40271,0.65708,0.58076,1.54634,0.64741,0,1.05203-1.05163,0.58077-2.37338,0.70136-4.02443,0.70136-1.72995,0.13012-2.9652,0.5284-4.02442,1.05203-2.24439,0-1.88474,0.0778-3.01832-2.10406z"/>
<ellipse fill="#000" cx="138.108" cy="302.603" rx="1.10487" ry="1.10489" transform="matrix(1.517505,0,0,1.5867785,612.59226,-330.0498)"/>
</g>
<g fill="#005121" stroke="#002b0e" stroke-width="1.9397">
<path d="m827.872,247.944h1.34148c-4.20501,0-1.69202-0.29355,5.36438,5.60927,2.95611-2.57535,2.9212-2.92285,5.36591,1.40271,1.41128,2.46268,1.82556-0.25071,4.0229-2.80384,1.05922,5.09515,1.73755,10.4378,5.36591,5.60926,4.14431,0,8.48286-0.36019,10.7303,1.40272,2.71634,5.27604,1.82708-0.89495,4.02443,1.40271,5.90613,0.74103,5.79384-5.29667,12.2266-6.85806,3.99863,5.22526,5.74983,1.20437,10.7318-1.40113,3.69968,1.08219,7.18691,6.95168,7.89103,1.24563,3.02894-5.16656,3.29299-4.72702,5.3659,0,2.94548,2.77369,4.1868-1.38685,6.70586-2.80384,4.49031,2.74671,9.49808,3.12754,16.0962,1.40271,1.11689,4.67148,3.93338,2.64516,6.70586,1.40113,5.93345,2.60707,8.00333,3.40522,14.7547,0,3.34458-4.13198,1.45073,0.11583,4.0229,2.80542,5.0017-1.62327,3.62077-1.9676,9.39033-1.40271,5.79839,0,6.2673-0.14598,8.04734-4.20655,2.91361,3.04661,3.96676,5.24272,8.04733,1.40271,6.25213,0.192,4.31883,0.82513,8.04886-1.40271,2.75882,6.38837,3.4068,1.77243,6.70586,4.20655-2.17307,5.76159-5.51159,8.46388-9.38881,11.2201-2.57977,4.46837-4.19287,9.29377-9.38882,11.2217-3.79073,4.04311-7.83033,6.38678-12.0718,9.8174-5.81508,1.52013-12.2159,1.40271-18.7791,1.40271h-18.7776-18.7791-18.7776c-4.00622,2.09296-10.5588,3.09105-16.0962,4.20655-6.18384,0-13.1932,0.0762-17.4361-1.40271-2.87568-3.00536-7.91987-6.36457-10.7303-9.8174-2.84381-2.39762-2.92575-7.07704-5.3659-9.8174-2.24439-4.01297-2.93789-10.2918-5.36439-14.0256v-9.8174z"/>
<path d="m957.978,260.567v1.40271c0-3.92093,0.16541-1.83749-2.68295,5.60927-0.57665,1.80893-1.83922,2.23418-4.02442,2.80542"/>
<path d="m945.906,266.177h1.34148c-4.9668,4.90474-8.30987,7.16431-9.39033,12.6228l9.39033-12.6228c-4.9668,4.90474-8.30987,7.16431-9.39033,12.6228"/>
<path d="m927.127,259.165c0,0.12535-0.18817,5.00311-1.34147,7.01197"/>
<path d="m921.763,268.982v1.40271-1.40271z"/>
<path d="m911.032,260.567h1.34148-1.34148z"/>
<path d="m835.919,260.567c0.64039,0,3.27933,4.4525,6.70586,7.01198-0.85284,4.10341-2.16396,8.85105,0,12.6228"/>
<path d="m846.649,268.982c0.64038,0,3.27933,4.45409,6.70737,7.01356l-6.70737-7.01356c0.64038,0,3.27933,4.45409,6.70737,7.01356v1.40272c0-4.3335-0.34447-8.87169,1.33996-11.2217,1.49171,2.63882,3.37493,6.88187,4.02443,2.80543,7.55414-0.28245,11.2007-2.50076,16.0962-4.20655,0,2.06281-0.31716,1.07107,1.34147,2.80384"/>
<path d="m967.367,261.97h1.34148c-2.52968,2.20404-4.47057,6.69938-6.70738,9.81741"/>
<path d="m912.374,257.762h10.7303"/>
</g>
<g fill="#fff">
<path d="m824.718,268.429c-16.1311,0-21.4775,16.8577-37.6086,16.8577-0.31034,0-0.6046-0.0255-0.90714-0.0377v1.02053c-0.0608,11.6854,0.85765,22.57,2.53244,32.7327,14.8808-1.08684,20.4088-16.8577,35.9833-16.8577,16.1311,0,21.5153,16.8955,37.6464,16.8955,16.131,0,21.5153-16.8955,37.6464-16.8955s21.5153,16.8955,37.6464,16.8955,21.5153-16.8955,37.6464-16.8955c15.5338,0,21.0768,15.6596,35.8699,16.8199,1.7721-10.4347,2.7084-21.6456,2.6458-33.6777v-0.0377c-0.3025,0.0122-0.5968,0.0377-0.9071,0.0377-16.1311,0-21.4776-16.8577-37.6086-16.8577-16.1311,0-21.5153,16.8577-37.6464,16.8577s-21.5154-16.8577-37.6464-16.8577c-16.1311,0-21.5153,16.8577-37.6464,16.8577s-21.5154-16.8577-37.6464-16.8577z"/>
<path d="m824.718,334.234c-12.5486-0.00001-18.585,10.1721-28.2348,14.7033,3.37126,9.2945,7.44582,17.7549,11.9818,25.5134,4.58242-3.46521,9.4537-6.46339,16.253-6.46339,16.1311-0.00001,21.5153,16.8577,37.6464,16.8577,16.131,0,21.5153-16.8577,37.6464-16.8577,16.1311-0.00001,21.5153,16.8577,37.6464,16.8577s21.5153-16.8577,37.6464-16.8577c6.64925,0,11.4555,2.86935,15.9506,6.23661,4.53503-7.72309,8.62643-16.1692,12.0196-25.4-9.49735-4.59095-15.5359-14.5899-27.9702-14.5899-16.1311-0.00001-21.5153,16.8577-37.6464,16.8577s-21.5154-16.8577-37.6464-16.8577c-16.1311-0.00001-21.5153,16.8577-37.6464,16.8577s-21.5154-16.8577-37.6464-16.8577z"/>
<path d="m900.011,400.04c-16.1311-0.00001-21.5153,16.8955-37.6464,16.8955-15.2555,0-20.902-15.1039-35.114-16.7444,18.9944,21.1594,40.5334,33.9695,55.2223,41.0104,4.96772-3.85569,10.1124,4.68691,17.5381,4.68691,7.37272,0,12.4898-8.58651,17.4247-4.7625,14.5266-7.07257,35.8026-19.9033,54.6932-40.8592-13.7469,2.00976-19.4462,16.6688-34.4714,16.6688-16.1311,0-21.5154-16.8955-37.6464-16.8955z"/>
</g>
<g stroke="#522108">
<g fill="none">
<path stroke-width="0.7371" d="m800.148,342.754c2.64653-0.92192,15.4376-5.07293,15.8792-4.61277,0.44159,0.46176,24.702,24.9077,24.702,24.9077l-20.2906,4.15101-20.2906-24.4459z"/>
<g stroke-width="0.7513">
<path d="m848.358,374.785c0.37408-5.78836,11.2095-38.709,11.2095-38.709"/>
<path d="m852.095,375.177c0-0.36216,8.59483-38.7388,8.59483-38.7388"/>
<path d="m855.039,375.237c0.37279-2.17048,7.14479-38.7986,7.14479-38.7986"/>
<path d="m851.349,364.293c1.86783,0,5.60476-1.44741,5.60476-1.44741"/>
<path d="m852.47,359.952c0-0.36216,5.60477-1.4474,5.60477-1.4474"/>
<path d="m853.216,354.526,5.97884-1.08524"/>
<path d="m855.832,349.823c0,0.36216,4.10973,0.36216,4.10973,0.36216"/>
</g>
<g stroke-width="0.7371">
<path d="m914.897,400.376c-0.44159-9.91194-13.2326-66.2848-13.2326-66.2848"/>
<path d="m910.485,398.517c0-0.62016-10.146-63.8063-10.146-63.8063"/>
<path d="m906.074,393.56c-0.44007-3.71671-7.498-58.8493-7.498-58.8493"/>
<path d="m914.455,392.322c-2.20494-1.85836-8.82126-4.33687-8.82126-4.33687"/>
<path d="m911.367,382.41c-2.20493,0-6.61632-2.47852-6.61632-2.47852"/>
<path d="m910.044,374.977c0-0.62016-6.61633-2.47852-6.61633-2.47852"/>
<path d="m909.162,365.685-7.05792-1.85835"/>
<path d="m906.074,357.631c0,0.62016-4.85147,0.62016-4.85147,0.62016"/>
<path d="m904.75,350.198c-0.88167,0-4.85147,1.23819-4.85147,1.23819"/>
</g>
<g stroke-width="0.7371">
<path d="m948.797,372.677c-2.20493,0-6.61632-1.84543-6.61632-1.84543"/>
<path d="m952.326,386.053c-0.44159-7.38011-13.2326-49.3536-13.2326-49.3536"/>
<path d="m947.915,384.67c0-0.46175-10.146-47.5082-10.146-47.5082"/>
<path d="m943.504,380.979c-0.44007-2.76734-7.498-43.8173-7.498-43.8173"/>
<path d="m947.473,367.142c0-0.46175-6.61633-1.84542-6.61633-1.84542"/>
<path d="m946.592,360.224-7.05792-1.38367"/>
<path d="m943.504,354.227c0,0.46176-4.85147,0.46176-4.85147,0.46176"/>
<path d="m942.18,348.693c-0.88167,0-4.85147,0.92192-4.85147,0.92192"/>
</g>
</g>
<g fill="#dd8b59" stroke-width="0.7371">
<path d="m895.426,391.646c0-0.46175,1.32326-115.771,1.32326-115.771s3.9698-0.46175,3.9698,0-0.44008,115.31-0.88167,115.771c-0.4416,0.46175-4.85299,0.92192-4.41139,0z"/>
<path d="m938.656,280.947c0,0.92351-0.88319,97.3219-0.88319,97.3219l-3.08813,3.69085,0.88319-101.013h3.08813z"/>
<path d="m861.903,369.507c0.44007-2.76893,0.44007-86.2526,0.44007-86.2526l-2.64653-0.46175-0.44007,85.3306,2.64653,1.38367z"/>
<path d="m845.141,338.141c1.76486,0,31.7599-5.07293,31.7599-5.07293l-0.44159,5.07293-29.5534,3.2291-1.76486-3.2291z"/>
<path d="m845.581,311.389c1.76486,0.46176,36.1713-9.6857,36.1713-9.6857s0,3.2291-0.4416,3.2291c-0.44007,0-35.7297,9.6857-35.7297,9.6857v-3.2291z"/>
<path d="m846.906,298.013c-0.44159,1.84543,0.44008,4.1526,0.44008,4.1526l28.6718-10.1474s1.32327-2.30718,0-2.30718c-1.32326,0-29.5534,9.22554-29.1118,8.30203z"/>
<path d="m884.84,291.556c0.88167,0,29.5534-9.6857,29.5534-9.6857s0.44159,4.15101,0,4.15101c-0.44008,0-26.9069,8.30203-26.9069,8.30203l-2.64653-2.76734z"/>
<path d="m882.634,303.549s-0.88167,4.15101-0.44008,4.15101c0.44008,0,37.493-10.1474,37.493-10.1474v-2.76735l-37.053,8.76379z"/>
<path d="m883.957,336.297,0,3.2275,31.7599-4.61118-0.88167-2.30717-30.8782,3.69085z"/>
<path d="m920.57,338.603,0.44007,2.76734s31.7599-4.15102,31.7599-4.61277c0-0.46016,0-3.22751-0.44008-3.22751-0.44159,0-31.3198,5.53469-31.7599,5.07294z"/>
<path d="m920.128,309.084,0.4416,3.22751,37.493-10.6076s0.88319-2.76734,0.4416-2.76734c-0.4416,0-37.4946,11.5311-38.3762,10.1474z"/>
<path d="m924.098,294.324s-0.44008,2.76734,0,2.76734c0.44159,0,27.7901-6.91835,27.7901-7.38011,0-0.46016,2.64653-3.22909,0.44159-2.76734-2.20645,0.46175-27.3485,8.76378-28.2317,7.38011z"/>
</g>
<g fill="#fecf3e" stroke-width="0.7371">
<path d="m864.108,303.549c3.9698-1.38367,1.32327-4.61277,2.20494-4.61277,0.88319,0,3.9698,2.30559,5.73466,0.46017,1.76486-1.84384,3.08812-7.37853,2.20645-6.91836-0.79468,0.41547-19.8018,7.55232-23.9258,7.63379,2.58255,0.99754,10.3417,4.63553,13.7798,3.43717z"/>
<path d="m925.421,297.091s2.20646,5.53469,4.41139,4.61277c2.20494-0.92192,4.41139-2.76734,4.41139-2.76734s1.76486,4.61277,4.85147,3.68926c3.08813-0.92192,4.85299-5.99644,4.85299-5.99644s3.0866,0.92351,4.40987,0.46175c1.32478-0.46175,3.08812-7.84027,3.08812-7.84027l-26.0252,7.84027z"/>
<path d="m922.775,341.832c-0.44159,0.92192,2.20646,3.2291,4.41139,3.2291,2.20494,0,3.08813-3.2291,3.52821-2.30718,0.44159,0.92351,0.44159,5.07452,6.17625,3.69085,5.73465-1.38367,5.73465-5.53469,5.73465-5.53469s-1.76486,1.38367,2.20494,1.84384c3.96979,0.46175,7.93959-5.99644,7.49951-5.99644-0.44159,0-28.6718,5.53627-29.555,5.07452z"/>
<path d="m922.775,311.851s-4.41139,5.07293-3.08812,11.9913c1.32326,6.91994,3.08812,12.9148,3.52972,12.9148,0.44159,0,5.29306-9.22395,10.5861-9.6857,5.29306-0.46175,14.9975,5.07452,14.9975,5.07452s-1.32326-11.071-0.88167-16.1439c0.44008-5.07452,7.9396-13.8367,7.9396-13.8367l-33.0832,9.68571z"/>
<path d="m846.464,341.832c0.44159,0,0,4.15102,3.5282,3.2291,3.52972-0.92351,4.41139-3.2291,4.41139-3.2291s0.88167,5.07293,5.73466,4.61277c4.85146-0.46175,7.49799-5.99644,7.49799-5.99644s0.4416,4.15101,3.52972,2.76734c3.08813-1.38367,3.9698-4.61276,3.9698-4.61276l-27.7901,4.15101-0.88167-0.92192z"/>
<path d="m846.464,314.619s-3.9698,1.38367-2.64653,9.6857c1.32326,8.30203,4.41139,12.9148,4.85146,12.9148,0.4416,0,3.9698-7.84027,9.26286-9.22394,5.29458-1.38526,14.5574,4.15101,14.5574,4.15101s-0.88319-7.38011,0.44159-14.2985c1.32327-6.91994,5.73314-11.9929,5.73314-11.9929s-30.8767,8.76378-32.2,8.76378z"/>
<path d="m885.722,292.94c1.76486,0.46175,4.85299,5.07293,6.61633,4.15101,1.76486-0.92191,4.41139-3.68926,4.41139-3.68926s-0.44159,5.53469,3.08813,4.61118c3.5282-0.92192,3.96979-4.61118,3.96979-4.61118s2.64653,1.38367,4.85147,0c2.20645-1.38367,4.41139-8.30361,3.52972-8.30361s-25.5836,8.30361-26.4668,7.84186z"/>
<path d="m884.84,306.317c0,0.92192-4.41139,8.30203-3.08812,15.2204,1.32326,6.91835,3.96979,13.3765,4.41139,13.3765,0.44159,0,7.05792-7.38011,12.7926-8.76378,5.73313-1.38367,14.1143,4.61277,13.6742,4.61277-0.44159,0-2.20645-6.91994-2.20645-11.9929,0-5.07452,6.61633-20.7567,6.61633-20.7567l-32.2,8.30362z"/>
<path d="m884.84,339.525c0,0.46176,1.32327,3.69085,4.41139,3.69085,3.08661,0,3.52821-3.22909,3.52821-3.22909s-0.4416,5.53468,4.41139,5.07452c4.85146-0.46176,6.61632-5.53628,6.61632-5.53628s0.4416,2.76893,4.41139,1.38526c3.9698-1.38526,9.26286-5.99644,8.82127-5.99644-0.44008,0-31.7584,5.99644-32.2,4.61118z"/>
</g>
<g fill="#dd8b59" stroke-width="0.7371">
<path d="m846.464,372.734s4.41139,47.5082,55.1386,46.1245c50.7272-1.38367,64.8415-47.9683,64.8415-47.9683s-21.6138-0.92351-22.0554-0.92351c-0.44007,0-17.644,22.1403-39.6995,21.6786-22.0554-0.46175-29.1118-5.99644-33.9648-10.6076-4.85147-4.61277-9.26286-11.5311-9.26286-11.5311l-25.5836-10.6092,1.32326,10.1474,9.26286,3.68927z"/>
<path d="m983.411,367.799c-0.4416-1.38367-1.52813-6.13449-1.52813-6.13449v-5.53468l2.44166-5.60451s-38.3762,5.74891-38.3762,6.21066c0-0.53157-0.23673,10.925-0.23673,10.925l37.6994,0.13805z"/>
<path d="m976.149,356.13-0.88167,9.6857,6.17473,0-0.44007-9.6857-4.85299,0z"/>
<path d="m969.532,356.592-0.44159,10.1459,3.9698-0.46017,0.44159-9.6857-3.9698,0z"/>
<path d="m962.916,366.738,0-7.84028,3.96979-1.38367,0.4416,7.84028-4.41139,1.38367z"/>
<path d="m955.416,366.278,0.88319-6.91836,4.40987,0.46017,0.4416,7.38011-5.73466-0.92192z"/>
<path d="m947.035,366.278,0.4416-5.99644,4.41139-0.46175,0,6.91836-4.85299-0.46017z"/>
<path d="m942.625,369.967,41.9044,0.92351,0.44159-3.2291-43.2292-0.46175,0.88319,2.76734z"/>
<path d="m944.389,358.436c4.85299,0,41.4643-7.38011,41.4643-7.38011s1.32327-4.61118,0-4.61118c-1.32326,0-41.4643,8.76378-41.4643,8.76378v3.22751z"/>
<path d="m798.825,342.294,33.5232,17.0658-0.88168,2.30559s-32.2015-15.6821-32.2015-16.1439c0-0.46016,0.4416-2.30559-0.44007-3.22751z"/>
<path d="m814.263,337.219c0,1.38368,4.85298,29.5189,4.85298,29.5189s3.08813,0.46175,3.08813,0c0-0.46017-5.29458-29.0571-5.29458-29.0571l-2.64653-0.46176z"/>
</g>
<g fill="none">
<g stroke-width="0.7513">
<path d="m882.044,389.315c0.44159-7.66848,13.2326-51.282,13.2326-51.282"/>
<path d="m886.456,389.834c0-0.47979,10.146-51.3216,10.146-51.3216"/>
<path d="m889.931,389.913c0.44007-2.87547,8.4343-51.4007,8.4343-51.4007"/>
<path d="m882.486,383.084c2.20494-1.43773,8.82126-3.35527,8.82126-3.35527"/>
<path d="m885.574,375.416c2.20493,0,6.61632-1.91753,6.61632-1.91753"/>
<path d="m886.897,369.665c0-0.4798,6.61633-1.91753,6.61633-1.91753"/>
<path d="M887.779,362.476,894.837,361.038"/>
<path d="m890.867,356.245c0,0.4798,4.85147,0.4798,4.85147,0.4798"/>
<path d="m892.19,350.494c0.88167,0,4.85147,0.95794,4.85147,0.95794"/>
</g>
<g stroke-width="0.7371">
<path d="m919.474,388.989c0.44159-7.38011,13.2326-49.3536,13.2326-49.3536"/>
<path d="m923.885,387.605c0-0.46175,10.146-47.5082,10.146-47.5082"/>
<path d="m928.296,383.914c0.44007-2.76734,7.498-43.8173,7.498-43.8173"/>
<path d="m919.915,382.992c2.20494-1.38368,8.82126-3.2291,8.82126-3.2291"/>
<path d="m923.003,375.612c2.20493,0,6.61632-1.84543,6.61632-1.84543"/>
<path d="m924.326,370.077c0-0.46175,6.61633-1.84542,6.61633-1.84542"/>
<path d="m925.208,363.159,7.05792-1.38367"/>
<path d="m928.296,357.162c0,0.46176,4.85147,0.46176,4.85147,0.46176"/>
<path d="m929.62,351.628c0.88167,0,4.85147,0.92192,4.85147,0.92192"/>
</g>
<g stroke-width="0.7371">
<path d="m877.156,384.068c-0.44159-7.42463-13.2326-49.6514-13.2326-49.6514"/>
<path d="m872.744,382.676c0-0.46454-10.146-47.7948-10.146-47.7948"/>
<path d="m868.333,378.963c-0.44007-2.78404-7.498-44.0817-7.498-44.0817"/>
<path d="m876.714,378.036c-2.20494-1.39202-8.82126-3.24858-8.82126-3.24858"/>
<path d="m873.626,370.611c-2.20493,0-6.61632-1.85656-6.61632-1.85656"/>
<path d="m872.303,365.043c0-0.46454-6.61633-1.85656-6.61633-1.85656"/>
<path d="m871.421,358.083-7.05792-1.39202"/>
<path d="m868.333,352.05c0,0.46454-4.85147,0.46454-4.85147,0.46454"/>
<path d="m867.01,346.482c-0.88167,0-4.85147,0.92748-4.85147,0.92748"/>
</g>
</g>
<path fill="#b6b6b4" stroke-width="0.73708421" d="m834.995,359.359s-8.82127-1.38367-8.38119,0.92192c0.44159,2.30559,4.41139,4.61277,4.85298,5.99644,0.44008,1.38367-1.32326,6.45661,1.32327,5.99644,2.64653-0.46175,5.29306-2.30718,5.29306-3.69085s-0.44159-7.84027-0.44159-7.84027l-2.64653-1.38368z"/>
<g fill="none" stroke-width="0.7371">
<path d="m844.699,372.274c1.32326,0,11.4693,2.30559,11.4693,2.30559l10.5861,14.7602"/>
<path d="m852.199,374.118c0.44008,0.46175,9.26286,31.3643,51.6089,31.3643s52.4921-35.0535,52.4921-35.0535"/>
<path d="m962.916,371.351s-20.2906,46.1245-59.1084,42.8954c-38.8178-3.22751-44.9925-18.4495-48.0807-26.2898-3.08813-7.84186-4.85147-14.2985-4.85147-14.2985"/>
<g>
<path d="m951.888,333.99c0.44159-1.38367,1.76486-29.0571,1.76486-29.0571"/>
<path d="m982.765,347.828-27.3485-45.2026"/>
<path d="m899.838,277.258c0-0.46175,13.6742,5.99644,13.6742,6.45661,0,0.46175,48.5208,67.8031,48.9623,67.8031"/>
<path d="m938.214,283.714,12.351,5.53627,3.9698,10.1459"/>
<path d="m861.462,282.793c-0.44159,0,13.6742,11.0694,13.6742,11.0694l1.76486,9.22553"/>
<path d="m813.381,350.134c6.17473-2.76734,48.9623-41.9735,48.9623-41.9735"/>
<path d="m801.912,342.754c5.29458-4.61277,48.0807-42.4336,48.0807-42.4336"/>
<path d="m882.194,306.777,45.4341,78.8724"/>
<path d="m922.268,339.393s5.35983,18.5828,10.6529,21.3501c5.29306,2.76734,11.4678,7.38011,11.4678,7.38011"/>
<path d="m921.656,339.779s3.76493,21.8864,9.058,26.0375c5.29306,4.15101,10.5876,8.76378,10.5876,8.76378"/>
<path d="m885.067,338.251s5.29306,30.4424,15.8807,37.3607c10.5861,6.91835,19.4074,12.9148,19.4074,12.9148"/>
<path d="m884.627,337.79s11.4678,23.9858,21.1722,31.3659c9.70445,7.37852,22.9371,14.2985,22.9371,14.2985"/>
<path d="m847.574,339.635c3.08661,5.53469,2.64653,16.1439,6.17474,19.8332,3.5282,3.69085,8.82278,11.9929,8.82278,11.9929"/>
<path d="m848.456,340.097c1.76486,2.76735,6.68614,16.5469,9.70446,20.7551,2.20645,3.69084,24.702,27.2133,24.702,27.2133"/>
</g>
</g>
<g fill="#000" stroke-width="0.475">
<ellipse rx="3.308315" ry="3.45929" cx="872.054473" cy="389.218617"/>
<ellipse rx="2.867176" ry="2.998061" cx="888.816847" cy="396.598727"/>
<ellipse rx="2.867176" ry="2.998061" cx="909.549017" cy="398.444151"/>
<ellipse rx="2.646652" ry="2.536816" cx="928.074732" cy="391.294124"/>
<ellipse rx="2.426128" ry="2.998045" cx="942.190575" cy="382.30026"/>
</g>
<g fill="#ff0101" stroke-width="0.7371">
<path d="m859.483,283.363c-1.32326,0.92351-23.3787,6.45819-20.2906,5.99644,3.0866-0.46017,20.7322,4.61277,20.2906,3.22909-0.44159-1.38367,0-8.30202,0-9.22553z"/>
<path d="m896.978,276.445c-0.88319,0-13.6758,5.07452-13.2342,5.07452s14.5574,4.15102,14.1158,3.22751c-0.4416-0.92192-0.4416-6.91836-0.88167-8.30203z"/>
<path d="m935.354,281.057c-0.88319,0.46175-15.8807,4.15101-13.2342,4.61277,2.64653,0.46175,12.7926,4.15101,12.7926,3.22909,0-0.9235,0-7.38011,0.44159-7.84186z"/>
</g>
<g fill="#be1017" stroke-width="0.5813" transform="matrix(0.04915326,-1.2962189,1.2382477,0.05145445,0,0)">
<circle r="1.8894" cx="-216.002142" cy="726.376815"/>
<circle r="1.8894" cx="-212.21777" cy="739.051036"/>
<circle r="1.8894" cx="-219.249357" cy="732.917906"/>
<circle r="1.8894" cx="-208.970565" cy="732.509881"/>
<circle r="1.8894" cx="-214.109961" cy="732.713893"/>
</g>
</g>
</g>
</svg>